<?xml version="1.0" encoding="utf-8" standalone="no"?>
<!DOCTYPE svg PUBLIC "-//W3C//DTD SVG 1.1//EN"
  "http://www.w3.org/Graphics/SVG/1.1/DTD/svg11.dtd">
<svg xmlns:xlink="http://www.w3.org/1999/xlink" width="360pt" height="360pt" viewBox="0 0 360 360" xmlns="http://www.w3.org/2000/svg" version="1.1">
 <metadata>
  <rdf:RDF xmlns:dc="http://purl.org/dc/elements/1.1/" xmlns:cc="http://creativecommons.org/ns#" xmlns:rdf="http://www.w3.org/1999/02/22-rdf-syntax-ns#">
   <cc:Work>
    <dc:type rdf:resource="http://purl.org/dc/dcmitype/StillImage"/>
    <dc:date>2025-03-23T17:17:44.632350</dc:date>
    <dc:format>image/svg+xml</dc:format>
    <dc:creator>
     <cc:Agent>
      <dc:title>Matplotlib v3.9.2, https://matplotlib.org/</dc:title>
     </cc:Agent>
    </dc:creator>
   </cc:Work>
  </rdf:RDF>
 </metadata>
 <defs>
  <style type="text/css">*{stroke-linejoin: round; stroke-linecap: butt}</style>
 </defs>
 <g id="figure_1">
  <g id="patch_1">
   <path d="M 0 360 
L 360 360 
L 360 0 
L 0 0 
z
" style="fill: #ffffff"/>
  </g>
  <g id="axes_1">
   <g id="patch_2">
    <path d="M 45 320.4 
L 324 320.4 
L 324 43.2 
L 45 43.2 
z
" style="fill: #ffffff"/>
   </g>
   <g id="matplotlib.axis_1"/>
   <g id="matplotlib.axis_2"/>
   <g id="line2d_1">
    <path d="M 45 286.52 
L 324 286.52 
" clip-path="url(#pd4eda36189)" style="fill: none; stroke: #000000; stroke-width: 0.7; stroke-linecap: square"/>
   </g>
   <g id="line2d_2">
    <path d="M 82.944 284.171458 
L 84.06 289.47387 
L 85.176 288.056779 
L 86.292 284.220614 
L 87.408 292.045637 
L 88.524 292.840113 
L 89.64 289.958539 
L 90.756 288.062796 
L 91.872 283.85887 
L 92.988 285.926347 
L 95.22 286.022118 
L 96.336 287.594789 
L 97.452 288.077038 
L 98.568 287.249963 
L 99.684 282.334284 
L 100.8 287.036835 
L 101.916 287.543998 
L 103.032 285.324336 
L 104.148 265.105882 
L 106.38 253.392182 
L 107.496 261.860121 
L 108.612 253.09322 
L 109.728 258.441961 
L 110.844 248.381462 
L 111.96 252.63896 
L 113.076 253.980712 
L 114.192 258.072849 
L 115.308 254.172863 
L 116.424 258.811684 
L 117.54 250.881684 
L 118.656 260.044589 
L 119.772 263.94337 
L 120.888 254.143618 
L 122.562 261.134983 
L 123.12 263.663317 
L 124.236 263.491092 
L 125.352 259.312173 
L 126.468 257.933553 
L 127.584 256.123627 
L 128.7 263.419966 
L 129.816 263.851382 
L 130.932 268.078868 
L 132.048 258.587496 
L 133.164 266.73013 
L 134.28 263.852014 
L 135.396 266.987145 
L 136.512 260.497645 
L 137.628 262.907437 
L 138.744 269.047 
L 139.86 266.777264 
L 140.976 261.115219 
L 142.092 270.054587 
L 143.208 269.925324 
L 144.324 267.274228 
L 145.44 266.064183 
L 146.556 266.724641 
L 147.672 266.854591 
L 148.788 260.444577 
L 149.904 266.812633 
L 151.02 259.276072 
L 152.136 271.612053 
L 153.252 272.836027 
L 154.368 270.404324 
L 155.484 271.174807 
L 156.6 264.220312 
L 157.716 275.054685 
L 158.832 266.321532 
L 159.948 264.81325 
L 161.064 270.339011 
L 162.18 281.364059 
L 163.296 269.407339 
L 164.412 270.764709 
L 165.528 271.282285 
L 166.644 270.343755 
L 167.76 267.544026 
L 168.876 274.002805 
L 169.992 268.843288 
L 171.108 278.440092 
L 172.224 279.022988 
L 173.34 277.73773 
L 174.456 273.154562 
L 175.572 270.455154 
L 176.688 275.638847 
L 177.804 268.415075 
L 178.92 276.599253 
L 180.036 267.193375 
L 181.152 272.590918 
L 182.268 270.54334 
L 183.384 275.700658 
L 184.5 276.934675 
L 185.616 275.511895 
L 186.732 276.433114 
L 187.848 274.893092 
L 188.964 271.444141 
L 190.08 277.830522 
L 191.196 279.392117 
L 192.312 268.397768 
L 193.428 278.011649 
L 194.544 276.759828 
L 195.66 272.807542 
L 196.776 271.413415 
L 197.892 277.123357 
L 199.008 286.119519 
L 200.124 279.437158 
L 201.24 278.24298 
L 202.356 275.088562 
L 203.472 274.573167 
L 204.588 279.422783 
L 206.82 275.78176 
L 207.936 276.04355 
L 209.052 277.103714 
L 210.168 274.544725 
L 211.284 278.177328 
L 212.4 283.372195 
L 213.516 276.667987 
L 214.632 280.76697 
L 215.748 277.562471 
L 216.864 275.913559 
L 217.98 270.929127 
L 219.096 272.408894 
L 220.212 282.170835 
L 221.328 281.2908 
L 222.444 275.344969 
L 223.56 275.000891 
L 224.676 280.795155 
L 225.792 281.369635 
L 226.908 282.966572 
L 228.024 282.439793 
L 229.14 279.713386 
L 230.256 279.232775 
L 231.372 279.18138 
L 232.488 282.45387 
L 233.604 278.771126 
L 234.72 279.227909 
L 235.836 284.313817 
L 236.952 279.870985 
L 238.068 272.778422 
L 239.184 281.057674 
L 240.3 280.755729 
L 241.416 273.330901 
L 242.532 275.409014 
L 243.648 286.205634 
L 244.764 280.701322 
L 246.996 278.205206 
L 248.112 278.57634 
L 249.228 275.049713 
L 250.344 286.513556 
L 251.46 279.255249 
L 252.576 283.207884 
L 253.692 283.093378 
L 254.808 282.239824 
L 255.924 285.682751 
L 257.04 282.028873 
L 258.156 283.52019 
L 259.272 280.386605 
L 260.388 284.479399 
L 261.504 281.279378 
L 262.62 279.724219 
L 263.736 273.669801 
L 264.852 284.229853 
L 265.968 278.659946 
L 267.084 282.183236 
L 268.2 283.16961 
L 269.316 279.735026 
L 270.432 281.880461 
L 271.548 286.19117 
L 272.664 280.680568 
L 273.78 277.742893 
L 274.896 275.856113 
L 277.128 286.038199 
L 278.244 280.75378 
L 279.36 281.199719 
L 280.476 284.300979 
L 281.592 284.148776 
L 282.708 277.740737 
L 284.382 284.492664 
L 284.94 286.497262 
L 286.056 286.255139 
L 287.172 279.782285 
L 288.288 282.978561 
L 289.404 287.292702 
L 290.52 284.087256 
L 291.636 282.198392 
L 292.752 287.775568 
L 293.868 285.917459 
L 294.984 280.617192 
L 296.1 286.821268 
L 297.216 283.513418 
L 298.332 285.990345 
L 300.006 280.228739 
L 300.564 278.568895 
L 301.68 284.137615 
L 302.796 283.154369 
L 303.912 285.108034 
L 305.028 281.083558 
L 306.144 287.632917 
L 307.26 286.278658 
L 308.376 286.395009 
L 309.492 282.83436 
L 310.608 284.950598 
L 311.724 284.726756 
L 312.84 281.911397 
L 313.956 287.786435 
L 315.072 283.671656 
L 316.188 289.257704 
L 317.304 279.636155 
L 318.42 285.657433 
L 319.536 284.022292 
L 320.652 283.584828 
L 321.768 284.629547 
L 322.884 286.976104 
L 324 285.140946 
L 325.116 284.453059 
L 326.232 280.779205 
L 327.348 283.57214 
L 328.464 277.40915 
L 329.58 283.093871 
L 330.696 281.881621 
L 330.696 281.881621 
" clip-path="url(#pd4eda36189)" style="fill: none; stroke: #000000; stroke-linecap: square"/>
   </g>
   <g id="line2d_3">
    <path d="M 82.944 283.344515 
L 85.176 286.791519 
L 86.292 286.269813 
L 87.408 284.272441 
L 88.524 290.715891 
L 89.64 286.929245 
L 90.756 290.46359 
L 91.872 280.033269 
L 92.988 292.790997 
L 94.104 279.51246 
L 95.22 282.383776 
L 96.336 287.043368 
L 97.452 288.269702 
L 98.568 291.519165 
L 99.684 286.30232 
L 100.242 289.612714 
L 101.358 289.612714 
L 101.916 267.090778 
L 103.032 262.856837 
L 104.148 263.344241 
L 105.264 252.044355 
L 106.38 254.169177 
L 107.496 245.510279 
L 108.612 248.707227 
L 109.728 248.110762 
L 110.844 244.632403 
L 111.96 242.30874 
L 113.076 247.332167 
L 114.192 244.675547 
L 115.308 246.101152 
L 116.424 245.652648 
L 117.54 249.537948 
L 118.656 246.646918 
L 119.772 228.124594 
L 120.888 233.688378 
L 122.004 241.061476 
L 123.12 244.596675 
L 124.236 238.736946 
L 125.352 241.488029 
L 126.468 236.302338 
L 127.584 248.019793 
L 128.7 246.219275 
L 129.816 250.540282 
L 130.932 234.513082 
L 132.048 247.540994 
L 134.28 239.668256 
L 135.396 239.825547 
L 136.512 250.988399 
L 137.628 249.776219 
L 138.744 249.153433 
L 139.86 239.006502 
L 140.976 239.496998 
L 142.092 246.634762 
L 143.208 244.560233 
L 144.324 248.691556 
L 145.44 254.343022 
L 146.556 247.262689 
L 147.672 257.639392 
L 148.788 250.768595 
L 149.904 252.385949 
L 151.02 249.831878 
L 152.694 257.56321 
L 153.252 259.930543 
L 154.368 254.45741 
L 156.6 258.95368 
L 157.716 253.388163 
L 158.832 260.639325 
L 159.948 259.605887 
L 161.064 259.888867 
L 162.18 256.152231 
L 163.296 259.88292 
L 164.412 266.745288 
L 165.528 256.993404 
L 166.644 265.177557 
L 167.76 268.452898 
L 168.876 264.502624 
L 169.992 263.02491 
L 171.108 264.565416 
L 172.224 273.194195 
L 173.34 267.294392 
L 174.456 257.570354 
L 175.572 267.874009 
L 176.688 268.50546 
L 177.804 263.516537 
L 178.92 271.637741 
L 180.036 267.627046 
L 181.152 273.373224 
L 182.268 274.041173 
L 183.384 272.199604 
L 184.5 272.889577 
L 185.616 266.283708 
L 186.732 267.977041 
L 187.848 256.721677 
L 188.964 268.302961 
L 190.08 273.931967 
L 191.196 266.284218 
L 192.312 273.960773 
L 193.428 274.42941 
L 194.544 270.174881 
L 195.66 263.715423 
L 196.776 267.274787 
L 197.892 273.973897 
L 199.008 272.800644 
L 200.124 276.836817 
L 201.24 277.385801 
L 202.356 277.258269 
L 203.472 270.789546 
L 204.588 274.797075 
L 205.704 276.38799 
L 206.82 270.440802 
L 207.936 274.128373 
L 209.052 276.768364 
L 210.168 273.690036 
L 211.284 273.798697 
L 212.4 271.554579 
L 213.516 281.455435 
L 214.632 268.121761 
L 215.748 273.003614 
L 216.864 281.094571 
L 217.98 280.5009 
L 219.096 276.452288 
L 220.212 276.020374 
L 221.328 282.086413 
L 222.444 277.430987 
L 223.56 275.58318 
L 224.676 275.381143 
L 225.792 272.634622 
L 226.908 275.941559 
L 228.024 281.023079 
L 230.256 270.014713 
L 231.372 270.868402 
L 232.488 279.173579 
L 233.604 273.748538 
L 234.72 271.592786 
L 235.836 277.991047 
L 236.952 277.323028 
L 238.068 274.436926 
L 239.184 274.270796 
L 240.3 275.442373 
L 241.416 275.21612 
L 242.532 280.049929 
L 243.648 279.322722 
L 244.764 283.448837 
L 245.88 281.528201 
L 246.996 278.684911 
L 248.112 280.664696 
L 249.228 281.105479 
L 250.344 274.952177 
L 251.46 278.165813 
L 252.576 279.014101 
L 253.692 287.343745 
L 254.808 284.511104 
L 255.924 275.0875 
L 257.04 273.252073 
L 258.156 276.481896 
L 259.272 283.430373 
L 260.388 282.106217 
L 261.504 286.574498 
L 262.62 281.202293 
L 263.736 284.080239 
L 264.852 283.702365 
L 265.968 281.167678 
L 267.084 280.127799 
L 268.2 281.753533 
L 269.874 280.000095 
L 270.432 279.520394 
L 272.664 277.059042 
L 273.78 283.322697 
L 274.896 276.570894 
L 276.012 284.758147 
L 277.128 279.343065 
L 278.244 281.033777 
L 279.36 275.23527 
L 280.476 286.142253 
L 281.592 286.447154 
L 282.708 285.591683 
L 283.824 283.485954 
L 284.94 280.835478 
L 286.056 285.447001 
L 287.172 278.977474 
L 288.288 281.285138 
L 289.404 288.772766 
L 290.52 278.610085 
L 291.636 279.363298 
L 292.752 286.965556 
L 293.868 281.32988 
L 294.984 282.106136 
L 296.1 275.222256 
L 297.216 283.70692 
L 298.332 280.691693 
L 299.448 284.627845 
L 300.564 282.361304 
L 301.68 286.558397 
L 302.796 283.97438 
L 303.912 277.749542 
L 305.028 283.093069 
L 306.144 282.369634 
L 307.26 279.792386 
L 308.376 283.636339 
L 309.492 281.819362 
L 310.608 286.190593 
L 311.724 285.60346 
L 312.84 285.980237 
L 313.956 281.587896 
L 315.072 283.330548 
L 316.188 283.850041 
L 317.304 286.080565 
L 318.42 284.259803 
L 319.536 278.835738 
L 320.652 284.058841 
L 321.768 286.318476 
L 322.884 281.247054 
L 324 284.292263 
L 325.116 288.805756 
L 326.232 284.016692 
L 327.348 283.036847 
L 328.464 285.850934 
L 329.58 284.868094 
L 330.696 284.357447 
L 330.696 284.357447 
" clip-path="url(#pd4eda36189)" style="fill: none; stroke: #ff0000; stroke-linecap: square"/>
   </g>
   <g id="line2d_4">
    <path d="M 82.944 288.732833 
L 84.06 284.96754 
L 85.176 288.078725 
L 86.292 284.470137 
L 87.408 288.795476 
L 88.524 290.604648 
L 89.64 285.250755 
L 90.756 287.10034 
L 91.872 283.532797 
L 92.988 285.931045 
L 94.104 280.121915 
L 95.22 291.802194 
L 96.336 294.976038 
L 97.452 284.777933 
L 98.568 284.234006 
L 99.684 287.367554 
L 100.242 289.469778 
L 101.358 289.469778 
L 101.916 266.884061 
L 103.032 264.884042 
L 104.148 260.37536 
L 105.264 261.601448 
L 106.38 141.565291 
L 107.496 68.829327 
L 108.612 78.009495 
L 109.728 62.14271 
L 110.844 69.361164 
L 111.96 51.332034 
L 113.076 75.709124 
L 114.192 59.890383 
L 115.308 72.292425 
L 116.424 94.79542 
L 117.54 91.246925 
L 118.656 98.839836 
L 119.772 100.723925 
L 120.888 92.977819 
L 122.004 107.869986 
L 123.12 90.102589 
L 124.236 110.796498 
L 125.352 117.611198 
L 126.468 120.041515 
L 127.584 127.974671 
L 128.7 140.845384 
L 129.816 132.687085 
L 130.932 132.988227 
L 132.048 138.400646 
L 133.164 145.306875 
L 134.28 145.203505 
L 135.396 161.943937 
L 136.512 165.311754 
L 138.186 160.318447 
L 138.744 158.533791 
L 140.418 171.726633 
L 140.976 175.653271 
L 142.092 165.46107 
L 143.208 172.635709 
L 144.324 169.850203 
L 145.44 175.837486 
L 146.556 178.433118 
L 148.23 176.006097 
L 148.788 175.26814 
L 149.904 188.055394 
L 151.02 192.4989 
L 152.136 190.932663 
L 153.252 198.923532 
L 154.368 194.891112 
L 155.484 206.189677 
L 156.6 196.429377 
L 157.716 212.055478 
L 158.832 201.512456 
L 159.948 203.609132 
L 161.064 204.373944 
L 162.18 216.349307 
L 163.296 214.089947 
L 164.412 217.556974 
L 165.528 210.235238 
L 166.644 223.205796 
L 167.76 220.729322 
L 168.876 219.001545 
L 169.992 224.082415 
L 171.108 233.061185 
L 172.224 228.868514 
L 173.34 219.265019 
L 174.456 220.819652 
L 175.572 229.638562 
L 176.688 233.190904 
L 177.804 235.310231 
L 178.92 226.65693 
L 180.036 222.497089 
L 181.152 234.708931 
L 182.268 230.501615 
L 184.5 231.114586 
L 185.616 240.800391 
L 186.732 235.917978 
L 187.848 241.196556 
L 188.964 232.989707 
L 190.08 245.30492 
L 191.196 233.598757 
L 192.312 238.588434 
L 193.428 232.438271 
L 194.544 239.562279 
L 196.776 242.25453 
L 199.008 236.865964 
L 200.124 238.344748 
L 201.24 232.102789 
L 202.356 241.075146 
L 203.472 245.404823 
L 204.588 253.145501 
L 205.704 242.368862 
L 206.82 249.403426 
L 207.936 253.806906 
L 209.052 249.214226 
L 210.168 242.945773 
L 211.284 248.360488 
L 212.4 249.961007 
L 213.516 260.811599 
L 214.632 245.136494 
L 215.748 249.331843 
L 216.864 254.514481 
L 217.98 252.962385 
L 219.096 246.517626 
L 220.212 256.402536 
L 221.328 258.062092 
L 222.444 251.69912 
L 223.56 250.839454 
L 224.676 259.156949 
L 225.792 255.48438 
L 226.908 256.164177 
L 228.024 250.514258 
L 229.14 248.212348 
L 230.814 257.418962 
L 231.372 260.091818 
L 232.488 258.905636 
L 233.604 255.946512 
L 234.72 256.399962 
L 235.836 258.771011 
L 236.952 258.601153 
L 238.068 265.741872 
L 239.184 249.12101 
L 240.3 263.926882 
L 241.416 267.129018 
L 242.532 260.113704 
L 243.648 259.076057 
L 244.764 262.431541 
L 245.88 271.066794 
L 246.996 253.117543 
L 248.112 262.459516 
L 249.228 262.772839 
L 250.344 255.306259 
L 251.46 263.150309 
L 252.576 260.798731 
L 253.692 257.920533 
L 254.808 257.79496 
L 255.924 258.338002 
L 257.04 263.119139 
L 258.156 260.369892 
L 259.272 263.740548 
L 260.388 262.693818 
L 261.504 268.16222 
L 262.62 256.339299 
L 263.736 254.370331 
L 264.852 258.059325 
L 265.968 265.535924 
L 267.084 268.797216 
L 268.2 262.212236 
L 269.316 264.269509 
L 270.432 262.503855 
L 271.548 261.799189 
L 272.664 258.596024 
L 273.78 271.183442 
L 274.896 260.022997 
L 276.012 260.627107 
L 277.686 264.981494 
L 278.244 266.623 
L 279.36 262.637205 
L 280.476 271.653551 
L 281.592 264.544783 
L 282.708 263.002788 
L 283.824 267.959238 
L 284.94 266.517244 
L 286.056 266.095663 
L 287.172 258.680059 
L 288.288 271.364304 
L 289.404 261.538781 
L 290.52 264.826819 
L 291.636 269.399598 
L 292.752 266.829954 
L 293.868 266.065449 
L 294.984 266.380136 
L 296.1 269.797961 
L 297.216 270.108326 
L 298.332 269.420476 
L 299.448 270.481182 
L 300.564 272.540704 
L 301.68 267.236822 
L 302.796 266.32687 
L 305.028 267.040639 
L 306.144 279.720525 
L 307.26 273.732756 
L 308.376 272.51 
L 309.492 269.109727 
L 310.608 264.918027 
L 311.724 275.525676 
L 312.84 271.359668 
L 313.956 271.498977 
L 315.072 274.142245 
L 316.188 268.284008 
L 317.304 265.477408 
L 318.42 268.468769 
L 319.536 267.291343 
L 320.652 268.739403 
L 321.768 272.868365 
L 322.884 275.323915 
L 324 269.600013 
L 325.116 273.17268 
L 326.232 267.660374 
L 327.348 271.5965 
L 328.464 270.433995 
L 329.58 267.942327 
L 330.696 277.023669 
L 330.696 277.023669 
" clip-path="url(#pd4eda36189)" style="fill: none; stroke: #ff8c00; stroke-linecap: square"/>
   </g>
   <g id="line2d_5">
    <path d="M 82.944 289.178552 
L 83.502 287.226328 
L 84.618 288.937503 
L 85.176 287.14138 
L 85.734 284.182124 
L 86.292 286.572477 
L 86.85 288.224997 
L 87.408 286.517765 
L 87.966 289.030945 
L 88.524 290.334587 
L 89.082 286.523182 
L 89.64 288.54237 
L 90.198 294.222054 
L 90.756 296.386465 
L 91.314 291.568543 
L 91.872 284.912596 
L 92.988 295.281665 
L 94.104 278.953293 
L 94.662 278.286988 
L 95.22 280.756384 
L 95.778 284.119919 
L 96.336 286.450772 
L 97.452 287.724991 
L 98.01 289.396551 
L 98.568 291.807618 
L 99.126 289.985531 
L 99.684 287.618233 
L 100.242 290.280807 
L 101.358 289.453732 
L 101.916 265.362902 
L 102.474 260.788092 
L 103.032 261.022396 
L 103.59 263.617373 
L 104.148 264.114657 
L 104.706 258.718295 
L 105.264 251.958521 
L 105.822 251.911102 
L 106.38 242.864286 
L 106.938 228.42561 
L 107.496 221.098544 
L 108.612 218.438641 
L 109.17 215.281176 
L 109.728 219.216913 
L 110.286 221.711703 
L 111.402 210.043792 
L 111.96 211.556331 
L 112.518 216.742415 
L 113.076 214.223879 
L 113.634 207.86532 
L 114.192 208.665758 
L 114.75 211.50731 
L 115.308 212.890988 
L 115.866 213.337612 
L 116.424 215.159428 
L 116.982 219.148147 
L 117.54 219.140804 
L 118.098 215.745296 
L 118.656 216.619191 
L 119.214 209.677439 
L 119.772 196.451277 
L 120.33 195.26817 
L 122.004 216.535455 
L 122.562 220.252445 
L 123.12 217.120169 
L 123.678 209.290429 
L 124.236 208.59208 
L 125.352 216.103012 
L 125.91 216.0385 
L 126.468 213.359542 
L 127.026 219.132158 
L 127.584 222.901426 
L 128.142 219.911707 
L 128.7 218.322138 
L 129.816 221.048872 
L 130.374 212.130309 
L 130.932 207.764878 
L 131.49 217.927004 
L 132.048 224.656668 
L 132.606 222.849913 
L 133.722 223.14103 
L 134.28 216.481438 
L 134.838 211.814398 
L 135.396 215.96436 
L 135.954 225.617103 
L 136.512 229.75947 
L 137.07 227.714323 
L 137.628 228.675799 
L 138.186 229.931971 
L 138.744 226.375828 
L 139.302 218.057613 
L 139.86 214.189043 
L 140.418 215.639186 
L 140.976 218.954216 
L 141.534 225.59288 
L 142.092 228.026895 
L 142.65 225.854762 
L 143.208 221.986475 
L 143.766 221.221114 
L 144.882 235.051876 
L 145.44 237.812978 
L 145.998 234.208179 
L 146.556 229.342464 
L 147.672 237.788597 
L 148.23 233.748177 
L 148.788 230.643007 
L 149.346 231.781913 
L 149.904 232.655565 
L 150.462 231.443505 
L 151.02 226.961462 
L 151.578 226.438454 
L 152.694 237.855843 
L 153.252 236.454896 
L 153.81 229.950049 
L 154.368 233.381473 
L 154.926 240.723336 
L 156.042 244.195444 
L 156.6 244.053855 
L 157.158 240.055245 
L 157.716 237.657729 
L 158.274 241.668551 
L 158.832 241.816885 
L 159.39 237.822918 
L 160.506 248.282062 
L 161.064 244.056975 
L 161.622 237.822082 
L 162.18 235.199623 
L 162.738 236.310826 
L 163.296 240.93905 
L 163.854 247.133115 
L 164.412 256.076823 
L 164.97 256.713405 
L 165.528 245.859103 
L 166.086 243.97282 
L 166.644 248.743581 
L 167.76 252.956394 
L 168.318 251.240046 
L 168.876 248.795644 
L 169.434 247.587522 
L 169.992 245.4488 
L 170.55 244.819188 
L 171.108 248.818831 
L 171.666 256.36261 
L 172.224 258.097241 
L 172.782 252.567581 
L 173.34 254.416082 
L 173.898 254.352465 
L 174.456 249.781894 
L 175.572 259.734368 
L 176.13 259.407465 
L 176.688 257.431607 
L 177.804 248.801395 
L 178.362 251.512293 
L 178.92 258.164742 
L 179.478 258.751241 
L 180.036 253.134007 
L 180.594 252.39521 
L 181.152 259.360388 
L 181.71 263.786452 
L 182.268 259.417487 
L 182.826 253.793764 
L 183.384 255.571751 
L 183.942 258.615509 
L 184.5 257.936706 
L 185.058 253.609983 
L 185.616 252.885707 
L 186.174 256.311033 
L 186.732 257.774708 
L 187.29 252.764034 
L 187.848 246.424962 
L 188.406 251.504215 
L 188.964 257.755466 
L 189.522 261.030578 
L 190.08 263.07507 
L 190.638 258.481184 
L 191.196 252.932834 
L 191.754 255.046636 
L 192.312 262.078104 
L 192.87 265.505613 
L 193.428 266.520729 
L 193.986 265.174262 
L 195.102 248.82292 
L 195.66 250.400132 
L 196.218 256.986755 
L 196.776 258.140526 
L 197.334 260.864171 
L 197.892 262.237583 
L 198.45 259.674813 
L 199.008 258.391123 
L 199.566 259.712146 
L 200.124 264.585203 
L 200.682 267.714666 
L 201.798 276.921554 
L 202.356 273.516608 
L 202.914 266.941065 
L 203.472 263.109614 
L 204.03 264.51629 
L 204.588 264.942846 
L 205.146 264.161094 
L 205.704 264.698854 
L 206.262 261.467562 
L 206.82 260.918776 
L 207.378 265.18737 
L 207.936 266.112862 
L 209.052 266.932343 
L 209.61 264.49096 
L 210.168 263.082691 
L 210.726 263.267917 
L 211.284 263.852329 
L 211.842 263.260352 
L 212.4 260.858798 
L 212.958 264.529732 
L 213.516 271.296462 
L 214.632 262.376522 
L 215.19 267.414882 
L 215.748 266.503705 
L 216.306 267.19708 
L 216.864 273.29205 
L 217.422 275.044706 
L 217.98 273.145621 
L 218.538 269.519065 
L 219.096 266.670303 
L 219.654 265.62989 
L 220.212 262.921717 
L 220.77 263.462521 
L 221.328 267.235424 
L 221.886 265.647595 
L 222.444 268.200852 
L 223.002 272.157919 
L 223.56 270.793997 
L 224.118 270.252961 
L 224.676 267.179028 
L 225.234 262.832852 
L 225.792 261.287552 
L 226.35 262.768981 
L 228.024 275.585474 
L 229.14 270.944664 
L 229.698 269.102209 
L 230.256 266.197896 
L 230.814 266.361351 
L 231.372 265.424991 
L 231.93 268.214376 
L 232.488 272.126659 
L 233.604 266.435616 
L 234.162 265.332042 
L 234.72 265.89041 
L 235.278 270.725786 
L 235.836 272.083545 
L 236.394 269.908164 
L 236.952 269.802546 
L 237.51 268.587886 
L 238.068 269.68779 
L 238.626 272.147678 
L 239.184 269.843197 
L 239.742 268.207569 
L 240.3 265.247077 
L 240.858 261.587669 
L 241.416 265.614169 
L 241.974 272.170699 
L 242.532 274.43663 
L 243.09 273.922055 
L 243.648 269.846037 
L 244.206 268.196681 
L 244.764 271.298794 
L 245.322 271.377532 
L 246.438 279.79219 
L 246.996 275.618389 
L 247.554 273.856126 
L 248.112 274.24923 
L 249.228 273.441954 
L 249.786 269.714034 
L 250.344 266.82295 
L 250.902 268.615335 
L 251.46 268.458839 
L 252.018 267.11967 
L 252.576 273.275736 
L 253.134 283.172479 
L 253.692 283.708148 
L 254.25 278.662674 
L 254.808 279.222671 
L 255.366 276.487186 
L 255.924 271.718131 
L 256.482 270.743165 
L 257.04 269.398674 
L 257.598 270.586808 
L 258.156 273.923183 
L 258.714 279.118885 
L 259.272 280.766185 
L 259.83 278.277168 
L 260.388 278.360749 
L 260.946 281.340548 
L 261.504 282.007896 
L 262.062 277.755001 
L 262.62 277.115296 
L 263.178 280.600666 
L 263.736 280.439628 
L 264.294 278.65068 
L 264.852 277.684163 
L 265.41 275.639241 
L 266.526 267.797539 
L 267.084 272.557626 
L 267.642 278.650518 
L 268.2 276.678432 
L 268.758 273.25661 
L 269.874 275.663331 
L 270.432 275.676818 
L 270.99 275.533912 
L 272.106 270.868651 
L 272.664 271.346785 
L 273.222 275.551331 
L 273.78 280.838513 
L 274.338 279.617966 
L 274.896 273.486763 
L 275.454 274.825089 
L 276.012 277.449878 
L 277.128 269.622568 
L 277.686 269.524534 
L 278.244 272.893327 
L 279.36 272.185863 
L 279.918 280.206961 
L 280.476 283.018243 
L 281.034 280.528483 
L 281.592 280.903903 
L 282.15 280.699137 
L 282.708 281.822032 
L 283.266 282.319798 
L 283.824 281.190832 
L 284.382 279.789492 
L 284.94 275.260234 
L 285.498 274.361977 
L 286.056 279.041403 
L 286.614 278.180304 
L 287.172 276.950137 
L 287.73 280.108567 
L 288.288 281.141338 
L 288.846 284.764091 
L 289.404 285.271479 
L 289.962 276.953711 
L 290.52 273.470508 
L 291.078 275.445252 
L 291.636 277.978929 
L 292.194 283.937129 
L 292.752 286.135535 
L 293.868 277.952704 
L 294.426 277.3964 
L 294.984 280.573116 
L 295.542 279.919764 
L 296.1 275.54877 
L 296.658 278.862047 
L 297.216 280.454246 
L 297.774 276.296499 
L 298.332 277.890924 
L 298.89 282.961038 
L 299.448 283.275189 
L 300.006 280.487993 
L 300.564 280.593186 
L 301.122 283.930196 
L 301.68 283.977861 
L 302.796 277.683119 
L 303.354 272.910856 
L 303.912 272.582797 
L 304.47 278.038921 
L 305.028 280.219061 
L 305.586 279.365721 
L 306.144 279.980835 
L 306.702 279.669044 
L 307.26 276.368182 
L 307.818 276.27792 
L 308.376 281.474576 
L 308.934 283.840767 
L 309.492 282.255149 
L 310.05 283.763635 
L 310.608 286.007427 
L 311.166 285.772036 
L 311.724 283.698145 
L 312.282 282.106209 
L 312.84 283.352716 
L 313.398 282.214664 
L 313.956 279.906573 
L 314.514 280.665978 
L 315.072 280.129625 
L 315.63 278.981692 
L 316.188 282.178957 
L 316.746 286.231737 
L 317.304 285.28961 
L 317.862 282.32184 
L 318.42 284.204483 
L 318.978 284.285474 
L 319.536 276.762668 
L 320.094 274.563445 
L 320.652 280.185635 
L 321.21 284.326092 
L 321.768 284.638338 
L 322.884 278.530614 
L 323.442 279.834487 
L 324 281.879451 
L 324.558 284.658557 
L 325.116 288.088581 
L 325.674 286.867328 
L 326.232 283.555217 
L 326.79 282.147715 
L 327.348 281.313849 
L 327.906 282.37695 
L 328.464 281.947067 
L 329.022 279.61872 
L 329.58 280.523767 
L 330.138 281.664911 
L 330.696 278.328092 
L 330.696 278.328092 
" clip-path="url(#pd4eda36189)" style="fill: none; stroke: #000000; stroke-linecap: square"/>
   </g>
   <g id="line2d_6">
    <path d="M 82.944 289.178552 
L 83.502 287.226328 
L 84.618 288.937503 
L 85.176 287.14138 
L 85.734 284.182124 
L 86.292 286.572477 
L 86.85 288.224997 
L 87.408 286.517765 
L 87.966 289.030945 
L 88.524 290.334587 
L 89.082 286.523182 
L 89.64 288.54237 
L 90.198 294.222054 
L 90.756 296.386465 
L 91.314 291.568543 
L 91.872 284.912596 
L 92.988 295.281665 
L 94.104 278.953293 
L 94.662 278.286988 
L 95.22 280.756384 
L 95.778 284.119919 
L 96.336 286.450772 
L 97.452 287.724991 
L 98.01 289.396551 
L 98.568 291.807618 
L 99.126 289.985531 
L 99.684 287.618233 
L 100.242 290.280807 
L 101.358 289.453732 
L 101.916 265.362902 
L 102.474 260.788092 
L 103.032 261.022396 
L 103.59 263.617373 
L 104.148 264.114657 
L 104.706 258.718295 
L 105.264 251.958521 
L 105.822 251.911102 
L 106.38 242.864286 
L 106.938 228.42561 
L 107.496 221.098544 
L 108.612 218.438641 
L 109.17 215.281176 
L 109.728 219.216913 
L 110.286 221.711703 
L 111.402 210.043792 
L 111.96 211.556331 
L 112.518 216.742415 
L 113.076 214.223879 
L 113.634 207.86532 
L 114.192 208.665758 
L 114.75 211.50731 
L 115.308 212.890988 
L 115.866 213.337612 
L 116.424 215.159428 
L 116.982 219.148147 
L 117.54 219.140804 
L 118.098 215.745296 
L 118.656 216.619191 
L 119.214 209.677439 
L 119.772 196.451277 
L 120.33 195.26817 
L 122.004 216.535455 
L 122.562 220.252445 
L 123.12 217.120169 
L 123.678 209.290429 
L 124.236 208.59208 
L 125.352 216.103012 
L 125.91 216.0385 
L 126.468 213.359542 
L 127.026 219.132158 
L 127.584 222.901426 
L 128.142 219.911707 
L 128.7 218.322138 
L 129.816 221.048872 
L 130.374 212.130309 
L 130.932 207.764878 
L 131.49 217.927004 
L 132.048 224.656668 
L 132.606 222.849913 
L 133.722 223.14103 
L 134.28 216.481438 
L 134.838 211.814398 
L 135.396 215.96436 
L 135.954 225.617103 
L 136.512 229.75947 
L 137.07 227.714323 
L 137.628 228.675799 
L 138.186 229.931971 
L 138.744 226.375828 
L 139.302 218.057613 
L 139.86 214.189043 
L 140.418 215.639186 
L 140.976 218.954216 
L 141.534 225.59288 
L 142.092 228.026895 
L 142.65 225.854762 
L 143.208 221.986475 
L 143.766 221.221114 
L 144.882 235.051876 
L 145.44 237.812978 
L 145.998 234.208179 
L 146.556 229.342464 
L 147.672 237.788597 
L 148.23 233.748177 
L 148.788 230.643007 
L 149.346 231.781913 
L 149.904 232.655565 
L 150.462 231.443505 
L 151.02 226.961462 
L 151.578 226.438454 
L 152.694 237.855843 
L 153.252 236.454896 
L 153.81 229.950049 
L 154.368 233.381473 
L 154.926 240.723336 
L 156.042 244.195444 
L 156.6 244.053855 
L 157.158 240.055245 
L 157.716 237.657729 
L 158.274 241.668551 
L 158.832 241.816885 
L 159.39 237.822918 
L 160.506 248.282062 
L 161.064 244.056975 
L 161.622 237.822082 
L 162.18 235.199623 
L 162.738 236.310826 
L 163.296 240.93905 
L 163.854 247.133115 
L 164.412 256.076823 
L 164.97 256.713405 
L 165.528 245.859103 
L 166.086 243.97282 
L 166.644 248.743581 
L 167.76 252.956394 
L 168.318 251.240046 
L 168.876 248.795644 
L 169.434 247.587522 
L 169.992 245.4488 
L 170.55 244.819188 
L 171.108 248.818831 
L 171.666 256.36261 
L 172.224 258.097241 
L 172.782 252.567581 
L 173.34 254.416082 
L 173.898 254.352465 
L 174.456 249.781894 
L 175.572 259.734368 
L 176.13 259.407465 
L 176.688 257.431607 
L 177.804 248.801395 
L 178.362 251.512293 
L 178.92 258.164742 
L 179.478 258.751241 
L 180.036 253.134007 
L 180.594 252.39521 
L 181.152 259.360388 
L 181.71 263.786452 
L 182.268 259.417487 
L 182.826 253.793764 
L 183.384 255.571751 
L 183.942 258.615509 
L 184.5 257.936706 
L 185.058 253.609983 
L 185.616 252.885707 
L 186.174 256.311033 
L 186.732 257.774708 
L 187.29 252.764034 
L 187.848 246.424962 
L 188.406 251.504215 
L 188.964 257.755466 
L 189.522 261.030578 
L 190.08 263.07507 
L 190.638 258.481184 
L 191.196 252.932834 
L 191.754 255.046636 
L 192.312 262.078104 
L 192.87 265.505613 
L 193.428 266.520729 
L 193.986 265.174262 
L 195.102 248.82292 
L 195.66 250.400132 
L 196.218 256.986755 
L 196.776 258.140526 
L 197.334 260.864171 
L 197.892 262.237583 
L 198.45 259.674813 
L 199.008 258.391123 
L 199.566 259.712146 
L 200.124 264.585203 
L 200.682 267.714666 
L 201.798 276.921554 
L 202.356 273.516608 
L 202.914 266.941065 
L 203.472 263.109614 
L 204.03 264.51629 
L 204.588 264.942846 
L 205.146 264.161094 
L 205.704 264.698854 
L 206.262 261.467562 
L 206.82 260.918776 
L 207.378 265.18737 
L 207.936 266.112862 
L 209.052 266.932343 
L 209.61 264.49096 
L 210.168 263.082691 
L 210.726 263.267917 
L 211.284 263.852329 
L 211.842 263.260352 
L 212.4 260.858798 
L 212.958 264.529732 
L 213.516 271.296462 
L 214.632 262.376522 
L 215.19 267.414882 
L 215.748 266.503705 
L 216.306 267.19708 
L 216.864 273.29205 
L 217.422 275.044706 
L 217.98 273.145621 
L 218.538 269.519065 
L 219.096 266.670303 
L 219.654 265.62989 
L 220.212 262.921717 
L 220.77 263.462521 
L 221.328 267.235424 
L 221.886 265.647595 
L 222.444 268.200852 
L 223.002 272.157919 
L 223.56 270.793997 
L 224.118 270.252961 
L 224.676 267.179028 
L 225.234 262.832852 
L 225.792 261.287552 
L 226.35 262.768981 
L 228.024 275.585474 
L 229.14 270.944664 
L 229.698 269.102209 
L 230.256 266.197896 
L 230.814 266.361351 
L 231.372 265.424991 
L 231.93 268.214376 
L 232.488 272.126659 
L 233.604 266.435616 
L 234.162 265.332042 
L 234.72 265.89041 
L 235.278 270.725786 
L 235.836 272.083545 
L 236.394 269.908164 
L 236.952 269.802546 
L 237.51 268.587886 
L 238.068 269.68779 
L 238.626 272.147678 
L 239.184 269.843197 
L 239.742 268.207569 
L 240.3 265.247077 
L 240.858 261.587669 
L 241.416 265.614169 
L 241.974 272.170699 
L 242.532 274.43663 
L 243.09 273.922055 
L 243.648 269.846037 
L 244.206 268.196681 
L 244.764 271.298794 
L 245.322 271.377532 
L 246.438 279.79219 
L 246.996 275.618389 
L 247.554 273.856126 
L 248.112 274.24923 
L 249.228 273.441954 
L 249.786 269.714034 
L 250.344 266.82295 
L 250.902 268.615335 
L 251.46 268.458839 
L 252.018 267.11967 
L 252.576 273.275736 
L 253.134 283.172479 
L 253.692 283.708148 
L 254.25 278.662674 
L 254.808 279.222671 
L 255.366 276.487186 
L 255.924 271.718131 
L 256.482 270.743165 
L 257.04 269.398674 
L 257.598 270.586808 
L 258.156 273.923183 
L 258.714 279.118885 
L 259.272 280.766185 
L 259.83 278.277168 
L 260.388 278.360749 
L 260.946 281.340548 
L 261.504 282.007896 
L 262.062 277.755001 
L 262.62 277.115296 
L 263.178 280.600666 
L 263.736 280.439628 
L 264.294 278.65068 
L 264.852 277.684163 
L 265.41 275.639241 
L 266.526 267.797539 
L 267.084 272.557626 
L 267.642 278.650518 
L 268.2 276.678432 
L 268.758 273.25661 
L 269.874 275.663331 
L 270.432 275.676818 
L 270.99 275.533912 
L 272.106 270.868651 
L 272.664 271.346785 
L 273.222 275.551331 
L 273.78 280.838513 
L 274.338 279.617966 
L 274.896 273.486763 
L 275.454 274.825089 
L 276.012 277.449878 
L 277.128 269.622568 
L 277.686 269.524534 
L 278.244 272.893327 
L 279.36 272.185863 
L 279.918 280.206961 
L 280.476 283.018243 
L 281.034 280.528483 
L 281.592 280.903903 
L 282.15 280.699137 
L 282.708 281.822032 
L 283.266 282.319798 
L 283.824 281.190832 
L 284.382 279.789492 
L 284.94 275.260234 
L 285.498 274.361977 
L 286.056 279.041403 
L 286.614 278.180304 
L 287.172 276.950137 
L 287.73 280.108567 
L 288.288 281.141338 
L 288.846 284.764091 
L 289.404 285.271479 
L 289.962 276.953711 
L 290.52 273.470508 
L 291.078 275.445252 
L 291.636 277.978929 
L 292.194 283.937129 
L 292.752 286.135535 
L 293.868 277.952704 
L 294.426 277.3964 
L 294.984 280.573116 
L 295.542 279.919764 
L 296.1 275.54877 
L 296.658 278.862047 
L 297.216 280.454246 
L 297.774 276.296499 
L 298.332 277.890924 
L 298.89 282.961038 
L 299.448 283.275189 
L 300.006 280.487993 
L 300.564 280.593186 
L 301.122 283.930196 
L 301.68 283.977861 
L 302.796 277.683119 
L 303.354 272.910856 
L 303.912 272.582797 
L 304.47 278.038921 
L 305.028 280.219061 
L 305.586 279.365721 
L 306.144 279.980835 
L 306.702 279.669044 
L 307.26 276.368182 
L 307.818 276.27792 
L 308.376 281.474576 
L 308.934 283.840767 
L 309.492 282.255149 
L 310.05 283.763635 
L 310.608 286.007427 
L 311.166 285.772036 
L 311.724 283.698145 
L 312.282 282.106209 
L 312.84 283.352716 
L 313.398 282.214664 
L 313.956 279.906573 
L 314.514 280.665978 
L 315.072 280.129625 
L 315.63 278.981692 
L 316.188 282.178957 
L 316.746 286.231737 
L 317.304 285.28961 
L 317.862 282.32184 
L 318.42 284.204483 
L 318.978 284.285474 
L 319.536 276.762668 
L 320.094 274.563445 
L 320.652 280.185635 
L 321.21 284.326092 
L 321.768 284.638338 
L 322.884 278.530614 
L 323.442 279.834487 
L 324 281.879451 
L 324.558 284.658557 
L 325.116 288.088581 
L 325.674 286.867328 
L 326.232 283.555217 
L 326.79 282.147715 
L 327.348 281.313849 
L 327.906 282.37695 
L 328.464 281.947067 
L 329.022 279.61872 
L 329.58 280.523767 
L 330.138 281.664911 
L 330.696 278.328092 
L 330.696 278.328092 
" clip-path="url(#pd4eda36189)" style="fill: none; stroke-dasharray: 3.7,1.6; stroke-dashoffset: 0; stroke: #ff0000"/>
   </g>
   <g id="line2d_7">
    <path d="M 100.8 314.24 
L 100.8 298.84 
" clip-path="url(#pd4eda36189)" style="fill: none; stroke: #000000; stroke-width: 1.5; stroke-linecap: square"/>
   </g>
   <g id="line2d_8">
    <path d="M 56.16 286.52 
L 56.16 254.089734 
" clip-path="url(#pd4eda36189)" style="fill: none; stroke: #000000; stroke-width: 2; stroke-linecap: square"/>
   </g>
   <g id="line2d_9">
    <path d="M 56.16 254.089734 
" clip-path="url(#pd4eda36189)" style="fill: none; stroke: #000000; stroke-width: 1.5; stroke-linecap: square"/>
    <defs>
     <path id="md95be01dde" d="M 0 2 
C 0.530406 2 1.03916 1.789267 1.414214 1.414214 
C 1.789267 1.03916 2 0.530406 2 0 
C 2 -0.530406 1.789267 -1.03916 1.414214 -1.414214 
C 1.03916 -1.789267 0.530406 -2 0 -2 
C -0.530406 -2 -1.03916 -1.789267 -1.414214 -1.414214 
C -1.789267 -1.03916 -2 -0.530406 -2 0 
C -2 0.530406 -1.789267 1.03916 -1.414214 1.414214 
C -1.03916 1.789267 -0.530406 2 0 2 
z
" style="stroke: #000000"/>
    </defs>
    <g clip-path="url(#pd4eda36189)">
     <use xlink:href="#md95be01dde" x="56.16" y="254.089734" style="stroke: #000000"/>
    </g>
   </g>
   <g id="line2d_10">
    <path d="M 61.74 286.52 
L 61.74 238.428109 
" clip-path="url(#pd4eda36189)" style="fill: none; stroke: #ff0000; stroke-width: 2; stroke-linecap: square"/>
   </g>
   <g id="line2d_11">
    <path d="M 61.74 238.428109 
" clip-path="url(#pd4eda36189)" style="fill: none; stroke: #ff0000; stroke-width: 1.5; stroke-linecap: square"/>
    <defs>
     <path id="m6b286675bd" d="M 0 2 
C 0.530406 2 1.03916 1.789267 1.414214 1.414214 
C 1.789267 1.03916 2 0.530406 2 0 
C 2 -0.530406 1.789267 -1.03916 1.414214 -1.414214 
C 1.03916 -1.789267 0.530406 -2 0 -2 
C -0.530406 -2 -1.03916 -1.789267 -1.414214 -1.414214 
C -1.789267 -1.03916 -2 -0.530406 -2 0 
C -2 0.530406 -1.789267 1.03916 -1.414214 1.414214 
C -1.03916 1.789267 -0.530406 2 0 2 
z
" style="stroke: #ff0000"/>
    </defs>
    <g clip-path="url(#pd4eda36189)">
     <use xlink:href="#m6b286675bd" x="61.74" y="238.428109" style="fill: #ff0000; stroke: #ff0000"/>
    </g>
   </g>
   <g id="line2d_12">
    <path d="M 67.32 286.52 
L 67.32 64.194569 
" clip-path="url(#pd4eda36189)" style="fill: none; stroke: #ff8c00; stroke-width: 2; stroke-linecap: square"/>
   </g>
   <g id="line2d_13">
    <path d="M 67.32 64.194569 
" clip-path="url(#pd4eda36189)" style="fill: none; stroke: #ff8c00; stroke-width: 1.5; stroke-linecap: square"/>
    <defs>
     <path id="me8abf0514d" d="M 0 2 
C 0.530406 2 1.03916 1.789267 1.414214 1.414214 
C 1.789267 1.03916 2 0.530406 2 0 
C 2 -0.530406 1.789267 -1.03916 1.414214 -1.414214 
C 1.03916 -1.789267 0.530406 -2 0 -2 
C -0.530406 -2 -1.03916 -1.789267 -1.414214 -1.414214 
C -1.789267 -1.03916 -2 -0.530406 -2 0 
C -2 0.530406 -1.789267 1.03916 -1.414214 1.414214 
C -1.03916 1.789267 -0.530406 2 0 2 
z
" style="stroke: #ff8c00"/>
    </defs>
    <g clip-path="url(#pd4eda36189)">
     <use xlink:href="#me8abf0514d" x="67.32" y="64.194569" style="fill: #ff8c00; stroke: #ff8c00"/>
    </g>
   </g>
   <g id="line2d_14">
    <path d="M 72.9 205.997843 
L 72.9 64.194569 
" clip-path="url(#pd4eda36189)" style="fill: none; stroke: #0000ff; stroke-width: 2; stroke-linecap: square"/>
   </g>
   <g id="line2d_15">
    <path d="M 72.9 64.194569 
" clip-path="url(#pd4eda36189)" style="fill: none; stroke: #0000ff; stroke-width: 1.5; stroke-linecap: square"/>
    <defs>
     <path id="m56cc0c77ca" d="M 0 2 
C 0.530406 2 1.03916 1.789267 1.414214 1.414214 
C 1.789267 1.03916 2 0.530406 2 0 
C 2 -0.530406 1.789267 -1.03916 1.414214 -1.414214 
C 1.03916 -1.789267 0.530406 -2 0 -2 
C -0.530406 -2 -1.03916 -1.789267 -1.414214 -1.414214 
C -1.789267 -1.03916 -2 -0.530406 -2 0 
C -2 0.530406 -1.789267 1.03916 -1.414214 1.414214 
C -1.03916 1.789267 -0.530406 2 0 2 
z
" style="stroke: #0000ff"/>
    </defs>
    <g clip-path="url(#pd4eda36189)">
     <use xlink:href="#m56cc0c77ca" x="72.9" y="64.194569" style="fill: #0000ff; stroke: #0000ff"/>
    </g>
   </g>
   <g id="line2d_16">
    <path d="M 72.9 254.089734 
L 72.9 205.997843 
" clip-path="url(#pd4eda36189)" style="fill: none; stroke: #ff0000; stroke-width: 2; stroke-linecap: square"/>
   </g>
   <g id="line2d_17">
    <path d="M 72.9 205.997843 
" clip-path="url(#pd4eda36189)" style="fill: none; stroke: #ff0000; stroke-width: 1.5; stroke-linecap: square"/>
    <g clip-path="url(#pd4eda36189)">
     <use xlink:href="#m6b286675bd" x="72.9" y="205.997843" style="fill: #ff0000; stroke: #ff0000"/>
    </g>
   </g>
   <g id="line2d_18">
    <path d="M 72.9 286.52 
L 72.9 254.089734 
" clip-path="url(#pd4eda36189)" style="fill: none; stroke: #000000; stroke-width: 2; stroke-linecap: square"/>
   </g>
   <g id="line2d_19">
    <path d="M 72.9 254.089734 
" clip-path="url(#pd4eda36189)" style="fill: none; stroke: #000000; stroke-width: 1.5; stroke-linecap: square"/>
    <g clip-path="url(#pd4eda36189)">
     <use xlink:href="#md95be01dde" x="72.9" y="254.089734" style="stroke: #000000"/>
    </g>
   </g>
   <g id="line2d_20">
    <path d="M 212.4 194.12 
L 212.4 172.56 
" clip-path="url(#pd4eda36189)" style="fill: none; stroke: #000000; stroke-linecap: square"/>
   </g>
   <g id="line2d_21">
    <path d="M 212.4 194.12 
L 240.3 194.12 
" clip-path="url(#pd4eda36189)" style="fill: none; stroke: #000000; stroke-linecap: square"/>
   </g>
   <g id="text_1">
    <!-- 50ms -->
    <g transform="translate(212.4 206.318125) scale(0.12 -0.12)">
     <defs>
      <path id="DejaVuSans-35" d="M 691 4666 
L 3169 4666 
L 3169 4134 
L 1269 4134 
L 1269 2991 
Q 1406 3038 1543 3061 
Q 1681 3084 1819 3084 
Q 2600 3084 3056 2656 
Q 3513 2228 3513 1497 
Q 3513 744 3044 326 
Q 2575 -91 1722 -91 
Q 1428 -91 1123 -41 
Q 819 9 494 109 
L 494 744 
Q 775 591 1075 516 
Q 1375 441 1709 441 
Q 2250 441 2565 725 
Q 2881 1009 2881 1497 
Q 2881 1984 2565 2268 
Q 2250 2553 1709 2553 
Q 1456 2553 1204 2497 
Q 953 2441 691 2322 
L 691 4666 
z
" transform="scale(0.015625)"/>
      <path id="DejaVuSans-30" d="M 2034 4250 
Q 1547 4250 1301 3770 
Q 1056 3291 1056 2328 
Q 1056 1369 1301 889 
Q 1547 409 2034 409 
Q 2525 409 2770 889 
Q 3016 1369 3016 2328 
Q 3016 3291 2770 3770 
Q 2525 4250 2034 4250 
z
M 2034 4750 
Q 2819 4750 3233 4129 
Q 3647 3509 3647 2328 
Q 3647 1150 3233 529 
Q 2819 -91 2034 -91 
Q 1250 -91 836 529 
Q 422 1150 422 2328 
Q 422 3509 836 4129 
Q 1250 4750 2034 4750 
z
" transform="scale(0.015625)"/>
      <path id="DejaVuSans-6d" d="M 3328 2828 
Q 3544 3216 3844 3400 
Q 4144 3584 4550 3584 
Q 5097 3584 5394 3201 
Q 5691 2819 5691 2113 
L 5691 0 
L 5113 0 
L 5113 2094 
Q 5113 2597 4934 2840 
Q 4756 3084 4391 3084 
Q 3944 3084 3684 2787 
Q 3425 2491 3425 1978 
L 3425 0 
L 2847 0 
L 2847 2094 
Q 2847 2600 2669 2842 
Q 2491 3084 2119 3084 
Q 1678 3084 1418 2786 
Q 1159 2488 1159 1978 
L 1159 0 
L 581 0 
L 581 3500 
L 1159 3500 
L 1159 2956 
Q 1356 3278 1631 3431 
Q 1906 3584 2284 3584 
Q 2666 3584 2933 3390 
Q 3200 3197 3328 2828 
z
" transform="scale(0.015625)"/>
      <path id="DejaVuSans-73" d="M 2834 3397 
L 2834 2853 
Q 2591 2978 2328 3040 
Q 2066 3103 1784 3103 
Q 1356 3103 1142 2972 
Q 928 2841 928 2578 
Q 928 2378 1081 2264 
Q 1234 2150 1697 2047 
L 1894 2003 
Q 2506 1872 2764 1633 
Q 3022 1394 3022 966 
Q 3022 478 2636 193 
Q 2250 -91 1575 -91 
Q 1294 -91 989 -36 
Q 684 19 347 128 
L 347 722 
Q 666 556 975 473 
Q 1284 391 1588 391 
Q 1994 391 2212 530 
Q 2431 669 2431 922 
Q 2431 1156 2273 1281 
Q 2116 1406 1581 1522 
L 1381 1569 
Q 847 1681 609 1914 
Q 372 2147 372 2553 
Q 372 3047 722 3315 
Q 1072 3584 1716 3584 
Q 2034 3584 2315 3537 
Q 2597 3491 2834 3397 
z
" transform="scale(0.015625)"/>
     </defs>
     <use xlink:href="#DejaVuSans-35"/>
     <use xlink:href="#DejaVuSans-30" x="63.623047"/>
     <use xlink:href="#DejaVuSans-6d" x="127.246094"/>
     <use xlink:href="#DejaVuSans-73" x="224.658203"/>
    </g>
   </g>
   <g id="text_2">
    <!-- 7% $\Delta$ G/R -->
    <g transform="translate(209.904375 194.12) rotate(-90) scale(0.12 -0.12)">
     <defs>
      <path id="DejaVuSans-37" d="M 525 4666 
L 3525 4666 
L 3525 4397 
L 1831 0 
L 1172 0 
L 2766 4134 
L 525 4134 
L 525 4666 
z
" transform="scale(0.015625)"/>
      <path id="DejaVuSans-25" d="M 4653 2053 
Q 4381 2053 4226 1822 
Q 4072 1591 4072 1178 
Q 4072 772 4226 539 
Q 4381 306 4653 306 
Q 4919 306 5073 539 
Q 5228 772 5228 1178 
Q 5228 1588 5073 1820 
Q 4919 2053 4653 2053 
z
M 4653 2450 
Q 5147 2450 5437 2106 
Q 5728 1763 5728 1178 
Q 5728 594 5436 251 
Q 5144 -91 4653 -91 
Q 4153 -91 3862 251 
Q 3572 594 3572 1178 
Q 3572 1766 3864 2108 
Q 4156 2450 4653 2450 
z
M 1428 4353 
Q 1159 4353 1004 4120 
Q 850 3888 850 3481 
Q 850 3069 1003 2837 
Q 1156 2606 1428 2606 
Q 1700 2606 1854 2837 
Q 2009 3069 2009 3481 
Q 2009 3884 1853 4118 
Q 1697 4353 1428 4353 
z
M 4250 4750 
L 4750 4750 
L 1831 -91 
L 1331 -91 
L 4250 4750 
z
M 1428 4750 
Q 1922 4750 2215 4408 
Q 2509 4066 2509 3481 
Q 2509 2891 2217 2550 
Q 1925 2209 1428 2209 
Q 931 2209 642 2551 
Q 353 2894 353 3481 
Q 353 4063 643 4406 
Q 934 4750 1428 4750 
z
" transform="scale(0.015625)"/>
      <path id="DejaVuSans-20" transform="scale(0.015625)"/>
      <path id="DejaVuSans-394" d="M 2188 4044 
L 906 525 
L 3472 525 
L 2188 4044 
z
M 50 0 
L 1831 4666 
L 2547 4666 
L 4325 0 
L 50 0 
z
" transform="scale(0.015625)"/>
      <path id="DejaVuSans-47" d="M 3809 666 
L 3809 1919 
L 2778 1919 
L 2778 2438 
L 4434 2438 
L 4434 434 
Q 4069 175 3628 42 
Q 3188 -91 2688 -91 
Q 1594 -91 976 548 
Q 359 1188 359 2328 
Q 359 3472 976 4111 
Q 1594 4750 2688 4750 
Q 3144 4750 3555 4637 
Q 3966 4525 4313 4306 
L 4313 3634 
Q 3963 3931 3569 4081 
Q 3175 4231 2741 4231 
Q 1884 4231 1454 3753 
Q 1025 3275 1025 2328 
Q 1025 1384 1454 906 
Q 1884 428 2741 428 
Q 3075 428 3337 486 
Q 3600 544 3809 666 
z
" transform="scale(0.015625)"/>
      <path id="DejaVuSans-2f" d="M 1625 4666 
L 2156 4666 
L 531 -594 
L 0 -594 
L 1625 4666 
z
" transform="scale(0.015625)"/>
      <path id="DejaVuSans-52" d="M 2841 2188 
Q 3044 2119 3236 1894 
Q 3428 1669 3622 1275 
L 4263 0 
L 3584 0 
L 2988 1197 
Q 2756 1666 2539 1819 
Q 2322 1972 1947 1972 
L 1259 1972 
L 1259 0 
L 628 0 
L 628 4666 
L 2053 4666 
Q 2853 4666 3247 4331 
Q 3641 3997 3641 3322 
Q 3641 2881 3436 2590 
Q 3231 2300 2841 2188 
z
M 1259 4147 
L 1259 2491 
L 2053 2491 
Q 2509 2491 2742 2702 
Q 2975 2913 2975 3322 
Q 2975 3731 2742 3939 
Q 2509 4147 2053 4147 
L 1259 4147 
z
" transform="scale(0.015625)"/>
     </defs>
     <use xlink:href="#DejaVuSans-37" transform="translate(0 0.78125)"/>
     <use xlink:href="#DejaVuSans-25" transform="translate(63.623047 0.78125)"/>
     <use xlink:href="#DejaVuSans-20" transform="translate(158.642578 0.78125)"/>
     <use xlink:href="#DejaVuSans-394" transform="translate(190.429688 0.78125)"/>
     <use xlink:href="#DejaVuSans-20" transform="translate(258.837891 0.78125)"/>
     <use xlink:href="#DejaVuSans-47" transform="translate(290.625 0.78125)"/>
     <use xlink:href="#DejaVuSans-2f" transform="translate(368.115234 0.78125)"/>
     <use xlink:href="#DejaVuSans-52" transform="translate(400.056641 0.78125)"/>
    </g>
   </g>
   <g id="text_3">
    <!-- $\Delta Ca_{amp}$ -->
    <g style="fill: #0000ff" transform="translate(245.88 68.28) scale(0.16 -0.16)">
     <defs>
      <path id="DejaVuSans-Oblique-43" d="M 4447 4306 
L 4319 3641 
Q 4019 3944 3683 4091 
Q 3347 4238 2956 4238 
Q 2422 4238 2017 3981 
Q 1613 3725 1319 3200 
Q 1131 2863 1032 2486 
Q 934 2109 934 1728 
Q 934 1091 1264 756 
Q 1594 422 2222 422 
Q 2656 422 3056 561 
Q 3456 700 3834 978 
L 3688 231 
Q 3316 72 2936 -9 
Q 2556 -91 2175 -91 
Q 1278 -91 773 396 
Q 269 884 269 1753 
Q 269 2309 461 2846 
Q 653 3384 1013 3828 
Q 1394 4300 1883 4525 
Q 2372 4750 3022 4750 
Q 3422 4750 3780 4639 
Q 4138 4528 4447 4306 
z
" transform="scale(0.015625)"/>
      <path id="DejaVuSans-Oblique-61" d="M 3438 1997 
L 3047 0 
L 2472 0 
L 2578 531 
Q 2325 219 2001 64 
Q 1678 -91 1281 -91 
Q 834 -91 548 182 
Q 263 456 263 884 
Q 263 1497 752 1853 
Q 1241 2209 2100 2209 
L 2900 2209 
L 2931 2363 
Q 2938 2388 2941 2417 
Q 2944 2447 2944 2509 
Q 2944 2788 2717 2942 
Q 2491 3097 2081 3097 
Q 1800 3097 1504 3025 
Q 1209 2953 897 2809 
L 997 3341 
Q 1322 3463 1633 3523 
Q 1944 3584 2234 3584 
Q 2853 3584 3176 3315 
Q 3500 3047 3500 2534 
Q 3500 2431 3484 2292 
Q 3469 2153 3438 1997 
z
M 2816 1759 
L 2241 1759 
Q 1534 1759 1195 1570 
Q 856 1381 856 984 
Q 856 709 1029 553 
Q 1203 397 1509 397 
Q 1978 397 2328 733 
Q 2678 1069 2791 1631 
L 2816 1759 
z
" transform="scale(0.015625)"/>
      <path id="DejaVuSans-Oblique-6d" d="M 5747 2113 
L 5338 0 
L 4763 0 
L 5166 2094 
Q 5191 2228 5203 2325 
Q 5216 2422 5216 2491 
Q 5216 2772 5059 2928 
Q 4903 3084 4622 3084 
Q 4203 3084 3875 2770 
Q 3547 2456 3450 1953 
L 3066 0 
L 2491 0 
L 2900 2094 
Q 2925 2209 2937 2307 
Q 2950 2406 2950 2484 
Q 2950 2769 2794 2926 
Q 2638 3084 2363 3084 
Q 1938 3084 1609 2770 
Q 1281 2456 1184 1953 
L 800 0 
L 225 0 
L 909 3500 
L 1484 3500 
L 1375 2956 
Q 1609 3263 1923 3423 
Q 2238 3584 2597 3584 
Q 2978 3584 3223 3384 
Q 3469 3184 3519 2828 
Q 3781 3197 4126 3390 
Q 4472 3584 4856 3584 
Q 5306 3584 5551 3325 
Q 5797 3066 5797 2591 
Q 5797 2488 5784 2364 
Q 5772 2241 5747 2113 
z
" transform="scale(0.015625)"/>
      <path id="DejaVuSans-Oblique-70" d="M 3175 2156 
Q 3175 2616 2975 2859 
Q 2775 3103 2400 3103 
Q 2144 3103 1911 2972 
Q 1678 2841 1497 2591 
Q 1319 2344 1212 1994 
Q 1106 1644 1106 1300 
Q 1106 863 1306 627 
Q 1506 391 1875 391 
Q 2147 391 2380 519 
Q 2613 647 2778 891 
Q 2956 1147 3065 1494 
Q 3175 1841 3175 2156 
z
M 1394 2969 
Q 1625 3272 1939 3428 
Q 2253 3584 2638 3584 
Q 3175 3584 3472 3232 
Q 3769 2881 3769 2247 
Q 3769 1728 3584 1258 
Q 3400 788 3053 416 
Q 2822 169 2531 39 
Q 2241 -91 1919 -91 
Q 1547 -91 1294 64 
Q 1041 219 916 525 
L 556 -1331 
L -19 -1331 
L 922 3500 
L 1497 3500 
L 1394 2969 
z
" transform="scale(0.015625)"/>
     </defs>
     <use xlink:href="#DejaVuSans-394" transform="translate(0 0.78125)"/>
     <use xlink:href="#DejaVuSans-Oblique-43" transform="translate(68.408203 0.78125)"/>
     <use xlink:href="#DejaVuSans-Oblique-61" transform="translate(138.232422 0.78125)"/>
     <use xlink:href="#DejaVuSans-Oblique-61" transform="translate(199.511719 -15.625) scale(0.7)"/>
     <use xlink:href="#DejaVuSans-Oblique-6d" transform="translate(242.407227 -15.625) scale(0.7)"/>
     <use xlink:href="#DejaVuSans-Oblique-70" transform="translate(310.595703 -15.625) scale(0.7)"/>
    </g>
   </g>
   <g id="text_4">
    <!-- $\Delta Ca_{1 AP}$ -->
    <g transform="translate(245.88 89.195) scale(0.16 -0.16)">
     <defs>
      <path id="DejaVuSans-31" d="M 794 531 
L 1825 531 
L 1825 4091 
L 703 3866 
L 703 4441 
L 1819 4666 
L 2450 4666 
L 2450 531 
L 3481 531 
L 3481 0 
L 794 0 
L 794 531 
z
" transform="scale(0.015625)"/>
      <path id="DejaVuSans-Oblique-41" d="M 2356 4666 
L 3072 4666 
L 3938 0 
L 3278 0 
L 3084 1197 
L 984 1197 
L 325 0 
L -341 0 
L 2356 4666 
z
M 2584 4044 
L 1275 1722 
L 2988 1722 
L 2584 4044 
z
" transform="scale(0.015625)"/>
      <path id="DejaVuSans-Oblique-50" d="M 1081 4666 
L 2541 4666 
Q 3178 4666 3512 4369 
Q 3847 4072 3847 3500 
Q 3847 2731 3353 2303 
Q 2859 1875 1966 1875 
L 1172 1875 
L 806 0 
L 172 0 
L 1081 4666 
z
M 1613 4147 
L 1275 2394 
L 2069 2394 
Q 2606 2394 2893 2669 
Q 3181 2944 3181 3456 
Q 3181 3784 2986 3965 
Q 2791 4147 2438 4147 
L 1613 4147 
z
" transform="scale(0.015625)"/>
     </defs>
     <use xlink:href="#DejaVuSans-394" transform="translate(0 0.78125)"/>
     <use xlink:href="#DejaVuSans-Oblique-43" transform="translate(68.408203 0.78125)"/>
     <use xlink:href="#DejaVuSans-Oblique-61" transform="translate(138.232422 0.78125)"/>
     <use xlink:href="#DejaVuSans-31" transform="translate(199.511719 -15.625) scale(0.7)"/>
     <use xlink:href="#DejaVuSans-Oblique-41" transform="translate(244.047852 -15.625) scale(0.7)"/>
     <use xlink:href="#DejaVuSans-Oblique-50" transform="translate(291.933594 -15.625) scale(0.7)"/>
    </g>
   </g>
   <g id="text_5">
    <!-- $\Delta Ca_{Glu}$ -->
    <g style="fill: #ff0000" transform="translate(245.88 109.215) scale(0.16 -0.16)">
     <defs>
      <path id="DejaVuSans-Oblique-47" d="M 3494 697 
L 3738 1919 
L 2700 1919 
L 2797 2438 
L 4453 2438 
L 4050 384 
Q 3634 156 3143 32 
Q 2653 -91 2156 -91 
Q 1278 -91 783 396 
Q 288 884 288 1753 
Q 288 2475 589 3126 
Q 891 3778 1422 4213 
Q 1756 4484 2153 4617 
Q 2550 4750 3034 4750 
Q 3472 4750 3873 4639 
Q 4275 4528 4641 4306 
L 4513 3634 
Q 4231 3928 3853 4083 
Q 3475 4238 3047 4238 
Q 2550 4238 2172 4048 
Q 1794 3859 1497 3463 
Q 1244 3125 1098 2667 
Q 953 2209 953 1734 
Q 953 1081 1287 751 
Q 1622 422 2284 422 
Q 2616 422 2925 492 
Q 3234 563 3494 697 
z
" transform="scale(0.015625)"/>
      <path id="DejaVuSans-Oblique-6c" d="M 1172 4863 
L 1747 4863 
L 800 0 
L 225 0 
L 1172 4863 
z
" transform="scale(0.015625)"/>
      <path id="DejaVuSans-Oblique-75" d="M 428 1388 
L 838 3500 
L 1416 3500 
L 1006 1409 
Q 975 1256 961 1147 
Q 947 1038 947 966 
Q 947 700 1109 554 
Q 1272 409 1569 409 
Q 2031 409 2368 721 
Q 2706 1034 2809 1563 
L 3194 3500 
L 3769 3500 
L 3091 0 
L 2516 0 
L 2631 550 
Q 2388 244 2052 76 
Q 1716 -91 1338 -91 
Q 878 -91 622 161 
Q 366 413 366 863 
Q 366 956 381 1097 
Q 397 1238 428 1388 
z
" transform="scale(0.015625)"/>
     </defs>
     <use xlink:href="#DejaVuSans-394" transform="translate(0 0.78125)"/>
     <use xlink:href="#DejaVuSans-Oblique-43" transform="translate(68.408203 0.78125)"/>
     <use xlink:href="#DejaVuSans-Oblique-61" transform="translate(138.232422 0.78125)"/>
     <use xlink:href="#DejaVuSans-Oblique-47" transform="translate(199.511719 -15.625) scale(0.7)"/>
     <use xlink:href="#DejaVuSans-Oblique-6c" transform="translate(253.754883 -15.625) scale(0.7)"/>
     <use xlink:href="#DejaVuSans-Oblique-75" transform="translate(273.203125 -15.625) scale(0.7)"/>
    </g>
   </g>
   <g id="text_6">
    <!-- $\Delta Ca_{pairing}$ -->
    <g style="fill: #ff8c00" transform="translate(245.88 128.34) scale(0.16 -0.16)">
     <defs>
      <path id="DejaVuSans-Oblique-69" d="M 1172 4863 
L 1747 4863 
L 1606 4134 
L 1031 4134 
L 1172 4863 
z
M 909 3500 
L 1484 3500 
L 800 0 
L 225 0 
L 909 3500 
z
" transform="scale(0.015625)"/>
      <path id="DejaVuSans-Oblique-72" d="M 2853 2969 
Q 2766 3016 2653 3041 
Q 2541 3066 2413 3066 
Q 1953 3066 1609 2717 
Q 1266 2369 1153 1784 
L 800 0 
L 225 0 
L 909 3500 
L 1484 3500 
L 1375 2956 
Q 1603 3259 1920 3421 
Q 2238 3584 2597 3584 
Q 2691 3584 2781 3573 
Q 2872 3563 2963 3538 
L 2853 2969 
z
" transform="scale(0.015625)"/>
      <path id="DejaVuSans-Oblique-6e" d="M 3566 2113 
L 3156 0 
L 2578 0 
L 2988 2091 
Q 3016 2238 3031 2350 
Q 3047 2463 3047 2528 
Q 3047 2791 2881 2937 
Q 2716 3084 2419 3084 
Q 1956 3084 1622 2776 
Q 1288 2469 1184 1941 
L 800 0 
L 225 0 
L 903 3500 
L 1478 3500 
L 1363 2950 
Q 1603 3253 1940 3418 
Q 2278 3584 2650 3584 
Q 3113 3584 3367 3334 
Q 3622 3084 3622 2631 
Q 3622 2519 3608 2391 
Q 3594 2263 3566 2113 
z
" transform="scale(0.015625)"/>
      <path id="DejaVuSans-Oblique-67" d="M 3816 3500 
L 3219 434 
Q 3047 -456 2561 -893 
Q 2075 -1331 1253 -1331 
Q 950 -1331 690 -1286 
Q 431 -1241 206 -1147 
L 313 -588 
Q 525 -725 762 -790 
Q 1000 -856 1269 -856 
Q 1816 -856 2167 -557 
Q 2519 -259 2631 300 
L 2681 563 
Q 2441 288 2122 144 
Q 1803 0 1434 0 
Q 903 0 598 351 
Q 294 703 294 1319 
Q 294 1803 478 2267 
Q 663 2731 997 3091 
Q 1219 3328 1514 3456 
Q 1809 3584 2131 3584 
Q 2484 3584 2746 3420 
Q 3009 3256 3138 2956 
L 3238 3500 
L 3816 3500 
z
M 2950 2216 
Q 2950 2641 2750 2872 
Q 2550 3103 2181 3103 
Q 1953 3103 1747 3012 
Q 1541 2922 1394 2759 
Q 1156 2491 1023 2127 
Q 891 1763 891 1375 
Q 891 944 1092 712 
Q 1294 481 1672 481 
Q 2219 481 2584 976 
Q 2950 1472 2950 2216 
z
" transform="scale(0.015625)"/>
     </defs>
     <use xlink:href="#DejaVuSans-394" transform="translate(0 0.78125)"/>
     <use xlink:href="#DejaVuSans-Oblique-43" transform="translate(68.408203 0.78125)"/>
     <use xlink:href="#DejaVuSans-Oblique-61" transform="translate(138.232422 0.78125)"/>
     <use xlink:href="#DejaVuSans-Oblique-70" transform="translate(199.511719 -15.625) scale(0.7)"/>
     <use xlink:href="#DejaVuSans-Oblique-61" transform="translate(243.945312 -15.625) scale(0.7)"/>
     <use xlink:href="#DejaVuSans-Oblique-69" transform="translate(286.84082 -15.625) scale(0.7)"/>
     <use xlink:href="#DejaVuSans-Oblique-72" transform="translate(306.289062 -15.625) scale(0.7)"/>
     <use xlink:href="#DejaVuSans-Oblique-69" transform="translate(335.068359 -15.625) scale(0.7)"/>
     <use xlink:href="#DejaVuSans-Oblique-6e" transform="translate(354.516602 -15.625) scale(0.7)"/>
     <use xlink:href="#DejaVuSans-Oblique-67" transform="translate(398.881836 -15.625) scale(0.7)"/>
    </g>
   </g>
  </g>
 </g>
 <defs>
  <clipPath id="pd4eda36189">
   <rect x="45" y="43.2" width="279" height="277.2"/>
  </clipPath>
 </defs>
</svg>
