<?xml version="1.0" encoding="utf-8" standalone="no"?>
<!DOCTYPE svg PUBLIC "-//W3C//DTD SVG 1.1//EN"
  "http://www.w3.org/Graphics/SVG/1.1/DTD/svg11.dtd">
<svg xmlns:xlink="http://www.w3.org/1999/xlink" width="493.2pt" height="246.48pt" viewBox="0 0 493.2 246.48" xmlns="http://www.w3.org/2000/svg" version="1.1">
 <metadata>
  <rdf:RDF xmlns:dc="http://purl.org/dc/elements/1.1/" xmlns:cc="http://creativecommons.org/ns#" xmlns:rdf="http://www.w3.org/1999/02/22-rdf-syntax-ns#">
   <cc:Work>
    <dc:type rdf:resource="http://purl.org/dc/dcmitype/StillImage"/>
    <dc:date>2026-01-27T20:27:41.437205</dc:date>
    <dc:format>image/svg+xml</dc:format>
    <dc:creator>
     <cc:Agent>
      <dc:title>Matplotlib v3.10.1, https://matplotlib.org/</dc:title>
     </cc:Agent>
    </dc:creator>
   </cc:Work>
  </rdf:RDF>
 </metadata>
 <defs>
  <style type="text/css">*{stroke-linejoin: round; stroke-linecap: butt}</style>
 </defs>
 <g id="figure_1">
  <g id="axes_1">
   <g id="patch_1">
    <path d="M 25.463649 94.583312 
L 122.042118 94.583312 
L 122.042118 5.659693 
L 25.463649 5.659693 
L 25.463649 94.583312 
z
" style="fill: none"/>
   </g>
   <g id="matplotlib.axis_1">
    <g id="xtick_1">
     <g id="line2d_1">
      <defs>
       <path id="m32487253a5" d="M 0 0 
L 0 2.5 
" style="stroke: #000000"/>
      </defs>
      <g>
       <use xlink:href="#m32487253a5" x="29.853579" y="96.139476" style="stroke: #000000"/>
      </g>
     </g>
     <g id="text_1">
      <!-- 0 -->
      <g transform="translate(27.626704 107.458382) scale(0.07 -0.07)">
       <defs>
        <path id="DejaVuSans-30" d="M 2034 4250 
Q 1547 4250 1301 3770 
Q 1056 3291 1056 2328 
Q 1056 1369 1301 889 
Q 1547 409 2034 409 
Q 2525 409 2770 889 
Q 3016 1369 3016 2328 
Q 3016 3291 2770 3770 
Q 2525 4250 2034 4250 
z
M 2034 4750 
Q 2819 4750 3233 4129 
Q 3647 3509 3647 2328 
Q 3647 1150 3233 529 
Q 2819 -91 2034 -91 
Q 1250 -91 836 529 
Q 422 1150 422 2328 
Q 422 3509 836 4129 
Q 1250 4750 2034 4750 
z
" transform="scale(0.015625)"/>
       </defs>
       <use xlink:href="#DejaVuSans-30"/>
      </g>
     </g>
    </g>
    <g id="xtick_2">
     <g id="line2d_2">
      <g>
       <use xlink:href="#m32487253a5" x="117.652187" y="96.139476" style="stroke: #000000"/>
      </g>
     </g>
     <g id="text_2">
      <!-- 5 -->
      <g transform="translate(115.425312 107.458382) scale(0.07 -0.07)">
       <defs>
        <path id="DejaVuSans-35" d="M 691 4666 
L 3169 4666 
L 3169 4134 
L 1269 4134 
L 1269 2991 
Q 1406 3038 1543 3061 
Q 1681 3084 1819 3084 
Q 2600 3084 3056 2656 
Q 3513 2228 3513 1497 
Q 3513 744 3044 326 
Q 2575 -91 1722 -91 
Q 1428 -91 1123 -41 
Q 819 9 494 109 
L 494 744 
Q 775 591 1075 516 
Q 1375 441 1709 441 
Q 2250 441 2565 725 
Q 2881 1009 2881 1497 
Q 2881 1984 2565 2268 
Q 2250 2553 1709 2553 
Q 1456 2553 1204 2497 
Q 953 2441 691 2322 
L 691 4666 
z
" transform="scale(0.015625)"/>
       </defs>
       <use xlink:href="#DejaVuSans-35"/>
      </g>
     </g>
    </g>
    <g id="text_3">
     <!-- Time (ms) -->
     <g transform="translate(56.11343 108.233069) scale(0.07 -0.07)">
      <defs>
       <path id="DejaVuSans-54" d="M -19 4666 
L 3928 4666 
L 3928 4134 
L 2272 4134 
L 2272 0 
L 1638 0 
L 1638 4134 
L -19 4134 
L -19 4666 
z
" transform="scale(0.015625)"/>
       <path id="DejaVuSans-69" d="M 603 3500 
L 1178 3500 
L 1178 0 
L 603 0 
L 603 3500 
z
M 603 4863 
L 1178 4863 
L 1178 4134 
L 603 4134 
L 603 4863 
z
" transform="scale(0.015625)"/>
       <path id="DejaVuSans-6d" d="M 3328 2828 
Q 3544 3216 3844 3400 
Q 4144 3584 4550 3584 
Q 5097 3584 5394 3201 
Q 5691 2819 5691 2113 
L 5691 0 
L 5113 0 
L 5113 2094 
Q 5113 2597 4934 2840 
Q 4756 3084 4391 3084 
Q 3944 3084 3684 2787 
Q 3425 2491 3425 1978 
L 3425 0 
L 2847 0 
L 2847 2094 
Q 2847 2600 2669 2842 
Q 2491 3084 2119 3084 
Q 1678 3084 1418 2786 
Q 1159 2488 1159 1978 
L 1159 0 
L 581 0 
L 581 3500 
L 1159 3500 
L 1159 2956 
Q 1356 3278 1631 3431 
Q 1906 3584 2284 3584 
Q 2666 3584 2933 3390 
Q 3200 3197 3328 2828 
z
" transform="scale(0.015625)"/>
       <path id="DejaVuSans-65" d="M 3597 1894 
L 3597 1613 
L 953 1613 
Q 991 1019 1311 708 
Q 1631 397 2203 397 
Q 2534 397 2845 478 
Q 3156 559 3463 722 
L 3463 178 
Q 3153 47 2828 -22 
Q 2503 -91 2169 -91 
Q 1331 -91 842 396 
Q 353 884 353 1716 
Q 353 2575 817 3079 
Q 1281 3584 2069 3584 
Q 2775 3584 3186 3129 
Q 3597 2675 3597 1894 
z
M 3022 2063 
Q 3016 2534 2758 2815 
Q 2500 3097 2075 3097 
Q 1594 3097 1305 2825 
Q 1016 2553 972 2059 
L 3022 2063 
z
" transform="scale(0.015625)"/>
       <path id="DejaVuSans-20" transform="scale(0.015625)"/>
       <path id="DejaVuSans-28" d="M 1984 4856 
Q 1566 4138 1362 3434 
Q 1159 2731 1159 2009 
Q 1159 1288 1364 580 
Q 1569 -128 1984 -844 
L 1484 -844 
Q 1016 -109 783 600 
Q 550 1309 550 2009 
Q 550 2706 781 3412 
Q 1013 4119 1484 4856 
L 1984 4856 
z
" transform="scale(0.015625)"/>
       <path id="DejaVuSans-73" d="M 2834 3397 
L 2834 2853 
Q 2591 2978 2328 3040 
Q 2066 3103 1784 3103 
Q 1356 3103 1142 2972 
Q 928 2841 928 2578 
Q 928 2378 1081 2264 
Q 1234 2150 1697 2047 
L 1894 2003 
Q 2506 1872 2764 1633 
Q 3022 1394 3022 966 
Q 3022 478 2636 193 
Q 2250 -91 1575 -91 
Q 1294 -91 989 -36 
Q 684 19 347 128 
L 347 722 
Q 666 556 975 473 
Q 1284 391 1588 391 
Q 1994 391 2212 530 
Q 2431 669 2431 922 
Q 2431 1156 2273 1281 
Q 2116 1406 1581 1522 
L 1381 1569 
Q 847 1681 609 1914 
Q 372 2147 372 2553 
Q 372 3047 722 3315 
Q 1072 3584 1716 3584 
Q 2034 3584 2315 3537 
Q 2597 3491 2834 3397 
z
" transform="scale(0.015625)"/>
       <path id="DejaVuSans-29" d="M 513 4856 
L 1013 4856 
Q 1481 4119 1714 3412 
Q 1947 2706 1947 2009 
Q 1947 1309 1714 600 
Q 1481 -109 1013 -844 
L 513 -844 
Q 928 -128 1133 580 
Q 1338 1288 1338 2009 
Q 1338 2731 1133 3434 
Q 928 4138 513 4856 
z
" transform="scale(0.015625)"/>
      </defs>
      <use xlink:href="#DejaVuSans-54"/>
      <use xlink:href="#DejaVuSans-69" transform="translate(57.958984 0)"/>
      <use xlink:href="#DejaVuSans-6d" transform="translate(85.742188 0)"/>
      <use xlink:href="#DejaVuSans-65" transform="translate(183.154297 0)"/>
      <use xlink:href="#DejaVuSans-20" transform="translate(244.677734 0)"/>
      <use xlink:href="#DejaVuSans-28" transform="translate(276.464844 0)"/>
      <use xlink:href="#DejaVuSans-6d" transform="translate(315.478516 0)"/>
      <use xlink:href="#DejaVuSans-73" transform="translate(412.890625 0)"/>
      <use xlink:href="#DejaVuSans-29" transform="translate(464.990234 0)"/>
     </g>
    </g>
   </g>
   <g id="matplotlib.axis_2">
    <g id="ytick_1">
     <g id="line2d_3">
      <defs>
       <path id="mfea2b302eb" d="M 0 0 
L -2.5 0 
" style="stroke: #000000"/>
      </defs>
      <g>
       <use xlink:href="#mfea2b302eb" x="23.773526" y="90.54133" style="stroke: #000000"/>
      </g>
     </g>
     <g id="text_4">
      <!-- −70 -->
      <g transform="translate(3.000245 93.200783) scale(0.07 -0.07)">
       <defs>
        <path id="DejaVuSans-2212" d="M 678 2272 
L 4684 2272 
L 4684 1741 
L 678 1741 
L 678 2272 
z
" transform="scale(0.015625)"/>
        <path id="DejaVuSans-37" d="M 525 4666 
L 3525 4666 
L 3525 4397 
L 1831 0 
L 1172 0 
L 2766 4134 
L 525 4134 
L 525 4666 
z
" transform="scale(0.015625)"/>
       </defs>
       <use xlink:href="#DejaVuSans-2212"/>
       <use xlink:href="#DejaVuSans-37" transform="translate(83.789062 0)"/>
       <use xlink:href="#DejaVuSans-30" transform="translate(147.412109 0)"/>
      </g>
     </g>
    </g>
    <g id="ytick_2">
     <g id="line2d_4">
      <g>
       <use xlink:href="#mfea2b302eb" x="23.773526" y="9.700377" style="stroke: #000000"/>
      </g>
     </g>
     <g id="text_5">
      <!-- 30 -->
      <g transform="translate(8.866026 12.35983) scale(0.07 -0.07)">
       <defs>
        <path id="DejaVuSans-33" d="M 2597 2516 
Q 3050 2419 3304 2112 
Q 3559 1806 3559 1356 
Q 3559 666 3084 287 
Q 2609 -91 1734 -91 
Q 1441 -91 1130 -33 
Q 819 25 488 141 
L 488 750 
Q 750 597 1062 519 
Q 1375 441 1716 441 
Q 2309 441 2620 675 
Q 2931 909 2931 1356 
Q 2931 1769 2642 2001 
Q 2353 2234 1838 2234 
L 1294 2234 
L 1294 2753 
L 1863 2753 
Q 2328 2753 2575 2939 
Q 2822 3125 2822 3475 
Q 2822 3834 2567 4026 
Q 2313 4219 1838 4219 
Q 1578 4219 1281 4162 
Q 984 4106 628 3988 
L 628 4550 
Q 988 4650 1302 4700 
Q 1616 4750 1894 4750 
Q 2613 4750 3031 4423 
Q 3450 4097 3450 3541 
Q 3450 3153 3228 2886 
Q 3006 2619 2597 2516 
z
" transform="scale(0.015625)"/>
       </defs>
       <use xlink:href="#DejaVuSans-33"/>
       <use xlink:href="#DejaVuSans-30" transform="translate(63.623047 0)"/>
      </g>
     </g>
    </g>
    <g id="text_6">
     <!-- AP Voltage (mV) -->
     <g transform="translate(11.544463 78.514706) rotate(-90) scale(0.07 -0.07)">
      <defs>
       <path id="DejaVuSans-41" d="M 2188 4044 
L 1331 1722 
L 3047 1722 
L 2188 4044 
z
M 1831 4666 
L 2547 4666 
L 4325 0 
L 3669 0 
L 3244 1197 
L 1141 1197 
L 716 0 
L 50 0 
L 1831 4666 
z
" transform="scale(0.015625)"/>
       <path id="DejaVuSans-50" d="M 1259 4147 
L 1259 2394 
L 2053 2394 
Q 2494 2394 2734 2622 
Q 2975 2850 2975 3272 
Q 2975 3691 2734 3919 
Q 2494 4147 2053 4147 
L 1259 4147 
z
M 628 4666 
L 2053 4666 
Q 2838 4666 3239 4311 
Q 3641 3956 3641 3272 
Q 3641 2581 3239 2228 
Q 2838 1875 2053 1875 
L 1259 1875 
L 1259 0 
L 628 0 
L 628 4666 
z
" transform="scale(0.015625)"/>
       <path id="DejaVuSans-56" d="M 1831 0 
L 50 4666 
L 709 4666 
L 2188 738 
L 3669 4666 
L 4325 4666 
L 2547 0 
L 1831 0 
z
" transform="scale(0.015625)"/>
       <path id="DejaVuSans-6f" d="M 1959 3097 
Q 1497 3097 1228 2736 
Q 959 2375 959 1747 
Q 959 1119 1226 758 
Q 1494 397 1959 397 
Q 2419 397 2687 759 
Q 2956 1122 2956 1747 
Q 2956 2369 2687 2733 
Q 2419 3097 1959 3097 
z
M 1959 3584 
Q 2709 3584 3137 3096 
Q 3566 2609 3566 1747 
Q 3566 888 3137 398 
Q 2709 -91 1959 -91 
Q 1206 -91 779 398 
Q 353 888 353 1747 
Q 353 2609 779 3096 
Q 1206 3584 1959 3584 
z
" transform="scale(0.015625)"/>
       <path id="DejaVuSans-6c" d="M 603 4863 
L 1178 4863 
L 1178 0 
L 603 0 
L 603 4863 
z
" transform="scale(0.015625)"/>
       <path id="DejaVuSans-74" d="M 1172 4494 
L 1172 3500 
L 2356 3500 
L 2356 3053 
L 1172 3053 
L 1172 1153 
Q 1172 725 1289 603 
Q 1406 481 1766 481 
L 2356 481 
L 2356 0 
L 1766 0 
Q 1100 0 847 248 
Q 594 497 594 1153 
L 594 3053 
L 172 3053 
L 172 3500 
L 594 3500 
L 594 4494 
L 1172 4494 
z
" transform="scale(0.015625)"/>
       <path id="DejaVuSans-61" d="M 2194 1759 
Q 1497 1759 1228 1600 
Q 959 1441 959 1056 
Q 959 750 1161 570 
Q 1363 391 1709 391 
Q 2188 391 2477 730 
Q 2766 1069 2766 1631 
L 2766 1759 
L 2194 1759 
z
M 3341 1997 
L 3341 0 
L 2766 0 
L 2766 531 
Q 2569 213 2275 61 
Q 1981 -91 1556 -91 
Q 1019 -91 701 211 
Q 384 513 384 1019 
Q 384 1609 779 1909 
Q 1175 2209 1959 2209 
L 2766 2209 
L 2766 2266 
Q 2766 2663 2505 2880 
Q 2244 3097 1772 3097 
Q 1472 3097 1187 3025 
Q 903 2953 641 2809 
L 641 3341 
Q 956 3463 1253 3523 
Q 1550 3584 1831 3584 
Q 2591 3584 2966 3190 
Q 3341 2797 3341 1997 
z
" transform="scale(0.015625)"/>
       <path id="DejaVuSans-67" d="M 2906 1791 
Q 2906 2416 2648 2759 
Q 2391 3103 1925 3103 
Q 1463 3103 1205 2759 
Q 947 2416 947 1791 
Q 947 1169 1205 825 
Q 1463 481 1925 481 
Q 2391 481 2648 825 
Q 2906 1169 2906 1791 
z
M 3481 434 
Q 3481 -459 3084 -895 
Q 2688 -1331 1869 -1331 
Q 1566 -1331 1297 -1286 
Q 1028 -1241 775 -1147 
L 775 -588 
Q 1028 -725 1275 -790 
Q 1522 -856 1778 -856 
Q 2344 -856 2625 -561 
Q 2906 -266 2906 331 
L 2906 616 
Q 2728 306 2450 153 
Q 2172 0 1784 0 
Q 1141 0 747 490 
Q 353 981 353 1791 
Q 353 2603 747 3093 
Q 1141 3584 1784 3584 
Q 2172 3584 2450 3431 
Q 2728 3278 2906 2969 
L 2906 3500 
L 3481 3500 
L 3481 434 
z
" transform="scale(0.015625)"/>
      </defs>
      <use xlink:href="#DejaVuSans-41"/>
      <use xlink:href="#DejaVuSans-50" transform="translate(68.408203 0)"/>
      <use xlink:href="#DejaVuSans-20" transform="translate(128.710938 0)"/>
      <use xlink:href="#DejaVuSans-56" transform="translate(160.498047 0)"/>
      <use xlink:href="#DejaVuSans-6f" transform="translate(221.15625 0)"/>
      <use xlink:href="#DejaVuSans-6c" transform="translate(282.337891 0)"/>
      <use xlink:href="#DejaVuSans-74" transform="translate(310.121094 0)"/>
      <use xlink:href="#DejaVuSans-61" transform="translate(349.330078 0)"/>
      <use xlink:href="#DejaVuSans-67" transform="translate(410.609375 0)"/>
      <use xlink:href="#DejaVuSans-65" transform="translate(474.085938 0)"/>
      <use xlink:href="#DejaVuSans-20" transform="translate(535.609375 0)"/>
      <use xlink:href="#DejaVuSans-28" transform="translate(567.396484 0)"/>
      <use xlink:href="#DejaVuSans-6d" transform="translate(606.410156 0)"/>
      <use xlink:href="#DejaVuSans-56" transform="translate(703.822266 0)"/>
      <use xlink:href="#DejaVuSans-29" transform="translate(772.230469 0)"/>
     </g>
    </g>
   </g>
   <g id="line2d_5">
    <path d="M 29.853579 90.54133 
L 38.475086 90.54133 
L 38.651035 90.217642 
L 40.058628 66.426473 
L 41.290272 49.018142 
L 42.521916 34.79149 
L 43.57761 25.129574 
L 44.457356 18.863614 
L 45.337101 14.220959 
L 46.040898 11.675616 
L 46.568745 10.448396 
L 47.096593 9.805567 
L 47.448491 9.701676 
L 47.800389 9.857513 
L 48.152287 10.273079 
L 48.680135 11.383421 
L 49.207982 13.078152 
L 49.911778 16.246845 
L 50.615575 20.454453 
L 51.49532 27.174939 
L 52.551015 37.382286 
L 53.60671 49.927193 
L 54.838354 67.517334 
L 56.245947 90.54133 
L 117.652187 90.54133 
L 117.652187 90.54133 
" clip-path="url(#pdbc5682032)" style="fill: none; stroke: #000000; stroke-linecap: square"/>
   </g>
   <g id="line2d_6">
    <path d="M 29.853579 90.54133 
L 38.475086 90.54133 
L 38.651035 90.250011 
L 40.058628 68.837959 
L 41.290272 53.170461 
L 42.521916 40.366474 
L 43.57761 31.67075 
L 44.457356 26.031385 
L 45.337101 21.852996 
L 46.040898 19.562187 
L 46.568745 18.45769 
L 47.096593 17.879144 
L 47.448491 17.785641 
L 47.800389 17.925895 
L 48.152287 18.299904 
L 48.680135 19.299212 
L 49.207982 20.82447 
L 49.911778 23.676293 
L 50.615575 27.463141 
L 51.49532 33.511578 
L 52.551015 42.69819 
L 53.60671 53.988607 
L 54.838354 69.819734 
L 56.245947 90.54133 
L 117.652187 90.54133 
L 117.652187 90.54133 
" clip-path="url(#pdbc5682032)" style="fill: none; stroke: #008080; stroke-linecap: square"/>
   </g>
   <g id="line2d_7">
    <path d="M 29.853579 90.54133 
L 38.475086 90.54133 
L 38.651035 90.39567 
L 40.058628 79.689644 
L 41.290272 71.855895 
L 42.521916 65.453902 
L 43.57761 61.10604 
L 44.457356 58.286357 
L 45.337101 56.197163 
L 46.040898 55.051758 
L 46.568745 54.49951 
L 47.096593 54.210237 
L 47.62444 54.183939 
L 48.152287 54.420617 
L 48.680135 54.920271 
L 49.383931 55.995548 
L 50.087728 57.538338 
L 50.967473 60.124264 
L 51.847219 63.440678 
L 52.902913 68.384618 
L 53.958608 74.38046 
L 55.190252 82.705097 
L 56.245947 90.54133 
L 117.652187 90.54133 
L 117.652187 90.54133 
" clip-path="url(#pdbc5682032)" style="fill: none; stroke: #0000ff; stroke-linecap: square"/>
   </g>
   <g id="patch_2">
    <path d="M 23.773526 90.54133 
L 23.773526 9.700377 
" style="fill: none; stroke: #000000; stroke-linejoin: miter; stroke-linecap: square"/>
   </g>
   <g id="patch_3">
    <path d="M 29.853579 96.139476 
L 117.652187 96.139476 
" style="fill: none; stroke: #000000; stroke-linejoin: miter; stroke-linecap: square"/>
   </g>
  </g>
  <g id="axes_2">
   <g id="patch_4">
    <path d="M 145.961163 94.583312 
L 242.539632 94.583312 
L 242.539632 5.659693 
L 145.961163 5.659693 
L 145.961163 94.583312 
z
" style="fill: none"/>
   </g>
   <g id="matplotlib.axis_3">
    <g id="xtick_3">
     <g id="line2d_8">
      <g>
       <use xlink:href="#m32487253a5" x="150.351093" y="96.139476" style="stroke: #000000"/>
      </g>
     </g>
     <g id="text_7">
      <!-- 0 -->
      <g transform="translate(148.124218 107.458382) scale(0.07 -0.07)">
       <use xlink:href="#DejaVuSans-30"/>
      </g>
     </g>
    </g>
    <g id="xtick_4">
     <g id="line2d_9">
      <g>
       <use xlink:href="#m32487253a5" x="238.149701" y="96.139476" style="stroke: #000000"/>
      </g>
     </g>
     <g id="text_8">
      <!-- 5 -->
      <g transform="translate(235.922826 107.458382) scale(0.07 -0.07)">
       <use xlink:href="#DejaVuSans-35"/>
      </g>
     </g>
    </g>
    <g id="text_9">
     <!-- Time (ms) -->
     <g transform="translate(176.610944 108.233069) scale(0.07 -0.07)">
      <use xlink:href="#DejaVuSans-54"/>
      <use xlink:href="#DejaVuSans-69" transform="translate(57.958984 0)"/>
      <use xlink:href="#DejaVuSans-6d" transform="translate(85.742188 0)"/>
      <use xlink:href="#DejaVuSans-65" transform="translate(183.154297 0)"/>
      <use xlink:href="#DejaVuSans-20" transform="translate(244.677734 0)"/>
      <use xlink:href="#DejaVuSans-28" transform="translate(276.464844 0)"/>
      <use xlink:href="#DejaVuSans-6d" transform="translate(315.478516 0)"/>
      <use xlink:href="#DejaVuSans-73" transform="translate(412.890625 0)"/>
      <use xlink:href="#DejaVuSans-29" transform="translate(464.990234 0)"/>
     </g>
    </g>
   </g>
   <g id="matplotlib.axis_4">
    <g id="ytick_3">
     <g id="line2d_10">
      <g>
       <use xlink:href="#mfea2b302eb" x="144.27104" y="94.583312" style="stroke: #000000"/>
      </g>
     </g>
     <g id="text_10">
      <!-- 0 -->
      <g transform="translate(133.81729 97.242765) scale(0.07 -0.07)">
       <use xlink:href="#DejaVuSans-30"/>
      </g>
     </g>
    </g>
    <g id="ytick_4">
     <g id="line2d_11">
      <g>
       <use xlink:href="#mfea2b302eb" x="144.27104" y="5.659693" style="stroke: #000000"/>
      </g>
     </g>
     <g id="text_11">
      <!-- 1 -->
      <g transform="translate(133.81729 8.319146) scale(0.07 -0.07)">
       <defs>
        <path id="DejaVuSans-31" d="M 794 531 
L 1825 531 
L 1825 4091 
L 703 3866 
L 703 4441 
L 1819 4666 
L 2450 4666 
L 2450 531 
L 3481 531 
L 3481 0 
L 794 0 
L 794 531 
z
" transform="scale(0.015625)"/>
       </defs>
       <use xlink:href="#DejaVuSans-31"/>
      </g>
     </g>
    </g>
    <g id="text_12">
     <!-- NMDAR P(open) -->
     <g transform="translate(142.361509 77.908768) rotate(-90) scale(0.07 -0.07)">
      <defs>
       <path id="DejaVuSans-4e" d="M 628 4666 
L 1478 4666 
L 3547 763 
L 3547 4666 
L 4159 4666 
L 4159 0 
L 3309 0 
L 1241 3903 
L 1241 0 
L 628 0 
L 628 4666 
z
" transform="scale(0.015625)"/>
       <path id="DejaVuSans-4d" d="M 628 4666 
L 1569 4666 
L 2759 1491 
L 3956 4666 
L 4897 4666 
L 4897 0 
L 4281 0 
L 4281 4097 
L 3078 897 
L 2444 897 
L 1241 4097 
L 1241 0 
L 628 0 
L 628 4666 
z
" transform="scale(0.015625)"/>
       <path id="DejaVuSans-44" d="M 1259 4147 
L 1259 519 
L 2022 519 
Q 2988 519 3436 956 
Q 3884 1394 3884 2338 
Q 3884 3275 3436 3711 
Q 2988 4147 2022 4147 
L 1259 4147 
z
M 628 4666 
L 1925 4666 
Q 3281 4666 3915 4102 
Q 4550 3538 4550 2338 
Q 4550 1131 3912 565 
Q 3275 0 1925 0 
L 628 0 
L 628 4666 
z
" transform="scale(0.015625)"/>
       <path id="DejaVuSans-52" d="M 2841 2188 
Q 3044 2119 3236 1894 
Q 3428 1669 3622 1275 
L 4263 0 
L 3584 0 
L 2988 1197 
Q 2756 1666 2539 1819 
Q 2322 1972 1947 1972 
L 1259 1972 
L 1259 0 
L 628 0 
L 628 4666 
L 2053 4666 
Q 2853 4666 3247 4331 
Q 3641 3997 3641 3322 
Q 3641 2881 3436 2590 
Q 3231 2300 2841 2188 
z
M 1259 4147 
L 1259 2491 
L 2053 2491 
Q 2509 2491 2742 2702 
Q 2975 2913 2975 3322 
Q 2975 3731 2742 3939 
Q 2509 4147 2053 4147 
L 1259 4147 
z
" transform="scale(0.015625)"/>
       <path id="DejaVuSans-70" d="M 1159 525 
L 1159 -1331 
L 581 -1331 
L 581 3500 
L 1159 3500 
L 1159 2969 
Q 1341 3281 1617 3432 
Q 1894 3584 2278 3584 
Q 2916 3584 3314 3078 
Q 3713 2572 3713 1747 
Q 3713 922 3314 415 
Q 2916 -91 2278 -91 
Q 1894 -91 1617 61 
Q 1341 213 1159 525 
z
M 3116 1747 
Q 3116 2381 2855 2742 
Q 2594 3103 2138 3103 
Q 1681 3103 1420 2742 
Q 1159 2381 1159 1747 
Q 1159 1113 1420 752 
Q 1681 391 2138 391 
Q 2594 391 2855 752 
Q 3116 1113 3116 1747 
z
" transform="scale(0.015625)"/>
       <path id="DejaVuSans-6e" d="M 3513 2113 
L 3513 0 
L 2938 0 
L 2938 2094 
Q 2938 2591 2744 2837 
Q 2550 3084 2163 3084 
Q 1697 3084 1428 2787 
Q 1159 2491 1159 1978 
L 1159 0 
L 581 0 
L 581 3500 
L 1159 3500 
L 1159 2956 
Q 1366 3272 1645 3428 
Q 1925 3584 2291 3584 
Q 2894 3584 3203 3211 
Q 3513 2838 3513 2113 
z
" transform="scale(0.015625)"/>
      </defs>
      <use xlink:href="#DejaVuSans-4e"/>
      <use xlink:href="#DejaVuSans-4d" transform="translate(74.804688 0)"/>
      <use xlink:href="#DejaVuSans-44" transform="translate(161.083984 0)"/>
      <use xlink:href="#DejaVuSans-41" transform="translate(236.335938 0)"/>
      <use xlink:href="#DejaVuSans-52" transform="translate(304.744141 0)"/>
      <use xlink:href="#DejaVuSans-20" transform="translate(374.226562 0)"/>
      <use xlink:href="#DejaVuSans-50" transform="translate(406.013672 0)"/>
      <use xlink:href="#DejaVuSans-28" transform="translate(466.316406 0)"/>
      <use xlink:href="#DejaVuSans-6f" transform="translate(505.330078 0)"/>
      <use xlink:href="#DejaVuSans-70" transform="translate(566.511719 0)"/>
      <use xlink:href="#DejaVuSans-65" transform="translate(629.988281 0)"/>
      <use xlink:href="#DejaVuSans-6e" transform="translate(691.511719 0)"/>
      <use xlink:href="#DejaVuSans-29" transform="translate(754.890625 0)"/>
     </g>
    </g>
   </g>
   <g id="line2d_12">
    <path d="M 150.351093 91.473913 
L 159.324498 91.457081 
L 159.676396 91.002676 
L 160.204244 89.642103 
L 160.732091 87.63799 
L 161.435888 84.044581 
L 162.315633 78.187199 
L 163.371328 69.551254 
L 167.066259 37.49919 
L 168.121954 30.879696 
L 169.0017 26.640602 
L 169.881445 23.519778 
L 170.585242 21.785923 
L 171.113089 20.922155 
L 171.640936 20.446739 
L 171.992834 20.363565 
L 172.344733 20.489923 
L 172.696631 20.85552 
L 173.048529 21.502332 
L 173.576376 23.131568 
L 174.104224 25.813139 
L 174.632071 29.969515 
L 175.159919 36.177828 
L 175.687766 45.09625 
L 176.391562 61.74588 
L 177.095359 79.536385 
L 177.623206 85.964868 
L 178.151053 88.931546 
L 178.678901 90.300637 
L 179.206748 90.932458 
L 179.734595 91.224038 
L 180.614341 91.405049 
L 182.549781 91.469871 
L 204.543421 91.473913 
L 238.149701 91.473913 
L 238.149701 91.473913 
" clip-path="url(#p18792619e4)" style="fill: none; stroke: #000000; stroke-linecap: square"/>
   </g>
   <g id="line2d_13">
    <path d="M 150.351093 91.473913 
L 159.324498 91.458756 
L 159.676396 91.04737 
L 160.204244 89.820492 
L 160.90804 87.319242 
L 161.611837 83.926505 
L 162.491582 78.55395 
L 163.723226 69.407153 
L 167.242208 42.101243 
L 168.297903 35.962278 
L 169.177649 31.962864 
L 170.057394 29.011508 
L 170.761191 27.421429 
L 171.289038 26.702444 
L 171.640936 26.467015 
L 171.992834 26.44576 
L 172.344733 26.662431 
L 172.696631 27.149322 
L 173.048529 27.949413 
L 173.576376 29.863738 
L 174.104224 32.870346 
L 174.632071 37.317793 
L 175.159919 43.626056 
L 175.863715 55.548004 
L 177.271308 83.9269 
L 177.799155 87.991045 
L 178.327003 89.866605 
L 178.85485 90.732157 
L 179.382697 91.131601 
L 180.086494 91.351835 
L 181.318137 91.453822 
L 186.244713 91.473899 
L 238.149701 91.473913 
L 238.149701 91.473913 
" clip-path="url(#p18792619e4)" style="fill: none; stroke: #008080; stroke-linecap: square"/>
   </g>
   <g id="line2d_14">
    <path d="M 150.351093 91.473913 
L 159.500447 91.387157 
L 160.028295 90.873617 
L 160.732091 89.787922 
L 161.611837 87.993722 
L 162.667531 85.343333 
L 164.251073 80.670261 
L 167.242208 71.691575 
L 168.297903 69.224446 
L 169.177649 67.710864 
L 169.881445 66.945554 
L 170.409292 66.673986 
L 170.93714 66.692277 
L 171.464987 67.027906 
L 171.992834 67.70735 
L 172.520682 68.754323 
L 173.224478 70.751432 
L 173.928275 73.441697 
L 174.80802 77.681239 
L 177.095359 89.478513 
L 177.623206 90.553057 
L 178.151053 91.048947 
L 178.85485 91.322358 
L 179.910545 91.441636 
L 183.253578 91.473672 
L 238.149701 91.473913 
L 238.149701 91.473913 
" clip-path="url(#p18792619e4)" style="fill: none; stroke: #0000ff; stroke-linecap: square"/>
   </g>
   <g id="patch_5">
    <path d="M 144.27104 94.583312 
L 144.27104 5.659693 
" style="fill: none; stroke: #000000; stroke-linejoin: miter; stroke-linecap: square"/>
   </g>
   <g id="patch_6">
    <path d="M 150.351093 96.139476 
L 238.149701 96.139476 
" style="fill: none; stroke: #000000; stroke-linejoin: miter; stroke-linecap: square"/>
   </g>
  </g>
  <g id="axes_3">
   <g id="patch_7">
    <path d="M 266.385193 94.583312 
L 362.963662 94.583312 
L 362.963662 5.659693 
L 266.385193 5.659693 
L 266.385193 94.583312 
z
" style="fill: none"/>
   </g>
   <g id="matplotlib.axis_5">
    <g id="xtick_5">
     <g id="line2d_15">
      <g>
       <use xlink:href="#m32487253a5" x="270.775124" y="96.139476" style="stroke: #000000"/>
      </g>
     </g>
     <g id="text_13">
      <!-- 0 -->
      <g transform="translate(268.548249 107.458382) scale(0.07 -0.07)">
       <use xlink:href="#DejaVuSans-30"/>
      </g>
     </g>
    </g>
    <g id="xtick_6">
     <g id="line2d_16">
      <g>
       <use xlink:href="#m32487253a5" x="358.573731" y="96.139476" style="stroke: #000000"/>
      </g>
     </g>
     <g id="text_14">
      <!-- 5 -->
      <g transform="translate(356.346856 107.458382) scale(0.07 -0.07)">
       <use xlink:href="#DejaVuSans-35"/>
      </g>
     </g>
    </g>
    <g id="text_15">
     <!-- Time (ms) -->
     <g transform="translate(297.034974 108.233069) scale(0.07 -0.07)">
      <use xlink:href="#DejaVuSans-54"/>
      <use xlink:href="#DejaVuSans-69" transform="translate(57.958984 0)"/>
      <use xlink:href="#DejaVuSans-6d" transform="translate(85.742188 0)"/>
      <use xlink:href="#DejaVuSans-65" transform="translate(183.154297 0)"/>
      <use xlink:href="#DejaVuSans-20" transform="translate(244.677734 0)"/>
      <use xlink:href="#DejaVuSans-28" transform="translate(276.464844 0)"/>
      <use xlink:href="#DejaVuSans-6d" transform="translate(315.478516 0)"/>
      <use xlink:href="#DejaVuSans-73" transform="translate(412.890625 0)"/>
      <use xlink:href="#DejaVuSans-29" transform="translate(464.990234 0)"/>
     </g>
    </g>
   </g>
   <g id="matplotlib.axis_6">
    <g id="ytick_5">
     <g id="line2d_17">
      <g>
       <use xlink:href="#mfea2b302eb" x="264.69507" y="94.583312" style="stroke: #000000"/>
      </g>
     </g>
     <g id="text_16">
      <!-- 0 -->
      <g transform="translate(254.24132 97.242765) scale(0.07 -0.07)">
       <use xlink:href="#DejaVuSans-30"/>
      </g>
     </g>
    </g>
    <g id="ytick_6">
     <g id="line2d_18">
      <g>
       <use xlink:href="#mfea2b302eb" x="264.69507" y="5.659693" style="stroke: #000000"/>
      </g>
     </g>
     <g id="text_17">
      <!-- 1 -->
      <g transform="translate(254.24132 8.319146) scale(0.07 -0.07)">
       <use xlink:href="#DejaVuSans-31"/>
      </g>
     </g>
    </g>
    <g id="text_18">
     <!-- VGCC P(open) -->
     <g transform="translate(262.785539 74.804706) rotate(-90) scale(0.07 -0.07)">
      <defs>
       <path id="DejaVuSans-47" d="M 3809 666 
L 3809 1919 
L 2778 1919 
L 2778 2438 
L 4434 2438 
L 4434 434 
Q 4069 175 3628 42 
Q 3188 -91 2688 -91 
Q 1594 -91 976 548 
Q 359 1188 359 2328 
Q 359 3472 976 4111 
Q 1594 4750 2688 4750 
Q 3144 4750 3555 4637 
Q 3966 4525 4313 4306 
L 4313 3634 
Q 3963 3931 3569 4081 
Q 3175 4231 2741 4231 
Q 1884 4231 1454 3753 
Q 1025 3275 1025 2328 
Q 1025 1384 1454 906 
Q 1884 428 2741 428 
Q 3075 428 3337 486 
Q 3600 544 3809 666 
z
" transform="scale(0.015625)"/>
       <path id="DejaVuSans-43" d="M 4122 4306 
L 4122 3641 
Q 3803 3938 3442 4084 
Q 3081 4231 2675 4231 
Q 1875 4231 1450 3742 
Q 1025 3253 1025 2328 
Q 1025 1406 1450 917 
Q 1875 428 2675 428 
Q 3081 428 3442 575 
Q 3803 722 4122 1019 
L 4122 359 
Q 3791 134 3420 21 
Q 3050 -91 2638 -91 
Q 1578 -91 968 557 
Q 359 1206 359 2328 
Q 359 3453 968 4101 
Q 1578 4750 2638 4750 
Q 3056 4750 3426 4639 
Q 3797 4528 4122 4306 
z
" transform="scale(0.015625)"/>
      </defs>
      <use xlink:href="#DejaVuSans-56"/>
      <use xlink:href="#DejaVuSans-47" transform="translate(68.408203 0)"/>
      <use xlink:href="#DejaVuSans-43" transform="translate(145.898438 0)"/>
      <use xlink:href="#DejaVuSans-43" transform="translate(215.722656 0)"/>
      <use xlink:href="#DejaVuSans-20" transform="translate(285.546875 0)"/>
      <use xlink:href="#DejaVuSans-50" transform="translate(317.333984 0)"/>
      <use xlink:href="#DejaVuSans-28" transform="translate(377.636719 0)"/>
      <use xlink:href="#DejaVuSans-6f" transform="translate(416.650391 0)"/>
      <use xlink:href="#DejaVuSans-70" transform="translate(477.832031 0)"/>
      <use xlink:href="#DejaVuSans-65" transform="translate(541.308594 0)"/>
      <use xlink:href="#DejaVuSans-6e" transform="translate(602.832031 0)"/>
      <use xlink:href="#DejaVuSans-29" transform="translate(666.210938 0)"/>
     </g>
    </g>
   </g>
   <g id="line2d_19">
    <path d="M 270.775124 94.583312 
L 282.915612 94.493582 
L 283.44346 94.278275 
L 283.971307 93.822894 
L 284.499154 93.041283 
L 285.027002 91.8785 
L 285.730798 89.715072 
L 286.610544 86.142768 
L 288.018137 79.230154 
L 289.953577 69.833663 
L 291.009272 65.648829 
L 292.064966 62.3839 
L 292.944712 60.406116 
L 293.648508 59.32026 
L 294.176356 58.802446 
L 294.704203 58.541007 
L 295.23205 58.514091 
L 295.935847 58.764716 
L 296.463694 59.191724 
L 296.991542 59.999527 
L 298.047236 62.729286 
L 299.806727 66.906961 
L 301.566219 70.536717 
L 303.32571 73.690417 
L 305.26115 76.683911 
L 307.19659 79.24849 
L 309.13203 81.44561 
L 311.067471 83.327923 
L 313.17886 85.075145 
L 315.466199 86.663252 
L 317.753537 87.986092 
L 320.216825 89.164685 
L 323.03201 90.256095 
L 326.023145 91.175899 
L 329.366179 91.974555 
L 333.237059 92.668475 
L 337.811736 93.254641 
L 343.266159 93.72392 
L 350.304123 94.093477 
L 358.573731 94.330252 
L 358.573731 94.330252 
" clip-path="url(#pc8350131dd)" style="fill: none; stroke: #000000; stroke-linecap: square"/>
   </g>
   <g id="line2d_20">
    <path d="M 270.775124 94.583312 
L 283.267511 94.493133 
L 283.971307 94.204111 
L 284.499154 93.746843 
L 285.027002 93.01704 
L 285.730798 91.566426 
L 286.434595 89.575653 
L 287.490289 85.769602 
L 291.36117 70.744615 
L 292.240915 68.400131 
L 293.120661 66.700064 
L 293.824458 65.842521 
L 294.352305 65.500864 
L 294.880152 65.395027 
L 295.583949 65.526427 
L 296.287745 65.92076 
L 296.815592 66.489751 
L 297.34344 67.484137 
L 299.102931 71.038196 
L 300.862422 74.126127 
L 302.797862 77.057193 
L 304.733303 79.568288 
L 306.668743 81.719588 
L 308.780132 83.716491 
L 310.891522 85.403392 
L 313.17886 86.936671 
L 315.642148 88.302755 
L 318.281384 89.496782 
L 321.09657 90.521298 
L 324.263654 91.429374 
L 327.782637 92.202319 
L 331.829466 92.860043 
L 336.580092 93.40425 
L 342.562362 93.852168 
L 350.128174 94.183772 
L 358.573731 94.379773 
L 358.573731 94.379773 
" clip-path="url(#pc8350131dd)" style="fill: none; stroke: #008080; stroke-linecap: square"/>
   </g>
   <g id="line2d_21">
    <path d="M 270.775124 94.583312 
L 288.194086 94.482602 
L 294.176356 94.156195 
L 300.334575 94.285654 
L 313.002911 94.475065 
L 336.580092 94.566812 
L 358.573731 94.580447 
L 358.573731 94.580447 
" clip-path="url(#pc8350131dd)" style="fill: none; stroke: #0000ff; stroke-linecap: square"/>
   </g>
   <g id="patch_8">
    <path d="M 264.69507 94.583312 
L 264.69507 5.659693 
" style="fill: none; stroke: #000000; stroke-linejoin: miter; stroke-linecap: square"/>
   </g>
   <g id="patch_9">
    <path d="M 270.775124 96.139476 
L 358.573731 96.139476 
" style="fill: none; stroke: #000000; stroke-linejoin: miter; stroke-linecap: square"/>
   </g>
   <g id="text_19">
    <!-- proximal -->
    <g transform="translate(328.204669 11.1482) scale(0.07 -0.07)">
     <defs>
      <path id="DejaVuSans-72" d="M 2631 2963 
Q 2534 3019 2420 3045 
Q 2306 3072 2169 3072 
Q 1681 3072 1420 2755 
Q 1159 2438 1159 1844 
L 1159 0 
L 581 0 
L 581 3500 
L 1159 3500 
L 1159 2956 
Q 1341 3275 1631 3429 
Q 1922 3584 2338 3584 
Q 2397 3584 2469 3576 
Q 2541 3569 2628 3553 
L 2631 2963 
z
" transform="scale(0.015625)"/>
      <path id="DejaVuSans-78" d="M 3513 3500 
L 2247 1797 
L 3578 0 
L 2900 0 
L 1881 1375 
L 863 0 
L 184 0 
L 1544 1831 
L 300 3500 
L 978 3500 
L 1906 2253 
L 2834 3500 
L 3513 3500 
z
" transform="scale(0.015625)"/>
     </defs>
     <use xlink:href="#DejaVuSans-70"/>
     <use xlink:href="#DejaVuSans-72" transform="translate(63.476562 0)"/>
     <use xlink:href="#DejaVuSans-6f" transform="translate(102.339844 0)"/>
     <use xlink:href="#DejaVuSans-78" transform="translate(160.396484 0)"/>
     <use xlink:href="#DejaVuSans-69" transform="translate(219.576172 0)"/>
     <use xlink:href="#DejaVuSans-6d" transform="translate(247.359375 0)"/>
     <use xlink:href="#DejaVuSans-61" transform="translate(344.771484 0)"/>
     <use xlink:href="#DejaVuSans-6c" transform="translate(406.050781 0)"/>
    </g>
   </g>
   <g id="text_20">
    <!-- distal-simple -->
    <g style="fill: #008080" transform="translate(313.929044 20.040562) scale(0.07 -0.07)">
     <defs>
      <path id="DejaVuSans-64" d="M 2906 2969 
L 2906 4863 
L 3481 4863 
L 3481 0 
L 2906 0 
L 2906 525 
Q 2725 213 2448 61 
Q 2172 -91 1784 -91 
Q 1150 -91 751 415 
Q 353 922 353 1747 
Q 353 2572 751 3078 
Q 1150 3584 1784 3584 
Q 2172 3584 2448 3432 
Q 2725 3281 2906 2969 
z
M 947 1747 
Q 947 1113 1208 752 
Q 1469 391 1925 391 
Q 2381 391 2643 752 
Q 2906 1113 2906 1747 
Q 2906 2381 2643 2742 
Q 2381 3103 1925 3103 
Q 1469 3103 1208 2742 
Q 947 2381 947 1747 
z
" transform="scale(0.015625)"/>
      <path id="DejaVuSans-2d" d="M 313 2009 
L 1997 2009 
L 1997 1497 
L 313 1497 
L 313 2009 
z
" transform="scale(0.015625)"/>
     </defs>
     <use xlink:href="#DejaVuSans-64"/>
     <use xlink:href="#DejaVuSans-69" transform="translate(63.476562 0)"/>
     <use xlink:href="#DejaVuSans-73" transform="translate(91.259766 0)"/>
     <use xlink:href="#DejaVuSans-74" transform="translate(143.359375 0)"/>
     <use xlink:href="#DejaVuSans-61" transform="translate(182.568359 0)"/>
     <use xlink:href="#DejaVuSans-6c" transform="translate(243.847656 0)"/>
     <use xlink:href="#DejaVuSans-2d" transform="translate(271.630859 0)"/>
     <use xlink:href="#DejaVuSans-73" transform="translate(307.714844 0)"/>
     <use xlink:href="#DejaVuSans-69" transform="translate(359.814453 0)"/>
     <use xlink:href="#DejaVuSans-6d" transform="translate(387.597656 0)"/>
     <use xlink:href="#DejaVuSans-70" transform="translate(485.009766 0)"/>
     <use xlink:href="#DejaVuSans-6c" transform="translate(548.486328 0)"/>
     <use xlink:href="#DejaVuSans-65" transform="translate(576.269531 0)"/>
    </g>
   </g>
   <g id="text_21">
    <!-- distal-complex -->
    <g style="fill: #0000ff" transform="translate(307.367638 28.932924) scale(0.07 -0.07)">
     <defs>
      <path id="DejaVuSans-63" d="M 3122 3366 
L 3122 2828 
Q 2878 2963 2633 3030 
Q 2388 3097 2138 3097 
Q 1578 3097 1268 2742 
Q 959 2388 959 1747 
Q 959 1106 1268 751 
Q 1578 397 2138 397 
Q 2388 397 2633 464 
Q 2878 531 3122 666 
L 3122 134 
Q 2881 22 2623 -34 
Q 2366 -91 2075 -91 
Q 1284 -91 818 406 
Q 353 903 353 1747 
Q 353 2603 823 3093 
Q 1294 3584 2113 3584 
Q 2378 3584 2631 3529 
Q 2884 3475 3122 3366 
z
" transform="scale(0.015625)"/>
     </defs>
     <use xlink:href="#DejaVuSans-64"/>
     <use xlink:href="#DejaVuSans-69" transform="translate(63.476562 0)"/>
     <use xlink:href="#DejaVuSans-73" transform="translate(91.259766 0)"/>
     <use xlink:href="#DejaVuSans-74" transform="translate(143.359375 0)"/>
     <use xlink:href="#DejaVuSans-61" transform="translate(182.568359 0)"/>
     <use xlink:href="#DejaVuSans-6c" transform="translate(243.847656 0)"/>
     <use xlink:href="#DejaVuSans-2d" transform="translate(271.630859 0)"/>
     <use xlink:href="#DejaVuSans-63" transform="translate(307.714844 0)"/>
     <use xlink:href="#DejaVuSans-6f" transform="translate(362.695312 0)"/>
     <use xlink:href="#DejaVuSans-6d" transform="translate(423.876953 0)"/>
     <use xlink:href="#DejaVuSans-70" transform="translate(521.289062 0)"/>
     <use xlink:href="#DejaVuSans-6c" transform="translate(584.765625 0)"/>
     <use xlink:href="#DejaVuSans-65" transform="translate(612.548828 0)"/>
     <use xlink:href="#DejaVuSans-78" transform="translate(672.322266 0)"/>
    </g>
   </g>
  </g>
  <g id="axes_4">
   <g id="patch_10">
    <path d="M 391.336457 94.583312 
L 487.914926 94.583312 
L 487.914926 5.659693 
L 391.336457 5.659693 
L 391.336457 94.583312 
z
" style="fill: none"/>
   </g>
   <g id="line2d_22">
    <path d="M 399.384663 20.359098 
L 439.625692 13.069995 
L 479.86672 23.372953 
" clip-path="url(#pa678f00d62)" style="fill: none; stroke: #000000; stroke-linecap: square"/>
    <defs>
     <path id="m2429e84338" d="M 0 1.5 
C 0.397805 1.5 0.77937 1.341951 1.06066 1.06066 
C 1.341951 0.77937 1.5 0.397805 1.5 0 
C 1.5 -0.397805 1.341951 -0.77937 1.06066 -1.06066 
C 0.77937 -1.341951 0.397805 -1.5 0 -1.5 
C -0.397805 -1.5 -0.77937 -1.341951 -1.06066 -1.06066 
C -1.341951 -0.77937 -1.5 -0.397805 -1.5 0 
C -1.5 0.397805 -1.341951 0.77937 -1.06066 1.06066 
C -0.77937 1.341951 -0.397805 1.5 0 1.5 
z
" style="stroke: #000000"/>
    </defs>
    <g clip-path="url(#pa678f00d62)">
     <use xlink:href="#m2429e84338" x="399.384663" y="20.359098" style="stroke: #000000"/>
     <use xlink:href="#m2429e84338" x="439.625692" y="13.069995" style="stroke: #000000"/>
     <use xlink:href="#m2429e84338" x="479.86672" y="23.372953" style="stroke: #000000"/>
    </g>
   </g>
   <g id="line2d_23">
    <path d="M 399.384663 13.069995 
L 439.625692 26.111151 
L 479.86672 86.187068 
" clip-path="url(#pa678f00d62)" style="fill: none; stroke: #9370db; stroke-linecap: square"/>
    <defs>
     <path id="m3ff6434375" d="M 0 1.5 
C 0.397805 1.5 0.77937 1.341951 1.06066 1.06066 
C 1.341951 0.77937 1.5 0.397805 1.5 0 
C 1.5 -0.397805 1.341951 -0.77937 1.06066 -1.06066 
C 0.77937 -1.341951 0.397805 -1.5 0 -1.5 
C -0.397805 -1.5 -0.77937 -1.341951 -1.06066 -1.06066 
C -1.341951 -0.77937 -1.5 -0.397805 -1.5 0 
C -1.5 0.397805 -1.341951 0.77937 -1.06066 1.06066 
C -0.77937 1.341951 -0.397805 1.5 0 1.5 
z
" style="stroke: #9370db"/>
    </defs>
    <g clip-path="url(#pa678f00d62)">
     <use xlink:href="#m3ff6434375" x="399.384663" y="13.069995" style="fill: #9370db; stroke: #9370db"/>
     <use xlink:href="#m3ff6434375" x="439.625692" y="26.111151" style="fill: #9370db; stroke: #9370db"/>
     <use xlink:href="#m3ff6434375" x="479.86672" y="86.187068" style="fill: #9370db; stroke: #9370db"/>
    </g>
   </g>
   <g id="matplotlib.axis_7">
    <g id="xtick_7">
     <g id="line2d_24">
      <g>
       <use xlink:href="#m32487253a5" x="399.384663" y="96.139476" style="stroke: #000000"/>
      </g>
     </g>
     <g id="text_22">
      <!-- 0 -->
      <g transform="translate(397.157788 107.458382) scale(0.07 -0.07)">
       <use xlink:href="#DejaVuSans-30"/>
      </g>
     </g>
    </g>
    <g id="xtick_8">
     <g id="line2d_25">
      <g>
       <use xlink:href="#m32487253a5" x="439.625692" y="96.139476" style="stroke: #000000"/>
      </g>
     </g>
     <g id="text_23">
      <!-- 1 -->
      <g transform="translate(437.398817 107.458382) scale(0.07 -0.07)">
       <use xlink:href="#DejaVuSans-31"/>
      </g>
     </g>
    </g>
    <g id="xtick_9">
     <g id="line2d_26">
      <g>
       <use xlink:href="#m32487253a5" x="479.86672" y="96.139476" style="stroke: #000000"/>
      </g>
     </g>
     <g id="text_24">
      <!-- 2 -->
      <g transform="translate(477.639845 107.458382) scale(0.07 -0.07)">
       <defs>
        <path id="DejaVuSans-32" d="M 1228 531 
L 3431 531 
L 3431 0 
L 469 0 
L 469 531 
Q 828 903 1448 1529 
Q 2069 2156 2228 2338 
Q 2531 2678 2651 2914 
Q 2772 3150 2772 3378 
Q 2772 3750 2511 3984 
Q 2250 4219 1831 4219 
Q 1534 4219 1204 4116 
Q 875 4013 500 3803 
L 500 4441 
Q 881 4594 1212 4672 
Q 1544 4750 1819 4750 
Q 2544 4750 2975 4387 
Q 3406 4025 3406 3419 
Q 3406 3131 3298 2873 
Q 3191 2616 2906 2266 
Q 2828 2175 2409 1742 
Q 1991 1309 1228 531 
z
" transform="scale(0.015625)"/>
       </defs>
       <use xlink:href="#DejaVuSans-32"/>
      </g>
     </g>
    </g>
   </g>
   <g id="matplotlib.axis_8">
    <g id="ytick_7">
     <g id="line2d_27">
      <g>
       <use xlink:href="#mfea2b302eb" x="389.646334" y="87.173011" style="stroke: #000000"/>
      </g>
     </g>
     <g id="text_25">
      <!-- 0 -->
      <g transform="translate(379.192584 89.832464) scale(0.07 -0.07)">
       <use xlink:href="#DejaVuSans-30"/>
      </g>
     </g>
    </g>
    <g id="ytick_8">
     <g id="line2d_28">
      <g>
       <use xlink:href="#mfea2b302eb" x="389.646334" y="13.069995" style="stroke: #000000"/>
      </g>
     </g>
     <g id="text_26">
      <!-- 1 -->
      <g transform="translate(379.192584 15.729448) scale(0.07 -0.07)">
       <use xlink:href="#DejaVuSans-31"/>
      </g>
     </g>
    </g>
    <g id="text_27">
     <!-- [Ca] Influx -->
     <g transform="translate(378.736803 68.298534) rotate(-90) scale(0.07 -0.07)">
      <defs>
       <path id="DejaVuSans-5b" d="M 550 4863 
L 1875 4863 
L 1875 4416 
L 1125 4416 
L 1125 -397 
L 1875 -397 
L 1875 -844 
L 550 -844 
L 550 4863 
z
" transform="scale(0.015625)"/>
       <path id="DejaVuSans-5d" d="M 1947 4863 
L 1947 -844 
L 622 -844 
L 622 -397 
L 1369 -397 
L 1369 4416 
L 622 4416 
L 622 4863 
L 1947 4863 
z
" transform="scale(0.015625)"/>
       <path id="DejaVuSans-49" d="M 628 4666 
L 1259 4666 
L 1259 0 
L 628 0 
L 628 4666 
z
" transform="scale(0.015625)"/>
       <path id="DejaVuSans-66" d="M 2375 4863 
L 2375 4384 
L 1825 4384 
Q 1516 4384 1395 4259 
Q 1275 4134 1275 3809 
L 1275 3500 
L 2222 3500 
L 2222 3053 
L 1275 3053 
L 1275 0 
L 697 0 
L 697 3053 
L 147 3053 
L 147 3500 
L 697 3500 
L 697 3744 
Q 697 4328 969 4595 
Q 1241 4863 1831 4863 
L 2375 4863 
z
" transform="scale(0.015625)"/>
       <path id="DejaVuSans-75" d="M 544 1381 
L 544 3500 
L 1119 3500 
L 1119 1403 
Q 1119 906 1312 657 
Q 1506 409 1894 409 
Q 2359 409 2629 706 
Q 2900 1003 2900 1516 
L 2900 3500 
L 3475 3500 
L 3475 0 
L 2900 0 
L 2900 538 
Q 2691 219 2414 64 
Q 2138 -91 1772 -91 
Q 1169 -91 856 284 
Q 544 659 544 1381 
z
M 1991 3584 
L 1991 3584 
z
" transform="scale(0.015625)"/>
      </defs>
      <use xlink:href="#DejaVuSans-5b"/>
      <use xlink:href="#DejaVuSans-43" transform="translate(39.013672 0)"/>
      <use xlink:href="#DejaVuSans-61" transform="translate(108.837891 0)"/>
      <use xlink:href="#DejaVuSans-5d" transform="translate(170.117188 0)"/>
      <use xlink:href="#DejaVuSans-20" transform="translate(209.130859 0)"/>
      <use xlink:href="#DejaVuSans-49" transform="translate(240.917969 0)"/>
      <use xlink:href="#DejaVuSans-6e" transform="translate(270.410156 0)"/>
      <use xlink:href="#DejaVuSans-66" transform="translate(333.789062 0)"/>
      <use xlink:href="#DejaVuSans-6c" transform="translate(368.994141 0)"/>
      <use xlink:href="#DejaVuSans-75" transform="translate(396.777344 0)"/>
      <use xlink:href="#DejaVuSans-78" transform="translate(460.15625 0)"/>
     </g>
    </g>
   </g>
   <g id="patch_11">
    <path d="M 389.646334 87.173011 
L 389.646334 13.069995 
" style="fill: none; stroke: #000000; stroke-linejoin: miter; stroke-linecap: square"/>
   </g>
   <g id="patch_12">
    <path d="M 399.384663 96.139476 
L 479.86672 96.139476 
" style="fill: none; stroke: #000000; stroke-linejoin: miter; stroke-linecap: square"/>
   </g>
  </g>
  <g id="axes_5">
   <g id="patch_13">
    <path d="M 145.961163 204.612918 
L 242.539632 204.612918 
L 242.539632 115.689299 
L 145.961163 115.689299 
L 145.961163 204.612918 
z
" style="fill: none"/>
   </g>
   <g id="line2d_29">
    <path d="M 145.961163 187.93974 
L 242.539632 187.93974 
" clip-path="url(#p4a81846fbe)" style="fill: none; stroke-dasharray: 2.59,1.12; stroke-dashoffset: 0; stroke: #000000; stroke-width: 0.7"/>
   </g>
   <g id="matplotlib.axis_9">
    <g id="xtick_10">
     <g id="line2d_30">
      <g>
       <use xlink:href="#m32487253a5" x="150.744809" y="206.169081" style="stroke: #000000"/>
      </g>
     </g>
     <g id="text_28">
      <!-- 0 -->
      <g transform="translate(148.517934 217.487988) scale(0.07 -0.07)">
       <use xlink:href="#DejaVuSans-30"/>
      </g>
     </g>
    </g>
    <g id="xtick_11">
     <g id="line2d_31">
      <g>
       <use xlink:href="#m32487253a5" x="238.149701" y="206.169081" style="stroke: #000000"/>
      </g>
     </g>
     <g id="text_29">
      <!-- 2 -->
      <g transform="translate(235.922826 217.487988) scale(0.07 -0.07)">
       <use xlink:href="#DejaVuSans-32"/>
      </g>
     </g>
    </g>
    <g id="text_30">
     <!-- [buffer] (mM) -->
     <g transform="translate(170.750085 219.262675) scale(0.07 -0.07)">
      <defs>
       <path id="DejaVuSans-62" d="M 3116 1747 
Q 3116 2381 2855 2742 
Q 2594 3103 2138 3103 
Q 1681 3103 1420 2742 
Q 1159 2381 1159 1747 
Q 1159 1113 1420 752 
Q 1681 391 2138 391 
Q 2594 391 2855 752 
Q 3116 1113 3116 1747 
z
M 1159 2969 
Q 1341 3281 1617 3432 
Q 1894 3584 2278 3584 
Q 2916 3584 3314 3078 
Q 3713 2572 3713 1747 
Q 3713 922 3314 415 
Q 2916 -91 2278 -91 
Q 1894 -91 1617 61 
Q 1341 213 1159 525 
L 1159 0 
L 581 0 
L 581 4863 
L 1159 4863 
L 1159 2969 
z
" transform="scale(0.015625)"/>
      </defs>
      <use xlink:href="#DejaVuSans-5b"/>
      <use xlink:href="#DejaVuSans-62" transform="translate(39.013672 0)"/>
      <use xlink:href="#DejaVuSans-75" transform="translate(102.490234 0)"/>
      <use xlink:href="#DejaVuSans-66" transform="translate(165.869141 0)"/>
      <use xlink:href="#DejaVuSans-66" transform="translate(201.074219 0)"/>
      <use xlink:href="#DejaVuSans-65" transform="translate(236.279297 0)"/>
      <use xlink:href="#DejaVuSans-72" transform="translate(297.802734 0)"/>
      <use xlink:href="#DejaVuSans-5d" transform="translate(338.916016 0)"/>
      <use xlink:href="#DejaVuSans-20" transform="translate(377.929688 0)"/>
      <use xlink:href="#DejaVuSans-28" transform="translate(409.716797 0)"/>
      <use xlink:href="#DejaVuSans-6d" transform="translate(448.730469 0)"/>
      <use xlink:href="#DejaVuSans-4d" transform="translate(546.142578 0)"/>
      <use xlink:href="#DejaVuSans-29" transform="translate(632.421875 0)"/>
     </g>
    </g>
   </g>
   <g id="matplotlib.axis_10">
    <g id="ytick_9">
     <g id="line2d_32">
      <g>
       <use xlink:href="#mfea2b302eb" x="144.27104" y="187.93974" style="stroke: #000000"/>
      </g>
     </g>
     <g id="text_31">
      <!-- 0 -->
      <g transform="translate(133.81729 190.599193) scale(0.07 -0.07)">
       <use xlink:href="#DejaVuSans-30"/>
      </g>
     </g>
    </g>
    <g id="ytick_10">
     <g id="line2d_33">
      <g>
       <use xlink:href="#mfea2b302eb" x="144.27104" y="132.362477" style="stroke: #000000"/>
      </g>
     </g>
     <g id="text_32">
      <!-- 1 -->
      <g transform="translate(133.81729 135.021931) scale(0.07 -0.07)">
       <use xlink:href="#DejaVuSans-31"/>
      </g>
     </g>
    </g>
    <g id="text_33">
     <!-- plasticity -->
     <g transform="translate(133.361509 175.998452) rotate(-90) scale(0.07 -0.07)">
      <defs>
       <path id="DejaVuSans-79" d="M 2059 -325 
Q 1816 -950 1584 -1140 
Q 1353 -1331 966 -1331 
L 506 -1331 
L 506 -850 
L 844 -850 
Q 1081 -850 1212 -737 
Q 1344 -625 1503 -206 
L 1606 56 
L 191 3500 
L 800 3500 
L 1894 763 
L 2988 3500 
L 3597 3500 
L 2059 -325 
z
" transform="scale(0.015625)"/>
      </defs>
      <use xlink:href="#DejaVuSans-70"/>
      <use xlink:href="#DejaVuSans-6c" transform="translate(63.476562 0)"/>
      <use xlink:href="#DejaVuSans-61" transform="translate(91.259766 0)"/>
      <use xlink:href="#DejaVuSans-73" transform="translate(152.539062 0)"/>
      <use xlink:href="#DejaVuSans-74" transform="translate(204.638672 0)"/>
      <use xlink:href="#DejaVuSans-69" transform="translate(243.847656 0)"/>
      <use xlink:href="#DejaVuSans-63" transform="translate(271.630859 0)"/>
      <use xlink:href="#DejaVuSans-69" transform="translate(326.611328 0)"/>
      <use xlink:href="#DejaVuSans-74" transform="translate(354.394531 0)"/>
      <use xlink:href="#DejaVuSans-79" transform="translate(393.603516 0)"/>
     </g>
    </g>
   </g>
   <g id="patch_14">
    <path d="M 144.27104 187.93974 
L 144.27104 132.362477 
" style="fill: none; stroke: #000000; stroke-linejoin: miter; stroke-linecap: square"/>
   </g>
   <g id="patch_15">
    <path d="M 150.744809 206.169081 
L 238.149701 206.169081 
" style="fill: none; stroke: #000000; stroke-linejoin: miter; stroke-linecap: square"/>
   </g>
   <g id="text_34">
    <!-- LTP ($\propto I_{NMDAR}$) -->
    <g transform="translate(176.966277 139.851766) scale(0.07 -0.07)">
     <defs>
      <path id="DejaVuSans-4c" d="M 628 4666 
L 1259 4666 
L 1259 531 
L 3531 531 
L 3531 0 
L 628 0 
L 628 4666 
z
" transform="scale(0.015625)"/>
      <path id="DejaVuSans-221d" d="M 1647 1134 
Q 2163 1134 2472 1884 
Q 2075 2703 1647 2703 
Q 1334 2703 1175 2478 
Q 1006 2238 1006 1919 
Q 1006 1569 1175 1353 
Q 1350 1134 1647 1134 
z
M 3884 1128 
L 3884 716 
L 3644 716 
Q 3416 716 3247 809 
Q 3078 894 2916 1091 
Q 2819 1203 2666 1466 
Q 2456 1091 2272 925 
Q 2044 725 1681 725 
Q 1259 725 981 1041 
Q 688 1372 688 1919 
Q 688 2444 981 2800 
Q 1241 3116 1688 3116 
Q 1916 3116 2084 3022 
Q 2281 2919 2416 2741 
Q 2541 2581 2666 2366 
Q 2875 2741 3059 2906 
Q 3288 3106 3650 3106 
L 3884 3106 
L 3884 2697 
L 3684 2697 
Q 3222 2697 2859 1947 
Q 3256 1128 3684 1128 
L 3884 1128 
z
" transform="scale(0.015625)"/>
      <path id="DejaVuSans-Oblique-49" d="M 1081 4666 
L 1716 4666 
L 806 0 
L 172 0 
L 1081 4666 
z
" transform="scale(0.015625)"/>
      <path id="DejaVuSans-Oblique-4e" d="M 1081 4666 
L 1931 4666 
L 3219 666 
L 4000 4666 
L 4616 4666 
L 3706 0 
L 2853 0 
L 1569 4025 
L 788 0 
L 172 0 
L 1081 4666 
z
" transform="scale(0.015625)"/>
      <path id="DejaVuSans-Oblique-4d" d="M 1081 4666 
L 2028 4666 
L 2572 1522 
L 4378 4666 
L 5350 4666 
L 4441 0 
L 3828 0 
L 4622 4091 
L 2791 897 
L 2175 897 
L 1581 4103 
L 788 0 
L 172 0 
L 1081 4666 
z
" transform="scale(0.015625)"/>
      <path id="DejaVuSans-Oblique-44" d="M 1081 4666 
L 2438 4666 
Q 3519 4666 4070 4208 
Q 4622 3750 4622 2847 
Q 4622 2250 4412 1698 
Q 4203 1147 3834 769 
Q 3463 381 2891 190 
Q 2319 0 1538 0 
L 172 0 
L 1081 4666 
z
M 1613 4147 
L 909 519 
L 1734 519 
Q 2794 519 3375 1128 
Q 3956 1738 3956 2847 
Q 3956 3519 3581 3833 
Q 3206 4147 2406 4147 
L 1613 4147 
z
" transform="scale(0.015625)"/>
      <path id="DejaVuSans-Oblique-41" d="M 2356 4666 
L 3072 4666 
L 3938 0 
L 3278 0 
L 3084 1197 
L 984 1197 
L 325 0 
L -341 0 
L 2356 4666 
z
M 2584 4044 
L 1275 1722 
L 2988 1722 
L 2584 4044 
z
" transform="scale(0.015625)"/>
      <path id="DejaVuSans-Oblique-52" d="M 1613 4147 
L 1294 2491 
L 2106 2491 
Q 2584 2491 2879 2755 
Q 3175 3019 3175 3444 
Q 3175 3784 2976 3965 
Q 2778 4147 2406 4147 
L 1613 4147 
z
M 2772 2241 
Q 2972 2194 3105 2009 
Q 3238 1825 3413 1275 
L 3809 0 
L 3144 0 
L 2778 1197 
Q 2638 1659 2453 1815 
Q 2269 1972 1888 1972 
L 1191 1972 
L 806 0 
L 172 0 
L 1081 4666 
L 2503 4666 
Q 3150 4666 3495 4373 
Q 3841 4081 3841 3531 
Q 3841 3044 3547 2687 
Q 3253 2331 2772 2241 
z
" transform="scale(0.015625)"/>
     </defs>
     <use xlink:href="#DejaVuSans-4c" transform="translate(0 0.125)"/>
     <use xlink:href="#DejaVuSans-54" transform="translate(55.712891 0.125)"/>
     <use xlink:href="#DejaVuSans-50" transform="translate(116.796875 0.125)"/>
     <use xlink:href="#DejaVuSans-20" transform="translate(177.099609 0.125)"/>
     <use xlink:href="#DejaVuSans-28" transform="translate(208.886719 0.125)"/>
     <use xlink:href="#DejaVuSans-221d" transform="translate(267.382812 0.125)"/>
     <use xlink:href="#DejaVuSans-Oblique-49" transform="translate(358.300781 0.125)"/>
     <use xlink:href="#DejaVuSans-Oblique-4e" transform="translate(387.792969 -16.28125) scale(0.7)"/>
     <use xlink:href="#DejaVuSans-Oblique-4d" transform="translate(440.15625 -16.28125) scale(0.7)"/>
     <use xlink:href="#DejaVuSans-Oblique-44" transform="translate(500.551758 -16.28125) scale(0.7)"/>
     <use xlink:href="#DejaVuSans-Oblique-41" transform="translate(554.453125 -16.28125) scale(0.7)"/>
     <use xlink:href="#DejaVuSans-Oblique-52" transform="translate(602.338867 -16.28125) scale(0.7)"/>
     <use xlink:href="#DejaVuSans-29" transform="translate(653.710938 0.125)"/>
    </g>
   </g>
   <g id="text_35">
    <!-- LTD ($\propto I_{VGCC}$) -->
    <g style="fill: #9370db" transform="translate(176.966277 148.188355) scale(0.07 -0.07)">
     <defs>
      <path id="DejaVuSans-Oblique-56" d="M 1319 0 
L 500 4666 
L 1119 4666 
L 1797 653 
L 4063 4666 
L 4750 4666 
L 2053 0 
L 1319 0 
z
" transform="scale(0.015625)"/>
      <path id="DejaVuSans-Oblique-47" d="M 3494 697 
L 3738 1919 
L 2700 1919 
L 2797 2438 
L 4453 2438 
L 4050 384 
Q 3634 156 3143 32 
Q 2653 -91 2156 -91 
Q 1278 -91 783 396 
Q 288 884 288 1753 
Q 288 2475 589 3126 
Q 891 3778 1422 4213 
Q 1756 4484 2153 4617 
Q 2550 4750 3034 4750 
Q 3472 4750 3873 4639 
Q 4275 4528 4641 4306 
L 4513 3634 
Q 4231 3928 3853 4083 
Q 3475 4238 3047 4238 
Q 2550 4238 2172 4048 
Q 1794 3859 1497 3463 
Q 1244 3125 1098 2667 
Q 953 2209 953 1734 
Q 953 1081 1287 751 
Q 1622 422 2284 422 
Q 2616 422 2925 492 
Q 3234 563 3494 697 
z
" transform="scale(0.015625)"/>
      <path id="DejaVuSans-Oblique-43" d="M 4447 4306 
L 4319 3641 
Q 4019 3944 3683 4091 
Q 3347 4238 2956 4238 
Q 2422 4238 2017 3981 
Q 1613 3725 1319 3200 
Q 1131 2863 1032 2486 
Q 934 2109 934 1728 
Q 934 1091 1264 756 
Q 1594 422 2222 422 
Q 2656 422 3056 561 
Q 3456 700 3834 978 
L 3688 231 
Q 3316 72 2936 -9 
Q 2556 -91 2175 -91 
Q 1278 -91 773 396 
Q 269 884 269 1753 
Q 269 2309 461 2846 
Q 653 3384 1013 3828 
Q 1394 4300 1883 4525 
Q 2372 4750 3022 4750 
Q 3422 4750 3780 4639 
Q 4138 4528 4447 4306 
z
" transform="scale(0.015625)"/>
     </defs>
     <use xlink:href="#DejaVuSans-4c" transform="translate(0 0.125)"/>
     <use xlink:href="#DejaVuSans-54" transform="translate(55.712891 0.125)"/>
     <use xlink:href="#DejaVuSans-44" transform="translate(116.796875 0.125)"/>
     <use xlink:href="#DejaVuSans-20" transform="translate(193.798828 0.125)"/>
     <use xlink:href="#DejaVuSans-28" transform="translate(225.585938 0.125)"/>
     <use xlink:href="#DejaVuSans-221d" transform="translate(284.082031 0.125)"/>
     <use xlink:href="#DejaVuSans-Oblique-49" transform="translate(375 0.125)"/>
     <use xlink:href="#DejaVuSans-Oblique-56" transform="translate(404.492188 -16.28125) scale(0.7)"/>
     <use xlink:href="#DejaVuSans-Oblique-47" transform="translate(452.37793 -16.28125) scale(0.7)"/>
     <use xlink:href="#DejaVuSans-Oblique-43" transform="translate(506.621094 -16.28125) scale(0.7)"/>
     <use xlink:href="#DejaVuSans-Oblique-43" transform="translate(555.498047 -16.28125) scale(0.7)"/>
     <use xlink:href="#DejaVuSans-29" transform="translate(607.109375 0.125)"/>
    </g>
   </g>
   <g id="line2d_34">
    <path d="M 150.744809 131.938452 
L 151.618858 132.516398 
L 152.492907 133.114923 
L 153.366956 133.73424 
L 154.241005 134.374515 
L 155.115054 135.035864 
L 155.989103 135.71835 
L 156.863152 136.421973 
L 157.737201 137.146675 
L 158.611249 137.892329 
L 159.485298 138.65874 
L 160.359347 139.445642 
L 161.233396 140.252692 
L 162.107445 141.079471 
L 162.981494 141.925482 
L 163.855543 142.790146 
L 164.729592 143.672805 
L 165.603641 144.572721 
L 166.47769 145.489075 
L 167.351739 146.420972 
L 168.225788 147.367438 
L 169.099837 148.32743 
L 169.973885 149.29983 
L 170.847934 150.283461 
L 171.721983 151.277082 
L 172.596032 152.279398 
L 173.470081 153.289069 
L 174.34413 154.30471 
L 175.218179 155.324906 
L 176.092228 156.348213 
L 176.966277 157.373172 
L 177.840326 158.398312 
L 178.714375 159.422164 
L 179.588424 160.443264 
L 180.462472 161.460163 
L 181.336521 162.471439 
L 182.21057 163.4757 
L 183.084619 164.471592 
L 183.958668 165.457809 
L 184.832717 166.433097 
L 185.706766 167.396261 
L 186.580815 168.34617 
L 187.454864 169.281761 
L 188.328913 170.202042 
L 189.202962 171.1061 
L 190.077011 171.993095 
L 190.95106 172.862271 
L 191.825108 173.712947 
L 192.699157 174.544529 
L 193.573206 175.356496 
L 194.447255 176.148412 
L 195.321304 176.919915 
L 196.195353 177.67072 
L 197.069402 178.400614 
L 197.943451 179.109454 
L 198.8175 179.797165 
L 199.691549 180.463734 
L 200.565598 181.109209 
L 201.439647 181.733691 
L 202.313696 182.337336 
L 203.187744 182.920345 
L 204.061793 183.482965 
L 204.935842 184.02548 
L 205.809891 184.548213 
L 206.68394 185.051514 
L 207.557989 185.535766 
L 208.432038 186.001374 
L 209.306087 186.448762 
L 210.180136 186.878375 
L 211.054185 187.290672 
L 211.928234 187.68612 
L 212.802283 188.065199 
L 213.676332 188.428394 
L 214.55038 188.776193 
L 215.424429 189.109086 
L 216.298478 189.427564 
L 217.172527 189.732115 
L 218.046576 190.023224 
L 218.920625 190.30137 
L 219.794674 190.567028 
L 220.668723 190.820663 
L 221.542772 191.062734 
L 222.416821 191.293689 
L 223.29087 191.513969 
L 224.164919 191.724 
L 225.038967 191.924202 
L 225.913016 192.11498 
L 226.787065 192.29673 
L 227.661114 192.469835 
L 228.535163 192.634667 
L 229.409212 192.791583 
L 230.283261 192.940932 
L 231.15731 193.083048 
L 232.031359 193.218256 
L 232.905408 193.346866 
L 233.779457 193.469179 
L 234.653506 193.585482 
L 235.527555 193.696053 
L 236.401603 193.801159 
L 237.275652 193.901054 
L 238.149701 193.995985 
" clip-path="url(#p4a81846fbe)" style="fill: none; stroke: #000000; stroke-linecap: square"/>
   </g>
   <g id="line2d_35">
    <path d="M 150.744809 131.111816 
L 151.618858 131.181624 
L 152.492907 131.276166 
L 153.366956 131.404084 
L 154.241005 131.576934 
L 155.115054 131.810087 
L 155.989103 132.123838 
L 156.863152 132.544703 
L 157.737201 133.106841 
L 158.611249 133.853398 
L 159.485298 134.837396 
L 160.359347 136.121479 
L 161.233396 137.775533 
L 162.107445 139.87085 
L 162.981494 142.469686 
L 163.855543 145.609916 
L 164.729592 149.286721 
L 165.603641 153.436381 
L 166.47769 157.929786 
L 167.351739 162.582467 
L 168.225788 167.182093 
L 169.099837 171.525768 
L 169.973885 175.453942 
L 170.847934 178.869694 
L 171.721983 181.740006 
L 172.596032 184.083463 
L 173.470081 185.952166 
L 174.34413 187.414461 
L 175.218179 188.541941 
L 176.092228 189.401398 
L 176.966277 190.050859 
L 177.840326 190.53841 
L 178.714375 190.902605 
L 179.588424 191.17365 
L 180.462472 191.374814 
L 181.336521 191.523809 
L 182.21057 191.633997 
L 183.084619 191.715394 
L 183.958668 191.775472 
L 184.832717 191.81979 
L 185.706766 191.852465 
L 186.580815 191.87655 
L 187.454864 191.894297 
L 188.328913 191.907373 
L 189.202962 191.917005 
L 190.077011 191.9241 
L 190.95106 191.929325 
L 191.825108 191.933174 
L 192.699157 191.936008 
L 193.573206 191.938096 
L 194.447255 191.939633 
L 195.321304 191.940765 
L 196.195353 191.941599 
L 197.069402 191.942212 
L 197.943451 191.942664 
L 198.8175 191.942997 
L 199.691549 191.943242 
L 200.565598 191.943423 
L 201.439647 191.943556 
L 202.313696 191.943654 
L 203.187744 191.943726 
L 204.061793 191.943779 
L 204.935842 191.943818 
L 205.809891 191.943847 
L 206.68394 191.943868 
L 207.557989 191.943884 
L 208.432038 191.943895 
L 209.306087 191.943904 
L 210.180136 191.94391 
L 211.054185 191.943914 
L 211.928234 191.943918 
L 212.802283 191.94392 
L 213.676332 191.943922 
L 214.55038 191.943923 
L 215.424429 191.943924 
L 216.298478 191.943925 
L 217.172527 191.943926 
L 218.046576 191.943926 
L 218.920625 191.943926 
L 219.794674 191.943927 
L 220.668723 191.943927 
L 221.542772 191.943927 
L 222.416821 191.943927 
L 223.29087 191.943927 
L 224.164919 191.943927 
L 225.038967 191.943927 
L 225.913016 191.943927 
L 226.787065 191.943927 
L 227.661114 191.943927 
L 228.535163 191.943927 
L 229.409212 191.943927 
L 230.283261 191.943927 
L 231.15731 191.943927 
L 232.031359 191.943927 
L 232.905408 191.943927 
L 233.779457 191.943927 
L 234.653506 191.943927 
L 235.527555 191.943927 
L 236.401603 191.943927 
L 237.275652 191.943927 
L 238.149701 191.943927 
" clip-path="url(#p4a81846fbe)" style="fill: none; stroke: #9370db; stroke-linecap: square"/>
   </g>
   <g id="line2d_36">
    <defs>
     <path id="m5cdd4bac0e" d="M 0 1.5 
C 0.397805 1.5 0.77937 1.341951 1.06066 1.06066 
C 1.341951 0.77937 1.5 0.397805 1.5 0 
C 1.5 -0.397805 1.341951 -0.77937 1.06066 -1.06066 
C 0.77937 -1.341951 0.397805 -1.5 0 -1.5 
C -0.397805 -1.5 -0.77937 -1.341951 -1.06066 -1.06066 
C -1.341951 -0.77937 -1.5 -0.397805 -1.5 0 
C -1.5 0.397805 -1.341951 0.77937 -1.06066 1.06066 
C -0.77937 1.341951 -0.397805 1.5 0 1.5 
z
" style="stroke: #000000; stroke-opacity: 0"/>
    </defs>
    <g clip-path="url(#p4a81846fbe)">
     <use xlink:href="#m5cdd4bac0e" x="151.136759" y="132.195076" style="stroke: #000000; stroke-opacity: 0"/>
     <use xlink:href="#m5cdd4bac0e" x="172.599574" y="152.283243" style="stroke: #000000; stroke-opacity: 0"/>
     <use xlink:href="#m5cdd4bac0e" x="194.447255" y="173.878023" style="stroke: #000000; stroke-opacity: 0"/>
     <use xlink:href="#m5cdd4bac0e" x="237.842752" y="197.481619" style="stroke: #000000; stroke-opacity: 0"/>
     <use xlink:href="#m5cdd4bac0e" x="151.136759" y="132.195076" style="stroke: #000000; stroke-opacity: 0"/>
     <use xlink:href="#m5cdd4bac0e" x="172.599574" y="152.283243" style="stroke: #000000; stroke-opacity: 0"/>
     <use xlink:href="#m5cdd4bac0e" x="194.426005" y="178.39786" style="stroke: #000000; stroke-opacity: 0"/>
     <use xlink:href="#m5cdd4bac0e" x="237.875808" y="190.45076" style="stroke: #000000; stroke-opacity: 0"/>
    </g>
   </g>
   <g id="line2d_37">
    <defs>
     <path id="m5155d43cfc" d="M 0 1.5 
C 0.397805 1.5 0.77937 1.341951 1.06066 1.06066 
C 1.341951 0.77937 1.5 0.397805 1.5 0 
C 1.5 -0.397805 1.341951 -0.77937 1.06066 -1.06066 
C 0.77937 -1.341951 0.397805 -1.5 0 -1.5 
C -0.397805 -1.5 -0.77937 -1.341951 -1.06066 -1.06066 
C -1.341951 -0.77937 -1.5 -0.397805 -1.5 0 
C -1.5 0.397805 -1.341951 0.77937 -1.06066 1.06066 
C -0.77937 1.341951 -0.397805 1.5 0 1.5 
z
" style="stroke: #000000; stroke-opacity: 0"/>
    </defs>
    <g clip-path="url(#p4a81846fbe)">
     <use xlink:href="#m5155d43cfc" x="150.351093" y="131.733775" style="fill: #9370db; stroke: #000000; stroke-opacity: 0"/>
     <use xlink:href="#m5155d43cfc" x="155.075682" y="125.195274" style="fill: #9370db; stroke: #000000; stroke-opacity: 0"/>
     <use xlink:href="#m5155d43cfc" x="161.375134" y="136.26043" style="fill: #9370db; stroke: #000000; stroke-opacity: 0"/>
     <use xlink:href="#m5155d43cfc" x="172.399174" y="185.04771" style="fill: #9370db; stroke: #000000; stroke-opacity: 0"/>
     <use xlink:href="#m5155d43cfc" x="194.447255" y="193.598058" style="fill: #9370db; stroke: #000000; stroke-opacity: 0"/>
     <use xlink:href="#m5155d43cfc" x="238.149701" y="190.077327" style="fill: #9370db; stroke: #000000; stroke-opacity: 0"/>
     <use xlink:href="#m5155d43cfc" x="150.351093" y="132.236737" style="fill: #9370db; stroke: #000000; stroke-opacity: 0"/>
     <use xlink:href="#m5155d43cfc" x="155.075682" y="136.26043" style="fill: #9370db; stroke: #000000; stroke-opacity: 0"/>
     <use xlink:href="#m5155d43cfc" x="161.375134" y="140.284123" style="fill: #9370db; stroke: #000000; stroke-opacity: 0"/>
     <use xlink:href="#m5155d43cfc" x="172.399174" y="182.02994" style="fill: #9370db; stroke: #000000; stroke-opacity: 0"/>
     <use xlink:href="#m5155d43cfc" x="194.447255" y="199.130636" style="fill: #9370db; stroke: #000000; stroke-opacity: 0"/>
     <use xlink:href="#m5155d43cfc" x="238.149701" y="185.04771" style="fill: #9370db; stroke: #000000; stroke-opacity: 0"/>
    </g>
   </g>
  </g>
  <g id="axes_6">
   <g id="patch_16">
    <path d="M 266.385193 204.612918 
L 362.963662 204.612918 
L 362.963662 115.689299 
L 266.385193 115.689299 
L 266.385193 204.612918 
z
" style="fill: none"/>
   </g>
   <g id="matplotlib.axis_11">
    <g id="xtick_12">
     <g id="line2d_38">
      <g>
       <use xlink:href="#m32487253a5" x="270.584257" y="206.169081" style="stroke: #000000"/>
      </g>
     </g>
     <g id="text_36">
      <!-- −70 -->
      <g transform="translate(263.197616 217.487988) scale(0.07 -0.07)">
       <use xlink:href="#DejaVuSans-2212"/>
       <use xlink:href="#DejaVuSans-37" transform="translate(83.789062 0)"/>
       <use xlink:href="#DejaVuSans-30" transform="translate(147.412109 0)"/>
      </g>
     </g>
    </g>
    <g id="xtick_13">
     <g id="line2d_39">
      <g>
       <use xlink:href="#m32487253a5" x="362.963662" y="206.169081" style="stroke: #000000"/>
      </g>
     </g>
     <g id="text_37">
      <!-- 40 -->
      <g transform="translate(358.509912 217.487988) scale(0.07 -0.07)">
       <defs>
        <path id="DejaVuSans-34" d="M 2419 4116 
L 825 1625 
L 2419 1625 
L 2419 4116 
z
M 2253 4666 
L 3047 4666 
L 3047 1625 
L 3713 1625 
L 3713 1100 
L 3047 1100 
L 3047 0 
L 2419 0 
L 2419 1100 
L 313 1100 
L 313 1709 
L 2253 4666 
z
" transform="scale(0.015625)"/>
       </defs>
       <use xlink:href="#DejaVuSans-34"/>
       <use xlink:href="#DejaVuSans-30" transform="translate(63.623047 0)"/>
      </g>
     </g>
    </g>
    <g id="text_38">
     <!-- AP Peak (mV) -->
     <g transform="translate(291.101928 219.262675) scale(0.07 -0.07)">
      <defs>
       <path id="DejaVuSans-6b" d="M 581 4863 
L 1159 4863 
L 1159 1991 
L 2875 3500 
L 3609 3500 
L 1753 1863 
L 3688 0 
L 2938 0 
L 1159 1709 
L 1159 0 
L 581 0 
L 581 4863 
z
" transform="scale(0.015625)"/>
      </defs>
      <use xlink:href="#DejaVuSans-41"/>
      <use xlink:href="#DejaVuSans-50" transform="translate(68.408203 0)"/>
      <use xlink:href="#DejaVuSans-20" transform="translate(128.710938 0)"/>
      <use xlink:href="#DejaVuSans-50" transform="translate(160.498047 0)"/>
      <use xlink:href="#DejaVuSans-65" transform="translate(217.175781 0)"/>
      <use xlink:href="#DejaVuSans-61" transform="translate(278.699219 0)"/>
      <use xlink:href="#DejaVuSans-6b" transform="translate(339.978516 0)"/>
      <use xlink:href="#DejaVuSans-20" transform="translate(397.888672 0)"/>
      <use xlink:href="#DejaVuSans-28" transform="translate(429.675781 0)"/>
      <use xlink:href="#DejaVuSans-6d" transform="translate(468.689453 0)"/>
      <use xlink:href="#DejaVuSans-56" transform="translate(566.101562 0)"/>
      <use xlink:href="#DejaVuSans-29" transform="translate(634.509766 0)"/>
     </g>
    </g>
   </g>
   <g id="matplotlib.axis_12">
    <g id="ytick_11">
     <g id="line2d_40">
      <g>
       <use xlink:href="#mfea2b302eb" x="264.768554" y="197.202617" style="stroke: #000000"/>
      </g>
     </g>
     <g id="text_39">
      <!-- 0 -->
      <g transform="translate(254.314804 199.86207) scale(0.07 -0.07)">
       <use xlink:href="#DejaVuSans-30"/>
      </g>
     </g>
    </g>
    <g id="ytick_12">
     <g id="line2d_41">
      <g>
       <use xlink:href="#mfea2b302eb" x="264.768554" y="123.0996" style="stroke: #000000"/>
      </g>
     </g>
     <g id="text_40">
      <!-- 1 -->
      <g transform="translate(254.314804 125.759054) scale(0.07 -0.07)">
       <use xlink:href="#DejaVuSans-31"/>
      </g>
     </g>
    </g>
    <g id="text_41">
     <!-- plasticity -->
     <g transform="translate(253.859022 175.998452) rotate(-90) scale(0.07 -0.07)">
      <use xlink:href="#DejaVuSans-70"/>
      <use xlink:href="#DejaVuSans-6c" transform="translate(63.476562 0)"/>
      <use xlink:href="#DejaVuSans-61" transform="translate(91.259766 0)"/>
      <use xlink:href="#DejaVuSans-73" transform="translate(152.539062 0)"/>
      <use xlink:href="#DejaVuSans-74" transform="translate(204.638672 0)"/>
      <use xlink:href="#DejaVuSans-69" transform="translate(243.847656 0)"/>
      <use xlink:href="#DejaVuSans-63" transform="translate(271.630859 0)"/>
      <use xlink:href="#DejaVuSans-69" transform="translate(326.611328 0)"/>
      <use xlink:href="#DejaVuSans-74" transform="translate(354.394531 0)"/>
      <use xlink:href="#DejaVuSans-79" transform="translate(393.603516 0)"/>
     </g>
    </g>
   </g>
   <g id="line2d_42">
    <path d="M 270.584257 197.202617 
L 282.792062 197.202617 
L 283.002541 196.992838 
L 284.265417 191.407053 
L 287.212129 176.696471 
L 289.106443 167.813782 
L 290.790279 160.880215 
L 292.895073 153.716171 
L 294.789387 148.51884 
L 297.31514 143.169798 
L 298.788495 140.663375 
L 301.103769 137.471083 
L 303.629521 134.778057 
L 307.418151 131.858752 
L 309.101986 130.929176 
L 309.733424 130.573683 
L 312.469656 129.380642 
L 313.311573 129.088658 
L 314.153491 128.799197 
L 316.258285 128.227855 
L 316.889723 128.039659 
L 320.467873 127.343958 
L 321.30979 127.252396 
L 322.572667 127.070118 
L 323.625064 126.979402 
L 324.466981 126.888968 
L 326.361296 126.798816 
L 326.992734 126.753846 
L 335.20143 126.843857 
L 336.043348 126.93415 
L 337.516703 127.024725 
L 338.5691 127.161116 
L 339.621497 127.252396 
L 340.673894 127.389845 
L 341.515812 127.48183 
L 342.989168 127.713026 
L 343.620606 127.805997 
L 345.7254 128.180701 
L 346.356838 128.275081 
L 353.723617 130.0219 
L 354.355055 130.221577 
L 354.565534 130.27167 
L 354.565534 130.27167 
" clip-path="url(#pb818a05ef5)" style="fill: none; stroke: #000000; stroke-linecap: square"/>
   </g>
   <g id="line2d_43">
    <path d="M 270.584257 197.202617 
L 326.992734 197.202617 
L 327.203213 197.074417 
L 327.834651 192.870952 
L 328.46609 186.921258 
L 329.518487 173.629827 
L 330.570884 159.040702 
L 331.412801 148.918433 
L 332.254719 140.991339 
L 333.096636 135.461968 
L 333.728074 132.35225 
L 334.569992 129.369478 
L 335.20143 127.732792 
L 336.043348 126.107926 
L 337.306224 124.55495 
L 338.358621 123.690485 
L 340.463415 122.710529 
L 342.14725 122.276472 
L 343.620606 122.025928 
L 347.409235 121.673605 
L 354.565534 121.432051 
L 354.565534 121.432051 
" clip-path="url(#pb818a05ef5)" style="fill: none; stroke: #9370db; stroke-linecap: square"/>
   </g>
   <g id="patch_17">
    <path d="M 264.768554 197.202617 
L 264.768554 123.0996 
" style="fill: none; stroke: #000000; stroke-linejoin: miter; stroke-linecap: square"/>
   </g>
   <g id="patch_18">
    <path d="M 270.584257 206.169081 
L 362.963662 206.169081 
" style="fill: none; stroke: #000000; stroke-linejoin: miter; stroke-linecap: square"/>
   </g>
  </g>
  <g id="axes_7">
   <g id="patch_19">
    <path d="M 391.336457 204.612918 
L 487.914926 204.612918 
L 487.914926 115.689299 
L 391.336457 115.689299 
L 391.336457 204.612918 
z
" style="fill: none"/>
   </g>
   <g id="line2d_44">
    <path d="M 399.384663 130.27167 
L 439.625692 128.227855 
L 479.86672 131.23657 
" clip-path="url(#p61c1aeaad4)" style="fill: none; stroke: #000000; stroke-linecap: square"/>
    <g clip-path="url(#p61c1aeaad4)">
     <use xlink:href="#m2429e84338" x="399.384663" y="130.27167" style="stroke: #000000"/>
     <use xlink:href="#m2429e84338" x="439.625692" y="128.227855" style="stroke: #000000"/>
     <use xlink:href="#m2429e84338" x="479.86672" y="131.23657" style="stroke: #000000"/>
    </g>
   </g>
   <g id="line2d_45">
    <path d="M 399.384663 123.0996 
L 439.625692 123.0996 
L 479.86672 197.202617 
" clip-path="url(#p61c1aeaad4)" style="fill: none; stroke: #9370db; stroke-linecap: square"/>
    <g clip-path="url(#p61c1aeaad4)">
     <use xlink:href="#m3ff6434375" x="399.384663" y="123.0996" style="fill: #9370db; stroke: #9370db"/>
     <use xlink:href="#m3ff6434375" x="439.625692" y="123.0996" style="fill: #9370db; stroke: #9370db"/>
     <use xlink:href="#m3ff6434375" x="479.86672" y="197.202617" style="fill: #9370db; stroke: #9370db"/>
    </g>
   </g>
   <g id="matplotlib.axis_13">
    <g id="xtick_14">
     <g id="line2d_46">
      <g>
       <use xlink:href="#m32487253a5" x="399.384663" y="206.169081" style="stroke: #000000"/>
      </g>
     </g>
     <g id="text_42">
      <!-- proximal -->
      <g transform="translate(381.671528 237.404286) rotate(-45) scale(0.07 -0.07)">
       <use xlink:href="#DejaVuSans-70"/>
       <use xlink:href="#DejaVuSans-72" transform="translate(63.476562 0)"/>
       <use xlink:href="#DejaVuSans-6f" transform="translate(102.339844 0)"/>
       <use xlink:href="#DejaVuSans-78" transform="translate(160.396484 0)"/>
       <use xlink:href="#DejaVuSans-69" transform="translate(219.576172 0)"/>
       <use xlink:href="#DejaVuSans-6d" transform="translate(247.359375 0)"/>
       <use xlink:href="#DejaVuSans-61" transform="translate(344.771484 0)"/>
       <use xlink:href="#DejaVuSans-6c" transform="translate(406.050781 0)"/>
      </g>
     </g>
    </g>
    <g id="xtick_15">
     <g id="line2d_47">
      <g>
       <use xlink:href="#m32487253a5" x="439.625692" y="206.169081" style="stroke: #000000"/>
      </g>
     </g>
     <g id="text_43">
      <!-- distal -->
      <g transform="translate(429.941975 229.374868) rotate(-45) scale(0.07 -0.07)">
       <use xlink:href="#DejaVuSans-64"/>
       <use xlink:href="#DejaVuSans-69" transform="translate(63.476562 0)"/>
       <use xlink:href="#DejaVuSans-73" transform="translate(91.259766 0)"/>
       <use xlink:href="#DejaVuSans-74" transform="translate(143.359375 0)"/>
       <use xlink:href="#DejaVuSans-61" transform="translate(182.568359 0)"/>
       <use xlink:href="#DejaVuSans-6c" transform="translate(243.847656 0)"/>
      </g>
      <!-- simple -->
      <g transform="translate(432.591327 237.810784) rotate(-45) scale(0.07 -0.07)">
       <use xlink:href="#DejaVuSans-73"/>
       <use xlink:href="#DejaVuSans-69" transform="translate(52.099609 0)"/>
       <use xlink:href="#DejaVuSans-6d" transform="translate(79.882812 0)"/>
       <use xlink:href="#DejaVuSans-70" transform="translate(177.294922 0)"/>
       <use xlink:href="#DejaVuSans-6c" transform="translate(240.771484 0)"/>
       <use xlink:href="#DejaVuSans-65" transform="translate(268.554688 0)"/>
      </g>
     </g>
    </g>
    <g id="xtick_16">
     <g id="line2d_48">
      <g>
       <use xlink:href="#m32487253a5" x="479.86672" y="206.169081" style="stroke: #000000"/>
      </g>
     </g>
     <g id="text_44">
      <!-- distal -->
      <g transform="translate(470.183003 229.374868) rotate(-45) scale(0.07 -0.07)">
       <use xlink:href="#DejaVuSans-64"/>
       <use xlink:href="#DejaVuSans-69" transform="translate(63.476562 0)"/>
       <use xlink:href="#DejaVuSans-73" transform="translate(91.259766 0)"/>
       <use xlink:href="#DejaVuSans-74" transform="translate(143.359375 0)"/>
       <use xlink:href="#DejaVuSans-61" transform="translate(182.568359 0)"/>
       <use xlink:href="#DejaVuSans-6c" transform="translate(243.847656 0)"/>
      </g>
      <!-- complex -->
      <g transform="translate(468.192741 242.450399) rotate(-45) scale(0.07 -0.07)">
       <use xlink:href="#DejaVuSans-63"/>
       <use xlink:href="#DejaVuSans-6f" transform="translate(54.980469 0)"/>
       <use xlink:href="#DejaVuSans-6d" transform="translate(116.162109 0)"/>
       <use xlink:href="#DejaVuSans-70" transform="translate(213.574219 0)"/>
       <use xlink:href="#DejaVuSans-6c" transform="translate(277.050781 0)"/>
       <use xlink:href="#DejaVuSans-65" transform="translate(304.833984 0)"/>
       <use xlink:href="#DejaVuSans-78" transform="translate(364.607422 0)"/>
      </g>
     </g>
    </g>
   </g>
   <g id="matplotlib.axis_14">
    <g id="ytick_13">
     <g id="line2d_49">
      <g>
       <use xlink:href="#mfea2b302eb" x="389.646334" y="197.202617" style="stroke: #000000"/>
      </g>
     </g>
     <g id="text_45">
      <!-- 0 -->
      <g transform="translate(379.192584 199.86207) scale(0.07 -0.07)">
       <use xlink:href="#DejaVuSans-30"/>
      </g>
     </g>
    </g>
    <g id="ytick_14">
     <g id="line2d_50">
      <g>
       <use xlink:href="#mfea2b302eb" x="389.646334" y="123.0996" style="stroke: #000000"/>
      </g>
     </g>
     <g id="text_46">
      <!-- 1 -->
      <g transform="translate(379.192584 125.759054) scale(0.07 -0.07)">
       <use xlink:href="#DejaVuSans-31"/>
      </g>
     </g>
    </g>
    <g id="text_47">
     <!-- plasticity -->
     <g transform="translate(378.736803 175.998452) rotate(-90) scale(0.07 -0.07)">
      <use xlink:href="#DejaVuSans-70"/>
      <use xlink:href="#DejaVuSans-6c" transform="translate(63.476562 0)"/>
      <use xlink:href="#DejaVuSans-61" transform="translate(91.259766 0)"/>
      <use xlink:href="#DejaVuSans-73" transform="translate(152.539062 0)"/>
      <use xlink:href="#DejaVuSans-74" transform="translate(204.638672 0)"/>
      <use xlink:href="#DejaVuSans-69" transform="translate(243.847656 0)"/>
      <use xlink:href="#DejaVuSans-63" transform="translate(271.630859 0)"/>
      <use xlink:href="#DejaVuSans-69" transform="translate(326.611328 0)"/>
      <use xlink:href="#DejaVuSans-74" transform="translate(354.394531 0)"/>
      <use xlink:href="#DejaVuSans-79" transform="translate(393.603516 0)"/>
     </g>
    </g>
   </g>
   <g id="patch_20">
    <path d="M 389.646334 197.202617 
L 389.646334 123.0996 
" style="fill: none; stroke: #000000; stroke-linejoin: miter; stroke-linecap: square"/>
   </g>
   <g id="patch_21">
    <path d="M 399.384663 206.169081 
L 479.86672 206.169081 
" style="fill: none; stroke: #000000; stroke-linejoin: miter; stroke-linecap: square"/>
   </g>
  </g>
 </g>
 <defs>
  <clipPath id="pdbc5682032">
   <rect x="25.463649" y="5.659693" width="96.578469" height="88.923619"/>
  </clipPath>
  <clipPath id="p18792619e4">
   <rect x="145.961163" y="5.659693" width="96.578469" height="88.923619"/>
  </clipPath>
  <clipPath id="pc8350131dd">
   <rect x="266.385193" y="5.659693" width="96.578469" height="88.923619"/>
  </clipPath>
  <clipPath id="pa678f00d62">
   <rect x="391.336457" y="5.659693" width="96.578469" height="88.923619"/>
  </clipPath>
  <clipPath id="p4a81846fbe">
   <rect x="145.961163" y="115.689299" width="96.578469" height="88.923619"/>
  </clipPath>
  <clipPath id="pb818a05ef5">
   <rect x="266.385193" y="115.689299" width="96.578469" height="88.923619"/>
  </clipPath>
  <clipPath id="p61c1aeaad4">
   <rect x="391.336457" y="115.689299" width="96.578469" height="88.923619"/>
  </clipPath>
 </defs>
</svg>
