<?xml version="1.0" encoding="utf-8" standalone="no"?>
<!DOCTYPE svg PUBLIC "-//W3C//DTD SVG 1.1//EN"
  "http://www.w3.org/Graphics/SVG/1.1/DTD/svg11.dtd">
<svg xmlns:xlink="http://www.w3.org/1999/xlink" width="493.2pt" height="246.48pt" viewBox="0 0 493.2 246.48" xmlns="http://www.w3.org/2000/svg" version="1.1">
 <metadata>
  <rdf:RDF xmlns:dc="http://purl.org/dc/elements/1.1/" xmlns:cc="http://creativecommons.org/ns#" xmlns:rdf="http://www.w3.org/1999/02/22-rdf-syntax-ns#">
   <cc:Work>
    <dc:type rdf:resource="http://purl.org/dc/dcmitype/StillImage"/>
    <dc:date>2026-01-15T20:37:58.386952</dc:date>
    <dc:format>image/svg+xml</dc:format>
    <dc:creator>
     <cc:Agent>
      <dc:title>Matplotlib v3.10.1, https://matplotlib.org/</dc:title>
     </cc:Agent>
    </dc:creator>
   </cc:Work>
  </rdf:RDF>
 </metadata>
 <defs>
  <style type="text/css">*{stroke-linejoin: round; stroke-linecap: butt}</style>
 </defs>
 <g id="figure_1">
  <g id="axes_1">
   <g id="patch_1">
    <path d="M 25.428942 94.583312 
L 120.024563 94.583312 
L 120.024563 5.659693 
L 25.428942 5.659693 
L 25.428942 94.583312 
z
" style="fill: none"/>
   </g>
   <g id="matplotlib.axis_1">
    <g id="xtick_1">
     <g id="line2d_1">
      <defs>
       <path id="m0157b3d126" d="M 0 0 
L 0 2.5 
" style="stroke: #000000"/>
      </defs>
      <g>
       <use xlink:href="#m0157b3d126" x="29.728743" y="96.139476" style="stroke: #000000"/>
      </g>
     </g>
     <g id="text_1">
      <!-- 0 -->
      <g transform="translate(27.501868 107.458382) scale(0.07 -0.07)">
       <defs>
        <path id="DejaVuSans-30" d="M 2034 4250 
Q 1547 4250 1301 3770 
Q 1056 3291 1056 2328 
Q 1056 1369 1301 889 
Q 1547 409 2034 409 
Q 2525 409 2770 889 
Q 3016 1369 3016 2328 
Q 3016 3291 2770 3770 
Q 2525 4250 2034 4250 
z
M 2034 4750 
Q 2819 4750 3233 4129 
Q 3647 3509 3647 2328 
Q 3647 1150 3233 529 
Q 2819 -91 2034 -91 
Q 1250 -91 836 529 
Q 422 1150 422 2328 
Q 422 3509 836 4129 
Q 1250 4750 2034 4750 
z
" transform="scale(0.015625)"/>
       </defs>
       <use xlink:href="#DejaVuSans-30"/>
      </g>
     </g>
    </g>
    <g id="xtick_2">
     <g id="line2d_2">
      <g>
       <use xlink:href="#m0157b3d126" x="115.724762" y="96.139476" style="stroke: #000000"/>
      </g>
     </g>
     <g id="text_2">
      <!-- 5 -->
      <g transform="translate(113.497887 107.458382) scale(0.07 -0.07)">
       <defs>
        <path id="DejaVuSans-35" d="M 691 4666 
L 3169 4666 
L 3169 4134 
L 1269 4134 
L 1269 2991 
Q 1406 3038 1543 3061 
Q 1681 3084 1819 3084 
Q 2600 3084 3056 2656 
Q 3513 2228 3513 1497 
Q 3513 744 3044 326 
Q 2575 -91 1722 -91 
Q 1428 -91 1123 -41 
Q 819 9 494 109 
L 494 744 
Q 775 591 1075 516 
Q 1375 441 1709 441 
Q 2250 441 2565 725 
Q 2881 1009 2881 1497 
Q 2881 1984 2565 2268 
Q 2250 2553 1709 2553 
Q 1456 2553 1204 2497 
Q 953 2441 691 2322 
L 691 4666 
z
" transform="scale(0.015625)"/>
       </defs>
       <use xlink:href="#DejaVuSans-35"/>
      </g>
     </g>
    </g>
    <g id="text_3">
     <!-- Time (ms) -->
     <g transform="translate(55.0873 108.233069) scale(0.07 -0.07)">
      <defs>
       <path id="DejaVuSans-54" d="M -19 4666 
L 3928 4666 
L 3928 4134 
L 2272 4134 
L 2272 0 
L 1638 0 
L 1638 4134 
L -19 4134 
L -19 4666 
z
" transform="scale(0.015625)"/>
       <path id="DejaVuSans-69" d="M 603 3500 
L 1178 3500 
L 1178 0 
L 603 0 
L 603 3500 
z
M 603 4863 
L 1178 4863 
L 1178 4134 
L 603 4134 
L 603 4863 
z
" transform="scale(0.015625)"/>
       <path id="DejaVuSans-6d" d="M 3328 2828 
Q 3544 3216 3844 3400 
Q 4144 3584 4550 3584 
Q 5097 3584 5394 3201 
Q 5691 2819 5691 2113 
L 5691 0 
L 5113 0 
L 5113 2094 
Q 5113 2597 4934 2840 
Q 4756 3084 4391 3084 
Q 3944 3084 3684 2787 
Q 3425 2491 3425 1978 
L 3425 0 
L 2847 0 
L 2847 2094 
Q 2847 2600 2669 2842 
Q 2491 3084 2119 3084 
Q 1678 3084 1418 2786 
Q 1159 2488 1159 1978 
L 1159 0 
L 581 0 
L 581 3500 
L 1159 3500 
L 1159 2956 
Q 1356 3278 1631 3431 
Q 1906 3584 2284 3584 
Q 2666 3584 2933 3390 
Q 3200 3197 3328 2828 
z
" transform="scale(0.015625)"/>
       <path id="DejaVuSans-65" d="M 3597 1894 
L 3597 1613 
L 953 1613 
Q 991 1019 1311 708 
Q 1631 397 2203 397 
Q 2534 397 2845 478 
Q 3156 559 3463 722 
L 3463 178 
Q 3153 47 2828 -22 
Q 2503 -91 2169 -91 
Q 1331 -91 842 396 
Q 353 884 353 1716 
Q 353 2575 817 3079 
Q 1281 3584 2069 3584 
Q 2775 3584 3186 3129 
Q 3597 2675 3597 1894 
z
M 3022 2063 
Q 3016 2534 2758 2815 
Q 2500 3097 2075 3097 
Q 1594 3097 1305 2825 
Q 1016 2553 972 2059 
L 3022 2063 
z
" transform="scale(0.015625)"/>
       <path id="DejaVuSans-20" transform="scale(0.015625)"/>
       <path id="DejaVuSans-28" d="M 1984 4856 
Q 1566 4138 1362 3434 
Q 1159 2731 1159 2009 
Q 1159 1288 1364 580 
Q 1569 -128 1984 -844 
L 1484 -844 
Q 1016 -109 783 600 
Q 550 1309 550 2009 
Q 550 2706 781 3412 
Q 1013 4119 1484 4856 
L 1984 4856 
z
" transform="scale(0.015625)"/>
       <path id="DejaVuSans-73" d="M 2834 3397 
L 2834 2853 
Q 2591 2978 2328 3040 
Q 2066 3103 1784 3103 
Q 1356 3103 1142 2972 
Q 928 2841 928 2578 
Q 928 2378 1081 2264 
Q 1234 2150 1697 2047 
L 1894 2003 
Q 2506 1872 2764 1633 
Q 3022 1394 3022 966 
Q 3022 478 2636 193 
Q 2250 -91 1575 -91 
Q 1294 -91 989 -36 
Q 684 19 347 128 
L 347 722 
Q 666 556 975 473 
Q 1284 391 1588 391 
Q 1994 391 2212 530 
Q 2431 669 2431 922 
Q 2431 1156 2273 1281 
Q 2116 1406 1581 1522 
L 1381 1569 
Q 847 1681 609 1914 
Q 372 2147 372 2553 
Q 372 3047 722 3315 
Q 1072 3584 1716 3584 
Q 2034 3584 2315 3537 
Q 2597 3491 2834 3397 
z
" transform="scale(0.015625)"/>
       <path id="DejaVuSans-29" d="M 513 4856 
L 1013 4856 
Q 1481 4119 1714 3412 
Q 1947 2706 1947 2009 
Q 1947 1309 1714 600 
Q 1481 -109 1013 -844 
L 513 -844 
Q 928 -128 1133 580 
Q 1338 1288 1338 2009 
Q 1338 2731 1133 3434 
Q 928 4138 513 4856 
z
" transform="scale(0.015625)"/>
      </defs>
      <use xlink:href="#DejaVuSans-54"/>
      <use xlink:href="#DejaVuSans-69" transform="translate(57.958984 0)"/>
      <use xlink:href="#DejaVuSans-6d" transform="translate(85.742188 0)"/>
      <use xlink:href="#DejaVuSans-65" transform="translate(183.154297 0)"/>
      <use xlink:href="#DejaVuSans-20" transform="translate(244.677734 0)"/>
      <use xlink:href="#DejaVuSans-28" transform="translate(276.464844 0)"/>
      <use xlink:href="#DejaVuSans-6d" transform="translate(315.478516 0)"/>
      <use xlink:href="#DejaVuSans-73" transform="translate(412.890625 0)"/>
      <use xlink:href="#DejaVuSans-29" transform="translate(464.990234 0)"/>
     </g>
    </g>
   </g>
   <g id="matplotlib.axis_2">
    <g id="ytick_1">
     <g id="line2d_3">
      <defs>
       <path id="me5ddc502b3" d="M 0 0 
L -2.5 0 
" style="stroke: #000000"/>
      </defs>
      <g>
       <use xlink:href="#me5ddc502b3" x="23.773519" y="90.54133" style="stroke: #000000"/>
      </g>
     </g>
     <g id="text_4">
      <!-- −70 -->
      <g transform="translate(3.000238 93.200783) scale(0.07 -0.07)">
       <defs>
        <path id="DejaVuSans-2212" d="M 678 2272 
L 4684 2272 
L 4684 1741 
L 678 1741 
L 678 2272 
z
" transform="scale(0.015625)"/>
        <path id="DejaVuSans-37" d="M 525 4666 
L 3525 4666 
L 3525 4397 
L 1831 0 
L 1172 0 
L 2766 4134 
L 525 4134 
L 525 4666 
z
" transform="scale(0.015625)"/>
       </defs>
       <use xlink:href="#DejaVuSans-2212"/>
       <use xlink:href="#DejaVuSans-37" transform="translate(83.789062 0)"/>
       <use xlink:href="#DejaVuSans-30" transform="translate(147.412109 0)"/>
      </g>
     </g>
    </g>
    <g id="ytick_2">
     <g id="line2d_4">
      <g>
       <use xlink:href="#me5ddc502b3" x="23.773519" y="9.700377" style="stroke: #000000"/>
      </g>
     </g>
     <g id="text_5">
      <!-- 30 -->
      <g transform="translate(8.866019 12.35983) scale(0.07 -0.07)">
       <defs>
        <path id="DejaVuSans-33" d="M 2597 2516 
Q 3050 2419 3304 2112 
Q 3559 1806 3559 1356 
Q 3559 666 3084 287 
Q 2609 -91 1734 -91 
Q 1441 -91 1130 -33 
Q 819 25 488 141 
L 488 750 
Q 750 597 1062 519 
Q 1375 441 1716 441 
Q 2309 441 2620 675 
Q 2931 909 2931 1356 
Q 2931 1769 2642 2001 
Q 2353 2234 1838 2234 
L 1294 2234 
L 1294 2753 
L 1863 2753 
Q 2328 2753 2575 2939 
Q 2822 3125 2822 3475 
Q 2822 3834 2567 4026 
Q 2313 4219 1838 4219 
Q 1578 4219 1281 4162 
Q 984 4106 628 3988 
L 628 4550 
Q 988 4650 1302 4700 
Q 1616 4750 1894 4750 
Q 2613 4750 3031 4423 
Q 3450 4097 3450 3541 
Q 3450 3153 3228 2886 
Q 3006 2619 2597 2516 
z
" transform="scale(0.015625)"/>
       </defs>
       <use xlink:href="#DejaVuSans-33"/>
       <use xlink:href="#DejaVuSans-30" transform="translate(63.623047 0)"/>
      </g>
     </g>
    </g>
    <g id="text_6">
     <!-- AP Voltage (mV) -->
     <g transform="translate(11.544456 78.514706) rotate(-90) scale(0.07 -0.07)">
      <defs>
       <path id="DejaVuSans-41" d="M 2188 4044 
L 1331 1722 
L 3047 1722 
L 2188 4044 
z
M 1831 4666 
L 2547 4666 
L 4325 0 
L 3669 0 
L 3244 1197 
L 1141 1197 
L 716 0 
L 50 0 
L 1831 4666 
z
" transform="scale(0.015625)"/>
       <path id="DejaVuSans-50" d="M 1259 4147 
L 1259 2394 
L 2053 2394 
Q 2494 2394 2734 2622 
Q 2975 2850 2975 3272 
Q 2975 3691 2734 3919 
Q 2494 4147 2053 4147 
L 1259 4147 
z
M 628 4666 
L 2053 4666 
Q 2838 4666 3239 4311 
Q 3641 3956 3641 3272 
Q 3641 2581 3239 2228 
Q 2838 1875 2053 1875 
L 1259 1875 
L 1259 0 
L 628 0 
L 628 4666 
z
" transform="scale(0.015625)"/>
       <path id="DejaVuSans-56" d="M 1831 0 
L 50 4666 
L 709 4666 
L 2188 738 
L 3669 4666 
L 4325 4666 
L 2547 0 
L 1831 0 
z
" transform="scale(0.015625)"/>
       <path id="DejaVuSans-6f" d="M 1959 3097 
Q 1497 3097 1228 2736 
Q 959 2375 959 1747 
Q 959 1119 1226 758 
Q 1494 397 1959 397 
Q 2419 397 2687 759 
Q 2956 1122 2956 1747 
Q 2956 2369 2687 2733 
Q 2419 3097 1959 3097 
z
M 1959 3584 
Q 2709 3584 3137 3096 
Q 3566 2609 3566 1747 
Q 3566 888 3137 398 
Q 2709 -91 1959 -91 
Q 1206 -91 779 398 
Q 353 888 353 1747 
Q 353 2609 779 3096 
Q 1206 3584 1959 3584 
z
" transform="scale(0.015625)"/>
       <path id="DejaVuSans-6c" d="M 603 4863 
L 1178 4863 
L 1178 0 
L 603 0 
L 603 4863 
z
" transform="scale(0.015625)"/>
       <path id="DejaVuSans-74" d="M 1172 4494 
L 1172 3500 
L 2356 3500 
L 2356 3053 
L 1172 3053 
L 1172 1153 
Q 1172 725 1289 603 
Q 1406 481 1766 481 
L 2356 481 
L 2356 0 
L 1766 0 
Q 1100 0 847 248 
Q 594 497 594 1153 
L 594 3053 
L 172 3053 
L 172 3500 
L 594 3500 
L 594 4494 
L 1172 4494 
z
" transform="scale(0.015625)"/>
       <path id="DejaVuSans-61" d="M 2194 1759 
Q 1497 1759 1228 1600 
Q 959 1441 959 1056 
Q 959 750 1161 570 
Q 1363 391 1709 391 
Q 2188 391 2477 730 
Q 2766 1069 2766 1631 
L 2766 1759 
L 2194 1759 
z
M 3341 1997 
L 3341 0 
L 2766 0 
L 2766 531 
Q 2569 213 2275 61 
Q 1981 -91 1556 -91 
Q 1019 -91 701 211 
Q 384 513 384 1019 
Q 384 1609 779 1909 
Q 1175 2209 1959 2209 
L 2766 2209 
L 2766 2266 
Q 2766 2663 2505 2880 
Q 2244 3097 1772 3097 
Q 1472 3097 1187 3025 
Q 903 2953 641 2809 
L 641 3341 
Q 956 3463 1253 3523 
Q 1550 3584 1831 3584 
Q 2591 3584 2966 3190 
Q 3341 2797 3341 1997 
z
" transform="scale(0.015625)"/>
       <path id="DejaVuSans-67" d="M 2906 1791 
Q 2906 2416 2648 2759 
Q 2391 3103 1925 3103 
Q 1463 3103 1205 2759 
Q 947 2416 947 1791 
Q 947 1169 1205 825 
Q 1463 481 1925 481 
Q 2391 481 2648 825 
Q 2906 1169 2906 1791 
z
M 3481 434 
Q 3481 -459 3084 -895 
Q 2688 -1331 1869 -1331 
Q 1566 -1331 1297 -1286 
Q 1028 -1241 775 -1147 
L 775 -588 
Q 1028 -725 1275 -790 
Q 1522 -856 1778 -856 
Q 2344 -856 2625 -561 
Q 2906 -266 2906 331 
L 2906 616 
Q 2728 306 2450 153 
Q 2172 0 1784 0 
Q 1141 0 747 490 
Q 353 981 353 1791 
Q 353 2603 747 3093 
Q 1141 3584 1784 3584 
Q 2172 3584 2450 3431 
Q 2728 3278 2906 2969 
L 2906 3500 
L 3481 3500 
L 3481 434 
z
" transform="scale(0.015625)"/>
      </defs>
      <use xlink:href="#DejaVuSans-41"/>
      <use xlink:href="#DejaVuSans-50" transform="translate(68.408203 0)"/>
      <use xlink:href="#DejaVuSans-20" transform="translate(128.710938 0)"/>
      <use xlink:href="#DejaVuSans-56" transform="translate(160.498047 0)"/>
      <use xlink:href="#DejaVuSans-6f" transform="translate(221.15625 0)"/>
      <use xlink:href="#DejaVuSans-6c" transform="translate(282.337891 0)"/>
      <use xlink:href="#DejaVuSans-74" transform="translate(310.121094 0)"/>
      <use xlink:href="#DejaVuSans-61" transform="translate(349.330078 0)"/>
      <use xlink:href="#DejaVuSans-67" transform="translate(410.609375 0)"/>
      <use xlink:href="#DejaVuSans-65" transform="translate(474.085938 0)"/>
      <use xlink:href="#DejaVuSans-20" transform="translate(535.609375 0)"/>
      <use xlink:href="#DejaVuSans-28" transform="translate(567.396484 0)"/>
      <use xlink:href="#DejaVuSans-6d" transform="translate(606.410156 0)"/>
      <use xlink:href="#DejaVuSans-56" transform="translate(703.822266 0)"/>
      <use xlink:href="#DejaVuSans-29" transform="translate(772.230469 0)"/>
     </g>
    </g>
   </g>
   <g id="line2d_5">
    <path d="M 29.728743 90.54133 
L 38.173242 90.54133 
L 38.345579 90.217642 
L 39.724272 66.426473 
L 40.930629 49.018142 
L 42.136986 34.79149 
L 43.171007 25.129574 
L 44.03269 18.863614 
L 44.894374 14.220959 
L 45.583721 11.675616 
L 46.100731 10.448396 
L 46.617741 9.805567 
L 46.962414 9.701676 
L 47.307088 9.857513 
L 47.651761 10.273079 
L 48.168771 11.383421 
L 48.685781 13.078152 
L 49.375128 16.246845 
L 50.064475 20.454453 
L 50.926159 27.174939 
L 51.960179 37.382286 
L 52.994199 49.927193 
L 54.200556 67.517334 
L 55.57925 90.54133 
L 115.724762 90.54133 
L 115.724762 90.54133 
" clip-path="url(#p670e085770)" style="fill: none; stroke: #000000; stroke-linecap: square"/>
   </g>
   <g id="line2d_6">
    <path d="M 29.728743 90.54133 
L 38.173242 90.54133 
L 38.345579 90.250011 
L 39.724272 68.837959 
L 40.930629 53.170461 
L 42.136986 40.366474 
L 43.171007 31.67075 
L 44.03269 26.031385 
L 44.894374 21.852996 
L 45.583721 19.562187 
L 46.100731 18.45769 
L 46.617741 17.879144 
L 46.962414 17.785641 
L 47.307088 17.925895 
L 47.651761 18.299904 
L 48.168771 19.299212 
L 48.685781 20.82447 
L 49.375128 23.676293 
L 50.064475 27.463141 
L 50.926159 33.511578 
L 51.960179 42.69819 
L 52.994199 53.988607 
L 54.200556 69.819734 
L 55.57925 90.54133 
L 115.724762 90.54133 
L 115.724762 90.54133 
" clip-path="url(#p670e085770)" style="fill: none; stroke: #008080; stroke-linecap: square"/>
   </g>
   <g id="line2d_7">
    <path d="M 29.728743 90.54133 
L 38.173242 90.54133 
L 38.345579 90.39567 
L 39.724272 79.689644 
L 40.930629 71.855895 
L 42.136986 65.453902 
L 43.171007 61.10604 
L 44.03269 58.286357 
L 44.894374 56.197163 
L 45.583721 55.051758 
L 46.273068 54.373866 
L 46.790078 54.172251 
L 47.307088 54.233612 
L 47.824098 54.557949 
L 48.341108 55.145261 
L 49.030455 56.337417 
L 49.719802 57.997084 
L 50.581485 60.729108 
L 51.443169 64.191619 
L 52.477189 69.310876 
L 53.683546 76.61283 
L 54.889903 85.34654 
L 55.57925 90.54133 
L 115.724762 90.54133 
L 115.724762 90.54133 
" clip-path="url(#p670e085770)" style="fill: none; stroke: #0000ff; stroke-linecap: square"/>
   </g>
   <g id="patch_2">
    <path d="M 23.773519 90.54133 
L 23.773519 9.700377 
" style="fill: none; stroke: #000000; stroke-linejoin: miter; stroke-linecap: square"/>
   </g>
   <g id="patch_3">
    <path d="M 29.728743 96.139476 
L 115.724762 96.139476 
" style="fill: none; stroke: #000000; stroke-linejoin: miter; stroke-linecap: square"/>
   </g>
  </g>
  <g id="axes_2">
   <g id="patch_4">
    <path d="M 143.908902 94.583312 
L 238.504523 94.583312 
L 238.504523 5.659693 
L 143.908902 5.659693 
L 143.908902 94.583312 
z
" style="fill: none"/>
   </g>
   <g id="matplotlib.axis_3">
    <g id="xtick_3">
     <g id="line2d_8">
      <g>
       <use xlink:href="#m0157b3d126" x="148.208703" y="96.139476" style="stroke: #000000"/>
      </g>
     </g>
     <g id="text_7">
      <!-- 0 -->
      <g transform="translate(145.981828 107.458382) scale(0.07 -0.07)">
       <use xlink:href="#DejaVuSans-30"/>
      </g>
     </g>
    </g>
    <g id="xtick_4">
     <g id="line2d_9">
      <g>
       <use xlink:href="#m0157b3d126" x="234.204722" y="96.139476" style="stroke: #000000"/>
      </g>
     </g>
     <g id="text_8">
      <!-- 5 -->
      <g transform="translate(231.977847 107.458382) scale(0.07 -0.07)">
       <use xlink:href="#DejaVuSans-35"/>
      </g>
     </g>
    </g>
    <g id="text_9">
     <!-- Time (ms) -->
     <g transform="translate(173.567259 108.233069) scale(0.07 -0.07)">
      <use xlink:href="#DejaVuSans-54"/>
      <use xlink:href="#DejaVuSans-69" transform="translate(57.958984 0)"/>
      <use xlink:href="#DejaVuSans-6d" transform="translate(85.742188 0)"/>
      <use xlink:href="#DejaVuSans-65" transform="translate(183.154297 0)"/>
      <use xlink:href="#DejaVuSans-20" transform="translate(244.677734 0)"/>
      <use xlink:href="#DejaVuSans-28" transform="translate(276.464844 0)"/>
      <use xlink:href="#DejaVuSans-6d" transform="translate(315.478516 0)"/>
      <use xlink:href="#DejaVuSans-73" transform="translate(412.890625 0)"/>
      <use xlink:href="#DejaVuSans-29" transform="translate(464.990234 0)"/>
     </g>
    </g>
   </g>
   <g id="matplotlib.axis_4">
    <g id="ytick_3">
     <g id="line2d_10">
      <g>
       <use xlink:href="#me5ddc502b3" x="142.253478" y="94.583312" style="stroke: #000000"/>
      </g>
     </g>
     <g id="text_10">
      <!-- 0 -->
      <g transform="translate(131.799728 97.242765) scale(0.07 -0.07)">
       <use xlink:href="#DejaVuSans-30"/>
      </g>
     </g>
    </g>
    <g id="ytick_4">
     <g id="line2d_11">
      <g>
       <use xlink:href="#me5ddc502b3" x="142.253478" y="5.659693" style="stroke: #000000"/>
      </g>
     </g>
     <g id="text_11">
      <!-- 1 -->
      <g transform="translate(131.799728 8.319146) scale(0.07 -0.07)">
       <defs>
        <path id="DejaVuSans-31" d="M 794 531 
L 1825 531 
L 1825 4091 
L 703 3866 
L 703 4441 
L 1819 4666 
L 2450 4666 
L 2450 531 
L 3481 531 
L 3481 0 
L 794 0 
L 794 531 
z
" transform="scale(0.015625)"/>
       </defs>
       <use xlink:href="#DejaVuSans-31"/>
      </g>
     </g>
    </g>
    <g id="text_12">
     <!-- NMDAR P(open) -->
     <g transform="translate(140.343947 77.908768) rotate(-90) scale(0.07 -0.07)">
      <defs>
       <path id="DejaVuSans-4e" d="M 628 4666 
L 1478 4666 
L 3547 763 
L 3547 4666 
L 4159 4666 
L 4159 0 
L 3309 0 
L 1241 3903 
L 1241 0 
L 628 0 
L 628 4666 
z
" transform="scale(0.015625)"/>
       <path id="DejaVuSans-4d" d="M 628 4666 
L 1569 4666 
L 2759 1491 
L 3956 4666 
L 4897 4666 
L 4897 0 
L 4281 0 
L 4281 4097 
L 3078 897 
L 2444 897 
L 1241 4097 
L 1241 0 
L 628 0 
L 628 4666 
z
" transform="scale(0.015625)"/>
       <path id="DejaVuSans-44" d="M 1259 4147 
L 1259 519 
L 2022 519 
Q 2988 519 3436 956 
Q 3884 1394 3884 2338 
Q 3884 3275 3436 3711 
Q 2988 4147 2022 4147 
L 1259 4147 
z
M 628 4666 
L 1925 4666 
Q 3281 4666 3915 4102 
Q 4550 3538 4550 2338 
Q 4550 1131 3912 565 
Q 3275 0 1925 0 
L 628 0 
L 628 4666 
z
" transform="scale(0.015625)"/>
       <path id="DejaVuSans-52" d="M 2841 2188 
Q 3044 2119 3236 1894 
Q 3428 1669 3622 1275 
L 4263 0 
L 3584 0 
L 2988 1197 
Q 2756 1666 2539 1819 
Q 2322 1972 1947 1972 
L 1259 1972 
L 1259 0 
L 628 0 
L 628 4666 
L 2053 4666 
Q 2853 4666 3247 4331 
Q 3641 3997 3641 3322 
Q 3641 2881 3436 2590 
Q 3231 2300 2841 2188 
z
M 1259 4147 
L 1259 2491 
L 2053 2491 
Q 2509 2491 2742 2702 
Q 2975 2913 2975 3322 
Q 2975 3731 2742 3939 
Q 2509 4147 2053 4147 
L 1259 4147 
z
" transform="scale(0.015625)"/>
       <path id="DejaVuSans-70" d="M 1159 525 
L 1159 -1331 
L 581 -1331 
L 581 3500 
L 1159 3500 
L 1159 2969 
Q 1341 3281 1617 3432 
Q 1894 3584 2278 3584 
Q 2916 3584 3314 3078 
Q 3713 2572 3713 1747 
Q 3713 922 3314 415 
Q 2916 -91 2278 -91 
Q 1894 -91 1617 61 
Q 1341 213 1159 525 
z
M 3116 1747 
Q 3116 2381 2855 2742 
Q 2594 3103 2138 3103 
Q 1681 3103 1420 2742 
Q 1159 2381 1159 1747 
Q 1159 1113 1420 752 
Q 1681 391 2138 391 
Q 2594 391 2855 752 
Q 3116 1113 3116 1747 
z
" transform="scale(0.015625)"/>
       <path id="DejaVuSans-6e" d="M 3513 2113 
L 3513 0 
L 2938 0 
L 2938 2094 
Q 2938 2591 2744 2837 
Q 2550 3084 2163 3084 
Q 1697 3084 1428 2787 
Q 1159 2491 1159 1978 
L 1159 0 
L 581 0 
L 581 3500 
L 1159 3500 
L 1159 2956 
Q 1366 3272 1645 3428 
Q 1925 3584 2291 3584 
Q 2894 3584 3203 3211 
Q 3513 2838 3513 2113 
z
" transform="scale(0.015625)"/>
      </defs>
      <use xlink:href="#DejaVuSans-4e"/>
      <use xlink:href="#DejaVuSans-4d" transform="translate(74.804688 0)"/>
      <use xlink:href="#DejaVuSans-44" transform="translate(161.083984 0)"/>
      <use xlink:href="#DejaVuSans-41" transform="translate(236.335938 0)"/>
      <use xlink:href="#DejaVuSans-52" transform="translate(304.744141 0)"/>
      <use xlink:href="#DejaVuSans-20" transform="translate(374.226562 0)"/>
      <use xlink:href="#DejaVuSans-50" transform="translate(406.013672 0)"/>
      <use xlink:href="#DejaVuSans-28" transform="translate(466.316406 0)"/>
      <use xlink:href="#DejaVuSans-6f" transform="translate(505.330078 0)"/>
      <use xlink:href="#DejaVuSans-70" transform="translate(566.511719 0)"/>
      <use xlink:href="#DejaVuSans-65" transform="translate(629.988281 0)"/>
      <use xlink:href="#DejaVuSans-6e" transform="translate(691.511719 0)"/>
      <use xlink:href="#DejaVuSans-29" transform="translate(754.890625 0)"/>
     </g>
    </g>
   </g>
   <g id="line2d_12">
    <path d="M 148.208703 91.473913 
L 156.997875 91.457081 
L 157.342549 91.002676 
L 157.859559 89.642103 
L 158.376569 87.63799 
L 159.065916 84.044581 
L 159.927599 78.187199 
L 161.133956 67.990337 
L 164.408354 38.761682 
L 165.442374 31.866682 
L 166.304058 27.396849 
L 167.165741 24.057752 
L 167.855088 22.157162 
L 168.544435 20.922155 
L 169.061445 20.446739 
L 169.406118 20.363565 
L 169.750792 20.489923 
L 170.095465 20.85552 
L 170.440139 21.502332 
L 170.957149 23.131568 
L 171.474159 25.813139 
L 171.991169 29.969515 
L 172.508179 36.177828 
L 173.025189 45.09625 
L 173.714536 61.74588 
L 174.403883 79.536385 
L 174.920893 85.964868 
L 175.437903 88.931546 
L 175.954913 90.300637 
L 176.471924 90.932458 
L 176.988934 91.224038 
L 177.850617 91.405049 
L 179.746321 91.469871 
L 201.28841 91.473913 
L 234.204722 91.473913 
L 234.204722 91.473913 
" clip-path="url(#p3d6026d5f0)" style="fill: none; stroke: #000000; stroke-linecap: square"/>
   </g>
   <g id="line2d_13">
    <path d="M 148.208703 91.473913 
L 156.997875 91.458756 
L 157.342549 91.04737 
L 157.859559 89.820492 
L 158.548906 87.319242 
L 159.238252 83.926505 
L 160.099936 78.55395 
L 161.306293 69.407153 
L 164.753027 42.101243 
L 165.787047 35.962278 
L 166.648731 31.962864 
L 167.510415 29.011508 
L 168.199761 27.421429 
L 168.716772 26.702444 
L 169.061445 26.467015 
L 169.406118 26.44576 
L 169.750792 26.662431 
L 170.095465 27.149322 
L 170.440139 27.949413 
L 170.957149 29.863738 
L 171.474159 32.870346 
L 171.991169 37.317793 
L 172.508179 43.626056 
L 173.197526 55.548004 
L 174.57622 83.9269 
L 175.09323 87.991045 
L 175.61024 89.866605 
L 176.12725 90.732157 
L 176.64426 91.131601 
L 177.333607 91.351835 
L 178.539964 91.453822 
L 183.365392 91.473899 
L 234.204722 91.473913 
L 234.204722 91.473913 
" clip-path="url(#p3d6026d5f0)" style="fill: none; stroke: #008080; stroke-linecap: square"/>
   </g>
   <g id="line2d_14">
    <path d="M 148.208703 91.473913 
L 157.170212 91.387157 
L 157.687222 90.873617 
L 158.376569 89.787922 
L 159.238252 87.993722 
L 160.444609 84.858286 
L 162.167976 79.570036 
L 164.58069 72.157634 
L 165.614711 69.591365 
L 166.476394 67.967431 
L 167.165741 67.095715 
L 167.682751 66.733667 
L 168.199761 66.652268 
L 168.716772 66.8791 
L 169.233782 67.441119 
L 169.750792 68.363228 
L 170.440139 70.18668 
L 171.129486 72.705785 
L 171.991169 76.767235 
L 174.57622 89.931914 
L 175.09323 90.762297 
L 175.61024 91.14551 
L 176.299587 91.356795 
L 177.678281 91.459018 
L 184.054739 91.473912 
L 234.204722 91.473913 
L 234.204722 91.473913 
" clip-path="url(#p3d6026d5f0)" style="fill: none; stroke: #0000ff; stroke-linecap: square"/>
   </g>
   <g id="patch_5">
    <path d="M 142.253478 94.583312 
L 142.253478 5.659693 
" style="fill: none; stroke: #000000; stroke-linejoin: miter; stroke-linecap: square"/>
   </g>
   <g id="patch_6">
    <path d="M 148.208703 96.139476 
L 234.204722 96.139476 
" style="fill: none; stroke: #000000; stroke-linejoin: miter; stroke-linecap: square"/>
   </g>
  </g>
  <g id="axes_3">
   <g id="patch_7">
    <path d="M 262.316887 94.583312 
L 356.912508 94.583312 
L 356.912508 5.659693 
L 262.316887 5.659693 
L 262.316887 94.583312 
z
" style="fill: none"/>
   </g>
   <g id="matplotlib.axis_5">
    <g id="xtick_5">
     <g id="line2d_15">
      <g>
       <use xlink:href="#m0157b3d126" x="266.616688" y="96.139476" style="stroke: #000000"/>
      </g>
     </g>
     <g id="text_13">
      <!-- 0 -->
      <g transform="translate(264.389813 107.458382) scale(0.07 -0.07)">
       <use xlink:href="#DejaVuSans-30"/>
      </g>
     </g>
    </g>
    <g id="xtick_6">
     <g id="line2d_16">
      <g>
       <use xlink:href="#m0157b3d126" x="352.612707" y="96.139476" style="stroke: #000000"/>
      </g>
     </g>
     <g id="text_14">
      <!-- 5 -->
      <g transform="translate(350.385832 107.458382) scale(0.07 -0.07)">
       <use xlink:href="#DejaVuSans-35"/>
      </g>
     </g>
    </g>
    <g id="text_15">
     <!-- Time (ms) -->
     <g transform="translate(291.975244 108.233069) scale(0.07 -0.07)">
      <use xlink:href="#DejaVuSans-54"/>
      <use xlink:href="#DejaVuSans-69" transform="translate(57.958984 0)"/>
      <use xlink:href="#DejaVuSans-6d" transform="translate(85.742188 0)"/>
      <use xlink:href="#DejaVuSans-65" transform="translate(183.154297 0)"/>
      <use xlink:href="#DejaVuSans-20" transform="translate(244.677734 0)"/>
      <use xlink:href="#DejaVuSans-28" transform="translate(276.464844 0)"/>
      <use xlink:href="#DejaVuSans-6d" transform="translate(315.478516 0)"/>
      <use xlink:href="#DejaVuSans-73" transform="translate(412.890625 0)"/>
      <use xlink:href="#DejaVuSans-29" transform="translate(464.990234 0)"/>
     </g>
    </g>
   </g>
   <g id="matplotlib.axis_6">
    <g id="ytick_5">
     <g id="line2d_17">
      <g>
       <use xlink:href="#me5ddc502b3" x="260.661463" y="94.583312" style="stroke: #000000"/>
      </g>
     </g>
     <g id="text_16">
      <!-- 0 -->
      <g transform="translate(250.207713 97.242765) scale(0.07 -0.07)">
       <use xlink:href="#DejaVuSans-30"/>
      </g>
     </g>
    </g>
    <g id="ytick_6">
     <g id="line2d_18">
      <g>
       <use xlink:href="#me5ddc502b3" x="260.661463" y="5.659693" style="stroke: #000000"/>
      </g>
     </g>
     <g id="text_17">
      <!-- 1 -->
      <g transform="translate(250.207713 8.319146) scale(0.07 -0.07)">
       <use xlink:href="#DejaVuSans-31"/>
      </g>
     </g>
    </g>
    <g id="text_18">
     <!-- VGCC P(open) -->
     <g transform="translate(258.751932 74.804706) rotate(-90) scale(0.07 -0.07)">
      <defs>
       <path id="DejaVuSans-47" d="M 3809 666 
L 3809 1919 
L 2778 1919 
L 2778 2438 
L 4434 2438 
L 4434 434 
Q 4069 175 3628 42 
Q 3188 -91 2688 -91 
Q 1594 -91 976 548 
Q 359 1188 359 2328 
Q 359 3472 976 4111 
Q 1594 4750 2688 4750 
Q 3144 4750 3555 4637 
Q 3966 4525 4313 4306 
L 4313 3634 
Q 3963 3931 3569 4081 
Q 3175 4231 2741 4231 
Q 1884 4231 1454 3753 
Q 1025 3275 1025 2328 
Q 1025 1384 1454 906 
Q 1884 428 2741 428 
Q 3075 428 3337 486 
Q 3600 544 3809 666 
z
" transform="scale(0.015625)"/>
       <path id="DejaVuSans-43" d="M 4122 4306 
L 4122 3641 
Q 3803 3938 3442 4084 
Q 3081 4231 2675 4231 
Q 1875 4231 1450 3742 
Q 1025 3253 1025 2328 
Q 1025 1406 1450 917 
Q 1875 428 2675 428 
Q 3081 428 3442 575 
Q 3803 722 4122 1019 
L 4122 359 
Q 3791 134 3420 21 
Q 3050 -91 2638 -91 
Q 1578 -91 968 557 
Q 359 1206 359 2328 
Q 359 3453 968 4101 
Q 1578 4750 2638 4750 
Q 3056 4750 3426 4639 
Q 3797 4528 4122 4306 
z
" transform="scale(0.015625)"/>
      </defs>
      <use xlink:href="#DejaVuSans-56"/>
      <use xlink:href="#DejaVuSans-47" transform="translate(68.408203 0)"/>
      <use xlink:href="#DejaVuSans-43" transform="translate(145.898438 0)"/>
      <use xlink:href="#DejaVuSans-43" transform="translate(215.722656 0)"/>
      <use xlink:href="#DejaVuSans-20" transform="translate(285.546875 0)"/>
      <use xlink:href="#DejaVuSans-50" transform="translate(317.333984 0)"/>
      <use xlink:href="#DejaVuSans-28" transform="translate(377.636719 0)"/>
      <use xlink:href="#DejaVuSans-6f" transform="translate(416.650391 0)"/>
      <use xlink:href="#DejaVuSans-70" transform="translate(477.832031 0)"/>
      <use xlink:href="#DejaVuSans-65" transform="translate(541.308594 0)"/>
      <use xlink:href="#DejaVuSans-6e" transform="translate(602.832031 0)"/>
      <use xlink:href="#DejaVuSans-29" transform="translate(666.210938 0)"/>
     </g>
    </g>
   </g>
   <g id="line2d_19">
    <path d="M 266.616688 94.583312 
L 278.507921 94.493582 
L 279.024931 94.278275 
L 279.541941 93.822894 
L 280.058951 93.041283 
L 280.575961 91.8785 
L 281.265308 89.715072 
L 282.126992 86.142768 
L 283.505685 79.230154 
L 285.401389 69.833663 
L 286.607746 65.038446 
L 287.46943 62.3839 
L 288.331113 60.406116 
L 289.02046 59.32026 
L 289.53747 58.802446 
L 290.05448 58.541007 
L 290.571491 58.514091 
L 291.260837 58.764716 
L 291.777848 59.191724 
L 292.294858 59.999527 
L 293.328878 62.729286 
L 295.052245 66.906961 
L 296.775612 70.536717 
L 298.498979 73.690417 
L 300.394683 76.683911 
L 302.290387 79.24849 
L 304.186091 81.44561 
L 306.254131 83.485045 
L 308.322172 85.207875 
L 310.562549 86.773811 
L 312.975263 88.168991 
L 315.560314 89.38845 
L 318.317701 90.434787 
L 321.419762 91.362203 
L 324.866496 92.151612 
L 328.830241 92.823344 
L 333.483332 93.379142 
L 339.170443 93.826031 
L 346.580922 94.169491 
L 352.612707 94.330252 
L 352.612707 94.330252 
" clip-path="url(#p9213f9a927)" style="fill: none; stroke: #000000; stroke-linecap: square"/>
   </g>
   <g id="line2d_20">
    <path d="M 266.616688 94.583312 
L 278.852594 94.493133 
L 279.541941 94.204111 
L 280.058951 93.746843 
L 280.575961 93.01704 
L 281.265308 91.566426 
L 281.954655 89.575653 
L 282.988675 85.769602 
L 286.780083 70.744615 
L 287.641767 68.400131 
L 288.50345 66.700064 
L 289.192797 65.842521 
L 289.709807 65.500864 
L 290.226817 65.395027 
L 290.916164 65.526427 
L 291.605511 65.92076 
L 292.122521 66.489751 
L 292.639531 67.484137 
L 294.362898 71.038196 
L 296.086265 74.126127 
L 297.981969 77.057193 
L 299.877673 79.568288 
L 301.773377 81.719588 
L 303.841417 83.716491 
L 305.909458 85.403392 
L 308.149835 86.936671 
L 310.562549 88.302755 
L 313.1476 89.496782 
L 315.904987 90.521298 
L 319.007048 91.429374 
L 322.453782 92.202319 
L 326.417527 92.860043 
L 331.070618 93.40425 
L 336.930066 93.852168 
L 344.340545 94.183772 
L 352.612707 94.379773 
L 352.612707 94.379773 
" clip-path="url(#p9213f9a927)" style="fill: none; stroke: #008080; stroke-linecap: square"/>
   </g>
   <g id="line2d_21">
    <path d="M 266.616688 94.583312 
L 283.678022 94.482602 
L 289.53747 94.156195 
L 295.569255 94.285654 
L 307.977499 94.475065 
L 331.070618 94.566812 
L 352.612707 94.580447 
L 352.612707 94.580447 
" clip-path="url(#p9213f9a927)" style="fill: none; stroke: #0000ff; stroke-linecap: square"/>
   </g>
   <g id="patch_8">
    <path d="M 260.661463 94.583312 
L 260.661463 5.659693 
" style="fill: none; stroke: #000000; stroke-linejoin: miter; stroke-linecap: square"/>
   </g>
   <g id="patch_9">
    <path d="M 266.616688 96.139476 
L 352.612707 96.139476 
" style="fill: none; stroke: #000000; stroke-linejoin: miter; stroke-linecap: square"/>
   </g>
   <g id="text_19">
    <!-- proximal -->
    <g transform="translate(322.243644 11.1482) scale(0.07 -0.07)">
     <defs>
      <path id="DejaVuSans-72" d="M 2631 2963 
Q 2534 3019 2420 3045 
Q 2306 3072 2169 3072 
Q 1681 3072 1420 2755 
Q 1159 2438 1159 1844 
L 1159 0 
L 581 0 
L 581 3500 
L 1159 3500 
L 1159 2956 
Q 1341 3275 1631 3429 
Q 1922 3584 2338 3584 
Q 2397 3584 2469 3576 
Q 2541 3569 2628 3553 
L 2631 2963 
z
" transform="scale(0.015625)"/>
      <path id="DejaVuSans-78" d="M 3513 3500 
L 2247 1797 
L 3578 0 
L 2900 0 
L 1881 1375 
L 863 0 
L 184 0 
L 1544 1831 
L 300 3500 
L 978 3500 
L 1906 2253 
L 2834 3500 
L 3513 3500 
z
" transform="scale(0.015625)"/>
     </defs>
     <use xlink:href="#DejaVuSans-70"/>
     <use xlink:href="#DejaVuSans-72" transform="translate(63.476562 0)"/>
     <use xlink:href="#DejaVuSans-6f" transform="translate(102.339844 0)"/>
     <use xlink:href="#DejaVuSans-78" transform="translate(160.396484 0)"/>
     <use xlink:href="#DejaVuSans-69" transform="translate(219.576172 0)"/>
     <use xlink:href="#DejaVuSans-6d" transform="translate(247.359375 0)"/>
     <use xlink:href="#DejaVuSans-61" transform="translate(344.771484 0)"/>
     <use xlink:href="#DejaVuSans-6c" transform="translate(406.050781 0)"/>
    </g>
   </g>
   <g id="text_20">
    <!-- distal-simple -->
    <g style="fill: #008080" transform="translate(307.968019 20.040562) scale(0.07 -0.07)">
     <defs>
      <path id="DejaVuSans-64" d="M 2906 2969 
L 2906 4863 
L 3481 4863 
L 3481 0 
L 2906 0 
L 2906 525 
Q 2725 213 2448 61 
Q 2172 -91 1784 -91 
Q 1150 -91 751 415 
Q 353 922 353 1747 
Q 353 2572 751 3078 
Q 1150 3584 1784 3584 
Q 2172 3584 2448 3432 
Q 2725 3281 2906 2969 
z
M 947 1747 
Q 947 1113 1208 752 
Q 1469 391 1925 391 
Q 2381 391 2643 752 
Q 2906 1113 2906 1747 
Q 2906 2381 2643 2742 
Q 2381 3103 1925 3103 
Q 1469 3103 1208 2742 
Q 947 2381 947 1747 
z
" transform="scale(0.015625)"/>
      <path id="DejaVuSans-2d" d="M 313 2009 
L 1997 2009 
L 1997 1497 
L 313 1497 
L 313 2009 
z
" transform="scale(0.015625)"/>
     </defs>
     <use xlink:href="#DejaVuSans-64"/>
     <use xlink:href="#DejaVuSans-69" transform="translate(63.476562 0)"/>
     <use xlink:href="#DejaVuSans-73" transform="translate(91.259766 0)"/>
     <use xlink:href="#DejaVuSans-74" transform="translate(143.359375 0)"/>
     <use xlink:href="#DejaVuSans-61" transform="translate(182.568359 0)"/>
     <use xlink:href="#DejaVuSans-6c" transform="translate(243.847656 0)"/>
     <use xlink:href="#DejaVuSans-2d" transform="translate(271.630859 0)"/>
     <use xlink:href="#DejaVuSans-73" transform="translate(307.714844 0)"/>
     <use xlink:href="#DejaVuSans-69" transform="translate(359.814453 0)"/>
     <use xlink:href="#DejaVuSans-6d" transform="translate(387.597656 0)"/>
     <use xlink:href="#DejaVuSans-70" transform="translate(485.009766 0)"/>
     <use xlink:href="#DejaVuSans-6c" transform="translate(548.486328 0)"/>
     <use xlink:href="#DejaVuSans-65" transform="translate(576.269531 0)"/>
    </g>
   </g>
   <g id="text_21">
    <!-- distal-complex -->
    <g style="fill: #0000ff" transform="translate(301.406613 28.932924) scale(0.07 -0.07)">
     <defs>
      <path id="DejaVuSans-63" d="M 3122 3366 
L 3122 2828 
Q 2878 2963 2633 3030 
Q 2388 3097 2138 3097 
Q 1578 3097 1268 2742 
Q 959 2388 959 1747 
Q 959 1106 1268 751 
Q 1578 397 2138 397 
Q 2388 397 2633 464 
Q 2878 531 3122 666 
L 3122 134 
Q 2881 22 2623 -34 
Q 2366 -91 2075 -91 
Q 1284 -91 818 406 
Q 353 903 353 1747 
Q 353 2603 823 3093 
Q 1294 3584 2113 3584 
Q 2378 3584 2631 3529 
Q 2884 3475 3122 3366 
z
" transform="scale(0.015625)"/>
     </defs>
     <use xlink:href="#DejaVuSans-64"/>
     <use xlink:href="#DejaVuSans-69" transform="translate(63.476562 0)"/>
     <use xlink:href="#DejaVuSans-73" transform="translate(91.259766 0)"/>
     <use xlink:href="#DejaVuSans-74" transform="translate(143.359375 0)"/>
     <use xlink:href="#DejaVuSans-61" transform="translate(182.568359 0)"/>
     <use xlink:href="#DejaVuSans-6c" transform="translate(243.847656 0)"/>
     <use xlink:href="#DejaVuSans-2d" transform="translate(271.630859 0)"/>
     <use xlink:href="#DejaVuSans-63" transform="translate(307.714844 0)"/>
     <use xlink:href="#DejaVuSans-6f" transform="translate(362.695312 0)"/>
     <use xlink:href="#DejaVuSans-6d" transform="translate(423.876953 0)"/>
     <use xlink:href="#DejaVuSans-70" transform="translate(521.289062 0)"/>
     <use xlink:href="#DejaVuSans-6c" transform="translate(584.765625 0)"/>
     <use xlink:href="#DejaVuSans-65" transform="translate(612.548828 0)"/>
     <use xlink:href="#DejaVuSans-78" transform="translate(672.322266 0)"/>
    </g>
   </g>
  </g>
  <g id="axes_4">
   <g id="patch_10">
    <path d="M 393.154034 94.583312 
L 487.749655 94.583312 
L 487.749655 5.659693 
L 393.154034 5.659693 
L 393.154034 94.583312 
z
" style="fill: none"/>
   </g>
   <g id="line2d_22">
    <path d="M 401.037002 20.359098 
L 440.451844 13.069995 
L 479.866687 23.372953 
" clip-path="url(#p41adf00754)" style="fill: none; stroke: #000000; stroke-linecap: square"/>
    <defs>
     <path id="mdf1812f2c5" d="M 0 1.5 
C 0.397805 1.5 0.77937 1.341951 1.06066 1.06066 
C 1.341951 0.77937 1.5 0.397805 1.5 0 
C 1.5 -0.397805 1.341951 -0.77937 1.06066 -1.06066 
C 0.77937 -1.341951 0.397805 -1.5 0 -1.5 
C -0.397805 -1.5 -0.77937 -1.341951 -1.06066 -1.06066 
C -1.341951 -0.77937 -1.5 -0.397805 -1.5 0 
C -1.5 0.397805 -1.341951 0.77937 -1.06066 1.06066 
C -0.77937 1.341951 -0.397805 1.5 0 1.5 
z
" style="stroke: #000000"/>
    </defs>
    <g clip-path="url(#p41adf00754)">
     <use xlink:href="#mdf1812f2c5" x="401.037002" y="20.359098" style="stroke: #000000"/>
     <use xlink:href="#mdf1812f2c5" x="440.451844" y="13.069995" style="stroke: #000000"/>
     <use xlink:href="#mdf1812f2c5" x="479.866687" y="23.372953" style="stroke: #000000"/>
    </g>
   </g>
   <g id="line2d_23">
    <path d="M 401.037002 13.069995 
L 440.451844 26.111151 
L 479.866687 86.187068 
" clip-path="url(#p41adf00754)" style="fill: none; stroke: #9370db; stroke-linecap: square"/>
    <defs>
     <path id="m62eec43bb4" d="M 0 1.5 
C 0.397805 1.5 0.77937 1.341951 1.06066 1.06066 
C 1.341951 0.77937 1.5 0.397805 1.5 0 
C 1.5 -0.397805 1.341951 -0.77937 1.06066 -1.06066 
C 0.77937 -1.341951 0.397805 -1.5 0 -1.5 
C -0.397805 -1.5 -0.77937 -1.341951 -1.06066 -1.06066 
C -1.341951 -0.77937 -1.5 -0.397805 -1.5 0 
C -1.5 0.397805 -1.341951 0.77937 -1.06066 1.06066 
C -0.77937 1.341951 -0.397805 1.5 0 1.5 
z
" style="stroke: #9370db"/>
    </defs>
    <g clip-path="url(#p41adf00754)">
     <use xlink:href="#m62eec43bb4" x="401.037002" y="13.069995" style="fill: #9370db; stroke: #9370db"/>
     <use xlink:href="#m62eec43bb4" x="440.451844" y="26.111151" style="fill: #9370db; stroke: #9370db"/>
     <use xlink:href="#m62eec43bb4" x="479.866687" y="86.187068" style="fill: #9370db; stroke: #9370db"/>
    </g>
   </g>
   <g id="matplotlib.axis_7">
    <g id="xtick_7">
     <g id="line2d_24">
      <g>
       <use xlink:href="#m0157b3d126" x="401.037002" y="96.139476" style="stroke: #000000"/>
      </g>
     </g>
     <g id="text_22">
      <!-- 0 -->
      <g transform="translate(398.810127 107.458382) scale(0.07 -0.07)">
       <use xlink:href="#DejaVuSans-30"/>
      </g>
     </g>
    </g>
    <g id="xtick_8">
     <g id="line2d_25">
      <g>
       <use xlink:href="#m0157b3d126" x="440.451844" y="96.139476" style="stroke: #000000"/>
      </g>
     </g>
     <g id="text_23">
      <!-- 1 -->
      <g transform="translate(438.224969 107.458382) scale(0.07 -0.07)">
       <use xlink:href="#DejaVuSans-31"/>
      </g>
     </g>
    </g>
    <g id="xtick_9">
     <g id="line2d_26">
      <g>
       <use xlink:href="#m0157b3d126" x="479.866687" y="96.139476" style="stroke: #000000"/>
      </g>
     </g>
     <g id="text_24">
      <!-- 2 -->
      <g transform="translate(477.639812 107.458382) scale(0.07 -0.07)">
       <defs>
        <path id="DejaVuSans-32" d="M 1228 531 
L 3431 531 
L 3431 0 
L 469 0 
L 469 531 
Q 828 903 1448 1529 
Q 2069 2156 2228 2338 
Q 2531 2678 2651 2914 
Q 2772 3150 2772 3378 
Q 2772 3750 2511 3984 
Q 2250 4219 1831 4219 
Q 1534 4219 1204 4116 
Q 875 4013 500 3803 
L 500 4441 
Q 881 4594 1212 4672 
Q 1544 4750 1819 4750 
Q 2544 4750 2975 4387 
Q 3406 4025 3406 3419 
Q 3406 3131 3298 2873 
Q 3191 2616 2906 2266 
Q 2828 2175 2409 1742 
Q 1991 1309 1228 531 
z
" transform="scale(0.015625)"/>
       </defs>
       <use xlink:href="#DejaVuSans-32"/>
      </g>
     </g>
    </g>
   </g>
   <g id="matplotlib.axis_8">
    <g id="ytick_7">
     <g id="line2d_27">
      <g>
       <use xlink:href="#me5ddc502b3" x="391.49861" y="87.173011" style="stroke: #000000"/>
      </g>
     </g>
     <g id="text_25">
      <!-- 0 -->
      <g transform="translate(381.04486 89.832464) scale(0.07 -0.07)">
       <use xlink:href="#DejaVuSans-30"/>
      </g>
     </g>
    </g>
    <g id="ytick_8">
     <g id="line2d_28">
      <g>
       <use xlink:href="#me5ddc502b3" x="391.49861" y="13.069995" style="stroke: #000000"/>
      </g>
     </g>
     <g id="text_26">
      <!-- 1 -->
      <g transform="translate(381.04486 15.729448) scale(0.07 -0.07)">
       <use xlink:href="#DejaVuSans-31"/>
      </g>
     </g>
    </g>
    <g id="text_27">
     <!-- [Ca] Influx -->
     <g transform="translate(374.965173 76.08869) rotate(-90) scale(0.1 -0.1)">
      <defs>
       <path id="DejaVuSans-5b" d="M 550 4863 
L 1875 4863 
L 1875 4416 
L 1125 4416 
L 1125 -397 
L 1875 -397 
L 1875 -844 
L 550 -844 
L 550 4863 
z
" transform="scale(0.015625)"/>
       <path id="DejaVuSans-5d" d="M 1947 4863 
L 1947 -844 
L 622 -844 
L 622 -397 
L 1369 -397 
L 1369 4416 
L 622 4416 
L 622 4863 
L 1947 4863 
z
" transform="scale(0.015625)"/>
       <path id="DejaVuSans-49" d="M 628 4666 
L 1259 4666 
L 1259 0 
L 628 0 
L 628 4666 
z
" transform="scale(0.015625)"/>
       <path id="DejaVuSans-66" d="M 2375 4863 
L 2375 4384 
L 1825 4384 
Q 1516 4384 1395 4259 
Q 1275 4134 1275 3809 
L 1275 3500 
L 2222 3500 
L 2222 3053 
L 1275 3053 
L 1275 0 
L 697 0 
L 697 3053 
L 147 3053 
L 147 3500 
L 697 3500 
L 697 3744 
Q 697 4328 969 4595 
Q 1241 4863 1831 4863 
L 2375 4863 
z
" transform="scale(0.015625)"/>
       <path id="DejaVuSans-75" d="M 544 1381 
L 544 3500 
L 1119 3500 
L 1119 1403 
Q 1119 906 1312 657 
Q 1506 409 1894 409 
Q 2359 409 2629 706 
Q 2900 1003 2900 1516 
L 2900 3500 
L 3475 3500 
L 3475 0 
L 2900 0 
L 2900 538 
Q 2691 219 2414 64 
Q 2138 -91 1772 -91 
Q 1169 -91 856 284 
Q 544 659 544 1381 
z
M 1991 3584 
L 1991 3584 
z
" transform="scale(0.015625)"/>
      </defs>
      <use xlink:href="#DejaVuSans-5b"/>
      <use xlink:href="#DejaVuSans-43" transform="translate(39.013672 0)"/>
      <use xlink:href="#DejaVuSans-61" transform="translate(108.837891 0)"/>
      <use xlink:href="#DejaVuSans-5d" transform="translate(170.117188 0)"/>
      <use xlink:href="#DejaVuSans-20" transform="translate(209.130859 0)"/>
      <use xlink:href="#DejaVuSans-49" transform="translate(240.917969 0)"/>
      <use xlink:href="#DejaVuSans-6e" transform="translate(270.410156 0)"/>
      <use xlink:href="#DejaVuSans-66" transform="translate(333.789062 0)"/>
      <use xlink:href="#DejaVuSans-6c" transform="translate(368.994141 0)"/>
      <use xlink:href="#DejaVuSans-75" transform="translate(396.777344 0)"/>
      <use xlink:href="#DejaVuSans-78" transform="translate(460.15625 0)"/>
     </g>
    </g>
   </g>
   <g id="patch_11">
    <path d="M 391.49861 87.173011 
L 391.49861 13.069995 
" style="fill: none; stroke: #000000; stroke-linejoin: miter; stroke-linecap: square"/>
   </g>
   <g id="patch_12">
    <path d="M 401.037002 96.139476 
L 479.866687 96.139476 
" style="fill: none; stroke: #000000; stroke-linejoin: miter; stroke-linecap: square"/>
   </g>
  </g>
  <g id="axes_5">
   <g id="patch_13">
    <path d="M 143.908902 204.612918 
L 238.504523 204.612918 
L 238.504523 115.689299 
L 143.908902 115.689299 
L 143.908902 204.612918 
z
" style="fill: none"/>
   </g>
   <g id="line2d_29">
    <path d="M 143.908902 187.93974 
L 238.504523 187.93974 
" clip-path="url(#pf1253aa1ce)" style="fill: none; stroke-dasharray: 2.59,1.12; stroke-dashoffset: 0; stroke: #000000; stroke-width: 0.7"/>
   </g>
   <g id="matplotlib.axis_9">
    <g id="xtick_10">
     <g id="line2d_30">
      <g>
       <use xlink:href="#m0157b3d126" x="148.594335" y="206.169081" style="stroke: #000000"/>
      </g>
     </g>
     <g id="text_28">
      <!-- 0 -->
      <g transform="translate(146.36746 217.487988) scale(0.07 -0.07)">
       <use xlink:href="#DejaVuSans-30"/>
      </g>
     </g>
    </g>
    <g id="xtick_11">
     <g id="line2d_31">
      <g>
       <use xlink:href="#m0157b3d126" x="234.204722" y="206.169081" style="stroke: #000000"/>
      </g>
     </g>
     <g id="text_29">
      <!-- 2 -->
      <g transform="translate(231.977847 217.487988) scale(0.07 -0.07)">
       <use xlink:href="#DejaVuSans-32"/>
      </g>
     </g>
    </g>
    <g id="text_30">
     <!-- [buffer] (mM) -->
     <g transform="translate(167.7064 219.262675) scale(0.07 -0.07)">
      <defs>
       <path id="DejaVuSans-62" d="M 3116 1747 
Q 3116 2381 2855 2742 
Q 2594 3103 2138 3103 
Q 1681 3103 1420 2742 
Q 1159 2381 1159 1747 
Q 1159 1113 1420 752 
Q 1681 391 2138 391 
Q 2594 391 2855 752 
Q 3116 1113 3116 1747 
z
M 1159 2969 
Q 1341 3281 1617 3432 
Q 1894 3584 2278 3584 
Q 2916 3584 3314 3078 
Q 3713 2572 3713 1747 
Q 3713 922 3314 415 
Q 2916 -91 2278 -91 
Q 1894 -91 1617 61 
Q 1341 213 1159 525 
L 1159 0 
L 581 0 
L 581 4863 
L 1159 4863 
L 1159 2969 
z
" transform="scale(0.015625)"/>
      </defs>
      <use xlink:href="#DejaVuSans-5b"/>
      <use xlink:href="#DejaVuSans-62" transform="translate(39.013672 0)"/>
      <use xlink:href="#DejaVuSans-75" transform="translate(102.490234 0)"/>
      <use xlink:href="#DejaVuSans-66" transform="translate(165.869141 0)"/>
      <use xlink:href="#DejaVuSans-66" transform="translate(201.074219 0)"/>
      <use xlink:href="#DejaVuSans-65" transform="translate(236.279297 0)"/>
      <use xlink:href="#DejaVuSans-72" transform="translate(297.802734 0)"/>
      <use xlink:href="#DejaVuSans-5d" transform="translate(338.916016 0)"/>
      <use xlink:href="#DejaVuSans-20" transform="translate(377.929688 0)"/>
      <use xlink:href="#DejaVuSans-28" transform="translate(409.716797 0)"/>
      <use xlink:href="#DejaVuSans-6d" transform="translate(448.730469 0)"/>
      <use xlink:href="#DejaVuSans-4d" transform="translate(546.142578 0)"/>
      <use xlink:href="#DejaVuSans-29" transform="translate(632.421875 0)"/>
     </g>
    </g>
   </g>
   <g id="matplotlib.axis_10">
    <g id="ytick_9">
     <g id="line2d_32">
      <g>
       <use xlink:href="#me5ddc502b3" x="142.253478" y="187.93974" style="stroke: #000000"/>
      </g>
     </g>
     <g id="text_31">
      <!-- 0 -->
      <g transform="translate(131.799728 190.599193) scale(0.07 -0.07)">
       <use xlink:href="#DejaVuSans-30"/>
      </g>
     </g>
    </g>
    <g id="ytick_10">
     <g id="line2d_33">
      <g>
       <use xlink:href="#me5ddc502b3" x="142.253478" y="132.362477" style="stroke: #000000"/>
      </g>
     </g>
     <g id="text_32">
      <!-- 1 -->
      <g transform="translate(131.799728 135.021931) scale(0.07 -0.07)">
       <use xlink:href="#DejaVuSans-31"/>
      </g>
     </g>
    </g>
    <g id="text_33">
     <!-- plasticity -->
     <g transform="translate(131.343947 175.998452) rotate(-90) scale(0.07 -0.07)">
      <defs>
       <path id="DejaVuSans-79" d="M 2059 -325 
Q 1816 -950 1584 -1140 
Q 1353 -1331 966 -1331 
L 506 -1331 
L 506 -850 
L 844 -850 
Q 1081 -850 1212 -737 
Q 1344 -625 1503 -206 
L 1606 56 
L 191 3500 
L 800 3500 
L 1894 763 
L 2988 3500 
L 3597 3500 
L 2059 -325 
z
" transform="scale(0.015625)"/>
      </defs>
      <use xlink:href="#DejaVuSans-70"/>
      <use xlink:href="#DejaVuSans-6c" transform="translate(63.476562 0)"/>
      <use xlink:href="#DejaVuSans-61" transform="translate(91.259766 0)"/>
      <use xlink:href="#DejaVuSans-73" transform="translate(152.539062 0)"/>
      <use xlink:href="#DejaVuSans-74" transform="translate(204.638672 0)"/>
      <use xlink:href="#DejaVuSans-69" transform="translate(243.847656 0)"/>
      <use xlink:href="#DejaVuSans-63" transform="translate(271.630859 0)"/>
      <use xlink:href="#DejaVuSans-69" transform="translate(326.611328 0)"/>
      <use xlink:href="#DejaVuSans-74" transform="translate(354.394531 0)"/>
      <use xlink:href="#DejaVuSans-79" transform="translate(393.603516 0)"/>
     </g>
    </g>
   </g>
   <g id="patch_14">
    <path d="M 142.253478 187.93974 
L 142.253478 132.362477 
" style="fill: none; stroke: #000000; stroke-linejoin: miter; stroke-linecap: square"/>
   </g>
   <g id="patch_15">
    <path d="M 148.594335 206.169081 
L 234.204722 206.169081 
" style="fill: none; stroke: #000000; stroke-linejoin: miter; stroke-linecap: square"/>
   </g>
   <g id="text_34">
    <!-- LTP ($\propto I_{NMDAR}$) -->
    <g transform="translate(174.277451 139.851766) scale(0.07 -0.07)">
     <defs>
      <path id="DejaVuSans-4c" d="M 628 4666 
L 1259 4666 
L 1259 531 
L 3531 531 
L 3531 0 
L 628 0 
L 628 4666 
z
" transform="scale(0.015625)"/>
      <path id="DejaVuSans-221d" d="M 1647 1134 
Q 2163 1134 2472 1884 
Q 2075 2703 1647 2703 
Q 1334 2703 1175 2478 
Q 1006 2238 1006 1919 
Q 1006 1569 1175 1353 
Q 1350 1134 1647 1134 
z
M 3884 1128 
L 3884 716 
L 3644 716 
Q 3416 716 3247 809 
Q 3078 894 2916 1091 
Q 2819 1203 2666 1466 
Q 2456 1091 2272 925 
Q 2044 725 1681 725 
Q 1259 725 981 1041 
Q 688 1372 688 1919 
Q 688 2444 981 2800 
Q 1241 3116 1688 3116 
Q 1916 3116 2084 3022 
Q 2281 2919 2416 2741 
Q 2541 2581 2666 2366 
Q 2875 2741 3059 2906 
Q 3288 3106 3650 3106 
L 3884 3106 
L 3884 2697 
L 3684 2697 
Q 3222 2697 2859 1947 
Q 3256 1128 3684 1128 
L 3884 1128 
z
" transform="scale(0.015625)"/>
      <path id="DejaVuSans-Oblique-49" d="M 1081 4666 
L 1716 4666 
L 806 0 
L 172 0 
L 1081 4666 
z
" transform="scale(0.015625)"/>
      <path id="DejaVuSans-Oblique-4e" d="M 1081 4666 
L 1931 4666 
L 3219 666 
L 4000 4666 
L 4616 4666 
L 3706 0 
L 2853 0 
L 1569 4025 
L 788 0 
L 172 0 
L 1081 4666 
z
" transform="scale(0.015625)"/>
      <path id="DejaVuSans-Oblique-4d" d="M 1081 4666 
L 2028 4666 
L 2572 1522 
L 4378 4666 
L 5350 4666 
L 4441 0 
L 3828 0 
L 4622 4091 
L 2791 897 
L 2175 897 
L 1581 4103 
L 788 0 
L 172 0 
L 1081 4666 
z
" transform="scale(0.015625)"/>
      <path id="DejaVuSans-Oblique-44" d="M 1081 4666 
L 2438 4666 
Q 3519 4666 4070 4208 
Q 4622 3750 4622 2847 
Q 4622 2250 4412 1698 
Q 4203 1147 3834 769 
Q 3463 381 2891 190 
Q 2319 0 1538 0 
L 172 0 
L 1081 4666 
z
M 1613 4147 
L 909 519 
L 1734 519 
Q 2794 519 3375 1128 
Q 3956 1738 3956 2847 
Q 3956 3519 3581 3833 
Q 3206 4147 2406 4147 
L 1613 4147 
z
" transform="scale(0.015625)"/>
      <path id="DejaVuSans-Oblique-41" d="M 2356 4666 
L 3072 4666 
L 3938 0 
L 3278 0 
L 3084 1197 
L 984 1197 
L 325 0 
L -341 0 
L 2356 4666 
z
M 2584 4044 
L 1275 1722 
L 2988 1722 
L 2584 4044 
z
" transform="scale(0.015625)"/>
      <path id="DejaVuSans-Oblique-52" d="M 1613 4147 
L 1294 2491 
L 2106 2491 
Q 2584 2491 2879 2755 
Q 3175 3019 3175 3444 
Q 3175 3784 2976 3965 
Q 2778 4147 2406 4147 
L 1613 4147 
z
M 2772 2241 
Q 2972 2194 3105 2009 
Q 3238 1825 3413 1275 
L 3809 0 
L 3144 0 
L 2778 1197 
Q 2638 1659 2453 1815 
Q 2269 1972 1888 1972 
L 1191 1972 
L 806 0 
L 172 0 
L 1081 4666 
L 2503 4666 
Q 3150 4666 3495 4373 
Q 3841 4081 3841 3531 
Q 3841 3044 3547 2687 
Q 3253 2331 2772 2241 
z
" transform="scale(0.015625)"/>
     </defs>
     <use xlink:href="#DejaVuSans-4c" transform="translate(0 0.125)"/>
     <use xlink:href="#DejaVuSans-54" transform="translate(55.712891 0.125)"/>
     <use xlink:href="#DejaVuSans-50" transform="translate(116.796875 0.125)"/>
     <use xlink:href="#DejaVuSans-20" transform="translate(177.099609 0.125)"/>
     <use xlink:href="#DejaVuSans-28" transform="translate(208.886719 0.125)"/>
     <use xlink:href="#DejaVuSans-221d" transform="translate(267.382812 0.125)"/>
     <use xlink:href="#DejaVuSans-Oblique-49" transform="translate(358.300781 0.125)"/>
     <use xlink:href="#DejaVuSans-Oblique-4e" transform="translate(387.792969 -16.28125) scale(0.7)"/>
     <use xlink:href="#DejaVuSans-Oblique-4d" transform="translate(440.15625 -16.28125) scale(0.7)"/>
     <use xlink:href="#DejaVuSans-Oblique-44" transform="translate(500.551758 -16.28125) scale(0.7)"/>
     <use xlink:href="#DejaVuSans-Oblique-41" transform="translate(554.453125 -16.28125) scale(0.7)"/>
     <use xlink:href="#DejaVuSans-Oblique-52" transform="translate(602.338867 -16.28125) scale(0.7)"/>
     <use xlink:href="#DejaVuSans-29" transform="translate(653.710938 0.125)"/>
    </g>
   </g>
   <g id="text_35">
    <!-- LTD ($\propto I_{VGCC}$) -->
    <g style="fill: #9370db" transform="translate(174.277451 148.188355) scale(0.07 -0.07)">
     <defs>
      <path id="DejaVuSans-Oblique-56" d="M 1319 0 
L 500 4666 
L 1119 4666 
L 1797 653 
L 4063 4666 
L 4750 4666 
L 2053 0 
L 1319 0 
z
" transform="scale(0.015625)"/>
      <path id="DejaVuSans-Oblique-47" d="M 3494 697 
L 3738 1919 
L 2700 1919 
L 2797 2438 
L 4453 2438 
L 4050 384 
Q 3634 156 3143 32 
Q 2653 -91 2156 -91 
Q 1278 -91 783 396 
Q 288 884 288 1753 
Q 288 2475 589 3126 
Q 891 3778 1422 4213 
Q 1756 4484 2153 4617 
Q 2550 4750 3034 4750 
Q 3472 4750 3873 4639 
Q 4275 4528 4641 4306 
L 4513 3634 
Q 4231 3928 3853 4083 
Q 3475 4238 3047 4238 
Q 2550 4238 2172 4048 
Q 1794 3859 1497 3463 
Q 1244 3125 1098 2667 
Q 953 2209 953 1734 
Q 953 1081 1287 751 
Q 1622 422 2284 422 
Q 2616 422 2925 492 
Q 3234 563 3494 697 
z
" transform="scale(0.015625)"/>
      <path id="DejaVuSans-Oblique-43" d="M 4447 4306 
L 4319 3641 
Q 4019 3944 3683 4091 
Q 3347 4238 2956 4238 
Q 2422 4238 2017 3981 
Q 1613 3725 1319 3200 
Q 1131 2863 1032 2486 
Q 934 2109 934 1728 
Q 934 1091 1264 756 
Q 1594 422 2222 422 
Q 2656 422 3056 561 
Q 3456 700 3834 978 
L 3688 231 
Q 3316 72 2936 -9 
Q 2556 -91 2175 -91 
Q 1278 -91 773 396 
Q 269 884 269 1753 
Q 269 2309 461 2846 
Q 653 3384 1013 3828 
Q 1394 4300 1883 4525 
Q 2372 4750 3022 4750 
Q 3422 4750 3780 4639 
Q 4138 4528 4447 4306 
z
" transform="scale(0.015625)"/>
     </defs>
     <use xlink:href="#DejaVuSans-4c" transform="translate(0 0.125)"/>
     <use xlink:href="#DejaVuSans-54" transform="translate(55.712891 0.125)"/>
     <use xlink:href="#DejaVuSans-44" transform="translate(116.796875 0.125)"/>
     <use xlink:href="#DejaVuSans-20" transform="translate(193.798828 0.125)"/>
     <use xlink:href="#DejaVuSans-28" transform="translate(225.585938 0.125)"/>
     <use xlink:href="#DejaVuSans-221d" transform="translate(284.082031 0.125)"/>
     <use xlink:href="#DejaVuSans-Oblique-49" transform="translate(375 0.125)"/>
     <use xlink:href="#DejaVuSans-Oblique-56" transform="translate(404.492188 -16.28125) scale(0.7)"/>
     <use xlink:href="#DejaVuSans-Oblique-47" transform="translate(452.37793 -16.28125) scale(0.7)"/>
     <use xlink:href="#DejaVuSans-Oblique-43" transform="translate(506.621094 -16.28125) scale(0.7)"/>
     <use xlink:href="#DejaVuSans-Oblique-43" transform="translate(555.498047 -16.28125) scale(0.7)"/>
     <use xlink:href="#DejaVuSans-29" transform="translate(607.109375 0.125)"/>
    </g>
   </g>
   <g id="line2d_34">
    <path d="M 148.594335 131.938452 
L 149.450439 132.516398 
L 150.306543 133.114923 
L 151.162647 133.73424 
L 152.018751 134.374515 
L 152.874855 135.035864 
L 153.730958 135.71835 
L 154.587062 136.421973 
L 155.443166 137.146675 
L 156.29927 137.892329 
L 157.155374 138.65874 
L 158.011478 139.445642 
L 158.867582 140.252692 
L 159.723685 141.079471 
L 160.579789 141.925482 
L 161.435893 142.790146 
L 162.291997 143.672805 
L 163.148101 144.572721 
L 164.004205 145.489075 
L 164.860309 146.420972 
L 165.716413 147.367438 
L 166.572516 148.32743 
L 167.42862 149.29983 
L 168.284724 150.283461 
L 169.140828 151.277082 
L 169.996932 152.279398 
L 170.853036 153.289069 
L 171.70914 154.30471 
L 172.565244 155.324906 
L 173.421347 156.348213 
L 174.277451 157.373172 
L 175.133555 158.398312 
L 175.989659 159.422164 
L 176.845763 160.443264 
L 177.701867 161.460163 
L 178.557971 162.471439 
L 179.414074 163.4757 
L 180.270178 164.471592 
L 181.126282 165.457809 
L 181.982386 166.433097 
L 182.83849 167.396261 
L 183.694594 168.34617 
L 184.550698 169.281761 
L 185.406802 170.202042 
L 186.262905 171.1061 
L 187.119009 171.993095 
L 187.975113 172.862271 
L 188.831217 173.712947 
L 189.687321 174.544529 
L 190.543425 175.356496 
L 191.399529 176.148412 
L 192.255633 176.919915 
L 193.111736 177.67072 
L 193.96784 178.400614 
L 194.823944 179.109454 
L 195.680048 179.797165 
L 196.536152 180.463734 
L 197.392256 181.109209 
L 198.24836 181.733691 
L 199.104463 182.337336 
L 199.960567 182.920345 
L 200.816671 183.482965 
L 201.672775 184.02548 
L 202.528879 184.548213 
L 203.384983 185.051514 
L 204.241087 185.535766 
L 205.097191 186.001374 
L 205.953294 186.448762 
L 206.809398 186.878375 
L 207.665502 187.290672 
L 208.521606 187.68612 
L 209.37771 188.065199 
L 210.233814 188.428394 
L 211.089918 188.776193 
L 211.946021 189.109086 
L 212.802125 189.427564 
L 213.658229 189.732115 
L 214.514333 190.023224 
L 215.370437 190.30137 
L 216.226541 190.567028 
L 217.082645 190.820663 
L 217.938749 191.062734 
L 218.794852 191.293689 
L 219.650956 191.513969 
L 220.50706 191.724 
L 221.363164 191.924202 
L 222.219268 192.11498 
L 223.075372 192.29673 
L 223.931476 192.469835 
L 224.78758 192.634667 
L 225.643683 192.791583 
L 226.499787 192.940932 
L 227.355891 193.083048 
L 228.211995 193.218256 
L 229.068099 193.346866 
L 229.924203 193.469179 
L 230.780307 193.585482 
L 231.63641 193.696053 
L 232.492514 193.801159 
L 233.348618 193.901054 
L 234.204722 193.995985 
" clip-path="url(#pf1253aa1ce)" style="fill: none; stroke: #000000; stroke-linecap: square"/>
   </g>
   <g id="line2d_35">
    <path d="M 148.594335 131.111816 
L 149.450439 131.181624 
L 150.306543 131.276166 
L 151.162647 131.404084 
L 152.018751 131.576934 
L 152.874855 131.810087 
L 153.730958 132.123838 
L 154.587062 132.544703 
L 155.443166 133.106841 
L 156.29927 133.853398 
L 157.155374 134.837396 
L 158.011478 136.121479 
L 158.867582 137.775533 
L 159.723685 139.87085 
L 160.579789 142.469686 
L 161.435893 145.609916 
L 162.291997 149.286721 
L 163.148101 153.436381 
L 164.004205 157.929786 
L 164.860309 162.582467 
L 165.716413 167.182093 
L 166.572516 171.525768 
L 167.42862 175.453942 
L 168.284724 178.869694 
L 169.140828 181.740006 
L 169.996932 184.083463 
L 170.853036 185.952166 
L 171.70914 187.414461 
L 172.565244 188.541941 
L 173.421347 189.401398 
L 174.277451 190.050859 
L 175.133555 190.53841 
L 175.989659 190.902605 
L 176.845763 191.17365 
L 177.701867 191.374814 
L 178.557971 191.523809 
L 179.414074 191.633997 
L 180.270178 191.715394 
L 181.126282 191.775472 
L 181.982386 191.81979 
L 182.83849 191.852465 
L 183.694594 191.87655 
L 184.550698 191.894297 
L 185.406802 191.907373 
L 186.262905 191.917005 
L 187.119009 191.9241 
L 187.975113 191.929325 
L 188.831217 191.933174 
L 189.687321 191.936008 
L 190.543425 191.938096 
L 191.399529 191.939633 
L 192.255633 191.940765 
L 193.111736 191.941599 
L 193.96784 191.942212 
L 194.823944 191.942664 
L 195.680048 191.942997 
L 196.536152 191.943242 
L 197.392256 191.943423 
L 198.24836 191.943556 
L 199.104463 191.943654 
L 199.960567 191.943726 
L 200.816671 191.943779 
L 201.672775 191.943818 
L 202.528879 191.943847 
L 203.384983 191.943868 
L 204.241087 191.943884 
L 205.097191 191.943895 
L 205.953294 191.943904 
L 206.809398 191.94391 
L 207.665502 191.943914 
L 208.521606 191.943918 
L 209.37771 191.94392 
L 210.233814 191.943922 
L 211.089918 191.943923 
L 211.946021 191.943924 
L 212.802125 191.943925 
L 213.658229 191.943926 
L 214.514333 191.943926 
L 215.370437 191.943926 
L 216.226541 191.943927 
L 217.082645 191.943927 
L 217.938749 191.943927 
L 218.794852 191.943927 
L 219.650956 191.943927 
L 220.50706 191.943927 
L 221.363164 191.943927 
L 222.219268 191.943927 
L 223.075372 191.943927 
L 223.931476 191.943927 
L 224.78758 191.943927 
L 225.643683 191.943927 
L 226.499787 191.943927 
L 227.355891 191.943927 
L 228.211995 191.943927 
L 229.068099 191.943927 
L 229.924203 191.943927 
L 230.780307 191.943927 
L 231.63641 191.943927 
L 232.492514 191.943927 
L 233.348618 191.943927 
L 234.204722 191.943927 
" clip-path="url(#pf1253aa1ce)" style="fill: none; stroke: #9370db; stroke-linecap: square"/>
   </g>
   <g id="line2d_36">
    <defs>
     <path id="m5c6ea697ee" d="M 0 1.5 
C 0.397805 1.5 0.77937 1.341951 1.06066 1.06066 
C 1.341951 0.77937 1.5 0.397805 1.5 0 
C 1.5 -0.397805 1.341951 -0.77937 1.06066 -1.06066 
C 0.77937 -1.341951 0.397805 -1.5 0 -1.5 
C -0.397805 -1.5 -0.77937 -1.341951 -1.06066 -1.06066 
C -1.341951 -0.77937 -1.5 -0.397805 -1.5 0 
C -1.5 0.397805 -1.341951 0.77937 -1.06066 1.06066 
C -0.77937 1.341951 -0.397805 1.5 0 1.5 
z
" style="stroke: #000000; stroke-opacity: 0"/>
    </defs>
    <g clip-path="url(#pf1253aa1ce)">
     <use xlink:href="#m5c6ea697ee" x="148.978238" y="132.195076" style="stroke: #000000; stroke-opacity: 0"/>
     <use xlink:href="#m5c6ea697ee" x="170.000401" y="152.283243" style="stroke: #000000; stroke-opacity: 0"/>
     <use xlink:href="#m5c6ea697ee" x="191.399529" y="173.878023" style="stroke: #000000; stroke-opacity: 0"/>
     <use xlink:href="#m5c6ea697ee" x="233.904075" y="197.481619" style="stroke: #000000; stroke-opacity: 0"/>
     <use xlink:href="#m5c6ea697ee" x="148.978238" y="132.195076" style="stroke: #000000; stroke-opacity: 0"/>
     <use xlink:href="#m5c6ea697ee" x="170.000401" y="152.283243" style="stroke: #000000; stroke-opacity: 0"/>
     <use xlink:href="#m5c6ea697ee" x="191.378715" y="178.39786" style="stroke: #000000; stroke-opacity: 0"/>
     <use xlink:href="#m5c6ea697ee" x="233.936452" y="190.45076" style="stroke: #000000; stroke-opacity: 0"/>
    </g>
   </g>
   <g id="line2d_37">
    <defs>
     <path id="m90f793a5f4" d="M 0 1.5 
C 0.397805 1.5 0.77937 1.341951 1.06066 1.06066 
C 1.341951 0.77937 1.5 0.397805 1.5 0 
C 1.5 -0.397805 1.341951 -0.77937 1.06066 -1.06066 
C 0.77937 -1.341951 0.397805 -1.5 0 -1.5 
C -0.397805 -1.5 -0.77937 -1.341951 -1.06066 -1.06066 
C -1.341951 -0.77937 -1.5 -0.397805 -1.5 0 
C -1.5 0.397805 -1.341951 0.77937 -1.06066 1.06066 
C -0.77937 1.341951 -0.397805 1.5 0 1.5 
z
" style="stroke: #000000; stroke-opacity: 0"/>
    </defs>
    <g clip-path="url(#pf1253aa1ce)">
     <use xlink:href="#m90f793a5f4" x="148.208703" y="131.733775" style="fill: #9370db; stroke: #000000; stroke-opacity: 0"/>
     <use xlink:href="#m90f793a5f4" x="152.836291" y="125.195274" style="fill: #9370db; stroke: #000000; stroke-opacity: 0"/>
     <use xlink:href="#m90f793a5f4" x="159.006409" y="136.26043" style="fill: #9370db; stroke: #000000; stroke-opacity: 0"/>
     <use xlink:href="#m90f793a5f4" x="169.804116" y="185.04771" style="fill: #9370db; stroke: #000000; stroke-opacity: 0"/>
     <use xlink:href="#m90f793a5f4" x="191.399529" y="193.598058" style="fill: #9370db; stroke: #000000; stroke-opacity: 0"/>
     <use xlink:href="#m90f793a5f4" x="234.204722" y="190.077327" style="fill: #9370db; stroke: #000000; stroke-opacity: 0"/>
     <use xlink:href="#m90f793a5f4" x="148.208703" y="132.236737" style="fill: #9370db; stroke: #000000; stroke-opacity: 0"/>
     <use xlink:href="#m90f793a5f4" x="152.836291" y="136.26043" style="fill: #9370db; stroke: #000000; stroke-opacity: 0"/>
     <use xlink:href="#m90f793a5f4" x="159.006409" y="140.284123" style="fill: #9370db; stroke: #000000; stroke-opacity: 0"/>
     <use xlink:href="#m90f793a5f4" x="169.804116" y="182.02994" style="fill: #9370db; stroke: #000000; stroke-opacity: 0"/>
     <use xlink:href="#m90f793a5f4" x="191.399529" y="199.130636" style="fill: #9370db; stroke: #000000; stroke-opacity: 0"/>
     <use xlink:href="#m90f793a5f4" x="234.204722" y="185.04771" style="fill: #9370db; stroke: #000000; stroke-opacity: 0"/>
    </g>
   </g>
  </g>
  <g id="axes_6">
   <g id="patch_16">
    <path d="M 262.316887 204.612918 
L 356.912508 204.612918 
L 356.912508 115.689299 
L 262.316887 115.689299 
L 262.316887 204.612918 
z
" style="fill: none"/>
   </g>
   <g id="matplotlib.axis_11">
    <g id="xtick_12">
     <g id="line2d_38">
      <g>
       <use xlink:href="#m0157b3d126" x="266.42974" y="206.169081" style="stroke: #000000"/>
      </g>
     </g>
     <g id="text_36">
      <!-- −70 -->
      <g transform="translate(259.043099 217.487988) scale(0.07 -0.07)">
       <use xlink:href="#DejaVuSans-2212"/>
       <use xlink:href="#DejaVuSans-37" transform="translate(83.789062 0)"/>
       <use xlink:href="#DejaVuSans-30" transform="translate(147.412109 0)"/>
      </g>
     </g>
    </g>
    <g id="xtick_13">
     <g id="line2d_39">
      <g>
       <use xlink:href="#m0157b3d126" x="356.912508" y="206.169081" style="stroke: #000000"/>
      </g>
     </g>
     <g id="text_37">
      <!-- 40 -->
      <g transform="translate(352.458758 217.487988) scale(0.07 -0.07)">
       <defs>
        <path id="DejaVuSans-34" d="M 2419 4116 
L 825 1625 
L 2419 1625 
L 2419 4116 
z
M 2253 4666 
L 3047 4666 
L 3047 1625 
L 3713 1625 
L 3713 1100 
L 3047 1100 
L 3047 0 
L 2419 0 
L 2419 1100 
L 313 1100 
L 313 1709 
L 2253 4666 
z
" transform="scale(0.015625)"/>
       </defs>
       <use xlink:href="#DejaVuSans-34"/>
       <use xlink:href="#DejaVuSans-30" transform="translate(63.623047 0)"/>
      </g>
     </g>
    </g>
    <g id="text_38">
     <!-- AP Peak (mV) -->
     <g transform="translate(286.042197 219.262675) scale(0.07 -0.07)">
      <defs>
       <path id="DejaVuSans-6b" d="M 581 4863 
L 1159 4863 
L 1159 1991 
L 2875 3500 
L 3609 3500 
L 1753 1863 
L 3688 0 
L 2938 0 
L 1159 1709 
L 1159 0 
L 581 0 
L 581 4863 
z
" transform="scale(0.015625)"/>
      </defs>
      <use xlink:href="#DejaVuSans-41"/>
      <use xlink:href="#DejaVuSans-50" transform="translate(68.408203 0)"/>
      <use xlink:href="#DejaVuSans-20" transform="translate(128.710938 0)"/>
      <use xlink:href="#DejaVuSans-50" transform="translate(160.498047 0)"/>
      <use xlink:href="#DejaVuSans-65" transform="translate(217.175781 0)"/>
      <use xlink:href="#DejaVuSans-61" transform="translate(278.699219 0)"/>
      <use xlink:href="#DejaVuSans-6b" transform="translate(339.978516 0)"/>
      <use xlink:href="#DejaVuSans-20" transform="translate(397.888672 0)"/>
      <use xlink:href="#DejaVuSans-28" transform="translate(429.675781 0)"/>
      <use xlink:href="#DejaVuSans-6d" transform="translate(468.689453 0)"/>
      <use xlink:href="#DejaVuSans-56" transform="translate(566.101562 0)"/>
      <use xlink:href="#DejaVuSans-29" transform="translate(634.509766 0)"/>
     </g>
    </g>
   </g>
   <g id="matplotlib.axis_12">
    <g id="ytick_11">
     <g id="line2d_40">
      <g>
       <use xlink:href="#me5ddc502b3" x="260.733438" y="197.202617" style="stroke: #000000"/>
      </g>
     </g>
     <g id="text_39">
      <!-- 0 -->
      <g transform="translate(250.279688 199.86207) scale(0.07 -0.07)">
       <use xlink:href="#DejaVuSans-30"/>
      </g>
     </g>
    </g>
    <g id="ytick_12">
     <g id="line2d_41">
      <g>
       <use xlink:href="#me5ddc502b3" x="260.733438" y="123.0996" style="stroke: #000000"/>
      </g>
     </g>
     <g id="text_40">
      <!-- 1 -->
      <g transform="translate(250.279688 125.759054) scale(0.07 -0.07)">
       <use xlink:href="#DejaVuSans-31"/>
      </g>
     </g>
    </g>
    <g id="text_41">
     <!-- plasticity -->
     <g transform="translate(249.823907 175.998452) rotate(-90) scale(0.07 -0.07)">
      <use xlink:href="#DejaVuSans-70"/>
      <use xlink:href="#DejaVuSans-6c" transform="translate(63.476562 0)"/>
      <use xlink:href="#DejaVuSans-61" transform="translate(91.259766 0)"/>
      <use xlink:href="#DejaVuSans-73" transform="translate(152.539062 0)"/>
      <use xlink:href="#DejaVuSans-74" transform="translate(204.638672 0)"/>
      <use xlink:href="#DejaVuSans-69" transform="translate(243.847656 0)"/>
      <use xlink:href="#DejaVuSans-63" transform="translate(271.630859 0)"/>
      <use xlink:href="#DejaVuSans-69" transform="translate(326.611328 0)"/>
      <use xlink:href="#DejaVuSans-74" transform="translate(354.394531 0)"/>
      <use xlink:href="#DejaVuSans-79" transform="translate(393.603516 0)"/>
     </g>
    </g>
   </g>
   <g id="line2d_42">
    <path d="M 266.42974 197.202617 
L 278.386907 197.202617 
L 278.593065 196.992838 
L 279.830013 191.407053 
L 282.716226 176.696471 
L 284.571648 167.813782 
L 286.220913 160.880215 
L 288.282493 153.716171 
L 290.137916 148.51884 
L 292.611812 143.169798 
L 294.261077 140.355672 
L 294.879551 139.379924 
L 295.498025 138.537635 
L 296.528815 137.236644 
L 297.353447 136.250996 
L 298.796554 134.778057 
L 302.507399 131.858752 
L 304.156663 130.929176 
L 304.775137 130.573683 
L 307.455192 129.380642 
L 308.279824 129.088658 
L 309.104456 128.799197 
L 311.166037 128.227855 
L 311.784511 128.039659 
L 315.289198 127.343958 
L 316.11383 127.252396 
L 317.350778 127.070118 
L 318.381568 126.979402 
L 319.206201 126.888968 
L 321.061623 126.798816 
L 321.680097 126.753846 
L 329.720261 126.843857 
L 330.544893 126.93415 
L 331.988 127.024725 
L 333.01879 127.161116 
L 334.04958 127.252396 
L 335.08037 127.389845 
L 335.905003 127.48183 
L 337.348109 127.713026 
L 337.966583 127.805997 
L 340.028164 128.180701 
L 340.646638 128.275081 
L 347.862169 130.0219 
L 348.480644 130.221577 
L 348.686802 130.27167 
L 348.686802 130.27167 
" clip-path="url(#pf09d070885)" style="fill: none; stroke: #000000; stroke-linecap: square"/>
   </g>
   <g id="line2d_43">
    <path d="M 266.42974 197.202617 
L 321.680097 197.202617 
L 321.886255 197.074417 
L 322.504729 192.870952 
L 323.123204 186.921258 
L 324.153994 173.629827 
L 325.184784 159.040702 
L 326.009416 148.918433 
L 326.834048 140.991339 
L 327.658681 135.461968 
L 328.277155 132.35225 
L 329.101787 129.369478 
L 329.720261 127.732792 
L 330.544893 126.107926 
L 331.781842 124.55495 
L 332.812632 123.690485 
L 334.874212 122.710529 
L 336.523477 122.276472 
L 337.966583 122.025928 
L 341.677428 121.673605 
L 348.686802 121.432051 
L 348.686802 121.432051 
" clip-path="url(#pf09d070885)" style="fill: none; stroke: #9370db; stroke-linecap: square"/>
   </g>
   <g id="patch_17">
    <path d="M 260.733438 197.202617 
L 260.733438 123.0996 
" style="fill: none; stroke: #000000; stroke-linejoin: miter; stroke-linecap: square"/>
   </g>
   <g id="patch_18">
    <path d="M 266.42974 206.169081 
L 356.912508 206.169081 
" style="fill: none; stroke: #000000; stroke-linejoin: miter; stroke-linecap: square"/>
   </g>
  </g>
  <g id="axes_7">
   <g id="patch_19">
    <path d="M 393.154034 204.612918 
L 487.749655 204.612918 
L 487.749655 115.689299 
L 393.154034 115.689299 
L 393.154034 204.612918 
z
" style="fill: none"/>
   </g>
   <g id="line2d_44">
    <path d="M 401.037002 130.27167 
L 440.451844 128.227855 
L 479.866687 131.23657 
" clip-path="url(#p9c126b6029)" style="fill: none; stroke: #000000; stroke-linecap: square"/>
    <g clip-path="url(#p9c126b6029)">
     <use xlink:href="#mdf1812f2c5" x="401.037002" y="130.27167" style="stroke: #000000"/>
     <use xlink:href="#mdf1812f2c5" x="440.451844" y="128.227855" style="stroke: #000000"/>
     <use xlink:href="#mdf1812f2c5" x="479.866687" y="131.23657" style="stroke: #000000"/>
    </g>
   </g>
   <g id="line2d_45">
    <path d="M 401.037002 123.0996 
L 440.451844 123.0996 
L 479.866687 197.202617 
" clip-path="url(#p9c126b6029)" style="fill: none; stroke: #9370db; stroke-linecap: square"/>
    <g clip-path="url(#p9c126b6029)">
     <use xlink:href="#m62eec43bb4" x="401.037002" y="123.0996" style="fill: #9370db; stroke: #9370db"/>
     <use xlink:href="#m62eec43bb4" x="440.451844" y="123.0996" style="fill: #9370db; stroke: #9370db"/>
     <use xlink:href="#m62eec43bb4" x="479.866687" y="197.202617" style="fill: #9370db; stroke: #9370db"/>
    </g>
   </g>
   <g id="matplotlib.axis_13">
    <g id="xtick_14">
     <g id="line2d_46">
      <g>
       <use xlink:href="#m0157b3d126" x="401.037002" y="206.169081" style="stroke: #000000"/>
      </g>
     </g>
     <g id="text_42">
      <!-- proximal -->
      <g transform="translate(383.323867 237.404286) rotate(-45) scale(0.07 -0.07)">
       <use xlink:href="#DejaVuSans-70"/>
       <use xlink:href="#DejaVuSans-72" transform="translate(63.476562 0)"/>
       <use xlink:href="#DejaVuSans-6f" transform="translate(102.339844 0)"/>
       <use xlink:href="#DejaVuSans-78" transform="translate(160.396484 0)"/>
       <use xlink:href="#DejaVuSans-69" transform="translate(219.576172 0)"/>
       <use xlink:href="#DejaVuSans-6d" transform="translate(247.359375 0)"/>
       <use xlink:href="#DejaVuSans-61" transform="translate(344.771484 0)"/>
       <use xlink:href="#DejaVuSans-6c" transform="translate(406.050781 0)"/>
      </g>
     </g>
    </g>
    <g id="xtick_15">
     <g id="line2d_47">
      <g>
       <use xlink:href="#m0157b3d126" x="440.451844" y="206.169081" style="stroke: #000000"/>
      </g>
     </g>
     <g id="text_43">
      <!-- distal -->
      <g transform="translate(430.768128 229.374868) rotate(-45) scale(0.07 -0.07)">
       <use xlink:href="#DejaVuSans-64"/>
       <use xlink:href="#DejaVuSans-69" transform="translate(63.476562 0)"/>
       <use xlink:href="#DejaVuSans-73" transform="translate(91.259766 0)"/>
       <use xlink:href="#DejaVuSans-74" transform="translate(143.359375 0)"/>
       <use xlink:href="#DejaVuSans-61" transform="translate(182.568359 0)"/>
       <use xlink:href="#DejaVuSans-6c" transform="translate(243.847656 0)"/>
      </g>
      <!-- simple -->
      <g transform="translate(433.41748 237.810784) rotate(-45) scale(0.07 -0.07)">
       <use xlink:href="#DejaVuSans-73"/>
       <use xlink:href="#DejaVuSans-69" transform="translate(52.099609 0)"/>
       <use xlink:href="#DejaVuSans-6d" transform="translate(79.882812 0)"/>
       <use xlink:href="#DejaVuSans-70" transform="translate(177.294922 0)"/>
       <use xlink:href="#DejaVuSans-6c" transform="translate(240.771484 0)"/>
       <use xlink:href="#DejaVuSans-65" transform="translate(268.554688 0)"/>
      </g>
     </g>
    </g>
    <g id="xtick_16">
     <g id="line2d_48">
      <g>
       <use xlink:href="#m0157b3d126" x="479.866687" y="206.169081" style="stroke: #000000"/>
      </g>
     </g>
     <g id="text_44">
      <!-- distal -->
      <g transform="translate(470.18297 229.374868) rotate(-45) scale(0.07 -0.07)">
       <use xlink:href="#DejaVuSans-64"/>
       <use xlink:href="#DejaVuSans-69" transform="translate(63.476562 0)"/>
       <use xlink:href="#DejaVuSans-73" transform="translate(91.259766 0)"/>
       <use xlink:href="#DejaVuSans-74" transform="translate(143.359375 0)"/>
       <use xlink:href="#DejaVuSans-61" transform="translate(182.568359 0)"/>
       <use xlink:href="#DejaVuSans-6c" transform="translate(243.847656 0)"/>
      </g>
      <!-- complex -->
      <g transform="translate(468.192707 242.450399) rotate(-45) scale(0.07 -0.07)">
       <use xlink:href="#DejaVuSans-63"/>
       <use xlink:href="#DejaVuSans-6f" transform="translate(54.980469 0)"/>
       <use xlink:href="#DejaVuSans-6d" transform="translate(116.162109 0)"/>
       <use xlink:href="#DejaVuSans-70" transform="translate(213.574219 0)"/>
       <use xlink:href="#DejaVuSans-6c" transform="translate(277.050781 0)"/>
       <use xlink:href="#DejaVuSans-65" transform="translate(304.833984 0)"/>
       <use xlink:href="#DejaVuSans-78" transform="translate(364.607422 0)"/>
      </g>
     </g>
    </g>
   </g>
   <g id="matplotlib.axis_14">
    <g id="ytick_13">
     <g id="line2d_49">
      <g>
       <use xlink:href="#me5ddc502b3" x="391.49861" y="197.202617" style="stroke: #000000"/>
      </g>
     </g>
     <g id="text_45">
      <!-- 0 -->
      <g transform="translate(381.04486 199.86207) scale(0.07 -0.07)">
       <use xlink:href="#DejaVuSans-30"/>
      </g>
     </g>
    </g>
    <g id="ytick_14">
     <g id="line2d_50">
      <g>
       <use xlink:href="#me5ddc502b3" x="391.49861" y="123.0996" style="stroke: #000000"/>
      </g>
     </g>
     <g id="text_46">
      <!-- 1 -->
      <g transform="translate(381.04486 125.759054) scale(0.07 -0.07)">
       <use xlink:href="#DejaVuSans-31"/>
      </g>
     </g>
    </g>
    <g id="text_47">
     <!-- plasticity -->
     <g transform="translate(380.589079 175.998452) rotate(-90) scale(0.07 -0.07)">
      <use xlink:href="#DejaVuSans-70"/>
      <use xlink:href="#DejaVuSans-6c" transform="translate(63.476562 0)"/>
      <use xlink:href="#DejaVuSans-61" transform="translate(91.259766 0)"/>
      <use xlink:href="#DejaVuSans-73" transform="translate(152.539062 0)"/>
      <use xlink:href="#DejaVuSans-74" transform="translate(204.638672 0)"/>
      <use xlink:href="#DejaVuSans-69" transform="translate(243.847656 0)"/>
      <use xlink:href="#DejaVuSans-63" transform="translate(271.630859 0)"/>
      <use xlink:href="#DejaVuSans-69" transform="translate(326.611328 0)"/>
      <use xlink:href="#DejaVuSans-74" transform="translate(354.394531 0)"/>
      <use xlink:href="#DejaVuSans-79" transform="translate(393.603516 0)"/>
     </g>
    </g>
   </g>
   <g id="patch_20">
    <path d="M 391.49861 197.202617 
L 391.49861 123.0996 
" style="fill: none; stroke: #000000; stroke-linejoin: miter; stroke-linecap: square"/>
   </g>
   <g id="patch_21">
    <path d="M 401.037002 206.169081 
L 479.866687 206.169081 
" style="fill: none; stroke: #000000; stroke-linejoin: miter; stroke-linecap: square"/>
   </g>
  </g>
 </g>
 <defs>
  <clipPath id="p670e085770">
   <rect x="25.428942" y="5.659693" width="94.595621" height="88.923619"/>
  </clipPath>
  <clipPath id="p3d6026d5f0">
   <rect x="143.908902" y="5.659693" width="94.595621" height="88.923619"/>
  </clipPath>
  <clipPath id="p9213f9a927">
   <rect x="262.316887" y="5.659693" width="94.595621" height="88.923619"/>
  </clipPath>
  <clipPath id="p41adf00754">
   <rect x="393.154034" y="5.659693" width="94.595621" height="88.923619"/>
  </clipPath>
  <clipPath id="pf1253aa1ce">
   <rect x="143.908902" y="115.689299" width="94.595621" height="88.923619"/>
  </clipPath>
  <clipPath id="pf09d070885">
   <rect x="262.316887" y="115.689299" width="94.595621" height="88.923619"/>
  </clipPath>
  <clipPath id="p9c126b6029">
   <rect x="393.154034" y="115.689299" width="94.595621" height="88.923619"/>
  </clipPath>
 </defs>
</svg>
