<?xml version="1.0" encoding="utf-8" standalone="no"?>
<!DOCTYPE svg PUBLIC "-//W3C//DTD SVG 1.1//EN"
  "http://www.w3.org/Graphics/SVG/1.1/DTD/svg11.dtd">
<svg xmlns:xlink="http://www.w3.org/1999/xlink" width="323.04pt" height="215.28pt" viewBox="0 0 323.04 215.28" xmlns="http://www.w3.org/2000/svg" version="1.1">
 <metadata>
  <rdf:RDF xmlns:dc="http://purl.org/dc/elements/1.1/" xmlns:cc="http://creativecommons.org/ns#" xmlns:rdf="http://www.w3.org/1999/02/22-rdf-syntax-ns#">
   <cc:Work>
    <dc:type rdf:resource="http://purl.org/dc/dcmitype/StillImage"/>
    <dc:date>2025-04-02T17:35:10.690633</dc:date>
    <dc:format>image/svg+xml</dc:format>
    <dc:creator>
     <cc:Agent>
      <dc:title>Matplotlib v3.9.2, https://matplotlib.org/</dc:title>
     </cc:Agent>
    </dc:creator>
   </cc:Work>
  </rdf:RDF>
 </metadata>
 <defs>
  <style type="text/css">*{stroke-linejoin: round; stroke-linecap: butt}</style>
 </defs>
 <g id="figure_1">
  <g id="axes_1">
   <g id="patch_1">
    <path d="M 25.054874 79.251617 
L 98.273778 79.251617 
L 98.273778 5.659693 
L 25.054874 5.659693 
L 25.054874 79.251617 
z
" style="fill: none"/>
   </g>
   <g id="matplotlib.axis_1">
    <g id="xtick_1">
     <g id="line2d_1">
      <defs>
       <path id="m9e27365fea" d="M 0 0 
L 0 2.5 
" style="stroke: #000000"/>
      </defs>
      <g>
       <use xlink:href="#m9e27365fea" x="28.383006" y="80.539476" style="stroke: #000000"/>
      </g>
     </g>
     <g id="text_1">
      <!-- 0 -->
      <g transform="translate(26.156131 91.858382) scale(0.07 -0.07)">
       <defs>
        <path id="DejaVuSans-30" d="M 2034 4250 
Q 1547 4250 1301 3770 
Q 1056 3291 1056 2328 
Q 1056 1369 1301 889 
Q 1547 409 2034 409 
Q 2525 409 2770 889 
Q 3016 1369 3016 2328 
Q 3016 3291 2770 3770 
Q 2525 4250 2034 4250 
z
M 2034 4750 
Q 2819 4750 3233 4129 
Q 3647 3509 3647 2328 
Q 3647 1150 3233 529 
Q 2819 -91 2034 -91 
Q 1250 -91 836 529 
Q 422 1150 422 2328 
Q 422 3509 836 4129 
Q 1250 4750 2034 4750 
z
" transform="scale(0.015625)"/>
       </defs>
       <use xlink:href="#DejaVuSans-30"/>
      </g>
     </g>
    </g>
    <g id="xtick_2">
     <g id="line2d_2">
      <g>
       <use xlink:href="#m9e27365fea" x="94.945646" y="80.539476" style="stroke: #000000"/>
      </g>
     </g>
     <g id="text_2">
      <!-- 5 -->
      <g transform="translate(92.718771 91.858382) scale(0.07 -0.07)">
       <defs>
        <path id="DejaVuSans-35" d="M 691 4666 
L 3169 4666 
L 3169 4134 
L 1269 4134 
L 1269 2991 
Q 1406 3038 1543 3061 
Q 1681 3084 1819 3084 
Q 2600 3084 3056 2656 
Q 3513 2228 3513 1497 
Q 3513 744 3044 326 
Q 2575 -91 1722 -91 
Q 1428 -91 1123 -41 
Q 819 9 494 109 
L 494 744 
Q 775 591 1075 516 
Q 1375 441 1709 441 
Q 2250 441 2565 725 
Q 2881 1009 2881 1497 
Q 2881 1984 2565 2268 
Q 2250 2553 1709 2553 
Q 1456 2553 1204 2497 
Q 953 2441 691 2322 
L 691 4666 
z
" transform="scale(0.015625)"/>
       </defs>
       <use xlink:href="#DejaVuSans-35"/>
      </g>
     </g>
    </g>
    <g id="text_3">
     <!-- Time (ms) -->
     <g transform="translate(44.024873 92.63307) scale(0.07 -0.07)">
      <defs>
       <path id="DejaVuSans-54" d="M -19 4666 
L 3928 4666 
L 3928 4134 
L 2272 4134 
L 2272 0 
L 1638 0 
L 1638 4134 
L -19 4134 
L -19 4666 
z
" transform="scale(0.015625)"/>
       <path id="DejaVuSans-69" d="M 603 3500 
L 1178 3500 
L 1178 0 
L 603 0 
L 603 3500 
z
M 603 4863 
L 1178 4863 
L 1178 4134 
L 603 4134 
L 603 4863 
z
" transform="scale(0.015625)"/>
       <path id="DejaVuSans-6d" d="M 3328 2828 
Q 3544 3216 3844 3400 
Q 4144 3584 4550 3584 
Q 5097 3584 5394 3201 
Q 5691 2819 5691 2113 
L 5691 0 
L 5113 0 
L 5113 2094 
Q 5113 2597 4934 2840 
Q 4756 3084 4391 3084 
Q 3944 3084 3684 2787 
Q 3425 2491 3425 1978 
L 3425 0 
L 2847 0 
L 2847 2094 
Q 2847 2600 2669 2842 
Q 2491 3084 2119 3084 
Q 1678 3084 1418 2786 
Q 1159 2488 1159 1978 
L 1159 0 
L 581 0 
L 581 3500 
L 1159 3500 
L 1159 2956 
Q 1356 3278 1631 3431 
Q 1906 3584 2284 3584 
Q 2666 3584 2933 3390 
Q 3200 3197 3328 2828 
z
" transform="scale(0.015625)"/>
       <path id="DejaVuSans-65" d="M 3597 1894 
L 3597 1613 
L 953 1613 
Q 991 1019 1311 708 
Q 1631 397 2203 397 
Q 2534 397 2845 478 
Q 3156 559 3463 722 
L 3463 178 
Q 3153 47 2828 -22 
Q 2503 -91 2169 -91 
Q 1331 -91 842 396 
Q 353 884 353 1716 
Q 353 2575 817 3079 
Q 1281 3584 2069 3584 
Q 2775 3584 3186 3129 
Q 3597 2675 3597 1894 
z
M 3022 2063 
Q 3016 2534 2758 2815 
Q 2500 3097 2075 3097 
Q 1594 3097 1305 2825 
Q 1016 2553 972 2059 
L 3022 2063 
z
" transform="scale(0.015625)"/>
       <path id="DejaVuSans-20" transform="scale(0.015625)"/>
       <path id="DejaVuSans-28" d="M 1984 4856 
Q 1566 4138 1362 3434 
Q 1159 2731 1159 2009 
Q 1159 1288 1364 580 
Q 1569 -128 1984 -844 
L 1484 -844 
Q 1016 -109 783 600 
Q 550 1309 550 2009 
Q 550 2706 781 3412 
Q 1013 4119 1484 4856 
L 1984 4856 
z
" transform="scale(0.015625)"/>
       <path id="DejaVuSans-73" d="M 2834 3397 
L 2834 2853 
Q 2591 2978 2328 3040 
Q 2066 3103 1784 3103 
Q 1356 3103 1142 2972 
Q 928 2841 928 2578 
Q 928 2378 1081 2264 
Q 1234 2150 1697 2047 
L 1894 2003 
Q 2506 1872 2764 1633 
Q 3022 1394 3022 966 
Q 3022 478 2636 193 
Q 2250 -91 1575 -91 
Q 1294 -91 989 -36 
Q 684 19 347 128 
L 347 722 
Q 666 556 975 473 
Q 1284 391 1588 391 
Q 1994 391 2212 530 
Q 2431 669 2431 922 
Q 2431 1156 2273 1281 
Q 2116 1406 1581 1522 
L 1381 1569 
Q 847 1681 609 1914 
Q 372 2147 372 2553 
Q 372 3047 722 3315 
Q 1072 3584 1716 3584 
Q 2034 3584 2315 3537 
Q 2597 3491 2834 3397 
z
" transform="scale(0.015625)"/>
       <path id="DejaVuSans-29" d="M 513 4856 
L 1013 4856 
Q 1481 4119 1714 3412 
Q 1947 2706 1947 2009 
Q 1947 1309 1714 600 
Q 1481 -109 1013 -844 
L 513 -844 
Q 928 -128 1133 580 
Q 1338 1288 1338 2009 
Q 1338 2731 1133 3434 
Q 928 4138 513 4856 
z
" transform="scale(0.015625)"/>
      </defs>
      <use xlink:href="#DejaVuSans-54"/>
      <use xlink:href="#DejaVuSans-69" x="57.958984"/>
      <use xlink:href="#DejaVuSans-6d" x="85.742188"/>
      <use xlink:href="#DejaVuSans-65" x="183.154297"/>
      <use xlink:href="#DejaVuSans-20" x="244.677734"/>
      <use xlink:href="#DejaVuSans-28" x="276.464844"/>
      <use xlink:href="#DejaVuSans-6d" x="315.478516"/>
      <use xlink:href="#DejaVuSans-73" x="412.890625"/>
      <use xlink:href="#DejaVuSans-29" x="464.990234"/>
     </g>
    </g>
   </g>
   <g id="matplotlib.axis_2">
    <g id="ytick_1">
     <g id="line2d_3">
      <defs>
       <path id="m80ecf6fa8b" d="M 0 0 
L -2.5 0 
" style="stroke: #000000"/>
      </defs>
      <g>
       <use xlink:href="#m80ecf6fa8b" x="23.773543" y="75.90653" style="stroke: #000000"/>
      </g>
     </g>
     <g id="text_4">
      <!-- −70 -->
      <g transform="translate(3.000262 78.565983) scale(0.07 -0.07)">
       <defs>
        <path id="DejaVuSans-2212" d="M 678 2272 
L 4684 2272 
L 4684 1741 
L 678 1741 
L 678 2272 
z
" transform="scale(0.015625)"/>
        <path id="DejaVuSans-37" d="M 525 4666 
L 3525 4666 
L 3525 4397 
L 1831 0 
L 1172 0 
L 2766 4134 
L 525 4134 
L 525 4666 
z
" transform="scale(0.015625)"/>
       </defs>
       <use xlink:href="#DejaVuSans-2212"/>
       <use xlink:href="#DejaVuSans-37" x="83.789062"/>
       <use xlink:href="#DejaVuSans-30" x="147.412109"/>
      </g>
     </g>
    </g>
    <g id="ytick_2">
     <g id="line2d_4">
      <g>
       <use xlink:href="#m80ecf6fa8b" x="23.773543" y="9.003706" style="stroke: #000000"/>
      </g>
     </g>
     <g id="text_5">
      <!-- 30 -->
      <g transform="translate(8.866043 11.663159) scale(0.07 -0.07)">
       <defs>
        <path id="DejaVuSans-33" d="M 2597 2516 
Q 3050 2419 3304 2112 
Q 3559 1806 3559 1356 
Q 3559 666 3084 287 
Q 2609 -91 1734 -91 
Q 1441 -91 1130 -33 
Q 819 25 488 141 
L 488 750 
Q 750 597 1062 519 
Q 1375 441 1716 441 
Q 2309 441 2620 675 
Q 2931 909 2931 1356 
Q 2931 1769 2642 2001 
Q 2353 2234 1838 2234 
L 1294 2234 
L 1294 2753 
L 1863 2753 
Q 2328 2753 2575 2939 
Q 2822 3125 2822 3475 
Q 2822 3834 2567 4026 
Q 2313 4219 1838 4219 
Q 1578 4219 1281 4162 
Q 984 4106 628 3988 
L 628 4550 
Q 988 4650 1302 4700 
Q 1616 4750 1894 4750 
Q 2613 4750 3031 4423 
Q 3450 4097 3450 3541 
Q 3450 3153 3228 2886 
Q 3006 2619 2597 2516 
z
" transform="scale(0.015625)"/>
       </defs>
       <use xlink:href="#DejaVuSans-33"/>
       <use xlink:href="#DejaVuSans-30" x="63.623047"/>
      </g>
     </g>
    </g>
    <g id="text_6">
     <!-- AP Voltage (mV) -->
     <g transform="translate(11.544481 70.848858) rotate(-90) scale(0.07 -0.07)">
      <defs>
       <path id="DejaVuSans-41" d="M 2188 4044 
L 1331 1722 
L 3047 1722 
L 2188 4044 
z
M 1831 4666 
L 2547 4666 
L 4325 0 
L 3669 0 
L 3244 1197 
L 1141 1197 
L 716 0 
L 50 0 
L 1831 4666 
z
" transform="scale(0.015625)"/>
       <path id="DejaVuSans-50" d="M 1259 4147 
L 1259 2394 
L 2053 2394 
Q 2494 2394 2734 2622 
Q 2975 2850 2975 3272 
Q 2975 3691 2734 3919 
Q 2494 4147 2053 4147 
L 1259 4147 
z
M 628 4666 
L 2053 4666 
Q 2838 4666 3239 4311 
Q 3641 3956 3641 3272 
Q 3641 2581 3239 2228 
Q 2838 1875 2053 1875 
L 1259 1875 
L 1259 0 
L 628 0 
L 628 4666 
z
" transform="scale(0.015625)"/>
       <path id="DejaVuSans-56" d="M 1831 0 
L 50 4666 
L 709 4666 
L 2188 738 
L 3669 4666 
L 4325 4666 
L 2547 0 
L 1831 0 
z
" transform="scale(0.015625)"/>
       <path id="DejaVuSans-6f" d="M 1959 3097 
Q 1497 3097 1228 2736 
Q 959 2375 959 1747 
Q 959 1119 1226 758 
Q 1494 397 1959 397 
Q 2419 397 2687 759 
Q 2956 1122 2956 1747 
Q 2956 2369 2687 2733 
Q 2419 3097 1959 3097 
z
M 1959 3584 
Q 2709 3584 3137 3096 
Q 3566 2609 3566 1747 
Q 3566 888 3137 398 
Q 2709 -91 1959 -91 
Q 1206 -91 779 398 
Q 353 888 353 1747 
Q 353 2609 779 3096 
Q 1206 3584 1959 3584 
z
" transform="scale(0.015625)"/>
       <path id="DejaVuSans-6c" d="M 603 4863 
L 1178 4863 
L 1178 0 
L 603 0 
L 603 4863 
z
" transform="scale(0.015625)"/>
       <path id="DejaVuSans-74" d="M 1172 4494 
L 1172 3500 
L 2356 3500 
L 2356 3053 
L 1172 3053 
L 1172 1153 
Q 1172 725 1289 603 
Q 1406 481 1766 481 
L 2356 481 
L 2356 0 
L 1766 0 
Q 1100 0 847 248 
Q 594 497 594 1153 
L 594 3053 
L 172 3053 
L 172 3500 
L 594 3500 
L 594 4494 
L 1172 4494 
z
" transform="scale(0.015625)"/>
       <path id="DejaVuSans-61" d="M 2194 1759 
Q 1497 1759 1228 1600 
Q 959 1441 959 1056 
Q 959 750 1161 570 
Q 1363 391 1709 391 
Q 2188 391 2477 730 
Q 2766 1069 2766 1631 
L 2766 1759 
L 2194 1759 
z
M 3341 1997 
L 3341 0 
L 2766 0 
L 2766 531 
Q 2569 213 2275 61 
Q 1981 -91 1556 -91 
Q 1019 -91 701 211 
Q 384 513 384 1019 
Q 384 1609 779 1909 
Q 1175 2209 1959 2209 
L 2766 2209 
L 2766 2266 
Q 2766 2663 2505 2880 
Q 2244 3097 1772 3097 
Q 1472 3097 1187 3025 
Q 903 2953 641 2809 
L 641 3341 
Q 956 3463 1253 3523 
Q 1550 3584 1831 3584 
Q 2591 3584 2966 3190 
Q 3341 2797 3341 1997 
z
" transform="scale(0.015625)"/>
       <path id="DejaVuSans-67" d="M 2906 1791 
Q 2906 2416 2648 2759 
Q 2391 3103 1925 3103 
Q 1463 3103 1205 2759 
Q 947 2416 947 1791 
Q 947 1169 1205 825 
Q 1463 481 1925 481 
Q 2391 481 2648 825 
Q 2906 1169 2906 1791 
z
M 3481 434 
Q 3481 -459 3084 -895 
Q 2688 -1331 1869 -1331 
Q 1566 -1331 1297 -1286 
Q 1028 -1241 775 -1147 
L 775 -588 
Q 1028 -725 1275 -790 
Q 1522 -856 1778 -856 
Q 2344 -856 2625 -561 
Q 2906 -266 2906 331 
L 2906 616 
Q 2728 306 2450 153 
Q 2172 0 1784 0 
Q 1141 0 747 490 
Q 353 981 353 1791 
Q 353 2603 747 3093 
Q 1141 3584 1784 3584 
Q 2172 3584 2450 3431 
Q 2728 3278 2906 2969 
L 2906 3500 
L 3481 3500 
L 3481 434 
z
" transform="scale(0.015625)"/>
      </defs>
      <use xlink:href="#DejaVuSans-41"/>
      <use xlink:href="#DejaVuSans-50" x="68.408203"/>
      <use xlink:href="#DejaVuSans-20" x="128.710938"/>
      <use xlink:href="#DejaVuSans-56" x="160.498047"/>
      <use xlink:href="#DejaVuSans-6f" x="221.15625"/>
      <use xlink:href="#DejaVuSans-6c" x="282.337891"/>
      <use xlink:href="#DejaVuSans-74" x="310.121094"/>
      <use xlink:href="#DejaVuSans-61" x="349.330078"/>
      <use xlink:href="#DejaVuSans-67" x="410.609375"/>
      <use xlink:href="#DejaVuSans-65" x="474.085938"/>
      <use xlink:href="#DejaVuSans-20" x="535.609375"/>
      <use xlink:href="#DejaVuSans-28" x="567.396484"/>
      <use xlink:href="#DejaVuSans-6d" x="606.410156"/>
      <use xlink:href="#DejaVuSans-56" x="703.822266"/>
      <use xlink:href="#DejaVuSans-29" x="772.230469"/>
     </g>
    </g>
   </g>
   <g id="line2d_5">
    <path d="M 28.383006 75.90653 
L 34.919217 75.90653 
L 35.052609 75.638651 
L 36.253138 53.730079 
L 37.320274 37.909909 
L 38.254019 26.888452 
L 39.187763 18.500107 
L 39.988116 13.40584 
L 40.655076 10.638385 
L 41.188644 9.391687 
L 41.58882 9.020902 
L 41.855604 9.042396 
L 42.122389 9.278839 
L 42.522565 10.036531 
L 42.922741 11.277855 
L 43.456309 13.685273 
L 44.12327 17.903626 
L 44.923622 24.738972 
L 45.723974 33.508849 
L 46.657719 46.185405 
L 47.724855 63.897118 
L 48.391816 75.90653 
L 94.945646 75.90653 
L 94.945646 75.90653 
" clip-path="url(#pef2c0ee378)" style="fill: none; stroke: #000000; stroke-linecap: square"/>
   </g>
   <g id="line2d_6">
    <path d="M 28.383006 75.90653 
L 34.919217 75.90653 
L 35.052609 75.665439 
L 36.253138 55.947724 
L 37.320274 41.709571 
L 38.254019 31.790259 
L 39.187763 24.240749 
L 39.988116 19.655909 
L 40.655076 17.1652 
L 41.188644 16.043171 
L 41.58882 15.709464 
L 41.855604 15.72881 
L 42.122389 15.941608 
L 42.522565 16.623531 
L 43.056133 18.209847 
L 43.589701 20.569975 
L 44.256662 24.60831 
L 45.057014 31.050301 
L 45.990758 40.766487 
L 46.924503 52.852473 
L 47.991639 69.566828 
L 48.391816 75.90653 
L 94.945646 75.90653 
L 94.945646 75.90653 
" clip-path="url(#pef2c0ee378)" style="fill: none; stroke: #008080; stroke-linecap: square"/>
   </g>
   <g id="line2d_7">
    <path d="M 28.383006 75.90653 
L 34.919217 75.90653 
L 35.052609 75.785984 
L 36.253138 65.927127 
L 37.320274 58.80805 
L 38.254019 53.848395 
L 39.187763 50.07364 
L 39.988116 47.781219 
L 40.655076 46.535865 
L 41.188644 45.974851 
L 41.58882 45.807997 
L 41.988997 45.858779 
L 42.389173 46.127195 
L 42.922741 46.823626 
L 43.456309 47.906964 
L 44.12327 49.805223 
L 44.923622 52.881129 
L 45.857366 57.56995 
L 46.791111 63.443672 
L 47.858247 71.607396 
L 48.391816 75.90653 
L 94.945646 75.90653 
L 94.945646 75.90653 
" clip-path="url(#pef2c0ee378)" style="fill: none; stroke: #0000ff; stroke-linecap: square"/>
   </g>
   <g id="patch_2">
    <path d="M 23.773543 75.90653 
L 23.773543 9.003706 
" style="fill: none; stroke: #000000; stroke-linejoin: miter; stroke-linecap: square"/>
   </g>
   <g id="patch_3">
    <path d="M 28.383006 80.539476 
L 94.945646 80.539476 
" style="fill: none; stroke: #000000; stroke-linejoin: miter; stroke-linecap: square"/>
   </g>
  </g>
  <g id="axes_2">
   <g id="patch_4">
    <path d="M 131.595298 79.251617 
L 204.814203 79.251617 
L 204.814203 5.659693 
L 131.595298 5.659693 
L 131.595298 79.251617 
z
" style="fill: none"/>
   </g>
   <g id="matplotlib.axis_3">
    <g id="xtick_3">
     <g id="line2d_8">
      <g>
       <use xlink:href="#m9e27365fea" x="134.923431" y="80.539476" style="stroke: #000000"/>
      </g>
     </g>
     <g id="text_7">
      <!-- 0 -->
      <g transform="translate(132.696556 91.858382) scale(0.07 -0.07)">
       <use xlink:href="#DejaVuSans-30"/>
      </g>
     </g>
    </g>
    <g id="xtick_4">
     <g id="line2d_9">
      <g>
       <use xlink:href="#m9e27365fea" x="201.486071" y="80.539476" style="stroke: #000000"/>
      </g>
     </g>
     <g id="text_8">
      <!-- 5 -->
      <g transform="translate(199.259196 91.858382) scale(0.07 -0.07)">
       <use xlink:href="#DejaVuSans-35"/>
      </g>
     </g>
    </g>
    <g id="text_9">
     <!-- Time (ms) -->
     <g transform="translate(150.565298 92.63307) scale(0.07 -0.07)">
      <use xlink:href="#DejaVuSans-54"/>
      <use xlink:href="#DejaVuSans-69" x="57.958984"/>
      <use xlink:href="#DejaVuSans-6d" x="85.742188"/>
      <use xlink:href="#DejaVuSans-65" x="183.154297"/>
      <use xlink:href="#DejaVuSans-20" x="244.677734"/>
      <use xlink:href="#DejaVuSans-28" x="276.464844"/>
      <use xlink:href="#DejaVuSans-6d" x="315.478516"/>
      <use xlink:href="#DejaVuSans-73" x="412.890625"/>
      <use xlink:href="#DejaVuSans-29" x="464.990234"/>
     </g>
    </g>
   </g>
   <g id="matplotlib.axis_4">
    <g id="ytick_3">
     <g id="line2d_10">
      <g>
       <use xlink:href="#m80ecf6fa8b" x="130.313968" y="77.704823" style="stroke: #000000"/>
      </g>
     </g>
     <g id="text_10">
      <!-- 0.000 -->
      <g transform="translate(104.27428 80.364276) scale(0.07 -0.07)">
       <defs>
        <path id="DejaVuSans-2e" d="M 684 794 
L 1344 794 
L 1344 0 
L 684 0 
L 684 794 
z
" transform="scale(0.015625)"/>
       </defs>
       <use xlink:href="#DejaVuSans-30"/>
       <use xlink:href="#DejaVuSans-2e" x="63.623047"/>
       <use xlink:href="#DejaVuSans-30" x="95.410156"/>
       <use xlink:href="#DejaVuSans-30" x="159.033203"/>
       <use xlink:href="#DejaVuSans-30" x="222.65625"/>
      </g>
     </g>
    </g>
    <g id="ytick_4">
     <g id="line2d_11">
      <g>
       <use xlink:href="#m80ecf6fa8b" x="130.313968" y="5.659693" style="stroke: #000000"/>
      </g>
     </g>
     <g id="text_11">
      <!-- 0.945 -->
      <g transform="translate(104.27428 8.319146) scale(0.07 -0.07)">
       <defs>
        <path id="DejaVuSans-39" d="M 703 97 
L 703 672 
Q 941 559 1184 500 
Q 1428 441 1663 441 
Q 2288 441 2617 861 
Q 2947 1281 2994 2138 
Q 2813 1869 2534 1725 
Q 2256 1581 1919 1581 
Q 1219 1581 811 2004 
Q 403 2428 403 3163 
Q 403 3881 828 4315 
Q 1253 4750 1959 4750 
Q 2769 4750 3195 4129 
Q 3622 3509 3622 2328 
Q 3622 1225 3098 567 
Q 2575 -91 1691 -91 
Q 1453 -91 1209 -44 
Q 966 3 703 97 
z
M 1959 2075 
Q 2384 2075 2632 2365 
Q 2881 2656 2881 3163 
Q 2881 3666 2632 3958 
Q 2384 4250 1959 4250 
Q 1534 4250 1286 3958 
Q 1038 3666 1038 3163 
Q 1038 2656 1286 2365 
Q 1534 2075 1959 2075 
z
" transform="scale(0.015625)"/>
        <path id="DejaVuSans-34" d="M 2419 4116 
L 825 1625 
L 2419 1625 
L 2419 4116 
z
M 2253 4666 
L 3047 4666 
L 3047 1625 
L 3713 1625 
L 3713 1100 
L 3047 1100 
L 3047 0 
L 2419 0 
L 2419 1100 
L 313 1100 
L 313 1709 
L 2253 4666 
z
" transform="scale(0.015625)"/>
       </defs>
       <use xlink:href="#DejaVuSans-30"/>
       <use xlink:href="#DejaVuSans-2e" x="63.623047"/>
       <use xlink:href="#DejaVuSans-39" x="95.410156"/>
       <use xlink:href="#DejaVuSans-34" x="159.033203"/>
       <use xlink:href="#DejaVuSans-35" x="222.65625"/>
      </g>
     </g>
    </g>
    <g id="text_12">
     <!-- NMDAR P(open) -->
     <g transform="translate(112.818499 70.242921) rotate(-90) scale(0.07 -0.07)">
      <defs>
       <path id="DejaVuSans-4e" d="M 628 4666 
L 1478 4666 
L 3547 763 
L 3547 4666 
L 4159 4666 
L 4159 0 
L 3309 0 
L 1241 3903 
L 1241 0 
L 628 0 
L 628 4666 
z
" transform="scale(0.015625)"/>
       <path id="DejaVuSans-4d" d="M 628 4666 
L 1569 4666 
L 2759 1491 
L 3956 4666 
L 4897 4666 
L 4897 0 
L 4281 0 
L 4281 4097 
L 3078 897 
L 2444 897 
L 1241 4097 
L 1241 0 
L 628 0 
L 628 4666 
z
" transform="scale(0.015625)"/>
       <path id="DejaVuSans-44" d="M 1259 4147 
L 1259 519 
L 2022 519 
Q 2988 519 3436 956 
Q 3884 1394 3884 2338 
Q 3884 3275 3436 3711 
Q 2988 4147 2022 4147 
L 1259 4147 
z
M 628 4666 
L 1925 4666 
Q 3281 4666 3915 4102 
Q 4550 3538 4550 2338 
Q 4550 1131 3912 565 
Q 3275 0 1925 0 
L 628 0 
L 628 4666 
z
" transform="scale(0.015625)"/>
       <path id="DejaVuSans-52" d="M 2841 2188 
Q 3044 2119 3236 1894 
Q 3428 1669 3622 1275 
L 4263 0 
L 3584 0 
L 2988 1197 
Q 2756 1666 2539 1819 
Q 2322 1972 1947 1972 
L 1259 1972 
L 1259 0 
L 628 0 
L 628 4666 
L 2053 4666 
Q 2853 4666 3247 4331 
Q 3641 3997 3641 3322 
Q 3641 2881 3436 2590 
Q 3231 2300 2841 2188 
z
M 1259 4147 
L 1259 2491 
L 2053 2491 
Q 2509 2491 2742 2702 
Q 2975 2913 2975 3322 
Q 2975 3731 2742 3939 
Q 2509 4147 2053 4147 
L 1259 4147 
z
" transform="scale(0.015625)"/>
       <path id="DejaVuSans-70" d="M 1159 525 
L 1159 -1331 
L 581 -1331 
L 581 3500 
L 1159 3500 
L 1159 2969 
Q 1341 3281 1617 3432 
Q 1894 3584 2278 3584 
Q 2916 3584 3314 3078 
Q 3713 2572 3713 1747 
Q 3713 922 3314 415 
Q 2916 -91 2278 -91 
Q 1894 -91 1617 61 
Q 1341 213 1159 525 
z
M 3116 1747 
Q 3116 2381 2855 2742 
Q 2594 3103 2138 3103 
Q 1681 3103 1420 2742 
Q 1159 2381 1159 1747 
Q 1159 1113 1420 752 
Q 1681 391 2138 391 
Q 2594 391 2855 752 
Q 3116 1113 3116 1747 
z
" transform="scale(0.015625)"/>
       <path id="DejaVuSans-6e" d="M 3513 2113 
L 3513 0 
L 2938 0 
L 2938 2094 
Q 2938 2591 2744 2837 
Q 2550 3084 2163 3084 
Q 1697 3084 1428 2787 
Q 1159 2491 1159 1978 
L 1159 0 
L 581 0 
L 581 3500 
L 1159 3500 
L 1159 2956 
Q 1366 3272 1645 3428 
Q 1925 3584 2291 3584 
Q 2894 3584 3203 3211 
Q 3513 2838 3513 2113 
z
" transform="scale(0.015625)"/>
      </defs>
      <use xlink:href="#DejaVuSans-4e"/>
      <use xlink:href="#DejaVuSans-4d" x="74.804688"/>
      <use xlink:href="#DejaVuSans-44" x="161.083984"/>
      <use xlink:href="#DejaVuSans-41" x="236.335938"/>
      <use xlink:href="#DejaVuSans-52" x="304.744141"/>
      <use xlink:href="#DejaVuSans-20" x="374.226562"/>
      <use xlink:href="#DejaVuSans-50" x="406.013672"/>
      <use xlink:href="#DejaVuSans-28" x="466.316406"/>
      <use xlink:href="#DejaVuSans-6f" x="505.330078"/>
      <use xlink:href="#DejaVuSans-70" x="566.511719"/>
      <use xlink:href="#DejaVuSans-65" x="629.988281"/>
      <use xlink:href="#DejaVuSans-6e" x="691.511719"/>
      <use xlink:href="#DejaVuSans-29" x="754.890625"/>
     </g>
    </g>
   </g>
   <g id="line2d_12">
    <path d="M 134.923431 75.038995 
L 141.726426 75.024564 
L 141.99321 74.634981 
L 142.393386 73.468501 
L 142.926954 71.06302 
L 143.593915 66.807892 
L 144.394267 60.100149 
L 145.728188 46.587364 
L 147.328893 30.96576 
L 148.262637 23.935025 
L 149.062989 19.454471 
L 149.72995 16.778847 
L 150.39691 15.00959 
L 150.930478 14.241528 
L 151.330654 14.072883 
L 151.597439 14.181215 
L 151.864223 14.494659 
L 152.264399 15.431734 
L 152.664575 17.096931 
L 153.064751 19.770596 
L 153.464928 23.859422 
L 153.865104 29.895492 
L 154.398672 41.861401 
L 155.465808 68.927069 
L 155.865985 72.218404 
L 156.266161 73.737321 
L 156.666337 74.438286 
L 157.066513 74.761774 
L 157.733474 74.962594 
L 159.067394 75.033192 
L 170.805896 75.038995 
L 201.486071 75.038995 
L 201.486071 75.038995 
" clip-path="url(#p53b65905bc)" style="fill: none; stroke: #000000; stroke-linecap: square"/>
   </g>
   <g id="line2d_13">
    <path d="M 134.923431 75.038995 
L 141.726426 75.026 
L 141.99321 74.673299 
L 142.393386 73.621442 
L 142.926954 71.477008 
L 143.593915 67.728716 
L 144.394267 61.860078 
L 145.728188 49.974636 
L 147.462285 34.723079 
L 148.396029 28.238411 
L 149.196381 24.017486 
L 149.863342 21.487155 
L 150.39691 20.123909 
L 150.797086 19.507491 
L 151.197262 19.272462 
L 151.464047 19.353268 
L 151.730831 19.650878 
L 152.131007 20.576573 
L 152.531183 22.21781 
L 152.931359 24.795511 
L 153.331535 28.608509 
L 153.865104 36.235355 
L 154.398672 47.337985 
L 155.332416 68.568599 
L 155.732593 72.052974 
L 156.132769 73.660977 
L 156.532945 74.403054 
L 156.933121 74.745514 
L 157.600082 74.958113 
L 158.934002 75.032851 
L 170.138936 75.038995 
L 201.486071 75.038995 
L 201.486071 75.038995 
" clip-path="url(#p53b65905bc)" style="fill: none; stroke: #008080; stroke-linecap: square"/>
   </g>
   <g id="line2d_14">
    <path d="M 134.923431 75.038995 
L 141.859818 74.964614 
L 142.259994 74.524333 
L 142.926954 73.315789 
L 143.727307 71.344175 
L 144.794443 68.068441 
L 148.396029 56.278098 
L 149.196381 54.66586 
L 149.72995 54.009725 
L 150.130126 53.776897 
L 150.530302 53.792579 
L 150.930478 54.080329 
L 151.330654 54.662847 
L 151.864223 55.932554 
L 152.397791 57.794279 
L 153.064751 60.942978 
L 154.131888 67.377862 
L 155.065632 72.825228 
L 155.465808 74.017364 
L 155.865985 74.567523 
L 156.399553 74.870854 
L 157.199905 75.003185 
L 159.600963 75.038649 
L 201.486071 75.038995 
L 201.486071 75.038995 
" clip-path="url(#p53b65905bc)" style="fill: none; stroke: #0000ff; stroke-linecap: square"/>
   </g>
   <g id="patch_5">
    <path d="M 130.313968 77.704823 
L 130.313968 5.659693 
" style="fill: none; stroke: #000000; stroke-linejoin: miter; stroke-linecap: square"/>
   </g>
   <g id="patch_6">
    <path d="M 134.923431 80.539476 
L 201.486071 80.539476 
" style="fill: none; stroke: #000000; stroke-linejoin: miter; stroke-linecap: square"/>
   </g>
  </g>
  <g id="axes_3">
   <g id="patch_7">
    <path d="M 242.589473 79.251617 
L 315.808377 79.251617 
L 315.808377 5.659693 
L 242.589473 5.659693 
L 242.589473 79.251617 
z
" style="fill: none"/>
   </g>
   <g id="matplotlib.axis_5">
    <g id="xtick_5">
     <g id="line2d_15">
      <g>
       <use xlink:href="#m9e27365fea" x="245.917605" y="80.539476" style="stroke: #000000"/>
      </g>
     </g>
     <g id="text_13">
      <!-- 0 -->
      <g transform="translate(243.69073 91.858382) scale(0.07 -0.07)">
       <use xlink:href="#DejaVuSans-30"/>
      </g>
     </g>
    </g>
    <g id="xtick_6">
     <g id="line2d_16">
      <g>
       <use xlink:href="#m9e27365fea" x="312.480245" y="80.539476" style="stroke: #000000"/>
      </g>
     </g>
     <g id="text_14">
      <!-- 5 -->
      <g transform="translate(310.25337 91.858382) scale(0.07 -0.07)">
       <use xlink:href="#DejaVuSans-35"/>
      </g>
     </g>
    </g>
    <g id="text_15">
     <!-- Time (ms) -->
     <g transform="translate(261.559472 92.63307) scale(0.07 -0.07)">
      <use xlink:href="#DejaVuSans-54"/>
      <use xlink:href="#DejaVuSans-69" x="57.958984"/>
      <use xlink:href="#DejaVuSans-6d" x="85.742188"/>
      <use xlink:href="#DejaVuSans-65" x="183.154297"/>
      <use xlink:href="#DejaVuSans-20" x="244.677734"/>
      <use xlink:href="#DejaVuSans-28" x="276.464844"/>
      <use xlink:href="#DejaVuSans-6d" x="315.478516"/>
      <use xlink:href="#DejaVuSans-73" x="412.890625"/>
      <use xlink:href="#DejaVuSans-29" x="464.990234"/>
     </g>
    </g>
   </g>
   <g id="matplotlib.axis_6">
    <g id="ytick_5">
     <g id="line2d_17">
      <g>
       <use xlink:href="#m80ecf6fa8b" x="241.308142" y="77.704823" style="stroke: #000000"/>
      </g>
     </g>
     <g id="text_16">
      <!-- 0.000 -->
      <g transform="translate(215.268455 80.364276) scale(0.07 -0.07)">
       <use xlink:href="#DejaVuSans-30"/>
       <use xlink:href="#DejaVuSans-2e" x="63.623047"/>
       <use xlink:href="#DejaVuSans-30" x="95.410156"/>
       <use xlink:href="#DejaVuSans-30" x="159.033203"/>
       <use xlink:href="#DejaVuSans-30" x="222.65625"/>
      </g>
     </g>
    </g>
    <g id="ytick_6">
     <g id="line2d_18">
      <g>
       <use xlink:href="#m80ecf6fa8b" x="241.308142" y="5.659693" style="stroke: #000000"/>
      </g>
     </g>
     <g id="text_17">
      <!-- 0.945 -->
      <g transform="translate(215.268455 8.319146) scale(0.07 -0.07)">
       <use xlink:href="#DejaVuSans-30"/>
       <use xlink:href="#DejaVuSans-2e" x="63.623047"/>
       <use xlink:href="#DejaVuSans-39" x="95.410156"/>
       <use xlink:href="#DejaVuSans-34" x="159.033203"/>
       <use xlink:href="#DejaVuSans-35" x="222.65625"/>
      </g>
     </g>
    </g>
    <g id="text_18">
     <!-- VGCC P(open) -->
     <g transform="translate(223.812673 67.138858) rotate(-90) scale(0.07 -0.07)">
      <defs>
       <path id="DejaVuSans-47" d="M 3809 666 
L 3809 1919 
L 2778 1919 
L 2778 2438 
L 4434 2438 
L 4434 434 
Q 4069 175 3628 42 
Q 3188 -91 2688 -91 
Q 1594 -91 976 548 
Q 359 1188 359 2328 
Q 359 3472 976 4111 
Q 1594 4750 2688 4750 
Q 3144 4750 3555 4637 
Q 3966 4525 4313 4306 
L 4313 3634 
Q 3963 3931 3569 4081 
Q 3175 4231 2741 4231 
Q 1884 4231 1454 3753 
Q 1025 3275 1025 2328 
Q 1025 1384 1454 906 
Q 1884 428 2741 428 
Q 3075 428 3337 486 
Q 3600 544 3809 666 
z
" transform="scale(0.015625)"/>
       <path id="DejaVuSans-43" d="M 4122 4306 
L 4122 3641 
Q 3803 3938 3442 4084 
Q 3081 4231 2675 4231 
Q 1875 4231 1450 3742 
Q 1025 3253 1025 2328 
Q 1025 1406 1450 917 
Q 1875 428 2675 428 
Q 3081 428 3442 575 
Q 3803 722 4122 1019 
L 4122 359 
Q 3791 134 3420 21 
Q 3050 -91 2638 -91 
Q 1578 -91 968 557 
Q 359 1206 359 2328 
Q 359 3453 968 4101 
Q 1578 4750 2638 4750 
Q 3056 4750 3426 4639 
Q 3797 4528 4122 4306 
z
" transform="scale(0.015625)"/>
      </defs>
      <use xlink:href="#DejaVuSans-56"/>
      <use xlink:href="#DejaVuSans-47" x="68.408203"/>
      <use xlink:href="#DejaVuSans-43" x="145.898438"/>
      <use xlink:href="#DejaVuSans-43" x="215.722656"/>
      <use xlink:href="#DejaVuSans-20" x="285.546875"/>
      <use xlink:href="#DejaVuSans-50" x="317.333984"/>
      <use xlink:href="#DejaVuSans-28" x="377.636719"/>
      <use xlink:href="#DejaVuSans-6f" x="416.650391"/>
      <use xlink:href="#DejaVuSans-70" x="477.832031"/>
      <use xlink:href="#DejaVuSans-65" x="541.308594"/>
      <use xlink:href="#DejaVuSans-6e" x="602.832031"/>
      <use xlink:href="#DejaVuSans-29" x="666.210938"/>
     </g>
    </g>
   </g>
   <g id="line2d_19">
    <path d="M 245.917605 77.704823 
L 255.121658 77.627893 
L 255.655226 77.340086 
L 256.055402 76.863575 
L 256.455578 76.088144 
L 256.989146 74.531924 
L 257.656107 71.779161 
L 258.589851 66.843331 
L 260.724124 55.208142 
L 261.657869 51.395593 
L 262.458221 49.011104 
L 263.125181 47.668983 
L 263.65875 47.028271 
L 264.058926 46.804128 
L 264.459102 46.781052 
L 264.99267 46.995923 
L 265.392847 47.362016 
L 265.793023 48.054583 
L 266.993551 51.522791 
L 268.594256 55.58728 
L 270.194961 59.020783 
L 271.795666 61.921258 
L 273.39637 64.371455 
L 274.997075 66.441278 
L 276.731172 68.322604 
L 278.465269 69.889684 
L 280.332758 71.285882 
L 282.333639 72.50623 
L 284.467912 73.553328 
L 286.868969 74.481418 
L 289.53681 75.271398 
L 292.604828 75.943616 
L 296.206414 76.499814 
L 300.608352 76.947022 
L 306.34421 77.290725 
L 312.480245 77.487863 
L 312.480245 77.487863 
" clip-path="url(#pb27c5299b2)" style="fill: none; stroke: #000000; stroke-linecap: square"/>
   </g>
   <g id="line2d_20">
    <path d="M 245.917605 77.704823 
L 255.388442 77.627508 
L 255.92201 77.379716 
L 256.322186 76.98768 
L 256.855754 76.095832 
L 257.389323 74.733356 
L 258.056283 72.404062 
L 259.123419 67.681791 
L 261.1243 58.712002 
L 262.058045 55.616387 
L 262.725005 54.044038 
L 263.258574 53.210776 
L 263.792142 52.771127 
L 264.192318 52.680389 
L 264.725886 52.793043 
L 265.259454 53.131123 
L 265.659631 53.618945 
L 266.059807 54.471476 
L 267.660512 58.078203 
L 269.261216 61.125008 
L 270.861921 63.698818 
L 272.462626 65.873064 
L 274.196723 67.849302 
L 275.93082 69.495441 
L 277.798309 70.962076 
L 279.79919 72.243988 
L 281.933463 73.343911 
L 284.33452 74.318821 
L 287.002361 75.148653 
L 290.070379 75.854782 
L 293.671964 76.439037 
L 297.94051 76.897537 
L 303.409585 77.251113 
L 311.012933 77.501154 
L 312.480245 77.530319 
L 312.480245 77.530319 
" clip-path="url(#pb27c5299b2)" style="fill: none; stroke: #008080; stroke-linecap: square"/>
   </g>
   <g id="line2d_21">
    <path d="M 245.917605 77.704823 
L 259.390204 77.596282 
L 263.391966 77.3385 
L 268.19408 77.446015 
L 278.598661 77.618311 
L 299.274431 77.694998 
L 312.480245 77.702366 
L 312.480245 77.702366 
" clip-path="url(#pb27c5299b2)" style="fill: none; stroke: #0000ff; stroke-linecap: square"/>
   </g>
   <g id="patch_8">
    <path d="M 241.308142 77.704823 
L 241.308142 5.659693 
" style="fill: none; stroke: #000000; stroke-linejoin: miter; stroke-linecap: square"/>
   </g>
   <g id="patch_9">
    <path d="M 245.917605 80.539476 
L 312.480245 80.539476 
" style="fill: none; stroke: #000000; stroke-linejoin: miter; stroke-linecap: square"/>
   </g>
   <g id="text_19">
    <!-- proximal -->
    <g transform="translate(282.111183 10.473061) scale(0.07 -0.07)">
     <defs>
      <path id="DejaVuSans-72" d="M 2631 2963 
Q 2534 3019 2420 3045 
Q 2306 3072 2169 3072 
Q 1681 3072 1420 2755 
Q 1159 2438 1159 1844 
L 1159 0 
L 581 0 
L 581 3500 
L 1159 3500 
L 1159 2956 
Q 1341 3275 1631 3429 
Q 1922 3584 2338 3584 
Q 2397 3584 2469 3576 
Q 2541 3569 2628 3553 
L 2631 2963 
z
" transform="scale(0.015625)"/>
      <path id="DejaVuSans-78" d="M 3513 3500 
L 2247 1797 
L 3578 0 
L 2900 0 
L 1881 1375 
L 863 0 
L 184 0 
L 1544 1831 
L 300 3500 
L 978 3500 
L 1906 2253 
L 2834 3500 
L 3513 3500 
z
" transform="scale(0.015625)"/>
     </defs>
     <use xlink:href="#DejaVuSans-70"/>
     <use xlink:href="#DejaVuSans-72" x="63.476562"/>
     <use xlink:href="#DejaVuSans-6f" x="102.339844"/>
     <use xlink:href="#DejaVuSans-78" x="160.396484"/>
     <use xlink:href="#DejaVuSans-69" x="219.576172"/>
     <use xlink:href="#DejaVuSans-6d" x="247.359375"/>
     <use xlink:href="#DejaVuSans-61" x="344.771484"/>
     <use xlink:href="#DejaVuSans-6c" x="406.050781"/>
    </g>
   </g>
   <g id="text_20">
    <!-- distal-simple -->
    <g style="fill: #008080" transform="translate(267.835558 17.677574) scale(0.07 -0.07)">
     <defs>
      <path id="DejaVuSans-64" d="M 2906 2969 
L 2906 4863 
L 3481 4863 
L 3481 0 
L 2906 0 
L 2906 525 
Q 2725 213 2448 61 
Q 2172 -91 1784 -91 
Q 1150 -91 751 415 
Q 353 922 353 1747 
Q 353 2572 751 3078 
Q 1150 3584 1784 3584 
Q 2172 3584 2448 3432 
Q 2725 3281 2906 2969 
z
M 947 1747 
Q 947 1113 1208 752 
Q 1469 391 1925 391 
Q 2381 391 2643 752 
Q 2906 1113 2906 1747 
Q 2906 2381 2643 2742 
Q 2381 3103 1925 3103 
Q 1469 3103 1208 2742 
Q 947 2381 947 1747 
z
" transform="scale(0.015625)"/>
      <path id="DejaVuSans-2d" d="M 313 2009 
L 1997 2009 
L 1997 1497 
L 313 1497 
L 313 2009 
z
" transform="scale(0.015625)"/>
     </defs>
     <use xlink:href="#DejaVuSans-64"/>
     <use xlink:href="#DejaVuSans-69" x="63.476562"/>
     <use xlink:href="#DejaVuSans-73" x="91.259766"/>
     <use xlink:href="#DejaVuSans-74" x="143.359375"/>
     <use xlink:href="#DejaVuSans-61" x="182.568359"/>
     <use xlink:href="#DejaVuSans-6c" x="243.847656"/>
     <use xlink:href="#DejaVuSans-2d" x="271.630859"/>
     <use xlink:href="#DejaVuSans-73" x="307.714844"/>
     <use xlink:href="#DejaVuSans-69" x="359.814453"/>
     <use xlink:href="#DejaVuSans-6d" x="387.597656"/>
     <use xlink:href="#DejaVuSans-70" x="485.009766"/>
     <use xlink:href="#DejaVuSans-6c" x="548.486328"/>
     <use xlink:href="#DejaVuSans-65" x="576.269531"/>
    </g>
   </g>
   <g id="text_21">
    <!-- distal-complex -->
    <g style="fill: #0000ff" transform="translate(261.274152 24.882087) scale(0.07 -0.07)">
     <defs>
      <path id="DejaVuSans-63" d="M 3122 3366 
L 3122 2828 
Q 2878 2963 2633 3030 
Q 2388 3097 2138 3097 
Q 1578 3097 1268 2742 
Q 959 2388 959 1747 
Q 959 1106 1268 751 
Q 1578 397 2138 397 
Q 2388 397 2633 464 
Q 2878 531 3122 666 
L 3122 134 
Q 2881 22 2623 -34 
Q 2366 -91 2075 -91 
Q 1284 -91 818 406 
Q 353 903 353 1747 
Q 353 2603 823 3093 
Q 1294 3584 2113 3584 
Q 2378 3584 2631 3529 
Q 2884 3475 3122 3366 
z
" transform="scale(0.015625)"/>
     </defs>
     <use xlink:href="#DejaVuSans-64"/>
     <use xlink:href="#DejaVuSans-69" x="63.476562"/>
     <use xlink:href="#DejaVuSans-73" x="91.259766"/>
     <use xlink:href="#DejaVuSans-74" x="143.359375"/>
     <use xlink:href="#DejaVuSans-61" x="182.568359"/>
     <use xlink:href="#DejaVuSans-6c" x="243.847656"/>
     <use xlink:href="#DejaVuSans-2d" x="271.630859"/>
     <use xlink:href="#DejaVuSans-63" x="307.714844"/>
     <use xlink:href="#DejaVuSans-6f" x="362.695312"/>
     <use xlink:href="#DejaVuSans-6d" x="423.876953"/>
     <use xlink:href="#DejaVuSans-70" x="521.289062"/>
     <use xlink:href="#DejaVuSans-6c" x="584.765625"/>
     <use xlink:href="#DejaVuSans-65" x="612.548828"/>
     <use xlink:href="#DejaVuSans-78" x="672.322266"/>
    </g>
   </g>
  </g>
  <g id="axes_4">
   <g id="patch_10">
    <path d="M 25.054874 173.681223 
L 98.273778 173.681223 
L 98.273778 100.089299 
L 25.054874 100.089299 
L 25.054874 173.681223 
z
" style="fill: none"/>
   </g>
   <g id="line2d_22">
    <path d="M 25.054874 159.882737 
L 98.273778 159.882737 
" clip-path="url(#p489f75ca1e)" style="fill: none; stroke-dasharray: 2.59,1.12; stroke-dashoffset: 0; stroke: #000000; stroke-width: 0.7"/>
   </g>
   <g id="matplotlib.axis_7">
    <g id="xtick_7">
     <g id="line2d_23">
      <g>
       <use xlink:href="#m9e27365fea" x="28.681493" y="174.969082" style="stroke: #000000"/>
      </g>
     </g>
     <g id="text_22">
      <!-- 0 -->
      <g transform="translate(26.454618 186.287988) scale(0.07 -0.07)">
       <use xlink:href="#DejaVuSans-30"/>
      </g>
     </g>
    </g>
    <g id="xtick_8">
     <g id="line2d_24">
      <g>
       <use xlink:href="#m9e27365fea" x="94.945646" y="174.969082" style="stroke: #000000"/>
      </g>
     </g>
     <g id="text_23">
      <!-- 2 -->
      <g transform="translate(92.718771 186.287988) scale(0.07 -0.07)">
       <defs>
        <path id="DejaVuSans-32" d="M 1228 531 
L 3431 531 
L 3431 0 
L 469 0 
L 469 531 
Q 828 903 1448 1529 
Q 2069 2156 2228 2338 
Q 2531 2678 2651 2914 
Q 2772 3150 2772 3378 
Q 2772 3750 2511 3984 
Q 2250 4219 1831 4219 
Q 1534 4219 1204 4116 
Q 875 4013 500 3803 
L 500 4441 
Q 881 4594 1212 4672 
Q 1544 4750 1819 4750 
Q 2544 4750 2975 4387 
Q 3406 4025 3406 3419 
Q 3406 3131 3298 2873 
Q 3191 2616 2906 2266 
Q 2828 2175 2409 1742 
Q 1991 1309 1228 531 
z
" transform="scale(0.015625)"/>
       </defs>
       <use xlink:href="#DejaVuSans-32"/>
      </g>
     </g>
    </g>
    <g id="text_24">
     <!-- [buffer] (mM) -->
     <g transform="translate(38.164014 188.062675) scale(0.07 -0.07)">
      <defs>
       <path id="DejaVuSans-5b" d="M 550 4863 
L 1875 4863 
L 1875 4416 
L 1125 4416 
L 1125 -397 
L 1875 -397 
L 1875 -844 
L 550 -844 
L 550 4863 
z
" transform="scale(0.015625)"/>
       <path id="DejaVuSans-62" d="M 3116 1747 
Q 3116 2381 2855 2742 
Q 2594 3103 2138 3103 
Q 1681 3103 1420 2742 
Q 1159 2381 1159 1747 
Q 1159 1113 1420 752 
Q 1681 391 2138 391 
Q 2594 391 2855 752 
Q 3116 1113 3116 1747 
z
M 1159 2969 
Q 1341 3281 1617 3432 
Q 1894 3584 2278 3584 
Q 2916 3584 3314 3078 
Q 3713 2572 3713 1747 
Q 3713 922 3314 415 
Q 2916 -91 2278 -91 
Q 1894 -91 1617 61 
Q 1341 213 1159 525 
L 1159 0 
L 581 0 
L 581 4863 
L 1159 4863 
L 1159 2969 
z
" transform="scale(0.015625)"/>
       <path id="DejaVuSans-75" d="M 544 1381 
L 544 3500 
L 1119 3500 
L 1119 1403 
Q 1119 906 1312 657 
Q 1506 409 1894 409 
Q 2359 409 2629 706 
Q 2900 1003 2900 1516 
L 2900 3500 
L 3475 3500 
L 3475 0 
L 2900 0 
L 2900 538 
Q 2691 219 2414 64 
Q 2138 -91 1772 -91 
Q 1169 -91 856 284 
Q 544 659 544 1381 
z
M 1991 3584 
L 1991 3584 
z
" transform="scale(0.015625)"/>
       <path id="DejaVuSans-66" d="M 2375 4863 
L 2375 4384 
L 1825 4384 
Q 1516 4384 1395 4259 
Q 1275 4134 1275 3809 
L 1275 3500 
L 2222 3500 
L 2222 3053 
L 1275 3053 
L 1275 0 
L 697 0 
L 697 3053 
L 147 3053 
L 147 3500 
L 697 3500 
L 697 3744 
Q 697 4328 969 4595 
Q 1241 4863 1831 4863 
L 2375 4863 
z
" transform="scale(0.015625)"/>
       <path id="DejaVuSans-5d" d="M 1947 4863 
L 1947 -844 
L 622 -844 
L 622 -397 
L 1369 -397 
L 1369 4416 
L 622 4416 
L 622 4863 
L 1947 4863 
z
" transform="scale(0.015625)"/>
      </defs>
      <use xlink:href="#DejaVuSans-5b"/>
      <use xlink:href="#DejaVuSans-62" x="39.013672"/>
      <use xlink:href="#DejaVuSans-75" x="102.490234"/>
      <use xlink:href="#DejaVuSans-66" x="165.869141"/>
      <use xlink:href="#DejaVuSans-66" x="201.074219"/>
      <use xlink:href="#DejaVuSans-65" x="236.279297"/>
      <use xlink:href="#DejaVuSans-72" x="297.802734"/>
      <use xlink:href="#DejaVuSans-5d" x="338.916016"/>
      <use xlink:href="#DejaVuSans-20" x="377.929688"/>
      <use xlink:href="#DejaVuSans-28" x="409.716797"/>
      <use xlink:href="#DejaVuSans-6d" x="448.730469"/>
      <use xlink:href="#DejaVuSans-4d" x="546.142578"/>
      <use xlink:href="#DejaVuSans-29" x="632.421875"/>
     </g>
    </g>
   </g>
   <g id="matplotlib.axis_8">
    <g id="ytick_7">
     <g id="line2d_25">
      <g>
       <use xlink:href="#m80ecf6fa8b" x="23.773543" y="159.882737" style="stroke: #000000"/>
      </g>
     </g>
     <g id="text_25">
      <!-- 0 -->
      <g transform="translate(13.319793 162.54219) scale(0.07 -0.07)">
       <use xlink:href="#DejaVuSans-30"/>
      </g>
     </g>
    </g>
    <g id="ytick_8">
     <g id="line2d_26">
      <g>
       <use xlink:href="#m80ecf6fa8b" x="23.773543" y="113.887785" style="stroke: #000000"/>
      </g>
     </g>
     <g id="text_26">
      <!-- 1 -->
      <g transform="translate(13.319793 116.547238) scale(0.07 -0.07)">
       <defs>
        <path id="DejaVuSans-31" d="M 794 531 
L 1825 531 
L 1825 4091 
L 703 3866 
L 703 4441 
L 1819 4666 
L 2450 4666 
L 2450 531 
L 3481 531 
L 3481 0 
L 794 0 
L 794 531 
z
" transform="scale(0.015625)"/>
       </defs>
       <use xlink:href="#DejaVuSans-31"/>
      </g>
     </g>
    </g>
    <g id="text_27">
     <!-- plasticity -->
     <g transform="translate(12.864012 152.732605) rotate(-90) scale(0.07 -0.07)">
      <defs>
       <path id="DejaVuSans-79" d="M 2059 -325 
Q 1816 -950 1584 -1140 
Q 1353 -1331 966 -1331 
L 506 -1331 
L 506 -850 
L 844 -850 
Q 1081 -850 1212 -737 
Q 1344 -625 1503 -206 
L 1606 56 
L 191 3500 
L 800 3500 
L 1894 763 
L 2988 3500 
L 3597 3500 
L 2059 -325 
z
" transform="scale(0.015625)"/>
      </defs>
      <use xlink:href="#DejaVuSans-70"/>
      <use xlink:href="#DejaVuSans-6c" x="63.476562"/>
      <use xlink:href="#DejaVuSans-61" x="91.259766"/>
      <use xlink:href="#DejaVuSans-73" x="152.539062"/>
      <use xlink:href="#DejaVuSans-74" x="204.638672"/>
      <use xlink:href="#DejaVuSans-69" x="243.847656"/>
      <use xlink:href="#DejaVuSans-63" x="271.630859"/>
      <use xlink:href="#DejaVuSans-69" x="326.611328"/>
      <use xlink:href="#DejaVuSans-74" x="354.394531"/>
      <use xlink:href="#DejaVuSans-79" x="393.603516"/>
     </g>
    </g>
   </g>
   <g id="patch_11">
    <path d="M 23.773543 159.882737 
L 23.773543 113.887785 
" style="fill: none; stroke: #000000; stroke-linejoin: miter; stroke-linecap: square"/>
   </g>
   <g id="patch_12">
    <path d="M 28.681493 174.969082 
L 94.945646 174.969082 
" style="fill: none; stroke: #000000; stroke-linejoin: miter; stroke-linecap: square"/>
   </g>
   <g id="text_28">
    <!-- LTP ($\propto I_{NMDAR}$) -->
    <g transform="translate(48.560739 120.418842) scale(0.07 -0.07)">
     <defs>
      <path id="DejaVuSans-4c" d="M 628 4666 
L 1259 4666 
L 1259 531 
L 3531 531 
L 3531 0 
L 628 0 
L 628 4666 
z
" transform="scale(0.015625)"/>
      <path id="DejaVuSans-221d" d="M 1647 1134 
Q 2163 1134 2472 1884 
Q 2075 2703 1647 2703 
Q 1334 2703 1175 2478 
Q 1006 2238 1006 1919 
Q 1006 1569 1175 1353 
Q 1350 1134 1647 1134 
z
M 3884 1128 
L 3884 716 
L 3644 716 
Q 3416 716 3247 809 
Q 3078 894 2916 1091 
Q 2819 1203 2666 1466 
Q 2456 1091 2272 925 
Q 2044 725 1681 725 
Q 1259 725 981 1041 
Q 688 1372 688 1919 
Q 688 2444 981 2800 
Q 1241 3116 1688 3116 
Q 1916 3116 2084 3022 
Q 2281 2919 2416 2741 
Q 2541 2581 2666 2366 
Q 2875 2741 3059 2906 
Q 3288 3106 3650 3106 
L 3884 3106 
L 3884 2697 
L 3684 2697 
Q 3222 2697 2859 1947 
Q 3256 1128 3684 1128 
L 3884 1128 
z
" transform="scale(0.015625)"/>
      <path id="DejaVuSans-Oblique-49" d="M 1081 4666 
L 1716 4666 
L 806 0 
L 172 0 
L 1081 4666 
z
" transform="scale(0.015625)"/>
      <path id="DejaVuSans-Oblique-4e" d="M 1081 4666 
L 1931 4666 
L 3219 666 
L 4000 4666 
L 4616 4666 
L 3706 0 
L 2853 0 
L 1569 4025 
L 788 0 
L 172 0 
L 1081 4666 
z
" transform="scale(0.015625)"/>
      <path id="DejaVuSans-Oblique-4d" d="M 1081 4666 
L 2028 4666 
L 2572 1522 
L 4378 4666 
L 5350 4666 
L 4441 0 
L 3828 0 
L 4622 4091 
L 2791 897 
L 2175 897 
L 1581 4103 
L 788 0 
L 172 0 
L 1081 4666 
z
" transform="scale(0.015625)"/>
      <path id="DejaVuSans-Oblique-44" d="M 1081 4666 
L 2438 4666 
Q 3519 4666 4070 4208 
Q 4622 3750 4622 2847 
Q 4622 2250 4412 1698 
Q 4203 1147 3834 769 
Q 3463 381 2891 190 
Q 2319 0 1538 0 
L 172 0 
L 1081 4666 
z
M 1613 4147 
L 909 519 
L 1734 519 
Q 2794 519 3375 1128 
Q 3956 1738 3956 2847 
Q 3956 3519 3581 3833 
Q 3206 4147 2406 4147 
L 1613 4147 
z
" transform="scale(0.015625)"/>
      <path id="DejaVuSans-Oblique-41" d="M 2356 4666 
L 3072 4666 
L 3938 0 
L 3278 0 
L 3084 1197 
L 984 1197 
L 325 0 
L -341 0 
L 2356 4666 
z
M 2584 4044 
L 1275 1722 
L 2988 1722 
L 2584 4044 
z
" transform="scale(0.015625)"/>
      <path id="DejaVuSans-Oblique-52" d="M 1613 4147 
L 1294 2491 
L 2106 2491 
Q 2584 2491 2879 2755 
Q 3175 3019 3175 3444 
Q 3175 3784 2976 3965 
Q 2778 4147 2406 4147 
L 1613 4147 
z
M 2772 2241 
Q 2972 2194 3105 2009 
Q 3238 1825 3413 1275 
L 3809 0 
L 3144 0 
L 2778 1197 
Q 2638 1659 2453 1815 
Q 2269 1972 1888 1972 
L 1191 1972 
L 806 0 
L 172 0 
L 1081 4666 
L 2503 4666 
Q 3150 4666 3495 4373 
Q 3841 4081 3841 3531 
Q 3841 3044 3547 2687 
Q 3253 2331 2772 2241 
z
" transform="scale(0.015625)"/>
     </defs>
     <use xlink:href="#DejaVuSans-4c" transform="translate(0 0.125)"/>
     <use xlink:href="#DejaVuSans-54" transform="translate(55.712891 0.125)"/>
     <use xlink:href="#DejaVuSans-50" transform="translate(116.796875 0.125)"/>
     <use xlink:href="#DejaVuSans-20" transform="translate(177.099609 0.125)"/>
     <use xlink:href="#DejaVuSans-28" transform="translate(208.886719 0.125)"/>
     <use xlink:href="#DejaVuSans-221d" transform="translate(267.382812 0.125)"/>
     <use xlink:href="#DejaVuSans-Oblique-49" transform="translate(358.300781 0.125)"/>
     <use xlink:href="#DejaVuSans-Oblique-4e" transform="translate(387.792969 -16.28125) scale(0.7)"/>
     <use xlink:href="#DejaVuSans-Oblique-4d" transform="translate(440.15625 -16.28125) scale(0.7)"/>
     <use xlink:href="#DejaVuSans-Oblique-44" transform="translate(500.551758 -16.28125) scale(0.7)"/>
     <use xlink:href="#DejaVuSans-Oblique-41" transform="translate(554.453125 -16.28125) scale(0.7)"/>
     <use xlink:href="#DejaVuSans-Oblique-52" transform="translate(602.338867 -16.28125) scale(0.7)"/>
     <use xlink:href="#DejaVuSans-29" transform="translate(653.710938 0.125)"/>
    </g>
   </g>
   <g id="text_29">
    <!-- LTD ($\propto I_{VGCC}$) -->
    <g style="fill: #9370db" transform="translate(48.560739 127.318085) scale(0.07 -0.07)">
     <defs>
      <path id="DejaVuSans-Oblique-56" d="M 1319 0 
L 500 4666 
L 1119 4666 
L 1797 653 
L 4063 4666 
L 4750 4666 
L 2053 0 
L 1319 0 
z
" transform="scale(0.015625)"/>
      <path id="DejaVuSans-Oblique-47" d="M 3494 697 
L 3738 1919 
L 2700 1919 
L 2797 2438 
L 4453 2438 
L 4050 384 
Q 3634 156 3143 32 
Q 2653 -91 2156 -91 
Q 1278 -91 783 396 
Q 288 884 288 1753 
Q 288 2475 589 3126 
Q 891 3778 1422 4213 
Q 1756 4484 2153 4617 
Q 2550 4750 3034 4750 
Q 3472 4750 3873 4639 
Q 4275 4528 4641 4306 
L 4513 3634 
Q 4231 3928 3853 4083 
Q 3475 4238 3047 4238 
Q 2550 4238 2172 4048 
Q 1794 3859 1497 3463 
Q 1244 3125 1098 2667 
Q 953 2209 953 1734 
Q 953 1081 1287 751 
Q 1622 422 2284 422 
Q 2616 422 2925 492 
Q 3234 563 3494 697 
z
" transform="scale(0.015625)"/>
      <path id="DejaVuSans-Oblique-43" d="M 4447 4306 
L 4319 3641 
Q 4019 3944 3683 4091 
Q 3347 4238 2956 4238 
Q 2422 4238 2017 3981 
Q 1613 3725 1319 3200 
Q 1131 2863 1032 2486 
Q 934 2109 934 1728 
Q 934 1091 1264 756 
Q 1594 422 2222 422 
Q 2656 422 3056 561 
Q 3456 700 3834 978 
L 3688 231 
Q 3316 72 2936 -9 
Q 2556 -91 2175 -91 
Q 1278 -91 773 396 
Q 269 884 269 1753 
Q 269 2309 461 2846 
Q 653 3384 1013 3828 
Q 1394 4300 1883 4525 
Q 2372 4750 3022 4750 
Q 3422 4750 3780 4639 
Q 4138 4528 4447 4306 
z
" transform="scale(0.015625)"/>
     </defs>
     <use xlink:href="#DejaVuSans-4c" transform="translate(0 0.125)"/>
     <use xlink:href="#DejaVuSans-54" transform="translate(55.712891 0.125)"/>
     <use xlink:href="#DejaVuSans-44" transform="translate(116.796875 0.125)"/>
     <use xlink:href="#DejaVuSans-20" transform="translate(193.798828 0.125)"/>
     <use xlink:href="#DejaVuSans-28" transform="translate(225.585938 0.125)"/>
     <use xlink:href="#DejaVuSans-221d" transform="translate(284.082031 0.125)"/>
     <use xlink:href="#DejaVuSans-Oblique-49" transform="translate(375 0.125)"/>
     <use xlink:href="#DejaVuSans-Oblique-56" transform="translate(404.492188 -16.28125) scale(0.7)"/>
     <use xlink:href="#DejaVuSans-Oblique-47" transform="translate(452.37793 -16.28125) scale(0.7)"/>
     <use xlink:href="#DejaVuSans-Oblique-43" transform="translate(506.621094 -16.28125) scale(0.7)"/>
     <use xlink:href="#DejaVuSans-Oblique-43" transform="translate(555.498047 -16.28125) scale(0.7)"/>
     <use xlink:href="#DejaVuSans-29" transform="translate(607.109375 0.125)"/>
    </g>
   </g>
   <g id="line2d_27">
    <path d="M 28.681493 113.536867 
L 29.344135 114.015167 
L 30.006776 114.510498 
L 30.669418 115.023036 
L 31.332059 115.552918 
L 31.994701 116.100242 
L 32.657342 116.665057 
L 33.319984 117.247365 
L 33.982625 117.847118 
L 34.645267 118.464211 
L 35.307908 119.098482 
L 35.97055 119.749711 
L 36.633191 120.417614 
L 37.295833 121.101845 
L 37.958475 121.801991 
L 38.621116 122.517575 
L 39.283758 123.248051 
L 39.946399 123.992808 
L 40.609041 124.75117 
L 41.271682 125.522395 
L 41.934324 126.305677 
L 42.596965 127.100152 
L 43.259607 127.904897 
L 43.922248 128.718936 
L 44.58489 129.541242 
L 45.247531 130.370745 
L 45.910173 131.206334 
L 46.572814 132.046865 
L 47.235456 132.891164 
L 47.898098 133.738038 
L 48.560739 134.58628 
L 49.223381 135.434672 
L 49.886022 136.281997 
L 50.548664 137.127044 
L 51.211305 137.968616 
L 51.873947 138.805534 
L 52.536588 139.636645 
L 53.19923 140.460831 
L 53.861871 141.277011 
L 54.524513 142.084145 
L 55.187154 142.881246 
L 55.849796 143.667378 
L 56.512437 144.441659 
L 57.175079 145.203271 
L 57.837721 145.951456 
L 58.500362 146.685521 
L 59.163004 147.404838 
L 59.825645 148.108846 
L 60.488287 148.797051 
L 61.150928 149.469024 
L 61.81357 150.124402 
L 62.476211 150.762887 
L 63.138853 151.384242 
L 63.801494 151.988292 
L 64.464136 152.574918 
L 65.126777 153.144058 
L 65.789419 153.695702 
L 66.45206 154.229887 
L 67.114702 154.7467 
L 67.777343 155.246268 
L 68.439985 155.728758 
L 69.102627 156.194374 
L 69.765268 156.643352 
L 70.42791 157.075958 
L 71.090551 157.492483 
L 71.753193 157.893243 
L 72.415834 158.278573 
L 73.078476 158.648826 
L 73.741117 159.004368 
L 74.403759 159.345578 
L 75.0664 159.672846 
L 75.729042 159.986566 
L 76.391683 160.287141 
L 77.054325 160.574974 
L 77.716966 160.850472 
L 78.379608 161.11404 
L 79.04225 161.366082 
L 79.704891 161.606999 
L 80.367533 161.837189 
L 81.030174 162.057044 
L 81.692816 162.266949 
L 82.355457 162.467283 
L 83.018099 162.658419 
L 83.68074 162.840719 
L 84.343382 163.014538 
L 85.006023 163.180222 
L 85.668665 163.338107 
L 86.331306 163.488521 
L 86.993948 163.63178 
L 87.656589 163.768192 
L 88.319231 163.898054 
L 88.981873 164.021653 
L 89.644514 164.139267 
L 90.307156 164.251162 
L 90.969797 164.357598 
L 91.632439 164.458822 
L 92.29508 164.555073 
L 92.957722 164.646581 
L 93.620363 164.733565 
L 94.283005 164.816237 
L 94.945646 164.8948 
" clip-path="url(#p489f75ca1e)" style="fill: none; stroke: #000000; stroke-linecap: square"/>
   </g>
   <g id="line2d_28">
    <path d="M 28.681493 112.852755 
L 29.344135 112.910527 
L 30.006776 112.988769 
L 30.669418 113.094632 
L 31.332059 113.23768 
L 31.994701 113.430634 
L 32.657342 113.69029 
L 33.319984 114.038592 
L 33.982625 114.503809 
L 34.645267 115.12165 
L 35.307908 115.935992 
L 35.97055 116.998681 
L 36.633191 118.367552 
L 37.295833 120.101607 
L 37.958475 122.252367 
L 38.621116 124.851176 
L 39.283758 127.894048 
L 39.946399 131.328248 
L 40.609041 135.046926 
L 41.271682 138.897419 
L 41.934324 142.704004 
L 42.596965 146.298768 
L 43.259607 149.549669 
L 43.922248 152.376497 
L 44.58489 154.751926 
L 45.247531 156.691338 
L 45.910173 158.23785 
L 46.572814 159.448024 
L 47.235456 160.381111 
L 47.898098 161.092385 
L 48.560739 161.62987 
L 49.223381 162.03336 
L 49.886022 162.334763 
L 50.548664 162.559076 
L 51.211305 162.725556 
L 51.873947 162.848862 
L 52.536588 162.940052 
L 53.19923 163.007415 
L 53.861871 163.057135 
L 54.524513 163.093812 
L 55.187154 163.120854 
L 55.849796 163.140785 
L 56.512437 163.155473 
L 57.175079 163.166294 
L 57.837721 163.174265 
L 58.500362 163.180137 
L 59.163004 163.184462 
L 59.825645 163.187647 
L 60.488287 163.189993 
L 61.150928 163.19172 
L 61.81357 163.192992 
L 62.476211 163.193929 
L 63.138853 163.194619 
L 63.801494 163.195127 
L 64.464136 163.195501 
L 65.126777 163.195777 
L 65.789419 163.195979 
L 66.45206 163.196129 
L 67.114702 163.196239 
L 67.777343 163.19632 
L 68.439985 163.196379 
L 69.102627 163.196423 
L 69.765268 163.196456 
L 70.42791 163.19648 
L 71.090551 163.196497 
L 71.753193 163.19651 
L 72.415834 163.19652 
L 73.078476 163.196527 
L 73.741117 163.196532 
L 74.403759 163.196536 
L 75.0664 163.196538 
L 75.729042 163.19654 
L 76.391683 163.196542 
L 77.054325 163.196543 
L 77.716966 163.196544 
L 78.379608 163.196544 
L 79.04225 163.196545 
L 79.704891 163.196545 
L 80.367533 163.196545 
L 81.030174 163.196546 
L 81.692816 163.196546 
L 82.355457 163.196546 
L 83.018099 163.196546 
L 83.68074 163.196546 
L 84.343382 163.196546 
L 85.006023 163.196546 
L 85.668665 163.196546 
L 86.331306 163.196546 
L 86.993948 163.196546 
L 87.656589 163.196546 
L 88.319231 163.196546 
L 88.981873 163.196546 
L 89.644514 163.196546 
L 90.307156 163.196546 
L 90.969797 163.196546 
L 91.632439 163.196546 
L 92.29508 163.196546 
L 92.957722 163.196546 
L 93.620363 163.196546 
L 94.283005 163.196546 
L 94.945646 163.196546 
" clip-path="url(#p489f75ca1e)" style="fill: none; stroke: #9370db; stroke-linecap: square"/>
   </g>
   <g id="line2d_29">
    <defs>
     <path id="md2ed50bb94" d="M 0 1.5 
C 0.397805 1.5 0.77937 1.341951 1.06066 1.06066 
C 1.341951 0.77937 1.5 0.397805 1.5 0 
C 1.5 -0.397805 1.341951 -0.77937 1.06066 -1.06066 
C 0.77937 -1.341951 0.397805 -1.5 0 -1.5 
C -0.397805 -1.5 -0.77937 -1.341951 -1.06066 -1.06066 
C -1.341951 -0.77937 -1.5 -0.397805 -1.5 0 
C -1.5 0.397805 -1.341951 0.77937 -1.06066 1.06066 
C -0.77937 1.341951 -0.397805 1.5 0 1.5 
z
" style="stroke: #000000; stroke-opacity: 0"/>
    </defs>
    <g clip-path="url(#p489f75ca1e)">
     <use xlink:href="#md2ed50bb94" x="28.978642" y="113.749246" style="stroke: #000000; stroke-opacity: 0"/>
     <use xlink:href="#md2ed50bb94" x="45.250216" y="130.373927" style="stroke: #000000; stroke-opacity: 0"/>
     <use xlink:href="#md2ed50bb94" x="61.81357" y="148.24546" style="stroke: #000000; stroke-opacity: 0"/>
     <use xlink:href="#md2ed50bb94" x="94.71294" y="167.779461" style="stroke: #000000; stroke-opacity: 0"/>
     <use xlink:href="#md2ed50bb94" x="28.978642" y="113.749246" style="stroke: #000000; stroke-opacity: 0"/>
     <use xlink:href="#md2ed50bb94" x="45.250216" y="130.373927" style="stroke: #000000; stroke-opacity: 0"/>
     <use xlink:href="#md2ed50bb94" x="61.797459" y="151.986013" style="stroke: #000000; stroke-opacity: 0"/>
     <use xlink:href="#md2ed50bb94" x="94.738" y="161.960822" style="stroke: #000000; stroke-opacity: 0"/>
    </g>
   </g>
   <g id="line2d_30">
    <defs>
     <path id="mc00d81cf8a" d="M 0 1.5 
C 0.397805 1.5 0.77937 1.341951 1.06066 1.06066 
C 1.341951 0.77937 1.5 0.397805 1.5 0 
C 1.5 -0.397805 1.341951 -0.77937 1.06066 -1.06066 
C 0.77937 -1.341951 0.397805 -1.5 0 -1.5 
C -0.397805 -1.5 -0.77937 -1.341951 -1.06066 -1.06066 
C -1.341951 -0.77937 -1.5 -0.397805 -1.5 0 
C -1.5 0.397805 -1.341951 0.77937 -1.06066 1.06066 
C -0.77937 1.341951 -0.397805 1.5 0 1.5 
z
" style="stroke: #000000; stroke-opacity: 0"/>
    </defs>
    <g clip-path="url(#p489f75ca1e)">
     <use xlink:href="#mc00d81cf8a" x="28.383006" y="113.36748" style="fill: #9370db; stroke: #000000; stroke-opacity: 0"/>
     <use xlink:href="#mc00d81cf8a" x="31.964852" y="107.956309" style="fill: #9370db; stroke: #000000; stroke-opacity: 0"/>
     <use xlink:href="#mc00d81cf8a" x="36.740647" y="117.113675" style="fill: #9370db; stroke: #000000; stroke-opacity: 0"/>
     <use xlink:href="#mc00d81cf8a" x="45.098288" y="157.489335" style="fill: #9370db; stroke: #000000; stroke-opacity: 0"/>
     <use xlink:href="#mc00d81cf8a" x="61.81357" y="164.565481" style="fill: #9370db; stroke: #000000; stroke-opacity: 0"/>
     <use xlink:href="#mc00d81cf8a" x="94.945646" y="161.651774" style="fill: #9370db; stroke: #000000; stroke-opacity: 0"/>
     <use xlink:href="#mc00d81cf8a" x="28.383006" y="113.783724" style="fill: #9370db; stroke: #000000; stroke-opacity: 0"/>
     <use xlink:href="#mc00d81cf8a" x="31.964852" y="117.113675" style="fill: #9370db; stroke: #000000; stroke-opacity: 0"/>
     <use xlink:href="#mc00d81cf8a" x="36.740647" y="120.443626" style="fill: #9370db; stroke: #000000; stroke-opacity: 0"/>
     <use xlink:href="#mc00d81cf8a" x="45.098288" y="154.991871" style="fill: #9370db; stroke: #000000; stroke-opacity: 0"/>
     <use xlink:href="#mc00d81cf8a" x="61.81357" y="169.144164" style="fill: #9370db; stroke: #000000; stroke-opacity: 0"/>
     <use xlink:href="#mc00d81cf8a" x="94.945646" y="157.489335" style="fill: #9370db; stroke: #000000; stroke-opacity: 0"/>
    </g>
   </g>
  </g>
  <g id="axes_5">
   <g id="patch_13">
    <path d="M 131.595298 173.681223 
L 204.814203 173.681223 
L 204.814203 100.089299 
L 131.595298 100.089299 
L 131.595298 173.681223 
z
" style="fill: none"/>
   </g>
   <g id="matplotlib.axis_9">
    <g id="xtick_9">
     <g id="line2d_31">
      <g>
       <use xlink:href="#m9e27365fea" x="134.778729" y="174.969082" style="stroke: #000000"/>
      </g>
     </g>
     <g id="text_30">
      <!-- −70 -->
      <g transform="translate(127.392088 186.287988) scale(0.07 -0.07)">
       <use xlink:href="#DejaVuSans-2212"/>
       <use xlink:href="#DejaVuSans-37" x="83.789062"/>
       <use xlink:href="#DejaVuSans-30" x="147.412109"/>
      </g>
     </g>
    </g>
    <g id="xtick_10">
     <g id="line2d_32">
      <g>
       <use xlink:href="#m9e27365fea" x="204.814203" y="174.969082" style="stroke: #000000"/>
      </g>
     </g>
     <g id="text_31">
      <!-- 40 -->
      <g transform="translate(200.360453 186.287988) scale(0.07 -0.07)">
       <use xlink:href="#DejaVuSans-34"/>
       <use xlink:href="#DejaVuSans-30" x="63.623047"/>
      </g>
     </g>
    </g>
    <g id="text_32">
     <!-- AP Peak (mV) -->
     <g transform="translate(144.632251 188.062675) scale(0.07 -0.07)">
      <defs>
       <path id="DejaVuSans-6b" d="M 581 4863 
L 1159 4863 
L 1159 1991 
L 2875 3500 
L 3609 3500 
L 1753 1863 
L 3688 0 
L 2938 0 
L 1159 1709 
L 1159 0 
L 581 0 
L 581 4863 
z
" transform="scale(0.015625)"/>
      </defs>
      <use xlink:href="#DejaVuSans-41"/>
      <use xlink:href="#DejaVuSans-50" x="68.408203"/>
      <use xlink:href="#DejaVuSans-20" x="128.710938"/>
      <use xlink:href="#DejaVuSans-50" x="160.498047"/>
      <use xlink:href="#DejaVuSans-65" x="217.175781"/>
      <use xlink:href="#DejaVuSans-61" x="278.699219"/>
      <use xlink:href="#DejaVuSans-6b" x="339.978516"/>
      <use xlink:href="#DejaVuSans-20" x="397.888672"/>
      <use xlink:href="#DejaVuSans-28" x="429.675781"/>
      <use xlink:href="#DejaVuSans-6d" x="468.689453"/>
      <use xlink:href="#DejaVuSans-56" x="566.101562"/>
      <use xlink:href="#DejaVuSans-29" x="634.509766"/>
     </g>
    </g>
   </g>
   <g id="matplotlib.axis_10">
    <g id="ytick_9">
     <g id="line2d_33">
      <g>
       <use xlink:href="#m80ecf6fa8b" x="130.369678" y="167.548563" style="stroke: #000000"/>
      </g>
     </g>
     <g id="text_33">
      <!-- 0 -->
      <g transform="translate(119.915928 170.208016) scale(0.07 -0.07)">
       <use xlink:href="#DejaVuSans-30"/>
      </g>
     </g>
    </g>
    <g id="ytick_10">
     <g id="line2d_34">
      <g>
       <use xlink:href="#m80ecf6fa8b" x="130.369678" y="106.221959" style="stroke: #000000"/>
      </g>
     </g>
     <g id="text_34">
      <!-- 1 -->
      <g transform="translate(119.915928 108.881412) scale(0.07 -0.07)">
       <use xlink:href="#DejaVuSans-31"/>
      </g>
     </g>
    </g>
    <g id="text_35">
     <!-- plasticity -->
     <g transform="translate(119.460146 152.732605) rotate(-90) scale(0.07 -0.07)">
      <use xlink:href="#DejaVuSans-70"/>
      <use xlink:href="#DejaVuSans-6c" x="63.476562"/>
      <use xlink:href="#DejaVuSans-61" x="91.259766"/>
      <use xlink:href="#DejaVuSans-73" x="152.539062"/>
      <use xlink:href="#DejaVuSans-74" x="204.638672"/>
      <use xlink:href="#DejaVuSans-69" x="243.847656"/>
      <use xlink:href="#DejaVuSans-63" x="271.630859"/>
      <use xlink:href="#DejaVuSans-69" x="326.611328"/>
      <use xlink:href="#DejaVuSans-74" x="354.394531"/>
      <use xlink:href="#DejaVuSans-79" x="393.603516"/>
     </g>
    </g>
   </g>
   <g id="line2d_35">
    <path d="M 134.778729 167.548563 
L 144.033816 167.548563 
L 144.193386 167.374953 
L 145.310379 161.914867 
L 149.778352 138.832746 
L 151.214486 133.19778 
L 152.331479 129.537023 
L 154.086754 124.911443 
L 155.203748 122.516609 
L 156.480311 120.198691 
L 157.916445 118.115594 
L 160.150432 115.564759 
L 162.703559 113.470909 
L 167.171532 111.178419 
L 168.128955 110.819871 
L 173.39478 109.620954 
L 174.033062 109.545528 
L 175.150055 109.395378 
L 176.426619 109.320653 
L 177.224471 109.246161 
L 183.76686 109.320653 
L 184.564712 109.395378 
L 185.522135 109.470336 
L 186.479557 109.583212 
L 187.117839 109.658754 
L 188.394403 109.84863 
L 189.032685 109.924989 
L 190.94753 110.27149 
L 191.426242 110.349131 
L 198.447342 112.157462 
L 198.447342 112.157462 
" clip-path="url(#p2718b94f20)" style="fill: none; stroke: #000000; stroke-linecap: square"/>
   </g>
   <g id="line2d_36">
    <path d="M 134.778729 167.548563 
L 177.703182 167.442466 
L 178.181894 163.963739 
L 178.820175 157.013088 
L 179.618028 145.385535 
L 181.213732 124.040513 
L 182.011585 117.374735 
L 182.809437 113.170652 
L 183.447719 110.870875 
L 184.245571 109.015268 
L 184.883853 108.011703 
L 185.362564 107.426386 
L 186.319987 106.62019 
L 187.117839 106.17392 
L 187.915691 105.84384 
L 189.351826 105.474215 
L 190.78796 105.243211 
L 193.819798 104.994159 
L 198.447342 104.841919 
L 198.447342 104.841919 
" clip-path="url(#p2718b94f20)" style="fill: none; stroke: #9370db; stroke-linecap: square"/>
   </g>
   <g id="patch_14">
    <path d="M 130.369678 167.548563 
L 130.369678 106.221959 
" style="fill: none; stroke: #000000; stroke-linejoin: miter; stroke-linecap: square"/>
   </g>
   <g id="patch_15">
    <path d="M 134.778729 174.969082 
L 204.814203 174.969082 
" style="fill: none; stroke: #000000; stroke-linejoin: miter; stroke-linecap: square"/>
   </g>
  </g>
  <g id="axes_6">
   <g id="patch_16">
    <path d="M 242.589473 173.681223 
L 315.808377 173.681223 
L 315.808377 100.089299 
L 242.589473 100.089299 
L 242.589473 173.681223 
z
" style="fill: none"/>
   </g>
   <g id="line2d_37">
    <path d="M 248.691048 112.157462 
L 279.198925 110.46603 
L 309.706802 112.956 
" clip-path="url(#p37f31a3c2b)" style="fill: none; stroke: #000000; stroke-linecap: square"/>
    <defs>
     <path id="m66b048e3c0" d="M 0 1.5 
C 0.397805 1.5 0.77937 1.341951 1.06066 1.06066 
C 1.341951 0.77937 1.5 0.397805 1.5 0 
C 1.5 -0.397805 1.341951 -0.77937 1.06066 -1.06066 
C 0.77937 -1.341951 0.397805 -1.5 0 -1.5 
C -0.397805 -1.5 -0.77937 -1.341951 -1.06066 -1.06066 
C -1.341951 -0.77937 -1.5 -0.397805 -1.5 0 
C -1.5 0.397805 -1.341951 0.77937 -1.06066 1.06066 
C -0.77937 1.341951 -0.397805 1.5 0 1.5 
z
" style="stroke: #000000"/>
    </defs>
    <g clip-path="url(#p37f31a3c2b)">
     <use xlink:href="#m66b048e3c0" x="248.691048" y="112.157462" style="stroke: #000000"/>
     <use xlink:href="#m66b048e3c0" x="279.198925" y="110.46603" style="stroke: #000000"/>
     <use xlink:href="#m66b048e3c0" x="309.706802" y="112.956" style="stroke: #000000"/>
    </g>
   </g>
   <g id="line2d_38">
    <path d="M 248.691048 106.221959 
L 279.198925 106.221959 
L 309.706802 167.548563 
" clip-path="url(#p37f31a3c2b)" style="fill: none; stroke: #9370db; stroke-linecap: square"/>
    <defs>
     <path id="m55ea4ca7f5" d="M 0 1.5 
C 0.397805 1.5 0.77937 1.341951 1.06066 1.06066 
C 1.341951 0.77937 1.5 0.397805 1.5 0 
C 1.5 -0.397805 1.341951 -0.77937 1.06066 -1.06066 
C 0.77937 -1.341951 0.397805 -1.5 0 -1.5 
C -0.397805 -1.5 -0.77937 -1.341951 -1.06066 -1.06066 
C -1.341951 -0.77937 -1.5 -0.397805 -1.5 0 
C -1.5 0.397805 -1.341951 0.77937 -1.06066 1.06066 
C -0.77937 1.341951 -0.397805 1.5 0 1.5 
z
" style="stroke: #9370db"/>
    </defs>
    <g clip-path="url(#p37f31a3c2b)">
     <use xlink:href="#m55ea4ca7f5" x="248.691048" y="106.221959" style="fill: #9370db; stroke: #9370db"/>
     <use xlink:href="#m55ea4ca7f5" x="279.198925" y="106.221959" style="fill: #9370db; stroke: #9370db"/>
     <use xlink:href="#m55ea4ca7f5" x="309.706802" y="167.548563" style="fill: #9370db; stroke: #9370db"/>
    </g>
   </g>
   <g id="matplotlib.axis_11">
    <g id="xtick_11">
     <g id="line2d_39">
      <g>
       <use xlink:href="#m9e27365fea" x="248.691048" y="174.969082" style="stroke: #000000"/>
      </g>
     </g>
     <g id="text_36">
      <!-- proximal -->
      <g transform="translate(230.977913 206.204286) rotate(-45) scale(0.07 -0.07)">
       <use xlink:href="#DejaVuSans-70"/>
       <use xlink:href="#DejaVuSans-72" x="63.476562"/>
       <use xlink:href="#DejaVuSans-6f" x="102.339844"/>
       <use xlink:href="#DejaVuSans-78" x="160.396484"/>
       <use xlink:href="#DejaVuSans-69" x="219.576172"/>
       <use xlink:href="#DejaVuSans-6d" x="247.359375"/>
       <use xlink:href="#DejaVuSans-61" x="344.771484"/>
       <use xlink:href="#DejaVuSans-6c" x="406.050781"/>
      </g>
     </g>
    </g>
    <g id="xtick_12">
     <g id="line2d_40">
      <g>
       <use xlink:href="#m9e27365fea" x="279.198925" y="174.969082" style="stroke: #000000"/>
      </g>
     </g>
     <g id="text_37">
      <!-- distal -->
      <g transform="translate(269.515208 198.174868) rotate(-45) scale(0.07 -0.07)">
       <use xlink:href="#DejaVuSans-64"/>
       <use xlink:href="#DejaVuSans-69" x="63.476562"/>
       <use xlink:href="#DejaVuSans-73" x="91.259766"/>
       <use xlink:href="#DejaVuSans-74" x="143.359375"/>
       <use xlink:href="#DejaVuSans-61" x="182.568359"/>
       <use xlink:href="#DejaVuSans-6c" x="243.847656"/>
      </g>
      <!-- simple -->
      <g transform="translate(272.164561 206.610784) rotate(-45) scale(0.07 -0.07)">
       <use xlink:href="#DejaVuSans-73"/>
       <use xlink:href="#DejaVuSans-69" x="52.099609"/>
       <use xlink:href="#DejaVuSans-6d" x="79.882812"/>
       <use xlink:href="#DejaVuSans-70" x="177.294922"/>
       <use xlink:href="#DejaVuSans-6c" x="240.771484"/>
       <use xlink:href="#DejaVuSans-65" x="268.554688"/>
      </g>
     </g>
    </g>
    <g id="xtick_13">
     <g id="line2d_41">
      <g>
       <use xlink:href="#m9e27365fea" x="309.706802" y="174.969082" style="stroke: #000000"/>
      </g>
     </g>
     <g id="text_38">
      <!-- distal -->
      <g transform="translate(300.023085 198.174868) rotate(-45) scale(0.07 -0.07)">
       <use xlink:href="#DejaVuSans-64"/>
       <use xlink:href="#DejaVuSans-69" x="63.476562"/>
       <use xlink:href="#DejaVuSans-73" x="91.259766"/>
       <use xlink:href="#DejaVuSans-74" x="143.359375"/>
       <use xlink:href="#DejaVuSans-61" x="182.568359"/>
       <use xlink:href="#DejaVuSans-6c" x="243.847656"/>
      </g>
      <!-- complex -->
      <g transform="translate(298.032823 211.250399) rotate(-45) scale(0.07 -0.07)">
       <use xlink:href="#DejaVuSans-63"/>
       <use xlink:href="#DejaVuSans-6f" x="54.980469"/>
       <use xlink:href="#DejaVuSans-6d" x="116.162109"/>
       <use xlink:href="#DejaVuSans-70" x="213.574219"/>
       <use xlink:href="#DejaVuSans-6c" x="277.050781"/>
       <use xlink:href="#DejaVuSans-65" x="304.833984"/>
       <use xlink:href="#DejaVuSans-78" x="364.607422"/>
      </g>
     </g>
    </g>
   </g>
   <g id="matplotlib.axis_12">
    <g id="ytick_11">
     <g id="line2d_42">
      <g>
       <use xlink:href="#m80ecf6fa8b" x="241.308142" y="167.548563" style="stroke: #000000"/>
      </g>
     </g>
     <g id="text_39">
      <!-- 0 -->
      <g transform="translate(230.854392 170.208016) scale(0.07 -0.07)">
       <use xlink:href="#DejaVuSans-30"/>
      </g>
     </g>
    </g>
    <g id="ytick_12">
     <g id="line2d_43">
      <g>
       <use xlink:href="#m80ecf6fa8b" x="241.308142" y="106.221959" style="stroke: #000000"/>
      </g>
     </g>
     <g id="text_40">
      <!-- 1 -->
      <g transform="translate(230.854392 108.881412) scale(0.07 -0.07)">
       <use xlink:href="#DejaVuSans-31"/>
      </g>
     </g>
    </g>
    <g id="text_41">
     <!-- plasticity -->
     <g transform="translate(230.398611 152.732605) rotate(-90) scale(0.07 -0.07)">
      <use xlink:href="#DejaVuSans-70"/>
      <use xlink:href="#DejaVuSans-6c" x="63.476562"/>
      <use xlink:href="#DejaVuSans-61" x="91.259766"/>
      <use xlink:href="#DejaVuSans-73" x="152.539062"/>
      <use xlink:href="#DejaVuSans-74" x="204.638672"/>
      <use xlink:href="#DejaVuSans-69" x="243.847656"/>
      <use xlink:href="#DejaVuSans-63" x="271.630859"/>
      <use xlink:href="#DejaVuSans-69" x="326.611328"/>
      <use xlink:href="#DejaVuSans-74" x="354.394531"/>
      <use xlink:href="#DejaVuSans-79" x="393.603516"/>
     </g>
    </g>
   </g>
   <g id="patch_17">
    <path d="M 241.308142 167.548563 
L 241.308142 106.221959 
" style="fill: none; stroke: #000000; stroke-linejoin: miter; stroke-linecap: square"/>
   </g>
   <g id="patch_18">
    <path d="M 248.691048 174.969082 
L 309.706802 174.969082 
" style="fill: none; stroke: #000000; stroke-linejoin: miter; stroke-linecap: square"/>
   </g>
  </g>
 </g>
 <defs>
  <clipPath id="pef2c0ee378">
   <rect x="25.054874" y="5.659693" width="73.218904" height="73.591924"/>
  </clipPath>
  <clipPath id="p53b65905bc">
   <rect x="131.595298" y="5.659693" width="73.218904" height="73.591924"/>
  </clipPath>
  <clipPath id="pb27c5299b2">
   <rect x="242.589473" y="5.659693" width="73.218904" height="73.591924"/>
  </clipPath>
  <clipPath id="p489f75ca1e">
   <rect x="25.054874" y="100.089299" width="73.218904" height="73.591924"/>
  </clipPath>
  <clipPath id="p2718b94f20">
   <rect x="131.595298" y="100.089299" width="73.218904" height="73.591924"/>
  </clipPath>
  <clipPath id="p37f31a3c2b">
   <rect x="242.589473" y="100.089299" width="73.218904" height="73.591924"/>
  </clipPath>
 </defs>
</svg>
