<?xml version="1.0" encoding="utf-8" standalone="no"?>
<!DOCTYPE svg PUBLIC "-//W3C//DTD SVG 1.1//EN"
  "http://www.w3.org/Graphics/SVG/1.1/DTD/svg11.dtd">
<svg xmlns:xlink="http://www.w3.org/1999/xlink" width="323.149606pt" height="215.433071pt" viewBox="0 0 323.149606 215.433071" xmlns="http://www.w3.org/2000/svg" version="1.1">
 <metadata>
  <rdf:RDF xmlns:dc="http://purl.org/dc/elements/1.1/" xmlns:cc="http://creativecommons.org/ns#" xmlns:rdf="http://www.w3.org/1999/02/22-rdf-syntax-ns#">
   <cc:Work>
    <dc:type rdf:resource="http://purl.org/dc/dcmitype/StillImage"/>
    <dc:date>2025-04-21T16:54:22.841043</dc:date>
    <dc:format>image/svg+xml</dc:format>
    <dc:creator>
     <cc:Agent>
      <dc:title>Matplotlib v3.10.1, https://matplotlib.org/</dc:title>
     </cc:Agent>
    </dc:creator>
   </cc:Work>
  </rdf:RDF>
 </metadata>
 <defs>
  <style type="text/css">*{stroke-linejoin: round; stroke-linecap: butt}</style>
 </defs>
 <g id="figure_1">
  <g id="axes_1">
   <g id="patch_1">
    <path d="M 25.171525 79.326837 
L 105.056569 79.326837 
L 105.056569 5.659693 
L 25.171525 5.659693 
L 25.171525 79.326837 
z
" style="fill: none"/>
   </g>
   <g id="matplotlib.axis_1">
    <g id="xtick_1">
     <g id="line2d_1">
      <defs>
       <path id="mbe00bb46e6" d="M 0 0 
L 0 2.5 
" style="stroke: #000000"/>
      </defs>
      <g>
       <use xlink:href="#mbe00bb46e6" x="28.802664" y="80.616012" style="stroke: #000000"/>
      </g>
     </g>
     <g id="text_1">
      <!-- 0 -->
      <g transform="translate(26.575789 91.934918) scale(0.07 -0.07)">
       <defs>
        <path id="DejaVuSans-30" d="M 2034 4250 
Q 1547 4250 1301 3770 
Q 1056 3291 1056 2328 
Q 1056 1369 1301 889 
Q 1547 409 2034 409 
Q 2525 409 2770 889 
Q 3016 1369 3016 2328 
Q 3016 3291 2770 3770 
Q 2525 4250 2034 4250 
z
M 2034 4750 
Q 2819 4750 3233 4129 
Q 3647 3509 3647 2328 
Q 3647 1150 3233 529 
Q 2819 -91 2034 -91 
Q 1250 -91 836 529 
Q 422 1150 422 2328 
Q 422 3509 836 4129 
Q 1250 4750 2034 4750 
z
" transform="scale(0.015625)"/>
       </defs>
       <use xlink:href="#DejaVuSans-30"/>
      </g>
     </g>
    </g>
    <g id="xtick_2">
     <g id="line2d_2">
      <g>
       <use xlink:href="#mbe00bb46e6" x="101.425431" y="80.616012" style="stroke: #000000"/>
      </g>
     </g>
     <g id="text_2">
      <!-- 5 -->
      <g transform="translate(99.198556 91.934918) scale(0.07 -0.07)">
       <defs>
        <path id="DejaVuSans-35" d="M 691 4666 
L 3169 4666 
L 3169 4134 
L 1269 4134 
L 1269 2991 
Q 1406 3038 1543 3061 
Q 1681 3084 1819 3084 
Q 2600 3084 3056 2656 
Q 3513 2228 3513 1497 
Q 3513 744 3044 326 
Q 2575 -91 1722 -91 
Q 1428 -91 1123 -41 
Q 819 9 494 109 
L 494 744 
Q 775 591 1075 516 
Q 1375 441 1709 441 
Q 2250 441 2565 725 
Q 2881 1009 2881 1497 
Q 2881 1984 2565 2268 
Q 2250 2553 1709 2553 
Q 1456 2553 1204 2497 
Q 953 2441 691 2322 
L 691 4666 
z
" transform="scale(0.015625)"/>
       </defs>
       <use xlink:href="#DejaVuSans-35"/>
      </g>
     </g>
    </g>
    <g id="text_3">
     <!-- Time (ms) -->
     <g transform="translate(47.474594 92.709605) scale(0.07 -0.07)">
      <defs>
       <path id="DejaVuSans-54" d="M -19 4666 
L 3928 4666 
L 3928 4134 
L 2272 4134 
L 2272 0 
L 1638 0 
L 1638 4134 
L -19 4134 
L -19 4666 
z
" transform="scale(0.015625)"/>
       <path id="DejaVuSans-69" d="M 603 3500 
L 1178 3500 
L 1178 0 
L 603 0 
L 603 3500 
z
M 603 4863 
L 1178 4863 
L 1178 4134 
L 603 4134 
L 603 4863 
z
" transform="scale(0.015625)"/>
       <path id="DejaVuSans-6d" d="M 3328 2828 
Q 3544 3216 3844 3400 
Q 4144 3584 4550 3584 
Q 5097 3584 5394 3201 
Q 5691 2819 5691 2113 
L 5691 0 
L 5113 0 
L 5113 2094 
Q 5113 2597 4934 2840 
Q 4756 3084 4391 3084 
Q 3944 3084 3684 2787 
Q 3425 2491 3425 1978 
L 3425 0 
L 2847 0 
L 2847 2094 
Q 2847 2600 2669 2842 
Q 2491 3084 2119 3084 
Q 1678 3084 1418 2786 
Q 1159 2488 1159 1978 
L 1159 0 
L 581 0 
L 581 3500 
L 1159 3500 
L 1159 2956 
Q 1356 3278 1631 3431 
Q 1906 3584 2284 3584 
Q 2666 3584 2933 3390 
Q 3200 3197 3328 2828 
z
" transform="scale(0.015625)"/>
       <path id="DejaVuSans-65" d="M 3597 1894 
L 3597 1613 
L 953 1613 
Q 991 1019 1311 708 
Q 1631 397 2203 397 
Q 2534 397 2845 478 
Q 3156 559 3463 722 
L 3463 178 
Q 3153 47 2828 -22 
Q 2503 -91 2169 -91 
Q 1331 -91 842 396 
Q 353 884 353 1716 
Q 353 2575 817 3079 
Q 1281 3584 2069 3584 
Q 2775 3584 3186 3129 
Q 3597 2675 3597 1894 
z
M 3022 2063 
Q 3016 2534 2758 2815 
Q 2500 3097 2075 3097 
Q 1594 3097 1305 2825 
Q 1016 2553 972 2059 
L 3022 2063 
z
" transform="scale(0.015625)"/>
       <path id="DejaVuSans-20" transform="scale(0.015625)"/>
       <path id="DejaVuSans-28" d="M 1984 4856 
Q 1566 4138 1362 3434 
Q 1159 2731 1159 2009 
Q 1159 1288 1364 580 
Q 1569 -128 1984 -844 
L 1484 -844 
Q 1016 -109 783 600 
Q 550 1309 550 2009 
Q 550 2706 781 3412 
Q 1013 4119 1484 4856 
L 1984 4856 
z
" transform="scale(0.015625)"/>
       <path id="DejaVuSans-73" d="M 2834 3397 
L 2834 2853 
Q 2591 2978 2328 3040 
Q 2066 3103 1784 3103 
Q 1356 3103 1142 2972 
Q 928 2841 928 2578 
Q 928 2378 1081 2264 
Q 1234 2150 1697 2047 
L 1894 2003 
Q 2506 1872 2764 1633 
Q 3022 1394 3022 966 
Q 3022 478 2636 193 
Q 2250 -91 1575 -91 
Q 1294 -91 989 -36 
Q 684 19 347 128 
L 347 722 
Q 666 556 975 473 
Q 1284 391 1588 391 
Q 1994 391 2212 530 
Q 2431 669 2431 922 
Q 2431 1156 2273 1281 
Q 2116 1406 1581 1522 
L 1381 1569 
Q 847 1681 609 1914 
Q 372 2147 372 2553 
Q 372 3047 722 3315 
Q 1072 3584 1716 3584 
Q 2034 3584 2315 3537 
Q 2597 3491 2834 3397 
z
" transform="scale(0.015625)"/>
       <path id="DejaVuSans-29" d="M 513 4856 
L 1013 4856 
Q 1481 4119 1714 3412 
Q 1947 2706 1947 2009 
Q 1947 1309 1714 600 
Q 1481 -109 1013 -844 
L 513 -844 
Q 928 -128 1133 580 
Q 1338 1288 1338 2009 
Q 1338 2731 1133 3434 
Q 928 4138 513 4856 
z
" transform="scale(0.015625)"/>
      </defs>
      <use xlink:href="#DejaVuSans-54"/>
      <use xlink:href="#DejaVuSans-69" transform="translate(57.958984 0)"/>
      <use xlink:href="#DejaVuSans-6d" transform="translate(85.742188 0)"/>
      <use xlink:href="#DejaVuSans-65" transform="translate(183.154297 0)"/>
      <use xlink:href="#DejaVuSans-20" transform="translate(244.677734 0)"/>
      <use xlink:href="#DejaVuSans-28" transform="translate(276.464844 0)"/>
      <use xlink:href="#DejaVuSans-6d" transform="translate(315.478516 0)"/>
      <use xlink:href="#DejaVuSans-73" transform="translate(412.890625 0)"/>
      <use xlink:href="#DejaVuSans-29" transform="translate(464.990234 0)"/>
     </g>
    </g>
   </g>
   <g id="matplotlib.axis_2">
    <g id="ytick_1">
     <g id="line2d_3">
      <defs>
       <path id="m3cf79ad414" d="M 0 0 
L -2.5 0 
" style="stroke: #000000"/>
      </defs>
      <g>
       <use xlink:href="#m3cf79ad414" x="23.773537" y="75.97833" style="stroke: #000000"/>
      </g>
     </g>
     <g id="text_4">
      <!-- −70 -->
      <g transform="translate(3.000256 78.637783) scale(0.07 -0.07)">
       <defs>
        <path id="DejaVuSans-2212" d="M 678 2272 
L 4684 2272 
L 4684 1741 
L 678 1741 
L 678 2272 
z
" transform="scale(0.015625)"/>
        <path id="DejaVuSans-37" d="M 525 4666 
L 3525 4666 
L 3525 4397 
L 1831 0 
L 1172 0 
L 2766 4134 
L 525 4134 
L 525 4666 
z
" transform="scale(0.015625)"/>
       </defs>
       <use xlink:href="#DejaVuSans-2212"/>
       <use xlink:href="#DejaVuSans-37" transform="translate(83.789062 0)"/>
       <use xlink:href="#DejaVuSans-30" transform="translate(147.412109 0)"/>
      </g>
     </g>
    </g>
    <g id="ytick_2">
     <g id="line2d_4">
      <g>
       <use xlink:href="#m3cf79ad414" x="23.773537" y="9.007124" style="stroke: #000000"/>
      </g>
     </g>
     <g id="text_5">
      <!-- 30 -->
      <g transform="translate(8.866037 11.666577) scale(0.07 -0.07)">
       <defs>
        <path id="DejaVuSans-33" d="M 2597 2516 
Q 3050 2419 3304 2112 
Q 3559 1806 3559 1356 
Q 3559 666 3084 287 
Q 2609 -91 1734 -91 
Q 1441 -91 1130 -33 
Q 819 25 488 141 
L 488 750 
Q 750 597 1062 519 
Q 1375 441 1716 441 
Q 2309 441 2620 675 
Q 2931 909 2931 1356 
Q 2931 1769 2642 2001 
Q 2353 2234 1838 2234 
L 1294 2234 
L 1294 2753 
L 1863 2753 
Q 2328 2753 2575 2939 
Q 2822 3125 2822 3475 
Q 2822 3834 2567 4026 
Q 2313 4219 1838 4219 
Q 1578 4219 1281 4162 
Q 984 4106 628 3988 
L 628 4550 
Q 988 4650 1302 4700 
Q 1616 4750 1894 4750 
Q 2613 4750 3031 4423 
Q 3450 4097 3450 3541 
Q 3450 3153 3228 2886 
Q 3006 2619 2597 2516 
z
" transform="scale(0.015625)"/>
       </defs>
       <use xlink:href="#DejaVuSans-33"/>
       <use xlink:href="#DejaVuSans-30" transform="translate(63.623047 0)"/>
      </g>
     </g>
    </g>
    <g id="text_6">
     <!-- AP Voltage (mV) -->
     <g transform="translate(11.544475 70.886468) rotate(-90) scale(0.07 -0.07)">
      <defs>
       <path id="DejaVuSans-41" d="M 2188 4044 
L 1331 1722 
L 3047 1722 
L 2188 4044 
z
M 1831 4666 
L 2547 4666 
L 4325 0 
L 3669 0 
L 3244 1197 
L 1141 1197 
L 716 0 
L 50 0 
L 1831 4666 
z
" transform="scale(0.015625)"/>
       <path id="DejaVuSans-50" d="M 1259 4147 
L 1259 2394 
L 2053 2394 
Q 2494 2394 2734 2622 
Q 2975 2850 2975 3272 
Q 2975 3691 2734 3919 
Q 2494 4147 2053 4147 
L 1259 4147 
z
M 628 4666 
L 2053 4666 
Q 2838 4666 3239 4311 
Q 3641 3956 3641 3272 
Q 3641 2581 3239 2228 
Q 2838 1875 2053 1875 
L 1259 1875 
L 1259 0 
L 628 0 
L 628 4666 
z
" transform="scale(0.015625)"/>
       <path id="DejaVuSans-56" d="M 1831 0 
L 50 4666 
L 709 4666 
L 2188 738 
L 3669 4666 
L 4325 4666 
L 2547 0 
L 1831 0 
z
" transform="scale(0.015625)"/>
       <path id="DejaVuSans-6f" d="M 1959 3097 
Q 1497 3097 1228 2736 
Q 959 2375 959 1747 
Q 959 1119 1226 758 
Q 1494 397 1959 397 
Q 2419 397 2687 759 
Q 2956 1122 2956 1747 
Q 2956 2369 2687 2733 
Q 2419 3097 1959 3097 
z
M 1959 3584 
Q 2709 3584 3137 3096 
Q 3566 2609 3566 1747 
Q 3566 888 3137 398 
Q 2709 -91 1959 -91 
Q 1206 -91 779 398 
Q 353 888 353 1747 
Q 353 2609 779 3096 
Q 1206 3584 1959 3584 
z
" transform="scale(0.015625)"/>
       <path id="DejaVuSans-6c" d="M 603 4863 
L 1178 4863 
L 1178 0 
L 603 0 
L 603 4863 
z
" transform="scale(0.015625)"/>
       <path id="DejaVuSans-74" d="M 1172 4494 
L 1172 3500 
L 2356 3500 
L 2356 3053 
L 1172 3053 
L 1172 1153 
Q 1172 725 1289 603 
Q 1406 481 1766 481 
L 2356 481 
L 2356 0 
L 1766 0 
Q 1100 0 847 248 
Q 594 497 594 1153 
L 594 3053 
L 172 3053 
L 172 3500 
L 594 3500 
L 594 4494 
L 1172 4494 
z
" transform="scale(0.015625)"/>
       <path id="DejaVuSans-61" d="M 2194 1759 
Q 1497 1759 1228 1600 
Q 959 1441 959 1056 
Q 959 750 1161 570 
Q 1363 391 1709 391 
Q 2188 391 2477 730 
Q 2766 1069 2766 1631 
L 2766 1759 
L 2194 1759 
z
M 3341 1997 
L 3341 0 
L 2766 0 
L 2766 531 
Q 2569 213 2275 61 
Q 1981 -91 1556 -91 
Q 1019 -91 701 211 
Q 384 513 384 1019 
Q 384 1609 779 1909 
Q 1175 2209 1959 2209 
L 2766 2209 
L 2766 2266 
Q 2766 2663 2505 2880 
Q 2244 3097 1772 3097 
Q 1472 3097 1187 3025 
Q 903 2953 641 2809 
L 641 3341 
Q 956 3463 1253 3523 
Q 1550 3584 1831 3584 
Q 2591 3584 2966 3190 
Q 3341 2797 3341 1997 
z
" transform="scale(0.015625)"/>
       <path id="DejaVuSans-67" d="M 2906 1791 
Q 2906 2416 2648 2759 
Q 2391 3103 1925 3103 
Q 1463 3103 1205 2759 
Q 947 2416 947 1791 
Q 947 1169 1205 825 
Q 1463 481 1925 481 
Q 2391 481 2648 825 
Q 2906 1169 2906 1791 
z
M 3481 434 
Q 3481 -459 3084 -895 
Q 2688 -1331 1869 -1331 
Q 1566 -1331 1297 -1286 
Q 1028 -1241 775 -1147 
L 775 -588 
Q 1028 -725 1275 -790 
Q 1522 -856 1778 -856 
Q 2344 -856 2625 -561 
Q 2906 -266 2906 331 
L 2906 616 
Q 2728 306 2450 153 
Q 2172 0 1784 0 
Q 1141 0 747 490 
Q 353 981 353 1791 
Q 353 2603 747 3093 
Q 1141 3584 1784 3584 
Q 2172 3584 2450 3431 
Q 2728 3278 2906 2969 
L 2906 3500 
L 3481 3500 
L 3481 434 
z
" transform="scale(0.015625)"/>
      </defs>
      <use xlink:href="#DejaVuSans-41"/>
      <use xlink:href="#DejaVuSans-50" transform="translate(68.408203 0)"/>
      <use xlink:href="#DejaVuSans-20" transform="translate(128.710938 0)"/>
      <use xlink:href="#DejaVuSans-56" transform="translate(160.498047 0)"/>
      <use xlink:href="#DejaVuSans-6f" transform="translate(221.15625 0)"/>
      <use xlink:href="#DejaVuSans-6c" transform="translate(282.337891 0)"/>
      <use xlink:href="#DejaVuSans-74" transform="translate(310.121094 0)"/>
      <use xlink:href="#DejaVuSans-61" transform="translate(349.330078 0)"/>
      <use xlink:href="#DejaVuSans-67" transform="translate(410.609375 0)"/>
      <use xlink:href="#DejaVuSans-65" transform="translate(474.085938 0)"/>
      <use xlink:href="#DejaVuSans-20" transform="translate(535.609375 0)"/>
      <use xlink:href="#DejaVuSans-28" transform="translate(567.396484 0)"/>
      <use xlink:href="#DejaVuSans-6d" transform="translate(606.410156 0)"/>
      <use xlink:href="#DejaVuSans-56" transform="translate(703.822266 0)"/>
      <use xlink:href="#DejaVuSans-29" transform="translate(772.230469 0)"/>
     </g>
    </g>
   </g>
   <g id="line2d_5">
    <path d="M 28.802664 75.97833 
L 35.933958 75.97833 
L 36.079494 75.710177 
L 37.389324 53.779213 
L 38.553617 37.942872 
L 39.572373 26.91015 
L 40.445592 19.551415 
L 41.173275 14.898415 
L 41.900958 11.590212 
L 42.483105 9.911904 
L 42.919715 9.217988 
L 43.210788 9.024337 
L 43.501861 9.045854 
L 43.792934 9.282538 
L 44.229544 10.041004 
L 44.666154 11.283598 
L 45.2483 13.693476 
L 45.975983 17.916141 
L 46.703667 23.483605 
L 47.576886 31.939694 
L 48.595642 44.252664 
L 49.759935 61.552145 
L 50.633155 75.97833 
L 101.425431 75.97833 
L 101.425431 75.97833 
" clip-path="url(#p53fafeb335)" style="fill: none; stroke: #000000; stroke-linecap: square"/>
   </g>
   <g id="line2d_6">
    <path d="M 28.802664 75.97833 
L 35.933958 75.97833 
L 36.079494 75.736993 
L 37.389324 55.999124 
L 38.553617 41.746418 
L 39.572373 31.816968 
L 40.445592 25.194107 
L 41.173275 21.006406 
L 41.900958 18.029024 
L 42.483105 16.518546 
L 42.919715 15.894022 
L 43.210788 15.719736 
L 43.501861 15.739102 
L 43.792934 15.952118 
L 44.229544 16.634737 
L 44.666154 17.753071 
L 45.2483 19.921961 
L 45.975983 23.72236 
L 46.703667 28.733077 
L 47.576886 36.343558 
L 48.595642 47.425231 
L 49.759935 62.994763 
L 50.633155 75.97833 
L 101.425431 75.97833 
L 101.425431 75.97833 
" clip-path="url(#p53fafeb335)" style="fill: none; stroke: #008080; stroke-linecap: square"/>
   </g>
   <g id="line2d_7">
    <path d="M 28.802664 75.97833 
L 35.933958 75.97833 
L 36.079494 75.857661 
L 37.389324 65.988727 
L 38.553617 58.862374 
L 39.572373 53.897649 
L 40.445592 50.586218 
L 41.318812 48.146217 
L 42.046495 46.778558 
L 42.628642 46.120145 
L 43.065251 45.880502 
L 43.501861 45.858716 
L 43.938471 46.054787 
L 44.375081 46.468716 
L 44.957227 47.35951 
L 45.68491 49.017646 
L 46.412593 51.280941 
L 47.285813 54.795705 
L 48.304569 59.997652 
L 49.323325 66.385712 
L 50.778692 75.97833 
L 101.425431 75.97833 
L 101.425431 75.97833 
" clip-path="url(#p53fafeb335)" style="fill: none; stroke: #0000ff; stroke-linecap: square"/>
   </g>
   <g id="patch_2">
    <path d="M 23.773537 75.97833 
L 23.773537 9.007124 
" style="fill: none; stroke: #000000; stroke-linejoin: miter; stroke-linecap: square"/>
   </g>
   <g id="patch_3">
    <path d="M 28.802664 80.616012 
L 101.425431 80.616012 
" style="fill: none; stroke: #000000; stroke-linejoin: miter; stroke-linecap: square"/>
   </g>
  </g>
  <g id="axes_2">
   <g id="patch_4">
    <path d="M 128.622708 79.326837 
L 208.507752 79.326837 
L 208.507752 5.659693 
L 128.622708 5.659693 
L 128.622708 79.326837 
z
" style="fill: none"/>
   </g>
   <g id="matplotlib.axis_3">
    <g id="xtick_3">
     <g id="line2d_8">
      <g>
       <use xlink:href="#mbe00bb46e6" x="132.253846" y="80.616012" style="stroke: #000000"/>
      </g>
     </g>
     <g id="text_7">
      <!-- 0 -->
      <g transform="translate(130.026971 91.934918) scale(0.07 -0.07)">
       <use xlink:href="#DejaVuSans-30"/>
      </g>
     </g>
    </g>
    <g id="xtick_4">
     <g id="line2d_9">
      <g>
       <use xlink:href="#mbe00bb46e6" x="204.876614" y="80.616012" style="stroke: #000000"/>
      </g>
     </g>
     <g id="text_8">
      <!-- 5 -->
      <g transform="translate(202.649739 91.934918) scale(0.07 -0.07)">
       <use xlink:href="#DejaVuSans-35"/>
      </g>
     </g>
    </g>
    <g id="text_9">
     <!-- Time (ms) -->
     <g transform="translate(150.925777 92.709605) scale(0.07 -0.07)">
      <use xlink:href="#DejaVuSans-54"/>
      <use xlink:href="#DejaVuSans-69" transform="translate(57.958984 0)"/>
      <use xlink:href="#DejaVuSans-6d" transform="translate(85.742188 0)"/>
      <use xlink:href="#DejaVuSans-65" transform="translate(183.154297 0)"/>
      <use xlink:href="#DejaVuSans-20" transform="translate(244.677734 0)"/>
      <use xlink:href="#DejaVuSans-28" transform="translate(276.464844 0)"/>
      <use xlink:href="#DejaVuSans-6d" transform="translate(315.478516 0)"/>
      <use xlink:href="#DejaVuSans-73" transform="translate(412.890625 0)"/>
      <use xlink:href="#DejaVuSans-29" transform="translate(464.990234 0)"/>
     </g>
    </g>
   </g>
   <g id="matplotlib.axis_4">
    <g id="ytick_3">
     <g id="line2d_10">
      <g>
       <use xlink:href="#m3cf79ad414" x="127.22472" y="79.326837" style="stroke: #000000"/>
      </g>
     </g>
     <g id="text_10">
      <!-- 0 -->
      <g transform="translate(116.77097 81.98629) scale(0.07 -0.07)">
       <use xlink:href="#DejaVuSans-30"/>
      </g>
     </g>
    </g>
    <g id="ytick_4">
     <g id="line2d_11">
      <g>
       <use xlink:href="#m3cf79ad414" x="127.22472" y="5.659693" style="stroke: #000000"/>
      </g>
     </g>
     <g id="text_11">
      <!-- 1 -->
      <g transform="translate(116.77097 8.319146) scale(0.07 -0.07)">
       <defs>
        <path id="DejaVuSans-31" d="M 794 531 
L 1825 531 
L 1825 4091 
L 703 3866 
L 703 4441 
L 1819 4666 
L 2450 4666 
L 2450 531 
L 3481 531 
L 3481 0 
L 794 0 
L 794 531 
z
" transform="scale(0.015625)"/>
       </defs>
       <use xlink:href="#DejaVuSans-31"/>
      </g>
     </g>
    </g>
    <g id="text_12">
     <!-- NMDAR P(open) -->
     <g transform="translate(125.315189 70.28053) rotate(-90) scale(0.07 -0.07)">
      <defs>
       <path id="DejaVuSans-4e" d="M 628 4666 
L 1478 4666 
L 3547 763 
L 3547 4666 
L 4159 4666 
L 4159 0 
L 3309 0 
L 1241 3903 
L 1241 0 
L 628 0 
L 628 4666 
z
" transform="scale(0.015625)"/>
       <path id="DejaVuSans-4d" d="M 628 4666 
L 1569 4666 
L 2759 1491 
L 3956 4666 
L 4897 4666 
L 4897 0 
L 4281 0 
L 4281 4097 
L 3078 897 
L 2444 897 
L 1241 4097 
L 1241 0 
L 628 0 
L 628 4666 
z
" transform="scale(0.015625)"/>
       <path id="DejaVuSans-44" d="M 1259 4147 
L 1259 519 
L 2022 519 
Q 2988 519 3436 956 
Q 3884 1394 3884 2338 
Q 3884 3275 3436 3711 
Q 2988 4147 2022 4147 
L 1259 4147 
z
M 628 4666 
L 1925 4666 
Q 3281 4666 3915 4102 
Q 4550 3538 4550 2338 
Q 4550 1131 3912 565 
Q 3275 0 1925 0 
L 628 0 
L 628 4666 
z
" transform="scale(0.015625)"/>
       <path id="DejaVuSans-52" d="M 2841 2188 
Q 3044 2119 3236 1894 
Q 3428 1669 3622 1275 
L 4263 0 
L 3584 0 
L 2988 1197 
Q 2756 1666 2539 1819 
Q 2322 1972 1947 1972 
L 1259 1972 
L 1259 0 
L 628 0 
L 628 4666 
L 2053 4666 
Q 2853 4666 3247 4331 
Q 3641 3997 3641 3322 
Q 3641 2881 3436 2590 
Q 3231 2300 2841 2188 
z
M 1259 4147 
L 1259 2491 
L 2053 2491 
Q 2509 2491 2742 2702 
Q 2975 2913 2975 3322 
Q 2975 3731 2742 3939 
Q 2509 4147 2053 4147 
L 1259 4147 
z
" transform="scale(0.015625)"/>
       <path id="DejaVuSans-70" d="M 1159 525 
L 1159 -1331 
L 581 -1331 
L 581 3500 
L 1159 3500 
L 1159 2969 
Q 1341 3281 1617 3432 
Q 1894 3584 2278 3584 
Q 2916 3584 3314 3078 
Q 3713 2572 3713 1747 
Q 3713 922 3314 415 
Q 2916 -91 2278 -91 
Q 1894 -91 1617 61 
Q 1341 213 1159 525 
z
M 3116 1747 
Q 3116 2381 2855 2742 
Q 2594 3103 2138 3103 
Q 1681 3103 1420 2742 
Q 1159 2381 1159 1747 
Q 1159 1113 1420 752 
Q 1681 391 2138 391 
Q 2594 391 2855 752 
Q 3116 1113 3116 1747 
z
" transform="scale(0.015625)"/>
       <path id="DejaVuSans-6e" d="M 3513 2113 
L 3513 0 
L 2938 0 
L 2938 2094 
Q 2938 2591 2744 2837 
Q 2550 3084 2163 3084 
Q 1697 3084 1428 2787 
Q 1159 2491 1159 1978 
L 1159 0 
L 581 0 
L 581 3500 
L 1159 3500 
L 1159 2956 
Q 1366 3272 1645 3428 
Q 1925 3584 2291 3584 
Q 2894 3584 3203 3211 
Q 3513 2838 3513 2113 
z
" transform="scale(0.015625)"/>
      </defs>
      <use xlink:href="#DejaVuSans-4e"/>
      <use xlink:href="#DejaVuSans-4d" transform="translate(74.804688 0)"/>
      <use xlink:href="#DejaVuSans-44" transform="translate(161.083984 0)"/>
      <use xlink:href="#DejaVuSans-41" transform="translate(236.335938 0)"/>
      <use xlink:href="#DejaVuSans-52" transform="translate(304.744141 0)"/>
      <use xlink:href="#DejaVuSans-20" transform="translate(374.226562 0)"/>
      <use xlink:href="#DejaVuSans-50" transform="translate(406.013672 0)"/>
      <use xlink:href="#DejaVuSans-28" transform="translate(466.316406 0)"/>
      <use xlink:href="#DejaVuSans-6f" transform="translate(505.330078 0)"/>
      <use xlink:href="#DejaVuSans-70" transform="translate(566.511719 0)"/>
      <use xlink:href="#DejaVuSans-65" transform="translate(629.988281 0)"/>
      <use xlink:href="#DejaVuSans-6e" transform="translate(691.511719 0)"/>
      <use xlink:href="#DejaVuSans-29" transform="translate(754.890625 0)"/>
     </g>
    </g>
   </g>
   <g id="line2d_12">
    <path d="M 132.253846 76.750912 
L 139.676213 76.736968 
L 139.967287 76.360524 
L 140.403897 75.233382 
L 140.986043 72.909025 
L 141.713726 68.797399 
L 142.586946 62.31587 
L 144.042312 49.258795 
L 145.643214 35.280101 
L 146.661971 28.226841 
L 147.53519 23.667442 
L 148.262873 20.901228 
L 148.990556 19.019173 
L 149.572703 18.135475 
L 150.009313 17.854809 
L 150.300386 17.870158 
L 150.591459 18.070283 
L 150.882532 18.484551 
L 151.319142 19.600904 
L 151.755752 21.499118 
L 152.192362 24.488207 
L 152.628972 29.004662 
L 153.065581 35.587582 
L 153.647728 48.291083 
L 154.520947 69.108594 
L 154.957557 73.224061 
L 155.394167 75.123307 
L 155.830777 75.999789 
L 156.267387 76.404276 
L 156.849533 76.627292 
L 157.868289 76.730566 
L 161.943314 76.750897 
L 204.876614 76.750912 
L 204.876614 76.750912 
" clip-path="url(#p43a6b29262)" style="fill: none; stroke: #000000; stroke-linecap: square"/>
   </g>
   <g id="line2d_13">
    <path d="M 132.253846 76.750912 
L 139.676213 76.738355 
L 139.967287 76.397549 
L 140.403897 75.381165 
L 140.986043 73.309051 
L 141.713726 69.687168 
L 142.586946 64.016447 
L 143.896775 53.73318 
L 145.934288 37.794626 
L 146.953044 31.52865 
L 147.826263 27.450073 
L 148.553947 25.005077 
L 149.136093 23.687805 
L 149.572703 23.092175 
L 150.009313 22.865072 
L 150.300386 22.943153 
L 150.591459 23.230727 
L 151.028069 24.125203 
L 151.464679 25.711091 
L 151.901288 28.20186 
L 152.337898 31.886266 
L 152.920045 39.255901 
L 153.502191 49.984102 
L 154.520947 70.498727 
L 154.957557 73.865593 
L 155.394167 75.419367 
L 155.830777 76.136418 
L 156.267387 76.467329 
L 156.99507 76.672758 
L 158.450436 76.744976 
L 170.966584 76.750912 
L 204.876614 76.750912 
L 204.876614 76.750912 
" clip-path="url(#p43a6b29262)" style="fill: none; stroke: #008080; stroke-linecap: square"/>
   </g>
   <g id="line2d_14">
    <path d="M 132.253846 76.750912 
L 139.82175 76.67904 
L 140.25836 76.253607 
L 140.840506 75.354184 
L 141.713726 73.530303 
L 142.732482 70.859821 
L 144.478922 65.514823 
L 146.225361 60.362596 
L 147.244117 58.031401 
L 147.9718 56.873083 
L 148.553947 56.330582 
L 148.990556 56.183105 
L 149.427166 56.28338 
L 149.863776 56.654005 
L 150.300386 57.316361 
L 150.882532 58.684281 
L 151.464679 60.627629 
L 152.192362 63.835049 
L 153.502191 70.974654 
L 154.229874 74.611803 
L 154.666484 75.763735 
L 155.103094 76.29534 
L 155.68524 76.588442 
L 156.55846 76.71631 
L 159.178119 76.750578 
L 204.876614 76.750912 
L 204.876614 76.750912 
" clip-path="url(#p43a6b29262)" style="fill: none; stroke: #0000ff; stroke-linecap: square"/>
   </g>
   <g id="patch_5">
    <path d="M 127.22472 79.326837 
L 127.22472 5.659693 
" style="fill: none; stroke: #000000; stroke-linejoin: miter; stroke-linecap: square"/>
   </g>
   <g id="patch_6">
    <path d="M 132.253846 80.616012 
L 204.876614 80.616012 
" style="fill: none; stroke: #000000; stroke-linejoin: miter; stroke-linecap: square"/>
   </g>
  </g>
  <g id="axes_3">
   <g id="patch_7">
    <path d="M 236.588424 79.326837 
L 316.473467 79.326837 
L 316.473467 5.659693 
L 236.588424 5.659693 
L 236.588424 79.326837 
z
" style="fill: none"/>
   </g>
   <g id="matplotlib.axis_5">
    <g id="xtick_5">
     <g id="line2d_15">
      <g>
       <use xlink:href="#mbe00bb46e6" x="240.219562" y="80.616012" style="stroke: #000000"/>
      </g>
     </g>
     <g id="text_13">
      <!-- 0 -->
      <g transform="translate(237.992687 91.934918) scale(0.07 -0.07)">
       <use xlink:href="#DejaVuSans-30"/>
      </g>
     </g>
    </g>
    <g id="xtick_6">
     <g id="line2d_16">
      <g>
       <use xlink:href="#mbe00bb46e6" x="312.842329" y="80.616012" style="stroke: #000000"/>
      </g>
     </g>
     <g id="text_14">
      <!-- 5 -->
      <g transform="translate(310.615454 91.934918) scale(0.07 -0.07)">
       <use xlink:href="#DejaVuSans-35"/>
      </g>
     </g>
    </g>
    <g id="text_15">
     <!-- Time (ms) -->
     <g transform="translate(258.891492 92.709605) scale(0.07 -0.07)">
      <use xlink:href="#DejaVuSans-54"/>
      <use xlink:href="#DejaVuSans-69" transform="translate(57.958984 0)"/>
      <use xlink:href="#DejaVuSans-6d" transform="translate(85.742188 0)"/>
      <use xlink:href="#DejaVuSans-65" transform="translate(183.154297 0)"/>
      <use xlink:href="#DejaVuSans-20" transform="translate(244.677734 0)"/>
      <use xlink:href="#DejaVuSans-28" transform="translate(276.464844 0)"/>
      <use xlink:href="#DejaVuSans-6d" transform="translate(315.478516 0)"/>
      <use xlink:href="#DejaVuSans-73" transform="translate(412.890625 0)"/>
      <use xlink:href="#DejaVuSans-29" transform="translate(464.990234 0)"/>
     </g>
    </g>
   </g>
   <g id="matplotlib.axis_6">
    <g id="ytick_5">
     <g id="line2d_17">
      <g>
       <use xlink:href="#m3cf79ad414" x="235.190435" y="79.326837" style="stroke: #000000"/>
      </g>
     </g>
     <g id="text_16">
      <!-- 0 -->
      <g transform="translate(224.736685 81.98629) scale(0.07 -0.07)">
       <use xlink:href="#DejaVuSans-30"/>
      </g>
     </g>
    </g>
    <g id="ytick_6">
     <g id="line2d_18">
      <g>
       <use xlink:href="#m3cf79ad414" x="235.190435" y="5.659693" style="stroke: #000000"/>
      </g>
     </g>
     <g id="text_17">
      <!-- 1 -->
      <g transform="translate(224.736685 8.319146) scale(0.07 -0.07)">
       <use xlink:href="#DejaVuSans-31"/>
      </g>
     </g>
    </g>
    <g id="text_18">
     <!-- VGCC P(open) -->
     <g transform="translate(233.280904 67.176468) rotate(-90) scale(0.07 -0.07)">
      <defs>
       <path id="DejaVuSans-47" d="M 3809 666 
L 3809 1919 
L 2778 1919 
L 2778 2438 
L 4434 2438 
L 4434 434 
Q 4069 175 3628 42 
Q 3188 -91 2688 -91 
Q 1594 -91 976 548 
Q 359 1188 359 2328 
Q 359 3472 976 4111 
Q 1594 4750 2688 4750 
Q 3144 4750 3555 4637 
Q 3966 4525 4313 4306 
L 4313 3634 
Q 3963 3931 3569 4081 
Q 3175 4231 2741 4231 
Q 1884 4231 1454 3753 
Q 1025 3275 1025 2328 
Q 1025 1384 1454 906 
Q 1884 428 2741 428 
Q 3075 428 3337 486 
Q 3600 544 3809 666 
z
" transform="scale(0.015625)"/>
       <path id="DejaVuSans-43" d="M 4122 4306 
L 4122 3641 
Q 3803 3938 3442 4084 
Q 3081 4231 2675 4231 
Q 1875 4231 1450 3742 
Q 1025 3253 1025 2328 
Q 1025 1406 1450 917 
Q 1875 428 2675 428 
Q 3081 428 3442 575 
Q 3803 722 4122 1019 
L 4122 359 
Q 3791 134 3420 21 
Q 3050 -91 2638 -91 
Q 1578 -91 968 557 
Q 359 1206 359 2328 
Q 359 3453 968 4101 
Q 1578 4750 2638 4750 
Q 3056 4750 3426 4639 
Q 3797 4528 4122 4306 
z
" transform="scale(0.015625)"/>
      </defs>
      <use xlink:href="#DejaVuSans-56"/>
      <use xlink:href="#DejaVuSans-47" transform="translate(68.408203 0)"/>
      <use xlink:href="#DejaVuSans-43" transform="translate(145.898438 0)"/>
      <use xlink:href="#DejaVuSans-43" transform="translate(215.722656 0)"/>
      <use xlink:href="#DejaVuSans-20" transform="translate(285.546875 0)"/>
      <use xlink:href="#DejaVuSans-50" transform="translate(317.333984 0)"/>
      <use xlink:href="#DejaVuSans-28" transform="translate(377.636719 0)"/>
      <use xlink:href="#DejaVuSans-6f" transform="translate(416.650391 0)"/>
      <use xlink:href="#DejaVuSans-70" transform="translate(477.832031 0)"/>
      <use xlink:href="#DejaVuSans-65" transform="translate(541.308594 0)"/>
      <use xlink:href="#DejaVuSans-6e" transform="translate(602.832031 0)"/>
      <use xlink:href="#DejaVuSans-29" transform="translate(666.210938 0)"/>
     </g>
    </g>
   </g>
   <g id="line2d_19">
    <path d="M 240.219562 79.326836 
L 250.261588 79.252501 
L 250.843734 78.974401 
L 251.280344 78.51396 
L 251.716954 77.76468 
L 252.2991 76.260942 
L 253.026783 73.601014 
L 254.04554 68.831642 
L 256.374125 57.588843 
L 257.392882 53.90487 
L 258.266101 51.600796 
L 258.993784 50.303938 
L 259.575931 49.684833 
L 260.012541 49.468249 
L 260.44915 49.445951 
L 261.031297 49.653576 
L 261.467907 50.007323 
L 261.904516 50.676533 
L 263.068809 53.669598 
L 264.669712 57.345761 
L 266.270615 60.495191 
L 267.871517 63.19336 
L 269.617957 65.697882 
L 271.364396 67.813595 
L 273.110835 69.60086 
L 275.002811 71.225362 
L 277.040324 72.67272 
L 279.223373 73.937783 
L 281.551958 75.023248 
L 284.171617 75.985344 
L 287.08235 76.804269 
L 290.429691 77.501116 
L 294.35918 78.077691 
L 299.161888 78.541283 
L 305.274425 78.891502 
L 312.842329 79.117194 
L 312.842329 79.117194 
" clip-path="url(#p4ae7739fd1)" style="fill: none; stroke: #000000; stroke-linecap: square"/>
   </g>
   <g id="line2d_20">
    <path d="M 240.219562 79.326836 
L 250.552661 79.252129 
L 251.134808 79.012694 
L 251.571417 78.633879 
L 252.153564 77.772108 
L 252.73571 76.455581 
L 253.463393 74.204841 
L 254.482149 70.249522 
L 256.810735 60.974537 
L 257.683955 58.351747 
L 258.411638 56.723474 
L 258.993784 55.824612 
L 259.575931 55.305099 
L 260.012541 55.156329 
L 260.594687 55.208431 
L 261.176833 55.47546 
L 261.613443 55.865343 
L 262.050053 56.559181 
L 263.650956 59.821316 
L 265.251858 62.616042 
L 266.998298 65.210189 
L 268.744737 67.401613 
L 270.491176 69.252836 
L 272.383152 70.935471 
L 274.420665 72.434622 
L 276.603714 73.744954 
L 278.9323 74.869262 
L 281.406422 75.816789 
L 284.171617 76.639515 
L 287.373423 77.354346 
L 291.157375 77.958174 
L 295.669009 78.441589 
L 301.344937 78.815135 
L 309.058377 79.083863 
L 312.842329 79.158218 
L 312.842329 79.158218 
" clip-path="url(#p4ae7739fd1)" style="fill: none; stroke: #008080; stroke-linecap: square"/>
   </g>
   <g id="line2d_21">
    <path d="M 240.219562 79.326836 
L 254.918759 79.221956 
L 259.430394 78.972786 
L 265.106322 79.090425 
L 277.18586 79.253169 
L 302.363693 79.320334 
L 312.842329 79.324463 
L 312.842329 79.324463 
" clip-path="url(#p4ae7739fd1)" style="fill: none; stroke: #0000ff; stroke-linecap: square"/>
   </g>
   <g id="patch_8">
    <path d="M 235.190435 79.326837 
L 235.190435 5.659693 
" style="fill: none; stroke: #000000; stroke-linejoin: miter; stroke-linecap: square"/>
   </g>
   <g id="patch_9">
    <path d="M 240.219562 80.616012 
L 312.842329 80.616012 
" style="fill: none; stroke: #000000; stroke-linejoin: miter; stroke-linecap: square"/>
   </g>
   <g id="text_19">
    <!-- proximal -->
    <g transform="translate(282.473267 10.537941) scale(0.07 -0.07)">
     <defs>
      <path id="DejaVuSans-72" d="M 2631 2963 
Q 2534 3019 2420 3045 
Q 2306 3072 2169 3072 
Q 1681 3072 1420 2755 
Q 1159 2438 1159 1844 
L 1159 0 
L 581 0 
L 581 3500 
L 1159 3500 
L 1159 2956 
Q 1341 3275 1631 3429 
Q 1922 3584 2338 3584 
Q 2397 3584 2469 3576 
Q 2541 3569 2628 3553 
L 2631 2963 
z
" transform="scale(0.015625)"/>
      <path id="DejaVuSans-78" d="M 3513 3500 
L 2247 1797 
L 3578 0 
L 2900 0 
L 1881 1375 
L 863 0 
L 184 0 
L 1544 1831 
L 300 3500 
L 978 3500 
L 1906 2253 
L 2834 3500 
L 3513 3500 
z
" transform="scale(0.015625)"/>
     </defs>
     <use xlink:href="#DejaVuSans-70"/>
     <use xlink:href="#DejaVuSans-72" transform="translate(63.476562 0)"/>
     <use xlink:href="#DejaVuSans-6f" transform="translate(102.339844 0)"/>
     <use xlink:href="#DejaVuSans-78" transform="translate(160.396484 0)"/>
     <use xlink:href="#DejaVuSans-69" transform="translate(219.576172 0)"/>
     <use xlink:href="#DejaVuSans-6d" transform="translate(247.359375 0)"/>
     <use xlink:href="#DejaVuSans-61" transform="translate(344.771484 0)"/>
     <use xlink:href="#DejaVuSans-6c" transform="translate(406.050781 0)"/>
    </g>
   </g>
   <g id="text_20">
    <!-- distal-simple -->
    <g style="fill: #008080" transform="translate(268.197642 17.904656) scale(0.07 -0.07)">
     <defs>
      <path id="DejaVuSans-64" d="M 2906 2969 
L 2906 4863 
L 3481 4863 
L 3481 0 
L 2906 0 
L 2906 525 
Q 2725 213 2448 61 
Q 2172 -91 1784 -91 
Q 1150 -91 751 415 
Q 353 922 353 1747 
Q 353 2572 751 3078 
Q 1150 3584 1784 3584 
Q 2172 3584 2448 3432 
Q 2725 3281 2906 2969 
z
M 947 1747 
Q 947 1113 1208 752 
Q 1469 391 1925 391 
Q 2381 391 2643 752 
Q 2906 1113 2906 1747 
Q 2906 2381 2643 2742 
Q 2381 3103 1925 3103 
Q 1469 3103 1208 2742 
Q 947 2381 947 1747 
z
" transform="scale(0.015625)"/>
      <path id="DejaVuSans-2d" d="M 313 2009 
L 1997 2009 
L 1997 1497 
L 313 1497 
L 313 2009 
z
" transform="scale(0.015625)"/>
     </defs>
     <use xlink:href="#DejaVuSans-64"/>
     <use xlink:href="#DejaVuSans-69" transform="translate(63.476562 0)"/>
     <use xlink:href="#DejaVuSans-73" transform="translate(91.259766 0)"/>
     <use xlink:href="#DejaVuSans-74" transform="translate(143.359375 0)"/>
     <use xlink:href="#DejaVuSans-61" transform="translate(182.568359 0)"/>
     <use xlink:href="#DejaVuSans-6c" transform="translate(243.847656 0)"/>
     <use xlink:href="#DejaVuSans-2d" transform="translate(271.630859 0)"/>
     <use xlink:href="#DejaVuSans-73" transform="translate(307.714844 0)"/>
     <use xlink:href="#DejaVuSans-69" transform="translate(359.814453 0)"/>
     <use xlink:href="#DejaVuSans-6d" transform="translate(387.597656 0)"/>
     <use xlink:href="#DejaVuSans-70" transform="translate(485.009766 0)"/>
     <use xlink:href="#DejaVuSans-6c" transform="translate(548.486328 0)"/>
     <use xlink:href="#DejaVuSans-65" transform="translate(576.269531 0)"/>
    </g>
   </g>
   <g id="text_21">
    <!-- distal-complex -->
    <g style="fill: #0000ff" transform="translate(261.636235 25.27137) scale(0.07 -0.07)">
     <defs>
      <path id="DejaVuSans-63" d="M 3122 3366 
L 3122 2828 
Q 2878 2963 2633 3030 
Q 2388 3097 2138 3097 
Q 1578 3097 1268 2742 
Q 959 2388 959 1747 
Q 959 1106 1268 751 
Q 1578 397 2138 397 
Q 2388 397 2633 464 
Q 2878 531 3122 666 
L 3122 134 
Q 2881 22 2623 -34 
Q 2366 -91 2075 -91 
Q 1284 -91 818 406 
Q 353 903 353 1747 
Q 353 2603 823 3093 
Q 1294 3584 2113 3584 
Q 2378 3584 2631 3529 
Q 2884 3475 3122 3366 
z
" transform="scale(0.015625)"/>
     </defs>
     <use xlink:href="#DejaVuSans-64"/>
     <use xlink:href="#DejaVuSans-69" transform="translate(63.476562 0)"/>
     <use xlink:href="#DejaVuSans-73" transform="translate(91.259766 0)"/>
     <use xlink:href="#DejaVuSans-74" transform="translate(143.359375 0)"/>
     <use xlink:href="#DejaVuSans-61" transform="translate(182.568359 0)"/>
     <use xlink:href="#DejaVuSans-6c" transform="translate(243.847656 0)"/>
     <use xlink:href="#DejaVuSans-2d" transform="translate(271.630859 0)"/>
     <use xlink:href="#DejaVuSans-63" transform="translate(307.714844 0)"/>
     <use xlink:href="#DejaVuSans-6f" transform="translate(362.695312 0)"/>
     <use xlink:href="#DejaVuSans-6d" transform="translate(423.876953 0)"/>
     <use xlink:href="#DejaVuSans-70" transform="translate(521.289062 0)"/>
     <use xlink:href="#DejaVuSans-6c" transform="translate(584.765625 0)"/>
     <use xlink:href="#DejaVuSans-65" transform="translate(612.548828 0)"/>
     <use xlink:href="#DejaVuSans-78" transform="translate(672.322266 0)"/>
    </g>
   </g>
  </g>
  <g id="axes_4">
   <g id="patch_10">
    <path d="M 25.171525 173.832978 
L 105.056569 173.832978 
L 105.056569 100.165834 
L 25.171525 100.165834 
L 25.171525 173.832978 
z
" style="fill: none"/>
   </g>
   <g id="line2d_22">
    <path d="M 25.171525 160.020388 
L 105.056569 160.020388 
" clip-path="url(#pcb6cdbde30)" style="fill: none; stroke-dasharray: 2.59,1.12; stroke-dashoffset: 0; stroke: #000000; stroke-width: 0.7"/>
   </g>
   <g id="matplotlib.axis_7">
    <g id="xtick_7">
     <g id="line2d_23">
      <g>
       <use xlink:href="#mbe00bb46e6" x="29.128326" y="175.122153" style="stroke: #000000"/>
      </g>
     </g>
     <g id="text_22">
      <!-- 0 -->
      <g transform="translate(26.901451 186.441059) scale(0.07 -0.07)">
       <use xlink:href="#DejaVuSans-30"/>
      </g>
     </g>
    </g>
    <g id="xtick_8">
     <g id="line2d_24">
      <g>
       <use xlink:href="#mbe00bb46e6" x="101.425431" y="175.122153" style="stroke: #000000"/>
      </g>
     </g>
     <g id="text_23">
      <!-- 2 -->
      <g transform="translate(99.198556 186.441059) scale(0.07 -0.07)">
       <defs>
        <path id="DejaVuSans-32" d="M 1228 531 
L 3431 531 
L 3431 0 
L 469 0 
L 469 531 
Q 828 903 1448 1529 
Q 2069 2156 2228 2338 
Q 2531 2678 2651 2914 
Q 2772 3150 2772 3378 
Q 2772 3750 2511 3984 
Q 2250 4219 1831 4219 
Q 1534 4219 1204 4116 
Q 875 4013 500 3803 
L 500 4441 
Q 881 4594 1212 4672 
Q 1544 4750 1819 4750 
Q 2544 4750 2975 4387 
Q 3406 4025 3406 3419 
Q 3406 3131 3298 2873 
Q 3191 2616 2906 2266 
Q 2828 2175 2409 1742 
Q 1991 1309 1228 531 
z
" transform="scale(0.015625)"/>
       </defs>
       <use xlink:href="#DejaVuSans-32"/>
      </g>
     </g>
    </g>
    <g id="text_24">
     <!-- [buffer] (mM) -->
     <g transform="translate(41.613735 188.215746) scale(0.07 -0.07)">
      <defs>
       <path id="DejaVuSans-5b" d="M 550 4863 
L 1875 4863 
L 1875 4416 
L 1125 4416 
L 1125 -397 
L 1875 -397 
L 1875 -844 
L 550 -844 
L 550 4863 
z
" transform="scale(0.015625)"/>
       <path id="DejaVuSans-62" d="M 3116 1747 
Q 3116 2381 2855 2742 
Q 2594 3103 2138 3103 
Q 1681 3103 1420 2742 
Q 1159 2381 1159 1747 
Q 1159 1113 1420 752 
Q 1681 391 2138 391 
Q 2594 391 2855 752 
Q 3116 1113 3116 1747 
z
M 1159 2969 
Q 1341 3281 1617 3432 
Q 1894 3584 2278 3584 
Q 2916 3584 3314 3078 
Q 3713 2572 3713 1747 
Q 3713 922 3314 415 
Q 2916 -91 2278 -91 
Q 1894 -91 1617 61 
Q 1341 213 1159 525 
L 1159 0 
L 581 0 
L 581 4863 
L 1159 4863 
L 1159 2969 
z
" transform="scale(0.015625)"/>
       <path id="DejaVuSans-75" d="M 544 1381 
L 544 3500 
L 1119 3500 
L 1119 1403 
Q 1119 906 1312 657 
Q 1506 409 1894 409 
Q 2359 409 2629 706 
Q 2900 1003 2900 1516 
L 2900 3500 
L 3475 3500 
L 3475 0 
L 2900 0 
L 2900 538 
Q 2691 219 2414 64 
Q 2138 -91 1772 -91 
Q 1169 -91 856 284 
Q 544 659 544 1381 
z
M 1991 3584 
L 1991 3584 
z
" transform="scale(0.015625)"/>
       <path id="DejaVuSans-66" d="M 2375 4863 
L 2375 4384 
L 1825 4384 
Q 1516 4384 1395 4259 
Q 1275 4134 1275 3809 
L 1275 3500 
L 2222 3500 
L 2222 3053 
L 1275 3053 
L 1275 0 
L 697 0 
L 697 3053 
L 147 3053 
L 147 3500 
L 697 3500 
L 697 3744 
Q 697 4328 969 4595 
Q 1241 4863 1831 4863 
L 2375 4863 
z
" transform="scale(0.015625)"/>
       <path id="DejaVuSans-5d" d="M 1947 4863 
L 1947 -844 
L 622 -844 
L 622 -397 
L 1369 -397 
L 1369 4416 
L 622 4416 
L 622 4863 
L 1947 4863 
z
" transform="scale(0.015625)"/>
      </defs>
      <use xlink:href="#DejaVuSans-5b"/>
      <use xlink:href="#DejaVuSans-62" transform="translate(39.013672 0)"/>
      <use xlink:href="#DejaVuSans-75" transform="translate(102.490234 0)"/>
      <use xlink:href="#DejaVuSans-66" transform="translate(165.869141 0)"/>
      <use xlink:href="#DejaVuSans-66" transform="translate(201.074219 0)"/>
      <use xlink:href="#DejaVuSans-65" transform="translate(236.279297 0)"/>
      <use xlink:href="#DejaVuSans-72" transform="translate(297.802734 0)"/>
      <use xlink:href="#DejaVuSans-5d" transform="translate(338.916016 0)"/>
      <use xlink:href="#DejaVuSans-20" transform="translate(377.929688 0)"/>
      <use xlink:href="#DejaVuSans-28" transform="translate(409.716797 0)"/>
      <use xlink:href="#DejaVuSans-6d" transform="translate(448.730469 0)"/>
      <use xlink:href="#DejaVuSans-4d" transform="translate(546.142578 0)"/>
      <use xlink:href="#DejaVuSans-29" transform="translate(632.421875 0)"/>
     </g>
    </g>
   </g>
   <g id="matplotlib.axis_8">
    <g id="ytick_7">
     <g id="line2d_25">
      <g>
       <use xlink:href="#m3cf79ad414" x="23.773537" y="160.020388" style="stroke: #000000"/>
      </g>
     </g>
     <g id="text_25">
      <!-- 0 -->
      <g transform="translate(13.319787 162.679841) scale(0.07 -0.07)">
       <use xlink:href="#DejaVuSans-30"/>
      </g>
     </g>
    </g>
    <g id="ytick_8">
     <g id="line2d_26">
      <g>
       <use xlink:href="#m3cf79ad414" x="23.773537" y="113.978424" style="stroke: #000000"/>
      </g>
     </g>
     <g id="text_26">
      <!-- 1 -->
      <g transform="translate(13.319787 116.637877) scale(0.07 -0.07)">
       <use xlink:href="#DejaVuSans-31"/>
      </g>
     </g>
    </g>
    <g id="text_27">
     <!-- plasticity -->
     <g transform="translate(12.864006 152.84675) rotate(-90) scale(0.07 -0.07)">
      <defs>
       <path id="DejaVuSans-79" d="M 2059 -325 
Q 1816 -950 1584 -1140 
Q 1353 -1331 966 -1331 
L 506 -1331 
L 506 -850 
L 844 -850 
Q 1081 -850 1212 -737 
Q 1344 -625 1503 -206 
L 1606 56 
L 191 3500 
L 800 3500 
L 1894 763 
L 2988 3500 
L 3597 3500 
L 2059 -325 
z
" transform="scale(0.015625)"/>
      </defs>
      <use xlink:href="#DejaVuSans-70"/>
      <use xlink:href="#DejaVuSans-6c" transform="translate(63.476562 0)"/>
      <use xlink:href="#DejaVuSans-61" transform="translate(91.259766 0)"/>
      <use xlink:href="#DejaVuSans-73" transform="translate(152.539062 0)"/>
      <use xlink:href="#DejaVuSans-74" transform="translate(204.638672 0)"/>
      <use xlink:href="#DejaVuSans-69" transform="translate(243.847656 0)"/>
      <use xlink:href="#DejaVuSans-63" transform="translate(271.630859 0)"/>
      <use xlink:href="#DejaVuSans-69" transform="translate(326.611328 0)"/>
      <use xlink:href="#DejaVuSans-74" transform="translate(354.394531 0)"/>
      <use xlink:href="#DejaVuSans-79" transform="translate(393.603516 0)"/>
     </g>
    </g>
   </g>
   <g id="patch_11">
    <path d="M 23.773537 160.020388 
L 23.773537 113.978424 
" style="fill: none; stroke: #000000; stroke-linejoin: miter; stroke-linecap: square"/>
   </g>
   <g id="patch_12">
    <path d="M 29.128326 175.122153 
L 101.425431 175.122153 
" style="fill: none; stroke: #000000; stroke-linejoin: miter; stroke-linecap: square"/>
   </g>
   <g id="text_28">
    <!-- LTP ($\propto I_{NMDAR}$) -->
    <g transform="translate(50.817458 120.514183) scale(0.07 -0.07)">
     <defs>
      <path id="DejaVuSans-4c" d="M 628 4666 
L 1259 4666 
L 1259 531 
L 3531 531 
L 3531 0 
L 628 0 
L 628 4666 
z
" transform="scale(0.015625)"/>
      <path id="DejaVuSans-221d" d="M 1647 1134 
Q 2163 1134 2472 1884 
Q 2075 2703 1647 2703 
Q 1334 2703 1175 2478 
Q 1006 2238 1006 1919 
Q 1006 1569 1175 1353 
Q 1350 1134 1647 1134 
z
M 3884 1128 
L 3884 716 
L 3644 716 
Q 3416 716 3247 809 
Q 3078 894 2916 1091 
Q 2819 1203 2666 1466 
Q 2456 1091 2272 925 
Q 2044 725 1681 725 
Q 1259 725 981 1041 
Q 688 1372 688 1919 
Q 688 2444 981 2800 
Q 1241 3116 1688 3116 
Q 1916 3116 2084 3022 
Q 2281 2919 2416 2741 
Q 2541 2581 2666 2366 
Q 2875 2741 3059 2906 
Q 3288 3106 3650 3106 
L 3884 3106 
L 3884 2697 
L 3684 2697 
Q 3222 2697 2859 1947 
Q 3256 1128 3684 1128 
L 3884 1128 
z
" transform="scale(0.015625)"/>
      <path id="DejaVuSans-Oblique-49" d="M 1081 4666 
L 1716 4666 
L 806 0 
L 172 0 
L 1081 4666 
z
" transform="scale(0.015625)"/>
      <path id="DejaVuSans-Oblique-4e" d="M 1081 4666 
L 1931 4666 
L 3219 666 
L 4000 4666 
L 4616 4666 
L 3706 0 
L 2853 0 
L 1569 4025 
L 788 0 
L 172 0 
L 1081 4666 
z
" transform="scale(0.015625)"/>
      <path id="DejaVuSans-Oblique-4d" d="M 1081 4666 
L 2028 4666 
L 2572 1522 
L 4378 4666 
L 5350 4666 
L 4441 0 
L 3828 0 
L 4622 4091 
L 2791 897 
L 2175 897 
L 1581 4103 
L 788 0 
L 172 0 
L 1081 4666 
z
" transform="scale(0.015625)"/>
      <path id="DejaVuSans-Oblique-44" d="M 1081 4666 
L 2438 4666 
Q 3519 4666 4070 4208 
Q 4622 3750 4622 2847 
Q 4622 2250 4412 1698 
Q 4203 1147 3834 769 
Q 3463 381 2891 190 
Q 2319 0 1538 0 
L 172 0 
L 1081 4666 
z
M 1613 4147 
L 909 519 
L 1734 519 
Q 2794 519 3375 1128 
Q 3956 1738 3956 2847 
Q 3956 3519 3581 3833 
Q 3206 4147 2406 4147 
L 1613 4147 
z
" transform="scale(0.015625)"/>
      <path id="DejaVuSans-Oblique-41" d="M 2356 4666 
L 3072 4666 
L 3938 0 
L 3278 0 
L 3084 1197 
L 984 1197 
L 325 0 
L -341 0 
L 2356 4666 
z
M 2584 4044 
L 1275 1722 
L 2988 1722 
L 2584 4044 
z
" transform="scale(0.015625)"/>
      <path id="DejaVuSans-Oblique-52" d="M 1613 4147 
L 1294 2491 
L 2106 2491 
Q 2584 2491 2879 2755 
Q 3175 3019 3175 3444 
Q 3175 3784 2976 3965 
Q 2778 4147 2406 4147 
L 1613 4147 
z
M 2772 2241 
Q 2972 2194 3105 2009 
Q 3238 1825 3413 1275 
L 3809 0 
L 3144 0 
L 2778 1197 
Q 2638 1659 2453 1815 
Q 2269 1972 1888 1972 
L 1191 1972 
L 806 0 
L 172 0 
L 1081 4666 
L 2503 4666 
Q 3150 4666 3495 4373 
Q 3841 4081 3841 3531 
Q 3841 3044 3547 2687 
Q 3253 2331 2772 2241 
z
" transform="scale(0.015625)"/>
     </defs>
     <use xlink:href="#DejaVuSans-4c" transform="translate(0 0.125)"/>
     <use xlink:href="#DejaVuSans-54" transform="translate(55.712891 0.125)"/>
     <use xlink:href="#DejaVuSans-50" transform="translate(116.796875 0.125)"/>
     <use xlink:href="#DejaVuSans-20" transform="translate(177.099609 0.125)"/>
     <use xlink:href="#DejaVuSans-28" transform="translate(208.886719 0.125)"/>
     <use xlink:href="#DejaVuSans-221d" transform="translate(267.382812 0.125)"/>
     <use xlink:href="#DejaVuSans-Oblique-49" transform="translate(358.300781 0.125)"/>
     <use xlink:href="#DejaVuSans-Oblique-4e" transform="translate(387.792969 -16.28125) scale(0.7)"/>
     <use xlink:href="#DejaVuSans-Oblique-4d" transform="translate(440.15625 -16.28125) scale(0.7)"/>
     <use xlink:href="#DejaVuSans-Oblique-44" transform="translate(500.551758 -16.28125) scale(0.7)"/>
     <use xlink:href="#DejaVuSans-Oblique-41" transform="translate(554.453125 -16.28125) scale(0.7)"/>
     <use xlink:href="#DejaVuSans-Oblique-52" transform="translate(602.338867 -16.28125) scale(0.7)"/>
     <use xlink:href="#DejaVuSans-29" transform="translate(653.710938 0.125)"/>
    </g>
   </g>
   <g id="text_29">
    <!-- LTD ($\propto I_{VGCC}$) -->
    <g style="fill: #9370db" transform="translate(50.817458 127.420477) scale(0.07 -0.07)">
     <defs>
      <path id="DejaVuSans-Oblique-56" d="M 1319 0 
L 500 4666 
L 1119 4666 
L 1797 653 
L 4063 4666 
L 4750 4666 
L 2053 0 
L 1319 0 
z
" transform="scale(0.015625)"/>
      <path id="DejaVuSans-Oblique-47" d="M 3494 697 
L 3738 1919 
L 2700 1919 
L 2797 2438 
L 4453 2438 
L 4050 384 
Q 3634 156 3143 32 
Q 2653 -91 2156 -91 
Q 1278 -91 783 396 
Q 288 884 288 1753 
Q 288 2475 589 3126 
Q 891 3778 1422 4213 
Q 1756 4484 2153 4617 
Q 2550 4750 3034 4750 
Q 3472 4750 3873 4639 
Q 4275 4528 4641 4306 
L 4513 3634 
Q 4231 3928 3853 4083 
Q 3475 4238 3047 4238 
Q 2550 4238 2172 4048 
Q 1794 3859 1497 3463 
Q 1244 3125 1098 2667 
Q 953 2209 953 1734 
Q 953 1081 1287 751 
Q 1622 422 2284 422 
Q 2616 422 2925 492 
Q 3234 563 3494 697 
z
" transform="scale(0.015625)"/>
      <path id="DejaVuSans-Oblique-43" d="M 4447 4306 
L 4319 3641 
Q 4019 3944 3683 4091 
Q 3347 4238 2956 4238 
Q 2422 4238 2017 3981 
Q 1613 3725 1319 3200 
Q 1131 2863 1032 2486 
Q 934 2109 934 1728 
Q 934 1091 1264 756 
Q 1594 422 2222 422 
Q 2656 422 3056 561 
Q 3456 700 3834 978 
L 3688 231 
Q 3316 72 2936 -9 
Q 2556 -91 2175 -91 
Q 1278 -91 773 396 
Q 269 884 269 1753 
Q 269 2309 461 2846 
Q 653 3384 1013 3828 
Q 1394 4300 1883 4525 
Q 2372 4750 3022 4750 
Q 3422 4750 3780 4639 
Q 4138 4528 4447 4306 
z
" transform="scale(0.015625)"/>
     </defs>
     <use xlink:href="#DejaVuSans-4c" transform="translate(0 0.125)"/>
     <use xlink:href="#DejaVuSans-54" transform="translate(55.712891 0.125)"/>
     <use xlink:href="#DejaVuSans-44" transform="translate(116.796875 0.125)"/>
     <use xlink:href="#DejaVuSans-20" transform="translate(193.798828 0.125)"/>
     <use xlink:href="#DejaVuSans-28" transform="translate(225.585938 0.125)"/>
     <use xlink:href="#DejaVuSans-221d" transform="translate(284.082031 0.125)"/>
     <use xlink:href="#DejaVuSans-Oblique-49" transform="translate(375 0.125)"/>
     <use xlink:href="#DejaVuSans-Oblique-56" transform="translate(404.492188 -16.28125) scale(0.7)"/>
     <use xlink:href="#DejaVuSans-Oblique-47" transform="translate(452.37793 -16.28125) scale(0.7)"/>
     <use xlink:href="#DejaVuSans-Oblique-43" transform="translate(506.621094 -16.28125) scale(0.7)"/>
     <use xlink:href="#DejaVuSans-Oblique-43" transform="translate(555.498047 -16.28125) scale(0.7)"/>
     <use xlink:href="#DejaVuSans-29" transform="translate(607.109375 0.125)"/>
    </g>
   </g>
   <g id="line2d_27">
    <path d="M 29.128326 113.627148 
L 29.851297 114.105937 
L 30.574269 114.601774 
L 31.29724 115.114835 
L 32.020211 115.645259 
L 32.743182 116.193142 
L 33.466153 116.758535 
L 34.189124 117.341438 
L 34.912095 117.941804 
L 35.635066 118.559528 
L 36.358037 119.194447 
L 37.081008 119.846342 
L 37.803979 120.514928 
L 38.52695 121.199858 
L 39.249921 121.90072 
L 39.972892 122.617034 
L 40.695863 123.348257 
L 41.418834 124.093776 
L 42.141805 124.852913 
L 42.864776 125.624926 
L 43.587747 126.409009 
L 44.310718 127.204296 
L 45.033689 128.009864 
L 45.75666 128.824734 
L 46.479632 129.647881 
L 47.202603 130.478232 
L 47.925574 131.314675 
L 48.648545 132.156064 
L 49.371516 133.001227 
L 50.094487 133.848967 
L 50.817458 134.698075 
L 51.540429 135.547334 
L 52.2634 136.395525 
L 52.986371 137.241437 
L 53.709342 138.083869 
L 54.432313 138.921642 
L 55.155284 139.753603 
L 55.878255 140.578631 
L 56.601226 141.395645 
L 57.324197 142.203604 
L 58.047168 143.00152 
L 58.770139 143.788455 
L 59.49311 144.563528 
L 60.216081 145.325918 
L 60.939052 146.074868 
L 61.662023 146.809683 
L 62.384994 147.529735 
L 63.107966 148.234463 
L 63.830937 148.923371 
L 64.553908 149.596031 
L 65.276879 150.252079 
L 65.99985 150.891217 
L 66.722821 151.513207 
L 67.445792 152.117874 
L 68.168763 152.7051 
L 68.891734 153.274822 
L 69.614705 153.827029 
L 70.337676 154.36176 
L 71.060647 154.879101 
L 71.783618 155.37918 
L 72.506589 155.862163 
L 73.22956 156.328255 
L 73.952531 156.777692 
L 74.675502 157.21074 
L 75.398473 157.627691 
L 76.121444 158.028861 
L 76.844415 158.414585 
L 77.567386 158.785215 
L 78.290357 159.141121 
L 79.013328 159.48268 
L 79.7363 159.810282 
L 80.459271 160.124323 
L 81.182242 160.425205 
L 81.905213 160.713333 
L 82.628184 160.989112 
L 83.351155 161.252949 
L 84.074126 161.505249 
L 84.797097 161.746413 
L 85.520068 161.976838 
L 86.243039 162.196917 
L 86.96601 162.407037 
L 87.688981 162.607576 
L 88.411952 162.798907 
L 89.134923 162.981393 
L 89.857894 163.15539 
L 90.580865 163.321243 
L 91.303836 163.47929 
L 92.026807 163.629858 
L 92.749778 163.773263 
L 93.472749 163.909815 
L 94.19572 164.039809 
L 94.918691 164.163534 
L 95.641663 164.281268 
L 96.364634 164.393279 
L 97.087605 164.499823 
L 97.810576 164.601151 
L 98.533547 164.6975 
L 99.256518 164.789101 
L 99.979489 164.876174 
L 100.70246 164.958931 
L 101.425431 165.037574 
" clip-path="url(#pcb6cdbde30)" style="fill: none; stroke: #000000; stroke-linecap: square"/>
   </g>
   <g id="line2d_28">
    <path d="M 29.128326 112.942336 
L 29.851297 113.000167 
L 30.574269 113.078489 
L 31.29724 113.18446 
L 32.020211 113.327654 
L 32.743182 113.520806 
L 33.466153 113.780727 
L 34.189124 114.129385 
L 34.912095 114.595078 
L 35.635066 115.21355 
L 36.358037 116.028724 
L 37.081008 117.0925 
L 37.803979 118.46277 
L 38.52695 120.198597 
L 39.249921 122.351555 
L 39.972892 124.953021 
L 40.695863 127.999003 
L 41.418834 131.436713 
L 42.141805 135.159192 
L 42.864776 139.01362 
L 43.587747 142.824096 
L 44.310718 146.422535 
L 45.033689 149.676758 
L 45.75666 152.506475 
L 46.479632 154.884333 
L 47.202603 156.825727 
L 47.925574 158.373819 
L 48.648545 159.585231 
L 49.371516 160.519272 
L 50.094487 161.231272 
L 50.817458 161.769307 
L 51.540429 162.173209 
L 52.2634 162.47492 
L 52.986371 162.699462 
L 53.709342 162.866113 
L 54.432313 162.989545 
L 55.155284 163.080828 
L 55.878255 163.14826 
L 56.601226 163.198031 
L 57.324197 163.234745 
L 58.047168 163.261814 
L 58.770139 163.281766 
L 59.49311 163.296469 
L 60.216081 163.307301 
L 60.939052 163.315281 
L 61.662023 163.321158 
L 62.384994 163.325488 
L 63.107966 163.328676 
L 63.830937 163.331024 
L 64.553908 163.332753 
L 65.276879 163.334027 
L 65.99985 163.334964 
L 66.722821 163.335655 
L 67.445792 163.336164 
L 68.168763 163.336538 
L 68.891734 163.336814 
L 69.614705 163.337017 
L 70.337676 163.337167 
L 71.060647 163.337277 
L 71.783618 163.337358 
L 72.506589 163.337418 
L 73.22956 163.337461 
L 73.952531 163.337494 
L 74.675502 163.337518 
L 75.398473 163.337535 
L 76.121444 163.337548 
L 76.844415 163.337558 
L 77.567386 163.337565 
L 78.290357 163.33757 
L 79.013328 163.337574 
L 79.7363 163.337576 
L 80.459271 163.337579 
L 81.182242 163.33758 
L 81.905213 163.337581 
L 82.628184 163.337582 
L 83.351155 163.337583 
L 84.074126 163.337583 
L 84.797097 163.337583 
L 85.520068 163.337584 
L 86.243039 163.337584 
L 86.96601 163.337584 
L 87.688981 163.337584 
L 88.411952 163.337584 
L 89.134923 163.337584 
L 89.857894 163.337584 
L 90.580865 163.337584 
L 91.303836 163.337584 
L 92.026807 163.337584 
L 92.749778 163.337584 
L 93.472749 163.337584 
L 94.19572 163.337584 
L 94.918691 163.337584 
L 95.641663 163.337584 
L 96.364634 163.337584 
L 97.087605 163.337584 
L 97.810576 163.337584 
L 98.533547 163.337584 
L 99.256518 163.337584 
L 99.979489 163.337584 
L 100.70246 163.337584 
L 101.425431 163.337584 
" clip-path="url(#pcb6cdbde30)" style="fill: none; stroke: #9370db; stroke-linecap: square"/>
   </g>
   <g id="line2d_29">
    <defs>
     <path id="ma311ca38a3" d="M 0 1.5 
C 0.397805 1.5 0.77937 1.341951 1.06066 1.06066 
C 1.341951 0.77937 1.5 0.397805 1.5 0 
C 1.5 -0.397805 1.341951 -0.77937 1.06066 -1.06066 
C 0.77937 -1.341951 0.397805 -1.5 0 -1.5 
C -0.397805 -1.5 -0.77937 -1.341951 -1.06066 -1.06066 
C -1.341951 -0.77937 -1.5 -0.397805 -1.5 0 
C -1.5 0.397805 -1.341951 0.77937 -1.06066 1.06066 
C -0.77937 1.341951 -0.397805 1.5 0 1.5 
z
" style="stroke: #000000; stroke-opacity: 0"/>
    </defs>
    <g clip-path="url(#pcb6cdbde30)">
     <use xlink:href="#ma311ca38a3" x="29.452529" y="113.839743" style="stroke: #000000; stroke-opacity: 0"/>
     <use xlink:href="#ma311ca38a3" x="47.205532" y="130.481417" style="stroke: #000000; stroke-opacity: 0"/>
     <use xlink:href="#ma311ca38a3" x="65.276879" y="148.371217" style="stroke: #000000; stroke-opacity: 0"/>
     <use xlink:href="#ma311ca38a3" x="101.171538" y="167.925183" style="stroke: #000000; stroke-opacity: 0"/>
     <use xlink:href="#ma311ca38a3" x="29.452529" y="113.839743" style="stroke: #000000; stroke-opacity: 0"/>
     <use xlink:href="#ma311ca38a3" x="47.205532" y="130.481417" style="stroke: #000000; stroke-opacity: 0"/>
     <use xlink:href="#ma311ca38a3" x="65.259301" y="152.115593" style="stroke: #000000; stroke-opacity: 0"/>
     <use xlink:href="#ma311ca38a3" x="101.19888" y="162.100598" style="stroke: #000000; stroke-opacity: 0"/>
    </g>
   </g>
   <g id="line2d_30">
    <defs>
     <path id="meab0c5b713" d="M 0 1.5 
C 0.397805 1.5 0.77937 1.341951 1.06066 1.06066 
C 1.341951 0.77937 1.5 0.397805 1.5 0 
C 1.5 -0.397805 1.341951 -0.77937 1.06066 -1.06066 
C 0.77937 -1.341951 0.397805 -1.5 0 -1.5 
C -0.397805 -1.5 -0.77937 -1.341951 -1.06066 -1.06066 
C -1.341951 -0.77937 -1.5 -0.397805 -1.5 0 
C -1.5 0.397805 -1.341951 0.77937 -1.06066 1.06066 
C -0.77937 1.341951 -0.397805 1.5 0 1.5 
z
" style="stroke: #000000; stroke-opacity: 0"/>
    </defs>
    <g clip-path="url(#pcb6cdbde30)">
     <use xlink:href="#meab0c5b713" x="28.802664" y="113.457587" style="fill: #9370db; stroke: #000000; stroke-opacity: 0"/>
     <use xlink:href="#meab0c5b713" x="32.710615" y="108.040885" style="fill: #9370db; stroke: #000000; stroke-opacity: 0"/>
     <use xlink:href="#meab0c5b713" x="37.921218" y="117.207611" style="fill: #9370db; stroke: #000000; stroke-opacity: 0"/>
     <use xlink:href="#meab0c5b713" x="47.039771" y="157.624539" style="fill: #9370db; stroke: #000000; stroke-opacity: 0"/>
     <use xlink:href="#meab0c5b713" x="65.276879" y="164.707919" style="fill: #9370db; stroke: #000000; stroke-opacity: 0"/>
     <use xlink:href="#meab0c5b713" x="101.425431" y="161.791233" style="fill: #9370db; stroke: #000000; stroke-opacity: 0"/>
     <use xlink:href="#meab0c5b713" x="28.802664" y="113.874256" style="fill: #9370db; stroke: #000000; stroke-opacity: 0"/>
     <use xlink:href="#meab0c5b713" x="32.710615" y="117.207611" style="fill: #9370db; stroke: #000000; stroke-opacity: 0"/>
     <use xlink:href="#meab0c5b713" x="37.921218" y="120.540966" style="fill: #9370db; stroke: #000000; stroke-opacity: 0"/>
     <use xlink:href="#meab0c5b713" x="47.039771" y="155.124523" style="fill: #9370db; stroke: #000000; stroke-opacity: 0"/>
     <use xlink:href="#meab0c5b713" x="65.276879" y="169.291282" style="fill: #9370db; stroke: #000000; stroke-opacity: 0"/>
     <use xlink:href="#meab0c5b713" x="101.425431" y="157.624539" style="fill: #9370db; stroke: #000000; stroke-opacity: 0"/>
    </g>
   </g>
  </g>
  <g id="axes_5">
   <g id="patch_13">
    <path d="M 128.622708 173.832978 
L 208.507752 173.832978 
L 208.507752 100.165834 
L 128.622708 100.165834 
L 128.622708 173.832978 
z
" style="fill: none"/>
   </g>
   <g id="matplotlib.axis_9">
    <g id="xtick_9">
     <g id="line2d_31">
      <g>
       <use xlink:href="#mbe00bb46e6" x="132.095971" y="175.122153" style="stroke: #000000"/>
      </g>
     </g>
     <g id="text_30">
      <!-- −70 -->
      <g transform="translate(124.70933 186.441059) scale(0.07 -0.07)">
       <use xlink:href="#DejaVuSans-2212"/>
       <use xlink:href="#DejaVuSans-37" transform="translate(83.789062 0)"/>
       <use xlink:href="#DejaVuSans-30" transform="translate(147.412109 0)"/>
      </g>
     </g>
    </g>
    <g id="xtick_10">
     <g id="line2d_32">
      <g>
       <use xlink:href="#mbe00bb46e6" x="208.507752" y="175.122153" style="stroke: #000000"/>
      </g>
     </g>
     <g id="text_31">
      <!-- 40 -->
      <g transform="translate(204.054002 186.441059) scale(0.07 -0.07)">
       <defs>
        <path id="DejaVuSans-34" d="M 2419 4116 
L 825 1625 
L 2419 1625 
L 2419 4116 
z
M 2253 4666 
L 3047 4666 
L 3047 1625 
L 3713 1625 
L 3713 1100 
L 3047 1100 
L 3047 0 
L 2419 0 
L 2419 1100 
L 313 1100 
L 313 1709 
L 2253 4666 
z
" transform="scale(0.015625)"/>
       </defs>
       <use xlink:href="#DejaVuSans-34"/>
       <use xlink:href="#DejaVuSans-30" transform="translate(63.623047 0)"/>
      </g>
     </g>
    </g>
    <g id="text_32">
     <!-- AP Peak (mV) -->
     <g transform="translate(144.99273 188.215746) scale(0.07 -0.07)">
      <defs>
       <path id="DejaVuSans-6b" d="M 581 4863 
L 1159 4863 
L 1159 1991 
L 2875 3500 
L 3609 3500 
L 1753 1863 
L 3688 0 
L 2938 0 
L 1159 1709 
L 1159 0 
L 581 0 
L 581 4863 
z
" transform="scale(0.015625)"/>
      </defs>
      <use xlink:href="#DejaVuSans-41"/>
      <use xlink:href="#DejaVuSans-50" transform="translate(68.408203 0)"/>
      <use xlink:href="#DejaVuSans-20" transform="translate(128.710938 0)"/>
      <use xlink:href="#DejaVuSans-50" transform="translate(160.498047 0)"/>
      <use xlink:href="#DejaVuSans-65" transform="translate(217.175781 0)"/>
      <use xlink:href="#DejaVuSans-61" transform="translate(278.699219 0)"/>
      <use xlink:href="#DejaVuSans-6b" transform="translate(339.978516 0)"/>
      <use xlink:href="#DejaVuSans-20" transform="translate(397.888672 0)"/>
      <use xlink:href="#DejaVuSans-28" transform="translate(429.675781 0)"/>
      <use xlink:href="#DejaVuSans-6d" transform="translate(468.689453 0)"/>
      <use xlink:href="#DejaVuSans-56" transform="translate(566.101562 0)"/>
      <use xlink:href="#DejaVuSans-29" transform="translate(634.509766 0)"/>
     </g>
    </g>
   </g>
   <g id="matplotlib.axis_10">
    <g id="ytick_9">
     <g id="line2d_33">
      <g>
       <use xlink:href="#m3cf79ad414" x="127.285502" y="167.694049" style="stroke: #000000"/>
      </g>
     </g>
     <g id="text_33">
      <!-- 0 -->
      <g transform="translate(116.831752 170.353502) scale(0.07 -0.07)">
       <use xlink:href="#DejaVuSans-30"/>
      </g>
     </g>
    </g>
    <g id="ytick_10">
     <g id="line2d_34">
      <g>
       <use xlink:href="#m3cf79ad414" x="127.285502" y="106.304763" style="stroke: #000000"/>
      </g>
     </g>
     <g id="text_34">
      <!-- 1 -->
      <g transform="translate(116.831752 108.964216) scale(0.07 -0.07)">
       <use xlink:href="#DejaVuSans-31"/>
      </g>
     </g>
    </g>
    <g id="text_35">
     <!-- plasticity -->
     <g transform="translate(116.375971 152.84675) rotate(-90) scale(0.07 -0.07)">
      <use xlink:href="#DejaVuSans-70"/>
      <use xlink:href="#DejaVuSans-6c" transform="translate(63.476562 0)"/>
      <use xlink:href="#DejaVuSans-61" transform="translate(91.259766 0)"/>
      <use xlink:href="#DejaVuSans-73" transform="translate(152.539062 0)"/>
      <use xlink:href="#DejaVuSans-74" transform="translate(204.638672 0)"/>
      <use xlink:href="#DejaVuSans-69" transform="translate(243.847656 0)"/>
      <use xlink:href="#DejaVuSans-63" transform="translate(271.630859 0)"/>
      <use xlink:href="#DejaVuSans-69" transform="translate(326.611328 0)"/>
      <use xlink:href="#DejaVuSans-74" transform="translate(354.394531 0)"/>
      <use xlink:href="#DejaVuSans-79" transform="translate(393.603516 0)"/>
     </g>
    </g>
   </g>
   <g id="line2d_35">
    <path d="M 132.095971 167.694049 
L 142.193677 167.694049 
L 142.367776 167.520262 
L 143.586464 162.054595 
L 148.287121 139.673689 
L 149.505809 135.06331 
L 151.420892 129.196136 
L 152.291384 126.977052 
L 153.335974 124.635938 
L 154.380564 122.616068 
L 155.773351 120.295781 
L 157.340237 118.210554 
L 159.777614 115.657112 
L 162.563188 113.561121 
L 167.263845 111.346686 
L 168.134337 111.026489 
L 169.87532 110.553172 
L 170.571714 110.358432 
L 173.357288 109.820923 
L 174.053682 109.74507 
L 175.098272 109.594065 
L 175.968764 109.518913 
L 176.839256 109.443995 
L 178.232043 109.36931 
L 178.928436 109.332055 
L 185.544175 109.406623 
L 186.414667 109.481425 
L 187.459257 109.55646 
L 188.503848 109.669451 
L 189.200241 109.74507 
L 190.593028 109.93514 
L 191.289422 110.011577 
L 192.682209 110.242289 
L 193.204504 110.31966 
L 201.561226 112.246333 
L 201.561226 112.246333 
" clip-path="url(#p1e5cea5f64)" style="fill: none; stroke: #000000; stroke-linecap: square"/>
   </g>
   <g id="line2d_36">
    <path d="M 132.095971 167.694049 
L 178.928436 167.587844 
L 179.450732 164.105561 
L 180.147125 157.147806 
L 180.843519 148.165603 
L 181.888109 133.784563 
L 182.584502 125.87734 
L 183.280896 119.833374 
L 183.97729 115.536872 
L 184.847781 111.980646 
L 185.718273 109.772776 
L 186.414667 108.568058 
L 187.11106 107.67955 
L 188.155651 106.79427 
L 189.896635 105.982444 
L 191.46352 105.582301 
L 194.945488 105.170178 
L 198.427455 105.000421 
L 201.561226 104.923312 
L 201.561226 104.923312 
" clip-path="url(#p1e5cea5f64)" style="fill: none; stroke: #9370db; stroke-linecap: square"/>
   </g>
   <g id="patch_14">
    <path d="M 127.285502 167.694049 
L 127.285502 106.304763 
" style="fill: none; stroke: #000000; stroke-linejoin: miter; stroke-linecap: square"/>
   </g>
   <g id="patch_15">
    <path d="M 132.095971 175.122153 
L 208.507752 175.122153 
" style="fill: none; stroke: #000000; stroke-linejoin: miter; stroke-linecap: square"/>
   </g>
  </g>
  <g id="axes_6">
   <g id="patch_16">
    <path d="M 236.588424 173.832978 
L 316.473467 173.832978 
L 316.473467 100.165834 
L 236.588424 100.165834 
L 236.588424 173.832978 
z
" style="fill: none"/>
   </g>
   <g id="line2d_37">
    <path d="M 243.245511 112.246333 
L 276.530945 110.553172 
L 309.81638 113.045686 
" clip-path="url(#p100a08da73)" style="fill: none; stroke: #000000; stroke-linecap: square"/>
    <defs>
     <path id="m83104ff585" d="M 0 1.5 
C 0.397805 1.5 0.77937 1.341951 1.06066 1.06066 
C 1.341951 0.77937 1.5 0.397805 1.5 0 
C 1.5 -0.397805 1.341951 -0.77937 1.06066 -1.06066 
C 0.77937 -1.341951 0.397805 -1.5 0 -1.5 
C -0.397805 -1.5 -0.77937 -1.341951 -1.06066 -1.06066 
C -1.341951 -0.77937 -1.5 -0.397805 -1.5 0 
C -1.5 0.397805 -1.341951 0.77937 -1.06066 1.06066 
C -0.77937 1.341951 -0.397805 1.5 0 1.5 
z
" style="stroke: #000000"/>
    </defs>
    <g clip-path="url(#p100a08da73)">
     <use xlink:href="#m83104ff585" x="243.245511" y="112.246333" style="stroke: #000000"/>
     <use xlink:href="#m83104ff585" x="276.530945" y="110.553172" style="stroke: #000000"/>
     <use xlink:href="#m83104ff585" x="309.81638" y="113.045686" style="stroke: #000000"/>
    </g>
   </g>
   <g id="line2d_38">
    <path d="M 243.245511 106.304763 
L 276.530945 106.304763 
L 309.81638 167.694049 
" clip-path="url(#p100a08da73)" style="fill: none; stroke: #9370db; stroke-linecap: square"/>
    <defs>
     <path id="m2878f79e78" d="M 0 1.5 
C 0.397805 1.5 0.77937 1.341951 1.06066 1.06066 
C 1.341951 0.77937 1.5 0.397805 1.5 0 
C 1.5 -0.397805 1.341951 -0.77937 1.06066 -1.06066 
C 0.77937 -1.341951 0.397805 -1.5 0 -1.5 
C -0.397805 -1.5 -0.77937 -1.341951 -1.06066 -1.06066 
C -1.341951 -0.77937 -1.5 -0.397805 -1.5 0 
C -1.5 0.397805 -1.341951 0.77937 -1.06066 1.06066 
C -0.77937 1.341951 -0.397805 1.5 0 1.5 
z
" style="stroke: #9370db"/>
    </defs>
    <g clip-path="url(#p100a08da73)">
     <use xlink:href="#m2878f79e78" x="243.245511" y="106.304763" style="fill: #9370db; stroke: #9370db"/>
     <use xlink:href="#m2878f79e78" x="276.530945" y="106.304763" style="fill: #9370db; stroke: #9370db"/>
     <use xlink:href="#m2878f79e78" x="309.81638" y="167.694049" style="fill: #9370db; stroke: #9370db"/>
    </g>
   </g>
   <g id="matplotlib.axis_11">
    <g id="xtick_11">
     <g id="line2d_39">
      <g>
       <use xlink:href="#mbe00bb46e6" x="243.245511" y="175.122153" style="stroke: #000000"/>
      </g>
     </g>
     <g id="text_36">
      <!-- proximal -->
      <g transform="translate(225.532375 206.357357) rotate(-45) scale(0.07 -0.07)">
       <use xlink:href="#DejaVuSans-70"/>
       <use xlink:href="#DejaVuSans-72" transform="translate(63.476562 0)"/>
       <use xlink:href="#DejaVuSans-6f" transform="translate(102.339844 0)"/>
       <use xlink:href="#DejaVuSans-78" transform="translate(160.396484 0)"/>
       <use xlink:href="#DejaVuSans-69" transform="translate(219.576172 0)"/>
       <use xlink:href="#DejaVuSans-6d" transform="translate(247.359375 0)"/>
       <use xlink:href="#DejaVuSans-61" transform="translate(344.771484 0)"/>
       <use xlink:href="#DejaVuSans-6c" transform="translate(406.050781 0)"/>
      </g>
     </g>
    </g>
    <g id="xtick_12">
     <g id="line2d_40">
      <g>
       <use xlink:href="#mbe00bb46e6" x="276.530945" y="175.122153" style="stroke: #000000"/>
      </g>
     </g>
     <g id="text_37">
      <!-- distal -->
      <g transform="translate(266.847229 198.327939) rotate(-45) scale(0.07 -0.07)">
       <use xlink:href="#DejaVuSans-64"/>
       <use xlink:href="#DejaVuSans-69" transform="translate(63.476562 0)"/>
       <use xlink:href="#DejaVuSans-73" transform="translate(91.259766 0)"/>
       <use xlink:href="#DejaVuSans-74" transform="translate(143.359375 0)"/>
       <use xlink:href="#DejaVuSans-61" transform="translate(182.568359 0)"/>
       <use xlink:href="#DejaVuSans-6c" transform="translate(243.847656 0)"/>
      </g>
      <!-- simple -->
      <g transform="translate(269.496581 206.763855) rotate(-45) scale(0.07 -0.07)">
       <use xlink:href="#DejaVuSans-73"/>
       <use xlink:href="#DejaVuSans-69" transform="translate(52.099609 0)"/>
       <use xlink:href="#DejaVuSans-6d" transform="translate(79.882812 0)"/>
       <use xlink:href="#DejaVuSans-70" transform="translate(177.294922 0)"/>
       <use xlink:href="#DejaVuSans-6c" transform="translate(240.771484 0)"/>
       <use xlink:href="#DejaVuSans-65" transform="translate(268.554688 0)"/>
      </g>
     </g>
    </g>
    <g id="xtick_13">
     <g id="line2d_41">
      <g>
       <use xlink:href="#mbe00bb46e6" x="309.81638" y="175.122153" style="stroke: #000000"/>
      </g>
     </g>
     <g id="text_38">
      <!-- distal -->
      <g transform="translate(300.132664 198.327939) rotate(-45) scale(0.07 -0.07)">
       <use xlink:href="#DejaVuSans-64"/>
       <use xlink:href="#DejaVuSans-69" transform="translate(63.476562 0)"/>
       <use xlink:href="#DejaVuSans-73" transform="translate(91.259766 0)"/>
       <use xlink:href="#DejaVuSans-74" transform="translate(143.359375 0)"/>
       <use xlink:href="#DejaVuSans-61" transform="translate(182.568359 0)"/>
       <use xlink:href="#DejaVuSans-6c" transform="translate(243.847656 0)"/>
      </g>
      <!-- complex -->
      <g transform="translate(298.142401 211.40347) rotate(-45) scale(0.07 -0.07)">
       <use xlink:href="#DejaVuSans-63"/>
       <use xlink:href="#DejaVuSans-6f" transform="translate(54.980469 0)"/>
       <use xlink:href="#DejaVuSans-6d" transform="translate(116.162109 0)"/>
       <use xlink:href="#DejaVuSans-70" transform="translate(213.574219 0)"/>
       <use xlink:href="#DejaVuSans-6c" transform="translate(277.050781 0)"/>
       <use xlink:href="#DejaVuSans-65" transform="translate(304.833984 0)"/>
       <use xlink:href="#DejaVuSans-78" transform="translate(364.607422 0)"/>
      </g>
     </g>
    </g>
   </g>
   <g id="matplotlib.axis_12">
    <g id="ytick_11">
     <g id="line2d_42">
      <g>
       <use xlink:href="#m3cf79ad414" x="235.190435" y="167.694049" style="stroke: #000000"/>
      </g>
     </g>
     <g id="text_39">
      <!-- 0 -->
      <g transform="translate(224.736685 170.353502) scale(0.07 -0.07)">
       <use xlink:href="#DejaVuSans-30"/>
      </g>
     </g>
    </g>
    <g id="ytick_12">
     <g id="line2d_43">
      <g>
       <use xlink:href="#m3cf79ad414" x="235.190435" y="106.304763" style="stroke: #000000"/>
      </g>
     </g>
     <g id="text_40">
      <!-- 1 -->
      <g transform="translate(224.736685 108.964216) scale(0.07 -0.07)">
       <use xlink:href="#DejaVuSans-31"/>
      </g>
     </g>
    </g>
    <g id="text_41">
     <!-- plasticity -->
     <g transform="translate(224.280904 152.84675) rotate(-90) scale(0.07 -0.07)">
      <use xlink:href="#DejaVuSans-70"/>
      <use xlink:href="#DejaVuSans-6c" transform="translate(63.476562 0)"/>
      <use xlink:href="#DejaVuSans-61" transform="translate(91.259766 0)"/>
      <use xlink:href="#DejaVuSans-73" transform="translate(152.539062 0)"/>
      <use xlink:href="#DejaVuSans-74" transform="translate(204.638672 0)"/>
      <use xlink:href="#DejaVuSans-69" transform="translate(243.847656 0)"/>
      <use xlink:href="#DejaVuSans-63" transform="translate(271.630859 0)"/>
      <use xlink:href="#DejaVuSans-69" transform="translate(326.611328 0)"/>
      <use xlink:href="#DejaVuSans-74" transform="translate(354.394531 0)"/>
      <use xlink:href="#DejaVuSans-79" transform="translate(393.603516 0)"/>
     </g>
    </g>
   </g>
   <g id="patch_17">
    <path d="M 235.190435 167.694049 
L 235.190435 106.304763 
" style="fill: none; stroke: #000000; stroke-linejoin: miter; stroke-linecap: square"/>
   </g>
   <g id="patch_18">
    <path d="M 243.245511 175.122153 
L 309.81638 175.122153 
" style="fill: none; stroke: #000000; stroke-linejoin: miter; stroke-linecap: square"/>
   </g>
  </g>
 </g>
 <defs>
  <clipPath id="p53fafeb335">
   <rect x="25.171525" y="5.659693" width="79.885044" height="73.667143"/>
  </clipPath>
  <clipPath id="p43a6b29262">
   <rect x="128.622708" y="5.659693" width="79.885044" height="73.667143"/>
  </clipPath>
  <clipPath id="p4ae7739fd1">
   <rect x="236.588424" y="5.659693" width="79.885044" height="73.667143"/>
  </clipPath>
  <clipPath id="pcb6cdbde30">
   <rect x="25.171525" y="100.165834" width="79.885044" height="73.667143"/>
  </clipPath>
  <clipPath id="p1e5cea5f64">
   <rect x="128.622708" y="100.165834" width="79.885044" height="73.667143"/>
  </clipPath>
  <clipPath id="p100a08da73">
   <rect x="236.588424" y="100.165834" width="79.885044" height="73.667143"/>
  </clipPath>
 </defs>
</svg>
