<?xml version="1.0" encoding="utf-8" standalone="no"?>
<!DOCTYPE svg PUBLIC "-//W3C//DTD SVG 1.1//EN"
  "http://www.w3.org/Graphics/SVG/1.1/DTD/svg11.dtd">
<svg xmlns:xlink="http://www.w3.org/1999/xlink" width="493.228346pt" height="98.645669pt" viewBox="0 0 493.228346 98.645669" xmlns="http://www.w3.org/2000/svg" version="1.1">
 <metadata>
  <rdf:RDF xmlns:dc="http://purl.org/dc/elements/1.1/" xmlns:cc="http://creativecommons.org/ns#" xmlns:rdf="http://www.w3.org/1999/02/22-rdf-syntax-ns#">
   <cc:Work>
    <dc:type rdf:resource="http://purl.org/dc/dcmitype/StillImage"/>
    <dc:date>2025-04-21T16:54:22.506043</dc:date>
    <dc:format>image/svg+xml</dc:format>
    <dc:creator>
     <cc:Agent>
      <dc:title>Matplotlib v3.10.1, https://matplotlib.org/</dc:title>
     </cc:Agent>
    </dc:creator>
   </cc:Work>
  </rdf:RDF>
 </metadata>
 <defs>
  <style type="text/css">*{stroke-linejoin: round; stroke-linecap: butt}</style>
 </defs>
 <g id="figure_1">
  <g id="axes_1">
   <g id="patch_1">
    <path d="M 20.997236 79.798662 
L 122.057979 79.798662 
L 122.057979 5.659693 
L 20.997236 5.659693 
L 20.997236 79.798662 
z
" style="fill: none"/>
   </g>
   <g id="line2d_1">
    <path d="M 20.997236 65.897605 
L 122.057979 65.897605 
" clip-path="url(#pf1b3987862)" style="fill: none; stroke-dasharray: 2.59,1.12; stroke-dashoffset: 0; stroke: #000000; stroke-width: 0.7"/>
   </g>
   <g id="matplotlib.axis_1">
    <g id="xtick_1">
     <g id="line2d_2">
      <defs>
       <path id="m3c8d3807af" d="M 0 0 
L 0 2.5 
" style="stroke: #000000"/>
      </defs>
      <g>
       <use xlink:href="#m3c8d3807af" x="26.002895" y="81.096094" style="stroke: #000000"/>
      </g>
     </g>
     <g id="text_1">
      <!-- 0 -->
      <g transform="translate(23.77602 92.415) scale(0.07 -0.07)">
       <defs>
        <path id="DejaVuSans-30" d="M 2034 4250 
Q 1547 4250 1301 3770 
Q 1056 3291 1056 2328 
Q 1056 1369 1301 889 
Q 1547 409 2034 409 
Q 2525 409 2770 889 
Q 3016 1369 3016 2328 
Q 3016 3291 2770 3770 
Q 2525 4250 2034 4250 
z
M 2034 4750 
Q 2819 4750 3233 4129 
Q 3647 3509 3647 2328 
Q 3647 1150 3233 529 
Q 2819 -91 2034 -91 
Q 1250 -91 836 529 
Q 422 1150 422 2328 
Q 422 3509 836 4129 
Q 1250 4750 2034 4750 
z
" transform="scale(0.015625)"/>
       </defs>
       <use xlink:href="#DejaVuSans-30"/>
      </g>
     </g>
    </g>
    <g id="xtick_2">
     <g id="line2d_3">
      <g>
       <use xlink:href="#m3c8d3807af" x="117.464309" y="81.096094" style="stroke: #000000"/>
      </g>
     </g>
     <g id="text_2">
      <!-- 2 -->
      <g transform="translate(115.237434 92.415) scale(0.07 -0.07)">
       <defs>
        <path id="DejaVuSans-32" d="M 1228 531 
L 3431 531 
L 3431 0 
L 469 0 
L 469 531 
Q 828 903 1448 1529 
Q 2069 2156 2228 2338 
Q 2531 2678 2651 2914 
Q 2772 3150 2772 3378 
Q 2772 3750 2511 3984 
Q 2250 4219 1831 4219 
Q 1534 4219 1204 4116 
Q 875 4013 500 3803 
L 500 4441 
Q 881 4594 1212 4672 
Q 1544 4750 1819 4750 
Q 2544 4750 2975 4387 
Q 3406 4025 3406 3419 
Q 3406 3131 3298 2873 
Q 3191 2616 2906 2266 
Q 2828 2175 2409 1742 
Q 1991 1309 1228 531 
z
" transform="scale(0.015625)"/>
       </defs>
       <use xlink:href="#DejaVuSans-32"/>
      </g>
     </g>
    </g>
    <g id="text_3">
     <!-- [buffer] (mM) -->
     <g transform="translate(48.027295 94.189688) scale(0.07 -0.07)">
      <defs>
       <path id="DejaVuSans-5b" d="M 550 4863 
L 1875 4863 
L 1875 4416 
L 1125 4416 
L 1125 -397 
L 1875 -397 
L 1875 -844 
L 550 -844 
L 550 4863 
z
" transform="scale(0.015625)"/>
       <path id="DejaVuSans-62" d="M 3116 1747 
Q 3116 2381 2855 2742 
Q 2594 3103 2138 3103 
Q 1681 3103 1420 2742 
Q 1159 2381 1159 1747 
Q 1159 1113 1420 752 
Q 1681 391 2138 391 
Q 2594 391 2855 752 
Q 3116 1113 3116 1747 
z
M 1159 2969 
Q 1341 3281 1617 3432 
Q 1894 3584 2278 3584 
Q 2916 3584 3314 3078 
Q 3713 2572 3713 1747 
Q 3713 922 3314 415 
Q 2916 -91 2278 -91 
Q 1894 -91 1617 61 
Q 1341 213 1159 525 
L 1159 0 
L 581 0 
L 581 4863 
L 1159 4863 
L 1159 2969 
z
" transform="scale(0.015625)"/>
       <path id="DejaVuSans-75" d="M 544 1381 
L 544 3500 
L 1119 3500 
L 1119 1403 
Q 1119 906 1312 657 
Q 1506 409 1894 409 
Q 2359 409 2629 706 
Q 2900 1003 2900 1516 
L 2900 3500 
L 3475 3500 
L 3475 0 
L 2900 0 
L 2900 538 
Q 2691 219 2414 64 
Q 2138 -91 1772 -91 
Q 1169 -91 856 284 
Q 544 659 544 1381 
z
M 1991 3584 
L 1991 3584 
z
" transform="scale(0.015625)"/>
       <path id="DejaVuSans-66" d="M 2375 4863 
L 2375 4384 
L 1825 4384 
Q 1516 4384 1395 4259 
Q 1275 4134 1275 3809 
L 1275 3500 
L 2222 3500 
L 2222 3053 
L 1275 3053 
L 1275 0 
L 697 0 
L 697 3053 
L 147 3053 
L 147 3500 
L 697 3500 
L 697 3744 
Q 697 4328 969 4595 
Q 1241 4863 1831 4863 
L 2375 4863 
z
" transform="scale(0.015625)"/>
       <path id="DejaVuSans-65" d="M 3597 1894 
L 3597 1613 
L 953 1613 
Q 991 1019 1311 708 
Q 1631 397 2203 397 
Q 2534 397 2845 478 
Q 3156 559 3463 722 
L 3463 178 
Q 3153 47 2828 -22 
Q 2503 -91 2169 -91 
Q 1331 -91 842 396 
Q 353 884 353 1716 
Q 353 2575 817 3079 
Q 1281 3584 2069 3584 
Q 2775 3584 3186 3129 
Q 3597 2675 3597 1894 
z
M 3022 2063 
Q 3016 2534 2758 2815 
Q 2500 3097 2075 3097 
Q 1594 3097 1305 2825 
Q 1016 2553 972 2059 
L 3022 2063 
z
" transform="scale(0.015625)"/>
       <path id="DejaVuSans-72" d="M 2631 2963 
Q 2534 3019 2420 3045 
Q 2306 3072 2169 3072 
Q 1681 3072 1420 2755 
Q 1159 2438 1159 1844 
L 1159 0 
L 581 0 
L 581 3500 
L 1159 3500 
L 1159 2956 
Q 1341 3275 1631 3429 
Q 1922 3584 2338 3584 
Q 2397 3584 2469 3576 
Q 2541 3569 2628 3553 
L 2631 2963 
z
" transform="scale(0.015625)"/>
       <path id="DejaVuSans-5d" d="M 1947 4863 
L 1947 -844 
L 622 -844 
L 622 -397 
L 1369 -397 
L 1369 4416 
L 622 4416 
L 622 4863 
L 1947 4863 
z
" transform="scale(0.015625)"/>
       <path id="DejaVuSans-20" transform="scale(0.015625)"/>
       <path id="DejaVuSans-28" d="M 1984 4856 
Q 1566 4138 1362 3434 
Q 1159 2731 1159 2009 
Q 1159 1288 1364 580 
Q 1569 -128 1984 -844 
L 1484 -844 
Q 1016 -109 783 600 
Q 550 1309 550 2009 
Q 550 2706 781 3412 
Q 1013 4119 1484 4856 
L 1984 4856 
z
" transform="scale(0.015625)"/>
       <path id="DejaVuSans-6d" d="M 3328 2828 
Q 3544 3216 3844 3400 
Q 4144 3584 4550 3584 
Q 5097 3584 5394 3201 
Q 5691 2819 5691 2113 
L 5691 0 
L 5113 0 
L 5113 2094 
Q 5113 2597 4934 2840 
Q 4756 3084 4391 3084 
Q 3944 3084 3684 2787 
Q 3425 2491 3425 1978 
L 3425 0 
L 2847 0 
L 2847 2094 
Q 2847 2600 2669 2842 
Q 2491 3084 2119 3084 
Q 1678 3084 1418 2786 
Q 1159 2488 1159 1978 
L 1159 0 
L 581 0 
L 581 3500 
L 1159 3500 
L 1159 2956 
Q 1356 3278 1631 3431 
Q 1906 3584 2284 3584 
Q 2666 3584 2933 3390 
Q 3200 3197 3328 2828 
z
" transform="scale(0.015625)"/>
       <path id="DejaVuSans-4d" d="M 628 4666 
L 1569 4666 
L 2759 1491 
L 3956 4666 
L 4897 4666 
L 4897 0 
L 4281 0 
L 4281 4097 
L 3078 897 
L 2444 897 
L 1241 4097 
L 1241 0 
L 628 0 
L 628 4666 
z
" transform="scale(0.015625)"/>
       <path id="DejaVuSans-29" d="M 513 4856 
L 1013 4856 
Q 1481 4119 1714 3412 
Q 1947 2706 1947 2009 
Q 1947 1309 1714 600 
Q 1481 -109 1013 -844 
L 513 -844 
Q 928 -128 1133 580 
Q 1338 1288 1338 2009 
Q 1338 2731 1133 3434 
Q 928 4138 513 4856 
z
" transform="scale(0.015625)"/>
      </defs>
      <use xlink:href="#DejaVuSans-5b"/>
      <use xlink:href="#DejaVuSans-62" transform="translate(39.013672 0)"/>
      <use xlink:href="#DejaVuSans-75" transform="translate(102.490234 0)"/>
      <use xlink:href="#DejaVuSans-66" transform="translate(165.869141 0)"/>
      <use xlink:href="#DejaVuSans-66" transform="translate(201.074219 0)"/>
      <use xlink:href="#DejaVuSans-65" transform="translate(236.279297 0)"/>
      <use xlink:href="#DejaVuSans-72" transform="translate(297.802734 0)"/>
      <use xlink:href="#DejaVuSans-5d" transform="translate(338.916016 0)"/>
      <use xlink:href="#DejaVuSans-20" transform="translate(377.929688 0)"/>
      <use xlink:href="#DejaVuSans-28" transform="translate(409.716797 0)"/>
      <use xlink:href="#DejaVuSans-6d" transform="translate(448.730469 0)"/>
      <use xlink:href="#DejaVuSans-4d" transform="translate(546.142578 0)"/>
      <use xlink:href="#DejaVuSans-29" transform="translate(632.421875 0)"/>
     </g>
    </g>
   </g>
   <g id="matplotlib.axis_2">
    <g id="ytick_1">
     <g id="line2d_4">
      <defs>
       <path id="m88effbb5dd" d="M 0 0 
L -2.5 0 
" style="stroke: #000000"/>
      </defs>
      <g>
       <use xlink:href="#m88effbb5dd" x="19.228673" y="65.897605" style="stroke: #000000"/>
      </g>
     </g>
     <g id="text_4">
      <!-- 0 -->
      <g transform="translate(8.774923 68.557058) scale(0.07 -0.07)">
       <use xlink:href="#DejaVuSans-30"/>
      </g>
     </g>
    </g>
    <g id="ytick_2">
     <g id="line2d_5">
      <g>
       <use xlink:href="#m88effbb5dd" x="19.228673" y="19.56075" style="stroke: #000000"/>
      </g>
     </g>
     <g id="text_5">
      <!-- 1 -->
      <g transform="translate(8.774923 22.220203) scale(0.07 -0.07)">
       <defs>
        <path id="DejaVuSans-31" d="M 794 531 
L 1825 531 
L 1825 4091 
L 703 3866 
L 703 4441 
L 1819 4666 
L 2450 4666 
L 2450 531 
L 3481 531 
L 3481 0 
L 794 0 
L 794 531 
z
" transform="scale(0.015625)"/>
       </defs>
       <use xlink:href="#DejaVuSans-31"/>
      </g>
     </g>
    </g>
    <g id="text_6">
     <!-- plasticity -->
     <g transform="translate(8.319142 58.576521) rotate(-90) scale(0.07 -0.07)">
      <defs>
       <path id="DejaVuSans-70" d="M 1159 525 
L 1159 -1331 
L 581 -1331 
L 581 3500 
L 1159 3500 
L 1159 2969 
Q 1341 3281 1617 3432 
Q 1894 3584 2278 3584 
Q 2916 3584 3314 3078 
Q 3713 2572 3713 1747 
Q 3713 922 3314 415 
Q 2916 -91 2278 -91 
Q 1894 -91 1617 61 
Q 1341 213 1159 525 
z
M 3116 1747 
Q 3116 2381 2855 2742 
Q 2594 3103 2138 3103 
Q 1681 3103 1420 2742 
Q 1159 2381 1159 1747 
Q 1159 1113 1420 752 
Q 1681 391 2138 391 
Q 2594 391 2855 752 
Q 3116 1113 3116 1747 
z
" transform="scale(0.015625)"/>
       <path id="DejaVuSans-6c" d="M 603 4863 
L 1178 4863 
L 1178 0 
L 603 0 
L 603 4863 
z
" transform="scale(0.015625)"/>
       <path id="DejaVuSans-61" d="M 2194 1759 
Q 1497 1759 1228 1600 
Q 959 1441 959 1056 
Q 959 750 1161 570 
Q 1363 391 1709 391 
Q 2188 391 2477 730 
Q 2766 1069 2766 1631 
L 2766 1759 
L 2194 1759 
z
M 3341 1997 
L 3341 0 
L 2766 0 
L 2766 531 
Q 2569 213 2275 61 
Q 1981 -91 1556 -91 
Q 1019 -91 701 211 
Q 384 513 384 1019 
Q 384 1609 779 1909 
Q 1175 2209 1959 2209 
L 2766 2209 
L 2766 2266 
Q 2766 2663 2505 2880 
Q 2244 3097 1772 3097 
Q 1472 3097 1187 3025 
Q 903 2953 641 2809 
L 641 3341 
Q 956 3463 1253 3523 
Q 1550 3584 1831 3584 
Q 2591 3584 2966 3190 
Q 3341 2797 3341 1997 
z
" transform="scale(0.015625)"/>
       <path id="DejaVuSans-73" d="M 2834 3397 
L 2834 2853 
Q 2591 2978 2328 3040 
Q 2066 3103 1784 3103 
Q 1356 3103 1142 2972 
Q 928 2841 928 2578 
Q 928 2378 1081 2264 
Q 1234 2150 1697 2047 
L 1894 2003 
Q 2506 1872 2764 1633 
Q 3022 1394 3022 966 
Q 3022 478 2636 193 
Q 2250 -91 1575 -91 
Q 1294 -91 989 -36 
Q 684 19 347 128 
L 347 722 
Q 666 556 975 473 
Q 1284 391 1588 391 
Q 1994 391 2212 530 
Q 2431 669 2431 922 
Q 2431 1156 2273 1281 
Q 2116 1406 1581 1522 
L 1381 1569 
Q 847 1681 609 1914 
Q 372 2147 372 2553 
Q 372 3047 722 3315 
Q 1072 3584 1716 3584 
Q 2034 3584 2315 3537 
Q 2597 3491 2834 3397 
z
" transform="scale(0.015625)"/>
       <path id="DejaVuSans-74" d="M 1172 4494 
L 1172 3500 
L 2356 3500 
L 2356 3053 
L 1172 3053 
L 1172 1153 
Q 1172 725 1289 603 
Q 1406 481 1766 481 
L 2356 481 
L 2356 0 
L 1766 0 
Q 1100 0 847 248 
Q 594 497 594 1153 
L 594 3053 
L 172 3053 
L 172 3500 
L 594 3500 
L 594 4494 
L 1172 4494 
z
" transform="scale(0.015625)"/>
       <path id="DejaVuSans-69" d="M 603 3500 
L 1178 3500 
L 1178 0 
L 603 0 
L 603 3500 
z
M 603 4863 
L 1178 4863 
L 1178 4134 
L 603 4134 
L 603 4863 
z
" transform="scale(0.015625)"/>
       <path id="DejaVuSans-63" d="M 3122 3366 
L 3122 2828 
Q 2878 2963 2633 3030 
Q 2388 3097 2138 3097 
Q 1578 3097 1268 2742 
Q 959 2388 959 1747 
Q 959 1106 1268 751 
Q 1578 397 2138 397 
Q 2388 397 2633 464 
Q 2878 531 3122 666 
L 3122 134 
Q 2881 22 2623 -34 
Q 2366 -91 2075 -91 
Q 1284 -91 818 406 
Q 353 903 353 1747 
Q 353 2603 823 3093 
Q 1294 3584 2113 3584 
Q 2378 3584 2631 3529 
Q 2884 3475 3122 3366 
z
" transform="scale(0.015625)"/>
       <path id="DejaVuSans-79" d="M 2059 -325 
Q 1816 -950 1584 -1140 
Q 1353 -1331 966 -1331 
L 506 -1331 
L 506 -850 
L 844 -850 
Q 1081 -850 1212 -737 
Q 1344 -625 1503 -206 
L 1606 56 
L 191 3500 
L 800 3500 
L 1894 763 
L 2988 3500 
L 3597 3500 
L 2059 -325 
z
" transform="scale(0.015625)"/>
      </defs>
      <use xlink:href="#DejaVuSans-70"/>
      <use xlink:href="#DejaVuSans-6c" transform="translate(63.476562 0)"/>
      <use xlink:href="#DejaVuSans-61" transform="translate(91.259766 0)"/>
      <use xlink:href="#DejaVuSans-73" transform="translate(152.539062 0)"/>
      <use xlink:href="#DejaVuSans-74" transform="translate(204.638672 0)"/>
      <use xlink:href="#DejaVuSans-69" transform="translate(243.847656 0)"/>
      <use xlink:href="#DejaVuSans-63" transform="translate(271.630859 0)"/>
      <use xlink:href="#DejaVuSans-69" transform="translate(326.611328 0)"/>
      <use xlink:href="#DejaVuSans-74" transform="translate(354.394531 0)"/>
      <use xlink:href="#DejaVuSans-79" transform="translate(393.603516 0)"/>
     </g>
    </g>
   </g>
   <g id="patch_2">
    <path d="M 19.228673 65.897605 
L 19.228673 19.56075 
" style="fill: none; stroke: #000000; stroke-linejoin: miter; stroke-linecap: square"/>
   </g>
   <g id="patch_3">
    <path d="M 26.002895 81.096094 
L 117.464309 81.096094 
" style="fill: none; stroke: #000000; stroke-linejoin: miter; stroke-linecap: square"/>
   </g>
   <g id="text_7">
    <!-- LTP ($\propto I_{NMDAR}$) -->
    <g transform="translate(53.441319 26.125998) scale(0.07 -0.07)">
     <defs>
      <path id="DejaVuSans-4c" d="M 628 4666 
L 1259 4666 
L 1259 531 
L 3531 531 
L 3531 0 
L 628 0 
L 628 4666 
z
" transform="scale(0.015625)"/>
      <path id="DejaVuSans-54" d="M -19 4666 
L 3928 4666 
L 3928 4134 
L 2272 4134 
L 2272 0 
L 1638 0 
L 1638 4134 
L -19 4134 
L -19 4666 
z
" transform="scale(0.015625)"/>
      <path id="DejaVuSans-50" d="M 1259 4147 
L 1259 2394 
L 2053 2394 
Q 2494 2394 2734 2622 
Q 2975 2850 2975 3272 
Q 2975 3691 2734 3919 
Q 2494 4147 2053 4147 
L 1259 4147 
z
M 628 4666 
L 2053 4666 
Q 2838 4666 3239 4311 
Q 3641 3956 3641 3272 
Q 3641 2581 3239 2228 
Q 2838 1875 2053 1875 
L 1259 1875 
L 1259 0 
L 628 0 
L 628 4666 
z
" transform="scale(0.015625)"/>
      <path id="DejaVuSans-221d" d="M 1647 1134 
Q 2163 1134 2472 1884 
Q 2075 2703 1647 2703 
Q 1334 2703 1175 2478 
Q 1006 2238 1006 1919 
Q 1006 1569 1175 1353 
Q 1350 1134 1647 1134 
z
M 3884 1128 
L 3884 716 
L 3644 716 
Q 3416 716 3247 809 
Q 3078 894 2916 1091 
Q 2819 1203 2666 1466 
Q 2456 1091 2272 925 
Q 2044 725 1681 725 
Q 1259 725 981 1041 
Q 688 1372 688 1919 
Q 688 2444 981 2800 
Q 1241 3116 1688 3116 
Q 1916 3116 2084 3022 
Q 2281 2919 2416 2741 
Q 2541 2581 2666 2366 
Q 2875 2741 3059 2906 
Q 3288 3106 3650 3106 
L 3884 3106 
L 3884 2697 
L 3684 2697 
Q 3222 2697 2859 1947 
Q 3256 1128 3684 1128 
L 3884 1128 
z
" transform="scale(0.015625)"/>
      <path id="DejaVuSans-Oblique-49" d="M 1081 4666 
L 1716 4666 
L 806 0 
L 172 0 
L 1081 4666 
z
" transform="scale(0.015625)"/>
      <path id="DejaVuSans-Oblique-4e" d="M 1081 4666 
L 1931 4666 
L 3219 666 
L 4000 4666 
L 4616 4666 
L 3706 0 
L 2853 0 
L 1569 4025 
L 788 0 
L 172 0 
L 1081 4666 
z
" transform="scale(0.015625)"/>
      <path id="DejaVuSans-Oblique-4d" d="M 1081 4666 
L 2028 4666 
L 2572 1522 
L 4378 4666 
L 5350 4666 
L 4441 0 
L 3828 0 
L 4622 4091 
L 2791 897 
L 2175 897 
L 1581 4103 
L 788 0 
L 172 0 
L 1081 4666 
z
" transform="scale(0.015625)"/>
      <path id="DejaVuSans-Oblique-44" d="M 1081 4666 
L 2438 4666 
Q 3519 4666 4070 4208 
Q 4622 3750 4622 2847 
Q 4622 2250 4412 1698 
Q 4203 1147 3834 769 
Q 3463 381 2891 190 
Q 2319 0 1538 0 
L 172 0 
L 1081 4666 
z
M 1613 4147 
L 909 519 
L 1734 519 
Q 2794 519 3375 1128 
Q 3956 1738 3956 2847 
Q 3956 3519 3581 3833 
Q 3206 4147 2406 4147 
L 1613 4147 
z
" transform="scale(0.015625)"/>
      <path id="DejaVuSans-Oblique-41" d="M 2356 4666 
L 3072 4666 
L 3938 0 
L 3278 0 
L 3084 1197 
L 984 1197 
L 325 0 
L -341 0 
L 2356 4666 
z
M 2584 4044 
L 1275 1722 
L 2988 1722 
L 2584 4044 
z
" transform="scale(0.015625)"/>
      <path id="DejaVuSans-Oblique-52" d="M 1613 4147 
L 1294 2491 
L 2106 2491 
Q 2584 2491 2879 2755 
Q 3175 3019 3175 3444 
Q 3175 3784 2976 3965 
Q 2778 4147 2406 4147 
L 1613 4147 
z
M 2772 2241 
Q 2972 2194 3105 2009 
Q 3238 1825 3413 1275 
L 3809 0 
L 3144 0 
L 2778 1197 
Q 2638 1659 2453 1815 
Q 2269 1972 1888 1972 
L 1191 1972 
L 806 0 
L 172 0 
L 1081 4666 
L 2503 4666 
Q 3150 4666 3495 4373 
Q 3841 4081 3841 3531 
Q 3841 3044 3547 2687 
Q 3253 2331 2772 2241 
z
" transform="scale(0.015625)"/>
     </defs>
     <use xlink:href="#DejaVuSans-4c" transform="translate(0 0.125)"/>
     <use xlink:href="#DejaVuSans-54" transform="translate(55.712891 0.125)"/>
     <use xlink:href="#DejaVuSans-50" transform="translate(116.796875 0.125)"/>
     <use xlink:href="#DejaVuSans-20" transform="translate(177.099609 0.125)"/>
     <use xlink:href="#DejaVuSans-28" transform="translate(208.886719 0.125)"/>
     <use xlink:href="#DejaVuSans-221d" transform="translate(267.382812 0.125)"/>
     <use xlink:href="#DejaVuSans-Oblique-49" transform="translate(358.300781 0.125)"/>
     <use xlink:href="#DejaVuSans-Oblique-4e" transform="translate(387.792969 -16.28125) scale(0.7)"/>
     <use xlink:href="#DejaVuSans-Oblique-4d" transform="translate(440.15625 -16.28125) scale(0.7)"/>
     <use xlink:href="#DejaVuSans-Oblique-44" transform="translate(500.551758 -16.28125) scale(0.7)"/>
     <use xlink:href="#DejaVuSans-Oblique-41" transform="translate(554.453125 -16.28125) scale(0.7)"/>
     <use xlink:href="#DejaVuSans-Oblique-52" transform="translate(602.338867 -16.28125) scale(0.7)"/>
     <use xlink:href="#DejaVuSans-29" transform="translate(653.710938 0.125)"/>
    </g>
   </g>
   <g id="text_8">
    <!-- LTD ($\propto I_{VGCC}$) -->
    <g style="fill: #9370db" transform="translate(53.441319 33.076526) scale(0.07 -0.07)">
     <defs>
      <path id="DejaVuSans-44" d="M 1259 4147 
L 1259 519 
L 2022 519 
Q 2988 519 3436 956 
Q 3884 1394 3884 2338 
Q 3884 3275 3436 3711 
Q 2988 4147 2022 4147 
L 1259 4147 
z
M 628 4666 
L 1925 4666 
Q 3281 4666 3915 4102 
Q 4550 3538 4550 2338 
Q 4550 1131 3912 565 
Q 3275 0 1925 0 
L 628 0 
L 628 4666 
z
" transform="scale(0.015625)"/>
      <path id="DejaVuSans-Oblique-56" d="M 1319 0 
L 500 4666 
L 1119 4666 
L 1797 653 
L 4063 4666 
L 4750 4666 
L 2053 0 
L 1319 0 
z
" transform="scale(0.015625)"/>
      <path id="DejaVuSans-Oblique-47" d="M 3494 697 
L 3738 1919 
L 2700 1919 
L 2797 2438 
L 4453 2438 
L 4050 384 
Q 3634 156 3143 32 
Q 2653 -91 2156 -91 
Q 1278 -91 783 396 
Q 288 884 288 1753 
Q 288 2475 589 3126 
Q 891 3778 1422 4213 
Q 1756 4484 2153 4617 
Q 2550 4750 3034 4750 
Q 3472 4750 3873 4639 
Q 4275 4528 4641 4306 
L 4513 3634 
Q 4231 3928 3853 4083 
Q 3475 4238 3047 4238 
Q 2550 4238 2172 4048 
Q 1794 3859 1497 3463 
Q 1244 3125 1098 2667 
Q 953 2209 953 1734 
Q 953 1081 1287 751 
Q 1622 422 2284 422 
Q 2616 422 2925 492 
Q 3234 563 3494 697 
z
" transform="scale(0.015625)"/>
      <path id="DejaVuSans-Oblique-43" d="M 4447 4306 
L 4319 3641 
Q 4019 3944 3683 4091 
Q 3347 4238 2956 4238 
Q 2422 4238 2017 3981 
Q 1613 3725 1319 3200 
Q 1131 2863 1032 2486 
Q 934 2109 934 1728 
Q 934 1091 1264 756 
Q 1594 422 2222 422 
Q 2656 422 3056 561 
Q 3456 700 3834 978 
L 3688 231 
Q 3316 72 2936 -9 
Q 2556 -91 2175 -91 
Q 1278 -91 773 396 
Q 269 884 269 1753 
Q 269 2309 461 2846 
Q 653 3384 1013 3828 
Q 1394 4300 1883 4525 
Q 2372 4750 3022 4750 
Q 3422 4750 3780 4639 
Q 4138 4528 4447 4306 
z
" transform="scale(0.015625)"/>
     </defs>
     <use xlink:href="#DejaVuSans-4c" transform="translate(0 0.125)"/>
     <use xlink:href="#DejaVuSans-54" transform="translate(55.712891 0.125)"/>
     <use xlink:href="#DejaVuSans-44" transform="translate(116.796875 0.125)"/>
     <use xlink:href="#DejaVuSans-20" transform="translate(193.798828 0.125)"/>
     <use xlink:href="#DejaVuSans-28" transform="translate(225.585938 0.125)"/>
     <use xlink:href="#DejaVuSans-221d" transform="translate(284.082031 0.125)"/>
     <use xlink:href="#DejaVuSans-Oblique-49" transform="translate(375 0.125)"/>
     <use xlink:href="#DejaVuSans-Oblique-56" transform="translate(404.492188 -16.28125) scale(0.7)"/>
     <use xlink:href="#DejaVuSans-Oblique-47" transform="translate(452.37793 -16.28125) scale(0.7)"/>
     <use xlink:href="#DejaVuSans-Oblique-43" transform="translate(506.621094 -16.28125) scale(0.7)"/>
     <use xlink:href="#DejaVuSans-Oblique-43" transform="translate(555.498047 -16.28125) scale(0.7)"/>
     <use xlink:href="#DejaVuSans-29" transform="translate(607.109375 0.125)"/>
    </g>
   </g>
   <g id="line2d_6">
    <path d="M 26.002895 19.207224 
L 26.917509 19.689079 
L 27.832123 20.188092 
L 28.746737 20.70444 
L 29.661351 21.238261 
L 30.575965 21.789653 
L 31.49058 22.358667 
L 32.405194 22.945304 
L 33.319808 23.549515 
L 34.234422 24.171195 
L 35.149036 24.810181 
L 36.06365 25.466251 
L 36.978264 26.139119 
L 37.892879 26.828436 
L 38.807493 27.533787 
L 39.722107 28.254689 
L 40.636721 28.990595 
L 41.551335 29.740889 
L 42.465949 30.504888 
L 43.380563 31.281846 
L 44.295178 32.070951 
L 45.209792 32.871331 
L 46.124406 33.682059 
L 47.03902 34.502149 
L 47.953634 35.330568 
L 48.868248 36.166237 
L 49.782862 37.008037 
L 50.697477 37.854815 
L 51.612091 38.705391 
L 52.526705 39.55856 
L 53.441319 40.413107 
L 54.355933 41.267805 
L 55.270547 42.121429 
L 56.185161 42.972758 
L 57.099776 43.820586 
L 58.01439 44.663725 
L 58.929004 45.501014 
L 59.843618 46.331327 
L 60.758232 47.153573 
L 61.672846 47.966708 
L 62.587461 48.769734 
L 63.502075 49.561709 
L 64.416689 50.341746 
L 65.331303 51.109019 
L 66.245917 51.862766 
L 67.160531 52.602288 
L 68.075145 53.326952 
L 68.98976 54.036193 
L 69.904374 54.729514 
L 70.818988 55.406482 
L 71.733602 56.066732 
L 72.648216 56.709963 
L 73.56283 57.335937 
L 74.477444 57.944477 
L 75.392059 58.535464 
L 76.306673 59.108834 
L 77.221287 59.664578 
L 78.135901 60.202734 
L 79.050515 60.723389 
L 79.965129 61.22667 
L 80.879743 61.712747 
L 81.794358 62.181824 
L 82.708972 62.63414 
L 83.623586 63.069962 
L 84.5382 63.489583 
L 85.452814 63.893322 
L 86.367428 64.281517 
L 87.282042 64.654521 
L 88.196657 65.012706 
L 89.111271 65.356453 
L 90.025885 65.686153 
L 90.940499 66.002206 
L 91.855113 66.305015 
L 92.769727 66.594988 
L 93.684341 66.872534 
L 94.598956 67.138061 
L 95.51357 67.391976 
L 96.428184 67.634685 
L 97.342798 67.866586 
L 98.257412 68.088074 
L 99.172026 68.29954 
L 100.086641 68.501363 
L 101.001255 68.69392 
L 101.915869 68.877575 
L 102.830483 69.052686 
L 103.745097 69.219602 
L 104.659711 69.378661 
L 105.574325 69.530193 
L 106.48894 69.674517 
L 107.403554 69.811943 
L 108.318168 69.94277 
L 109.232782 70.067288 
L 110.147396 70.185775 
L 111.06201 70.298503 
L 111.976624 70.40573 
L 112.891239 70.507707 
L 113.805853 70.604673 
L 114.720467 70.696861 
L 115.635081 70.784491 
L 116.549695 70.867778 
L 117.464309 70.946925 
" clip-path="url(#pf1b3987862)" style="fill: none; stroke: #000000; stroke-linecap: square"/>
   </g>
   <g id="line2d_7">
    <path d="M 26.002895 18.518026 
L 26.917509 18.576228 
L 27.832123 18.655051 
L 28.746737 18.761701 
L 29.661351 18.905812 
L 30.575965 19.100201 
L 31.49058 19.361787 
L 32.405194 19.712678 
L 33.319808 20.181353 
L 34.234422 20.803787 
L 35.149036 21.624182 
L 36.06365 22.694771 
L 36.978264 24.073818 
L 37.892879 25.820762 
L 38.807493 27.98751 
L 39.722107 30.605638 
L 40.636721 33.671129 
L 41.551335 37.130857 
L 42.465949 40.877177 
L 43.380563 44.756293 
L 44.295178 48.591174 
L 45.209792 52.21266 
L 46.124406 55.487726 
L 47.03902 58.335567 
L 47.953634 60.728654 
L 48.868248 62.682482 
L 49.782862 64.24049 
L 50.697477 65.459661 
L 51.612091 66.399684 
L 52.526705 67.116245 
L 53.441319 67.657725 
L 54.355933 68.064215 
L 55.270547 68.367858 
L 56.185161 68.593838 
L 57.099776 68.761556 
L 58.01439 68.885779 
L 58.929004 68.977647 
L 59.843618 69.04551 
L 60.758232 69.0956 
L 61.672846 69.132549 
L 62.587461 69.159792 
L 63.502075 69.179872 
L 64.416689 69.194669 
L 65.331303 69.20557 
L 66.245917 69.213601 
L 67.160531 69.219516 
L 68.075145 69.223873 
L 68.98976 69.227082 
L 69.904374 69.229445 
L 70.818988 69.231185 
L 71.733602 69.232467 
L 72.648216 69.233411 
L 73.56283 69.234106 
L 74.477444 69.234618 
L 75.392059 69.234994 
L 76.306673 69.235272 
L 77.221287 69.235476 
L 78.135901 69.235627 
L 79.050515 69.235738 
L 79.965129 69.235819 
L 80.879743 69.235879 
L 81.794358 69.235924 
L 82.708972 69.235956 
L 83.623586 69.23598 
L 84.5382 69.235998 
L 85.452814 69.236011 
L 86.367428 69.236021 
L 87.282042 69.236028 
L 88.196657 69.236033 
L 89.111271 69.236037 
L 90.025885 69.236039 
L 90.940499 69.236042 
L 91.855113 69.236043 
L 92.769727 69.236044 
L 93.684341 69.236045 
L 94.598956 69.236046 
L 95.51357 69.236046 
L 96.428184 69.236046 
L 97.342798 69.236047 
L 98.257412 69.236047 
L 99.172026 69.236047 
L 100.086641 69.236047 
L 101.001255 69.236047 
L 101.915869 69.236047 
L 102.830483 69.236047 
L 103.745097 69.236047 
L 104.659711 69.236047 
L 105.574325 69.236047 
L 106.48894 69.236047 
L 107.403554 69.236047 
L 108.318168 69.236047 
L 109.232782 69.236047 
L 110.147396 69.236047 
L 111.06201 69.236047 
L 111.976624 69.236047 
L 112.891239 69.236047 
L 113.805853 69.236047 
L 114.720467 69.236047 
L 115.635081 69.236047 
L 116.549695 69.236047 
L 117.464309 69.236047 
" clip-path="url(#pf1b3987862)" style="fill: none; stroke: #9370db; stroke-linecap: square"/>
   </g>
   <g id="line2d_8">
    <defs>
     <path id="m640711c562" d="M 0 1.5 
C 0.397805 1.5 0.77937 1.341951 1.06066 1.06066 
C 1.341951 0.77937 1.5 0.397805 1.5 0 
C 1.5 -0.397805 1.341951 -0.77937 1.06066 -1.06066 
C 0.77937 -1.341951 0.397805 -1.5 0 -1.5 
C -0.397805 -1.5 -0.77937 -1.341951 -1.06066 -1.06066 
C -1.341951 -0.77937 -1.5 -0.397805 -1.5 0 
C -1.5 0.397805 -1.341951 0.77937 -1.06066 1.06066 
C -0.77937 1.341951 -0.397805 1.5 0 1.5 
z
" style="stroke: #000000; stroke-opacity: 0"/>
    </defs>
    <g clip-path="url(#pf1b3987862)">
     <use xlink:href="#m640711c562" x="26.413036" y="19.421181" style="stroke: #000000; stroke-opacity: 0"/>
     <use xlink:href="#m640711c562" x="48.871954" y="36.169442" style="stroke: #000000; stroke-opacity: 0"/>
     <use xlink:href="#m640711c562" x="71.733602" y="54.173823" style="stroke: #000000; stroke-opacity: 0"/>
     <use xlink:href="#m640711c562" x="117.143115" y="73.853029" style="stroke: #000000; stroke-opacity: 0"/>
     <use xlink:href="#m640711c562" x="26.413036" y="19.421181" style="stroke: #000000; stroke-opacity: 0"/>
     <use xlink:href="#m640711c562" x="48.871954" y="36.169442" style="stroke: #000000; stroke-opacity: 0"/>
     <use xlink:href="#m640711c562" x="71.711365" y="57.942181" style="stroke: #000000; stroke-opacity: 0"/>
     <use xlink:href="#m640711c562" x="117.177705" y="67.991138" style="stroke: #000000; stroke-opacity: 0"/>
    </g>
   </g>
   <g id="line2d_9">
    <defs>
     <path id="m5e1bf75507" d="M 0 1.5 
C 0.397805 1.5 0.77937 1.341951 1.06066 1.06066 
C 1.341951 0.77937 1.5 0.397805 1.5 0 
C 1.5 -0.397805 1.341951 -0.77937 1.06066 -1.06066 
C 0.77937 -1.341951 0.397805 -1.5 0 -1.5 
C -0.397805 -1.5 -0.77937 -1.341951 -1.06066 -1.06066 
C -1.341951 -0.77937 -1.5 -0.397805 -1.5 0 
C -1.5 0.397805 -1.341951 0.77937 -1.06066 1.06066 
C -0.77937 1.341951 -0.397805 1.5 0 1.5 
z
" style="stroke: #000000; stroke-opacity: 0"/>
    </defs>
    <g clip-path="url(#pf1b3987862)">
     <use xlink:href="#m5e1bf75507" x="25.590906" y="19.036577" style="fill: #9370db; stroke: #000000; stroke-opacity: 0"/>
     <use xlink:href="#m5e1bf75507" x="30.534767" y="13.585182" style="fill: #9370db; stroke: #000000; stroke-opacity: 0"/>
     <use xlink:href="#m5e1bf75507" x="37.12658" y="22.81062" style="fill: #9370db; stroke: #000000; stroke-opacity: 0"/>
     <use xlink:href="#m5e1bf75507" x="48.662254" y="63.486411" style="fill: #9370db; stroke: #000000; stroke-opacity: 0"/>
     <use xlink:href="#m5e1bf75507" x="71.733602" y="70.615158" style="fill: #9370db; stroke: #000000; stroke-opacity: 0"/>
     <use xlink:href="#m5e1bf75507" x="117.464309" y="67.679792" style="fill: #9370db; stroke: #000000; stroke-opacity: 0"/>
     <use xlink:href="#m5e1bf75507" x="25.590906" y="19.455915" style="fill: #9370db; stroke: #000000; stroke-opacity: 0"/>
     <use xlink:href="#m5e1bf75507" x="30.534767" y="22.81062" style="fill: #9370db; stroke: #000000; stroke-opacity: 0"/>
     <use xlink:href="#m5e1bf75507" x="37.12658" y="26.165324" style="fill: #9370db; stroke: #000000; stroke-opacity: 0"/>
     <use xlink:href="#m5e1bf75507" x="48.662254" y="60.970383" style="fill: #9370db; stroke: #000000; stroke-opacity: 0"/>
     <use xlink:href="#m5e1bf75507" x="71.733602" y="75.227877" style="fill: #9370db; stroke: #000000; stroke-opacity: 0"/>
     <use xlink:href="#m5e1bf75507" x="117.464309" y="63.486411" style="fill: #9370db; stroke: #000000; stroke-opacity: 0"/>
    </g>
   </g>
  </g>
  <g id="axes_2">
   <g id="patch_4">
    <path d="M 150.600299 79.798662 
L 251.661043 79.798662 
L 251.661043 5.659693 
L 150.600299 5.659693 
L 150.600299 79.798662 
z
" style="fill: none"/>
   </g>
   <g id="matplotlib.axis_3">
    <g id="xtick_3">
     <g id="line2d_10">
      <g>
       <use xlink:href="#m3c8d3807af" x="155.193969" y="81.096094" style="stroke: #000000"/>
      </g>
     </g>
     <g id="text_9">
      <!-- 0 -->
      <g transform="translate(152.967094 92.415) scale(0.07 -0.07)">
       <use xlink:href="#DejaVuSans-30"/>
      </g>
     </g>
    </g>
    <g id="xtick_4">
     <g id="line2d_11">
      <g>
       <use xlink:href="#m3c8d3807af" x="247.067372" y="81.096094" style="stroke: #000000"/>
      </g>
     </g>
     <g id="text_10">
      <!-- 5 -->
      <g transform="translate(244.840497 92.415) scale(0.07 -0.07)">
       <defs>
        <path id="DejaVuSans-35" d="M 691 4666 
L 3169 4666 
L 3169 4134 
L 1269 4134 
L 1269 2991 
Q 1406 3038 1543 3061 
Q 1681 3084 1819 3084 
Q 2600 3084 3056 2656 
Q 3513 2228 3513 1497 
Q 3513 744 3044 326 
Q 2575 -91 1722 -91 
Q 1428 -91 1123 -41 
Q 819 9 494 109 
L 494 744 
Q 775 591 1075 516 
Q 1375 441 1709 441 
Q 2250 441 2565 725 
Q 2881 1009 2881 1497 
Q 2881 1984 2565 2268 
Q 2250 2553 1709 2553 
Q 1456 2553 1204 2497 
Q 953 2441 691 2322 
L 691 4666 
z
" transform="scale(0.015625)"/>
       </defs>
       <use xlink:href="#DejaVuSans-35"/>
      </g>
     </g>
    </g>
    <g id="text_11">
     <!-- Time (ms) -->
     <g transform="translate(183.491218 93.189688) scale(0.07 -0.07)">
      <use xlink:href="#DejaVuSans-54"/>
      <use xlink:href="#DejaVuSans-69" transform="translate(57.958984 0)"/>
      <use xlink:href="#DejaVuSans-6d" transform="translate(85.742188 0)"/>
      <use xlink:href="#DejaVuSans-65" transform="translate(183.154297 0)"/>
      <use xlink:href="#DejaVuSans-20" transform="translate(244.677734 0)"/>
      <use xlink:href="#DejaVuSans-28" transform="translate(276.464844 0)"/>
      <use xlink:href="#DejaVuSans-6d" transform="translate(315.478516 0)"/>
      <use xlink:href="#DejaVuSans-73" transform="translate(412.890625 0)"/>
      <use xlink:href="#DejaVuSans-29" transform="translate(464.990234 0)"/>
     </g>
    </g>
   </g>
   <g id="matplotlib.axis_4">
    <g id="ytick_3">
     <g id="line2d_12">
      <g>
       <use xlink:href="#m88effbb5dd" x="148.831736" y="76.428709" style="stroke: #000000"/>
      </g>
     </g>
     <g id="text_12">
      <!-- −70 -->
      <g transform="translate(128.058455 79.088162) scale(0.07 -0.07)">
       <defs>
        <path id="DejaVuSans-2212" d="M 678 2272 
L 4684 2272 
L 4684 1741 
L 678 1741 
L 678 2272 
z
" transform="scale(0.015625)"/>
        <path id="DejaVuSans-37" d="M 525 4666 
L 3525 4666 
L 3525 4397 
L 1831 0 
L 1172 0 
L 2766 4134 
L 525 4134 
L 525 4666 
z
" transform="scale(0.015625)"/>
       </defs>
       <use xlink:href="#DejaVuSans-2212"/>
       <use xlink:href="#DejaVuSans-37" transform="translate(83.789062 0)"/>
       <use xlink:href="#DejaVuSans-30" transform="translate(147.412109 0)"/>
      </g>
     </g>
    </g>
    <g id="ytick_4">
     <g id="line2d_13">
      <g>
       <use xlink:href="#m88effbb5dd" x="148.831736" y="9.028564" style="stroke: #000000"/>
      </g>
     </g>
     <g id="text_13">
      <!-- 30 -->
      <g transform="translate(133.924236 11.688017) scale(0.07 -0.07)">
       <defs>
        <path id="DejaVuSans-33" d="M 2597 2516 
Q 3050 2419 3304 2112 
Q 3559 1806 3559 1356 
Q 3559 666 3084 287 
Q 2609 -91 1734 -91 
Q 1441 -91 1130 -33 
Q 819 25 488 141 
L 488 750 
Q 750 597 1062 519 
Q 1375 441 1716 441 
Q 2309 441 2620 675 
Q 2931 909 2931 1356 
Q 2931 1769 2642 2001 
Q 2353 2234 1838 2234 
L 1294 2234 
L 1294 2753 
L 1863 2753 
Q 2328 2753 2575 2939 
Q 2822 3125 2822 3475 
Q 2822 3834 2567 4026 
Q 2313 4219 1838 4219 
Q 1578 4219 1281 4162 
Q 984 4106 628 3988 
L 628 4550 
Q 988 4650 1302 4700 
Q 1616 4750 1894 4750 
Q 2613 4750 3031 4423 
Q 3450 4097 3450 3541 
Q 3450 3153 3228 2886 
Q 3006 2619 2597 2516 
z
" transform="scale(0.015625)"/>
       </defs>
       <use xlink:href="#DejaVuSans-33"/>
       <use xlink:href="#DejaVuSans-30" transform="translate(63.623047 0)"/>
      </g>
     </g>
    </g>
    <g id="text_14">
     <!-- AP Voltage (mV) -->
     <g transform="translate(136.602674 71.122381) rotate(-90) scale(0.07 -0.07)">
      <defs>
       <path id="DejaVuSans-41" d="M 2188 4044 
L 1331 1722 
L 3047 1722 
L 2188 4044 
z
M 1831 4666 
L 2547 4666 
L 4325 0 
L 3669 0 
L 3244 1197 
L 1141 1197 
L 716 0 
L 50 0 
L 1831 4666 
z
" transform="scale(0.015625)"/>
       <path id="DejaVuSans-56" d="M 1831 0 
L 50 4666 
L 709 4666 
L 2188 738 
L 3669 4666 
L 4325 4666 
L 2547 0 
L 1831 0 
z
" transform="scale(0.015625)"/>
       <path id="DejaVuSans-6f" d="M 1959 3097 
Q 1497 3097 1228 2736 
Q 959 2375 959 1747 
Q 959 1119 1226 758 
Q 1494 397 1959 397 
Q 2419 397 2687 759 
Q 2956 1122 2956 1747 
Q 2956 2369 2687 2733 
Q 2419 3097 1959 3097 
z
M 1959 3584 
Q 2709 3584 3137 3096 
Q 3566 2609 3566 1747 
Q 3566 888 3137 398 
Q 2709 -91 1959 -91 
Q 1206 -91 779 398 
Q 353 888 353 1747 
Q 353 2609 779 3096 
Q 1206 3584 1959 3584 
z
" transform="scale(0.015625)"/>
       <path id="DejaVuSans-67" d="M 2906 1791 
Q 2906 2416 2648 2759 
Q 2391 3103 1925 3103 
Q 1463 3103 1205 2759 
Q 947 2416 947 1791 
Q 947 1169 1205 825 
Q 1463 481 1925 481 
Q 2391 481 2648 825 
Q 2906 1169 2906 1791 
z
M 3481 434 
Q 3481 -459 3084 -895 
Q 2688 -1331 1869 -1331 
Q 1566 -1331 1297 -1286 
Q 1028 -1241 775 -1147 
L 775 -588 
Q 1028 -725 1275 -790 
Q 1522 -856 1778 -856 
Q 2344 -856 2625 -561 
Q 2906 -266 2906 331 
L 2906 616 
Q 2728 306 2450 153 
Q 2172 0 1784 0 
Q 1141 0 747 490 
Q 353 981 353 1791 
Q 353 2603 747 3093 
Q 1141 3584 1784 3584 
Q 2172 3584 2450 3431 
Q 2728 3278 2906 2969 
L 2906 3500 
L 3481 3500 
L 3481 434 
z
" transform="scale(0.015625)"/>
      </defs>
      <use xlink:href="#DejaVuSans-41"/>
      <use xlink:href="#DejaVuSans-50" transform="translate(68.408203 0)"/>
      <use xlink:href="#DejaVuSans-20" transform="translate(128.710938 0)"/>
      <use xlink:href="#DejaVuSans-56" transform="translate(160.498047 0)"/>
      <use xlink:href="#DejaVuSans-6f" transform="translate(221.15625 0)"/>
      <use xlink:href="#DejaVuSans-6c" transform="translate(282.337891 0)"/>
      <use xlink:href="#DejaVuSans-74" transform="translate(310.121094 0)"/>
      <use xlink:href="#DejaVuSans-61" transform="translate(349.330078 0)"/>
      <use xlink:href="#DejaVuSans-67" transform="translate(410.609375 0)"/>
      <use xlink:href="#DejaVuSans-65" transform="translate(474.085938 0)"/>
      <use xlink:href="#DejaVuSans-20" transform="translate(535.609375 0)"/>
      <use xlink:href="#DejaVuSans-28" transform="translate(567.396484 0)"/>
      <use xlink:href="#DejaVuSans-6d" transform="translate(606.410156 0)"/>
      <use xlink:href="#DejaVuSans-56" transform="translate(703.822266 0)"/>
      <use xlink:href="#DejaVuSans-29" transform="translate(772.230469 0)"/>
     </g>
    </g>
   </g>
   <g id="line2d_14">
    <path d="M 155.193969 76.428709 
L 164.215606 76.428709 
L 164.399721 76.158839 
L 165.872642 56.323245 
L 167.161447 41.809264 
L 168.266137 31.48003 
L 169.370827 23.099708 
L 170.291402 17.604859 
L 171.211978 13.463421 
L 171.948438 11.124727 
L 172.500783 9.939139 
L 173.053128 9.240778 
L 173.421358 9.045887 
L 173.789588 9.067542 
L 174.157818 9.305742 
L 174.710163 10.069066 
L 175.262508 11.319618 
L 175.998969 13.744931 
L 176.735429 17.036427 
L 177.656004 22.368866 
L 178.576579 29.054717 
L 179.681269 38.864241 
L 180.785959 50.622677 
L 182.074765 66.804061 
L 182.811225 76.428709 
L 247.067372 76.428709 
L 247.067372 76.428709 
" clip-path="url(#paeac382966)" style="fill: none; stroke: #000000; stroke-linecap: square"/>
   </g>
   <g id="line2d_15">
    <path d="M 155.193969 76.428709 
L 164.215606 76.428709 
L 164.399721 76.185826 
L 165.872642 58.333791 
L 167.161447 45.271208 
L 168.266137 35.974898 
L 169.370827 28.432608 
L 170.291402 23.487244 
L 171.211978 19.75995 
L 171.948438 17.655125 
L 172.500783 16.588096 
L 173.053128 15.959571 
L 173.421358 15.784169 
L 173.789588 15.803658 
L 174.157818 16.018039 
L 174.710163 16.70503 
L 175.262508 17.830527 
L 175.998969 20.013308 
L 176.735429 22.975655 
L 177.656004 27.774851 
L 178.576579 33.792117 
L 179.681269 42.620688 
L 180.785959 53.20328 
L 182.074765 67.766526 
L 182.811225 76.428709 
L 247.067372 76.428709 
L 247.067372 76.428709 
" clip-path="url(#paeac382966)" style="fill: none; stroke: #008080; stroke-linecap: square"/>
   </g>
   <g id="line2d_16">
    <path d="M 155.193969 76.428709 
L 164.215606 76.428709 
L 164.399721 76.307267 
L 165.872642 67.38125 
L 167.161447 60.849959 
L 168.450252 55.512376 
L 169.554942 51.887399 
L 170.475517 49.536524 
L 171.396093 47.794684 
L 172.132553 46.839717 
L 172.869013 46.274533 
L 173.421358 46.106439 
L 173.973703 46.157598 
L 174.526048 46.42801 
L 175.078393 46.917674 
L 175.814854 47.911619 
L 176.551314 49.295346 
L 177.471889 51.573137 
L 178.392464 54.459963 
L 179.497154 58.728081 
L 180.601844 63.873208 
L 181.89065 70.984301 
L 182.811225 76.428709 
L 247.067372 76.428709 
L 247.067372 76.428709 
" clip-path="url(#paeac382966)" style="fill: none; stroke: #0000ff; stroke-linecap: square"/>
   </g>
   <g id="patch_5">
    <path d="M 148.831736 76.428709 
L 148.831736 9.028564 
" style="fill: none; stroke: #000000; stroke-linejoin: miter; stroke-linecap: square"/>
   </g>
   <g id="patch_6">
    <path d="M 155.193969 81.096094 
L 247.067372 81.096094 
" style="fill: none; stroke: #000000; stroke-linejoin: miter; stroke-linecap: square"/>
   </g>
  </g>
  <g id="axes_3">
   <g id="patch_7">
    <path d="M 269.883831 79.798662 
L 370.944575 79.798662 
L 370.944575 5.659693 
L 269.883831 5.659693 
L 269.883831 79.798662 
z
" style="fill: none"/>
   </g>
   <g id="matplotlib.axis_5">
    <g id="xtick_5">
     <g id="line2d_17">
      <g>
       <use xlink:href="#m3c8d3807af" x="274.477501" y="81.096094" style="stroke: #000000"/>
      </g>
     </g>
     <g id="text_15">
      <!-- 0 -->
      <g transform="translate(272.250626 92.415) scale(0.07 -0.07)">
       <use xlink:href="#DejaVuSans-30"/>
      </g>
     </g>
    </g>
    <g id="xtick_6">
     <g id="line2d_18">
      <g>
       <use xlink:href="#m3c8d3807af" x="366.350904" y="81.096094" style="stroke: #000000"/>
      </g>
     </g>
     <g id="text_16">
      <!-- 5 -->
      <g transform="translate(364.124029 92.415) scale(0.07 -0.07)">
       <use xlink:href="#DejaVuSans-35"/>
      </g>
     </g>
    </g>
    <g id="text_17">
     <!-- Time (ms) -->
     <g transform="translate(302.77475 93.189688) scale(0.07 -0.07)">
      <use xlink:href="#DejaVuSans-54"/>
      <use xlink:href="#DejaVuSans-69" transform="translate(57.958984 0)"/>
      <use xlink:href="#DejaVuSans-6d" transform="translate(85.742188 0)"/>
      <use xlink:href="#DejaVuSans-65" transform="translate(183.154297 0)"/>
      <use xlink:href="#DejaVuSans-20" transform="translate(244.677734 0)"/>
      <use xlink:href="#DejaVuSans-28" transform="translate(276.464844 0)"/>
      <use xlink:href="#DejaVuSans-6d" transform="translate(315.478516 0)"/>
      <use xlink:href="#DejaVuSans-73" transform="translate(412.890625 0)"/>
      <use xlink:href="#DejaVuSans-29" transform="translate(464.990234 0)"/>
     </g>
    </g>
   </g>
   <g id="matplotlib.axis_6">
    <g id="ytick_5">
     <g id="line2d_19">
      <g>
       <use xlink:href="#m88effbb5dd" x="268.115268" y="79.798662" style="stroke: #000000"/>
      </g>
     </g>
     <g id="text_18">
      <!-- 0 -->
      <g transform="translate(257.661518 82.458115) scale(0.07 -0.07)">
       <use xlink:href="#DejaVuSans-30"/>
      </g>
     </g>
    </g>
    <g id="ytick_6">
     <g id="line2d_20">
      <g>
       <use xlink:href="#m88effbb5dd" x="268.115268" y="5.659693" style="stroke: #000000"/>
      </g>
     </g>
     <g id="text_19">
      <!-- 1 -->
      <g transform="translate(257.661518 8.319146) scale(0.07 -0.07)">
       <use xlink:href="#DejaVuSans-31"/>
      </g>
     </g>
    </g>
    <g id="text_20">
     <!-- NMDAR P(open) -->
     <g transform="translate(266.205737 70.516443) rotate(-90) scale(0.07 -0.07)">
      <defs>
       <path id="DejaVuSans-4e" d="M 628 4666 
L 1478 4666 
L 3547 763 
L 3547 4666 
L 4159 4666 
L 4159 0 
L 3309 0 
L 1241 3903 
L 1241 0 
L 628 0 
L 628 4666 
z
" transform="scale(0.015625)"/>
       <path id="DejaVuSans-52" d="M 2841 2188 
Q 3044 2119 3236 1894 
Q 3428 1669 3622 1275 
L 4263 0 
L 3584 0 
L 2988 1197 
Q 2756 1666 2539 1819 
Q 2322 1972 1947 1972 
L 1259 1972 
L 1259 0 
L 628 0 
L 628 4666 
L 2053 4666 
Q 2853 4666 3247 4331 
Q 3641 3997 3641 3322 
Q 3641 2881 3436 2590 
Q 3231 2300 2841 2188 
z
M 1259 4147 
L 1259 2491 
L 2053 2491 
Q 2509 2491 2742 2702 
Q 2975 2913 2975 3322 
Q 2975 3731 2742 3939 
Q 2509 4147 2053 4147 
L 1259 4147 
z
" transform="scale(0.015625)"/>
       <path id="DejaVuSans-6e" d="M 3513 2113 
L 3513 0 
L 2938 0 
L 2938 2094 
Q 2938 2591 2744 2837 
Q 2550 3084 2163 3084 
Q 1697 3084 1428 2787 
Q 1159 2491 1159 1978 
L 1159 0 
L 581 0 
L 581 3500 
L 1159 3500 
L 1159 2956 
Q 1366 3272 1645 3428 
Q 1925 3584 2291 3584 
Q 2894 3584 3203 3211 
Q 3513 2838 3513 2113 
z
" transform="scale(0.015625)"/>
      </defs>
      <use xlink:href="#DejaVuSans-4e"/>
      <use xlink:href="#DejaVuSans-4d" transform="translate(74.804688 0)"/>
      <use xlink:href="#DejaVuSans-44" transform="translate(161.083984 0)"/>
      <use xlink:href="#DejaVuSans-41" transform="translate(236.335938 0)"/>
      <use xlink:href="#DejaVuSans-52" transform="translate(304.744141 0)"/>
      <use xlink:href="#DejaVuSans-20" transform="translate(374.226562 0)"/>
      <use xlink:href="#DejaVuSans-50" transform="translate(406.013672 0)"/>
      <use xlink:href="#DejaVuSans-28" transform="translate(466.316406 0)"/>
      <use xlink:href="#DejaVuSans-6f" transform="translate(505.330078 0)"/>
      <use xlink:href="#DejaVuSans-70" transform="translate(566.511719 0)"/>
      <use xlink:href="#DejaVuSans-65" transform="translate(629.988281 0)"/>
      <use xlink:href="#DejaVuSans-6e" transform="translate(691.511719 0)"/>
      <use xlink:href="#DejaVuSans-29" transform="translate(754.890625 0)"/>
     </g>
    </g>
   </g>
   <g id="line2d_21">
    <path d="M 274.477501 77.206239 
L 283.867368 77.192206 
L 284.235598 76.81335 
L 284.787943 75.67899 
L 285.340289 74.008085 
L 286.076749 71.012125 
L 286.997324 66.128605 
L 288.102014 58.928493 
L 291.96843 32.20548 
L 293.07312 26.686559 
L 293.993695 23.152267 
L 294.91427 20.550318 
L 295.650731 19.104738 
L 296.203076 18.384582 
L 296.755421 17.98821 
L 297.123651 17.918865 
L 297.491881 18.024214 
L 297.860111 18.329026 
L 298.228341 18.868298 
L 298.780686 20.226653 
L 299.333031 22.46238 
L 299.885376 25.927706 
L 300.437721 31.103811 
L 300.990067 38.539435 
L 301.726527 52.420859 
L 302.462987 67.253472 
L 302.831217 71.262608 
L 303.199447 73.656799 
L 303.567677 75.086571 
L 304.120022 76.228034 
L 304.672367 76.754808 
L 305.408827 77.045246 
L 306.513518 77.171952 
L 309.827588 77.205908 
L 366.350904 77.206239 
L 366.350904 77.206239 
" clip-path="url(#p3fecd89f89)" style="fill: none; stroke: #000000; stroke-linecap: square"/>
   </g>
   <g id="line2d_22">
    <path d="M 274.477501 77.206239 
L 283.867368 77.193602 
L 284.235598 76.850613 
L 284.787943 75.827719 
L 285.524404 73.742333 
L 286.260864 70.91368 
L 287.181439 66.434379 
L 288.470244 58.80835 
L 291.96843 37.006708 
L 293.07312 31.694336 
L 293.993695 28.187041 
L 294.91427 25.55054 
L 295.650731 24.079745 
L 296.203076 23.364317 
L 296.755421 23.00754 
L 297.123651 22.98982 
L 297.491881 23.170466 
L 297.860111 23.576405 
L 298.228341 24.243472 
L 298.780686 25.839516 
L 299.333031 28.346238 
L 299.885376 32.054243 
L 300.437721 37.313679 
L 300.990067 44.441536 
L 301.910642 60.180937 
L 302.462987 69.063874 
L 302.831217 72.343751 
L 303.199447 74.30244 
L 303.567677 75.472137 
L 304.120022 76.405969 
L 304.672367 76.836923 
L 305.408827 77.07453 
L 306.697633 77.184562 
L 311.484624 77.206212 
L 366.350904 77.206239 
L 366.350904 77.206239 
" clip-path="url(#p3fecd89f89)" style="fill: none; stroke: #008080; stroke-linecap: square"/>
   </g>
   <g id="line2d_23">
    <path d="M 274.477501 77.206239 
L 284.051483 77.133907 
L 284.603828 76.705749 
L 285.340289 75.800565 
L 286.260864 74.304672 
L 287.365554 72.094944 
L 289.022589 68.198827 
L 292.152545 60.712959 
L 293.257235 58.65602 
L 294.17781 57.39409 
L 294.91427 56.756022 
L 295.466616 56.529606 
L 296.018961 56.544856 
L 296.571306 56.824682 
L 297.123651 57.391161 
L 297.675996 58.264061 
L 298.412456 59.929126 
L 299.148916 62.172101 
L 300.069491 65.706767 
L 302.462987 75.542598 
L 303.015332 76.438486 
L 303.567677 76.851929 
L 304.304137 77.079882 
L 305.592942 77.185443 
L 310.564048 77.206219 
L 366.350904 77.206239 
L 366.350904 77.206239 
" clip-path="url(#p3fecd89f89)" style="fill: none; stroke: #0000ff; stroke-linecap: square"/>
   </g>
   <g id="patch_8">
    <path d="M 268.115268 79.798662 
L 268.115268 5.659693 
" style="fill: none; stroke: #000000; stroke-linejoin: miter; stroke-linecap: square"/>
   </g>
   <g id="patch_9">
    <path d="M 274.477501 81.096094 
L 366.350904 81.096094 
" style="fill: none; stroke: #000000; stroke-linejoin: miter; stroke-linecap: square"/>
   </g>
  </g>
  <g id="axes_4">
   <g id="patch_10">
    <path d="M 389.167363 79.798662 
L 490.228106 79.798662 
L 490.228106 5.659693 
L 389.167363 5.659693 
L 389.167363 79.798662 
z
" style="fill: none"/>
   </g>
   <g id="matplotlib.axis_7">
    <g id="xtick_7">
     <g id="line2d_24">
      <g>
       <use xlink:href="#m3c8d3807af" x="393.761033" y="81.096094" style="stroke: #000000"/>
      </g>
     </g>
     <g id="text_21">
      <!-- 0 -->
      <g transform="translate(391.534158 92.415) scale(0.07 -0.07)">
       <use xlink:href="#DejaVuSans-30"/>
      </g>
     </g>
    </g>
    <g id="xtick_8">
     <g id="line2d_25">
      <g>
       <use xlink:href="#m3c8d3807af" x="485.634436" y="81.096094" style="stroke: #000000"/>
      </g>
     </g>
     <g id="text_22">
      <!-- 5 -->
      <g transform="translate(483.407561 92.415) scale(0.07 -0.07)">
       <use xlink:href="#DejaVuSans-35"/>
      </g>
     </g>
    </g>
    <g id="text_23">
     <!-- Time (ms) -->
     <g transform="translate(422.058282 93.189688) scale(0.07 -0.07)">
      <use xlink:href="#DejaVuSans-54"/>
      <use xlink:href="#DejaVuSans-69" transform="translate(57.958984 0)"/>
      <use xlink:href="#DejaVuSans-6d" transform="translate(85.742188 0)"/>
      <use xlink:href="#DejaVuSans-65" transform="translate(183.154297 0)"/>
      <use xlink:href="#DejaVuSans-20" transform="translate(244.677734 0)"/>
      <use xlink:href="#DejaVuSans-28" transform="translate(276.464844 0)"/>
      <use xlink:href="#DejaVuSans-6d" transform="translate(315.478516 0)"/>
      <use xlink:href="#DejaVuSans-73" transform="translate(412.890625 0)"/>
      <use xlink:href="#DejaVuSans-29" transform="translate(464.990234 0)"/>
     </g>
    </g>
   </g>
   <g id="matplotlib.axis_8">
    <g id="ytick_7">
     <g id="line2d_26">
      <g>
       <use xlink:href="#m88effbb5dd" x="387.3988" y="79.798662" style="stroke: #000000"/>
      </g>
     </g>
     <g id="text_24">
      <!-- 0 -->
      <g transform="translate(376.94505 82.458115) scale(0.07 -0.07)">
       <use xlink:href="#DejaVuSans-30"/>
      </g>
     </g>
    </g>
    <g id="ytick_8">
     <g id="line2d_27">
      <g>
       <use xlink:href="#m88effbb5dd" x="387.3988" y="5.659693" style="stroke: #000000"/>
      </g>
     </g>
     <g id="text_25">
      <!-- 1 -->
      <g transform="translate(376.94505 8.319146) scale(0.07 -0.07)">
       <use xlink:href="#DejaVuSans-31"/>
      </g>
     </g>
    </g>
    <g id="text_26">
     <!-- VGCC P(open) -->
     <g transform="translate(385.489269 67.412381) rotate(-90) scale(0.07 -0.07)">
      <defs>
       <path id="DejaVuSans-47" d="M 3809 666 
L 3809 1919 
L 2778 1919 
L 2778 2438 
L 4434 2438 
L 4434 434 
Q 4069 175 3628 42 
Q 3188 -91 2688 -91 
Q 1594 -91 976 548 
Q 359 1188 359 2328 
Q 359 3472 976 4111 
Q 1594 4750 2688 4750 
Q 3144 4750 3555 4637 
Q 3966 4525 4313 4306 
L 4313 3634 
Q 3963 3931 3569 4081 
Q 3175 4231 2741 4231 
Q 1884 4231 1454 3753 
Q 1025 3275 1025 2328 
Q 1025 1384 1454 906 
Q 1884 428 2741 428 
Q 3075 428 3337 486 
Q 3600 544 3809 666 
z
" transform="scale(0.015625)"/>
       <path id="DejaVuSans-43" d="M 4122 4306 
L 4122 3641 
Q 3803 3938 3442 4084 
Q 3081 4231 2675 4231 
Q 1875 4231 1450 3742 
Q 1025 3253 1025 2328 
Q 1025 1406 1450 917 
Q 1875 428 2675 428 
Q 3081 428 3442 575 
Q 3803 722 4122 1019 
L 4122 359 
Q 3791 134 3420 21 
Q 3050 -91 2638 -91 
Q 1578 -91 968 557 
Q 359 1206 359 2328 
Q 359 3453 968 4101 
Q 1578 4750 2638 4750 
Q 3056 4750 3426 4639 
Q 3797 4528 4122 4306 
z
" transform="scale(0.015625)"/>
      </defs>
      <use xlink:href="#DejaVuSans-56"/>
      <use xlink:href="#DejaVuSans-47" transform="translate(68.408203 0)"/>
      <use xlink:href="#DejaVuSans-43" transform="translate(145.898438 0)"/>
      <use xlink:href="#DejaVuSans-43" transform="translate(215.722656 0)"/>
      <use xlink:href="#DejaVuSans-20" transform="translate(285.546875 0)"/>
      <use xlink:href="#DejaVuSans-50" transform="translate(317.333984 0)"/>
      <use xlink:href="#DejaVuSans-28" transform="translate(377.636719 0)"/>
      <use xlink:href="#DejaVuSans-6f" transform="translate(416.650391 0)"/>
      <use xlink:href="#DejaVuSans-70" transform="translate(477.832031 0)"/>
      <use xlink:href="#DejaVuSans-65" transform="translate(541.308594 0)"/>
      <use xlink:href="#DejaVuSans-6e" transform="translate(602.832031 0)"/>
      <use xlink:href="#DejaVuSans-29" transform="translate(666.210938 0)"/>
     </g>
    </g>
   </g>
   <g id="line2d_28">
    <path d="M 393.761033 79.798662 
L 406.464971 79.723851 
L 407.201431 79.443969 
L 407.753776 78.980579 
L 408.306121 78.2265 
L 409.042581 76.713131 
L 409.779041 74.634093 
L 410.883732 70.690745 
L 414.381917 57.329072 
L 415.486608 54.213872 
L 416.407183 52.224904 
L 417.143643 51.042694 
L 417.880103 50.230792 
L 418.432448 49.870676 
L 418.984793 49.721475 
L 419.721253 49.799441 
L 420.457714 50.147088 
L 421.010059 50.690447 
L 421.562404 51.704504 
L 423.403554 55.389076 
L 425.244704 58.5904 
L 427.085855 61.371859 
L 429.11112 64.012021 
L 431.136386 66.273894 
L 433.161651 68.21168 
L 435.371031 70.010392 
L 437.580412 71.52987 
L 439.973907 72.910972 
L 442.551518 74.141472 
L 445.313243 75.216992 
L 448.443199 76.190898 
L 451.941385 77.036529 
L 455.991916 77.771261 
L 460.594791 78.371986 
L 466.118242 78.862833 
L 473.114614 79.250069 
L 482.504481 79.53075 
L 485.634436 79.587676 
L 485.634436 79.587676 
" clip-path="url(#p41b9f4384a)" style="fill: none; stroke: #000000; stroke-linecap: square"/>
   </g>
   <g id="line2d_29">
    <path d="M 393.761033 79.798662 
L 406.833201 79.723476 
L 407.569661 79.482508 
L 408.122006 79.101266 
L 408.674351 78.492802 
L 409.410811 77.28337 
L 410.147272 75.623588 
L 411.251962 72.45034 
L 415.302493 59.923442 
L 416.223068 57.968758 
L 417.143643 56.551348 
L 417.880103 55.836383 
L 418.432448 55.55153 
L 418.984793 55.46329 
L 419.721253 55.572843 
L 420.457714 55.901613 
L 421.010059 56.376003 
L 421.562404 57.205059 
L 423.403554 60.168212 
L 425.244704 62.742736 
L 427.26997 65.186476 
L 429.295235 67.280071 
L 431.320501 69.073691 
L 433.529881 70.738584 
L 435.923377 72.251858 
L 438.500987 73.600118 
L 441.262713 74.778564 
L 444.208553 75.78971 
L 447.522624 76.685934 
L 451.204925 77.44879 
L 455.43957 78.097927 
L 460.594791 78.651268 
L 466.854703 79.087164 
L 474.955764 79.41529 
L 485.634436 79.628964 
L 485.634436 79.628964 
" clip-path="url(#p41b9f4384a)" style="fill: none; stroke: #008080; stroke-linecap: square"/>
   </g>
   <g id="line2d_30">
    <path d="M 393.761033 79.798662 
L 412.356652 79.69311 
L 418.064218 79.442344 
L 425.244704 79.560737 
L 440.342137 79.723474 
L 471.825809 79.791837 
L 485.634436 79.796273 
L 485.634436 79.796273 
" clip-path="url(#p41b9f4384a)" style="fill: none; stroke: #0000ff; stroke-linecap: square"/>
   </g>
   <g id="patch_11">
    <path d="M 387.3988 79.798662 
L 387.3988 5.659693 
" style="fill: none; stroke: #000000; stroke-linejoin: miter; stroke-linecap: square"/>
   </g>
   <g id="patch_12">
    <path d="M 393.761033 81.096094 
L 485.634436 81.096094 
" style="fill: none; stroke: #000000; stroke-linejoin: miter; stroke-linecap: square"/>
   </g>
   <g id="text_27">
    <!-- proximal -->
    <g transform="translate(455.265374 10.556814) scale(0.07 -0.07)">
     <defs>
      <path id="DejaVuSans-78" d="M 3513 3500 
L 2247 1797 
L 3578 0 
L 2900 0 
L 1881 1375 
L 863 0 
L 184 0 
L 1544 1831 
L 300 3500 
L 978 3500 
L 1906 2253 
L 2834 3500 
L 3513 3500 
z
" transform="scale(0.015625)"/>
     </defs>
     <use xlink:href="#DejaVuSans-70"/>
     <use xlink:href="#DejaVuSans-72" transform="translate(63.476562 0)"/>
     <use xlink:href="#DejaVuSans-6f" transform="translate(102.339844 0)"/>
     <use xlink:href="#DejaVuSans-78" transform="translate(160.396484 0)"/>
     <use xlink:href="#DejaVuSans-69" transform="translate(219.576172 0)"/>
     <use xlink:href="#DejaVuSans-6d" transform="translate(247.359375 0)"/>
     <use xlink:href="#DejaVuSans-61" transform="translate(344.771484 0)"/>
     <use xlink:href="#DejaVuSans-6c" transform="translate(406.050781 0)"/>
    </g>
   </g>
   <g id="text_28">
    <!-- distal-simple -->
    <g style="fill: #008080" transform="translate(440.989749 17.970711) scale(0.07 -0.07)">
     <defs>
      <path id="DejaVuSans-64" d="M 2906 2969 
L 2906 4863 
L 3481 4863 
L 3481 0 
L 2906 0 
L 2906 525 
Q 2725 213 2448 61 
Q 2172 -91 1784 -91 
Q 1150 -91 751 415 
Q 353 922 353 1747 
Q 353 2572 751 3078 
Q 1150 3584 1784 3584 
Q 2172 3584 2448 3432 
Q 2725 3281 2906 2969 
z
M 947 1747 
Q 947 1113 1208 752 
Q 1469 391 1925 391 
Q 2381 391 2643 752 
Q 2906 1113 2906 1747 
Q 2906 2381 2643 2742 
Q 2381 3103 1925 3103 
Q 1469 3103 1208 2742 
Q 947 2381 947 1747 
z
" transform="scale(0.015625)"/>
      <path id="DejaVuSans-2d" d="M 313 2009 
L 1997 2009 
L 1997 1497 
L 313 1497 
L 313 2009 
z
" transform="scale(0.015625)"/>
     </defs>
     <use xlink:href="#DejaVuSans-64"/>
     <use xlink:href="#DejaVuSans-69" transform="translate(63.476562 0)"/>
     <use xlink:href="#DejaVuSans-73" transform="translate(91.259766 0)"/>
     <use xlink:href="#DejaVuSans-74" transform="translate(143.359375 0)"/>
     <use xlink:href="#DejaVuSans-61" transform="translate(182.568359 0)"/>
     <use xlink:href="#DejaVuSans-6c" transform="translate(243.847656 0)"/>
     <use xlink:href="#DejaVuSans-2d" transform="translate(271.630859 0)"/>
     <use xlink:href="#DejaVuSans-73" transform="translate(307.714844 0)"/>
     <use xlink:href="#DejaVuSans-69" transform="translate(359.814453 0)"/>
     <use xlink:href="#DejaVuSans-6d" transform="translate(387.597656 0)"/>
     <use xlink:href="#DejaVuSans-70" transform="translate(485.009766 0)"/>
     <use xlink:href="#DejaVuSans-6c" transform="translate(548.486328 0)"/>
     <use xlink:href="#DejaVuSans-65" transform="translate(576.269531 0)"/>
    </g>
   </g>
   <g id="text_29">
    <!-- distal-complex -->
    <g style="fill: #0000ff" transform="translate(434.428343 25.384608) scale(0.07 -0.07)">
     <use xlink:href="#DejaVuSans-64"/>
     <use xlink:href="#DejaVuSans-69" transform="translate(63.476562 0)"/>
     <use xlink:href="#DejaVuSans-73" transform="translate(91.259766 0)"/>
     <use xlink:href="#DejaVuSans-74" transform="translate(143.359375 0)"/>
     <use xlink:href="#DejaVuSans-61" transform="translate(182.568359 0)"/>
     <use xlink:href="#DejaVuSans-6c" transform="translate(243.847656 0)"/>
     <use xlink:href="#DejaVuSans-2d" transform="translate(271.630859 0)"/>
     <use xlink:href="#DejaVuSans-63" transform="translate(307.714844 0)"/>
     <use xlink:href="#DejaVuSans-6f" transform="translate(362.695312 0)"/>
     <use xlink:href="#DejaVuSans-6d" transform="translate(423.876953 0)"/>
     <use xlink:href="#DejaVuSans-70" transform="translate(521.289062 0)"/>
     <use xlink:href="#DejaVuSans-6c" transform="translate(584.765625 0)"/>
     <use xlink:href="#DejaVuSans-65" transform="translate(612.548828 0)"/>
     <use xlink:href="#DejaVuSans-78" transform="translate(672.322266 0)"/>
    </g>
   </g>
  </g>
 </g>
 <defs>
  <clipPath id="pf1b3987862">
   <rect x="20.997236" y="5.659693" width="101.060743" height="74.138969"/>
  </clipPath>
  <clipPath id="paeac382966">
   <rect x="150.600299" y="5.659693" width="101.060743" height="74.138969"/>
  </clipPath>
  <clipPath id="p3fecd89f89">
   <rect x="269.883831" y="5.659693" width="101.060743" height="74.138969"/>
  </clipPath>
  <clipPath id="p41b9f4384a">
   <rect x="389.167363" y="5.659693" width="101.060743" height="74.138969"/>
  </clipPath>
 </defs>
</svg>
