<?xml version="1.0" encoding="utf-8" standalone="no"?>
<!DOCTYPE svg PUBLIC "-//W3C//DTD SVG 1.1//EN"
  "http://www.w3.org/Graphics/SVG/1.1/DTD/svg11.dtd">
<svg xmlns:xlink="http://www.w3.org/1999/xlink" width="323.04pt" height="215.28pt" viewBox="0 0 323.04 215.28" xmlns="http://www.w3.org/2000/svg" version="1.1">
 <metadata>
  <rdf:RDF xmlns:dc="http://purl.org/dc/elements/1.1/" xmlns:cc="http://creativecommons.org/ns#" xmlns:rdf="http://www.w3.org/1999/02/22-rdf-syntax-ns#">
   <cc:Work>
    <dc:type rdf:resource="http://purl.org/dc/dcmitype/StillImage"/>
    <dc:date>2025-03-26T23:55:08.220520</dc:date>
    <dc:format>image/svg+xml</dc:format>
    <dc:creator>
     <cc:Agent>
      <dc:title>Matplotlib v3.9.2, https://matplotlib.org/</dc:title>
     </cc:Agent>
    </dc:creator>
   </cc:Work>
  </rdf:RDF>
 </metadata>
 <defs>
  <style type="text/css">*{stroke-linejoin: round; stroke-linecap: butt}</style>
 </defs>
 <g id="figure_1">
  <g id="axes_1">
   <g id="patch_1">
    <path d="M 25.079083 90.436553 
L 99.684239 90.436553 
L 99.684239 5.659693 
L 25.079083 5.659693 
L 25.079083 90.436553 
z
" style="fill: none"/>
   </g>
   <g id="matplotlib.axis_1">
    <g id="xtick_1">
     <g id="line2d_1">
      <defs>
       <path id="m04a6518874" d="M 0 0 
L 0 2.5 
" style="stroke: #000000"/>
      </defs>
      <g>
       <use xlink:href="#m04a6518874" x="28.470226" y="91.920148" style="stroke: #000000"/>
      </g>
     </g>
     <g id="text_1">
      <!-- 0 -->
      <g transform="translate(26.243351 103.239054) scale(0.07 -0.07)">
       <defs>
        <path id="DejaVuSans-30" d="M 2034 4250 
Q 1547 4250 1301 3770 
Q 1056 3291 1056 2328 
Q 1056 1369 1301 889 
Q 1547 409 2034 409 
Q 2525 409 2770 889 
Q 3016 1369 3016 2328 
Q 3016 3291 2770 3770 
Q 2525 4250 2034 4250 
z
M 2034 4750 
Q 2819 4750 3233 4129 
Q 3647 3509 3647 2328 
Q 3647 1150 3233 529 
Q 2819 -91 2034 -91 
Q 1250 -91 836 529 
Q 422 1150 422 2328 
Q 422 3509 836 4129 
Q 1250 4750 2034 4750 
z
" transform="scale(0.015625)"/>
       </defs>
       <use xlink:href="#DejaVuSans-30"/>
      </g>
     </g>
    </g>
    <g id="xtick_2">
     <g id="line2d_2">
      <g>
       <use xlink:href="#m04a6518874" x="96.293096" y="91.920148" style="stroke: #000000"/>
      </g>
     </g>
     <g id="text_2">
      <!-- 5 -->
      <g transform="translate(94.066221 103.239054) scale(0.07 -0.07)">
       <defs>
        <path id="DejaVuSans-35" d="M 691 4666 
L 3169 4666 
L 3169 4134 
L 1269 4134 
L 1269 2991 
Q 1406 3038 1543 3061 
Q 1681 3084 1819 3084 
Q 2600 3084 3056 2656 
Q 3513 2228 3513 1497 
Q 3513 744 3044 326 
Q 2575 -91 1722 -91 
Q 1428 -91 1123 -41 
Q 819 9 494 109 
L 494 744 
Q 775 591 1075 516 
Q 1375 441 1709 441 
Q 2250 441 2565 725 
Q 2881 1009 2881 1497 
Q 2881 1984 2565 2268 
Q 2250 2553 1709 2553 
Q 1456 2553 1204 2497 
Q 953 2441 691 2322 
L 691 4666 
z
" transform="scale(0.015625)"/>
       </defs>
       <use xlink:href="#DejaVuSans-35"/>
      </g>
     </g>
    </g>
    <g id="text_3">
     <!-- Time (ms) -->
     <g transform="translate(44.742208 104.013742) scale(0.07 -0.07)">
      <defs>
       <path id="DejaVuSans-54" d="M -19 4666 
L 3928 4666 
L 3928 4134 
L 2272 4134 
L 2272 0 
L 1638 0 
L 1638 4134 
L -19 4134 
L -19 4666 
z
" transform="scale(0.015625)"/>
       <path id="DejaVuSans-69" d="M 603 3500 
L 1178 3500 
L 1178 0 
L 603 0 
L 603 3500 
z
M 603 4863 
L 1178 4863 
L 1178 4134 
L 603 4134 
L 603 4863 
z
" transform="scale(0.015625)"/>
       <path id="DejaVuSans-6d" d="M 3328 2828 
Q 3544 3216 3844 3400 
Q 4144 3584 4550 3584 
Q 5097 3584 5394 3201 
Q 5691 2819 5691 2113 
L 5691 0 
L 5113 0 
L 5113 2094 
Q 5113 2597 4934 2840 
Q 4756 3084 4391 3084 
Q 3944 3084 3684 2787 
Q 3425 2491 3425 1978 
L 3425 0 
L 2847 0 
L 2847 2094 
Q 2847 2600 2669 2842 
Q 2491 3084 2119 3084 
Q 1678 3084 1418 2786 
Q 1159 2488 1159 1978 
L 1159 0 
L 581 0 
L 581 3500 
L 1159 3500 
L 1159 2956 
Q 1356 3278 1631 3431 
Q 1906 3584 2284 3584 
Q 2666 3584 2933 3390 
Q 3200 3197 3328 2828 
z
" transform="scale(0.015625)"/>
       <path id="DejaVuSans-65" d="M 3597 1894 
L 3597 1613 
L 953 1613 
Q 991 1019 1311 708 
Q 1631 397 2203 397 
Q 2534 397 2845 478 
Q 3156 559 3463 722 
L 3463 178 
Q 3153 47 2828 -22 
Q 2503 -91 2169 -91 
Q 1331 -91 842 396 
Q 353 884 353 1716 
Q 353 2575 817 3079 
Q 1281 3584 2069 3584 
Q 2775 3584 3186 3129 
Q 3597 2675 3597 1894 
z
M 3022 2063 
Q 3016 2534 2758 2815 
Q 2500 3097 2075 3097 
Q 1594 3097 1305 2825 
Q 1016 2553 972 2059 
L 3022 2063 
z
" transform="scale(0.015625)"/>
       <path id="DejaVuSans-20" transform="scale(0.015625)"/>
       <path id="DejaVuSans-28" d="M 1984 4856 
Q 1566 4138 1362 3434 
Q 1159 2731 1159 2009 
Q 1159 1288 1364 580 
Q 1569 -128 1984 -844 
L 1484 -844 
Q 1016 -109 783 600 
Q 550 1309 550 2009 
Q 550 2706 781 3412 
Q 1013 4119 1484 4856 
L 1984 4856 
z
" transform="scale(0.015625)"/>
       <path id="DejaVuSans-73" d="M 2834 3397 
L 2834 2853 
Q 2591 2978 2328 3040 
Q 2066 3103 1784 3103 
Q 1356 3103 1142 2972 
Q 928 2841 928 2578 
Q 928 2378 1081 2264 
Q 1234 2150 1697 2047 
L 1894 2003 
Q 2506 1872 2764 1633 
Q 3022 1394 3022 966 
Q 3022 478 2636 193 
Q 2250 -91 1575 -91 
Q 1294 -91 989 -36 
Q 684 19 347 128 
L 347 722 
Q 666 556 975 473 
Q 1284 391 1588 391 
Q 1994 391 2212 530 
Q 2431 669 2431 922 
Q 2431 1156 2273 1281 
Q 2116 1406 1581 1522 
L 1381 1569 
Q 847 1681 609 1914 
Q 372 2147 372 2553 
Q 372 3047 722 3315 
Q 1072 3584 1716 3584 
Q 2034 3584 2315 3537 
Q 2597 3491 2834 3397 
z
" transform="scale(0.015625)"/>
       <path id="DejaVuSans-29" d="M 513 4856 
L 1013 4856 
Q 1481 4119 1714 3412 
Q 1947 2706 1947 2009 
Q 1947 1309 1714 600 
Q 1481 -109 1013 -844 
L 513 -844 
Q 928 -128 1133 580 
Q 1338 1288 1338 2009 
Q 1338 2731 1133 3434 
Q 928 4138 513 4856 
z
" transform="scale(0.015625)"/>
      </defs>
      <use xlink:href="#DejaVuSans-54"/>
      <use xlink:href="#DejaVuSans-69" x="57.958984"/>
      <use xlink:href="#DejaVuSans-6d" x="85.742188"/>
      <use xlink:href="#DejaVuSans-65" x="183.154297"/>
      <use xlink:href="#DejaVuSans-20" x="244.677734"/>
      <use xlink:href="#DejaVuSans-28" x="276.464844"/>
      <use xlink:href="#DejaVuSans-6d" x="315.478516"/>
      <use xlink:href="#DejaVuSans-73" x="412.890625"/>
      <use xlink:href="#DejaVuSans-29" x="464.990234"/>
     </g>
    </g>
   </g>
   <g id="matplotlib.axis_2">
    <g id="ytick_1">
     <g id="line2d_3">
      <defs>
       <path id="m7a8c13b038" d="M 0 0 
L -2.5 0 
" style="stroke: #000000"/>
      </defs>
      <g>
       <use xlink:href="#m7a8c13b038" x="23.773493" y="86.583059" style="stroke: #000000"/>
      </g>
     </g>
     <g id="text_4">
      <!-- −70 -->
      <g transform="translate(3.000211 89.242512) scale(0.07 -0.07)">
       <defs>
        <path id="DejaVuSans-2212" d="M 678 2272 
L 4684 2272 
L 4684 1741 
L 678 1741 
L 678 2272 
z
" transform="scale(0.015625)"/>
        <path id="DejaVuSans-37" d="M 525 4666 
L 3525 4666 
L 3525 4397 
L 1831 0 
L 1172 0 
L 2766 4134 
L 525 4134 
L 525 4666 
z
" transform="scale(0.015625)"/>
       </defs>
       <use xlink:href="#DejaVuSans-2212"/>
       <use xlink:href="#DejaVuSans-37" x="83.789062"/>
       <use xlink:href="#DejaVuSans-30" x="147.412109"/>
      </g>
     </g>
    </g>
    <g id="ytick_2">
     <g id="line2d_4">
      <g>
       <use xlink:href="#m7a8c13b038" x="23.773493" y="9.511949" style="stroke: #000000"/>
      </g>
     </g>
     <g id="text_5">
      <!-- 30 -->
      <g transform="translate(8.865993 12.171402) scale(0.07 -0.07)">
       <defs>
        <path id="DejaVuSans-33" d="M 2597 2516 
Q 3050 2419 3304 2112 
Q 3559 1806 3559 1356 
Q 3559 666 3084 287 
Q 2609 -91 1734 -91 
Q 1441 -91 1130 -33 
Q 819 25 488 141 
L 488 750 
Q 750 597 1062 519 
Q 1375 441 1716 441 
Q 2309 441 2620 675 
Q 2931 909 2931 1356 
Q 2931 1769 2642 2001 
Q 2353 2234 1838 2234 
L 1294 2234 
L 1294 2753 
L 1863 2753 
Q 2328 2753 2575 2939 
Q 2822 3125 2822 3475 
Q 2822 3834 2567 4026 
Q 2313 4219 1838 4219 
Q 1578 4219 1281 4162 
Q 984 4106 628 3988 
L 628 4550 
Q 988 4650 1302 4700 
Q 1616 4750 1894 4750 
Q 2613 4750 3031 4423 
Q 3450 4097 3450 3541 
Q 3450 3153 3228 2886 
Q 3006 2619 2597 2516 
z
" transform="scale(0.015625)"/>
       </defs>
       <use xlink:href="#DejaVuSans-33"/>
       <use xlink:href="#DejaVuSans-30" x="63.623047"/>
      </g>
     </g>
    </g>
    <g id="text_6">
     <!-- AP Voltage (mV) -->
     <g transform="translate(11.54443 76.441326) rotate(-90) scale(0.07 -0.07)">
      <defs>
       <path id="DejaVuSans-41" d="M 2188 4044 
L 1331 1722 
L 3047 1722 
L 2188 4044 
z
M 1831 4666 
L 2547 4666 
L 4325 0 
L 3669 0 
L 3244 1197 
L 1141 1197 
L 716 0 
L 50 0 
L 1831 4666 
z
" transform="scale(0.015625)"/>
       <path id="DejaVuSans-50" d="M 1259 4147 
L 1259 2394 
L 2053 2394 
Q 2494 2394 2734 2622 
Q 2975 2850 2975 3272 
Q 2975 3691 2734 3919 
Q 2494 4147 2053 4147 
L 1259 4147 
z
M 628 4666 
L 2053 4666 
Q 2838 4666 3239 4311 
Q 3641 3956 3641 3272 
Q 3641 2581 3239 2228 
Q 2838 1875 2053 1875 
L 1259 1875 
L 1259 0 
L 628 0 
L 628 4666 
z
" transform="scale(0.015625)"/>
       <path id="DejaVuSans-56" d="M 1831 0 
L 50 4666 
L 709 4666 
L 2188 738 
L 3669 4666 
L 4325 4666 
L 2547 0 
L 1831 0 
z
" transform="scale(0.015625)"/>
       <path id="DejaVuSans-6f" d="M 1959 3097 
Q 1497 3097 1228 2736 
Q 959 2375 959 1747 
Q 959 1119 1226 758 
Q 1494 397 1959 397 
Q 2419 397 2687 759 
Q 2956 1122 2956 1747 
Q 2956 2369 2687 2733 
Q 2419 3097 1959 3097 
z
M 1959 3584 
Q 2709 3584 3137 3096 
Q 3566 2609 3566 1747 
Q 3566 888 3137 398 
Q 2709 -91 1959 -91 
Q 1206 -91 779 398 
Q 353 888 353 1747 
Q 353 2609 779 3096 
Q 1206 3584 1959 3584 
z
" transform="scale(0.015625)"/>
       <path id="DejaVuSans-6c" d="M 603 4863 
L 1178 4863 
L 1178 0 
L 603 0 
L 603 4863 
z
" transform="scale(0.015625)"/>
       <path id="DejaVuSans-74" d="M 1172 4494 
L 1172 3500 
L 2356 3500 
L 2356 3053 
L 1172 3053 
L 1172 1153 
Q 1172 725 1289 603 
Q 1406 481 1766 481 
L 2356 481 
L 2356 0 
L 1766 0 
Q 1100 0 847 248 
Q 594 497 594 1153 
L 594 3053 
L 172 3053 
L 172 3500 
L 594 3500 
L 594 4494 
L 1172 4494 
z
" transform="scale(0.015625)"/>
       <path id="DejaVuSans-61" d="M 2194 1759 
Q 1497 1759 1228 1600 
Q 959 1441 959 1056 
Q 959 750 1161 570 
Q 1363 391 1709 391 
Q 2188 391 2477 730 
Q 2766 1069 2766 1631 
L 2766 1759 
L 2194 1759 
z
M 3341 1997 
L 3341 0 
L 2766 0 
L 2766 531 
Q 2569 213 2275 61 
Q 1981 -91 1556 -91 
Q 1019 -91 701 211 
Q 384 513 384 1019 
Q 384 1609 779 1909 
Q 1175 2209 1959 2209 
L 2766 2209 
L 2766 2266 
Q 2766 2663 2505 2880 
Q 2244 3097 1772 3097 
Q 1472 3097 1187 3025 
Q 903 2953 641 2809 
L 641 3341 
Q 956 3463 1253 3523 
Q 1550 3584 1831 3584 
Q 2591 3584 2966 3190 
Q 3341 2797 3341 1997 
z
" transform="scale(0.015625)"/>
       <path id="DejaVuSans-67" d="M 2906 1791 
Q 2906 2416 2648 2759 
Q 2391 3103 1925 3103 
Q 1463 3103 1205 2759 
Q 947 2416 947 1791 
Q 947 1169 1205 825 
Q 1463 481 1925 481 
Q 2391 481 2648 825 
Q 2906 1169 2906 1791 
z
M 3481 434 
Q 3481 -459 3084 -895 
Q 2688 -1331 1869 -1331 
Q 1566 -1331 1297 -1286 
Q 1028 -1241 775 -1147 
L 775 -588 
Q 1028 -725 1275 -790 
Q 1522 -856 1778 -856 
Q 2344 -856 2625 -561 
Q 2906 -266 2906 331 
L 2906 616 
Q 2728 306 2450 153 
Q 2172 0 1784 0 
Q 1141 0 747 490 
Q 353 981 353 1791 
Q 353 2603 747 3093 
Q 1141 3584 1784 3584 
Q 2172 3584 2450 3431 
Q 2728 3278 2906 2969 
L 2906 3500 
L 3481 3500 
L 3481 434 
z
" transform="scale(0.015625)"/>
      </defs>
      <use xlink:href="#DejaVuSans-41"/>
      <use xlink:href="#DejaVuSans-50" x="68.408203"/>
      <use xlink:href="#DejaVuSans-20" x="128.710938"/>
      <use xlink:href="#DejaVuSans-56" x="160.498047"/>
      <use xlink:href="#DejaVuSans-6f" x="221.15625"/>
      <use xlink:href="#DejaVuSans-6c" x="282.337891"/>
      <use xlink:href="#DejaVuSans-74" x="310.121094"/>
      <use xlink:href="#DejaVuSans-61" x="349.330078"/>
      <use xlink:href="#DejaVuSans-67" x="410.609375"/>
      <use xlink:href="#DejaVuSans-65" x="474.085938"/>
      <use xlink:href="#DejaVuSans-20" x="535.609375"/>
      <use xlink:href="#DejaVuSans-28" x="567.396484"/>
      <use xlink:href="#DejaVuSans-6d" x="606.410156"/>
      <use xlink:href="#DejaVuSans-56" x="703.822266"/>
      <use xlink:href="#DejaVuSans-29" x="772.230469"/>
     </g>
    </g>
   </g>
   <g id="line2d_5">
    <path d="M 28.470226 86.583059 
L 35.130187 86.583059 
L 35.266105 86.274467 
L 36.489363 61.036101 
L 37.576704 42.811487 
L 38.528127 30.114924 
L 39.343632 21.646421 
L 40.159138 15.406472 
L 40.838725 11.908882 
L 41.382396 10.225086 
L 41.790148 9.612234 
L 42.061984 9.513187 
L 42.333819 9.661757 
L 42.605654 10.057944 
L 43.013407 11.116507 
L 43.557077 13.394584 
L 44.100747 16.663129 
L 44.780335 22.141655 
L 45.595841 30.758728 
L 46.547264 43.628623 
L 47.498687 59.531827 
L 48.586027 81.421173 
L 48.857862 86.583059 
L 96.293096 86.583059 
L 96.293096 86.583059 
" clip-path="url(#p34aff39891)" style="fill: none; stroke: #000000; stroke-linecap: square"/>
   </g>
   <g id="line2d_6">
    <path d="M 28.470226 86.583059 
L 35.130187 86.583059 
L 35.266105 86.305326 
L 36.489363 63.590797 
L 37.576704 47.188644 
L 38.528127 35.761737 
L 39.343632 28.140085 
L 40.159138 22.524131 
L 40.838725 19.376299 
L 41.382396 17.860883 
L 41.790148 17.309316 
L 42.061984 17.220174 
L 42.333819 17.353887 
L 42.605654 17.710456 
L 43.013407 18.663162 
L 43.557077 20.713431 
L 44.100747 23.655122 
L 44.780335 28.585796 
L 45.595841 36.341161 
L 46.547264 47.924067 
L 47.498687 62.23695 
L 48.586027 81.937361 
L 48.857862 86.583059 
L 96.293096 86.583059 
L 96.293096 86.583059 
" clip-path="url(#p34aff39891)" style="fill: none; stroke: #008080; stroke-linecap: square"/>
   </g>
   <g id="line2d_7">
    <path d="M 28.470226 86.583059 
L 35.130187 86.583059 
L 35.266105 86.444193 
L 36.489363 75.086928 
L 37.576704 66.885852 
L 38.528127 61.172398 
L 39.47955 56.823934 
L 40.295055 54.183098 
L 40.974643 52.748467 
L 41.518313 52.102186 
L 41.926066 51.909974 
L 42.333819 51.968473 
L 42.741572 52.277685 
L 43.285242 53.079964 
L 43.828912 54.327954 
L 44.5085 56.514722 
L 45.324005 60.058122 
L 46.139511 64.60437 
L 47.090934 71.175817 
L 48.178274 80.357456 
L 48.857862 86.583059 
L 96.293096 86.583059 
L 96.293096 86.583059 
" clip-path="url(#p34aff39891)" style="fill: none; stroke: #0000ff; stroke-linecap: square"/>
   </g>
   <g id="patch_2">
    <path d="M 23.773493 86.583059 
L 23.773493 9.511949 
" style="fill: none; stroke: #000000; stroke-linejoin: miter; stroke-linecap: square"/>
   </g>
   <g id="patch_3">
    <path d="M 28.470226 91.920148 
L 96.293096 91.920148 
" style="fill: none; stroke: #000000; stroke-linejoin: miter; stroke-linecap: square"/>
   </g>
  </g>
  <g id="axes_2">
   <g id="patch_4">
    <path d="M 133.029968 90.436553 
L 207.635125 90.436553 
L 207.635125 5.659693 
L 133.029968 5.659693 
L 133.029968 90.436553 
z
" style="fill: none"/>
   </g>
   <g id="matplotlib.axis_3">
    <g id="xtick_3">
     <g id="line2d_8">
      <g>
       <use xlink:href="#m04a6518874" x="136.421112" y="91.920148" style="stroke: #000000"/>
      </g>
     </g>
     <g id="text_7">
      <!-- 0 -->
      <g transform="translate(134.194237 103.239054) scale(0.07 -0.07)">
       <use xlink:href="#DejaVuSans-30"/>
      </g>
     </g>
    </g>
    <g id="xtick_4">
     <g id="line2d_9">
      <g>
       <use xlink:href="#m04a6518874" x="204.243981" y="91.920148" style="stroke: #000000"/>
      </g>
     </g>
     <g id="text_8">
      <!-- 5 -->
      <g transform="translate(202.017106 103.239054) scale(0.07 -0.07)">
       <use xlink:href="#DejaVuSans-35"/>
      </g>
     </g>
    </g>
    <g id="text_9">
     <!-- Time (ms) -->
     <g transform="translate(152.693093 104.013742) scale(0.07 -0.07)">
      <use xlink:href="#DejaVuSans-54"/>
      <use xlink:href="#DejaVuSans-69" x="57.958984"/>
      <use xlink:href="#DejaVuSans-6d" x="85.742188"/>
      <use xlink:href="#DejaVuSans-65" x="183.154297"/>
      <use xlink:href="#DejaVuSans-20" x="244.677734"/>
      <use xlink:href="#DejaVuSans-28" x="276.464844"/>
      <use xlink:href="#DejaVuSans-6d" x="315.478516"/>
      <use xlink:href="#DejaVuSans-73" x="412.890625"/>
      <use xlink:href="#DejaVuSans-29" x="464.990234"/>
     </g>
    </g>
   </g>
   <g id="matplotlib.axis_4">
    <g id="ytick_3">
     <g id="line2d_10">
      <g>
       <use xlink:href="#m7a8c13b038" x="131.724378" y="88.654667" style="stroke: #000000"/>
      </g>
     </g>
     <g id="text_10">
      <!-- 0.000 -->
      <g transform="translate(105.68469 91.31412) scale(0.07 -0.07)">
       <defs>
        <path id="DejaVuSans-2e" d="M 684 794 
L 1344 794 
L 1344 0 
L 684 0 
L 684 794 
z
" transform="scale(0.015625)"/>
       </defs>
       <use xlink:href="#DejaVuSans-30"/>
       <use xlink:href="#DejaVuSans-2e" x="63.623047"/>
       <use xlink:href="#DejaVuSans-30" x="95.410156"/>
       <use xlink:href="#DejaVuSans-30" x="159.033203"/>
       <use xlink:href="#DejaVuSans-30" x="222.65625"/>
      </g>
     </g>
    </g>
    <g id="ytick_4">
     <g id="line2d_11">
      <g>
       <use xlink:href="#m7a8c13b038" x="131.724378" y="5.659693" style="stroke: #000000"/>
      </g>
     </g>
     <g id="text_11">
      <!-- 0.945 -->
      <g transform="translate(105.68469 8.319146) scale(0.07 -0.07)">
       <defs>
        <path id="DejaVuSans-39" d="M 703 97 
L 703 672 
Q 941 559 1184 500 
Q 1428 441 1663 441 
Q 2288 441 2617 861 
Q 2947 1281 2994 2138 
Q 2813 1869 2534 1725 
Q 2256 1581 1919 1581 
Q 1219 1581 811 2004 
Q 403 2428 403 3163 
Q 403 3881 828 4315 
Q 1253 4750 1959 4750 
Q 2769 4750 3195 4129 
Q 3622 3509 3622 2328 
Q 3622 1225 3098 567 
Q 2575 -91 1691 -91 
Q 1453 -91 1209 -44 
Q 966 3 703 97 
z
M 1959 2075 
Q 2384 2075 2632 2365 
Q 2881 2656 2881 3163 
Q 2881 3666 2632 3958 
Q 2384 4250 1959 4250 
Q 1534 4250 1286 3958 
Q 1038 3666 1038 3163 
Q 1038 2656 1286 2365 
Q 1534 2075 1959 2075 
z
" transform="scale(0.015625)"/>
        <path id="DejaVuSans-34" d="M 2419 4116 
L 825 1625 
L 2419 1625 
L 2419 4116 
z
M 2253 4666 
L 3047 4666 
L 3047 1625 
L 3713 1625 
L 3713 1100 
L 3047 1100 
L 3047 0 
L 2419 0 
L 2419 1100 
L 313 1100 
L 313 1709 
L 2253 4666 
z
" transform="scale(0.015625)"/>
       </defs>
       <use xlink:href="#DejaVuSans-30"/>
       <use xlink:href="#DejaVuSans-2e" x="63.623047"/>
       <use xlink:href="#DejaVuSans-39" x="95.410156"/>
       <use xlink:href="#DejaVuSans-34" x="159.033203"/>
       <use xlink:href="#DejaVuSans-35" x="222.65625"/>
      </g>
     </g>
    </g>
    <g id="text_12">
     <!-- NMDAR P(open) -->
     <g transform="translate(114.228909 75.835389) rotate(-90) scale(0.07 -0.07)">
      <defs>
       <path id="DejaVuSans-4e" d="M 628 4666 
L 1478 4666 
L 3547 763 
L 3547 4666 
L 4159 4666 
L 4159 0 
L 3309 0 
L 1241 3903 
L 1241 0 
L 628 0 
L 628 4666 
z
" transform="scale(0.015625)"/>
       <path id="DejaVuSans-4d" d="M 628 4666 
L 1569 4666 
L 2759 1491 
L 3956 4666 
L 4897 4666 
L 4897 0 
L 4281 0 
L 4281 4097 
L 3078 897 
L 2444 897 
L 1241 4097 
L 1241 0 
L 628 0 
L 628 4666 
z
" transform="scale(0.015625)"/>
       <path id="DejaVuSans-44" d="M 1259 4147 
L 1259 519 
L 2022 519 
Q 2988 519 3436 956 
Q 3884 1394 3884 2338 
Q 3884 3275 3436 3711 
Q 2988 4147 2022 4147 
L 1259 4147 
z
M 628 4666 
L 1925 4666 
Q 3281 4666 3915 4102 
Q 4550 3538 4550 2338 
Q 4550 1131 3912 565 
Q 3275 0 1925 0 
L 628 0 
L 628 4666 
z
" transform="scale(0.015625)"/>
       <path id="DejaVuSans-52" d="M 2841 2188 
Q 3044 2119 3236 1894 
Q 3428 1669 3622 1275 
L 4263 0 
L 3584 0 
L 2988 1197 
Q 2756 1666 2539 1819 
Q 2322 1972 1947 1972 
L 1259 1972 
L 1259 0 
L 628 0 
L 628 4666 
L 2053 4666 
Q 2853 4666 3247 4331 
Q 3641 3997 3641 3322 
Q 3641 2881 3436 2590 
Q 3231 2300 2841 2188 
z
M 1259 4147 
L 1259 2491 
L 2053 2491 
Q 2509 2491 2742 2702 
Q 2975 2913 2975 3322 
Q 2975 3731 2742 3939 
Q 2509 4147 2053 4147 
L 1259 4147 
z
" transform="scale(0.015625)"/>
       <path id="DejaVuSans-70" d="M 1159 525 
L 1159 -1331 
L 581 -1331 
L 581 3500 
L 1159 3500 
L 1159 2969 
Q 1341 3281 1617 3432 
Q 1894 3584 2278 3584 
Q 2916 3584 3314 3078 
Q 3713 2572 3713 1747 
Q 3713 922 3314 415 
Q 2916 -91 2278 -91 
Q 1894 -91 1617 61 
Q 1341 213 1159 525 
z
M 3116 1747 
Q 3116 2381 2855 2742 
Q 2594 3103 2138 3103 
Q 1681 3103 1420 2742 
Q 1159 2381 1159 1747 
Q 1159 1113 1420 752 
Q 1681 391 2138 391 
Q 2594 391 2855 752 
Q 3116 1113 3116 1747 
z
" transform="scale(0.015625)"/>
       <path id="DejaVuSans-6e" d="M 3513 2113 
L 3513 0 
L 2938 0 
L 2938 2094 
Q 2938 2591 2744 2837 
Q 2550 3084 2163 3084 
Q 1697 3084 1428 2787 
Q 1159 2491 1159 1978 
L 1159 0 
L 581 0 
L 581 3500 
L 1159 3500 
L 1159 2956 
Q 1366 3272 1645 3428 
Q 1925 3584 2291 3584 
Q 2894 3584 3203 3211 
Q 3513 2838 3513 2113 
z
" transform="scale(0.015625)"/>
      </defs>
      <use xlink:href="#DejaVuSans-4e"/>
      <use xlink:href="#DejaVuSans-4d" x="74.804688"/>
      <use xlink:href="#DejaVuSans-44" x="161.083984"/>
      <use xlink:href="#DejaVuSans-41" x="236.335938"/>
      <use xlink:href="#DejaVuSans-52" x="304.744141"/>
      <use xlink:href="#DejaVuSans-20" x="374.226562"/>
      <use xlink:href="#DejaVuSans-50" x="406.013672"/>
      <use xlink:href="#DejaVuSans-28" x="466.316406"/>
      <use xlink:href="#DejaVuSans-6f" x="505.330078"/>
      <use xlink:href="#DejaVuSans-70" x="566.511719"/>
      <use xlink:href="#DejaVuSans-65" x="629.988281"/>
      <use xlink:href="#DejaVuSans-6e" x="691.511719"/>
      <use xlink:href="#DejaVuSans-29" x="754.890625"/>
     </g>
    </g>
   </g>
   <g id="line2d_12">
    <path d="M 136.421112 85.583671 
L 143.352908 85.567047 
L 143.624743 85.118253 
L 144.032496 83.774485 
L 144.576166 81.003405 
L 145.255754 76.101557 
L 146.071259 68.374332 
L 147.430435 52.807793 
L 148.925528 36.142507 
L 149.876951 27.733668 
L 150.692457 22.29799 
L 151.372045 19.000131 
L 152.051633 16.756361 
L 152.595303 15.702823 
L 153.003056 15.368216 
L 153.274891 15.386515 
L 153.546726 15.625102 
L 153.818561 16.118989 
L 154.226314 17.449896 
L 154.634067 19.712932 
L 155.041819 23.276499 
L 155.449572 28.66098 
L 155.993242 39.778794 
L 156.536913 56.222793 
L 157.2165 76.472562 
L 157.624253 81.378988 
L 158.032006 83.643253 
L 158.439759 84.688188 
L 158.847511 85.170415 
L 159.391182 85.436292 
L 160.342605 85.559415 
L 163.604626 85.583621 
L 204.243981 85.583671 
L 204.243981 85.583671 
" clip-path="url(#p1c66c4d87a)" style="fill: none; stroke: #000000; stroke-linecap: square"/>
   </g>
   <g id="line2d_13">
    <path d="M 136.421112 85.583671 
L 143.352908 85.568701 
L 143.624743 85.162395 
L 144.032496 83.95067 
L 144.576166 81.480312 
L 145.255754 77.162333 
L 146.071259 70.401745 
L 147.294518 58.142118 
L 149.197364 39.140304 
L 150.148787 31.670058 
L 150.964292 26.807612 
L 151.64388 23.892707 
L 152.18755 22.322266 
L 152.595303 21.612161 
L 153.003056 21.341411 
L 153.274891 21.434498 
L 153.546726 21.777341 
L 153.954479 22.843729 
L 154.362231 24.734411 
L 154.769984 27.703885 
L 155.177737 32.096405 
L 155.721407 40.882424 
L 156.265077 53.672498 
L 157.2165 78.129866 
L 157.624253 82.143817 
L 158.032006 83.996214 
L 158.439759 84.851076 
L 158.847511 85.245586 
L 159.391182 85.4631 
L 160.342605 85.563827 
L 164.284214 85.58366 
L 204.243981 85.583671 
L 204.243981 85.583671 
" clip-path="url(#p1c66c4d87a)" style="fill: none; stroke: #008080; stroke-linecap: square"/>
   </g>
   <g id="line2d_14">
    <path d="M 136.421112 85.583671 
L 143.488826 85.497986 
L 143.896578 84.990788 
L 144.440249 83.918503 
L 145.255754 81.744087 
L 146.343095 78.061409 
L 148.381858 70.028984 
L 149.741034 65.167479 
L 150.556539 62.944654 
L 151.236127 61.682634 
L 151.779798 61.148979 
L 152.18755 61.068585 
L 152.595303 61.292615 
L 153.003056 61.847693 
L 153.410808 62.758414 
L 153.954479 64.559345 
L 154.634067 67.774161 
L 155.449572 72.889686 
L 157.080583 83.612914 
L 157.488336 84.674187 
L 157.896088 85.163954 
L 158.439759 85.433988 
L 159.391182 85.559036 
L 162.653203 85.58362 
L 204.243981 85.583671 
L 204.243981 85.583671 
" clip-path="url(#p1c66c4d87a)" style="fill: none; stroke: #0000ff; stroke-linecap: square"/>
   </g>
   <g id="patch_5">
    <path d="M 131.724378 88.654667 
L 131.724378 5.659693 
" style="fill: none; stroke: #000000; stroke-linejoin: miter; stroke-linecap: square"/>
   </g>
   <g id="patch_6">
    <path d="M 136.421112 91.920148 
L 204.243981 91.920148 
" style="fill: none; stroke: #000000; stroke-linejoin: miter; stroke-linecap: square"/>
   </g>
  </g>
  <g id="axes_3">
   <g id="patch_7">
    <path d="M 245.434604 90.436553 
L 320.03976 90.436553 
L 320.03976 5.659693 
L 245.434604 5.659693 
L 245.434604 90.436553 
z
" style="fill: none"/>
   </g>
   <g id="matplotlib.axis_5">
    <g id="xtick_5">
     <g id="line2d_15">
      <g>
       <use xlink:href="#m04a6518874" x="248.825747" y="91.920148" style="stroke: #000000"/>
      </g>
     </g>
     <g id="text_13">
      <!-- 0 -->
      <g transform="translate(246.598872 103.239054) scale(0.07 -0.07)">
       <use xlink:href="#DejaVuSans-30"/>
      </g>
     </g>
    </g>
    <g id="xtick_6">
     <g id="line2d_16">
      <g>
       <use xlink:href="#m04a6518874" x="316.648617" y="91.920148" style="stroke: #000000"/>
      </g>
     </g>
     <g id="text_14">
      <!-- 5 -->
      <g transform="translate(314.421742 103.239054) scale(0.07 -0.07)">
       <use xlink:href="#DejaVuSans-35"/>
      </g>
     </g>
    </g>
    <g id="text_15">
     <!-- Time (ms) -->
     <g transform="translate(265.097729 104.013742) scale(0.07 -0.07)">
      <use xlink:href="#DejaVuSans-54"/>
      <use xlink:href="#DejaVuSans-69" x="57.958984"/>
      <use xlink:href="#DejaVuSans-6d" x="85.742188"/>
      <use xlink:href="#DejaVuSans-65" x="183.154297"/>
      <use xlink:href="#DejaVuSans-20" x="244.677734"/>
      <use xlink:href="#DejaVuSans-28" x="276.464844"/>
      <use xlink:href="#DejaVuSans-6d" x="315.478516"/>
      <use xlink:href="#DejaVuSans-73" x="412.890625"/>
      <use xlink:href="#DejaVuSans-29" x="464.990234"/>
     </g>
    </g>
   </g>
   <g id="matplotlib.axis_6">
    <g id="ytick_5">
     <g id="line2d_17">
      <g>
       <use xlink:href="#m7a8c13b038" x="244.129013" y="88.654667" style="stroke: #000000"/>
      </g>
     </g>
     <g id="text_16">
      <!-- 0.000 -->
      <g transform="translate(218.089326 91.31412) scale(0.07 -0.07)">
       <use xlink:href="#DejaVuSans-30"/>
       <use xlink:href="#DejaVuSans-2e" x="63.623047"/>
       <use xlink:href="#DejaVuSans-30" x="95.410156"/>
       <use xlink:href="#DejaVuSans-30" x="159.033203"/>
       <use xlink:href="#DejaVuSans-30" x="222.65625"/>
      </g>
     </g>
    </g>
    <g id="ytick_6">
     <g id="line2d_18">
      <g>
       <use xlink:href="#m7a8c13b038" x="244.129013" y="5.659693" style="stroke: #000000"/>
      </g>
     </g>
     <g id="text_17">
      <!-- 0.945 -->
      <g transform="translate(218.089326 8.319146) scale(0.07 -0.07)">
       <use xlink:href="#DejaVuSans-30"/>
       <use xlink:href="#DejaVuSans-2e" x="63.623047"/>
       <use xlink:href="#DejaVuSans-39" x="95.410156"/>
       <use xlink:href="#DejaVuSans-34" x="159.033203"/>
       <use xlink:href="#DejaVuSans-35" x="222.65625"/>
      </g>
     </g>
    </g>
    <g id="text_18">
     <!-- VGCC P(open) -->
     <g transform="translate(226.633545 72.731326) rotate(-90) scale(0.07 -0.07)">
      <defs>
       <path id="DejaVuSans-47" d="M 3809 666 
L 3809 1919 
L 2778 1919 
L 2778 2438 
L 4434 2438 
L 4434 434 
Q 4069 175 3628 42 
Q 3188 -91 2688 -91 
Q 1594 -91 976 548 
Q 359 1188 359 2328 
Q 359 3472 976 4111 
Q 1594 4750 2688 4750 
Q 3144 4750 3555 4637 
Q 3966 4525 4313 4306 
L 4313 3634 
Q 3963 3931 3569 4081 
Q 3175 4231 2741 4231 
Q 1884 4231 1454 3753 
Q 1025 3275 1025 2328 
Q 1025 1384 1454 906 
Q 1884 428 2741 428 
Q 3075 428 3337 486 
Q 3600 544 3809 666 
z
" transform="scale(0.015625)"/>
       <path id="DejaVuSans-43" d="M 4122 4306 
L 4122 3641 
Q 3803 3938 3442 4084 
Q 3081 4231 2675 4231 
Q 1875 4231 1450 3742 
Q 1025 3253 1025 2328 
Q 1025 1406 1450 917 
Q 1875 428 2675 428 
Q 3081 428 3442 575 
Q 3803 722 4122 1019 
L 4122 359 
Q 3791 134 3420 21 
Q 3050 -91 2638 -91 
Q 1578 -91 968 557 
Q 359 1206 359 2328 
Q 359 3453 968 4101 
Q 1578 4750 2638 4750 
Q 3056 4750 3426 4639 
Q 3797 4528 4122 4306 
z
" transform="scale(0.015625)"/>
      </defs>
      <use xlink:href="#DejaVuSans-56"/>
      <use xlink:href="#DejaVuSans-47" x="68.408203"/>
      <use xlink:href="#DejaVuSans-43" x="145.898438"/>
      <use xlink:href="#DejaVuSans-43" x="215.722656"/>
      <use xlink:href="#DejaVuSans-20" x="285.546875"/>
      <use xlink:href="#DejaVuSans-50" x="317.333984"/>
      <use xlink:href="#DejaVuSans-28" x="377.636719"/>
      <use xlink:href="#DejaVuSans-6f" x="416.650391"/>
      <use xlink:href="#DejaVuSans-70" x="477.832031"/>
      <use xlink:href="#DejaVuSans-65" x="541.308594"/>
      <use xlink:href="#DejaVuSans-6e" x="602.832031"/>
      <use xlink:href="#DejaVuSans-29" x="666.210938"/>
     </g>
    </g>
   </g>
   <g id="line2d_19">
    <path d="M 248.825747 88.654667 
L 258.20406 88.566046 
L 258.611812 88.353397 
L 259.019565 87.903641 
L 259.427318 87.131683 
L 259.970988 85.513069 
L 260.650576 82.536695 
L 261.601999 77.010469 
L 264.048515 62.037085 
L 264.999938 57.822275 
L 265.815444 55.236179 
L 266.495032 53.827131 
L 267.038702 53.201835 
L 267.446455 53.025091 
L 267.854207 53.0649 
L 268.397878 53.390693 
L 268.80563 53.911334 
L 269.213383 54.903016 
L 270.708476 59.738957 
L 272.20357 63.881987 
L 273.698663 67.43139 
L 275.329674 70.72605 
L 276.960685 73.509238 
L 278.591696 75.860357 
L 280.222707 77.846484 
L 281.989635 79.651738 
L 283.892481 81.260139 
L 285.795327 82.58118 
L 287.834091 83.735838 
L 290.14469 84.781406 
L 292.727123 85.689261 
L 295.581393 86.447247 
L 298.843414 87.079319 
L 302.785024 87.606685 
L 307.678057 88.022813 
L 314.066183 88.328251 
L 316.648617 88.404733 
L 316.648617 88.404733 
" clip-path="url(#pb55ed5e1e8)" style="fill: none; stroke: #000000; stroke-linecap: square"/>
   </g>
   <g id="line2d_20">
    <path d="M 248.825747 88.654667 
L 258.475895 88.565602 
L 259.019565 88.280149 
L 259.427318 87.828529 
L 259.970988 86.801132 
L 260.514658 85.23158 
L 261.194246 82.548266 
L 262.281587 77.108276 
L 264.184433 67.371575 
L 265.135856 63.648336 
L 265.815444 61.707123 
L 266.359114 60.635506 
L 266.902784 60.016147 
L 267.310537 59.838785 
L 267.854207 59.900901 
L 268.397878 60.21925 
L 268.80563 60.684066 
L 269.213383 61.511253 
L 270.708476 65.400345 
L 272.339487 69.010312 
L 273.970498 72.059857 
L 275.601509 74.635983 
L 277.23252 76.812185 
L 278.999449 78.790203 
L 280.766377 80.437825 
L 282.669223 81.905783 
L 284.707987 83.188852 
L 286.882668 84.289769 
L 289.329184 85.265561 
L 292.047536 86.096145 
L 295.17364 86.802915 
L 298.843414 87.387702 
L 303.192777 87.846622 
L 308.765397 88.200524 
L 316.512699 88.450798 
L 316.648617 88.453642 
L 316.648617 88.453642 
" clip-path="url(#pb55ed5e1e8)" style="fill: none; stroke: #008080; stroke-linecap: square"/>
   </g>
   <g id="line2d_21">
    <path d="M 248.825747 88.654667 
L 262.281587 88.5552 
L 266.902784 88.232825 
L 271.6599 88.360685 
L 281.581882 88.549248 
L 300.066672 88.639042 
L 316.648617 88.651837 
L 316.648617 88.651837 
" clip-path="url(#pb55ed5e1e8)" style="fill: none; stroke: #0000ff; stroke-linecap: square"/>
   </g>
   <g id="patch_8">
    <path d="M 244.129013 88.654667 
L 244.129013 5.659693 
" style="fill: none; stroke: #000000; stroke-linejoin: miter; stroke-linecap: square"/>
   </g>
   <g id="patch_9">
    <path d="M 248.825747 91.920148 
L 316.648617 91.920148 
" style="fill: none; stroke: #000000; stroke-linejoin: miter; stroke-linecap: square"/>
   </g>
   <g id="text_19">
    <!-- proximal -->
    <g transform="translate(286.279554 10.911055) scale(0.07 -0.07)">
     <defs>
      <path id="DejaVuSans-72" d="M 2631 2963 
Q 2534 3019 2420 3045 
Q 2306 3072 2169 3072 
Q 1681 3072 1420 2755 
Q 1159 2438 1159 1844 
L 1159 0 
L 581 0 
L 581 3500 
L 1159 3500 
L 1159 2956 
Q 1341 3275 1631 3429 
Q 1922 3584 2338 3584 
Q 2397 3584 2469 3576 
Q 2541 3569 2628 3553 
L 2631 2963 
z
" transform="scale(0.015625)"/>
      <path id="DejaVuSans-78" d="M 3513 3500 
L 2247 1797 
L 3578 0 
L 2900 0 
L 1881 1375 
L 863 0 
L 184 0 
L 1544 1831 
L 300 3500 
L 978 3500 
L 1906 2253 
L 2834 3500 
L 3513 3500 
z
" transform="scale(0.015625)"/>
     </defs>
     <use xlink:href="#DejaVuSans-70"/>
     <use xlink:href="#DejaVuSans-72" x="63.476562"/>
     <use xlink:href="#DejaVuSans-6f" x="102.339844"/>
     <use xlink:href="#DejaVuSans-78" x="160.396484"/>
     <use xlink:href="#DejaVuSans-69" x="219.576172"/>
     <use xlink:href="#DejaVuSans-6d" x="247.359375"/>
     <use xlink:href="#DejaVuSans-61" x="344.771484"/>
     <use xlink:href="#DejaVuSans-6c" x="406.050781"/>
    </g>
   </g>
   <g id="text_20">
    <!-- distal-simple -->
    <g style="fill: #008080" transform="translate(272.003929 19.210552) scale(0.07 -0.07)">
     <defs>
      <path id="DejaVuSans-64" d="M 2906 2969 
L 2906 4863 
L 3481 4863 
L 3481 0 
L 2906 0 
L 2906 525 
Q 2725 213 2448 61 
Q 2172 -91 1784 -91 
Q 1150 -91 751 415 
Q 353 922 353 1747 
Q 353 2572 751 3078 
Q 1150 3584 1784 3584 
Q 2172 3584 2448 3432 
Q 2725 3281 2906 2969 
z
M 947 1747 
Q 947 1113 1208 752 
Q 1469 391 1925 391 
Q 2381 391 2643 752 
Q 2906 1113 2906 1747 
Q 2906 2381 2643 2742 
Q 2381 3103 1925 3103 
Q 1469 3103 1208 2742 
Q 947 2381 947 1747 
z
" transform="scale(0.015625)"/>
      <path id="DejaVuSans-2d" d="M 313 2009 
L 1997 2009 
L 1997 1497 
L 313 1497 
L 313 2009 
z
" transform="scale(0.015625)"/>
     </defs>
     <use xlink:href="#DejaVuSans-64"/>
     <use xlink:href="#DejaVuSans-69" x="63.476562"/>
     <use xlink:href="#DejaVuSans-73" x="91.259766"/>
     <use xlink:href="#DejaVuSans-74" x="143.359375"/>
     <use xlink:href="#DejaVuSans-61" x="182.568359"/>
     <use xlink:href="#DejaVuSans-6c" x="243.847656"/>
     <use xlink:href="#DejaVuSans-2d" x="271.630859"/>
     <use xlink:href="#DejaVuSans-73" x="307.714844"/>
     <use xlink:href="#DejaVuSans-69" x="359.814453"/>
     <use xlink:href="#DejaVuSans-6d" x="387.597656"/>
     <use xlink:href="#DejaVuSans-70" x="485.009766"/>
     <use xlink:href="#DejaVuSans-6c" x="548.486328"/>
     <use xlink:href="#DejaVuSans-65" x="576.269531"/>
    </g>
   </g>
   <g id="text_21">
    <!-- distal-complex -->
    <g style="fill: #0000ff" transform="translate(265.442523 27.510049) scale(0.07 -0.07)">
     <defs>
      <path id="DejaVuSans-63" d="M 3122 3366 
L 3122 2828 
Q 2878 2963 2633 3030 
Q 2388 3097 2138 3097 
Q 1578 3097 1268 2742 
Q 959 2388 959 1747 
Q 959 1106 1268 751 
Q 1578 397 2138 397 
Q 2388 397 2633 464 
Q 2878 531 3122 666 
L 3122 134 
Q 2881 22 2623 -34 
Q 2366 -91 2075 -91 
Q 1284 -91 818 406 
Q 353 903 353 1747 
Q 353 2603 823 3093 
Q 1294 3584 2113 3584 
Q 2378 3584 2631 3529 
Q 2884 3475 3122 3366 
z
" transform="scale(0.015625)"/>
     </defs>
     <use xlink:href="#DejaVuSans-64"/>
     <use xlink:href="#DejaVuSans-69" x="63.476562"/>
     <use xlink:href="#DejaVuSans-73" x="91.259766"/>
     <use xlink:href="#DejaVuSans-74" x="143.359375"/>
     <use xlink:href="#DejaVuSans-61" x="182.568359"/>
     <use xlink:href="#DejaVuSans-6c" x="243.847656"/>
     <use xlink:href="#DejaVuSans-2d" x="271.630859"/>
     <use xlink:href="#DejaVuSans-63" x="307.714844"/>
     <use xlink:href="#DejaVuSans-6f" x="362.695312"/>
     <use xlink:href="#DejaVuSans-6d" x="423.876953"/>
     <use xlink:href="#DejaVuSans-70" x="521.289062"/>
     <use xlink:href="#DejaVuSans-6c" x="584.765625"/>
     <use xlink:href="#DejaVuSans-65" x="612.548828"/>
     <use xlink:href="#DejaVuSans-78" x="672.322266"/>
    </g>
   </g>
  </g>
  <g id="axes_4">
   <g id="patch_10">
    <path d="M 25.079083 196.246826 
L 99.684239 196.246826 
L 99.684239 111.469967 
L 25.079083 111.469967 
L 25.079083 196.246826 
z
" style="fill: none"/>
   </g>
   <g id="line2d_22">
    <path d="M 25.079083 180.351165 
L 99.684239 180.351165 
" clip-path="url(#pc46c62bb90)" style="fill: none; stroke-dasharray: 2.59,1.12; stroke-dashoffset: 0; stroke: #000000; stroke-width: 0.7"/>
   </g>
   <g id="matplotlib.axis_7">
    <g id="xtick_7">
     <g id="line2d_23">
      <g>
       <use xlink:href="#m04a6518874" x="28.774365" y="197.730421" style="stroke: #000000"/>
      </g>
     </g>
     <g id="text_22">
      <!-- 0 -->
      <g transform="translate(26.54749 209.049328) scale(0.07 -0.07)">
       <use xlink:href="#DejaVuSans-30"/>
      </g>
     </g>
    </g>
    <g id="xtick_8">
     <g id="line2d_24">
      <g>
       <use xlink:href="#m04a6518874" x="96.293096" y="197.730421" style="stroke: #000000"/>
      </g>
     </g>
     <g id="text_23">
      <!-- 2 -->
      <g transform="translate(94.066221 209.049328) scale(0.07 -0.07)">
       <defs>
        <path id="DejaVuSans-32" d="M 1228 531 
L 3431 531 
L 3431 0 
L 469 0 
L 469 531 
Q 828 903 1448 1529 
Q 2069 2156 2228 2338 
Q 2531 2678 2651 2914 
Q 2772 3150 2772 3378 
Q 2772 3750 2511 3984 
Q 2250 4219 1831 4219 
Q 1534 4219 1204 4116 
Q 875 4013 500 3803 
L 500 4441 
Q 881 4594 1212 4672 
Q 1544 4750 1819 4750 
Q 2544 4750 2975 4387 
Q 3406 4025 3406 3419 
Q 3406 3131 3298 2873 
Q 3191 2616 2906 2266 
Q 2828 2175 2409 1742 
Q 1991 1309 1228 531 
z
" transform="scale(0.015625)"/>
       </defs>
       <use xlink:href="#DejaVuSans-32"/>
      </g>
     </g>
    </g>
    <g id="text_24">
     <!-- [buffer] (mM) -->
     <g transform="translate(38.881348 210.824015) scale(0.07 -0.07)">
      <defs>
       <path id="DejaVuSans-5b" d="M 550 4863 
L 1875 4863 
L 1875 4416 
L 1125 4416 
L 1125 -397 
L 1875 -397 
L 1875 -844 
L 550 -844 
L 550 4863 
z
" transform="scale(0.015625)"/>
       <path id="DejaVuSans-62" d="M 3116 1747 
Q 3116 2381 2855 2742 
Q 2594 3103 2138 3103 
Q 1681 3103 1420 2742 
Q 1159 2381 1159 1747 
Q 1159 1113 1420 752 
Q 1681 391 2138 391 
Q 2594 391 2855 752 
Q 3116 1113 3116 1747 
z
M 1159 2969 
Q 1341 3281 1617 3432 
Q 1894 3584 2278 3584 
Q 2916 3584 3314 3078 
Q 3713 2572 3713 1747 
Q 3713 922 3314 415 
Q 2916 -91 2278 -91 
Q 1894 -91 1617 61 
Q 1341 213 1159 525 
L 1159 0 
L 581 0 
L 581 4863 
L 1159 4863 
L 1159 2969 
z
" transform="scale(0.015625)"/>
       <path id="DejaVuSans-75" d="M 544 1381 
L 544 3500 
L 1119 3500 
L 1119 1403 
Q 1119 906 1312 657 
Q 1506 409 1894 409 
Q 2359 409 2629 706 
Q 2900 1003 2900 1516 
L 2900 3500 
L 3475 3500 
L 3475 0 
L 2900 0 
L 2900 538 
Q 2691 219 2414 64 
Q 2138 -91 1772 -91 
Q 1169 -91 856 284 
Q 544 659 544 1381 
z
M 1991 3584 
L 1991 3584 
z
" transform="scale(0.015625)"/>
       <path id="DejaVuSans-66" d="M 2375 4863 
L 2375 4384 
L 1825 4384 
Q 1516 4384 1395 4259 
Q 1275 4134 1275 3809 
L 1275 3500 
L 2222 3500 
L 2222 3053 
L 1275 3053 
L 1275 0 
L 697 0 
L 697 3053 
L 147 3053 
L 147 3500 
L 697 3500 
L 697 3744 
Q 697 4328 969 4595 
Q 1241 4863 1831 4863 
L 2375 4863 
z
" transform="scale(0.015625)"/>
       <path id="DejaVuSans-5d" d="M 1947 4863 
L 1947 -844 
L 622 -844 
L 622 -397 
L 1369 -397 
L 1369 4416 
L 622 4416 
L 622 4863 
L 1947 4863 
z
" transform="scale(0.015625)"/>
      </defs>
      <use xlink:href="#DejaVuSans-5b"/>
      <use xlink:href="#DejaVuSans-62" x="39.013672"/>
      <use xlink:href="#DejaVuSans-75" x="102.490234"/>
      <use xlink:href="#DejaVuSans-66" x="165.869141"/>
      <use xlink:href="#DejaVuSans-66" x="201.074219"/>
      <use xlink:href="#DejaVuSans-65" x="236.279297"/>
      <use xlink:href="#DejaVuSans-72" x="297.802734"/>
      <use xlink:href="#DejaVuSans-5d" x="338.916016"/>
      <use xlink:href="#DejaVuSans-20" x="377.929688"/>
      <use xlink:href="#DejaVuSans-28" x="409.716797"/>
      <use xlink:href="#DejaVuSans-6d" x="448.730469"/>
      <use xlink:href="#DejaVuSans-4d" x="546.142578"/>
      <use xlink:href="#DejaVuSans-29" x="632.421875"/>
     </g>
    </g>
   </g>
   <g id="matplotlib.axis_8">
    <g id="ytick_7">
     <g id="line2d_25">
      <g>
       <use xlink:href="#m7a8c13b038" x="23.773493" y="180.351165" style="stroke: #000000"/>
      </g>
     </g>
     <g id="text_25">
      <!-- 0 -->
      <g transform="translate(13.319743 183.010618) scale(0.07 -0.07)">
       <use xlink:href="#DejaVuSans-30"/>
      </g>
     </g>
    </g>
    <g id="ytick_8">
     <g id="line2d_26">
      <g>
       <use xlink:href="#m7a8c13b038" x="23.773493" y="127.365628" style="stroke: #000000"/>
      </g>
     </g>
     <g id="text_26">
      <!-- 1 -->
      <g transform="translate(13.319743 130.025081) scale(0.07 -0.07)">
       <defs>
        <path id="DejaVuSans-31" d="M 794 531 
L 1825 531 
L 1825 4091 
L 703 3866 
L 703 4441 
L 1819 4666 
L 2450 4666 
L 2450 531 
L 3481 531 
L 3481 0 
L 794 0 
L 794 531 
z
" transform="scale(0.015625)"/>
       </defs>
       <use xlink:href="#DejaVuSans-31"/>
      </g>
     </g>
    </g>
    <g id="text_27">
     <!-- plasticity -->
     <g transform="translate(12.863961 169.70574) rotate(-90) scale(0.07 -0.07)">
      <defs>
       <path id="DejaVuSans-79" d="M 2059 -325 
Q 1816 -950 1584 -1140 
Q 1353 -1331 966 -1331 
L 506 -1331 
L 506 -850 
L 844 -850 
Q 1081 -850 1212 -737 
Q 1344 -625 1503 -206 
L 1606 56 
L 191 3500 
L 800 3500 
L 1894 763 
L 2988 3500 
L 3597 3500 
L 2059 -325 
z
" transform="scale(0.015625)"/>
      </defs>
      <use xlink:href="#DejaVuSans-70"/>
      <use xlink:href="#DejaVuSans-6c" x="63.476562"/>
      <use xlink:href="#DejaVuSans-61" x="91.259766"/>
      <use xlink:href="#DejaVuSans-73" x="152.539062"/>
      <use xlink:href="#DejaVuSans-74" x="204.638672"/>
      <use xlink:href="#DejaVuSans-69" x="243.847656"/>
      <use xlink:href="#DejaVuSans-63" x="271.630859"/>
      <use xlink:href="#DejaVuSans-69" x="326.611328"/>
      <use xlink:href="#DejaVuSans-74" x="354.394531"/>
      <use xlink:href="#DejaVuSans-79" x="393.603516"/>
     </g>
    </g>
   </g>
   <g id="patch_11">
    <path d="M 23.773493 180.351165 
L 23.773493 127.365628 
" style="fill: none; stroke: #000000; stroke-linejoin: miter; stroke-linecap: square"/>
   </g>
   <g id="patch_12">
    <path d="M 28.774365 197.730421 
L 96.293096 197.730421 
" style="fill: none; stroke: #000000; stroke-linejoin: miter; stroke-linecap: square"/>
   </g>
   <g id="text_28">
    <!-- LTP ($\propto I_{NMDAR}$) -->
    <g transform="translate(49.029984 134.595744) scale(0.07 -0.07)">
     <defs>
      <path id="DejaVuSans-4c" d="M 628 4666 
L 1259 4666 
L 1259 531 
L 3531 531 
L 3531 0 
L 628 0 
L 628 4666 
z
" transform="scale(0.015625)"/>
      <path id="DejaVuSans-221d" d="M 1647 1134 
Q 2163 1134 2472 1884 
Q 2075 2703 1647 2703 
Q 1334 2703 1175 2478 
Q 1006 2238 1006 1919 
Q 1006 1569 1175 1353 
Q 1350 1134 1647 1134 
z
M 3884 1128 
L 3884 716 
L 3644 716 
Q 3416 716 3247 809 
Q 3078 894 2916 1091 
Q 2819 1203 2666 1466 
Q 2456 1091 2272 925 
Q 2044 725 1681 725 
Q 1259 725 981 1041 
Q 688 1372 688 1919 
Q 688 2444 981 2800 
Q 1241 3116 1688 3116 
Q 1916 3116 2084 3022 
Q 2281 2919 2416 2741 
Q 2541 2581 2666 2366 
Q 2875 2741 3059 2906 
Q 3288 3106 3650 3106 
L 3884 3106 
L 3884 2697 
L 3684 2697 
Q 3222 2697 2859 1947 
Q 3256 1128 3684 1128 
L 3884 1128 
z
" transform="scale(0.015625)"/>
      <path id="DejaVuSans-Oblique-49" d="M 1081 4666 
L 1716 4666 
L 806 0 
L 172 0 
L 1081 4666 
z
" transform="scale(0.015625)"/>
      <path id="DejaVuSans-Oblique-4e" d="M 1081 4666 
L 1931 4666 
L 3219 666 
L 4000 4666 
L 4616 4666 
L 3706 0 
L 2853 0 
L 1569 4025 
L 788 0 
L 172 0 
L 1081 4666 
z
" transform="scale(0.015625)"/>
      <path id="DejaVuSans-Oblique-4d" d="M 1081 4666 
L 2028 4666 
L 2572 1522 
L 4378 4666 
L 5350 4666 
L 4441 0 
L 3828 0 
L 4622 4091 
L 2791 897 
L 2175 897 
L 1581 4103 
L 788 0 
L 172 0 
L 1081 4666 
z
" transform="scale(0.015625)"/>
      <path id="DejaVuSans-Oblique-44" d="M 1081 4666 
L 2438 4666 
Q 3519 4666 4070 4208 
Q 4622 3750 4622 2847 
Q 4622 2250 4412 1698 
Q 4203 1147 3834 769 
Q 3463 381 2891 190 
Q 2319 0 1538 0 
L 172 0 
L 1081 4666 
z
M 1613 4147 
L 909 519 
L 1734 519 
Q 2794 519 3375 1128 
Q 3956 1738 3956 2847 
Q 3956 3519 3581 3833 
Q 3206 4147 2406 4147 
L 1613 4147 
z
" transform="scale(0.015625)"/>
      <path id="DejaVuSans-Oblique-41" d="M 2356 4666 
L 3072 4666 
L 3938 0 
L 3278 0 
L 3084 1197 
L 984 1197 
L 325 0 
L -341 0 
L 2356 4666 
z
M 2584 4044 
L 1275 1722 
L 2988 1722 
L 2584 4044 
z
" transform="scale(0.015625)"/>
      <path id="DejaVuSans-Oblique-52" d="M 1613 4147 
L 1294 2491 
L 2106 2491 
Q 2584 2491 2879 2755 
Q 3175 3019 3175 3444 
Q 3175 3784 2976 3965 
Q 2778 4147 2406 4147 
L 1613 4147 
z
M 2772 2241 
Q 2972 2194 3105 2009 
Q 3238 1825 3413 1275 
L 3809 0 
L 3144 0 
L 2778 1197 
Q 2638 1659 2453 1815 
Q 2269 1972 1888 1972 
L 1191 1972 
L 806 0 
L 172 0 
L 1081 4666 
L 2503 4666 
Q 3150 4666 3495 4373 
Q 3841 4081 3841 3531 
Q 3841 3044 3547 2687 
Q 3253 2331 2772 2241 
z
" transform="scale(0.015625)"/>
     </defs>
     <use xlink:href="#DejaVuSans-4c" transform="translate(0 0.125)"/>
     <use xlink:href="#DejaVuSans-54" transform="translate(55.712891 0.125)"/>
     <use xlink:href="#DejaVuSans-50" transform="translate(116.796875 0.125)"/>
     <use xlink:href="#DejaVuSans-20" transform="translate(177.099609 0.125)"/>
     <use xlink:href="#DejaVuSans-28" transform="translate(208.886719 0.125)"/>
     <use xlink:href="#DejaVuSans-221d" transform="translate(267.382812 0.125)"/>
     <use xlink:href="#DejaVuSans-Oblique-49" transform="translate(358.300781 0.125)"/>
     <use xlink:href="#DejaVuSans-Oblique-4e" transform="translate(387.792969 -16.28125) scale(0.7)"/>
     <use xlink:href="#DejaVuSans-Oblique-4d" transform="translate(440.15625 -16.28125) scale(0.7)"/>
     <use xlink:href="#DejaVuSans-Oblique-44" transform="translate(500.551758 -16.28125) scale(0.7)"/>
     <use xlink:href="#DejaVuSans-Oblique-41" transform="translate(554.453125 -16.28125) scale(0.7)"/>
     <use xlink:href="#DejaVuSans-Oblique-52" transform="translate(602.338867 -16.28125) scale(0.7)"/>
     <use xlink:href="#DejaVuSans-29" transform="translate(653.710938 0.125)"/>
    </g>
   </g>
   <g id="text_29">
    <!-- LTD ($\propto I_{VGCC}$) -->
    <g style="fill: #9370db" transform="translate(49.029984 142.543575) scale(0.07 -0.07)">
     <defs>
      <path id="DejaVuSans-Oblique-56" d="M 1319 0 
L 500 4666 
L 1119 4666 
L 1797 653 
L 4063 4666 
L 4750 4666 
L 2053 0 
L 1319 0 
z
" transform="scale(0.015625)"/>
      <path id="DejaVuSans-Oblique-47" d="M 3494 697 
L 3738 1919 
L 2700 1919 
L 2797 2438 
L 4453 2438 
L 4050 384 
Q 3634 156 3143 32 
Q 2653 -91 2156 -91 
Q 1278 -91 783 396 
Q 288 884 288 1753 
Q 288 2475 589 3126 
Q 891 3778 1422 4213 
Q 1756 4484 2153 4617 
Q 2550 4750 3034 4750 
Q 3472 4750 3873 4639 
Q 4275 4528 4641 4306 
L 4513 3634 
Q 4231 3928 3853 4083 
Q 3475 4238 3047 4238 
Q 2550 4238 2172 4048 
Q 1794 3859 1497 3463 
Q 1244 3125 1098 2667 
Q 953 2209 953 1734 
Q 953 1081 1287 751 
Q 1622 422 2284 422 
Q 2616 422 2925 492 
Q 3234 563 3494 697 
z
" transform="scale(0.015625)"/>
      <path id="DejaVuSans-Oblique-43" d="M 4447 4306 
L 4319 3641 
Q 4019 3944 3683 4091 
Q 3347 4238 2956 4238 
Q 2422 4238 2017 3981 
Q 1613 3725 1319 3200 
Q 1131 2863 1032 2486 
Q 934 2109 934 1728 
Q 934 1091 1264 756 
Q 1594 422 2222 422 
Q 2656 422 3056 561 
Q 3456 700 3834 978 
L 3688 231 
Q 3316 72 2936 -9 
Q 2556 -91 2175 -91 
Q 1278 -91 773 396 
Q 269 884 269 1753 
Q 269 2309 461 2846 
Q 653 3384 1013 3828 
Q 1394 4300 1883 4525 
Q 2372 4750 3022 4750 
Q 3422 4750 3780 4639 
Q 4138 4528 4447 4306 
z
" transform="scale(0.015625)"/>
     </defs>
     <use xlink:href="#DejaVuSans-4c" transform="translate(0 0.125)"/>
     <use xlink:href="#DejaVuSans-54" transform="translate(55.712891 0.125)"/>
     <use xlink:href="#DejaVuSans-44" transform="translate(116.796875 0.125)"/>
     <use xlink:href="#DejaVuSans-20" transform="translate(193.798828 0.125)"/>
     <use xlink:href="#DejaVuSans-28" transform="translate(225.585938 0.125)"/>
     <use xlink:href="#DejaVuSans-221d" transform="translate(284.082031 0.125)"/>
     <use xlink:href="#DejaVuSans-Oblique-49" transform="translate(375 0.125)"/>
     <use xlink:href="#DejaVuSans-Oblique-56" transform="translate(404.492188 -16.28125) scale(0.7)"/>
     <use xlink:href="#DejaVuSans-Oblique-47" transform="translate(452.37793 -16.28125) scale(0.7)"/>
     <use xlink:href="#DejaVuSans-Oblique-43" transform="translate(506.621094 -16.28125) scale(0.7)"/>
     <use xlink:href="#DejaVuSans-Oblique-43" transform="translate(555.498047 -16.28125) scale(0.7)"/>
     <use xlink:href="#DejaVuSans-29" transform="translate(607.109375 0.125)"/>
    </g>
   </g>
   <g id="line2d_27">
    <path d="M 28.774365 126.961376 
L 29.449552 127.512371 
L 30.124739 128.082985 
L 30.799927 128.673421 
L 31.475114 129.283838 
L 32.150301 129.914347 
L 32.825489 130.565006 
L 33.500676 131.235817 
L 34.175863 131.926724 
L 34.85105 132.637606 
L 35.526238 133.368278 
L 36.201425 134.118484 
L 36.876612 134.8879 
L 37.5518 135.676124 
L 38.226987 136.482682 
L 38.902174 137.307024 
L 39.577362 138.148522 
L 40.252549 139.006473 
L 40.927736 139.880095 
L 41.602924 140.768535 
L 42.278111 141.670865 
L 42.953298 142.586089 
L 43.628485 143.513144 
L 44.303673 144.450905 
L 44.97886 145.398191 
L 45.654047 146.353766 
L 46.329235 147.316353 
L 47.004422 148.284632 
L 47.679609 149.257253 
L 48.354797 150.23284 
L 49.029984 151.210003 
L 49.705171 152.187338 
L 50.380359 153.163445 
L 51.055546 154.136928 
L 51.730733 155.106406 
L 52.405921 156.070524 
L 53.081108 157.027953 
L 53.756295 157.977403 
L 54.431482 158.91763 
L 55.10667 159.847438 
L 55.781857 160.765687 
L 56.457044 161.671299 
L 57.132232 162.563261 
L 57.807419 163.440627 
L 58.482606 164.302526 
L 59.157794 165.148158 
L 59.832981 165.976801 
L 60.508168 166.787809 
L 61.183356 167.580611 
L 61.858543 168.354714 
L 62.53373 169.109701 
L 63.208917 169.845226 
L 63.884105 170.561019 
L 64.559292 171.256876 
L 65.234479 171.932661 
L 65.909667 172.588302 
L 66.584854 173.223787 
L 67.260041 173.839161 
L 67.935229 174.434522 
L 68.610416 175.010018 
L 69.285603 175.56584 
L 69.960791 176.102223 
L 70.635978 176.619439 
L 71.311165 177.117795 
L 71.986353 177.597626 
L 72.66154 178.059296 
L 73.336727 178.503191 
L 74.011914 178.929716 
L 74.687102 179.339296 
L 75.362289 179.732365 
L 76.037476 180.109373 
L 76.712664 180.470775 
L 77.387851 180.817033 
L 78.063038 181.148613 
L 78.738226 181.465982 
L 79.413413 181.769609 
L 80.0886 182.059957 
L 80.763788 182.337491 
L 81.438975 182.602666 
L 82.114162 182.855936 
L 82.789349 183.097743 
L 83.464537 183.328526 
L 84.139724 183.548711 
L 84.814911 183.758718 
L 85.490099 183.958955 
L 86.165286 184.149821 
L 86.840473 184.331703 
L 87.515661 184.504977 
L 88.190848 184.67001 
L 88.866035 184.827155 
L 89.541223 184.976753 
L 90.21641 185.119138 
L 90.891597 185.254627 
L 91.566785 185.383529 
L 92.241972 185.506142 
L 92.917159 185.622751 
L 93.592346 185.733631 
L 94.267534 185.839046 
L 94.942721 185.93925 
L 95.617908 186.034487 
L 96.293096 186.12499 
" clip-path="url(#pc46c62bb90)" style="fill: none; stroke: #000000; stroke-linecap: square"/>
   </g>
   <g id="line2d_28">
    <path d="M 28.774365 126.173288 
L 29.449552 126.239841 
L 30.124739 126.329974 
L 30.799927 126.451927 
L 31.475114 126.616716 
L 32.150301 126.838997 
L 32.825489 127.138117 
L 33.500676 127.539355 
L 34.175863 128.075279 
L 34.85105 128.787023 
L 35.526238 129.725133 
L 36.201425 130.949337 
L 36.876612 132.526257 
L 37.5518 134.523863 
L 38.226987 137.001508 
L 38.902174 139.995301 
L 39.577362 143.500646 
L 40.252549 147.456796 
L 40.927736 151.74066 
L 41.602924 156.176374 
L 42.278111 160.561506 
L 42.953298 164.702624 
L 43.628485 168.447616 
L 44.303673 171.704082 
L 44.97886 174.440543 
L 45.654047 176.674718 
L 46.329235 178.456278 
L 47.004422 179.850382 
L 47.679609 180.925285 
L 48.354797 181.744662 
L 49.029984 182.363838 
L 49.705171 182.828652 
L 50.380359 183.175864 
L 51.055546 183.434269 
L 51.730733 183.626053 
L 52.405921 183.768099 
L 53.081108 183.873149 
L 53.756295 183.95075 
L 54.431482 184.008027 
L 55.10667 184.050278 
L 55.781857 184.08143 
L 56.457044 184.104391 
L 57.132232 184.12131 
L 57.807419 184.133776 
L 58.482606 184.142959 
L 59.157794 184.149723 
L 59.832981 184.154705 
L 60.508168 184.158374 
L 61.183356 184.161077 
L 61.858543 184.163067 
L 62.53373 184.164532 
L 63.208917 184.165611 
L 63.884105 184.166406 
L 64.559292 184.166991 
L 65.234479 184.167422 
L 65.909667 184.16774 
L 66.584854 184.167974 
L 67.260041 184.168146 
L 67.935229 184.168272 
L 68.610416 184.168366 
L 69.285603 184.168434 
L 69.960791 184.168485 
L 70.635978 184.168522 
L 71.311165 184.16855 
L 71.986353 184.16857 
L 72.66154 184.168585 
L 73.336727 184.168596 
L 74.011914 184.168604 
L 74.687102 184.16861 
L 75.362289 184.168614 
L 76.037476 184.168617 
L 76.712664 184.16862 
L 77.387851 184.168621 
L 78.063038 184.168623 
L 78.738226 184.168624 
L 79.413413 184.168624 
L 80.0886 184.168625 
L 80.763788 184.168625 
L 81.438975 184.168626 
L 82.114162 184.168626 
L 82.789349 184.168626 
L 83.464537 184.168626 
L 84.139724 184.168626 
L 84.814911 184.168626 
L 85.490099 184.168626 
L 86.165286 184.168626 
L 86.840473 184.168626 
L 87.515661 184.168626 
L 88.190848 184.168626 
L 88.866035 184.168626 
L 89.541223 184.168626 
L 90.21641 184.168626 
L 90.891597 184.168626 
L 91.566785 184.168626 
L 92.241972 184.168626 
L 92.917159 184.168626 
L 93.592346 184.168626 
L 94.267534 184.168626 
L 94.942721 184.168626 
L 95.617908 184.168626 
L 96.293096 184.168626 
" clip-path="url(#pc46c62bb90)" style="fill: none; stroke: #9370db; stroke-linecap: square"/>
   </g>
   <g id="line2d_29">
    <defs>
     <path id="m0b42826f7b" d="M 0 1.5 
C 0.397805 1.5 0.77937 1.341951 1.06066 1.06066 
C 1.341951 0.77937 1.5 0.397805 1.5 0 
C 1.5 -0.397805 1.341951 -0.77937 1.06066 -1.06066 
C 0.77937 -1.341951 0.397805 -1.5 0 -1.5 
C -0.397805 -1.5 -0.77937 -1.341951 -1.06066 -1.06066 
C -1.341951 -0.77937 -1.5 -0.397805 -1.5 0 
C -1.5 0.397805 -1.341951 0.77937 -1.06066 1.06066 
C -0.77937 1.341951 -0.397805 1.5 0 1.5 
z
" style="stroke: #000000; stroke-opacity: 0"/>
    </defs>
    <g clip-path="url(#pc46c62bb90)">
     <use xlink:href="#m0b42826f7b" x="29.077139" y="127.206033" style="stroke: #000000; stroke-opacity: 0"/>
     <use xlink:href="#m0b42826f7b" x="45.656783" y="146.357432" style="stroke: #000000; stroke-opacity: 0"/>
     <use xlink:href="#m0b42826f7b" x="62.53373" y="166.945186" style="stroke: #000000; stroke-opacity: 0"/>
     <use xlink:href="#m0b42826f7b" x="96.055983" y="189.44808" style="stroke: #000000; stroke-opacity: 0"/>
     <use xlink:href="#m0b42826f7b" x="29.077139" y="127.206033" style="stroke: #000000; stroke-opacity: 0"/>
     <use xlink:href="#m0b42826f7b" x="45.656783" y="146.357432" style="stroke: #000000; stroke-opacity: 0"/>
     <use xlink:href="#m0b42826f7b" x="62.517315" y="171.254251" style="stroke: #000000; stroke-opacity: 0"/>
     <use xlink:href="#m0b42826f7b" x="96.081518" y="182.74509" style="stroke: #000000; stroke-opacity: 0"/>
    </g>
   </g>
   <g id="line2d_30">
    <defs>
     <path id="m1690714d12" d="M 0 1.5 
C 0.397805 1.5 0.77937 1.341951 1.06066 1.06066 
C 1.341951 0.77937 1.5 0.397805 1.5 0 
C 1.5 -0.397805 1.341951 -0.77937 1.06066 -1.06066 
C 0.77937 -1.341951 0.397805 -1.5 0 -1.5 
C -0.397805 -1.5 -0.77937 -1.341951 -1.06066 -1.06066 
C -1.341951 -0.77937 -1.5 -0.397805 -1.5 0 
C -1.5 0.397805 -1.341951 0.77937 -1.06066 1.06066 
C -0.77937 1.341951 -0.397805 1.5 0 1.5 
z
" style="stroke: #000000; stroke-opacity: 0"/>
    </defs>
    <g clip-path="url(#pc46c62bb90)">
     <use xlink:href="#m1690714d12" x="28.470226" y="126.766244" style="fill: #9370db; stroke: #000000; stroke-opacity: 0"/>
     <use xlink:href="#m1690714d12" x="32.119887" y="120.532651" style="fill: #9370db; stroke: #000000; stroke-opacity: 0"/>
     <use xlink:href="#m1690714d12" x="36.986102" y="131.081808" style="fill: #9370db; stroke: #000000; stroke-opacity: 0"/>
     <use xlink:href="#m1690714d12" x="45.501978" y="177.593999" style="fill: #9370db; stroke: #000000; stroke-opacity: 0"/>
     <use xlink:href="#m1690714d12" x="62.53373" y="185.74562" style="fill: #9370db; stroke: #000000; stroke-opacity: 0"/>
     <use xlink:href="#m1690714d12" x="96.293096" y="182.38907" style="fill: #9370db; stroke: #000000; stroke-opacity: 0"/>
     <use xlink:href="#m1690714d12" x="28.470226" y="127.245751" style="fill: #9370db; stroke: #000000; stroke-opacity: 0"/>
     <use xlink:href="#m1690714d12" x="32.119887" y="131.081808" style="fill: #9370db; stroke: #000000; stroke-opacity: 0"/>
     <use xlink:href="#m1690714d12" x="36.986102" y="134.917865" style="fill: #9370db; stroke: #000000; stroke-opacity: 0"/>
     <use xlink:href="#m1690714d12" x="45.501978" y="174.716956" style="fill: #9370db; stroke: #000000; stroke-opacity: 0"/>
     <use xlink:href="#m1690714d12" x="62.53373" y="191.020199" style="fill: #9370db; stroke: #000000; stroke-opacity: 0"/>
     <use xlink:href="#m1690714d12" x="96.293096" y="177.593999" style="fill: #9370db; stroke: #000000; stroke-opacity: 0"/>
    </g>
   </g>
  </g>
  <g id="axes_5">
   <g id="patch_13">
    <path d="M 133.029968 196.246826 
L 207.635125 196.246826 
L 207.635125 111.469967 
L 133.029968 111.469967 
L 133.029968 196.246826 
z
" style="fill: none"/>
   </g>
   <g id="matplotlib.axis_9">
    <g id="xtick_9">
     <g id="line2d_31">
      <g>
       <use xlink:href="#m04a6518874" x="136.273671" y="197.730421" style="stroke: #000000"/>
      </g>
     </g>
     <g id="text_30">
      <!-- −70 -->
      <g transform="translate(128.88703 209.049328) scale(0.07 -0.07)">
       <use xlink:href="#DejaVuSans-2212"/>
       <use xlink:href="#DejaVuSans-37" x="83.789062"/>
       <use xlink:href="#DejaVuSans-30" x="147.412109"/>
      </g>
     </g>
    </g>
    <g id="xtick_10">
     <g id="line2d_32">
      <g>
       <use xlink:href="#m04a6518874" x="207.635125" y="197.730421" style="stroke: #000000"/>
      </g>
     </g>
     <g id="text_31">
      <!-- 40 -->
      <g transform="translate(203.181375 209.049328) scale(0.07 -0.07)">
       <use xlink:href="#DejaVuSans-34"/>
       <use xlink:href="#DejaVuSans-30" x="63.623047"/>
      </g>
     </g>
    </g>
   </g>
   <g id="matplotlib.axis_10">
    <g id="ytick_9">
     <g id="line2d_33">
      <g>
       <use xlink:href="#m7a8c13b038" x="131.781143" y="189.182088" style="stroke: #000000"/>
      </g>
     </g>
     <g id="text_32">
      <!-- 0 -->
      <g transform="translate(121.327393 191.841541) scale(0.07 -0.07)">
       <use xlink:href="#DejaVuSans-30"/>
      </g>
     </g>
    </g>
    <g id="ytick_10">
     <g id="line2d_34">
      <g>
       <use xlink:href="#m7a8c13b038" x="131.781143" y="118.534705" style="stroke: #000000"/>
      </g>
     </g>
     <g id="text_33">
      <!-- 1 -->
      <g transform="translate(121.327393 121.194158) scale(0.07 -0.07)">
       <use xlink:href="#DejaVuSans-31"/>
      </g>
     </g>
    </g>
   </g>
   <g id="line2d_35">
    <path d="M 136.273671 189.182088 
L 145.703984 189.182088 
L 145.866575 188.982092 
L 147.004716 182.69215 
L 151.557281 156.101871 
L 153.020606 149.610471 
L 154.158747 145.393329 
L 155.947254 140.064727 
L 157.085396 137.305912 
L 158.386128 134.635703 
L 159.849453 132.236004 
L 161.963144 129.509158 
L 162.776102 128.616358 
L 164.727201 126.885392 
L 166.027934 125.999166 
L 166.6783 125.56401 
L 168.629399 124.522844 
L 169.279766 124.244476 
L 169.930132 123.968513 
L 171.556048 123.423815 
L 172.043823 123.244394 
L 174.80788 122.581136 
L 175.458247 122.493844 
L 176.433796 122.320066 
L 177.246754 122.23358 
L 177.897121 122.147364 
L 179.360445 122.061415 
L 179.84822 122.018542 
L 186.189292 122.104356 
L 186.839659 122.190438 
L 187.9778 122.27679 
L 188.790758 122.406821 
L 189.603716 122.493844 
L 190.416674 122.624883 
L 191.06704 122.712578 
L 192.205182 122.932993 
L 192.692956 123.021629 
L 194.318872 123.378859 
L 194.806647 123.468838 
L 200.497353 125.134198 
L 200.985128 125.324564 
L 201.14772 125.372321 
L 201.14772 125.372321 
" clip-path="url(#p655df3c66e)" style="fill: none; stroke: #000000; stroke-width: 0.7; stroke-linecap: square"/>
   </g>
   <g id="line2d_36">
    <path d="M 136.273671 189.182088 
L 179.84822 189.182088 
L 180.010811 189.059867 
L 180.498586 185.052422 
L 181.148953 177.04537 
L 181.961911 163.650592 
L 183.587827 139.061428 
L 184.400785 131.382546 
L 185.213743 126.539501 
L 185.864109 123.89019 
L 186.677067 121.752557 
L 187.327434 120.596465 
L 187.815208 119.922187 
L 188.628166 119.098034 
L 190.254082 118.163777 
L 191.554815 117.749961 
L 192.855548 117.486785 
L 195.782197 117.167975 
L 198.871437 117.008885 
L 201.14772 116.944918 
L 201.14772 116.944918 
" clip-path="url(#p655df3c66e)" style="fill: none; stroke: #9370db; stroke-width: 0.7; stroke-linecap: square"/>
   </g>
   <g id="patch_14">
    <path d="M 131.781143 189.182088 
L 131.781143 118.534705 
" style="fill: none; stroke: #000000; stroke-linejoin: miter; stroke-linecap: square"/>
   </g>
   <g id="patch_15">
    <path d="M 136.273671 197.730421 
L 207.635125 197.730421 
" style="fill: none; stroke: #000000; stroke-linejoin: miter; stroke-linecap: square"/>
   </g>
  </g>
  <g id="axes_6">
   <g id="patch_16">
    <path d="M 245.434604 196.246826 
L 320.03976 196.246826 
L 320.03976 111.469967 
L 245.434604 111.469967 
L 245.434604 196.246826 
z
" style="fill: none"/>
   </g>
   <g id="matplotlib.axis_11">
    <g id="xtick_11">
     <g id="line2d_37">
      <g>
       <use xlink:href="#m04a6518874" x="256.092483" y="197.730421" style="stroke: #000000"/>
      </g>
     </g>
     <g id="text_34">
      <!-- LTP -->
      <g transform="translate(250.375452 209.049328) scale(0.07 -0.07)">
       <use xlink:href="#DejaVuSans-4c"/>
       <use xlink:href="#DejaVuSans-54" x="41.962891"/>
       <use xlink:href="#DejaVuSans-50" x="103.046875"/>
      </g>
     </g>
    </g>
    <g id="xtick_12">
     <g id="line2d_38">
      <g>
       <use xlink:href="#m04a6518874" x="309.381881" y="197.730421" style="stroke: #000000"/>
      </g>
     </g>
     <g id="text_35">
      <!-- LTD -->
      <g transform="translate(303.08024 209.049328) scale(0.07 -0.07)">
       <use xlink:href="#DejaVuSans-4c"/>
       <use xlink:href="#DejaVuSans-54" x="41.962891"/>
       <use xlink:href="#DejaVuSans-44" x="103.046875"/>
      </g>
     </g>
    </g>
   </g>
   <g id="matplotlib.axis_12">
    <g id="ytick_11">
     <g id="line2d_39">
      <g>
       <use xlink:href="#m7a8c13b038" x="244.129013" y="189.182088" style="stroke: #000000"/>
      </g>
     </g>
     <g id="text_36">
      <!-- 0 -->
      <g transform="translate(233.675263 191.841541) scale(0.07 -0.07)">
       <use xlink:href="#DejaVuSans-30"/>
      </g>
     </g>
    </g>
    <g id="ytick_12">
     <g id="line2d_40">
      <g>
       <use xlink:href="#m7a8c13b038" x="244.129013" y="118.534705" style="stroke: #000000"/>
      </g>
     </g>
     <g id="text_37">
      <!-- 1 -->
      <g transform="translate(233.675263 121.194158) scale(0.07 -0.07)">
       <use xlink:href="#DejaVuSans-31"/>
      </g>
     </g>
    </g>
   </g>
   <g id="line2d_41">
    <path d="M 256.092483 125.372321 
L 309.381881 118.534705 
" clip-path="url(#p60fa7032f4)" style="fill: none; stroke: #000000; stroke-width: 0.7; stroke-linecap: square"/>
    <defs>
     <path id="m107399f602" d="M 0 1.5 
C 0.397805 1.5 0.77937 1.341951 1.06066 1.06066 
C 1.341951 0.77937 1.5 0.397805 1.5 0 
C 1.5 -0.397805 1.341951 -0.77937 1.06066 -1.06066 
C 0.77937 -1.341951 0.397805 -1.5 0 -1.5 
C -0.397805 -1.5 -0.77937 -1.341951 -1.06066 -1.06066 
C -1.341951 -0.77937 -1.5 -0.397805 -1.5 0 
C -1.5 0.397805 -1.341951 0.77937 -1.06066 1.06066 
C -0.77937 1.341951 -0.397805 1.5 0 1.5 
z
" style="stroke: #000000"/>
    </defs>
    <g clip-path="url(#p60fa7032f4)">
     <use xlink:href="#m107399f602" x="256.092483" y="125.372321" style="stroke: #000000"/>
     <use xlink:href="#m107399f602" x="309.381881" y="118.534705" style="stroke: #000000"/>
    </g>
   </g>
   <g id="line2d_42">
    <path d="M 256.092483 123.423815 
L 309.381881 118.534705 
" clip-path="url(#p60fa7032f4)" style="fill: none; stroke: #008080; stroke-width: 0.7; stroke-linecap: square"/>
    <defs>
     <path id="m7fb06bb26d" d="M 0 1.5 
C 0.397805 1.5 0.77937 1.341951 1.06066 1.06066 
C 1.341951 0.77937 1.5 0.397805 1.5 0 
C 1.5 -0.397805 1.341951 -0.77937 1.06066 -1.06066 
C 0.77937 -1.341951 0.397805 -1.5 0 -1.5 
C -0.397805 -1.5 -0.77937 -1.341951 -1.06066 -1.06066 
C -1.341951 -0.77937 -1.5 -0.397805 -1.5 0 
C -1.5 0.397805 -1.341951 0.77937 -1.06066 1.06066 
C -0.77937 1.341951 -0.397805 1.5 0 1.5 
z
" style="stroke: #008080"/>
    </defs>
    <g clip-path="url(#p60fa7032f4)">
     <use xlink:href="#m7fb06bb26d" x="256.092483" y="123.423815" style="fill: #008080; stroke: #008080"/>
     <use xlink:href="#m7fb06bb26d" x="309.381881" y="118.534705" style="fill: #008080; stroke: #008080"/>
    </g>
   </g>
   <g id="line2d_43">
    <path d="M 256.092483 126.292225 
L 309.381881 189.182088 
" clip-path="url(#p60fa7032f4)" style="fill: none; stroke: #0000ff; stroke-width: 0.7; stroke-linecap: square"/>
    <defs>
     <path id="m459fe23619" d="M 0 1.5 
C 0.397805 1.5 0.77937 1.341951 1.06066 1.06066 
C 1.341951 0.77937 1.5 0.397805 1.5 0 
C 1.5 -0.397805 1.341951 -0.77937 1.06066 -1.06066 
C 0.77937 -1.341951 0.397805 -1.5 0 -1.5 
C -0.397805 -1.5 -0.77937 -1.341951 -1.06066 -1.06066 
C -1.341951 -0.77937 -1.5 -0.397805 -1.5 0 
C -1.5 0.397805 -1.341951 0.77937 -1.06066 1.06066 
C -0.77937 1.341951 -0.397805 1.5 0 1.5 
z
" style="stroke: #0000ff"/>
    </defs>
    <g clip-path="url(#p60fa7032f4)">
     <use xlink:href="#m459fe23619" x="256.092483" y="126.292225" style="fill: #0000ff; stroke: #0000ff"/>
     <use xlink:href="#m459fe23619" x="309.381881" y="189.182088" style="fill: #0000ff; stroke: #0000ff"/>
    </g>
   </g>
   <g id="patch_17">
    <path d="M 244.129013 189.182088 
L 244.129013 118.534705 
" style="fill: none; stroke: #000000; stroke-linejoin: miter; stroke-linecap: square"/>
   </g>
   <g id="patch_18">
    <path d="M 256.092483 197.730421 
L 309.381881 197.730421 
" style="fill: none; stroke: #000000; stroke-linejoin: miter; stroke-linecap: square"/>
   </g>
  </g>
 </g>
 <defs>
  <clipPath id="p34aff39891">
   <rect x="25.079083" y="5.659693" width="74.605156" height="84.77686"/>
  </clipPath>
  <clipPath id="p1c66c4d87a">
   <rect x="133.029968" y="5.659693" width="74.605156" height="84.77686"/>
  </clipPath>
  <clipPath id="pb55ed5e1e8">
   <rect x="245.434604" y="5.659693" width="74.605156" height="84.77686"/>
  </clipPath>
  <clipPath id="pc46c62bb90">
   <rect x="25.079083" y="111.469967" width="74.605156" height="84.77686"/>
  </clipPath>
  <clipPath id="p655df3c66e">
   <rect x="133.029968" y="111.469967" width="74.605156" height="84.77686"/>
  </clipPath>
  <clipPath id="p60fa7032f4">
   <rect x="245.434604" y="111.469967" width="74.605156" height="84.77686"/>
  </clipPath>
 </defs>
</svg>
