<?xml version="1.0" encoding="utf-8" standalone="no"?>
<!DOCTYPE svg PUBLIC "-//W3C//DTD SVG 1.1//EN"
  "http://www.w3.org/Graphics/SVG/1.1/DTD/svg11.dtd">
<svg xmlns:xlink="http://www.w3.org/1999/xlink" width="345.6pt" height="98.64pt" viewBox="0 0 345.6 98.64" xmlns="http://www.w3.org/2000/svg" version="1.1">
 <metadata>
  <rdf:RDF xmlns:dc="http://purl.org/dc/elements/1.1/" xmlns:cc="http://creativecommons.org/ns#" xmlns:rdf="http://www.w3.org/1999/02/22-rdf-syntax-ns#">
   <cc:Work>
    <dc:type rdf:resource="http://purl.org/dc/dcmitype/StillImage"/>
    <dc:date>2025-03-26T23:23:23.996839</dc:date>
    <dc:format>image/svg+xml</dc:format>
    <dc:creator>
     <cc:Agent>
      <dc:title>Matplotlib v3.9.2, https://matplotlib.org/</dc:title>
     </cc:Agent>
    </dc:creator>
   </cc:Work>
  </rdf:RDF>
 </metadata>
 <defs>
  <style type="text/css">*{stroke-linejoin: round; stroke-linecap: butt}</style>
 </defs>
 <g id="figure_1">
  <g id="axes_1">
   <g id="patch_1">
    <path d="M 26.014188 79.79309 
L 78.55067 79.79309 
L 78.55067 5.659693 
L 26.014188 5.659693 
L 26.014188 79.79309 
z
" style="fill: none"/>
   </g>
   <g id="line2d_1">
    <path d="M 26.014188 42.726392 
L 78.55067 42.726392 
" clip-path="url(#pbcaf6660c4)" style="fill: none; stroke-dasharray: 2.59,1.12; stroke-dashoffset: 0; stroke: #000000; stroke-width: 0.7"/>
   </g>
   <g id="matplotlib.axis_1">
    <g id="xtick_1">
     <g id="line2d_2">
      <defs>
       <path id="mc4919b4129" d="M 0 0 
L 0 2.5 
" style="stroke: #000000"/>
      </defs>
      <g>
       <use xlink:href="#mc4919b4129" x="28.616382" y="81.090424" style="stroke: #000000"/>
      </g>
     </g>
     <g id="text_1">
      <!-- 0 -->
      <g transform="translate(26.389507 92.409331) scale(0.07 -0.07)">
       <defs>
        <path id="DejaVuSans-30" d="M 2034 4250 
Q 1547 4250 1301 3770 
Q 1056 3291 1056 2328 
Q 1056 1369 1301 889 
Q 1547 409 2034 409 
Q 2525 409 2770 889 
Q 3016 1369 3016 2328 
Q 3016 3291 2770 3770 
Q 2525 4250 2034 4250 
z
M 2034 4750 
Q 2819 4750 3233 4129 
Q 3647 3509 3647 2328 
Q 3647 1150 3233 529 
Q 2819 -91 2034 -91 
Q 1250 -91 836 529 
Q 422 1150 422 2328 
Q 422 3509 836 4129 
Q 1250 4750 2034 4750 
z
" transform="scale(0.015625)"/>
       </defs>
       <use xlink:href="#DejaVuSans-30"/>
      </g>
     </g>
    </g>
    <g id="xtick_2">
     <g id="line2d_3">
      <g>
       <use xlink:href="#mc4919b4129" x="76.162648" y="81.090424" style="stroke: #000000"/>
      </g>
     </g>
     <g id="text_2">
      <!-- 2 -->
      <g transform="translate(73.935773 92.409331) scale(0.07 -0.07)">
       <defs>
        <path id="DejaVuSans-32" d="M 1228 531 
L 3431 531 
L 3431 0 
L 469 0 
L 469 531 
Q 828 903 1448 1529 
Q 2069 2156 2228 2338 
Q 2531 2678 2651 2914 
Q 2772 3150 2772 3378 
Q 2772 3750 2511 3984 
Q 2250 4219 1831 4219 
Q 1534 4219 1204 4116 
Q 875 4013 500 3803 
L 500 4441 
Q 881 4594 1212 4672 
Q 1544 4750 1819 4750 
Q 2544 4750 2975 4387 
Q 3406 4025 3406 3419 
Q 3406 3131 3298 2873 
Q 3191 2616 2906 2266 
Q 2828 2175 2409 1742 
Q 1991 1309 1228 531 
z
" transform="scale(0.015625)"/>
       </defs>
       <use xlink:href="#DejaVuSans-32"/>
      </g>
     </g>
    </g>
    <g id="text_3">
     <!-- [buffer] (mM) -->
     <g transform="translate(28.782116 94.184018) scale(0.07 -0.07)">
      <defs>
       <path id="DejaVuSans-5b" d="M 550 4863 
L 1875 4863 
L 1875 4416 
L 1125 4416 
L 1125 -397 
L 1875 -397 
L 1875 -844 
L 550 -844 
L 550 4863 
z
" transform="scale(0.015625)"/>
       <path id="DejaVuSans-62" d="M 3116 1747 
Q 3116 2381 2855 2742 
Q 2594 3103 2138 3103 
Q 1681 3103 1420 2742 
Q 1159 2381 1159 1747 
Q 1159 1113 1420 752 
Q 1681 391 2138 391 
Q 2594 391 2855 752 
Q 3116 1113 3116 1747 
z
M 1159 2969 
Q 1341 3281 1617 3432 
Q 1894 3584 2278 3584 
Q 2916 3584 3314 3078 
Q 3713 2572 3713 1747 
Q 3713 922 3314 415 
Q 2916 -91 2278 -91 
Q 1894 -91 1617 61 
Q 1341 213 1159 525 
L 1159 0 
L 581 0 
L 581 4863 
L 1159 4863 
L 1159 2969 
z
" transform="scale(0.015625)"/>
       <path id="DejaVuSans-75" d="M 544 1381 
L 544 3500 
L 1119 3500 
L 1119 1403 
Q 1119 906 1312 657 
Q 1506 409 1894 409 
Q 2359 409 2629 706 
Q 2900 1003 2900 1516 
L 2900 3500 
L 3475 3500 
L 3475 0 
L 2900 0 
L 2900 538 
Q 2691 219 2414 64 
Q 2138 -91 1772 -91 
Q 1169 -91 856 284 
Q 544 659 544 1381 
z
M 1991 3584 
L 1991 3584 
z
" transform="scale(0.015625)"/>
       <path id="DejaVuSans-66" d="M 2375 4863 
L 2375 4384 
L 1825 4384 
Q 1516 4384 1395 4259 
Q 1275 4134 1275 3809 
L 1275 3500 
L 2222 3500 
L 2222 3053 
L 1275 3053 
L 1275 0 
L 697 0 
L 697 3053 
L 147 3053 
L 147 3500 
L 697 3500 
L 697 3744 
Q 697 4328 969 4595 
Q 1241 4863 1831 4863 
L 2375 4863 
z
" transform="scale(0.015625)"/>
       <path id="DejaVuSans-65" d="M 3597 1894 
L 3597 1613 
L 953 1613 
Q 991 1019 1311 708 
Q 1631 397 2203 397 
Q 2534 397 2845 478 
Q 3156 559 3463 722 
L 3463 178 
Q 3153 47 2828 -22 
Q 2503 -91 2169 -91 
Q 1331 -91 842 396 
Q 353 884 353 1716 
Q 353 2575 817 3079 
Q 1281 3584 2069 3584 
Q 2775 3584 3186 3129 
Q 3597 2675 3597 1894 
z
M 3022 2063 
Q 3016 2534 2758 2815 
Q 2500 3097 2075 3097 
Q 1594 3097 1305 2825 
Q 1016 2553 972 2059 
L 3022 2063 
z
" transform="scale(0.015625)"/>
       <path id="DejaVuSans-72" d="M 2631 2963 
Q 2534 3019 2420 3045 
Q 2306 3072 2169 3072 
Q 1681 3072 1420 2755 
Q 1159 2438 1159 1844 
L 1159 0 
L 581 0 
L 581 3500 
L 1159 3500 
L 1159 2956 
Q 1341 3275 1631 3429 
Q 1922 3584 2338 3584 
Q 2397 3584 2469 3576 
Q 2541 3569 2628 3553 
L 2631 2963 
z
" transform="scale(0.015625)"/>
       <path id="DejaVuSans-5d" d="M 1947 4863 
L 1947 -844 
L 622 -844 
L 622 -397 
L 1369 -397 
L 1369 4416 
L 622 4416 
L 622 4863 
L 1947 4863 
z
" transform="scale(0.015625)"/>
       <path id="DejaVuSans-20" transform="scale(0.015625)"/>
       <path id="DejaVuSans-28" d="M 1984 4856 
Q 1566 4138 1362 3434 
Q 1159 2731 1159 2009 
Q 1159 1288 1364 580 
Q 1569 -128 1984 -844 
L 1484 -844 
Q 1016 -109 783 600 
Q 550 1309 550 2009 
Q 550 2706 781 3412 
Q 1013 4119 1484 4856 
L 1984 4856 
z
" transform="scale(0.015625)"/>
       <path id="DejaVuSans-6d" d="M 3328 2828 
Q 3544 3216 3844 3400 
Q 4144 3584 4550 3584 
Q 5097 3584 5394 3201 
Q 5691 2819 5691 2113 
L 5691 0 
L 5113 0 
L 5113 2094 
Q 5113 2597 4934 2840 
Q 4756 3084 4391 3084 
Q 3944 3084 3684 2787 
Q 3425 2491 3425 1978 
L 3425 0 
L 2847 0 
L 2847 2094 
Q 2847 2600 2669 2842 
Q 2491 3084 2119 3084 
Q 1678 3084 1418 2786 
Q 1159 2488 1159 1978 
L 1159 0 
L 581 0 
L 581 3500 
L 1159 3500 
L 1159 2956 
Q 1356 3278 1631 3431 
Q 1906 3584 2284 3584 
Q 2666 3584 2933 3390 
Q 3200 3197 3328 2828 
z
" transform="scale(0.015625)"/>
       <path id="DejaVuSans-4d" d="M 628 4666 
L 1569 4666 
L 2759 1491 
L 3956 4666 
L 4897 4666 
L 4897 0 
L 4281 0 
L 4281 4097 
L 3078 897 
L 2444 897 
L 1241 4097 
L 1241 0 
L 628 0 
L 628 4666 
z
" transform="scale(0.015625)"/>
       <path id="DejaVuSans-29" d="M 513 4856 
L 1013 4856 
Q 1481 4119 1714 3412 
Q 1947 2706 1947 2009 
Q 1947 1309 1714 600 
Q 1481 -109 1013 -844 
L 513 -844 
Q 928 -128 1133 580 
Q 1338 1288 1338 2009 
Q 1338 2731 1133 3434 
Q 928 4138 513 4856 
z
" transform="scale(0.015625)"/>
      </defs>
      <use xlink:href="#DejaVuSans-5b"/>
      <use xlink:href="#DejaVuSans-62" x="39.013672"/>
      <use xlink:href="#DejaVuSans-75" x="102.490234"/>
      <use xlink:href="#DejaVuSans-66" x="165.869141"/>
      <use xlink:href="#DejaVuSans-66" x="201.074219"/>
      <use xlink:href="#DejaVuSans-65" x="236.279297"/>
      <use xlink:href="#DejaVuSans-72" x="297.802734"/>
      <use xlink:href="#DejaVuSans-5d" x="338.916016"/>
      <use xlink:href="#DejaVuSans-20" x="377.929688"/>
      <use xlink:href="#DejaVuSans-28" x="409.716797"/>
      <use xlink:href="#DejaVuSans-6d" x="448.730469"/>
      <use xlink:href="#DejaVuSans-4d" x="546.142578"/>
      <use xlink:href="#DejaVuSans-29" x="632.421875"/>
     </g>
    </g>
   </g>
   <g id="matplotlib.axis_2">
    <g id="ytick_1">
     <g id="line2d_4">
      <defs>
       <path id="m362bf2931b" d="M 0 0 
L -2.5 0 
" style="stroke: #000000"/>
      </defs>
      <g>
       <use xlink:href="#m362bf2931b" x="25.0948" y="73.615307" style="stroke: #000000"/>
      </g>
     </g>
     <g id="text_4">
      <!-- −1 -->
      <g transform="translate(8.775269 76.27476) scale(0.07 -0.07)">
       <defs>
        <path id="DejaVuSans-2212" d="M 678 2272 
L 4684 2272 
L 4684 1741 
L 678 1741 
L 678 2272 
z
" transform="scale(0.015625)"/>
        <path id="DejaVuSans-31" d="M 794 531 
L 1825 531 
L 1825 4091 
L 703 3866 
L 703 4441 
L 1819 4666 
L 2450 4666 
L 2450 531 
L 3481 531 
L 3481 0 
L 794 0 
L 794 531 
z
" transform="scale(0.015625)"/>
       </defs>
       <use xlink:href="#DejaVuSans-2212"/>
       <use xlink:href="#DejaVuSans-31" x="83.789062"/>
      </g>
     </g>
    </g>
    <g id="ytick_2">
     <g id="line2d_5">
      <g>
       <use xlink:href="#m362bf2931b" x="25.0948" y="42.726392" style="stroke: #000000"/>
      </g>
     </g>
     <g id="text_5">
      <!-- 0 -->
      <g transform="translate(14.64105 45.385845) scale(0.07 -0.07)">
       <use xlink:href="#DejaVuSans-30"/>
      </g>
     </g>
    </g>
    <g id="ytick_3">
     <g id="line2d_6">
      <g>
       <use xlink:href="#m362bf2931b" x="25.0948" y="11.837476" style="stroke: #000000"/>
      </g>
     </g>
     <g id="text_6">
      <!-- 1 -->
      <g transform="translate(14.64105 14.496929) scale(0.07 -0.07)">
       <use xlink:href="#DejaVuSans-31"/>
      </g>
     </g>
    </g>
    <g id="text_7">
     <!-- plasticity magnitude -->
     <g transform="translate(8.319487 78.618345) rotate(-90) scale(0.07 -0.07)">
      <defs>
       <path id="DejaVuSans-70" d="M 1159 525 
L 1159 -1331 
L 581 -1331 
L 581 3500 
L 1159 3500 
L 1159 2969 
Q 1341 3281 1617 3432 
Q 1894 3584 2278 3584 
Q 2916 3584 3314 3078 
Q 3713 2572 3713 1747 
Q 3713 922 3314 415 
Q 2916 -91 2278 -91 
Q 1894 -91 1617 61 
Q 1341 213 1159 525 
z
M 3116 1747 
Q 3116 2381 2855 2742 
Q 2594 3103 2138 3103 
Q 1681 3103 1420 2742 
Q 1159 2381 1159 1747 
Q 1159 1113 1420 752 
Q 1681 391 2138 391 
Q 2594 391 2855 752 
Q 3116 1113 3116 1747 
z
" transform="scale(0.015625)"/>
       <path id="DejaVuSans-6c" d="M 603 4863 
L 1178 4863 
L 1178 0 
L 603 0 
L 603 4863 
z
" transform="scale(0.015625)"/>
       <path id="DejaVuSans-61" d="M 2194 1759 
Q 1497 1759 1228 1600 
Q 959 1441 959 1056 
Q 959 750 1161 570 
Q 1363 391 1709 391 
Q 2188 391 2477 730 
Q 2766 1069 2766 1631 
L 2766 1759 
L 2194 1759 
z
M 3341 1997 
L 3341 0 
L 2766 0 
L 2766 531 
Q 2569 213 2275 61 
Q 1981 -91 1556 -91 
Q 1019 -91 701 211 
Q 384 513 384 1019 
Q 384 1609 779 1909 
Q 1175 2209 1959 2209 
L 2766 2209 
L 2766 2266 
Q 2766 2663 2505 2880 
Q 2244 3097 1772 3097 
Q 1472 3097 1187 3025 
Q 903 2953 641 2809 
L 641 3341 
Q 956 3463 1253 3523 
Q 1550 3584 1831 3584 
Q 2591 3584 2966 3190 
Q 3341 2797 3341 1997 
z
" transform="scale(0.015625)"/>
       <path id="DejaVuSans-73" d="M 2834 3397 
L 2834 2853 
Q 2591 2978 2328 3040 
Q 2066 3103 1784 3103 
Q 1356 3103 1142 2972 
Q 928 2841 928 2578 
Q 928 2378 1081 2264 
Q 1234 2150 1697 2047 
L 1894 2003 
Q 2506 1872 2764 1633 
Q 3022 1394 3022 966 
Q 3022 478 2636 193 
Q 2250 -91 1575 -91 
Q 1294 -91 989 -36 
Q 684 19 347 128 
L 347 722 
Q 666 556 975 473 
Q 1284 391 1588 391 
Q 1994 391 2212 530 
Q 2431 669 2431 922 
Q 2431 1156 2273 1281 
Q 2116 1406 1581 1522 
L 1381 1569 
Q 847 1681 609 1914 
Q 372 2147 372 2553 
Q 372 3047 722 3315 
Q 1072 3584 1716 3584 
Q 2034 3584 2315 3537 
Q 2597 3491 2834 3397 
z
" transform="scale(0.015625)"/>
       <path id="DejaVuSans-74" d="M 1172 4494 
L 1172 3500 
L 2356 3500 
L 2356 3053 
L 1172 3053 
L 1172 1153 
Q 1172 725 1289 603 
Q 1406 481 1766 481 
L 2356 481 
L 2356 0 
L 1766 0 
Q 1100 0 847 248 
Q 594 497 594 1153 
L 594 3053 
L 172 3053 
L 172 3500 
L 594 3500 
L 594 4494 
L 1172 4494 
z
" transform="scale(0.015625)"/>
       <path id="DejaVuSans-69" d="M 603 3500 
L 1178 3500 
L 1178 0 
L 603 0 
L 603 3500 
z
M 603 4863 
L 1178 4863 
L 1178 4134 
L 603 4134 
L 603 4863 
z
" transform="scale(0.015625)"/>
       <path id="DejaVuSans-63" d="M 3122 3366 
L 3122 2828 
Q 2878 2963 2633 3030 
Q 2388 3097 2138 3097 
Q 1578 3097 1268 2742 
Q 959 2388 959 1747 
Q 959 1106 1268 751 
Q 1578 397 2138 397 
Q 2388 397 2633 464 
Q 2878 531 3122 666 
L 3122 134 
Q 2881 22 2623 -34 
Q 2366 -91 2075 -91 
Q 1284 -91 818 406 
Q 353 903 353 1747 
Q 353 2603 823 3093 
Q 1294 3584 2113 3584 
Q 2378 3584 2631 3529 
Q 2884 3475 3122 3366 
z
" transform="scale(0.015625)"/>
       <path id="DejaVuSans-79" d="M 2059 -325 
Q 1816 -950 1584 -1140 
Q 1353 -1331 966 -1331 
L 506 -1331 
L 506 -850 
L 844 -850 
Q 1081 -850 1212 -737 
Q 1344 -625 1503 -206 
L 1606 56 
L 191 3500 
L 800 3500 
L 1894 763 
L 2988 3500 
L 3597 3500 
L 2059 -325 
z
" transform="scale(0.015625)"/>
       <path id="DejaVuSans-67" d="M 2906 1791 
Q 2906 2416 2648 2759 
Q 2391 3103 1925 3103 
Q 1463 3103 1205 2759 
Q 947 2416 947 1791 
Q 947 1169 1205 825 
Q 1463 481 1925 481 
Q 2391 481 2648 825 
Q 2906 1169 2906 1791 
z
M 3481 434 
Q 3481 -459 3084 -895 
Q 2688 -1331 1869 -1331 
Q 1566 -1331 1297 -1286 
Q 1028 -1241 775 -1147 
L 775 -588 
Q 1028 -725 1275 -790 
Q 1522 -856 1778 -856 
Q 2344 -856 2625 -561 
Q 2906 -266 2906 331 
L 2906 616 
Q 2728 306 2450 153 
Q 2172 0 1784 0 
Q 1141 0 747 490 
Q 353 981 353 1791 
Q 353 2603 747 3093 
Q 1141 3584 1784 3584 
Q 2172 3584 2450 3431 
Q 2728 3278 2906 2969 
L 2906 3500 
L 3481 3500 
L 3481 434 
z
" transform="scale(0.015625)"/>
       <path id="DejaVuSans-6e" d="M 3513 2113 
L 3513 0 
L 2938 0 
L 2938 2094 
Q 2938 2591 2744 2837 
Q 2550 3084 2163 3084 
Q 1697 3084 1428 2787 
Q 1159 2491 1159 1978 
L 1159 0 
L 581 0 
L 581 3500 
L 1159 3500 
L 1159 2956 
Q 1366 3272 1645 3428 
Q 1925 3584 2291 3584 
Q 2894 3584 3203 3211 
Q 3513 2838 3513 2113 
z
" transform="scale(0.015625)"/>
       <path id="DejaVuSans-64" d="M 2906 2969 
L 2906 4863 
L 3481 4863 
L 3481 0 
L 2906 0 
L 2906 525 
Q 2725 213 2448 61 
Q 2172 -91 1784 -91 
Q 1150 -91 751 415 
Q 353 922 353 1747 
Q 353 2572 751 3078 
Q 1150 3584 1784 3584 
Q 2172 3584 2448 3432 
Q 2725 3281 2906 2969 
z
M 947 1747 
Q 947 1113 1208 752 
Q 1469 391 1925 391 
Q 2381 391 2643 752 
Q 2906 1113 2906 1747 
Q 2906 2381 2643 2742 
Q 2381 3103 1925 3103 
Q 1469 3103 1208 2742 
Q 947 2381 947 1747 
z
" transform="scale(0.015625)"/>
      </defs>
      <use xlink:href="#DejaVuSans-70"/>
      <use xlink:href="#DejaVuSans-6c" x="63.476562"/>
      <use xlink:href="#DejaVuSans-61" x="91.259766"/>
      <use xlink:href="#DejaVuSans-73" x="152.539062"/>
      <use xlink:href="#DejaVuSans-74" x="204.638672"/>
      <use xlink:href="#DejaVuSans-69" x="243.847656"/>
      <use xlink:href="#DejaVuSans-63" x="271.630859"/>
      <use xlink:href="#DejaVuSans-69" x="326.611328"/>
      <use xlink:href="#DejaVuSans-74" x="354.394531"/>
      <use xlink:href="#DejaVuSans-79" x="393.603516"/>
      <use xlink:href="#DejaVuSans-20" x="452.783203"/>
      <use xlink:href="#DejaVuSans-6d" x="484.570312"/>
      <use xlink:href="#DejaVuSans-61" x="581.982422"/>
      <use xlink:href="#DejaVuSans-67" x="643.261719"/>
      <use xlink:href="#DejaVuSans-6e" x="706.738281"/>
      <use xlink:href="#DejaVuSans-69" x="770.117188"/>
      <use xlink:href="#DejaVuSans-74" x="797.900391"/>
      <use xlink:href="#DejaVuSans-75" x="837.109375"/>
      <use xlink:href="#DejaVuSans-64" x="900.488281"/>
      <use xlink:href="#DejaVuSans-65" x="963.964844"/>
     </g>
    </g>
   </g>
   <g id="patch_2">
    <path d="M 25.0948 73.615307 
L 25.0948 11.837476 
" style="fill: none; stroke: #000000; stroke-linejoin: miter; stroke-linecap: square"/>
   </g>
   <g id="patch_3">
    <path d="M 28.616382 81.090424 
L 76.162648 81.090424 
" style="fill: none; stroke: #000000; stroke-linejoin: miter; stroke-linecap: square"/>
   </g>
   <g id="text_8">
    <!-- LTP ($\propto I_{NMDAR}$) -->
    <g transform="translate(42.880262 64.117971) scale(0.07 -0.07)">
     <defs>
      <path id="DejaVuSans-4c" d="M 628 4666 
L 1259 4666 
L 1259 531 
L 3531 531 
L 3531 0 
L 628 0 
L 628 4666 
z
" transform="scale(0.015625)"/>
      <path id="DejaVuSans-54" d="M -19 4666 
L 3928 4666 
L 3928 4134 
L 2272 4134 
L 2272 0 
L 1638 0 
L 1638 4134 
L -19 4134 
L -19 4666 
z
" transform="scale(0.015625)"/>
      <path id="DejaVuSans-50" d="M 1259 4147 
L 1259 2394 
L 2053 2394 
Q 2494 2394 2734 2622 
Q 2975 2850 2975 3272 
Q 2975 3691 2734 3919 
Q 2494 4147 2053 4147 
L 1259 4147 
z
M 628 4666 
L 2053 4666 
Q 2838 4666 3239 4311 
Q 3641 3956 3641 3272 
Q 3641 2581 3239 2228 
Q 2838 1875 2053 1875 
L 1259 1875 
L 1259 0 
L 628 0 
L 628 4666 
z
" transform="scale(0.015625)"/>
      <path id="DejaVuSans-221d" d="M 1647 1134 
Q 2163 1134 2472 1884 
Q 2075 2703 1647 2703 
Q 1334 2703 1175 2478 
Q 1006 2238 1006 1919 
Q 1006 1569 1175 1353 
Q 1350 1134 1647 1134 
z
M 3884 1128 
L 3884 716 
L 3644 716 
Q 3416 716 3247 809 
Q 3078 894 2916 1091 
Q 2819 1203 2666 1466 
Q 2456 1091 2272 925 
Q 2044 725 1681 725 
Q 1259 725 981 1041 
Q 688 1372 688 1919 
Q 688 2444 981 2800 
Q 1241 3116 1688 3116 
Q 1916 3116 2084 3022 
Q 2281 2919 2416 2741 
Q 2541 2581 2666 2366 
Q 2875 2741 3059 2906 
Q 3288 3106 3650 3106 
L 3884 3106 
L 3884 2697 
L 3684 2697 
Q 3222 2697 2859 1947 
Q 3256 1128 3684 1128 
L 3884 1128 
z
" transform="scale(0.015625)"/>
      <path id="DejaVuSans-Oblique-49" d="M 1081 4666 
L 1716 4666 
L 806 0 
L 172 0 
L 1081 4666 
z
" transform="scale(0.015625)"/>
      <path id="DejaVuSans-Oblique-4e" d="M 1081 4666 
L 1931 4666 
L 3219 666 
L 4000 4666 
L 4616 4666 
L 3706 0 
L 2853 0 
L 1569 4025 
L 788 0 
L 172 0 
L 1081 4666 
z
" transform="scale(0.015625)"/>
      <path id="DejaVuSans-Oblique-4d" d="M 1081 4666 
L 2028 4666 
L 2572 1522 
L 4378 4666 
L 5350 4666 
L 4441 0 
L 3828 0 
L 4622 4091 
L 2791 897 
L 2175 897 
L 1581 4103 
L 788 0 
L 172 0 
L 1081 4666 
z
" transform="scale(0.015625)"/>
      <path id="DejaVuSans-Oblique-44" d="M 1081 4666 
L 2438 4666 
Q 3519 4666 4070 4208 
Q 4622 3750 4622 2847 
Q 4622 2250 4412 1698 
Q 4203 1147 3834 769 
Q 3463 381 2891 190 
Q 2319 0 1538 0 
L 172 0 
L 1081 4666 
z
M 1613 4147 
L 909 519 
L 1734 519 
Q 2794 519 3375 1128 
Q 3956 1738 3956 2847 
Q 3956 3519 3581 3833 
Q 3206 4147 2406 4147 
L 1613 4147 
z
" transform="scale(0.015625)"/>
      <path id="DejaVuSans-Oblique-41" d="M 2356 4666 
L 3072 4666 
L 3938 0 
L 3278 0 
L 3084 1197 
L 984 1197 
L 325 0 
L -341 0 
L 2356 4666 
z
M 2584 4044 
L 1275 1722 
L 2988 1722 
L 2584 4044 
z
" transform="scale(0.015625)"/>
      <path id="DejaVuSans-Oblique-52" d="M 1613 4147 
L 1294 2491 
L 2106 2491 
Q 2584 2491 2879 2755 
Q 3175 3019 3175 3444 
Q 3175 3784 2976 3965 
Q 2778 4147 2406 4147 
L 1613 4147 
z
M 2772 2241 
Q 2972 2194 3105 2009 
Q 3238 1825 3413 1275 
L 3809 0 
L 3144 0 
L 2778 1197 
Q 2638 1659 2453 1815 
Q 2269 1972 1888 1972 
L 1191 1972 
L 806 0 
L 172 0 
L 1081 4666 
L 2503 4666 
Q 3150 4666 3495 4373 
Q 3841 4081 3841 3531 
Q 3841 3044 3547 2687 
Q 3253 2331 2772 2241 
z
" transform="scale(0.015625)"/>
     </defs>
     <use xlink:href="#DejaVuSans-4c" transform="translate(0 0.125)"/>
     <use xlink:href="#DejaVuSans-54" transform="translate(55.712891 0.125)"/>
     <use xlink:href="#DejaVuSans-50" transform="translate(116.796875 0.125)"/>
     <use xlink:href="#DejaVuSans-20" transform="translate(177.099609 0.125)"/>
     <use xlink:href="#DejaVuSans-28" transform="translate(208.886719 0.125)"/>
     <use xlink:href="#DejaVuSans-221d" transform="translate(267.382812 0.125)"/>
     <use xlink:href="#DejaVuSans-Oblique-49" transform="translate(358.300781 0.125)"/>
     <use xlink:href="#DejaVuSans-Oblique-4e" transform="translate(387.792969 -16.28125) scale(0.7)"/>
     <use xlink:href="#DejaVuSans-Oblique-4d" transform="translate(440.15625 -16.28125) scale(0.7)"/>
     <use xlink:href="#DejaVuSans-Oblique-44" transform="translate(500.551758 -16.28125) scale(0.7)"/>
     <use xlink:href="#DejaVuSans-Oblique-41" transform="translate(554.453125 -16.28125) scale(0.7)"/>
     <use xlink:href="#DejaVuSans-Oblique-52" transform="translate(602.338867 -16.28125) scale(0.7)"/>
     <use xlink:href="#DejaVuSans-29" transform="translate(653.710938 0.125)"/>
    </g>
   </g>
   <g id="text_9">
    <!-- LTD ($\propto I_{VGCC}$) -->
    <g style="fill: #9370db" transform="translate(42.880262 71.8402) scale(0.07 -0.07)">
     <defs>
      <path id="DejaVuSans-44" d="M 1259 4147 
L 1259 519 
L 2022 519 
Q 2988 519 3436 956 
Q 3884 1394 3884 2338 
Q 3884 3275 3436 3711 
Q 2988 4147 2022 4147 
L 1259 4147 
z
M 628 4666 
L 1925 4666 
Q 3281 4666 3915 4102 
Q 4550 3538 4550 2338 
Q 4550 1131 3912 565 
Q 3275 0 1925 0 
L 628 0 
L 628 4666 
z
" transform="scale(0.015625)"/>
      <path id="DejaVuSans-Oblique-56" d="M 1319 0 
L 500 4666 
L 1119 4666 
L 1797 653 
L 4063 4666 
L 4750 4666 
L 2053 0 
L 1319 0 
z
" transform="scale(0.015625)"/>
      <path id="DejaVuSans-Oblique-47" d="M 3494 697 
L 3738 1919 
L 2700 1919 
L 2797 2438 
L 4453 2438 
L 4050 384 
Q 3634 156 3143 32 
Q 2653 -91 2156 -91 
Q 1278 -91 783 396 
Q 288 884 288 1753 
Q 288 2475 589 3126 
Q 891 3778 1422 4213 
Q 1756 4484 2153 4617 
Q 2550 4750 3034 4750 
Q 3472 4750 3873 4639 
Q 4275 4528 4641 4306 
L 4513 3634 
Q 4231 3928 3853 4083 
Q 3475 4238 3047 4238 
Q 2550 4238 2172 4048 
Q 1794 3859 1497 3463 
Q 1244 3125 1098 2667 
Q 953 2209 953 1734 
Q 953 1081 1287 751 
Q 1622 422 2284 422 
Q 2616 422 2925 492 
Q 3234 563 3494 697 
z
" transform="scale(0.015625)"/>
      <path id="DejaVuSans-Oblique-43" d="M 4447 4306 
L 4319 3641 
Q 4019 3944 3683 4091 
Q 3347 4238 2956 4238 
Q 2422 4238 2017 3981 
Q 1613 3725 1319 3200 
Q 1131 2863 1032 2486 
Q 934 2109 934 1728 
Q 934 1091 1264 756 
Q 1594 422 2222 422 
Q 2656 422 3056 561 
Q 3456 700 3834 978 
L 3688 231 
Q 3316 72 2936 -9 
Q 2556 -91 2175 -91 
Q 1278 -91 773 396 
Q 269 884 269 1753 
Q 269 2309 461 2846 
Q 653 3384 1013 3828 
Q 1394 4300 1883 4525 
Q 2372 4750 3022 4750 
Q 3422 4750 3780 4639 
Q 4138 4528 4447 4306 
z
" transform="scale(0.015625)"/>
     </defs>
     <use xlink:href="#DejaVuSans-4c" transform="translate(0 0.125)"/>
     <use xlink:href="#DejaVuSans-54" transform="translate(55.712891 0.125)"/>
     <use xlink:href="#DejaVuSans-44" transform="translate(116.796875 0.125)"/>
     <use xlink:href="#DejaVuSans-20" transform="translate(193.798828 0.125)"/>
     <use xlink:href="#DejaVuSans-28" transform="translate(225.585938 0.125)"/>
     <use xlink:href="#DejaVuSans-221d" transform="translate(284.082031 0.125)"/>
     <use xlink:href="#DejaVuSans-Oblique-49" transform="translate(375 0.125)"/>
     <use xlink:href="#DejaVuSans-Oblique-56" transform="translate(404.492188 -16.28125) scale(0.7)"/>
     <use xlink:href="#DejaVuSans-Oblique-47" transform="translate(452.37793 -16.28125) scale(0.7)"/>
     <use xlink:href="#DejaVuSans-Oblique-43" transform="translate(506.621094 -16.28125) scale(0.7)"/>
     <use xlink:href="#DejaVuSans-Oblique-43" transform="translate(555.498047 -16.28125) scale(0.7)"/>
     <use xlink:href="#DejaVuSans-29" transform="translate(607.109375 0.125)"/>
    </g>
   </g>
   <g id="line2d_7">
    <path d="M 28.616382 11.60181 
L 29.091845 11.923023 
L 29.567308 12.255673 
L 30.04277 12.599879 
L 30.518233 12.955733 
L 30.993696 13.3233 
L 31.469158 13.702614 
L 31.944621 14.093676 
L 32.420084 14.496453 
L 32.895546 14.910875 
L 33.371009 15.336834 
L 33.846472 15.774181 
L 34.321934 16.222726 
L 34.797397 16.682236 
L 35.27286 17.152434 
L 35.748322 17.633 
L 36.223785 18.123567 
L 36.699248 18.623726 
L 37.17471 19.13302 
L 37.650173 19.650953 
L 38.125636 20.176983 
L 38.601098 20.71053 
L 39.076561 21.250974 
L 39.552023 21.79766 
L 40.027486 22.349898 
L 40.502949 22.906969 
L 40.978411 23.468127 
L 41.453874 24.032603 
L 41.929337 24.599611 
L 42.404799 25.168348 
L 42.880262 25.738003 
L 43.355725 26.307759 
L 43.831187 26.876799 
L 44.30665 27.444309 
L 44.782113 28.009485 
L 45.257575 28.571535 
L 45.733038 29.129686 
L 46.208501 29.683186 
L 46.683963 30.231309 
L 47.159426 30.773358 
L 47.634889 31.308669 
L 48.110351 31.836612 
L 48.585814 32.356598 
L 49.061277 32.868075 
L 49.536739 33.370535 
L 50.012202 33.863513 
L 50.487665 34.346586 
L 50.963127 34.819378 
L 51.43859 35.281557 
L 51.914052 35.732835 
L 52.389515 36.172968 
L 52.864978 36.601757 
L 53.34044 37.019042 
L 53.815903 37.424705 
L 54.291366 37.818666 
L 54.766828 38.200885 
L 55.242291 38.571353 
L 55.717754 38.930096 
L 56.193216 39.277173 
L 56.668679 39.612669 
L 57.144142 39.936696 
L 57.619604 40.249391 
L 58.095067 40.550912 
L 58.57053 40.841438 
L 59.045992 41.121164 
L 59.521455 41.390303 
L 59.996918 41.64908 
L 60.47238 41.897731 
L 60.947843 42.136503 
L 61.423306 42.365651 
L 61.898768 42.585434 
L 62.374231 42.79612 
L 62.849694 42.997978 
L 63.325156 43.191279 
L 63.800619 43.376295 
L 64.276081 43.5533 
L 64.751544 43.722564 
L 65.227007 43.884357 
L 65.702469 44.038947 
L 66.177932 44.186595 
L 66.653395 44.327561 
L 67.128857 44.4621 
L 67.60432 44.590461 
L 68.079783 44.712889 
L 68.555245 44.829621 
L 69.030708 44.940889 
L 69.506171 45.046921 
L 69.981633 45.147935 
L 70.457096 45.244143 
L 70.932559 45.335754 
L 71.408021 45.422965 
L 71.883484 45.505971 
L 72.358947 45.584957 
L 72.834409 45.660103 
L 73.309872 45.731582 
L 73.785335 45.799562 
L 74.260797 45.864201 
L 74.73626 45.925655 
L 75.211723 45.984071 
L 75.687185 46.039591 
L 76.162648 46.092352 
" clip-path="url(#pbcaf6660c4)" style="fill: none; stroke: #000000; stroke-linecap: square"/>
   </g>
   <g id="line2d_8">
    <path d="M 28.616382 74.310404 
L 29.091845 74.271606 
L 29.567308 74.21906 
L 30.04277 74.147966 
L 30.518233 74.051899 
L 30.993696 73.922316 
L 31.469158 73.747939 
L 31.944621 73.514029 
L 32.420084 73.201602 
L 32.895546 72.786678 
L 33.371009 72.239789 
L 33.846472 71.526116 
L 34.321934 70.606821 
L 34.797397 69.442279 
L 35.27286 67.997889 
L 35.748322 66.252602 
L 36.223785 64.209095 
L 36.699248 61.902783 
L 37.17471 59.405423 
L 37.650173 56.819541 
L 38.125636 54.263145 
L 38.601098 51.849003 
L 39.076561 49.665789 
L 39.552023 47.767371 
L 40.027486 46.1721 
L 40.502949 44.869646 
L 40.978411 43.831052 
L 41.453874 43.018332 
L 41.929337 42.391698 
L 42.404799 41.914026 
L 42.880262 41.553066 
L 43.355725 41.282094 
L 43.831187 41.07968 
L 44.30665 40.929038 
L 44.782113 40.817234 
L 45.257575 40.734425 
L 45.733038 40.673185 
L 46.208501 40.627946 
L 46.683963 40.594555 
L 47.159426 40.569924 
L 47.634889 40.551764 
L 48.110351 40.538378 
L 48.585814 40.528514 
L 49.061277 40.521247 
L 49.536739 40.515894 
L 50.012202 40.511951 
L 50.487665 40.509046 
L 50.963127 40.506907 
L 51.43859 40.505332 
L 51.914052 40.504172 
L 52.389515 40.503318 
L 52.864978 40.502688 
L 53.34044 40.502225 
L 53.815903 40.501884 
L 54.291366 40.501633 
L 54.766828 40.501448 
L 55.242291 40.501311 
L 55.717754 40.501211 
L 56.193216 40.501137 
L 56.668679 40.501083 
L 57.144142 40.501043 
L 57.619604 40.501013 
L 58.095067 40.500991 
L 58.57053 40.500975 
L 59.045992 40.500964 
L 59.521455 40.500955 
L 59.996918 40.500949 
L 60.47238 40.500944 
L 60.947843 40.50094 
L 61.423306 40.500938 
L 61.898768 40.500936 
L 62.374231 40.500935 
L 62.849694 40.500934 
L 63.325156 40.500933 
L 63.800619 40.500932 
L 64.276081 40.500932 
L 64.751544 40.500932 
L 65.227007 40.500931 
L 65.702469 40.500931 
L 66.177932 40.500931 
L 66.653395 40.500931 
L 67.128857 40.500931 
L 67.60432 40.500931 
L 68.079783 40.500931 
L 68.555245 40.500931 
L 69.030708 40.500931 
L 69.506171 40.500931 
L 69.981633 40.500931 
L 70.457096 40.500931 
L 70.932559 40.500931 
L 71.408021 40.500931 
L 71.883484 40.500931 
L 72.358947 40.500931 
L 72.834409 40.500931 
L 73.309872 40.500931 
L 73.785335 40.500931 
L 74.260797 40.500931 
L 74.73626 40.500931 
L 75.211723 40.500931 
L 75.687185 40.500931 
L 76.162648 40.500931 
" clip-path="url(#pbcaf6660c4)" style="fill: none; stroke: #9370db; stroke-linecap: square"/>
   </g>
   <g id="line2d_9">
    <defs>
     <path id="meaeea8c40f" d="M 0 1.5 
C 0.397805 1.5 0.77937 1.341951 1.06066 1.06066 
C 1.341951 0.77937 1.5 0.397805 1.5 0 
C 1.5 -0.397805 1.341951 -0.77937 1.06066 -1.06066 
C 0.77937 -1.341951 0.397805 -1.5 0 -1.5 
C -0.397805 -1.5 -0.77937 -1.341951 -1.06066 -1.06066 
C -1.341951 -0.77937 -1.5 -0.397805 -1.5 0 
C -1.5 0.397805 -1.341951 0.77937 -1.06066 1.06066 
C -0.77937 1.341951 -0.397805 1.5 0 1.5 
z
" style="stroke: #000000; stroke-opacity: 0"/>
    </defs>
    <g clip-path="url(#pbcaf6660c4)">
     <use xlink:href="#meaeea8c40f" x="28.829594" y="11.744437" style="stroke: #000000; stroke-opacity: 0"/>
     <use xlink:href="#meaeea8c40f" x="40.504875" y="22.909105" style="stroke: #000000; stroke-opacity: 0"/>
     <use xlink:href="#meaeea8c40f" x="52.389515" y="34.911124" style="stroke: #000000; stroke-opacity: 0"/>
     <use xlink:href="#meaeea8c40f" x="75.995675" y="48.029609" style="stroke: #000000; stroke-opacity: 0"/>
     <use xlink:href="#meaeea8c40f" x="28.829594" y="11.744437" style="stroke: #000000; stroke-opacity: 0"/>
     <use xlink:href="#meaeea8c40f" x="40.504875" y="22.909105" style="stroke: #000000; stroke-opacity: 0"/>
     <use xlink:href="#meaeea8c40f" x="52.377955" y="37.423174" style="stroke: #000000; stroke-opacity: 0"/>
     <use xlink:href="#meaeea8c40f" x="76.013656" y="44.121975" style="stroke: #000000; stroke-opacity: 0"/>
    </g>
   </g>
   <g id="line2d_10">
    <defs>
     <path id="m4eadb069c1" d="M 0 1.5 
C 0.397805 1.5 0.77937 1.341951 1.06066 1.06066 
C 1.341951 0.77937 1.5 0.397805 1.5 0 
C 1.5 -0.397805 1.341951 -0.77937 1.06066 -1.06066 
C 0.77937 -1.341951 0.397805 -1.5 0 -1.5 
C -0.397805 -1.5 -0.77937 -1.341951 -1.06066 -1.06066 
C -1.341951 -0.77937 -1.5 -0.397805 -1.5 0 
C -1.5 0.397805 -1.341951 0.77937 -1.06066 1.06066 
C -0.77937 1.341951 -0.397805 1.5 0 1.5 
z
" style="stroke: #000000; stroke-opacity: 0"/>
    </defs>
    <g clip-path="url(#pbcaf6660c4)">
     <use xlink:href="#m4eadb069c1" x="28.40221" y="73.964729" style="fill: #9370db; stroke: #000000; stroke-opacity: 0"/>
     <use xlink:href="#m4eadb069c1" x="30.972278" y="77.598719" style="fill: #9370db; stroke: #000000; stroke-opacity: 0"/>
     <use xlink:href="#m4eadb069c1" x="34.399036" y="71.44889" style="fill: #9370db; stroke: #000000; stroke-opacity: 0"/>
     <use xlink:href="#m4eadb069c1" x="40.395863" y="44.333733" style="fill: #9370db; stroke: #000000; stroke-opacity: 0"/>
     <use xlink:href="#m4eadb069c1" x="52.389515" y="39.581592" style="fill: #9370db; stroke: #000000; stroke-opacity: 0"/>
     <use xlink:href="#m4eadb069c1" x="76.162648" y="41.538356" style="fill: #9370db; stroke: #000000; stroke-opacity: 0"/>
     <use xlink:href="#m4eadb069c1" x="28.40221" y="73.685191" style="fill: #9370db; stroke: #000000; stroke-opacity: 0"/>
     <use xlink:href="#m4eadb069c1" x="30.972278" y="71.44889" style="fill: #9370db; stroke: #000000; stroke-opacity: 0"/>
     <use xlink:href="#m4eadb069c1" x="34.399036" y="69.212588" style="fill: #9370db; stroke: #000000; stroke-opacity: 0"/>
     <use xlink:href="#m4eadb069c1" x="40.395863" y="46.010959" style="fill: #9370db; stroke: #000000; stroke-opacity: 0"/>
     <use xlink:href="#m4eadb069c1" x="52.389515" y="36.506678" style="fill: #9370db; stroke: #000000; stroke-opacity: 0"/>
     <use xlink:href="#m4eadb069c1" x="76.162648" y="44.333733" style="fill: #9370db; stroke: #000000; stroke-opacity: 0"/>
    </g>
   </g>
  </g>
  <g id="axes_2">
   <g id="patch_4">
    <path d="M 119.070522 79.79309 
L 171.607003 79.79309 
L 171.607003 5.659693 
L 119.070522 5.659693 
L 119.070522 79.79309 
z
" style="fill: none"/>
   </g>
   <g id="matplotlib.axis_3">
    <g id="xtick_3">
     <g id="line2d_11">
      <g>
       <use xlink:href="#mc4919b4129" x="121.458543" y="81.090424" style="stroke: #000000"/>
      </g>
     </g>
     <g id="text_10">
      <!-- 0 -->
      <g transform="translate(119.231668 92.409331) scale(0.07 -0.07)">
       <use xlink:href="#DejaVuSans-30"/>
      </g>
     </g>
    </g>
    <g id="xtick_4">
     <g id="line2d_12">
      <g>
       <use xlink:href="#mc4919b4129" x="169.218981" y="81.090424" style="stroke: #000000"/>
      </g>
     </g>
     <g id="text_11">
      <!-- 5 -->
      <g transform="translate(166.992106 92.409331) scale(0.07 -0.07)">
       <defs>
        <path id="DejaVuSans-35" d="M 691 4666 
L 3169 4666 
L 3169 4134 
L 1269 4134 
L 1269 2991 
Q 1406 3038 1543 3061 
Q 1681 3084 1819 3084 
Q 2600 3084 3056 2656 
Q 3513 2228 3513 1497 
Q 3513 744 3044 326 
Q 2575 -91 1722 -91 
Q 1428 -91 1123 -41 
Q 819 9 494 109 
L 494 744 
Q 775 591 1075 516 
Q 1375 441 1709 441 
Q 2250 441 2565 725 
Q 2881 1009 2881 1497 
Q 2881 1984 2565 2268 
Q 2250 2553 1709 2553 
Q 1456 2553 1204 2497 
Q 953 2441 691 2322 
L 691 4666 
z
" transform="scale(0.015625)"/>
       </defs>
       <use xlink:href="#DejaVuSans-35"/>
      </g>
     </g>
    </g>
    <g id="text_12">
     <!-- Time (ms) -->
     <g transform="translate(127.699309 93.184018) scale(0.07 -0.07)">
      <use xlink:href="#DejaVuSans-54"/>
      <use xlink:href="#DejaVuSans-69" x="57.958984"/>
      <use xlink:href="#DejaVuSans-6d" x="85.742188"/>
      <use xlink:href="#DejaVuSans-65" x="183.154297"/>
      <use xlink:href="#DejaVuSans-20" x="244.677734"/>
      <use xlink:href="#DejaVuSans-28" x="276.464844"/>
      <use xlink:href="#DejaVuSans-6d" x="315.478516"/>
      <use xlink:href="#DejaVuSans-73" x="412.890625"/>
      <use xlink:href="#DejaVuSans-29" x="464.990234"/>
     </g>
    </g>
   </g>
   <g id="matplotlib.axis_4">
    <g id="ytick_4">
     <g id="line2d_13">
      <g>
       <use xlink:href="#m362bf2931b" x="118.151133" y="76.42339" style="stroke: #000000"/>
      </g>
     </g>
     <g id="text_13">
      <!-- −70 -->
      <g transform="translate(97.377852 79.082843) scale(0.07 -0.07)">
       <defs>
        <path id="DejaVuSans-37" d="M 525 4666 
L 3525 4666 
L 3525 4397 
L 1831 0 
L 1172 0 
L 2766 4134 
L 525 4134 
L 525 4666 
z
" transform="scale(0.015625)"/>
       </defs>
       <use xlink:href="#DejaVuSans-2212"/>
       <use xlink:href="#DejaVuSans-37" x="83.789062"/>
       <use xlink:href="#DejaVuSans-30" x="147.412109"/>
      </g>
     </g>
    </g>
    <g id="ytick_5">
     <g id="line2d_14">
      <g>
       <use xlink:href="#m362bf2931b" x="118.151133" y="9.02831" style="stroke: #000000"/>
      </g>
     </g>
     <g id="text_14">
      <!-- 30 -->
      <g transform="translate(103.243633 11.687763) scale(0.07 -0.07)">
       <defs>
        <path id="DejaVuSans-33" d="M 2597 2516 
Q 3050 2419 3304 2112 
Q 3559 1806 3559 1356 
Q 3559 666 3084 287 
Q 2609 -91 1734 -91 
Q 1441 -91 1130 -33 
Q 819 25 488 141 
L 488 750 
Q 750 597 1062 519 
Q 1375 441 1716 441 
Q 2309 441 2620 675 
Q 2931 909 2931 1356 
Q 2931 1769 2642 2001 
Q 2353 2234 1838 2234 
L 1294 2234 
L 1294 2753 
L 1863 2753 
Q 2328 2753 2575 2939 
Q 2822 3125 2822 3475 
Q 2822 3834 2567 4026 
Q 2313 4219 1838 4219 
Q 1578 4219 1281 4162 
Q 984 4106 628 3988 
L 628 4550 
Q 988 4650 1302 4700 
Q 1616 4750 1894 4750 
Q 2613 4750 3031 4423 
Q 3450 4097 3450 3541 
Q 3450 3153 3228 2886 
Q 3006 2619 2597 2516 
z
" transform="scale(0.015625)"/>
       </defs>
       <use xlink:href="#DejaVuSans-33"/>
       <use xlink:href="#DejaVuSans-30" x="63.623047"/>
      </g>
     </g>
    </g>
    <g id="text_15">
     <!-- AP Voltage (mV) -->
     <g transform="translate(105.922071 71.119595) rotate(-90) scale(0.07 -0.07)">
      <defs>
       <path id="DejaVuSans-41" d="M 2188 4044 
L 1331 1722 
L 3047 1722 
L 2188 4044 
z
M 1831 4666 
L 2547 4666 
L 4325 0 
L 3669 0 
L 3244 1197 
L 1141 1197 
L 716 0 
L 50 0 
L 1831 4666 
z
" transform="scale(0.015625)"/>
       <path id="DejaVuSans-56" d="M 1831 0 
L 50 4666 
L 709 4666 
L 2188 738 
L 3669 4666 
L 4325 4666 
L 2547 0 
L 1831 0 
z
" transform="scale(0.015625)"/>
       <path id="DejaVuSans-6f" d="M 1959 3097 
Q 1497 3097 1228 2736 
Q 959 2375 959 1747 
Q 959 1119 1226 758 
Q 1494 397 1959 397 
Q 2419 397 2687 759 
Q 2956 1122 2956 1747 
Q 2956 2369 2687 2733 
Q 2419 3097 1959 3097 
z
M 1959 3584 
Q 2709 3584 3137 3096 
Q 3566 2609 3566 1747 
Q 3566 888 3137 398 
Q 2709 -91 1959 -91 
Q 1206 -91 779 398 
Q 353 888 353 1747 
Q 353 2609 779 3096 
Q 1206 3584 1959 3584 
z
" transform="scale(0.015625)"/>
      </defs>
      <use xlink:href="#DejaVuSans-41"/>
      <use xlink:href="#DejaVuSans-50" x="68.408203"/>
      <use xlink:href="#DejaVuSans-20" x="128.710938"/>
      <use xlink:href="#DejaVuSans-56" x="160.498047"/>
      <use xlink:href="#DejaVuSans-6f" x="221.15625"/>
      <use xlink:href="#DejaVuSans-6c" x="282.337891"/>
      <use xlink:href="#DejaVuSans-74" x="310.121094"/>
      <use xlink:href="#DejaVuSans-61" x="349.330078"/>
      <use xlink:href="#DejaVuSans-67" x="410.609375"/>
      <use xlink:href="#DejaVuSans-65" x="474.085938"/>
      <use xlink:href="#DejaVuSans-20" x="535.609375"/>
      <use xlink:href="#DejaVuSans-28" x="567.396484"/>
      <use xlink:href="#DejaVuSans-6d" x="606.410156"/>
      <use xlink:href="#DejaVuSans-56" x="703.822266"/>
      <use xlink:href="#DejaVuSans-29" x="772.230469"/>
     </g>
    </g>
   </g>
   <g id="line2d_15">
    <path d="M 121.458543 76.42339 
L 126.148446 76.42339 
L 126.244158 76.15354 
L 127.296994 49.774833 
L 128.158404 33.064168 
L 128.924103 21.891246 
L 129.594089 14.956888 
L 130.168363 11.124316 
L 130.551212 9.651915 
L 130.838349 9.116005 
L 131.029773 9.029393 
L 131.221198 9.159311 
L 131.508335 9.76018 
L 131.891184 11.319193 
L 132.369746 14.485937 
L 132.944019 20.072398 
L 133.614006 29.052959 
L 134.379704 42.5644 
L 135.241115 61.905899 
L 135.911101 76.42339 
L 169.218981 76.42339 
L 169.218981 76.42339 
" clip-path="url(#p7c1da9a495)" style="fill: none; stroke: #000000; stroke-linecap: square"/>
   </g>
   <g id="line2d_16">
    <path d="M 121.458543 76.42339 
L 126.148446 76.42339 
L 126.244158 76.180525 
L 127.296994 52.439689 
L 128.158404 37.40009 
L 128.924103 27.34446 
L 129.594089 21.103538 
L 130.168363 17.654223 
L 130.551212 16.329063 
L 130.838349 15.846743 
L 131.029773 15.768793 
L 131.221198 15.885719 
L 131.508335 16.426501 
L 131.891184 17.829612 
L 132.369746 20.679682 
L 132.944019 25.707497 
L 133.614006 33.790002 
L 134.379704 45.950299 
L 135.241115 63.357648 
L 135.911101 76.42339 
L 169.218981 76.42339 
L 169.218981 76.42339 
" clip-path="url(#p7c1da9a495)" style="fill: none; stroke: #008080; stroke-linecap: square"/>
   </g>
   <g id="line2d_17">
    <path d="M 121.458543 76.42339 
L 126.148446 76.42339 
L 126.244158 76.301958 
L 127.296994 64.431539 
L 128.158404 56.91174 
L 128.924103 51.883925 
L 129.594089 48.763464 
L 130.168363 47.038807 
L 130.646924 46.27148 
L 130.934061 46.103399 
L 131.221198 46.154554 
L 131.508335 46.424946 
L 131.891184 47.126501 
L 132.369746 48.551536 
L 132.944019 51.065444 
L 133.614006 55.106696 
L 134.379704 61.186845 
L 135.241115 69.890519 
L 135.911101 76.42339 
L 169.218981 76.42339 
L 169.218981 76.42339 
" clip-path="url(#p7c1da9a495)" style="fill: none; stroke: #0000ff; stroke-linecap: square"/>
   </g>
   <g id="patch_5">
    <path d="M 118.151133 76.42339 
L 118.151133 9.02831 
" style="fill: none; stroke: #000000; stroke-linejoin: miter; stroke-linecap: square"/>
   </g>
   <g id="patch_6">
    <path d="M 121.458543 81.090424 
L 169.218981 81.090424 
" style="fill: none; stroke: #000000; stroke-linejoin: miter; stroke-linecap: square"/>
   </g>
  </g>
  <g id="axes_3">
   <g id="patch_7">
    <path d="M 204.5669 79.79309 
L 257.103382 79.79309 
L 257.103382 5.659693 
L 204.5669 5.659693 
L 204.5669 79.79309 
z
" style="fill: none"/>
   </g>
   <g id="matplotlib.axis_5">
    <g id="xtick_5">
     <g id="line2d_18">
      <g>
       <use xlink:href="#mc4919b4129" x="206.954922" y="81.090424" style="stroke: #000000"/>
      </g>
     </g>
     <g id="text_16">
      <!-- 0 -->
      <g transform="translate(204.728047 92.409331) scale(0.07 -0.07)">
       <use xlink:href="#DejaVuSans-30"/>
      </g>
     </g>
    </g>
    <g id="xtick_6">
     <g id="line2d_19">
      <g>
       <use xlink:href="#mc4919b4129" x="254.71536" y="81.090424" style="stroke: #000000"/>
      </g>
     </g>
     <g id="text_17">
      <!-- 5 -->
      <g transform="translate(252.488485 92.409331) scale(0.07 -0.07)">
       <use xlink:href="#DejaVuSans-35"/>
      </g>
     </g>
    </g>
    <g id="text_18">
     <!-- Time (ms) -->
     <g transform="translate(213.195688 93.184018) scale(0.07 -0.07)">
      <use xlink:href="#DejaVuSans-54"/>
      <use xlink:href="#DejaVuSans-69" x="57.958984"/>
      <use xlink:href="#DejaVuSans-6d" x="85.742188"/>
      <use xlink:href="#DejaVuSans-65" x="183.154297"/>
      <use xlink:href="#DejaVuSans-20" x="244.677734"/>
      <use xlink:href="#DejaVuSans-28" x="276.464844"/>
      <use xlink:href="#DejaVuSans-6d" x="315.478516"/>
      <use xlink:href="#DejaVuSans-73" x="412.890625"/>
      <use xlink:href="#DejaVuSans-29" x="464.990234"/>
     </g>
    </g>
   </g>
   <g id="matplotlib.axis_6">
    <g id="ytick_6">
     <g id="line2d_20">
      <g>
       <use xlink:href="#m362bf2931b" x="203.647512" y="78.234914" style="stroke: #000000"/>
      </g>
     </g>
     <g id="text_19">
      <!-- 0.000 -->
      <g transform="translate(177.607824 80.894368) scale(0.07 -0.07)">
       <defs>
        <path id="DejaVuSans-2e" d="M 684 794 
L 1344 794 
L 1344 0 
L 684 0 
L 684 794 
z
" transform="scale(0.015625)"/>
       </defs>
       <use xlink:href="#DejaVuSans-30"/>
       <use xlink:href="#DejaVuSans-2e" x="63.623047"/>
       <use xlink:href="#DejaVuSans-30" x="95.410156"/>
       <use xlink:href="#DejaVuSans-30" x="159.033203"/>
       <use xlink:href="#DejaVuSans-30" x="222.65625"/>
      </g>
     </g>
    </g>
    <g id="ytick_7">
     <g id="line2d_21">
      <g>
       <use xlink:href="#m362bf2931b" x="203.647512" y="5.659693" style="stroke: #000000"/>
      </g>
     </g>
     <g id="text_20">
      <!-- 0.945 -->
      <g transform="translate(177.607824 8.319146) scale(0.07 -0.07)">
       <defs>
        <path id="DejaVuSans-39" d="M 703 97 
L 703 672 
Q 941 559 1184 500 
Q 1428 441 1663 441 
Q 2288 441 2617 861 
Q 2947 1281 2994 2138 
Q 2813 1869 2534 1725 
Q 2256 1581 1919 1581 
Q 1219 1581 811 2004 
Q 403 2428 403 3163 
Q 403 3881 828 4315 
Q 1253 4750 1959 4750 
Q 2769 4750 3195 4129 
Q 3622 3509 3622 2328 
Q 3622 1225 3098 567 
Q 2575 -91 1691 -91 
Q 1453 -91 1209 -44 
Q 966 3 703 97 
z
M 1959 2075 
Q 2384 2075 2632 2365 
Q 2881 2656 2881 3163 
Q 2881 3666 2632 3958 
Q 2384 4250 1959 4250 
Q 1534 4250 1286 3958 
Q 1038 3666 1038 3163 
Q 1038 2656 1286 2365 
Q 1534 2075 1959 2075 
z
" transform="scale(0.015625)"/>
        <path id="DejaVuSans-34" d="M 2419 4116 
L 825 1625 
L 2419 1625 
L 2419 4116 
z
M 2253 4666 
L 3047 4666 
L 3047 1625 
L 3713 1625 
L 3713 1100 
L 3047 1100 
L 3047 0 
L 2419 0 
L 2419 1100 
L 313 1100 
L 313 1709 
L 2253 4666 
z
" transform="scale(0.015625)"/>
       </defs>
       <use xlink:href="#DejaVuSans-30"/>
       <use xlink:href="#DejaVuSans-2e" x="63.623047"/>
       <use xlink:href="#DejaVuSans-39" x="95.410156"/>
       <use xlink:href="#DejaVuSans-34" x="159.033203"/>
       <use xlink:href="#DejaVuSans-35" x="222.65625"/>
      </g>
     </g>
    </g>
    <g id="text_21">
     <!-- NMDAR P(open) -->
     <g transform="translate(186.152043 70.513657) rotate(-90) scale(0.07 -0.07)">
      <defs>
       <path id="DejaVuSans-4e" d="M 628 4666 
L 1478 4666 
L 3547 763 
L 3547 4666 
L 4159 4666 
L 4159 0 
L 3309 0 
L 1241 3903 
L 1241 0 
L 628 0 
L 628 4666 
z
" transform="scale(0.015625)"/>
       <path id="DejaVuSans-52" d="M 2841 2188 
Q 3044 2119 3236 1894 
Q 3428 1669 3622 1275 
L 4263 0 
L 3584 0 
L 2988 1197 
Q 2756 1666 2539 1819 
Q 2322 1972 1947 1972 
L 1259 1972 
L 1259 0 
L 628 0 
L 628 4666 
L 2053 4666 
Q 2853 4666 3247 4331 
Q 3641 3997 3641 3322 
Q 3641 2881 3436 2590 
Q 3231 2300 2841 2188 
z
M 1259 4147 
L 1259 2491 
L 2053 2491 
Q 2509 2491 2742 2702 
Q 2975 2913 2975 3322 
Q 2975 3731 2742 3939 
Q 2509 4147 2053 4147 
L 1259 4147 
z
" transform="scale(0.015625)"/>
      </defs>
      <use xlink:href="#DejaVuSans-4e"/>
      <use xlink:href="#DejaVuSans-4d" x="74.804688"/>
      <use xlink:href="#DejaVuSans-44" x="161.083984"/>
      <use xlink:href="#DejaVuSans-41" x="236.335938"/>
      <use xlink:href="#DejaVuSans-52" x="304.744141"/>
      <use xlink:href="#DejaVuSans-20" x="374.226562"/>
      <use xlink:href="#DejaVuSans-50" x="406.013672"/>
      <use xlink:href="#DejaVuSans-28" x="466.316406"/>
      <use xlink:href="#DejaVuSans-6f" x="505.330078"/>
      <use xlink:href="#DejaVuSans-70" x="566.511719"/>
      <use xlink:href="#DejaVuSans-65" x="629.988281"/>
      <use xlink:href="#DejaVuSans-6e" x="691.511719"/>
      <use xlink:href="#DejaVuSans-29" x="754.890625"/>
     </g>
    </g>
   </g>
   <g id="line2d_22">
    <path d="M 206.954922 75.549472 
L 211.836249 75.534935 
L 212.027674 75.142486 
L 212.314811 73.967423 
L 212.793372 70.795638 
L 213.367646 65.182227 
L 214.133344 55.267804 
L 216.143303 27.881926 
L 216.909001 20.901391 
L 217.578987 16.86066 
L 218.057549 15.078385 
L 218.440398 14.304671 
L 218.727535 14.134786 
L 218.918959 14.243915 
L 219.206096 14.805858 
L 219.493233 15.969674 
L 219.876082 18.841328 
L 220.258932 23.993332 
L 220.641781 32.636042 
L 221.120342 49.874758 
L 221.598904 67.582233 
L 221.886041 71.872673 
L 222.173178 73.852667 
L 222.556027 74.944343 
L 222.938876 75.333666 
L 223.51315 75.503511 
L 224.948834 75.54851 
L 254.71536 75.549472 
L 254.71536 75.549472 
" clip-path="url(#p0bb7b32ce1)" style="fill: none; stroke: #000000; stroke-linecap: square"/>
   </g>
   <g id="line2d_23">
    <path d="M 206.954922 75.549472 
L 211.836249 75.536381 
L 212.027674 75.181086 
L 212.410523 73.656975 
L 212.889084 70.588891 
L 213.463358 65.397889 
L 214.324769 55.2738 
L 216.239015 31.941248 
L 217.004713 25.426363 
L 217.674699 21.60361 
L 218.153261 19.982992 
L 218.53611 19.40605 
L 218.727535 19.387694 
L 218.918959 19.574822 
L 219.206096 20.304279 
L 219.493233 21.696278 
L 219.876082 24.936308 
L 220.258932 30.396307 
L 220.641781 38.920504 
L 221.216055 57.913279 
L 221.598904 69.031469 
L 221.886041 72.541481 
L 222.26889 74.476737 
L 222.651739 75.166904 
L 223.034588 75.413037 
L 223.704574 75.527017 
L 226.193094 75.549444 
L 254.71536 75.549472 
L 254.71536 75.549472 
" clip-path="url(#p0bb7b32ce1)" style="fill: none; stroke: #008080; stroke-linecap: square"/>
   </g>
   <g id="line2d_24">
    <path d="M 206.954922 75.549472 
L 211.931961 75.474544 
L 212.219098 75.031024 
L 212.69766 73.813587 
L 213.367646 71.450942 
L 214.324769 67.157059 
L 216.43044 57.33282 
L 217.100426 55.248021 
L 217.578987 54.365473 
L 217.961836 54.107204 
L 218.248973 54.211742 
L 218.53611 54.598125 
L 218.918959 55.589852 
L 219.397521 57.652433 
L 219.971795 61.34974 
L 220.928918 69.527631 
L 221.503191 73.826137 
L 221.886041 74.934882 
L 222.26889 75.330291 
L 222.747451 75.489067 
L 223.895999 75.546732 
L 241.315638 75.549472 
L 254.71536 75.549472 
L 254.71536 75.549472 
" clip-path="url(#p0bb7b32ce1)" style="fill: none; stroke: #0000ff; stroke-linecap: square"/>
   </g>
   <g id="patch_8">
    <path d="M 203.647512 78.234914 
L 203.647512 5.659693 
" style="fill: none; stroke: #000000; stroke-linejoin: miter; stroke-linecap: square"/>
   </g>
   <g id="patch_9">
    <path d="M 206.954922 81.090424 
L 254.71536 81.090424 
" style="fill: none; stroke: #000000; stroke-linejoin: miter; stroke-linecap: square"/>
   </g>
  </g>
  <g id="axes_4">
   <g id="patch_10">
    <path d="M 290.063278 79.79309 
L 342.59976 79.79309 
L 342.59976 5.659693 
L 290.063278 5.659693 
L 290.063278 79.79309 
z
" style="fill: none"/>
   </g>
   <g id="matplotlib.axis_7">
    <g id="xtick_7">
     <g id="line2d_25">
      <g>
       <use xlink:href="#mc4919b4129" x="292.4513" y="81.090424" style="stroke: #000000"/>
      </g>
     </g>
     <g id="text_22">
      <!-- 0 -->
      <g transform="translate(290.224425 92.409331) scale(0.07 -0.07)">
       <use xlink:href="#DejaVuSans-30"/>
      </g>
     </g>
    </g>
    <g id="xtick_8">
     <g id="line2d_26">
      <g>
       <use xlink:href="#mc4919b4129" x="340.211738" y="81.090424" style="stroke: #000000"/>
      </g>
     </g>
     <g id="text_23">
      <!-- 5 -->
      <g transform="translate(337.984863 92.409331) scale(0.07 -0.07)">
       <use xlink:href="#DejaVuSans-35"/>
      </g>
     </g>
    </g>
    <g id="text_24">
     <!-- Time (ms) -->
     <g transform="translate(298.692066 93.184018) scale(0.07 -0.07)">
      <use xlink:href="#DejaVuSans-54"/>
      <use xlink:href="#DejaVuSans-69" x="57.958984"/>
      <use xlink:href="#DejaVuSans-6d" x="85.742188"/>
      <use xlink:href="#DejaVuSans-65" x="183.154297"/>
      <use xlink:href="#DejaVuSans-20" x="244.677734"/>
      <use xlink:href="#DejaVuSans-28" x="276.464844"/>
      <use xlink:href="#DejaVuSans-6d" x="315.478516"/>
      <use xlink:href="#DejaVuSans-73" x="412.890625"/>
      <use xlink:href="#DejaVuSans-29" x="464.990234"/>
     </g>
    </g>
   </g>
   <g id="matplotlib.axis_8">
    <g id="ytick_8">
     <g id="line2d_27">
      <g>
       <use xlink:href="#m362bf2931b" x="289.14389" y="78.234914" style="stroke: #000000"/>
      </g>
     </g>
     <g id="text_25">
      <!-- 0.000 -->
      <g transform="translate(263.104203 80.894368) scale(0.07 -0.07)">
       <use xlink:href="#DejaVuSans-30"/>
       <use xlink:href="#DejaVuSans-2e" x="63.623047"/>
       <use xlink:href="#DejaVuSans-30" x="95.410156"/>
       <use xlink:href="#DejaVuSans-30" x="159.033203"/>
       <use xlink:href="#DejaVuSans-30" x="222.65625"/>
      </g>
     </g>
    </g>
    <g id="ytick_9">
     <g id="line2d_28">
      <g>
       <use xlink:href="#m362bf2931b" x="289.14389" y="5.659693" style="stroke: #000000"/>
      </g>
     </g>
     <g id="text_26">
      <!-- 0.945 -->
      <g transform="translate(263.104203 8.319146) scale(0.07 -0.07)">
       <use xlink:href="#DejaVuSans-30"/>
       <use xlink:href="#DejaVuSans-2e" x="63.623047"/>
       <use xlink:href="#DejaVuSans-39" x="95.410156"/>
       <use xlink:href="#DejaVuSans-34" x="159.033203"/>
       <use xlink:href="#DejaVuSans-35" x="222.65625"/>
      </g>
     </g>
    </g>
    <g id="text_27">
     <!-- VGCC P(open) -->
     <g transform="translate(271.648421 67.409595) rotate(-90) scale(0.07 -0.07)">
      <defs>
       <path id="DejaVuSans-47" d="M 3809 666 
L 3809 1919 
L 2778 1919 
L 2778 2438 
L 4434 2438 
L 4434 434 
Q 4069 175 3628 42 
Q 3188 -91 2688 -91 
Q 1594 -91 976 548 
Q 359 1188 359 2328 
Q 359 3472 976 4111 
Q 1594 4750 2688 4750 
Q 3144 4750 3555 4637 
Q 3966 4525 4313 4306 
L 4313 3634 
Q 3963 3931 3569 4081 
Q 3175 4231 2741 4231 
Q 1884 4231 1454 3753 
Q 1025 3275 1025 2328 
Q 1025 1384 1454 906 
Q 1884 428 2741 428 
Q 3075 428 3337 486 
Q 3600 544 3809 666 
z
" transform="scale(0.015625)"/>
       <path id="DejaVuSans-43" d="M 4122 4306 
L 4122 3641 
Q 3803 3938 3442 4084 
Q 3081 4231 2675 4231 
Q 1875 4231 1450 3742 
Q 1025 3253 1025 2328 
Q 1025 1406 1450 917 
Q 1875 428 2675 428 
Q 3081 428 3442 575 
Q 3803 722 4122 1019 
L 4122 359 
Q 3791 134 3420 21 
Q 3050 -91 2638 -91 
Q 1578 -91 968 557 
Q 359 1206 359 2328 
Q 359 3453 968 4101 
Q 1578 4750 2638 4750 
Q 3056 4750 3426 4639 
Q 3797 4528 4122 4306 
z
" transform="scale(0.015625)"/>
      </defs>
      <use xlink:href="#DejaVuSans-56"/>
      <use xlink:href="#DejaVuSans-47" x="68.408203"/>
      <use xlink:href="#DejaVuSans-43" x="145.898438"/>
      <use xlink:href="#DejaVuSans-43" x="215.722656"/>
      <use xlink:href="#DejaVuSans-20" x="285.546875"/>
      <use xlink:href="#DejaVuSans-50" x="317.333984"/>
      <use xlink:href="#DejaVuSans-28" x="377.636719"/>
      <use xlink:href="#DejaVuSans-6f" x="416.650391"/>
      <use xlink:href="#DejaVuSans-70" x="477.832031"/>
      <use xlink:href="#DejaVuSans-65" x="541.308594"/>
      <use xlink:href="#DejaVuSans-6e" x="602.832031"/>
      <use xlink:href="#DejaVuSans-29" x="666.210938"/>
     </g>
    </g>
   </g>
   <g id="line2d_29">
    <path d="M 292.4513 78.234914 
L 299.055449 78.157419 
L 299.438298 77.867494 
L 299.821147 77.16306 
L 300.203997 75.898894 
L 300.682558 73.474002 
L 301.352544 68.800193 
L 303.362503 53.794992 
L 304.128201 50.037034 
L 304.702475 48.200563 
L 305.181036 47.332652 
L 305.563885 47.078517 
L 305.946735 47.159281 
L 306.329584 47.519401 
L 306.616721 48.082257 
L 306.99957 49.538974 
L 308.24383 54.332142 
L 309.583802 58.602622 
L 310.923774 62.110116 
L 312.263746 64.990945 
L 313.603719 67.357073 
L 314.943691 69.30046 
L 316.379375 70.999076 
L 317.910772 72.456541 
L 319.537881 73.684839 
L 321.260703 74.70204 
L 323.174949 75.567869 
L 325.280619 76.277304 
L 327.769139 76.876573 
L 330.73622 77.356341 
L 334.469 77.727068 
L 339.541752 77.993769 
L 340.211738 78.016358 
L 340.211738 78.016358 
" clip-path="url(#pcb977fb88c)" style="fill: none; stroke: #000000; stroke-linecap: square"/>
   </g>
   <g id="line2d_30">
    <path d="M 292.4513 78.234914 
L 299.246874 78.157031 
L 299.629723 77.907416 
L 300.012572 77.330476 
L 300.395421 76.315947 
L 300.873983 74.38078 
L 301.543969 70.622924 
L 303.841064 56.77352 
L 304.51105 54.400039 
L 304.989612 53.412836 
L 305.372461 53.066588 
L 305.75531 53.055281 
L 306.138159 53.27752 
L 306.521008 53.775932 
L 306.808145 54.499269 
L 308.148118 58.739891 
L 309.48809 62.222862 
L 310.828062 65.083548 
L 312.168034 67.433132 
L 313.508006 69.362932 
L 314.943691 71.04967 
L 316.475088 72.496945 
L 318.102197 73.716655 
L 319.825018 74.726742 
L 321.739264 75.586518 
L 323.940647 76.318125 
L 326.429167 76.904898 
L 329.491961 77.386666 
L 333.320453 77.751438 
L 338.584629 78.011701 
L 340.211738 78.059127 
L 340.211738 78.059127 
" clip-path="url(#pcb977fb88c)" style="fill: none; stroke: #008080; stroke-linecap: square"/>
   </g>
   <g id="line2d_31">
    <path d="M 292.4513 78.234914 
L 302.118243 78.125575 
L 304.989612 77.865896 
L 308.339542 77.970514 
L 315.709389 78.145284 
L 330.257659 78.224299 
L 340.211738 78.232439 
L 340.211738 78.232439 
" clip-path="url(#pcb977fb88c)" style="fill: none; stroke: #0000ff; stroke-linecap: square"/>
   </g>
   <g id="patch_11">
    <path d="M 289.14389 78.234914 
L 289.14389 5.659693 
" style="fill: none; stroke: #000000; stroke-linejoin: miter; stroke-linecap: square"/>
   </g>
   <g id="patch_12">
    <path d="M 292.4513 81.090424 
L 340.211738 81.090424 
" style="fill: none; stroke: #000000; stroke-linejoin: miter; stroke-linecap: square"/>
   </g>
   <g id="text_28">
    <!-- proximal -->
    <g transform="translate(309.842676 10.494264) scale(0.07 -0.07)">
     <defs>
      <path id="DejaVuSans-78" d="M 3513 3500 
L 2247 1797 
L 3578 0 
L 2900 0 
L 1881 1375 
L 863 0 
L 184 0 
L 1544 1831 
L 300 3500 
L 978 3500 
L 1906 2253 
L 2834 3500 
L 3513 3500 
z
" transform="scale(0.015625)"/>
     </defs>
     <use xlink:href="#DejaVuSans-70"/>
     <use xlink:href="#DejaVuSans-72" x="63.476562"/>
     <use xlink:href="#DejaVuSans-6f" x="102.339844"/>
     <use xlink:href="#DejaVuSans-78" x="160.396484"/>
     <use xlink:href="#DejaVuSans-69" x="219.576172"/>
     <use xlink:href="#DejaVuSans-6d" x="247.359375"/>
     <use xlink:href="#DejaVuSans-61" x="344.771484"/>
     <use xlink:href="#DejaVuSans-6c" x="406.050781"/>
    </g>
   </g>
   <g id="text_29">
    <!-- distal-simple -->
    <g style="fill: #008080" transform="translate(295.567051 17.751787) scale(0.07 -0.07)">
     <defs>
      <path id="DejaVuSans-2d" d="M 313 2009 
L 1997 2009 
L 1997 1497 
L 313 1497 
L 313 2009 
z
" transform="scale(0.015625)"/>
     </defs>
     <use xlink:href="#DejaVuSans-64"/>
     <use xlink:href="#DejaVuSans-69" x="63.476562"/>
     <use xlink:href="#DejaVuSans-73" x="91.259766"/>
     <use xlink:href="#DejaVuSans-74" x="143.359375"/>
     <use xlink:href="#DejaVuSans-61" x="182.568359"/>
     <use xlink:href="#DejaVuSans-6c" x="243.847656"/>
     <use xlink:href="#DejaVuSans-2d" x="271.630859"/>
     <use xlink:href="#DejaVuSans-73" x="307.714844"/>
     <use xlink:href="#DejaVuSans-69" x="359.814453"/>
     <use xlink:href="#DejaVuSans-6d" x="387.597656"/>
     <use xlink:href="#DejaVuSans-70" x="485.009766"/>
     <use xlink:href="#DejaVuSans-6c" x="548.486328"/>
     <use xlink:href="#DejaVuSans-65" x="576.269531"/>
    </g>
   </g>
   <g id="text_30">
    <!-- distal-complex -->
    <g style="fill: #0000ff" transform="translate(289.005644 25.009309) scale(0.07 -0.07)">
     <use xlink:href="#DejaVuSans-64"/>
     <use xlink:href="#DejaVuSans-69" x="63.476562"/>
     <use xlink:href="#DejaVuSans-73" x="91.259766"/>
     <use xlink:href="#DejaVuSans-74" x="143.359375"/>
     <use xlink:href="#DejaVuSans-61" x="182.568359"/>
     <use xlink:href="#DejaVuSans-6c" x="243.847656"/>
     <use xlink:href="#DejaVuSans-2d" x="271.630859"/>
     <use xlink:href="#DejaVuSans-63" x="307.714844"/>
     <use xlink:href="#DejaVuSans-6f" x="362.695312"/>
     <use xlink:href="#DejaVuSans-6d" x="423.876953"/>
     <use xlink:href="#DejaVuSans-70" x="521.289062"/>
     <use xlink:href="#DejaVuSans-6c" x="584.765625"/>
     <use xlink:href="#DejaVuSans-65" x="612.548828"/>
     <use xlink:href="#DejaVuSans-78" x="672.322266"/>
    </g>
   </g>
  </g>
 </g>
 <defs>
  <clipPath id="pbcaf6660c4">
   <rect x="26.014188" y="5.659693" width="52.536482" height="74.133397"/>
  </clipPath>
  <clipPath id="p7c1da9a495">
   <rect x="119.070522" y="5.659693" width="52.536482" height="74.133397"/>
  </clipPath>
  <clipPath id="p0bb7b32ce1">
   <rect x="204.5669" y="5.659693" width="52.536482" height="74.133397"/>
  </clipPath>
  <clipPath id="pcb977fb88c">
   <rect x="290.063278" y="5.659693" width="52.536482" height="74.133397"/>
  </clipPath>
 </defs>
</svg>
