<?xml version="1.0" encoding="utf-8" standalone="no"?>
<!DOCTYPE svg PUBLIC "-//W3C//DTD SVG 1.1//EN"
  "http://www.w3.org/Graphics/SVG/1.1/DTD/svg11.dtd">
<svg xmlns:xlink="http://www.w3.org/1999/xlink" width="576pt" height="251.712pt" viewBox="0 0 576 251.712" xmlns="http://www.w3.org/2000/svg" version="1.1">
 <metadata>
  <rdf:RDF xmlns:dc="http://purl.org/dc/elements/1.1/" xmlns:cc="http://creativecommons.org/ns#" xmlns:rdf="http://www.w3.org/1999/02/22-rdf-syntax-ns#">
   <cc:Work>
    <dc:type rdf:resource="http://purl.org/dc/dcmitype/StillImage"/>
    <dc:date>2025-03-25T16:28:17.844963</dc:date>
    <dc:format>image/svg+xml</dc:format>
    <dc:creator>
     <cc:Agent>
      <dc:title>Matplotlib v3.10.1, https://matplotlib.org/</dc:title>
     </cc:Agent>
    </dc:creator>
   </cc:Work>
  </rdf:RDF>
 </metadata>
 <defs>
  <style type="text/css">*{stroke-linejoin: round; stroke-linecap: butt}</style>
 </defs>
 <g id="figure_1">
  <g id="patch_1">
   <path d="M 0 251.712 
L 576 251.712 
L 576 0 
L 0 0 
z
" style="fill: #ffffff"/>
  </g>
  <g id="axes_1">
   <g id="patch_2">
    <path d="M 72 224.02368 
L 203.294118 224.02368 
L 203.294118 30.20544 
L 72 30.20544 
z
" style="fill: #ffffff"/>
   </g>
   <g id="matplotlib.axis_1">
    <g id="xtick_1">
     <g id="line2d_1">
      <defs>
       <path id="m0fef1899a1" d="M 0 0 
L 0 3.5 
" style="stroke: #000000; stroke-width: 0.8"/>
      </defs>
      <g>
       <use xlink:href="#m0fef1899a1" x="77.967914" y="224.02368" style="stroke: #000000; stroke-width: 0.8"/>
      </g>
     </g>
     <g id="text_1">
      <!-- 0 -->
      <g transform="translate(74.786664 238.622118) scale(0.1 -0.1)">
       <defs>
        <path id="DejaVuSans-30" d="M 2034 4250 
Q 1547 4250 1301 3770 
Q 1056 3291 1056 2328 
Q 1056 1369 1301 889 
Q 1547 409 2034 409 
Q 2525 409 2770 889 
Q 3016 1369 3016 2328 
Q 3016 3291 2770 3770 
Q 2525 4250 2034 4250 
z
M 2034 4750 
Q 2819 4750 3233 4129 
Q 3647 3509 3647 2328 
Q 3647 1150 3233 529 
Q 2819 -91 2034 -91 
Q 1250 -91 836 529 
Q 422 1150 422 2328 
Q 422 3509 836 4129 
Q 1250 4750 2034 4750 
z
" transform="scale(0.015625)"/>
       </defs>
       <use xlink:href="#DejaVuSans-30"/>
      </g>
     </g>
    </g>
    <g id="xtick_2">
     <g id="line2d_2">
      <g>
       <use xlink:href="#m0fef1899a1" x="117.754011" y="224.02368" style="stroke: #000000; stroke-width: 0.8"/>
      </g>
     </g>
     <g id="text_2">
      <!-- 1 -->
      <g transform="translate(114.572761 238.622118) scale(0.1 -0.1)">
       <defs>
        <path id="DejaVuSans-31" d="M 794 531 
L 1825 531 
L 1825 4091 
L 703 3866 
L 703 4441 
L 1819 4666 
L 2450 4666 
L 2450 531 
L 3481 531 
L 3481 0 
L 794 0 
L 794 531 
z
" transform="scale(0.015625)"/>
       </defs>
       <use xlink:href="#DejaVuSans-31"/>
      </g>
     </g>
    </g>
    <g id="xtick_3">
     <g id="line2d_3">
      <g>
       <use xlink:href="#m0fef1899a1" x="157.540107" y="224.02368" style="stroke: #000000; stroke-width: 0.8"/>
      </g>
     </g>
     <g id="text_3">
      <!-- 2 -->
      <g transform="translate(154.358857 238.622118) scale(0.1 -0.1)">
       <defs>
        <path id="DejaVuSans-32" d="M 1228 531 
L 3431 531 
L 3431 0 
L 469 0 
L 469 531 
Q 828 903 1448 1529 
Q 2069 2156 2228 2338 
Q 2531 2678 2651 2914 
Q 2772 3150 2772 3378 
Q 2772 3750 2511 3984 
Q 2250 4219 1831 4219 
Q 1534 4219 1204 4116 
Q 875 4013 500 3803 
L 500 4441 
Q 881 4594 1212 4672 
Q 1544 4750 1819 4750 
Q 2544 4750 2975 4387 
Q 3406 4025 3406 3419 
Q 3406 3131 3298 2873 
Q 3191 2616 2906 2266 
Q 2828 2175 2409 1742 
Q 1991 1309 1228 531 
z
" transform="scale(0.015625)"/>
       </defs>
       <use xlink:href="#DejaVuSans-32"/>
      </g>
     </g>
    </g>
    <g id="xtick_4">
     <g id="line2d_4">
      <g>
       <use xlink:href="#m0fef1899a1" x="197.326203" y="224.02368" style="stroke: #000000; stroke-width: 0.8"/>
      </g>
     </g>
     <g id="text_4">
      <!-- 3 -->
      <g transform="translate(194.144953 238.622118) scale(0.1 -0.1)">
       <defs>
        <path id="DejaVuSans-33" d="M 2597 2516 
Q 3050 2419 3304 2112 
Q 3559 1806 3559 1356 
Q 3559 666 3084 287 
Q 2609 -91 1734 -91 
Q 1441 -91 1130 -33 
Q 819 25 488 141 
L 488 750 
Q 750 597 1062 519 
Q 1375 441 1716 441 
Q 2309 441 2620 675 
Q 2931 909 2931 1356 
Q 2931 1769 2642 2001 
Q 2353 2234 1838 2234 
L 1294 2234 
L 1294 2753 
L 1863 2753 
Q 2328 2753 2575 2939 
Q 2822 3125 2822 3475 
Q 2822 3834 2567 4026 
Q 2313 4219 1838 4219 
Q 1578 4219 1281 4162 
Q 984 4106 628 3988 
L 628 4550 
Q 988 4650 1302 4700 
Q 1616 4750 1894 4750 
Q 2613 4750 3031 4423 
Q 3450 4097 3450 3541 
Q 3450 3153 3228 2886 
Q 3006 2619 2597 2516 
z
" transform="scale(0.015625)"/>
       </defs>
       <use xlink:href="#DejaVuSans-33"/>
      </g>
     </g>
    </g>
    <g id="text_5">
     <!-- Time (ms) -->
     <g transform="translate(112.44784 252.300242) scale(0.1 -0.1)">
      <defs>
       <path id="DejaVuSans-54" d="M -19 4666 
L 3928 4666 
L 3928 4134 
L 2272 4134 
L 2272 0 
L 1638 0 
L 1638 4134 
L -19 4134 
L -19 4666 
z
" transform="scale(0.015625)"/>
       <path id="DejaVuSans-69" d="M 603 3500 
L 1178 3500 
L 1178 0 
L 603 0 
L 603 3500 
z
M 603 4863 
L 1178 4863 
L 1178 4134 
L 603 4134 
L 603 4863 
z
" transform="scale(0.015625)"/>
       <path id="DejaVuSans-6d" d="M 3328 2828 
Q 3544 3216 3844 3400 
Q 4144 3584 4550 3584 
Q 5097 3584 5394 3201 
Q 5691 2819 5691 2113 
L 5691 0 
L 5113 0 
L 5113 2094 
Q 5113 2597 4934 2840 
Q 4756 3084 4391 3084 
Q 3944 3084 3684 2787 
Q 3425 2491 3425 1978 
L 3425 0 
L 2847 0 
L 2847 2094 
Q 2847 2600 2669 2842 
Q 2491 3084 2119 3084 
Q 1678 3084 1418 2786 
Q 1159 2488 1159 1978 
L 1159 0 
L 581 0 
L 581 3500 
L 1159 3500 
L 1159 2956 
Q 1356 3278 1631 3431 
Q 1906 3584 2284 3584 
Q 2666 3584 2933 3390 
Q 3200 3197 3328 2828 
z
" transform="scale(0.015625)"/>
       <path id="DejaVuSans-65" d="M 3597 1894 
L 3597 1613 
L 953 1613 
Q 991 1019 1311 708 
Q 1631 397 2203 397 
Q 2534 397 2845 478 
Q 3156 559 3463 722 
L 3463 178 
Q 3153 47 2828 -22 
Q 2503 -91 2169 -91 
Q 1331 -91 842 396 
Q 353 884 353 1716 
Q 353 2575 817 3079 
Q 1281 3584 2069 3584 
Q 2775 3584 3186 3129 
Q 3597 2675 3597 1894 
z
M 3022 2063 
Q 3016 2534 2758 2815 
Q 2500 3097 2075 3097 
Q 1594 3097 1305 2825 
Q 1016 2553 972 2059 
L 3022 2063 
z
" transform="scale(0.015625)"/>
       <path id="DejaVuSans-20" transform="scale(0.015625)"/>
       <path id="DejaVuSans-28" d="M 1984 4856 
Q 1566 4138 1362 3434 
Q 1159 2731 1159 2009 
Q 1159 1288 1364 580 
Q 1569 -128 1984 -844 
L 1484 -844 
Q 1016 -109 783 600 
Q 550 1309 550 2009 
Q 550 2706 781 3412 
Q 1013 4119 1484 4856 
L 1984 4856 
z
" transform="scale(0.015625)"/>
       <path id="DejaVuSans-73" d="M 2834 3397 
L 2834 2853 
Q 2591 2978 2328 3040 
Q 2066 3103 1784 3103 
Q 1356 3103 1142 2972 
Q 928 2841 928 2578 
Q 928 2378 1081 2264 
Q 1234 2150 1697 2047 
L 1894 2003 
Q 2506 1872 2764 1633 
Q 3022 1394 3022 966 
Q 3022 478 2636 193 
Q 2250 -91 1575 -91 
Q 1294 -91 989 -36 
Q 684 19 347 128 
L 347 722 
Q 666 556 975 473 
Q 1284 391 1588 391 
Q 1994 391 2212 530 
Q 2431 669 2431 922 
Q 2431 1156 2273 1281 
Q 2116 1406 1581 1522 
L 1381 1569 
Q 847 1681 609 1914 
Q 372 2147 372 2553 
Q 372 3047 722 3315 
Q 1072 3584 1716 3584 
Q 2034 3584 2315 3537 
Q 2597 3491 2834 3397 
z
" transform="scale(0.015625)"/>
       <path id="DejaVuSans-29" d="M 513 4856 
L 1013 4856 
Q 1481 4119 1714 3412 
Q 1947 2706 1947 2009 
Q 1947 1309 1714 600 
Q 1481 -109 1013 -844 
L 513 -844 
Q 928 -128 1133 580 
Q 1338 1288 1338 2009 
Q 1338 2731 1133 3434 
Q 928 4138 513 4856 
z
" transform="scale(0.015625)"/>
      </defs>
      <use xlink:href="#DejaVuSans-54"/>
      <use xlink:href="#DejaVuSans-69" transform="translate(57.958984 0)"/>
      <use xlink:href="#DejaVuSans-6d" transform="translate(85.742188 0)"/>
      <use xlink:href="#DejaVuSans-65" transform="translate(183.154297 0)"/>
      <use xlink:href="#DejaVuSans-20" transform="translate(244.677734 0)"/>
      <use xlink:href="#DejaVuSans-28" transform="translate(276.464844 0)"/>
      <use xlink:href="#DejaVuSans-6d" transform="translate(315.478516 0)"/>
      <use xlink:href="#DejaVuSans-73" transform="translate(412.890625 0)"/>
      <use xlink:href="#DejaVuSans-29" transform="translate(464.990234 0)"/>
     </g>
    </g>
   </g>
   <g id="matplotlib.axis_2">
    <g id="ytick_1">
     <g id="line2d_5">
      <defs>
       <path id="mea7981a7b2" d="M 0 0 
L -3.5 0 
" style="stroke: #000000; stroke-width: 0.8"/>
      </defs>
      <g>
       <use xlink:href="#mea7981a7b2" x="72" y="197.593132" style="stroke: #000000; stroke-width: 0.8"/>
      </g>
     </g>
     <g id="text_6">
      <!-- −60 -->
      <g transform="translate(43.895313 201.39235) scale(0.1 -0.1)">
       <defs>
        <path id="DejaVuSans-2212" d="M 678 2272 
L 4684 2272 
L 4684 1741 
L 678 1741 
L 678 2272 
z
" transform="scale(0.015625)"/>
        <path id="DejaVuSans-36" d="M 2113 2584 
Q 1688 2584 1439 2293 
Q 1191 2003 1191 1497 
Q 1191 994 1439 701 
Q 1688 409 2113 409 
Q 2538 409 2786 701 
Q 3034 994 3034 1497 
Q 3034 2003 2786 2293 
Q 2538 2584 2113 2584 
z
M 3366 4563 
L 3366 3988 
Q 3128 4100 2886 4159 
Q 2644 4219 2406 4219 
Q 1781 4219 1451 3797 
Q 1122 3375 1075 2522 
Q 1259 2794 1537 2939 
Q 1816 3084 2150 3084 
Q 2853 3084 3261 2657 
Q 3669 2231 3669 1497 
Q 3669 778 3244 343 
Q 2819 -91 2113 -91 
Q 1303 -91 875 529 
Q 447 1150 447 2328 
Q 447 3434 972 4092 
Q 1497 4750 2381 4750 
Q 2619 4750 2861 4703 
Q 3103 4656 3366 4563 
z
" transform="scale(0.015625)"/>
       </defs>
       <use xlink:href="#DejaVuSans-2212"/>
       <use xlink:href="#DejaVuSans-36" transform="translate(83.789062 0)"/>
       <use xlink:href="#DejaVuSans-30" transform="translate(147.412109 0)"/>
      </g>
     </g>
    </g>
    <g id="ytick_2">
     <g id="line2d_6">
      <g>
       <use xlink:href="#mea7981a7b2" x="72" y="162.351875" style="stroke: #000000; stroke-width: 0.8"/>
      </g>
     </g>
     <g id="text_7">
      <!-- −40 -->
      <g transform="translate(43.895313 166.151094) scale(0.1 -0.1)">
       <defs>
        <path id="DejaVuSans-34" d="M 2419 4116 
L 825 1625 
L 2419 1625 
L 2419 4116 
z
M 2253 4666 
L 3047 4666 
L 3047 1625 
L 3713 1625 
L 3713 1100 
L 3047 1100 
L 3047 0 
L 2419 0 
L 2419 1100 
L 313 1100 
L 313 1709 
L 2253 4666 
z
" transform="scale(0.015625)"/>
       </defs>
       <use xlink:href="#DejaVuSans-2212"/>
       <use xlink:href="#DejaVuSans-34" transform="translate(83.789062 0)"/>
       <use xlink:href="#DejaVuSans-30" transform="translate(147.412109 0)"/>
      </g>
     </g>
    </g>
    <g id="ytick_3">
     <g id="line2d_7">
      <g>
       <use xlink:href="#mea7981a7b2" x="72" y="127.110618" style="stroke: #000000; stroke-width: 0.8"/>
      </g>
     </g>
     <g id="text_8">
      <!-- −20 -->
      <g transform="translate(43.895313 130.909837) scale(0.1 -0.1)">
       <use xlink:href="#DejaVuSans-2212"/>
       <use xlink:href="#DejaVuSans-32" transform="translate(83.789062 0)"/>
       <use xlink:href="#DejaVuSans-30" transform="translate(147.412109 0)"/>
      </g>
     </g>
    </g>
    <g id="ytick_4">
     <g id="line2d_8">
      <g>
       <use xlink:href="#mea7981a7b2" x="72" y="91.869361" style="stroke: #000000; stroke-width: 0.8"/>
      </g>
     </g>
     <g id="text_9">
      <!-- 0 -->
      <g transform="translate(58.6375 95.66858) scale(0.1 -0.1)">
       <use xlink:href="#DejaVuSans-30"/>
      </g>
     </g>
    </g>
    <g id="ytick_5">
     <g id="line2d_9">
      <g>
       <use xlink:href="#mea7981a7b2" x="72" y="56.628105" style="stroke: #000000; stroke-width: 0.8"/>
      </g>
     </g>
     <g id="text_10">
      <!-- 20 -->
      <g transform="translate(52.275 60.427323) scale(0.1 -0.1)">
       <use xlink:href="#DejaVuSans-32"/>
       <use xlink:href="#DejaVuSans-30" transform="translate(63.623047 0)"/>
      </g>
     </g>
    </g>
    <g id="text_11">
     <!-- Voltage (mV) -->
     <g transform="translate(37.815625 159.65206) rotate(-90) scale(0.1 -0.1)">
      <defs>
       <path id="DejaVuSans-56" d="M 1831 0 
L 50 4666 
L 709 4666 
L 2188 738 
L 3669 4666 
L 4325 4666 
L 2547 0 
L 1831 0 
z
" transform="scale(0.015625)"/>
       <path id="DejaVuSans-6f" d="M 1959 3097 
Q 1497 3097 1228 2736 
Q 959 2375 959 1747 
Q 959 1119 1226 758 
Q 1494 397 1959 397 
Q 2419 397 2687 759 
Q 2956 1122 2956 1747 
Q 2956 2369 2687 2733 
Q 2419 3097 1959 3097 
z
M 1959 3584 
Q 2709 3584 3137 3096 
Q 3566 2609 3566 1747 
Q 3566 888 3137 398 
Q 2709 -91 1959 -91 
Q 1206 -91 779 398 
Q 353 888 353 1747 
Q 353 2609 779 3096 
Q 1206 3584 1959 3584 
z
" transform="scale(0.015625)"/>
       <path id="DejaVuSans-6c" d="M 603 4863 
L 1178 4863 
L 1178 0 
L 603 0 
L 603 4863 
z
" transform="scale(0.015625)"/>
       <path id="DejaVuSans-74" d="M 1172 4494 
L 1172 3500 
L 2356 3500 
L 2356 3053 
L 1172 3053 
L 1172 1153 
Q 1172 725 1289 603 
Q 1406 481 1766 481 
L 2356 481 
L 2356 0 
L 1766 0 
Q 1100 0 847 248 
Q 594 497 594 1153 
L 594 3053 
L 172 3053 
L 172 3500 
L 594 3500 
L 594 4494 
L 1172 4494 
z
" transform="scale(0.015625)"/>
       <path id="DejaVuSans-61" d="M 2194 1759 
Q 1497 1759 1228 1600 
Q 959 1441 959 1056 
Q 959 750 1161 570 
Q 1363 391 1709 391 
Q 2188 391 2477 730 
Q 2766 1069 2766 1631 
L 2766 1759 
L 2194 1759 
z
M 3341 1997 
L 3341 0 
L 2766 0 
L 2766 531 
Q 2569 213 2275 61 
Q 1981 -91 1556 -91 
Q 1019 -91 701 211 
Q 384 513 384 1019 
Q 384 1609 779 1909 
Q 1175 2209 1959 2209 
L 2766 2209 
L 2766 2266 
Q 2766 2663 2505 2880 
Q 2244 3097 1772 3097 
Q 1472 3097 1187 3025 
Q 903 2953 641 2809 
L 641 3341 
Q 956 3463 1253 3523 
Q 1550 3584 1831 3584 
Q 2591 3584 2966 3190 
Q 3341 2797 3341 1997 
z
" transform="scale(0.015625)"/>
       <path id="DejaVuSans-67" d="M 2906 1791 
Q 2906 2416 2648 2759 
Q 2391 3103 1925 3103 
Q 1463 3103 1205 2759 
Q 947 2416 947 1791 
Q 947 1169 1205 825 
Q 1463 481 1925 481 
Q 2391 481 2648 825 
Q 2906 1169 2906 1791 
z
M 3481 434 
Q 3481 -459 3084 -895 
Q 2688 -1331 1869 -1331 
Q 1566 -1331 1297 -1286 
Q 1028 -1241 775 -1147 
L 775 -588 
Q 1028 -725 1275 -790 
Q 1522 -856 1778 -856 
Q 2344 -856 2625 -561 
Q 2906 -266 2906 331 
L 2906 616 
Q 2728 306 2450 153 
Q 2172 0 1784 0 
Q 1141 0 747 490 
Q 353 981 353 1791 
Q 353 2603 747 3093 
Q 1141 3584 1784 3584 
Q 2172 3584 2450 3431 
Q 2728 3278 2906 2969 
L 2906 3500 
L 3481 3500 
L 3481 434 
z
" transform="scale(0.015625)"/>
      </defs>
      <use xlink:href="#DejaVuSans-56"/>
      <use xlink:href="#DejaVuSans-6f" transform="translate(60.658203 0)"/>
      <use xlink:href="#DejaVuSans-6c" transform="translate(121.839844 0)"/>
      <use xlink:href="#DejaVuSans-74" transform="translate(149.623047 0)"/>
      <use xlink:href="#DejaVuSans-61" transform="translate(188.832031 0)"/>
      <use xlink:href="#DejaVuSans-67" transform="translate(250.111328 0)"/>
      <use xlink:href="#DejaVuSans-65" transform="translate(313.587891 0)"/>
      <use xlink:href="#DejaVuSans-20" transform="translate(375.111328 0)"/>
      <use xlink:href="#DejaVuSans-28" transform="translate(406.898438 0)"/>
      <use xlink:href="#DejaVuSans-6d" transform="translate(445.912109 0)"/>
      <use xlink:href="#DejaVuSans-56" transform="translate(543.324219 0)"/>
      <use xlink:href="#DejaVuSans-29" transform="translate(611.732422 0)"/>
     </g>
    </g>
   </g>
   <g id="line2d_10">
    <path d="M 77.967914 215.21376 
L 97.528303 215.21376 
L 97.927495 214.978427 
L 99.923453 208.285028 
L 101.919411 202.301177 
L 103.915369 197.026873 
L 105.911327 192.462117 
L 107.508093 189.321187 
L 109.104859 186.634367 
L 110.701626 184.401657 
L 112.298392 182.623058 
L 113.495967 181.587118 
L 114.693542 180.806616 
L 115.891117 180.281551 
L 117.088691 180.011923 
L 118.286266 179.997732 
L 119.483841 180.238978 
L 120.681416 180.735661 
L 121.878991 181.487781 
L 123.076565 182.495339 
L 124.27414 183.758334 
L 125.870907 185.839673 
L 127.467673 188.375123 
L 129.064439 191.364684 
L 130.661206 194.808355 
L 132.257972 198.706136 
L 134.25393 204.216955 
L 136.249888 210.437322 
L 137.447463 214.510125 
L 137.846655 215.21376 
L 197.326203 215.21376 
L 197.326203 215.21376 
" clip-path="url(#p659cb82c85)" style="fill: none; stroke: #000000; stroke-width: 1.5; stroke-linecap: square"/>
   </g>
   <g id="line2d_11">
    <path d="M 77.967914 215.21376 
L 97.528303 215.21376 
L 97.927495 214.743093 
L 99.923453 201.356296 
L 101.919411 189.388594 
L 103.915369 178.839986 
L 105.512135 171.422849 
L 107.108901 164.913933 
L 108.705668 159.313237 
L 110.302434 154.620763 
L 111.500009 151.697427 
L 112.697584 149.284965 
L 113.895159 147.383378 
L 115.092733 145.992664 
L 115.891117 145.349341 
L 116.6895 144.933073 
L 117.487883 144.743861 
L 118.286266 144.781703 
L 119.084649 145.046601 
L 119.883033 145.538554 
L 120.681416 146.257562 
L 121.479799 147.203626 
L 122.677374 149.048449 
L 123.874949 151.404147 
L 125.072523 154.270719 
L 126.270098 157.648166 
L 127.866865 162.946121 
L 129.463631 169.152297 
L 131.060397 176.266694 
L 132.657164 184.289312 
L 134.653122 195.59477 
L 136.64908 208.319323 
L 137.447463 213.806491 
L 137.846655 215.21376 
L 197.326203 215.21376 
L 197.326203 215.21376 
" clip-path="url(#p659cb82c85)" style="fill: none; stroke: #000000; stroke-width: 1.5; stroke-linecap: square"/>
   </g>
   <g id="line2d_12">
    <path d="M 77.967914 215.21376 
L 97.528303 215.21376 
L 97.927495 214.50776 
L 99.923453 194.427564 
L 101.919411 176.47601 
L 103.915369 160.6531 
L 105.512135 149.527394 
L 107.108901 139.764019 
L 108.705668 131.362976 
L 110.302434 124.324264 
L 111.500009 119.93926 
L 112.697584 116.320568 
L 113.895159 113.468186 
L 114.693542 111.992327 
L 115.491925 110.857051 
L 116.290308 110.062358 
L 117.088691 109.608248 
L 117.887075 109.49472 
L 118.685458 109.721775 
L 119.483841 110.289413 
L 120.282224 111.197634 
L 121.080607 112.446438 
L 121.878991 114.035824 
L 123.076565 117.058497 
L 124.27414 120.847481 
L 125.471715 125.402776 
L 126.66929 130.724383 
L 128.266056 139.011899 
L 129.862823 148.661746 
L 131.459589 159.673924 
L 133.056355 172.048434 
L 135.052313 189.432349 
L 137.048271 208.944907 
L 137.447463 213.102856 
L 137.846655 215.21376 
L 197.326203 215.21376 
L 197.326203 215.21376 
" clip-path="url(#p659cb82c85)" style="fill: none; stroke: #000000; stroke-width: 1.5; stroke-linecap: square"/>
   </g>
   <g id="line2d_13">
    <path d="M 77.967914 215.21376 
L 97.528303 215.21376 
L 97.927495 214.272427 
L 99.923453 187.498832 
L 101.919411 163.563427 
L 103.915369 142.466213 
L 105.512135 127.631938 
L 107.108901 114.614106 
L 108.705668 103.412715 
L 110.302434 94.027766 
L 111.500009 88.181094 
L 112.697584 83.35617 
L 113.895159 79.552995 
L 114.693542 77.585183 
L 115.491925 76.071482 
L 116.290308 75.011891 
L 117.088691 74.40641 
L 117.887075 74.25504 
L 118.685458 74.55778 
L 119.483841 75.314631 
L 120.282224 76.525592 
L 121.080607 78.190664 
L 121.878991 80.309846 
L 123.076565 84.340076 
L 124.27414 89.392055 
L 125.471715 95.465782 
L 126.66929 102.561258 
L 128.266056 113.611278 
L 129.862823 126.477741 
L 131.459589 141.160645 
L 133.056355 157.659992 
L 135.052313 180.838545 
L 137.048271 206.85529 
L 137.447463 212.399221 
L 137.846655 215.21376 
L 197.326203 215.21376 
L 197.326203 215.21376 
" clip-path="url(#p659cb82c85)" style="fill: none; stroke: #000000; stroke-width: 1.5; stroke-linecap: square"/>
   </g>
   <g id="line2d_14">
    <path d="M 77.967914 215.21376 
L 97.528303 215.21376 
L 97.927495 214.037094 
L 99.923453 180.5701 
L 101.919411 150.650844 
L 103.915369 124.279326 
L 105.512135 105.736483 
L 107.108901 89.464192 
L 108.705668 75.462453 
L 110.302434 63.731267 
L 111.500009 56.422927 
L 112.697584 50.391773 
L 113.895159 45.637804 
L 114.693542 43.178039 
L 115.491925 41.285912 
L 116.290308 39.961423 
L 117.088691 39.204573 
L 117.487883 39.039012 
L 117.887075 39.01536 
L 118.286266 39.133618 
L 118.685458 39.393785 
L 119.483841 40.339849 
L 120.282224 41.85355 
L 121.080607 43.93489 
L 121.878991 46.583867 
L 123.076565 51.621655 
L 124.27414 57.936628 
L 125.471715 65.528787 
L 126.66929 74.398132 
L 128.266056 88.210658 
L 129.862823 104.293736 
L 131.459589 122.647367 
L 133.056355 143.271549 
L 135.052313 172.244742 
L 137.048271 204.765672 
L 137.447463 211.695587 
L 137.846655 215.21376 
L 197.326203 215.21376 
L 197.326203 215.21376 
" clip-path="url(#p659cb82c85)" style="fill: none; stroke: #000000; stroke-width: 1.5; stroke-linecap: square"/>
   </g>
   <g id="patch_3">
    <path d="M 72 224.02368 
L 72 30.20544 
" style="fill: none; stroke: #000000; stroke-width: 0.8; stroke-linejoin: miter; stroke-linecap: square"/>
   </g>
   <g id="patch_4">
    <path d="M 203.294118 224.02368 
L 203.294118 30.20544 
" style="fill: none; stroke: #000000; stroke-width: 0.8; stroke-linejoin: miter; stroke-linecap: square"/>
   </g>
   <g id="patch_5">
    <path d="M 72 224.02368 
L 203.294118 224.02368 
" style="fill: none; stroke: #000000; stroke-width: 0.8; stroke-linejoin: miter; stroke-linecap: square"/>
   </g>
   <g id="patch_6">
    <path d="M 72 30.20544 
L 203.294118 30.20544 
" style="fill: none; stroke: #000000; stroke-width: 0.8; stroke-linejoin: miter; stroke-linecap: square"/>
   </g>
   <g id="text_12">
    <!-- Action Potentials -->
    <g transform="translate(87.542371 24.20544) scale(0.12 -0.12)">
     <defs>
      <path id="DejaVuSans-41" d="M 2188 4044 
L 1331 1722 
L 3047 1722 
L 2188 4044 
z
M 1831 4666 
L 2547 4666 
L 4325 0 
L 3669 0 
L 3244 1197 
L 1141 1197 
L 716 0 
L 50 0 
L 1831 4666 
z
" transform="scale(0.015625)"/>
      <path id="DejaVuSans-63" d="M 3122 3366 
L 3122 2828 
Q 2878 2963 2633 3030 
Q 2388 3097 2138 3097 
Q 1578 3097 1268 2742 
Q 959 2388 959 1747 
Q 959 1106 1268 751 
Q 1578 397 2138 397 
Q 2388 397 2633 464 
Q 2878 531 3122 666 
L 3122 134 
Q 2881 22 2623 -34 
Q 2366 -91 2075 -91 
Q 1284 -91 818 406 
Q 353 903 353 1747 
Q 353 2603 823 3093 
Q 1294 3584 2113 3584 
Q 2378 3584 2631 3529 
Q 2884 3475 3122 3366 
z
" transform="scale(0.015625)"/>
      <path id="DejaVuSans-6e" d="M 3513 2113 
L 3513 0 
L 2938 0 
L 2938 2094 
Q 2938 2591 2744 2837 
Q 2550 3084 2163 3084 
Q 1697 3084 1428 2787 
Q 1159 2491 1159 1978 
L 1159 0 
L 581 0 
L 581 3500 
L 1159 3500 
L 1159 2956 
Q 1366 3272 1645 3428 
Q 1925 3584 2291 3584 
Q 2894 3584 3203 3211 
Q 3513 2838 3513 2113 
z
" transform="scale(0.015625)"/>
      <path id="DejaVuSans-50" d="M 1259 4147 
L 1259 2394 
L 2053 2394 
Q 2494 2394 2734 2622 
Q 2975 2850 2975 3272 
Q 2975 3691 2734 3919 
Q 2494 4147 2053 4147 
L 1259 4147 
z
M 628 4666 
L 2053 4666 
Q 2838 4666 3239 4311 
Q 3641 3956 3641 3272 
Q 3641 2581 3239 2228 
Q 2838 1875 2053 1875 
L 1259 1875 
L 1259 0 
L 628 0 
L 628 4666 
z
" transform="scale(0.015625)"/>
     </defs>
     <use xlink:href="#DejaVuSans-41"/>
     <use xlink:href="#DejaVuSans-63" transform="translate(66.658203 0)"/>
     <use xlink:href="#DejaVuSans-74" transform="translate(121.638672 0)"/>
     <use xlink:href="#DejaVuSans-69" transform="translate(160.847656 0)"/>
     <use xlink:href="#DejaVuSans-6f" transform="translate(188.630859 0)"/>
     <use xlink:href="#DejaVuSans-6e" transform="translate(249.8125 0)"/>
     <use xlink:href="#DejaVuSans-20" transform="translate(313.191406 0)"/>
     <use xlink:href="#DejaVuSans-50" transform="translate(344.978516 0)"/>
     <use xlink:href="#DejaVuSans-6f" transform="translate(401.65625 0)"/>
     <use xlink:href="#DejaVuSans-74" transform="translate(462.837891 0)"/>
     <use xlink:href="#DejaVuSans-65" transform="translate(502.046875 0)"/>
     <use xlink:href="#DejaVuSans-6e" transform="translate(563.570312 0)"/>
     <use xlink:href="#DejaVuSans-74" transform="translate(626.949219 0)"/>
     <use xlink:href="#DejaVuSans-69" transform="translate(666.158203 0)"/>
     <use xlink:href="#DejaVuSans-61" transform="translate(693.941406 0)"/>
     <use xlink:href="#DejaVuSans-6c" transform="translate(755.220703 0)"/>
     <use xlink:href="#DejaVuSans-73" transform="translate(783.003906 0)"/>
    </g>
   </g>
   <g id="legend_1">
    <g id="patch_7">
     <path d="M 115.906618 111.596065 
L 196.294118 111.596065 
Q 198.294118 111.596065 198.294118 109.596065 
L 198.294118 37.20544 
Q 198.294118 35.20544 196.294118 35.20544 
L 115.906618 35.20544 
Q 113.906618 35.20544 113.906618 37.20544 
L 113.906618 109.596065 
Q 113.906618 111.596065 115.906618 111.596065 
z
" style="fill: #ffffff; opacity: 0.8; stroke: #cccccc; stroke-linejoin: miter"/>
    </g>
    <g id="line2d_15">
     <path d="M 117.906618 43.303877 
L 127.906618 43.303877 
L 137.906618 43.303877 
" style="fill: none; stroke: #000000; stroke-width: 1.5; stroke-linecap: square"/>
    </g>
    <g id="text_13">
     <!-- 20.0 mV -->
     <g transform="translate(145.906618 46.803877) scale(0.1 -0.1)">
      <defs>
       <path id="DejaVuSans-2e" d="M 684 794 
L 1344 794 
L 1344 0 
L 684 0 
L 684 794 
z
" transform="scale(0.015625)"/>
      </defs>
      <use xlink:href="#DejaVuSans-32"/>
      <use xlink:href="#DejaVuSans-30" transform="translate(63.623047 0)"/>
      <use xlink:href="#DejaVuSans-2e" transform="translate(127.246094 0)"/>
      <use xlink:href="#DejaVuSans-30" transform="translate(159.033203 0)"/>
      <use xlink:href="#DejaVuSans-20" transform="translate(222.65625 0)"/>
      <use xlink:href="#DejaVuSans-6d" transform="translate(254.443359 0)"/>
      <use xlink:href="#DejaVuSans-56" transform="translate(351.855469 0)"/>
     </g>
    </g>
    <g id="line2d_16">
     <path d="M 117.906618 57.982002 
L 127.906618 57.982002 
L 137.906618 57.982002 
" style="fill: none; stroke: #000000; stroke-width: 1.5; stroke-linecap: square"/>
    </g>
    <g id="text_14">
     <!-- 40.0 mV -->
     <g transform="translate(145.906618 61.482002) scale(0.1 -0.1)">
      <use xlink:href="#DejaVuSans-34"/>
      <use xlink:href="#DejaVuSans-30" transform="translate(63.623047 0)"/>
      <use xlink:href="#DejaVuSans-2e" transform="translate(127.246094 0)"/>
      <use xlink:href="#DejaVuSans-30" transform="translate(159.033203 0)"/>
      <use xlink:href="#DejaVuSans-20" transform="translate(222.65625 0)"/>
      <use xlink:href="#DejaVuSans-6d" transform="translate(254.443359 0)"/>
      <use xlink:href="#DejaVuSans-56" transform="translate(351.855469 0)"/>
     </g>
    </g>
    <g id="line2d_17">
     <path d="M 117.906618 72.660127 
L 127.906618 72.660127 
L 137.906618 72.660127 
" style="fill: none; stroke: #000000; stroke-width: 1.5; stroke-linecap: square"/>
    </g>
    <g id="text_15">
     <!-- 60.0 mV -->
     <g transform="translate(145.906618 76.160127) scale(0.1 -0.1)">
      <use xlink:href="#DejaVuSans-36"/>
      <use xlink:href="#DejaVuSans-30" transform="translate(63.623047 0)"/>
      <use xlink:href="#DejaVuSans-2e" transform="translate(127.246094 0)"/>
      <use xlink:href="#DejaVuSans-30" transform="translate(159.033203 0)"/>
      <use xlink:href="#DejaVuSans-20" transform="translate(222.65625 0)"/>
      <use xlink:href="#DejaVuSans-6d" transform="translate(254.443359 0)"/>
      <use xlink:href="#DejaVuSans-56" transform="translate(351.855469 0)"/>
     </g>
    </g>
    <g id="line2d_18">
     <path d="M 117.906618 87.338253 
L 127.906618 87.338253 
L 137.906618 87.338253 
" style="fill: none; stroke: #000000; stroke-width: 1.5; stroke-linecap: square"/>
    </g>
    <g id="text_16">
     <!-- 80.0 mV -->
     <g transform="translate(145.906618 90.838253) scale(0.1 -0.1)">
      <defs>
       <path id="DejaVuSans-38" d="M 2034 2216 
Q 1584 2216 1326 1975 
Q 1069 1734 1069 1313 
Q 1069 891 1326 650 
Q 1584 409 2034 409 
Q 2484 409 2743 651 
Q 3003 894 3003 1313 
Q 3003 1734 2745 1975 
Q 2488 2216 2034 2216 
z
M 1403 2484 
Q 997 2584 770 2862 
Q 544 3141 544 3541 
Q 544 4100 942 4425 
Q 1341 4750 2034 4750 
Q 2731 4750 3128 4425 
Q 3525 4100 3525 3541 
Q 3525 3141 3298 2862 
Q 3072 2584 2669 2484 
Q 3125 2378 3379 2068 
Q 3634 1759 3634 1313 
Q 3634 634 3220 271 
Q 2806 -91 2034 -91 
Q 1263 -91 848 271 
Q 434 634 434 1313 
Q 434 1759 690 2068 
Q 947 2378 1403 2484 
z
M 1172 3481 
Q 1172 3119 1398 2916 
Q 1625 2713 2034 2713 
Q 2441 2713 2670 2916 
Q 2900 3119 2900 3481 
Q 2900 3844 2670 4047 
Q 2441 4250 2034 4250 
Q 1625 4250 1398 4047 
Q 1172 3844 1172 3481 
z
" transform="scale(0.015625)"/>
      </defs>
      <use xlink:href="#DejaVuSans-38"/>
      <use xlink:href="#DejaVuSans-30" transform="translate(63.623047 0)"/>
      <use xlink:href="#DejaVuSans-2e" transform="translate(127.246094 0)"/>
      <use xlink:href="#DejaVuSans-30" transform="translate(159.033203 0)"/>
      <use xlink:href="#DejaVuSans-20" transform="translate(222.65625 0)"/>
      <use xlink:href="#DejaVuSans-6d" transform="translate(254.443359 0)"/>
      <use xlink:href="#DejaVuSans-56" transform="translate(351.855469 0)"/>
     </g>
    </g>
    <g id="line2d_19">
     <path d="M 117.906618 102.016378 
L 127.906618 102.016378 
L 137.906618 102.016378 
" style="fill: none; stroke: #000000; stroke-width: 1.5; stroke-linecap: square"/>
    </g>
    <g id="text_17">
     <!-- 100.0 mV -->
     <g transform="translate(145.906618 105.516378) scale(0.1 -0.1)">
      <use xlink:href="#DejaVuSans-31"/>
      <use xlink:href="#DejaVuSans-30" transform="translate(63.623047 0)"/>
      <use xlink:href="#DejaVuSans-30" transform="translate(127.246094 0)"/>
      <use xlink:href="#DejaVuSans-2e" transform="translate(190.869141 0)"/>
      <use xlink:href="#DejaVuSans-30" transform="translate(222.65625 0)"/>
      <use xlink:href="#DejaVuSans-20" transform="translate(286.279297 0)"/>
      <use xlink:href="#DejaVuSans-6d" transform="translate(318.066406 0)"/>
      <use xlink:href="#DejaVuSans-56" transform="translate(415.478516 0)"/>
     </g>
    </g>
   </g>
  </g>
  <g id="axes_2">
   <g id="patch_8">
    <path d="M 229.552941 224.02368 
L 360.847059 224.02368 
L 360.847059 30.20544 
L 229.552941 30.20544 
z
" style="fill: #ffffff"/>
   </g>
   <g id="matplotlib.axis_3">
    <g id="xtick_5">
     <g id="line2d_20">
      <g>
       <use xlink:href="#m0fef1899a1" x="235.520856" y="224.02368" style="stroke: #000000; stroke-width: 0.8"/>
      </g>
     </g>
     <g id="text_18">
      <!-- 0 -->
      <g transform="translate(232.339606 238.622118) scale(0.1 -0.1)">
       <use xlink:href="#DejaVuSans-30"/>
      </g>
     </g>
    </g>
    <g id="xtick_6">
     <g id="line2d_21">
      <g>
       <use xlink:href="#m0fef1899a1" x="275.306952" y="224.02368" style="stroke: #000000; stroke-width: 0.8"/>
      </g>
     </g>
     <g id="text_19">
      <!-- 1 -->
      <g transform="translate(272.125702 238.622118) scale(0.1 -0.1)">
       <use xlink:href="#DejaVuSans-31"/>
      </g>
     </g>
    </g>
    <g id="xtick_7">
     <g id="line2d_22">
      <g>
       <use xlink:href="#m0fef1899a1" x="315.093048" y="224.02368" style="stroke: #000000; stroke-width: 0.8"/>
      </g>
     </g>
     <g id="text_20">
      <!-- 2 -->
      <g transform="translate(311.911798 238.622118) scale(0.1 -0.1)">
       <use xlink:href="#DejaVuSans-32"/>
      </g>
     </g>
    </g>
    <g id="xtick_8">
     <g id="line2d_23">
      <g>
       <use xlink:href="#m0fef1899a1" x="354.879144" y="224.02368" style="stroke: #000000; stroke-width: 0.8"/>
      </g>
     </g>
     <g id="text_21">
      <!-- 3 -->
      <g transform="translate(351.697894 238.622118) scale(0.1 -0.1)">
       <use xlink:href="#DejaVuSans-33"/>
      </g>
     </g>
    </g>
    <g id="text_22">
     <!-- Time (ms) -->
     <g transform="translate(270.000781 252.300242) scale(0.1 -0.1)">
      <use xlink:href="#DejaVuSans-54"/>
      <use xlink:href="#DejaVuSans-69" transform="translate(57.958984 0)"/>
      <use xlink:href="#DejaVuSans-6d" transform="translate(85.742188 0)"/>
      <use xlink:href="#DejaVuSans-65" transform="translate(183.154297 0)"/>
      <use xlink:href="#DejaVuSans-20" transform="translate(244.677734 0)"/>
      <use xlink:href="#DejaVuSans-28" transform="translate(276.464844 0)"/>
      <use xlink:href="#DejaVuSans-6d" transform="translate(315.478516 0)"/>
      <use xlink:href="#DejaVuSans-73" transform="translate(412.890625 0)"/>
      <use xlink:href="#DejaVuSans-29" transform="translate(464.990234 0)"/>
     </g>
    </g>
   </g>
   <g id="matplotlib.axis_4">
    <g id="ytick_6">
     <g id="line2d_24">
      <g>
       <use xlink:href="#mea7981a7b2" x="229.552941" y="222.920813" style="stroke: #000000; stroke-width: 0.8"/>
      </g>
     </g>
     <g id="text_23">
      <!-- 0.0 -->
      <g transform="translate(206.649816 226.720032) scale(0.1 -0.1)">
       <use xlink:href="#DejaVuSans-30"/>
       <use xlink:href="#DejaVuSans-2e" transform="translate(63.623047 0)"/>
       <use xlink:href="#DejaVuSans-30" transform="translate(95.410156 0)"/>
      </g>
     </g>
    </g>
    <g id="ytick_7">
     <g id="line2d_25">
      <g>
       <use xlink:href="#mea7981a7b2" x="229.552941" y="200.879928" style="stroke: #000000; stroke-width: 0.8"/>
      </g>
     </g>
     <g id="text_24">
      <!-- 0.1 -->
      <g transform="translate(206.649816 204.679147) scale(0.1 -0.1)">
       <use xlink:href="#DejaVuSans-30"/>
       <use xlink:href="#DejaVuSans-2e" transform="translate(63.623047 0)"/>
       <use xlink:href="#DejaVuSans-31" transform="translate(95.410156 0)"/>
      </g>
     </g>
    </g>
    <g id="ytick_8">
     <g id="line2d_26">
      <g>
       <use xlink:href="#mea7981a7b2" x="229.552941" y="178.839043" style="stroke: #000000; stroke-width: 0.8"/>
      </g>
     </g>
     <g id="text_25">
      <!-- 0.2 -->
      <g transform="translate(206.649816 182.638261) scale(0.1 -0.1)">
       <use xlink:href="#DejaVuSans-30"/>
       <use xlink:href="#DejaVuSans-2e" transform="translate(63.623047 0)"/>
       <use xlink:href="#DejaVuSans-32" transform="translate(95.410156 0)"/>
      </g>
     </g>
    </g>
    <g id="ytick_9">
     <g id="line2d_27">
      <g>
       <use xlink:href="#mea7981a7b2" x="229.552941" y="156.798157" style="stroke: #000000; stroke-width: 0.8"/>
      </g>
     </g>
     <g id="text_26">
      <!-- 0.3 -->
      <g transform="translate(206.649816 160.597376) scale(0.1 -0.1)">
       <use xlink:href="#DejaVuSans-30"/>
       <use xlink:href="#DejaVuSans-2e" transform="translate(63.623047 0)"/>
       <use xlink:href="#DejaVuSans-33" transform="translate(95.410156 0)"/>
      </g>
     </g>
    </g>
    <g id="ytick_10">
     <g id="line2d_28">
      <g>
       <use xlink:href="#mea7981a7b2" x="229.552941" y="134.757272" style="stroke: #000000; stroke-width: 0.8"/>
      </g>
     </g>
     <g id="text_27">
      <!-- 0.4 -->
      <g transform="translate(206.649816 138.556491) scale(0.1 -0.1)">
       <use xlink:href="#DejaVuSans-30"/>
       <use xlink:href="#DejaVuSans-2e" transform="translate(63.623047 0)"/>
       <use xlink:href="#DejaVuSans-34" transform="translate(95.410156 0)"/>
      </g>
     </g>
    </g>
    <g id="ytick_11">
     <g id="line2d_29">
      <g>
       <use xlink:href="#mea7981a7b2" x="229.552941" y="112.716387" style="stroke: #000000; stroke-width: 0.8"/>
      </g>
     </g>
     <g id="text_28">
      <!-- 0.5 -->
      <g transform="translate(206.649816 116.515605) scale(0.1 -0.1)">
       <defs>
        <path id="DejaVuSans-35" d="M 691 4666 
L 3169 4666 
L 3169 4134 
L 1269 4134 
L 1269 2991 
Q 1406 3038 1543 3061 
Q 1681 3084 1819 3084 
Q 2600 3084 3056 2656 
Q 3513 2228 3513 1497 
Q 3513 744 3044 326 
Q 2575 -91 1722 -91 
Q 1428 -91 1123 -41 
Q 819 9 494 109 
L 494 744 
Q 775 591 1075 516 
Q 1375 441 1709 441 
Q 2250 441 2565 725 
Q 2881 1009 2881 1497 
Q 2881 1984 2565 2268 
Q 2250 2553 1709 2553 
Q 1456 2553 1204 2497 
Q 953 2441 691 2322 
L 691 4666 
z
" transform="scale(0.015625)"/>
       </defs>
       <use xlink:href="#DejaVuSans-30"/>
       <use xlink:href="#DejaVuSans-2e" transform="translate(63.623047 0)"/>
       <use xlink:href="#DejaVuSans-35" transform="translate(95.410156 0)"/>
      </g>
     </g>
    </g>
    <g id="ytick_12">
     <g id="line2d_30">
      <g>
       <use xlink:href="#mea7981a7b2" x="229.552941" y="90.675501" style="stroke: #000000; stroke-width: 0.8"/>
      </g>
     </g>
     <g id="text_29">
      <!-- 0.6 -->
      <g transform="translate(206.649816 94.47472) scale(0.1 -0.1)">
       <use xlink:href="#DejaVuSans-30"/>
       <use xlink:href="#DejaVuSans-2e" transform="translate(63.623047 0)"/>
       <use xlink:href="#DejaVuSans-36" transform="translate(95.410156 0)"/>
      </g>
     </g>
    </g>
    <g id="ytick_13">
     <g id="line2d_31">
      <g>
       <use xlink:href="#mea7981a7b2" x="229.552941" y="68.634616" style="stroke: #000000; stroke-width: 0.8"/>
      </g>
     </g>
     <g id="text_30">
      <!-- 0.7 -->
      <g transform="translate(206.649816 72.433835) scale(0.1 -0.1)">
       <defs>
        <path id="DejaVuSans-37" d="M 525 4666 
L 3525 4666 
L 3525 4397 
L 1831 0 
L 1172 0 
L 2766 4134 
L 525 4134 
L 525 4666 
z
" transform="scale(0.015625)"/>
       </defs>
       <use xlink:href="#DejaVuSans-30"/>
       <use xlink:href="#DejaVuSans-2e" transform="translate(63.623047 0)"/>
       <use xlink:href="#DejaVuSans-37" transform="translate(95.410156 0)"/>
      </g>
     </g>
    </g>
    <g id="ytick_14">
     <g id="line2d_32">
      <g>
       <use xlink:href="#mea7981a7b2" x="229.552941" y="46.593731" style="stroke: #000000; stroke-width: 0.8"/>
      </g>
     </g>
     <g id="text_31">
      <!-- 0.8 -->
      <g transform="translate(206.649816 50.392949) scale(0.1 -0.1)">
       <use xlink:href="#DejaVuSans-30"/>
       <use xlink:href="#DejaVuSans-2e" transform="translate(63.623047 0)"/>
       <use xlink:href="#DejaVuSans-38" transform="translate(95.410156 0)"/>
      </g>
     </g>
    </g>
    <g id="text_32">
     <!-- Open Probability -->
     <g transform="translate(200.570129 168.487998) rotate(-90) scale(0.1 -0.1)">
      <defs>
       <path id="DejaVuSans-4f" d="M 2522 4238 
Q 1834 4238 1429 3725 
Q 1025 3213 1025 2328 
Q 1025 1447 1429 934 
Q 1834 422 2522 422 
Q 3209 422 3611 934 
Q 4013 1447 4013 2328 
Q 4013 3213 3611 3725 
Q 3209 4238 2522 4238 
z
M 2522 4750 
Q 3503 4750 4090 4092 
Q 4678 3434 4678 2328 
Q 4678 1225 4090 567 
Q 3503 -91 2522 -91 
Q 1538 -91 948 565 
Q 359 1222 359 2328 
Q 359 3434 948 4092 
Q 1538 4750 2522 4750 
z
" transform="scale(0.015625)"/>
       <path id="DejaVuSans-70" d="M 1159 525 
L 1159 -1331 
L 581 -1331 
L 581 3500 
L 1159 3500 
L 1159 2969 
Q 1341 3281 1617 3432 
Q 1894 3584 2278 3584 
Q 2916 3584 3314 3078 
Q 3713 2572 3713 1747 
Q 3713 922 3314 415 
Q 2916 -91 2278 -91 
Q 1894 -91 1617 61 
Q 1341 213 1159 525 
z
M 3116 1747 
Q 3116 2381 2855 2742 
Q 2594 3103 2138 3103 
Q 1681 3103 1420 2742 
Q 1159 2381 1159 1747 
Q 1159 1113 1420 752 
Q 1681 391 2138 391 
Q 2594 391 2855 752 
Q 3116 1113 3116 1747 
z
" transform="scale(0.015625)"/>
       <path id="DejaVuSans-72" d="M 2631 2963 
Q 2534 3019 2420 3045 
Q 2306 3072 2169 3072 
Q 1681 3072 1420 2755 
Q 1159 2438 1159 1844 
L 1159 0 
L 581 0 
L 581 3500 
L 1159 3500 
L 1159 2956 
Q 1341 3275 1631 3429 
Q 1922 3584 2338 3584 
Q 2397 3584 2469 3576 
Q 2541 3569 2628 3553 
L 2631 2963 
z
" transform="scale(0.015625)"/>
       <path id="DejaVuSans-62" d="M 3116 1747 
Q 3116 2381 2855 2742 
Q 2594 3103 2138 3103 
Q 1681 3103 1420 2742 
Q 1159 2381 1159 1747 
Q 1159 1113 1420 752 
Q 1681 391 2138 391 
Q 2594 391 2855 752 
Q 3116 1113 3116 1747 
z
M 1159 2969 
Q 1341 3281 1617 3432 
Q 1894 3584 2278 3584 
Q 2916 3584 3314 3078 
Q 3713 2572 3713 1747 
Q 3713 922 3314 415 
Q 2916 -91 2278 -91 
Q 1894 -91 1617 61 
Q 1341 213 1159 525 
L 1159 0 
L 581 0 
L 581 4863 
L 1159 4863 
L 1159 2969 
z
" transform="scale(0.015625)"/>
       <path id="DejaVuSans-79" d="M 2059 -325 
Q 1816 -950 1584 -1140 
Q 1353 -1331 966 -1331 
L 506 -1331 
L 506 -850 
L 844 -850 
Q 1081 -850 1212 -737 
Q 1344 -625 1503 -206 
L 1606 56 
L 191 3500 
L 800 3500 
L 1894 763 
L 2988 3500 
L 3597 3500 
L 2059 -325 
z
" transform="scale(0.015625)"/>
      </defs>
      <use xlink:href="#DejaVuSans-4f"/>
      <use xlink:href="#DejaVuSans-70" transform="translate(78.710938 0)"/>
      <use xlink:href="#DejaVuSans-65" transform="translate(142.1875 0)"/>
      <use xlink:href="#DejaVuSans-6e" transform="translate(203.710938 0)"/>
      <use xlink:href="#DejaVuSans-20" transform="translate(267.089844 0)"/>
      <use xlink:href="#DejaVuSans-50" transform="translate(298.876953 0)"/>
      <use xlink:href="#DejaVuSans-72" transform="translate(357.429688 0)"/>
      <use xlink:href="#DejaVuSans-6f" transform="translate(396.292969 0)"/>
      <use xlink:href="#DejaVuSans-62" transform="translate(457.474609 0)"/>
      <use xlink:href="#DejaVuSans-61" transform="translate(520.951172 0)"/>
      <use xlink:href="#DejaVuSans-62" transform="translate(582.230469 0)"/>
      <use xlink:href="#DejaVuSans-69" transform="translate(645.707031 0)"/>
      <use xlink:href="#DejaVuSans-6c" transform="translate(673.490234 0)"/>
      <use xlink:href="#DejaVuSans-69" transform="translate(701.273438 0)"/>
      <use xlink:href="#DejaVuSans-74" transform="translate(729.056641 0)"/>
      <use xlink:href="#DejaVuSans-79" transform="translate(768.265625 0)"/>
     </g>
    </g>
   </g>
   <g id="line2d_33">
    <path d="M 235.520856 215.21376 
L 256.278819 215.107106 
L 257.077202 214.758953 
L 258.274777 213.987331 
L 260.270735 212.362022 
L 263.464268 209.381299 
L 269.05295 204.112073 
L 271.4481 202.180596 
L 273.444058 200.860897 
L 275.040824 200.047105 
L 276.637591 199.485016 
L 278.234357 199.203864 
L 279.431932 199.191694 
L 280.629507 199.358022 
L 281.827081 199.707204 
L 283.024656 200.240325 
L 284.621423 201.2321 
L 286.218189 202.527588 
L 287.814955 204.093856 
L 289.810913 206.356912 
L 293.403638 210.876473 
L 295.798787 213.775105 
L 296.597171 214.354619 
L 297.794745 214.817275 
L 299.391512 215.072362 
L 302.185853 215.190489 
L 312.165643 215.213723 
L 354.879144 215.21376 
L 354.879144 215.21376 
" clip-path="url(#p889e90cf31)" style="fill: none; stroke: #000000; stroke-width: 1.5; stroke-linecap: square"/>
   </g>
   <g id="line2d_34">
    <path d="M 235.520856 215.21376 
L 255.879627 215.185876 
L 256.67801 214.70357 
L 257.476394 213.85216 
L 258.673968 212.12821 
L 259.871543 210.011882 
L 261.46831 206.708494 
L 263.464268 201.953402 
L 265.859417 195.579089 
L 273.044866 175.916156 
L 274.641633 172.292892 
L 276.238399 169.24117 
L 277.435974 167.409808 
L 278.633549 166.033732 
L 279.431932 165.396917 
L 280.230315 165.003539 
L 281.028698 164.869471 
L 281.827081 165.010064 
L 282.625465 165.43992 
L 283.423848 166.172553 
L 284.222231 167.219928 
L 285.020614 168.59183 
L 286.218189 171.271957 
L 287.415764 174.701116 
L 288.613339 178.852843 
L 290.210105 185.382974 
L 292.605255 196.552886 
L 295.000404 207.486681 
L 295.798787 210.489745 
L 296.597171 212.392655 
L 297.395554 213.529042 
L 298.193937 214.207674 
L 298.99232 214.612942 
L 300.189895 214.936489 
L 301.786661 215.114877 
L 304.980194 215.201184 
L 322.145433 215.21376 
L 354.879144 215.21376 
L 354.879144 215.21376 
" clip-path="url(#p889e90cf31)" style="fill: none; stroke: #000000; stroke-width: 1.5; stroke-linecap: square"/>
   </g>
   <g id="line2d_35">
    <path d="M 235.520856 215.21376 
L 255.879627 215.172012 
L 256.278819 214.900267 
L 257.077202 213.879636 
L 257.875585 212.397826 
L 259.07316 209.510008 
L 260.270735 205.935314 
L 261.46831 201.740193 
L 263.065076 195.279708 
L 265.061034 186.039466 
L 267.456184 173.775837 
L 273.044866 144.683428 
L 275.040824 135.664333 
L 276.637591 129.447251 
L 277.835165 125.495625 
L 279.03274 122.243384 
L 280.230315 119.773964 
L 281.028698 118.606785 
L 281.827081 117.856913 
L 282.625465 117.556759 
L 283.024656 117.58641 
L 283.423848 117.742284 
L 284.222231 118.453499 
L 285.020614 119.734754 
L 285.818997 121.634657 
L 286.617381 124.205403 
L 287.415764 127.501162 
L 288.214147 131.575095 
L 289.411722 139.244727 
L 290.609297 148.857424 
L 291.806871 160.335046 
L 293.802829 182.360486 
L 295.399596 199.745209 
L 296.197979 205.976192 
L 296.996362 209.697235 
L 297.794745 211.919381 
L 298.593129 213.24641 
L 299.391512 214.038891 
L 300.189895 214.512147 
L 301.38747 214.889973 
L 302.984236 215.098288 
L 306.177769 215.199074 
L 320.947858 215.213759 
L 354.879144 215.21376 
L 354.879144 215.21376 
" clip-path="url(#p889e90cf31)" style="fill: none; stroke: #000000; stroke-width: 1.5; stroke-linecap: square"/>
   </g>
   <g id="line2d_36">
    <path d="M 235.520856 215.21376 
L 255.879627 215.158199 
L 256.278819 214.799876 
L 257.077202 213.454286 
L 257.875585 211.47788 
L 258.673968 208.97494 
L 259.871543 204.319352 
L 261.069118 198.645827 
L 262.266693 192.026193 
L 263.863459 181.900614 
L 265.859417 167.612106 
L 269.851333 136.650341 
L 272.645675 115.987051 
L 274.641633 102.952491 
L 276.238399 93.920491 
L 277.835165 86.301343 
L 279.03274 81.585136 
L 280.230315 77.775516 
L 281.028698 75.76552 
L 281.827081 74.202627 
L 282.625465 73.113052 
L 283.423848 72.530779 
L 283.823039 72.44319 
L 284.222231 72.499881 
L 284.621423 72.70837 
L 285.020614 73.07715 
L 285.818997 74.335017 
L 286.617381 76.364662 
L 287.415764 79.279028 
L 288.214147 83.215142 
L 289.01253 88.334589 
L 289.810913 94.820087 
L 290.609297 102.864706 
L 291.40768 112.648347 
L 292.605255 130.82066 
L 293.802829 152.907688 
L 295.798787 191.906081 
L 296.597171 201.294793 
L 297.395554 206.901579 
L 298.193937 210.24986 
L 298.99232 212.2494 
L 299.790703 213.443492 
L 300.589087 214.156585 
L 301.38747 214.582432 
L 302.585045 214.922409 
L 304.181811 215.109856 
L 307.375344 215.200545 
L 323.742199 215.21376 
L 354.879144 215.21376 
L 354.879144 215.21376 
" clip-path="url(#p889e90cf31)" style="fill: none; stroke: #000000; stroke-width: 1.5; stroke-linecap: square"/>
   </g>
   <g id="line2d_37">
    <path d="M 235.520856 215.21376 
L 255.879627 215.144437 
L 256.278819 214.70137 
L 257.077202 213.037723 
L 257.875585 210.56927 
L 258.673968 207.398949 
L 259.871543 201.40053 
L 261.069118 193.971983 
L 262.266693 185.210297 
L 263.863459 171.726987 
L 265.859417 152.736743 
L 271.4481 97.765004 
L 273.044866 84.251789 
L 274.641633 72.442954 
L 276.238399 62.470667 
L 277.435974 56.203777 
L 278.633549 50.947823 
L 279.831123 46.665941 
L 281.028698 43.325626 
L 281.827081 41.613893 
L 282.625465 40.317822 
L 283.423848 39.450763 
L 284.222231 39.038528 
L 284.621423 39.01536 
L 285.020614 39.1232 
L 285.419806 39.370649 
L 285.818997 39.768008 
L 286.617381 41.0636 
L 287.415764 43.136053 
L 288.214147 46.156825 
L 289.01253 50.354438 
L 289.810913 56.026644 
L 290.609297 63.549568 
L 291.40768 73.375734 
L 292.206063 86.004493 
L 293.004446 101.894831 
L 294.202021 132.197619 
L 296.197979 187.032042 
L 296.996362 198.384096 
L 297.794745 205.163358 
L 298.593129 209.211823 
L 299.391512 211.629501 
L 300.189895 213.073299 
L 300.988278 213.935511 
L 301.786661 214.450411 
L 302.984236 214.861482 
L 304.581003 215.088128 
L 307.375344 215.193083 
L 318.552709 215.213745 
L 354.879144 215.21376 
L 354.879144 215.21376 
" clip-path="url(#p889e90cf31)" style="fill: none; stroke: #000000; stroke-width: 1.5; stroke-linecap: square"/>
   </g>
   <g id="patch_9">
    <path d="M 229.552941 224.02368 
L 229.552941 30.20544 
" style="fill: none; stroke: #000000; stroke-width: 0.8; stroke-linejoin: miter; stroke-linecap: square"/>
   </g>
   <g id="patch_10">
    <path d="M 360.847059 224.02368 
L 360.847059 30.20544 
" style="fill: none; stroke: #000000; stroke-width: 0.8; stroke-linejoin: miter; stroke-linecap: square"/>
   </g>
   <g id="patch_11">
    <path d="M 229.552941 224.02368 
L 360.847059 224.02368 
" style="fill: none; stroke: #000000; stroke-width: 0.8; stroke-linejoin: miter; stroke-linecap: square"/>
   </g>
   <g id="patch_12">
    <path d="M 229.552941 30.20544 
L 360.847059 30.20544 
" style="fill: none; stroke: #000000; stroke-width: 0.8; stroke-linejoin: miter; stroke-linecap: square"/>
   </g>
   <g id="text_33">
    <!-- NMDAR Response -->
    <g transform="translate(242.022188 24.20544) scale(0.12 -0.12)">
     <defs>
      <path id="DejaVuSans-4e" d="M 628 4666 
L 1478 4666 
L 3547 763 
L 3547 4666 
L 4159 4666 
L 4159 0 
L 3309 0 
L 1241 3903 
L 1241 0 
L 628 0 
L 628 4666 
z
" transform="scale(0.015625)"/>
      <path id="DejaVuSans-4d" d="M 628 4666 
L 1569 4666 
L 2759 1491 
L 3956 4666 
L 4897 4666 
L 4897 0 
L 4281 0 
L 4281 4097 
L 3078 897 
L 2444 897 
L 1241 4097 
L 1241 0 
L 628 0 
L 628 4666 
z
" transform="scale(0.015625)"/>
      <path id="DejaVuSans-44" d="M 1259 4147 
L 1259 519 
L 2022 519 
Q 2988 519 3436 956 
Q 3884 1394 3884 2338 
Q 3884 3275 3436 3711 
Q 2988 4147 2022 4147 
L 1259 4147 
z
M 628 4666 
L 1925 4666 
Q 3281 4666 3915 4102 
Q 4550 3538 4550 2338 
Q 4550 1131 3912 565 
Q 3275 0 1925 0 
L 628 0 
L 628 4666 
z
" transform="scale(0.015625)"/>
      <path id="DejaVuSans-52" d="M 2841 2188 
Q 3044 2119 3236 1894 
Q 3428 1669 3622 1275 
L 4263 0 
L 3584 0 
L 2988 1197 
Q 2756 1666 2539 1819 
Q 2322 1972 1947 1972 
L 1259 1972 
L 1259 0 
L 628 0 
L 628 4666 
L 2053 4666 
Q 2853 4666 3247 4331 
Q 3641 3997 3641 3322 
Q 3641 2881 3436 2590 
Q 3231 2300 2841 2188 
z
M 1259 4147 
L 1259 2491 
L 2053 2491 
Q 2509 2491 2742 2702 
Q 2975 2913 2975 3322 
Q 2975 3731 2742 3939 
Q 2509 4147 2053 4147 
L 1259 4147 
z
" transform="scale(0.015625)"/>
     </defs>
     <use xlink:href="#DejaVuSans-4e"/>
     <use xlink:href="#DejaVuSans-4d" transform="translate(74.804688 0)"/>
     <use xlink:href="#DejaVuSans-44" transform="translate(161.083984 0)"/>
     <use xlink:href="#DejaVuSans-41" transform="translate(236.335938 0)"/>
     <use xlink:href="#DejaVuSans-52" transform="translate(304.744141 0)"/>
     <use xlink:href="#DejaVuSans-20" transform="translate(374.226562 0)"/>
     <use xlink:href="#DejaVuSans-52" transform="translate(406.013672 0)"/>
     <use xlink:href="#DejaVuSans-65" transform="translate(470.996094 0)"/>
     <use xlink:href="#DejaVuSans-73" transform="translate(532.519531 0)"/>
     <use xlink:href="#DejaVuSans-70" transform="translate(584.619141 0)"/>
     <use xlink:href="#DejaVuSans-6f" transform="translate(648.095703 0)"/>
     <use xlink:href="#DejaVuSans-6e" transform="translate(709.277344 0)"/>
     <use xlink:href="#DejaVuSans-73" transform="translate(772.65625 0)"/>
     <use xlink:href="#DejaVuSans-65" transform="translate(824.755859 0)"/>
    </g>
   </g>
   <g id="legend_2">
    <g id="patch_13">
     <path d="M 273.459559 165.309872 
L 353.847059 165.309872 
Q 355.847059 165.309872 355.847059 163.309872 
L 355.847059 90.919247 
Q 355.847059 88.919247 353.847059 88.919247 
L 273.459559 88.919247 
Q 271.459559 88.919247 271.459559 90.919247 
L 271.459559 163.309872 
Q 271.459559 165.309872 273.459559 165.309872 
z
" style="fill: #ffffff; opacity: 0.8; stroke: #cccccc; stroke-linejoin: miter"/>
    </g>
    <g id="line2d_38">
     <path d="M 275.459559 97.017685 
L 285.459559 97.017685 
L 295.459559 97.017685 
" style="fill: none; stroke: #000000; stroke-width: 1.5; stroke-linecap: square"/>
    </g>
    <g id="text_34">
     <!-- 20.0 mV -->
     <g transform="translate(303.459559 100.517685) scale(0.1 -0.1)">
      <use xlink:href="#DejaVuSans-32"/>
      <use xlink:href="#DejaVuSans-30" transform="translate(63.623047 0)"/>
      <use xlink:href="#DejaVuSans-2e" transform="translate(127.246094 0)"/>
      <use xlink:href="#DejaVuSans-30" transform="translate(159.033203 0)"/>
      <use xlink:href="#DejaVuSans-20" transform="translate(222.65625 0)"/>
      <use xlink:href="#DejaVuSans-6d" transform="translate(254.443359 0)"/>
      <use xlink:href="#DejaVuSans-56" transform="translate(351.855469 0)"/>
     </g>
    </g>
    <g id="line2d_39">
     <path d="M 275.459559 111.69581 
L 285.459559 111.69581 
L 295.459559 111.69581 
" style="fill: none; stroke: #000000; stroke-width: 1.5; stroke-linecap: square"/>
    </g>
    <g id="text_35">
     <!-- 40.0 mV -->
     <g transform="translate(303.459559 115.19581) scale(0.1 -0.1)">
      <use xlink:href="#DejaVuSans-34"/>
      <use xlink:href="#DejaVuSans-30" transform="translate(63.623047 0)"/>
      <use xlink:href="#DejaVuSans-2e" transform="translate(127.246094 0)"/>
      <use xlink:href="#DejaVuSans-30" transform="translate(159.033203 0)"/>
      <use xlink:href="#DejaVuSans-20" transform="translate(222.65625 0)"/>
      <use xlink:href="#DejaVuSans-6d" transform="translate(254.443359 0)"/>
      <use xlink:href="#DejaVuSans-56" transform="translate(351.855469 0)"/>
     </g>
    </g>
    <g id="line2d_40">
     <path d="M 275.459559 126.373935 
L 285.459559 126.373935 
L 295.459559 126.373935 
" style="fill: none; stroke: #000000; stroke-width: 1.5; stroke-linecap: square"/>
    </g>
    <g id="text_36">
     <!-- 60.0 mV -->
     <g transform="translate(303.459559 129.873935) scale(0.1 -0.1)">
      <use xlink:href="#DejaVuSans-36"/>
      <use xlink:href="#DejaVuSans-30" transform="translate(63.623047 0)"/>
      <use xlink:href="#DejaVuSans-2e" transform="translate(127.246094 0)"/>
      <use xlink:href="#DejaVuSans-30" transform="translate(159.033203 0)"/>
      <use xlink:href="#DejaVuSans-20" transform="translate(222.65625 0)"/>
      <use xlink:href="#DejaVuSans-6d" transform="translate(254.443359 0)"/>
      <use xlink:href="#DejaVuSans-56" transform="translate(351.855469 0)"/>
     </g>
    </g>
    <g id="line2d_41">
     <path d="M 275.459559 141.05206 
L 285.459559 141.05206 
L 295.459559 141.05206 
" style="fill: none; stroke: #000000; stroke-width: 1.5; stroke-linecap: square"/>
    </g>
    <g id="text_37">
     <!-- 80.0 mV -->
     <g transform="translate(303.459559 144.55206) scale(0.1 -0.1)">
      <use xlink:href="#DejaVuSans-38"/>
      <use xlink:href="#DejaVuSans-30" transform="translate(63.623047 0)"/>
      <use xlink:href="#DejaVuSans-2e" transform="translate(127.246094 0)"/>
      <use xlink:href="#DejaVuSans-30" transform="translate(159.033203 0)"/>
      <use xlink:href="#DejaVuSans-20" transform="translate(222.65625 0)"/>
      <use xlink:href="#DejaVuSans-6d" transform="translate(254.443359 0)"/>
      <use xlink:href="#DejaVuSans-56" transform="translate(351.855469 0)"/>
     </g>
    </g>
    <g id="line2d_42">
     <path d="M 275.459559 155.730185 
L 285.459559 155.730185 
L 295.459559 155.730185 
" style="fill: none; stroke: #000000; stroke-width: 1.5; stroke-linecap: square"/>
    </g>
    <g id="text_38">
     <!-- 100.0 mV -->
     <g transform="translate(303.459559 159.230185) scale(0.1 -0.1)">
      <use xlink:href="#DejaVuSans-31"/>
      <use xlink:href="#DejaVuSans-30" transform="translate(63.623047 0)"/>
      <use xlink:href="#DejaVuSans-30" transform="translate(127.246094 0)"/>
      <use xlink:href="#DejaVuSans-2e" transform="translate(190.869141 0)"/>
      <use xlink:href="#DejaVuSans-30" transform="translate(222.65625 0)"/>
      <use xlink:href="#DejaVuSans-20" transform="translate(286.279297 0)"/>
      <use xlink:href="#DejaVuSans-6d" transform="translate(318.066406 0)"/>
      <use xlink:href="#DejaVuSans-56" transform="translate(415.478516 0)"/>
     </g>
    </g>
   </g>
  </g>
  <g id="axes_3">
   <g id="patch_14">
    <path d="M 387.105882 224.02368 
L 518.4 224.02368 
L 518.4 30.20544 
L 387.105882 30.20544 
z
" style="fill: #ffffff"/>
   </g>
   <g id="matplotlib.axis_5">
    <g id="xtick_9">
     <g id="line2d_43">
      <g>
       <use xlink:href="#m0fef1899a1" x="393.073797" y="224.02368" style="stroke: #000000; stroke-width: 0.8"/>
      </g>
     </g>
     <g id="text_39">
      <!-- 0 -->
      <g transform="translate(389.892547 238.622118) scale(0.1 -0.1)">
       <use xlink:href="#DejaVuSans-30"/>
      </g>
     </g>
    </g>
    <g id="xtick_10">
     <g id="line2d_44">
      <g>
       <use xlink:href="#m0fef1899a1" x="432.859893" y="224.02368" style="stroke: #000000; stroke-width: 0.8"/>
      </g>
     </g>
     <g id="text_40">
      <!-- 1 -->
      <g transform="translate(429.678643 238.622118) scale(0.1 -0.1)">
       <use xlink:href="#DejaVuSans-31"/>
      </g>
     </g>
    </g>
    <g id="xtick_11">
     <g id="line2d_45">
      <g>
       <use xlink:href="#m0fef1899a1" x="472.645989" y="224.02368" style="stroke: #000000; stroke-width: 0.8"/>
      </g>
     </g>
     <g id="text_41">
      <!-- 2 -->
      <g transform="translate(469.464739 238.622118) scale(0.1 -0.1)">
       <use xlink:href="#DejaVuSans-32"/>
      </g>
     </g>
    </g>
    <g id="xtick_12">
     <g id="line2d_46">
      <g>
       <use xlink:href="#m0fef1899a1" x="512.432086" y="224.02368" style="stroke: #000000; stroke-width: 0.8"/>
      </g>
     </g>
     <g id="text_42">
      <!-- 3 -->
      <g transform="translate(509.250836 238.622118) scale(0.1 -0.1)">
       <use xlink:href="#DejaVuSans-33"/>
      </g>
     </g>
    </g>
    <g id="text_43">
     <!-- Time (ms) -->
     <g transform="translate(427.553722 252.300242) scale(0.1 -0.1)">
      <use xlink:href="#DejaVuSans-54"/>
      <use xlink:href="#DejaVuSans-69" transform="translate(57.958984 0)"/>
      <use xlink:href="#DejaVuSans-6d" transform="translate(85.742188 0)"/>
      <use xlink:href="#DejaVuSans-65" transform="translate(183.154297 0)"/>
      <use xlink:href="#DejaVuSans-20" transform="translate(244.677734 0)"/>
      <use xlink:href="#DejaVuSans-28" transform="translate(276.464844 0)"/>
      <use xlink:href="#DejaVuSans-6d" transform="translate(315.478516 0)"/>
      <use xlink:href="#DejaVuSans-73" transform="translate(412.890625 0)"/>
      <use xlink:href="#DejaVuSans-29" transform="translate(464.990234 0)"/>
     </g>
    </g>
   </g>
   <g id="matplotlib.axis_6">
    <g id="ytick_15">
     <g id="line2d_47">
      <g>
       <use xlink:href="#mea7981a7b2" x="387.105882" y="215.21376" style="stroke: #000000; stroke-width: 0.8"/>
      </g>
     </g>
     <g id="text_44">
      <!-- 0.00 -->
      <g transform="translate(357.840257 219.012979) scale(0.1 -0.1)">
       <use xlink:href="#DejaVuSans-30"/>
       <use xlink:href="#DejaVuSans-2e" transform="translate(63.623047 0)"/>
       <use xlink:href="#DejaVuSans-30" transform="translate(95.410156 0)"/>
       <use xlink:href="#DejaVuSans-30" transform="translate(159.033203 0)"/>
      </g>
     </g>
    </g>
    <g id="ytick_16">
     <g id="line2d_48">
      <g>
       <use xlink:href="#mea7981a7b2" x="387.105882" y="193.478957" style="stroke: #000000; stroke-width: 0.8"/>
      </g>
     </g>
     <g id="text_45">
      <!-- 0.05 -->
      <g transform="translate(357.840257 197.278176) scale(0.1 -0.1)">
       <use xlink:href="#DejaVuSans-30"/>
       <use xlink:href="#DejaVuSans-2e" transform="translate(63.623047 0)"/>
       <use xlink:href="#DejaVuSans-30" transform="translate(95.410156 0)"/>
       <use xlink:href="#DejaVuSans-35" transform="translate(159.033203 0)"/>
      </g>
     </g>
    </g>
    <g id="ytick_17">
     <g id="line2d_49">
      <g>
       <use xlink:href="#mea7981a7b2" x="387.105882" y="171.744154" style="stroke: #000000; stroke-width: 0.8"/>
      </g>
     </g>
     <g id="text_46">
      <!-- 0.10 -->
      <g transform="translate(357.840257 175.543372) scale(0.1 -0.1)">
       <use xlink:href="#DejaVuSans-30"/>
       <use xlink:href="#DejaVuSans-2e" transform="translate(63.623047 0)"/>
       <use xlink:href="#DejaVuSans-31" transform="translate(95.410156 0)"/>
       <use xlink:href="#DejaVuSans-30" transform="translate(159.033203 0)"/>
      </g>
     </g>
    </g>
    <g id="ytick_18">
     <g id="line2d_50">
      <g>
       <use xlink:href="#mea7981a7b2" x="387.105882" y="150.00935" style="stroke: #000000; stroke-width: 0.8"/>
      </g>
     </g>
     <g id="text_47">
      <!-- 0.15 -->
      <g transform="translate(357.840257 153.808569) scale(0.1 -0.1)">
       <use xlink:href="#DejaVuSans-30"/>
       <use xlink:href="#DejaVuSans-2e" transform="translate(63.623047 0)"/>
       <use xlink:href="#DejaVuSans-31" transform="translate(95.410156 0)"/>
       <use xlink:href="#DejaVuSans-35" transform="translate(159.033203 0)"/>
      </g>
     </g>
    </g>
    <g id="ytick_19">
     <g id="line2d_51">
      <g>
       <use xlink:href="#mea7981a7b2" x="387.105882" y="128.274547" style="stroke: #000000; stroke-width: 0.8"/>
      </g>
     </g>
     <g id="text_48">
      <!-- 0.20 -->
      <g transform="translate(357.840257 132.073766) scale(0.1 -0.1)">
       <use xlink:href="#DejaVuSans-30"/>
       <use xlink:href="#DejaVuSans-2e" transform="translate(63.623047 0)"/>
       <use xlink:href="#DejaVuSans-32" transform="translate(95.410156 0)"/>
       <use xlink:href="#DejaVuSans-30" transform="translate(159.033203 0)"/>
      </g>
     </g>
    </g>
    <g id="ytick_20">
     <g id="line2d_52">
      <g>
       <use xlink:href="#mea7981a7b2" x="387.105882" y="106.539744" style="stroke: #000000; stroke-width: 0.8"/>
      </g>
     </g>
     <g id="text_49">
      <!-- 0.25 -->
      <g transform="translate(357.840257 110.338962) scale(0.1 -0.1)">
       <use xlink:href="#DejaVuSans-30"/>
       <use xlink:href="#DejaVuSans-2e" transform="translate(63.623047 0)"/>
       <use xlink:href="#DejaVuSans-32" transform="translate(95.410156 0)"/>
       <use xlink:href="#DejaVuSans-35" transform="translate(159.033203 0)"/>
      </g>
     </g>
    </g>
    <g id="ytick_21">
     <g id="line2d_53">
      <g>
       <use xlink:href="#mea7981a7b2" x="387.105882" y="84.80494" style="stroke: #000000; stroke-width: 0.8"/>
      </g>
     </g>
     <g id="text_50">
      <!-- 0.30 -->
      <g transform="translate(357.840257 88.604159) scale(0.1 -0.1)">
       <use xlink:href="#DejaVuSans-30"/>
       <use xlink:href="#DejaVuSans-2e" transform="translate(63.623047 0)"/>
       <use xlink:href="#DejaVuSans-33" transform="translate(95.410156 0)"/>
       <use xlink:href="#DejaVuSans-30" transform="translate(159.033203 0)"/>
      </g>
     </g>
    </g>
    <g id="ytick_22">
     <g id="line2d_54">
      <g>
       <use xlink:href="#mea7981a7b2" x="387.105882" y="63.070137" style="stroke: #000000; stroke-width: 0.8"/>
      </g>
     </g>
     <g id="text_51">
      <!-- 0.35 -->
      <g transform="translate(357.840257 66.869356) scale(0.1 -0.1)">
       <use xlink:href="#DejaVuSans-30"/>
       <use xlink:href="#DejaVuSans-2e" transform="translate(63.623047 0)"/>
       <use xlink:href="#DejaVuSans-33" transform="translate(95.410156 0)"/>
       <use xlink:href="#DejaVuSans-35" transform="translate(159.033203 0)"/>
      </g>
     </g>
    </g>
    <g id="ytick_23">
     <g id="line2d_55">
      <g>
       <use xlink:href="#mea7981a7b2" x="387.105882" y="41.335333" style="stroke: #000000; stroke-width: 0.8"/>
      </g>
     </g>
     <g id="text_52">
      <!-- 0.40 -->
      <g transform="translate(357.840257 45.134552) scale(0.1 -0.1)">
       <use xlink:href="#DejaVuSans-30"/>
       <use xlink:href="#DejaVuSans-2e" transform="translate(63.623047 0)"/>
       <use xlink:href="#DejaVuSans-34" transform="translate(95.410156 0)"/>
       <use xlink:href="#DejaVuSans-30" transform="translate(159.033203 0)"/>
      </g>
     </g>
    </g>
    <g id="text_53">
     <!-- Open Probability -->
     <g transform="translate(351.76057 168.487998) rotate(-90) scale(0.1 -0.1)">
      <use xlink:href="#DejaVuSans-4f"/>
      <use xlink:href="#DejaVuSans-70" transform="translate(78.710938 0)"/>
      <use xlink:href="#DejaVuSans-65" transform="translate(142.1875 0)"/>
      <use xlink:href="#DejaVuSans-6e" transform="translate(203.710938 0)"/>
      <use xlink:href="#DejaVuSans-20" transform="translate(267.089844 0)"/>
      <use xlink:href="#DejaVuSans-50" transform="translate(298.876953 0)"/>
      <use xlink:href="#DejaVuSans-72" transform="translate(357.429688 0)"/>
      <use xlink:href="#DejaVuSans-6f" transform="translate(396.292969 0)"/>
      <use xlink:href="#DejaVuSans-62" transform="translate(457.474609 0)"/>
      <use xlink:href="#DejaVuSans-61" transform="translate(520.951172 0)"/>
      <use xlink:href="#DejaVuSans-62" transform="translate(582.230469 0)"/>
      <use xlink:href="#DejaVuSans-69" transform="translate(645.707031 0)"/>
      <use xlink:href="#DejaVuSans-6c" transform="translate(673.490234 0)"/>
      <use xlink:href="#DejaVuSans-69" transform="translate(701.273438 0)"/>
      <use xlink:href="#DejaVuSans-74" transform="translate(729.056641 0)"/>
      <use xlink:href="#DejaVuSans-79" transform="translate(768.265625 0)"/>
     </g>
    </g>
   </g>
   <g id="line2d_56">
    <path d="M 393.073797 215.21376 
L 512.432086 215.213715 
L 512.432086 215.213715 
" clip-path="url(#p19e4a857bd)" style="fill: none; stroke: #000000; stroke-width: 1.5; stroke-linecap: square"/>
   </g>
   <g id="line2d_57">
    <path d="M 393.073797 215.21376 
L 431.795382 215.115437 
L 446.964663 214.674929 
L 460.137986 214.840071 
L 485.287057 215.059455 
L 512.432086 215.154317 
L 512.432086 215.154317 
" clip-path="url(#p19e4a857bd)" style="fill: none; stroke: #000000; stroke-width: 1.5; stroke-linecap: square"/>
   </g>
   <g id="line2d_58">
    <path d="M 393.073797 215.21376 
L 423.81155 215.123713 
L 425.408316 214.883152 
L 426.605891 214.496574 
L 427.803466 213.852881 
L 429.001041 212.893003 
L 430.198616 211.582215 
L 431.396191 209.916327 
L 432.992957 207.195071 
L 434.988915 203.20832 
L 438.980831 195.027789 
L 440.577597 192.399496 
L 441.775172 190.872781 
L 442.972747 189.775159 
L 444.170322 189.095522 
L 445.367897 188.77015 
L 446.565471 188.704712 
L 448.162238 188.878416 
L 449.759004 189.271161 
L 451.355771 189.922334 
L 452.553345 190.670597 
L 458.142028 195.035812 
L 461.335561 197.182031 
L 464.928285 199.324878 
L 468.521009 201.213056 
L 472.512925 203.049033 
L 476.504841 204.64423 
L 480.895949 206.158407 
L 485.686248 207.563929 
L 490.875739 208.841469 
L 496.464422 209.979717 
L 502.452296 210.974622 
L 509.238553 211.875549 
L 512.432086 212.23054 
L 512.432086 212.23054 
" clip-path="url(#p19e4a857bd)" style="fill: none; stroke: #000000; stroke-width: 1.5; stroke-linecap: square"/>
   </g>
   <g id="line2d_59">
    <path d="M 393.073797 215.21376 
L 421.017209 215.122326 
L 422.214784 214.848911 
L 423.013167 214.452961 
L 423.81155 213.799426 
L 424.609933 212.814493 
L 425.408316 211.432742 
L 426.2067 209.602567 
L 427.005083 207.289692 
L 428.202658 202.887233 
L 429.400233 197.396994 
L 430.597807 190.932341 
L 432.194574 181.113846 
L 434.988915 162.179061 
L 437.783256 143.61776 
L 439.380023 134.204395 
L 440.976789 126.150007 
L 442.174364 121.188899 
L 443.371939 117.272826 
L 444.170322 115.282073 
L 444.968705 113.799364 
L 445.767088 112.812458 
L 446.565471 112.278784 
L 447.363855 112.125083 
L 448.162238 112.266419 
L 448.960621 112.638716 
L 449.759004 113.223025 
L 450.557387 114.051476 
L 451.355771 115.205645 
L 452.154154 116.820422 
L 452.952537 119.098148 
L 455.746878 128.106235 
L 458.541219 136.270044 
L 461.335561 143.668706 
L 464.129902 150.373934 
L 466.924243 156.450721 
L 469.718584 161.957969 
L 472.512925 166.949058 
L 475.307267 171.472366 
L 478.101608 175.571734 
L 480.895949 179.286898 
L 483.69029 182.653867 
L 486.484631 185.705276 
L 489.678164 188.84401 
L 492.871697 191.648866 
L 496.06523 194.155361 
L 499.258763 196.395233 
L 502.851487 198.631586 
L 506.444212 200.602157 
L 510.436128 202.518249 
L 512.432086 203.379894 
L 512.432086 203.379894 
" clip-path="url(#p19e4a857bd)" style="fill: none; stroke: #000000; stroke-width: 1.5; stroke-linecap: square"/>
   </g>
   <g id="line2d_60">
    <path d="M 393.073797 215.21376 
L 419.420442 215.12981 
L 420.218826 214.93665 
L 421.017209 214.498978 
L 421.815592 213.676219 
L 422.613975 212.323669 
L 423.412358 210.309885 
L 424.210742 207.530047 
L 425.009125 203.914744 
L 425.807508 199.434204 
L 427.005083 191.123122 
L 428.202658 181.078693 
L 429.799424 165.558225 
L 432.593765 135.322331 
L 435.388107 105.52798 
L 437.384065 86.604985 
L 438.980831 73.493842 
L 440.577597 62.399576 
L 441.775172 55.456308 
L 442.972747 49.712523 
L 444.170322 45.181201 
L 444.968705 42.843467 
L 445.767088 41.061616 
L 446.565471 39.841412 
L 447.363855 39.173761 
L 447.763046 39.035295 
L 448.561429 39.103037 
L 449.359813 39.564819 
L 450.158196 40.397621 
L 450.956579 41.689013 
L 451.754962 43.657668 
L 452.553345 46.68583 
L 453.75092 53.39325 
L 456.14607 66.483205 
L 458.541219 78.514262 
L 460.936369 89.572081 
L 463.331519 99.735392 
L 466.12586 110.558237 
L 468.920201 120.366714 
L 471.714542 129.255897 
L 474.508883 137.311946 
L 477.303225 144.612949 
L 480.097566 151.229672 
L 482.891907 157.22625 
L 485.686248 162.660807 
L 488.480589 167.586019 
L 491.274931 172.049624 
L 494.069272 176.094886 
L 496.863613 179.761015 
L 499.657954 183.083545 
L 502.452296 186.09468 
L 505.645828 189.191989 
L 508.839361 191.959827 
L 512.032894 194.433241 
L 512.432086 194.723314 
L 512.432086 194.723314 
" clip-path="url(#p19e4a857bd)" style="fill: none; stroke: #000000; stroke-width: 1.5; stroke-linecap: square"/>
   </g>
   <g id="patch_15">
    <path d="M 387.105882 224.02368 
L 387.105882 30.20544 
" style="fill: none; stroke: #000000; stroke-width: 0.8; stroke-linejoin: miter; stroke-linecap: square"/>
   </g>
   <g id="patch_16">
    <path d="M 518.4 224.02368 
L 518.4 30.20544 
" style="fill: none; stroke: #000000; stroke-width: 0.8; stroke-linejoin: miter; stroke-linecap: square"/>
   </g>
   <g id="patch_17">
    <path d="M 387.105882 224.02368 
L 518.4 224.02368 
" style="fill: none; stroke: #000000; stroke-width: 0.8; stroke-linejoin: miter; stroke-linecap: square"/>
   </g>
   <g id="patch_18">
    <path d="M 387.105882 30.20544 
L 518.4 30.20544 
" style="fill: none; stroke: #000000; stroke-width: 0.8; stroke-linejoin: miter; stroke-linecap: square"/>
   </g>
   <g id="text_54">
    <!-- VGCC Response -->
    <g transform="translate(404.896379 24.20544) scale(0.12 -0.12)">
     <defs>
      <path id="DejaVuSans-47" d="M 3809 666 
L 3809 1919 
L 2778 1919 
L 2778 2438 
L 4434 2438 
L 4434 434 
Q 4069 175 3628 42 
Q 3188 -91 2688 -91 
Q 1594 -91 976 548 
Q 359 1188 359 2328 
Q 359 3472 976 4111 
Q 1594 4750 2688 4750 
Q 3144 4750 3555 4637 
Q 3966 4525 4313 4306 
L 4313 3634 
Q 3963 3931 3569 4081 
Q 3175 4231 2741 4231 
Q 1884 4231 1454 3753 
Q 1025 3275 1025 2328 
Q 1025 1384 1454 906 
Q 1884 428 2741 428 
Q 3075 428 3337 486 
Q 3600 544 3809 666 
z
" transform="scale(0.015625)"/>
      <path id="DejaVuSans-43" d="M 4122 4306 
L 4122 3641 
Q 3803 3938 3442 4084 
Q 3081 4231 2675 4231 
Q 1875 4231 1450 3742 
Q 1025 3253 1025 2328 
Q 1025 1406 1450 917 
Q 1875 428 2675 428 
Q 3081 428 3442 575 
Q 3803 722 4122 1019 
L 4122 359 
Q 3791 134 3420 21 
Q 3050 -91 2638 -91 
Q 1578 -91 968 557 
Q 359 1206 359 2328 
Q 359 3453 968 4101 
Q 1578 4750 2638 4750 
Q 3056 4750 3426 4639 
Q 3797 4528 4122 4306 
z
" transform="scale(0.015625)"/>
     </defs>
     <use xlink:href="#DejaVuSans-56"/>
     <use xlink:href="#DejaVuSans-47" transform="translate(68.408203 0)"/>
     <use xlink:href="#DejaVuSans-43" transform="translate(145.898438 0)"/>
     <use xlink:href="#DejaVuSans-43" transform="translate(215.722656 0)"/>
     <use xlink:href="#DejaVuSans-20" transform="translate(285.546875 0)"/>
     <use xlink:href="#DejaVuSans-52" transform="translate(317.333984 0)"/>
     <use xlink:href="#DejaVuSans-65" transform="translate(382.316406 0)"/>
     <use xlink:href="#DejaVuSans-73" transform="translate(443.839844 0)"/>
     <use xlink:href="#DejaVuSans-70" transform="translate(495.939453 0)"/>
     <use xlink:href="#DejaVuSans-6f" transform="translate(559.416016 0)"/>
     <use xlink:href="#DejaVuSans-6e" transform="translate(620.597656 0)"/>
     <use xlink:href="#DejaVuSans-73" transform="translate(683.976562 0)"/>
     <use xlink:href="#DejaVuSans-65" transform="translate(736.076172 0)"/>
    </g>
   </g>
   <g id="legend_3">
    <g id="patch_19">
     <path d="M 431.0125 111.596065 
L 511.4 111.596065 
Q 513.4 111.596065 513.4 109.596065 
L 513.4 37.20544 
Q 513.4 35.20544 511.4 35.20544 
L 431.0125 35.20544 
Q 429.0125 35.20544 429.0125 37.20544 
L 429.0125 109.596065 
Q 429.0125 111.596065 431.0125 111.596065 
z
" style="fill: #ffffff; opacity: 0.8; stroke: #cccccc; stroke-linejoin: miter"/>
    </g>
    <g id="line2d_61">
     <path d="M 433.0125 43.303877 
L 443.0125 43.303877 
L 453.0125 43.303877 
" style="fill: none; stroke: #000000; stroke-width: 1.5; stroke-linecap: square"/>
    </g>
    <g id="text_55">
     <!-- 20.0 mV -->
     <g transform="translate(461.0125 46.803877) scale(0.1 -0.1)">
      <use xlink:href="#DejaVuSans-32"/>
      <use xlink:href="#DejaVuSans-30" transform="translate(63.623047 0)"/>
      <use xlink:href="#DejaVuSans-2e" transform="translate(127.246094 0)"/>
      <use xlink:href="#DejaVuSans-30" transform="translate(159.033203 0)"/>
      <use xlink:href="#DejaVuSans-20" transform="translate(222.65625 0)"/>
      <use xlink:href="#DejaVuSans-6d" transform="translate(254.443359 0)"/>
      <use xlink:href="#DejaVuSans-56" transform="translate(351.855469 0)"/>
     </g>
    </g>
    <g id="line2d_62">
     <path d="M 433.0125 57.982002 
L 443.0125 57.982002 
L 453.0125 57.982002 
" style="fill: none; stroke: #000000; stroke-width: 1.5; stroke-linecap: square"/>
    </g>
    <g id="text_56">
     <!-- 40.0 mV -->
     <g transform="translate(461.0125 61.482002) scale(0.1 -0.1)">
      <use xlink:href="#DejaVuSans-34"/>
      <use xlink:href="#DejaVuSans-30" transform="translate(63.623047 0)"/>
      <use xlink:href="#DejaVuSans-2e" transform="translate(127.246094 0)"/>
      <use xlink:href="#DejaVuSans-30" transform="translate(159.033203 0)"/>
      <use xlink:href="#DejaVuSans-20" transform="translate(222.65625 0)"/>
      <use xlink:href="#DejaVuSans-6d" transform="translate(254.443359 0)"/>
      <use xlink:href="#DejaVuSans-56" transform="translate(351.855469 0)"/>
     </g>
    </g>
    <g id="line2d_63">
     <path d="M 433.0125 72.660127 
L 443.0125 72.660127 
L 453.0125 72.660127 
" style="fill: none; stroke: #000000; stroke-width: 1.5; stroke-linecap: square"/>
    </g>
    <g id="text_57">
     <!-- 60.0 mV -->
     <g transform="translate(461.0125 76.160127) scale(0.1 -0.1)">
      <use xlink:href="#DejaVuSans-36"/>
      <use xlink:href="#DejaVuSans-30" transform="translate(63.623047 0)"/>
      <use xlink:href="#DejaVuSans-2e" transform="translate(127.246094 0)"/>
      <use xlink:href="#DejaVuSans-30" transform="translate(159.033203 0)"/>
      <use xlink:href="#DejaVuSans-20" transform="translate(222.65625 0)"/>
      <use xlink:href="#DejaVuSans-6d" transform="translate(254.443359 0)"/>
      <use xlink:href="#DejaVuSans-56" transform="translate(351.855469 0)"/>
     </g>
    </g>
    <g id="line2d_64">
     <path d="M 433.0125 87.338253 
L 443.0125 87.338253 
L 453.0125 87.338253 
" style="fill: none; stroke: #000000; stroke-width: 1.5; stroke-linecap: square"/>
    </g>
    <g id="text_58">
     <!-- 80.0 mV -->
     <g transform="translate(461.0125 90.838253) scale(0.1 -0.1)">
      <use xlink:href="#DejaVuSans-38"/>
      <use xlink:href="#DejaVuSans-30" transform="translate(63.623047 0)"/>
      <use xlink:href="#DejaVuSans-2e" transform="translate(127.246094 0)"/>
      <use xlink:href="#DejaVuSans-30" transform="translate(159.033203 0)"/>
      <use xlink:href="#DejaVuSans-20" transform="translate(222.65625 0)"/>
      <use xlink:href="#DejaVuSans-6d" transform="translate(254.443359 0)"/>
      <use xlink:href="#DejaVuSans-56" transform="translate(351.855469 0)"/>
     </g>
    </g>
    <g id="line2d_65">
     <path d="M 433.0125 102.016378 
L 443.0125 102.016378 
L 453.0125 102.016378 
" style="fill: none; stroke: #000000; stroke-width: 1.5; stroke-linecap: square"/>
    </g>
    <g id="text_59">
     <!-- 100.0 mV -->
     <g transform="translate(461.0125 105.516378) scale(0.1 -0.1)">
      <use xlink:href="#DejaVuSans-31"/>
      <use xlink:href="#DejaVuSans-30" transform="translate(63.623047 0)"/>
      <use xlink:href="#DejaVuSans-30" transform="translate(127.246094 0)"/>
      <use xlink:href="#DejaVuSans-2e" transform="translate(190.869141 0)"/>
      <use xlink:href="#DejaVuSans-30" transform="translate(222.65625 0)"/>
      <use xlink:href="#DejaVuSans-20" transform="translate(286.279297 0)"/>
      <use xlink:href="#DejaVuSans-6d" transform="translate(318.066406 0)"/>
      <use xlink:href="#DejaVuSans-56" transform="translate(415.478516 0)"/>
     </g>
    </g>
   </g>
  </g>
 </g>
 <defs>
  <clipPath id="p659cb82c85">
   <rect x="72" y="30.20544" width="131.294118" height="193.81824"/>
  </clipPath>
  <clipPath id="p889e90cf31">
   <rect x="229.552941" y="30.20544" width="131.294118" height="193.81824"/>
  </clipPath>
  <clipPath id="p19e4a857bd">
   <rect x="387.105882" y="30.20544" width="131.294118" height="193.81824"/>
  </clipPath>
 </defs>
</svg>
