<?xml version="1.0" encoding="utf-8" standalone="no"?>
<!DOCTYPE svg PUBLIC "-//W3C//DTD SVG 1.1//EN"
  "http://www.w3.org/Graphics/SVG/1.1/DTD/svg11.dtd">
<svg xmlns:xlink="http://www.w3.org/1999/xlink" width="504pt" height="216pt" viewBox="0 0 504 216" xmlns="http://www.w3.org/2000/svg" version="1.1">
 <metadata>
  <rdf:RDF xmlns:dc="http://purl.org/dc/elements/1.1/" xmlns:cc="http://creativecommons.org/ns#" xmlns:rdf="http://www.w3.org/1999/02/22-rdf-syntax-ns#">
   <cc:Work>
    <dc:type rdf:resource="http://purl.org/dc/dcmitype/StillImage"/>
    <dc:date>2025-03-20T15:37:20.243541</dc:date>
    <dc:format>image/svg+xml</dc:format>
    <dc:creator>
     <cc:Agent>
      <dc:title>Matplotlib v3.10.1, https://matplotlib.org/</dc:title>
     </cc:Agent>
    </dc:creator>
   </cc:Work>
  </rdf:RDF>
 </metadata>
 <defs>
  <style type="text/css">*{stroke-linejoin: round; stroke-linecap: butt}</style>
 </defs>
 <g id="figure_1">
  <g id="patch_1">
   <path d="M 0 216 
L 504 216 
L 504 0 
L 0 0 
z
" style="fill: #ffffff"/>
  </g>
  <g id="axes_1">
   <g id="patch_2">
    <path d="M 47.961178 182.64351 
L 248.99976 182.64351 
L 248.99976 6.799459 
L 47.961178 6.799459 
z
" style="fill: #ffffff"/>
   </g>
   <g id="matplotlib.axis_1">
    <g id="xtick_1">
     <g id="line2d_1">
      <defs>
       <path id="mc0d71f0dc7" d="M 0 0 
L 0 3.5 
" style="stroke: #000000; stroke-width: 0.8"/>
      </defs>
      <g>
       <use xlink:href="#mc0d71f0dc7" x="57.918857" y="182.64351" style="stroke: #000000; stroke-width: 0.8"/>
      </g>
     </g>
     <g id="text_1">
      <!-- 0.0 -->
      <g transform="translate(49.967294 197.241948) scale(0.1 -0.1)">
       <defs>
        <path id="DejaVuSans-30" d="M 2034 4250 
Q 1547 4250 1301 3770 
Q 1056 3291 1056 2328 
Q 1056 1369 1301 889 
Q 1547 409 2034 409 
Q 2525 409 2770 889 
Q 3016 1369 3016 2328 
Q 3016 3291 2770 3770 
Q 2525 4250 2034 4250 
z
M 2034 4750 
Q 2819 4750 3233 4129 
Q 3647 3509 3647 2328 
Q 3647 1150 3233 529 
Q 2819 -91 2034 -91 
Q 1250 -91 836 529 
Q 422 1150 422 2328 
Q 422 3509 836 4129 
Q 1250 4750 2034 4750 
z
" transform="scale(0.015625)"/>
        <path id="DejaVuSans-2e" d="M 684 794 
L 1344 794 
L 1344 0 
L 684 0 
L 684 794 
z
" transform="scale(0.015625)"/>
       </defs>
       <use xlink:href="#DejaVuSans-30"/>
       <use xlink:href="#DejaVuSans-2e" transform="translate(63.623047 0)"/>
       <use xlink:href="#DejaVuSans-30" transform="translate(95.410156 0)"/>
      </g>
     </g>
    </g>
    <g id="xtick_2">
     <g id="line2d_2">
      <g>
       <use xlink:href="#mc0d71f0dc7" x="103.404553" y="182.64351" style="stroke: #000000; stroke-width: 0.8"/>
      </g>
     </g>
     <g id="text_2">
      <!-- 0.5 -->
      <g transform="translate(95.452991 197.241948) scale(0.1 -0.1)">
       <defs>
        <path id="DejaVuSans-35" d="M 691 4666 
L 3169 4666 
L 3169 4134 
L 1269 4134 
L 1269 2991 
Q 1406 3038 1543 3061 
Q 1681 3084 1819 3084 
Q 2600 3084 3056 2656 
Q 3513 2228 3513 1497 
Q 3513 744 3044 326 
Q 2575 -91 1722 -91 
Q 1428 -91 1123 -41 
Q 819 9 494 109 
L 494 744 
Q 775 591 1075 516 
Q 1375 441 1709 441 
Q 2250 441 2565 725 
Q 2881 1009 2881 1497 
Q 2881 1984 2565 2268 
Q 2250 2553 1709 2553 
Q 1456 2553 1204 2497 
Q 953 2441 691 2322 
L 691 4666 
z
" transform="scale(0.015625)"/>
       </defs>
       <use xlink:href="#DejaVuSans-30"/>
       <use xlink:href="#DejaVuSans-2e" transform="translate(63.623047 0)"/>
       <use xlink:href="#DejaVuSans-35" transform="translate(95.410156 0)"/>
      </g>
     </g>
    </g>
    <g id="xtick_3">
     <g id="line2d_3">
      <g>
       <use xlink:href="#mc0d71f0dc7" x="148.89025" y="182.64351" style="stroke: #000000; stroke-width: 0.8"/>
      </g>
     </g>
     <g id="text_3">
      <!-- 1.0 -->
      <g transform="translate(140.938687 197.241948) scale(0.1 -0.1)">
       <defs>
        <path id="DejaVuSans-31" d="M 794 531 
L 1825 531 
L 1825 4091 
L 703 3866 
L 703 4441 
L 1819 4666 
L 2450 4666 
L 2450 531 
L 3481 531 
L 3481 0 
L 794 0 
L 794 531 
z
" transform="scale(0.015625)"/>
       </defs>
       <use xlink:href="#DejaVuSans-31"/>
       <use xlink:href="#DejaVuSans-2e" transform="translate(63.623047 0)"/>
       <use xlink:href="#DejaVuSans-30" transform="translate(95.410156 0)"/>
      </g>
     </g>
    </g>
    <g id="xtick_4">
     <g id="line2d_4">
      <g>
       <use xlink:href="#mc0d71f0dc7" x="194.375946" y="182.64351" style="stroke: #000000; stroke-width: 0.8"/>
      </g>
     </g>
     <g id="text_4">
      <!-- 1.5 -->
      <g transform="translate(186.424384 197.241948) scale(0.1 -0.1)">
       <use xlink:href="#DejaVuSans-31"/>
       <use xlink:href="#DejaVuSans-2e" transform="translate(63.623047 0)"/>
       <use xlink:href="#DejaVuSans-35" transform="translate(95.410156 0)"/>
      </g>
     </g>
    </g>
    <g id="xtick_5">
     <g id="line2d_5">
      <g>
       <use xlink:href="#mc0d71f0dc7" x="239.861643" y="182.64351" style="stroke: #000000; stroke-width: 0.8"/>
      </g>
     </g>
     <g id="text_5">
      <!-- 2.0 -->
      <g transform="translate(231.91008 197.241948) scale(0.1 -0.1)">
       <defs>
        <path id="DejaVuSans-32" d="M 1228 531 
L 3431 531 
L 3431 0 
L 469 0 
L 469 531 
Q 828 903 1448 1529 
Q 2069 2156 2228 2338 
Q 2531 2678 2651 2914 
Q 2772 3150 2772 3378 
Q 2772 3750 2511 3984 
Q 2250 4219 1831 4219 
Q 1534 4219 1204 4116 
Q 875 4013 500 3803 
L 500 4441 
Q 881 4594 1212 4672 
Q 1544 4750 1819 4750 
Q 2544 4750 2975 4387 
Q 3406 4025 3406 3419 
Q 3406 3131 3298 2873 
Q 3191 2616 2906 2266 
Q 2828 2175 2409 1742 
Q 1991 1309 1228 531 
z
" transform="scale(0.015625)"/>
       </defs>
       <use xlink:href="#DejaVuSans-32"/>
       <use xlink:href="#DejaVuSans-2e" transform="translate(63.623047 0)"/>
       <use xlink:href="#DejaVuSans-30" transform="translate(95.410156 0)"/>
      </g>
     </g>
    </g>
    <g id="text_6">
     <!-- [buffer] (mM) -->
     <g transform="translate(114.908594 210.920073) scale(0.1 -0.1)">
      <defs>
       <path id="DejaVuSans-5b" d="M 550 4863 
L 1875 4863 
L 1875 4416 
L 1125 4416 
L 1125 -397 
L 1875 -397 
L 1875 -844 
L 550 -844 
L 550 4863 
z
" transform="scale(0.015625)"/>
       <path id="DejaVuSans-62" d="M 3116 1747 
Q 3116 2381 2855 2742 
Q 2594 3103 2138 3103 
Q 1681 3103 1420 2742 
Q 1159 2381 1159 1747 
Q 1159 1113 1420 752 
Q 1681 391 2138 391 
Q 2594 391 2855 752 
Q 3116 1113 3116 1747 
z
M 1159 2969 
Q 1341 3281 1617 3432 
Q 1894 3584 2278 3584 
Q 2916 3584 3314 3078 
Q 3713 2572 3713 1747 
Q 3713 922 3314 415 
Q 2916 -91 2278 -91 
Q 1894 -91 1617 61 
Q 1341 213 1159 525 
L 1159 0 
L 581 0 
L 581 4863 
L 1159 4863 
L 1159 2969 
z
" transform="scale(0.015625)"/>
       <path id="DejaVuSans-75" d="M 544 1381 
L 544 3500 
L 1119 3500 
L 1119 1403 
Q 1119 906 1312 657 
Q 1506 409 1894 409 
Q 2359 409 2629 706 
Q 2900 1003 2900 1516 
L 2900 3500 
L 3475 3500 
L 3475 0 
L 2900 0 
L 2900 538 
Q 2691 219 2414 64 
Q 2138 -91 1772 -91 
Q 1169 -91 856 284 
Q 544 659 544 1381 
z
M 1991 3584 
L 1991 3584 
z
" transform="scale(0.015625)"/>
       <path id="DejaVuSans-66" d="M 2375 4863 
L 2375 4384 
L 1825 4384 
Q 1516 4384 1395 4259 
Q 1275 4134 1275 3809 
L 1275 3500 
L 2222 3500 
L 2222 3053 
L 1275 3053 
L 1275 0 
L 697 0 
L 697 3053 
L 147 3053 
L 147 3500 
L 697 3500 
L 697 3744 
Q 697 4328 969 4595 
Q 1241 4863 1831 4863 
L 2375 4863 
z
" transform="scale(0.015625)"/>
       <path id="DejaVuSans-65" d="M 3597 1894 
L 3597 1613 
L 953 1613 
Q 991 1019 1311 708 
Q 1631 397 2203 397 
Q 2534 397 2845 478 
Q 3156 559 3463 722 
L 3463 178 
Q 3153 47 2828 -22 
Q 2503 -91 2169 -91 
Q 1331 -91 842 396 
Q 353 884 353 1716 
Q 353 2575 817 3079 
Q 1281 3584 2069 3584 
Q 2775 3584 3186 3129 
Q 3597 2675 3597 1894 
z
M 3022 2063 
Q 3016 2534 2758 2815 
Q 2500 3097 2075 3097 
Q 1594 3097 1305 2825 
Q 1016 2553 972 2059 
L 3022 2063 
z
" transform="scale(0.015625)"/>
       <path id="DejaVuSans-72" d="M 2631 2963 
Q 2534 3019 2420 3045 
Q 2306 3072 2169 3072 
Q 1681 3072 1420 2755 
Q 1159 2438 1159 1844 
L 1159 0 
L 581 0 
L 581 3500 
L 1159 3500 
L 1159 2956 
Q 1341 3275 1631 3429 
Q 1922 3584 2338 3584 
Q 2397 3584 2469 3576 
Q 2541 3569 2628 3553 
L 2631 2963 
z
" transform="scale(0.015625)"/>
       <path id="DejaVuSans-5d" d="M 1947 4863 
L 1947 -844 
L 622 -844 
L 622 -397 
L 1369 -397 
L 1369 4416 
L 622 4416 
L 622 4863 
L 1947 4863 
z
" transform="scale(0.015625)"/>
       <path id="DejaVuSans-20" transform="scale(0.015625)"/>
       <path id="DejaVuSans-28" d="M 1984 4856 
Q 1566 4138 1362 3434 
Q 1159 2731 1159 2009 
Q 1159 1288 1364 580 
Q 1569 -128 1984 -844 
L 1484 -844 
Q 1016 -109 783 600 
Q 550 1309 550 2009 
Q 550 2706 781 3412 
Q 1013 4119 1484 4856 
L 1984 4856 
z
" transform="scale(0.015625)"/>
       <path id="DejaVuSans-6d" d="M 3328 2828 
Q 3544 3216 3844 3400 
Q 4144 3584 4550 3584 
Q 5097 3584 5394 3201 
Q 5691 2819 5691 2113 
L 5691 0 
L 5113 0 
L 5113 2094 
Q 5113 2597 4934 2840 
Q 4756 3084 4391 3084 
Q 3944 3084 3684 2787 
Q 3425 2491 3425 1978 
L 3425 0 
L 2847 0 
L 2847 2094 
Q 2847 2600 2669 2842 
Q 2491 3084 2119 3084 
Q 1678 3084 1418 2786 
Q 1159 2488 1159 1978 
L 1159 0 
L 581 0 
L 581 3500 
L 1159 3500 
L 1159 2956 
Q 1356 3278 1631 3431 
Q 1906 3584 2284 3584 
Q 2666 3584 2933 3390 
Q 3200 3197 3328 2828 
z
" transform="scale(0.015625)"/>
       <path id="DejaVuSans-4d" d="M 628 4666 
L 1569 4666 
L 2759 1491 
L 3956 4666 
L 4897 4666 
L 4897 0 
L 4281 0 
L 4281 4097 
L 3078 897 
L 2444 897 
L 1241 4097 
L 1241 0 
L 628 0 
L 628 4666 
z
" transform="scale(0.015625)"/>
       <path id="DejaVuSans-29" d="M 513 4856 
L 1013 4856 
Q 1481 4119 1714 3412 
Q 1947 2706 1947 2009 
Q 1947 1309 1714 600 
Q 1481 -109 1013 -844 
L 513 -844 
Q 928 -128 1133 580 
Q 1338 1288 1338 2009 
Q 1338 2731 1133 3434 
Q 928 4138 513 4856 
z
" transform="scale(0.015625)"/>
      </defs>
      <use xlink:href="#DejaVuSans-5b"/>
      <use xlink:href="#DejaVuSans-62" transform="translate(39.013672 0)"/>
      <use xlink:href="#DejaVuSans-75" transform="translate(102.490234 0)"/>
      <use xlink:href="#DejaVuSans-66" transform="translate(165.869141 0)"/>
      <use xlink:href="#DejaVuSans-66" transform="translate(201.074219 0)"/>
      <use xlink:href="#DejaVuSans-65" transform="translate(236.279297 0)"/>
      <use xlink:href="#DejaVuSans-72" transform="translate(297.802734 0)"/>
      <use xlink:href="#DejaVuSans-5d" transform="translate(338.916016 0)"/>
      <use xlink:href="#DejaVuSans-20" transform="translate(377.929688 0)"/>
      <use xlink:href="#DejaVuSans-28" transform="translate(409.716797 0)"/>
      <use xlink:href="#DejaVuSans-6d" transform="translate(448.730469 0)"/>
      <use xlink:href="#DejaVuSans-4d" transform="translate(546.142578 0)"/>
      <use xlink:href="#DejaVuSans-29" transform="translate(632.421875 0)"/>
     </g>
    </g>
   </g>
   <g id="matplotlib.axis_2">
    <g id="ytick_1">
     <g id="line2d_6">
      <defs>
       <path id="m4fabc76540" d="M 0 0 
L -3.5 0 
" style="stroke: #000000; stroke-width: 0.8"/>
      </defs>
      <g>
       <use xlink:href="#m4fabc76540" x="47.961178" y="182.64351" style="stroke: #000000; stroke-width: 0.8"/>
      </g>
     </g>
     <g id="text_7">
      <!-- −0.5 -->
      <g transform="translate(16.678365 186.442729) scale(0.1 -0.1)">
       <defs>
        <path id="DejaVuSans-2212" d="M 678 2272 
L 4684 2272 
L 4684 1741 
L 678 1741 
L 678 2272 
z
" transform="scale(0.015625)"/>
       </defs>
       <use xlink:href="#DejaVuSans-2212"/>
       <use xlink:href="#DejaVuSans-30" transform="translate(83.789062 0)"/>
       <use xlink:href="#DejaVuSans-2e" transform="translate(147.412109 0)"/>
       <use xlink:href="#DejaVuSans-35" transform="translate(179.199219 0)"/>
      </g>
     </g>
    </g>
    <g id="ytick_2">
     <g id="line2d_7">
      <g>
       <use xlink:href="#m4fabc76540" x="47.961178" y="138.682497" style="stroke: #000000; stroke-width: 0.8"/>
      </g>
     </g>
     <g id="text_8">
      <!-- 0.0 -->
      <g transform="translate(25.058053 142.481716) scale(0.1 -0.1)">
       <use xlink:href="#DejaVuSans-30"/>
       <use xlink:href="#DejaVuSans-2e" transform="translate(63.623047 0)"/>
       <use xlink:href="#DejaVuSans-30" transform="translate(95.410156 0)"/>
      </g>
     </g>
    </g>
    <g id="ytick_3">
     <g id="line2d_8">
      <g>
       <use xlink:href="#m4fabc76540" x="47.961178" y="94.721484" style="stroke: #000000; stroke-width: 0.8"/>
      </g>
     </g>
     <g id="text_9">
      <!-- 0.5 -->
      <g transform="translate(25.058053 98.520703) scale(0.1 -0.1)">
       <use xlink:href="#DejaVuSans-30"/>
       <use xlink:href="#DejaVuSans-2e" transform="translate(63.623047 0)"/>
       <use xlink:href="#DejaVuSans-35" transform="translate(95.410156 0)"/>
      </g>
     </g>
    </g>
    <g id="ytick_4">
     <g id="line2d_9">
      <g>
       <use xlink:href="#m4fabc76540" x="47.961178" y="50.760472" style="stroke: #000000; stroke-width: 0.8"/>
      </g>
     </g>
     <g id="text_10">
      <!-- 1.0 -->
      <g transform="translate(25.058053 54.55969) scale(0.1 -0.1)">
       <use xlink:href="#DejaVuSans-31"/>
       <use xlink:href="#DejaVuSans-2e" transform="translate(63.623047 0)"/>
       <use xlink:href="#DejaVuSans-30" transform="translate(95.410156 0)"/>
      </g>
     </g>
    </g>
    <g id="ytick_5">
     <g id="line2d_10">
      <g>
       <use xlink:href="#m4fabc76540" x="47.961178" y="6.799459" style="stroke: #000000; stroke-width: 0.8"/>
      </g>
     </g>
     <g id="text_11">
      <!-- 1.5 -->
      <g transform="translate(25.058053 10.598677) scale(0.1 -0.1)">
       <use xlink:href="#DejaVuSans-31"/>
       <use xlink:href="#DejaVuSans-2e" transform="translate(63.623047 0)"/>
       <use xlink:href="#DejaVuSans-35" transform="translate(95.410156 0)"/>
      </g>
     </g>
    </g>
    <g id="text_12">
     <!-- relative magnitude of LTP -->
     <g transform="translate(10.598678 158.379297) rotate(-90) scale(0.1 -0.1)">
      <defs>
       <path id="DejaVuSans-6c" d="M 603 4863 
L 1178 4863 
L 1178 0 
L 603 0 
L 603 4863 
z
" transform="scale(0.015625)"/>
       <path id="DejaVuSans-61" d="M 2194 1759 
Q 1497 1759 1228 1600 
Q 959 1441 959 1056 
Q 959 750 1161 570 
Q 1363 391 1709 391 
Q 2188 391 2477 730 
Q 2766 1069 2766 1631 
L 2766 1759 
L 2194 1759 
z
M 3341 1997 
L 3341 0 
L 2766 0 
L 2766 531 
Q 2569 213 2275 61 
Q 1981 -91 1556 -91 
Q 1019 -91 701 211 
Q 384 513 384 1019 
Q 384 1609 779 1909 
Q 1175 2209 1959 2209 
L 2766 2209 
L 2766 2266 
Q 2766 2663 2505 2880 
Q 2244 3097 1772 3097 
Q 1472 3097 1187 3025 
Q 903 2953 641 2809 
L 641 3341 
Q 956 3463 1253 3523 
Q 1550 3584 1831 3584 
Q 2591 3584 2966 3190 
Q 3341 2797 3341 1997 
z
" transform="scale(0.015625)"/>
       <path id="DejaVuSans-74" d="M 1172 4494 
L 1172 3500 
L 2356 3500 
L 2356 3053 
L 1172 3053 
L 1172 1153 
Q 1172 725 1289 603 
Q 1406 481 1766 481 
L 2356 481 
L 2356 0 
L 1766 0 
Q 1100 0 847 248 
Q 594 497 594 1153 
L 594 3053 
L 172 3053 
L 172 3500 
L 594 3500 
L 594 4494 
L 1172 4494 
z
" transform="scale(0.015625)"/>
       <path id="DejaVuSans-69" d="M 603 3500 
L 1178 3500 
L 1178 0 
L 603 0 
L 603 3500 
z
M 603 4863 
L 1178 4863 
L 1178 4134 
L 603 4134 
L 603 4863 
z
" transform="scale(0.015625)"/>
       <path id="DejaVuSans-76" d="M 191 3500 
L 800 3500 
L 1894 563 
L 2988 3500 
L 3597 3500 
L 2284 0 
L 1503 0 
L 191 3500 
z
" transform="scale(0.015625)"/>
       <path id="DejaVuSans-67" d="M 2906 1791 
Q 2906 2416 2648 2759 
Q 2391 3103 1925 3103 
Q 1463 3103 1205 2759 
Q 947 2416 947 1791 
Q 947 1169 1205 825 
Q 1463 481 1925 481 
Q 2391 481 2648 825 
Q 2906 1169 2906 1791 
z
M 3481 434 
Q 3481 -459 3084 -895 
Q 2688 -1331 1869 -1331 
Q 1566 -1331 1297 -1286 
Q 1028 -1241 775 -1147 
L 775 -588 
Q 1028 -725 1275 -790 
Q 1522 -856 1778 -856 
Q 2344 -856 2625 -561 
Q 2906 -266 2906 331 
L 2906 616 
Q 2728 306 2450 153 
Q 2172 0 1784 0 
Q 1141 0 747 490 
Q 353 981 353 1791 
Q 353 2603 747 3093 
Q 1141 3584 1784 3584 
Q 2172 3584 2450 3431 
Q 2728 3278 2906 2969 
L 2906 3500 
L 3481 3500 
L 3481 434 
z
" transform="scale(0.015625)"/>
       <path id="DejaVuSans-6e" d="M 3513 2113 
L 3513 0 
L 2938 0 
L 2938 2094 
Q 2938 2591 2744 2837 
Q 2550 3084 2163 3084 
Q 1697 3084 1428 2787 
Q 1159 2491 1159 1978 
L 1159 0 
L 581 0 
L 581 3500 
L 1159 3500 
L 1159 2956 
Q 1366 3272 1645 3428 
Q 1925 3584 2291 3584 
Q 2894 3584 3203 3211 
Q 3513 2838 3513 2113 
z
" transform="scale(0.015625)"/>
       <path id="DejaVuSans-64" d="M 2906 2969 
L 2906 4863 
L 3481 4863 
L 3481 0 
L 2906 0 
L 2906 525 
Q 2725 213 2448 61 
Q 2172 -91 1784 -91 
Q 1150 -91 751 415 
Q 353 922 353 1747 
Q 353 2572 751 3078 
Q 1150 3584 1784 3584 
Q 2172 3584 2448 3432 
Q 2725 3281 2906 2969 
z
M 947 1747 
Q 947 1113 1208 752 
Q 1469 391 1925 391 
Q 2381 391 2643 752 
Q 2906 1113 2906 1747 
Q 2906 2381 2643 2742 
Q 2381 3103 1925 3103 
Q 1469 3103 1208 2742 
Q 947 2381 947 1747 
z
" transform="scale(0.015625)"/>
       <path id="DejaVuSans-6f" d="M 1959 3097 
Q 1497 3097 1228 2736 
Q 959 2375 959 1747 
Q 959 1119 1226 758 
Q 1494 397 1959 397 
Q 2419 397 2687 759 
Q 2956 1122 2956 1747 
Q 2956 2369 2687 2733 
Q 2419 3097 1959 3097 
z
M 1959 3584 
Q 2709 3584 3137 3096 
Q 3566 2609 3566 1747 
Q 3566 888 3137 398 
Q 2709 -91 1959 -91 
Q 1206 -91 779 398 
Q 353 888 353 1747 
Q 353 2609 779 3096 
Q 1206 3584 1959 3584 
z
" transform="scale(0.015625)"/>
       <path id="DejaVuSans-4c" d="M 628 4666 
L 1259 4666 
L 1259 531 
L 3531 531 
L 3531 0 
L 628 0 
L 628 4666 
z
" transform="scale(0.015625)"/>
       <path id="DejaVuSans-54" d="M -19 4666 
L 3928 4666 
L 3928 4134 
L 2272 4134 
L 2272 0 
L 1638 0 
L 1638 4134 
L -19 4134 
L -19 4666 
z
" transform="scale(0.015625)"/>
       <path id="DejaVuSans-50" d="M 1259 4147 
L 1259 2394 
L 2053 2394 
Q 2494 2394 2734 2622 
Q 2975 2850 2975 3272 
Q 2975 3691 2734 3919 
Q 2494 4147 2053 4147 
L 1259 4147 
z
M 628 4666 
L 2053 4666 
Q 2838 4666 3239 4311 
Q 3641 3956 3641 3272 
Q 3641 2581 3239 2228 
Q 2838 1875 2053 1875 
L 1259 1875 
L 1259 0 
L 628 0 
L 628 4666 
z
" transform="scale(0.015625)"/>
      </defs>
      <use xlink:href="#DejaVuSans-72"/>
      <use xlink:href="#DejaVuSans-65" transform="translate(38.863281 0)"/>
      <use xlink:href="#DejaVuSans-6c" transform="translate(100.386719 0)"/>
      <use xlink:href="#DejaVuSans-61" transform="translate(128.169922 0)"/>
      <use xlink:href="#DejaVuSans-74" transform="translate(189.449219 0)"/>
      <use xlink:href="#DejaVuSans-69" transform="translate(228.658203 0)"/>
      <use xlink:href="#DejaVuSans-76" transform="translate(256.441406 0)"/>
      <use xlink:href="#DejaVuSans-65" transform="translate(315.621094 0)"/>
      <use xlink:href="#DejaVuSans-20" transform="translate(377.144531 0)"/>
      <use xlink:href="#DejaVuSans-6d" transform="translate(408.931641 0)"/>
      <use xlink:href="#DejaVuSans-61" transform="translate(506.34375 0)"/>
      <use xlink:href="#DejaVuSans-67" transform="translate(567.623047 0)"/>
      <use xlink:href="#DejaVuSans-6e" transform="translate(631.099609 0)"/>
      <use xlink:href="#DejaVuSans-69" transform="translate(694.478516 0)"/>
      <use xlink:href="#DejaVuSans-74" transform="translate(722.261719 0)"/>
      <use xlink:href="#DejaVuSans-75" transform="translate(761.470703 0)"/>
      <use xlink:href="#DejaVuSans-64" transform="translate(824.849609 0)"/>
      <use xlink:href="#DejaVuSans-65" transform="translate(888.326172 0)"/>
      <use xlink:href="#DejaVuSans-20" transform="translate(949.849609 0)"/>
      <use xlink:href="#DejaVuSans-6f" transform="translate(981.636719 0)"/>
      <use xlink:href="#DejaVuSans-66" transform="translate(1042.818359 0)"/>
      <use xlink:href="#DejaVuSans-20" transform="translate(1078.023438 0)"/>
      <use xlink:href="#DejaVuSans-4c" transform="translate(1109.810547 0)"/>
      <use xlink:href="#DejaVuSans-54" transform="translate(1151.773438 0)"/>
      <use xlink:href="#DejaVuSans-50" transform="translate(1212.857422 0)"/>
     </g>
    </g>
   </g>
   <g id="line2d_11">
    <path d="M 57.918857 50.005193 
L 59.738285 51.104342 
L 61.557713 52.223083 
L 63.377141 53.361144 
L 65.196568 54.518216 
L 67.015996 55.693952 
L 68.835424 56.887968 
L 70.654852 58.099842 
L 72.47428 59.329113 
L 74.293708 60.575283 
L 76.113136 61.837817 
L 77.932563 63.116141 
L 79.751991 64.409645 
L 81.571419 65.717684 
L 83.390847 67.039577 
L 85.210275 68.374608 
L 87.029703 69.722031 
L 88.849131 71.081066 
L 90.668558 72.450905 
L 92.487986 73.83071 
L 94.307414 75.219618 
L 96.126842 76.616742 
L 97.94627 78.021172 
L 99.765698 79.43198 
L 101.585126 80.848219 
L 103.404553 82.268927 
L 105.223981 83.693131 
L 107.043409 85.119847 
L 108.862837 86.548084 
L 110.682265 87.976849 
L 112.501693 89.405144 
L 114.321121 90.831976 
L 116.140548 92.256353 
L 117.959976 93.677291 
L 119.779404 95.093816 
L 121.598832 96.504966 
L 123.41826 97.909794 
L 125.237688 99.307368 
L 127.057116 100.696778 
L 128.876543 102.077137 
L 130.695971 103.447578 
L 132.515399 104.807264 
L 134.334827 106.155385 
L 136.154255 107.491158 
L 137.973683 108.813835 
L 139.793111 110.122699 
L 141.612538 111.417067 
L 143.431966 112.696291 
L 145.251394 113.95976 
L 147.070822 115.206897 
L 148.89025 116.437165 
L 150.709678 117.650064 
L 152.529106 118.845131 
L 154.348533 120.021942 
L 156.167961 121.18011 
L 157.987389 122.319286 
L 159.806817 123.439159 
L 161.626245 124.539454 
L 163.445673 125.619934 
L 165.265101 126.680395 
L 167.084528 127.72067 
L 168.903956 128.740625 
L 170.723384 129.74016 
L 172.542812 130.719204 
L 174.36224 131.677722 
L 176.181668 132.615702 
L 178.001095 133.533167 
L 179.820523 134.430162 
L 181.639951 135.30676 
L 183.459379 136.163058 
L 185.278807 136.999178 
L 187.098235 137.815261 
L 188.917663 138.611471 
L 190.73709 139.387989 
L 192.556518 140.145016 
L 194.375946 140.882768 
L 196.195374 141.601476 
L 198.014802 142.301388 
L 199.83423 142.982761 
L 201.653658 143.645867 
L 203.473085 144.290985 
L 205.292513 144.918407 
L 207.111941 145.528431 
L 208.931369 146.121362 
L 210.750797 146.697514 
L 212.570225 147.257202 
L 214.389653 147.80075 
L 216.20908 148.328483 
L 218.028508 148.840728 
L 219.847936 149.337816 
L 221.667364 149.820079 
L 223.486792 150.287848 
L 225.30622 150.741456 
L 227.125648 151.181233 
L 228.945075 151.607511 
L 230.764503 152.020616 
L 232.583931 152.420877 
L 234.403359 152.808615 
L 236.222787 153.184153 
L 238.042215 153.547806 
L 239.861643 153.89989 
" clip-path="url(#pdbab194e58)" style="fill: none; stroke: #000000; stroke-width: 2; stroke-linecap: square"/>
   </g>
   <g id="line2d_12">
    <path d="M 57.918857 50.179987 
L 59.738285 50.895112 
L 61.557713 51.651687 
L 63.377141 52.451273 
L 65.196568 53.295373 
L 67.015996 54.185419 
L 68.835424 55.122752 
L 70.654852 56.108595 
L 72.47428 57.144037 
L 74.293708 58.230008 
L 76.113136 59.367253 
L 77.932563 60.55631 
L 79.751991 61.797484 
L 81.571419 63.090822 
L 83.390847 64.436094 
L 85.210275 65.832769 
L 87.029703 67.279994 
L 88.849131 68.776582 
L 90.668558 70.320999 
L 92.487986 71.911351 
L 94.307414 73.545385 
L 96.126842 75.220489 
L 97.94627 76.933696 
L 99.765698 78.681703 
L 101.585126 80.460886 
L 103.404553 82.267322 
L 105.223981 84.096827 
L 107.043409 85.944985 
L 108.862837 87.807193 
L 110.682265 89.678703 
L 112.501693 91.554672 
L 114.321121 93.430209 
L 116.140548 95.300429 
L 117.959976 97.160502 
L 119.779404 99.005702 
L 121.598832 100.831455 
L 123.41826 102.633384 
L 125.237688 104.407348 
L 127.057116 106.149475 
L 128.876543 107.856197 
L 130.695971 109.524267 
L 132.515399 111.150781 
L 134.334827 112.733189 
L 136.154255 114.269303 
L 137.973683 115.757292 
L 139.793111 117.195683 
L 141.612538 118.58335 
L 143.431966 119.919498 
L 145.251394 121.20365 
L 147.070822 122.435626 
L 148.89025 123.615521 
L 150.709678 124.743684 
L 152.529106 125.820689 
L 154.348533 126.847316 
L 156.167961 127.824525 
L 157.987389 128.753431 
L 159.806817 129.635278 
L 161.626245 130.471426 
L 163.445673 131.263319 
L 165.265101 132.012474 
L 167.084528 132.720458 
L 168.903956 133.388875 
L 170.723384 134.019349 
L 172.542812 134.613512 
L 174.36224 135.172993 
L 176.181668 135.699405 
L 178.001095 136.194341 
L 179.820523 136.659361 
L 181.639951 137.095992 
L 183.459379 137.505717 
L 185.278807 137.889975 
L 187.098235 138.250156 
L 188.917663 138.5876 
L 190.73709 138.903592 
L 192.556518 139.199368 
L 194.375946 139.476105 
L 196.195374 139.734931 
L 198.014802 139.976916 
L 199.83423 140.203081 
L 201.653658 140.414393 
L 203.473085 140.611769 
L 205.292513 140.796078 
L 207.111941 140.968141 
L 208.931369 141.128733 
L 210.750797 141.278586 
L 212.570225 141.418387 
L 214.389653 141.548786 
L 216.20908 141.670394 
L 218.028508 141.783783 
L 219.847936 141.889493 
L 221.667364 141.988029 
L 223.486792 142.079865 
L 225.30622 142.165446 
L 227.125648 142.245188 
L 228.945075 142.319482 
L 230.764503 142.388693 
L 232.583931 142.453161 
L 234.403359 142.513208 
L 236.222787 142.569131 
L 238.042215 142.621209 
L 239.861643 142.669704 
" clip-path="url(#pdbab194e58)" style="fill: none; stroke: #808080; stroke-width: 2; stroke-linecap: square"/>
   </g>
   <g id="line2d_13">
    <path d="M 47.961178 138.682497 
L 248.99976 138.682497 
" clip-path="url(#pdbab194e58)" style="fill: none; stroke-dasharray: 1.85,0.8; stroke-dashoffset: 0; stroke: #000000; stroke-width: 0.5"/>
   </g>
   <g id="patch_3">
    <path d="M 47.961178 182.64351 
L 47.961178 6.799459 
" style="fill: none; stroke: #000000; stroke-width: 0.8; stroke-linejoin: miter; stroke-linecap: square"/>
   </g>
   <g id="patch_4">
    <path d="M 248.99976 182.64351 
L 248.99976 6.799459 
" style="fill: none; stroke: #000000; stroke-width: 0.8; stroke-linejoin: miter; stroke-linecap: square"/>
   </g>
   <g id="patch_5">
    <path d="M 47.961178 182.64351 
L 248.99976 182.64351 
" style="fill: none; stroke: #000000; stroke-width: 0.8; stroke-linejoin: miter; stroke-linecap: square"/>
   </g>
   <g id="patch_6">
    <path d="M 47.961178 6.799459 
L 248.99976 6.799459 
" style="fill: none; stroke: #000000; stroke-width: 0.8; stroke-linejoin: miter; stroke-linecap: square"/>
   </g>
   <g id="legend_1">
    <g id="patch_7">
     <path d="M 178.095073 44.155709 
L 241.99976 44.155709 
Q 243.99976 44.155709 243.99976 42.155709 
L 243.99976 13.799459 
Q 243.99976 11.799459 241.99976 11.799459 
L 178.095073 11.799459 
Q 176.095073 11.799459 176.095073 13.799459 
L 176.095073 42.155709 
Q 176.095073 44.155709 178.095073 44.155709 
z
" style="fill: #ffffff; opacity: 0.8; stroke: #cccccc; stroke-linejoin: miter"/>
    </g>
    <g id="line2d_14">
     <defs>
      <path id="m28d75006ca" d="M 0 3 
C 0.795609 3 1.55874 2.683901 2.12132 2.12132 
C 2.683901 1.55874 3 0.795609 3 0 
C 3 -0.795609 2.683901 -1.55874 2.12132 -2.12132 
C 1.55874 -2.683901 0.795609 -3 0 -3 
C -0.795609 -3 -1.55874 -2.683901 -2.12132 -2.12132 
C -2.683901 -1.55874 -3 -0.795609 -3 0 
C -3 0.795609 -2.683901 1.55874 -2.12132 2.12132 
C -1.55874 2.683901 -0.795609 3 0 3 
z
" style="stroke: #000000"/>
     </defs>
     <g>
      <use xlink:href="#m28d75006ca" x="190.095073" y="19.897896" style="stroke: #000000"/>
     </g>
    </g>
    <g id="text_13">
     <!-- BAPTA -->
     <g transform="translate(208.095073 23.397896) scale(0.1 -0.1)">
      <defs>
       <path id="DejaVuSans-42" d="M 1259 2228 
L 1259 519 
L 2272 519 
Q 2781 519 3026 730 
Q 3272 941 3272 1375 
Q 3272 1813 3026 2020 
Q 2781 2228 2272 2228 
L 1259 2228 
z
M 1259 4147 
L 1259 2741 
L 2194 2741 
Q 2656 2741 2882 2914 
Q 3109 3088 3109 3444 
Q 3109 3797 2882 3972 
Q 2656 4147 2194 4147 
L 1259 4147 
z
M 628 4666 
L 2241 4666 
Q 2963 4666 3353 4366 
Q 3744 4066 3744 3513 
Q 3744 3084 3544 2831 
Q 3344 2578 2956 2516 
Q 3422 2416 3680 2098 
Q 3938 1781 3938 1306 
Q 3938 681 3513 340 
Q 3088 0 2303 0 
L 628 0 
L 628 4666 
z
" transform="scale(0.015625)"/>
       <path id="DejaVuSans-41" d="M 2188 4044 
L 1331 1722 
L 3047 1722 
L 2188 4044 
z
M 1831 4666 
L 2547 4666 
L 4325 0 
L 3669 0 
L 3244 1197 
L 1141 1197 
L 716 0 
L 50 0 
L 1831 4666 
z
" transform="scale(0.015625)"/>
      </defs>
      <use xlink:href="#DejaVuSans-42"/>
      <use xlink:href="#DejaVuSans-41" transform="translate(68.603516 0)"/>
      <use xlink:href="#DejaVuSans-50" transform="translate(137.011719 0)"/>
      <use xlink:href="#DejaVuSans-54" transform="translate(197.314453 0)"/>
      <use xlink:href="#DejaVuSans-41" transform="translate(250.648438 0)"/>
     </g>
    </g>
    <g id="line2d_15">
     <defs>
      <path id="m1a5369c1b9" d="M 0 3 
C 0.795609 3 1.55874 2.683901 2.12132 2.12132 
C 2.683901 1.55874 3 0.795609 3 0 
C 3 -0.795609 2.683901 -1.55874 2.12132 -2.12132 
C 1.55874 -2.683901 0.795609 -3 0 -3 
C -0.795609 -3 -1.55874 -2.683901 -2.12132 -2.12132 
C -2.683901 -1.55874 -3 -0.795609 -3 0 
C -3 0.795609 -2.683901 1.55874 -2.12132 2.12132 
C -1.55874 2.683901 -0.795609 3 0 3 
z
" style="stroke: #000000"/>
     </defs>
     <g>
      <use xlink:href="#m1a5369c1b9" x="190.095073" y="34.576021" style="fill: #ffffff; stroke: #000000"/>
     </g>
    </g>
    <g id="text_14">
     <!-- EGTA -->
     <g transform="translate(208.095073 38.076021) scale(0.1 -0.1)">
      <defs>
       <path id="DejaVuSans-45" d="M 628 4666 
L 3578 4666 
L 3578 4134 
L 1259 4134 
L 1259 2753 
L 3481 2753 
L 3481 2222 
L 1259 2222 
L 1259 531 
L 3634 531 
L 3634 0 
L 628 0 
L 628 4666 
z
" transform="scale(0.015625)"/>
       <path id="DejaVuSans-47" d="M 3809 666 
L 3809 1919 
L 2778 1919 
L 2778 2438 
L 4434 2438 
L 4434 434 
Q 4069 175 3628 42 
Q 3188 -91 2688 -91 
Q 1594 -91 976 548 
Q 359 1188 359 2328 
Q 359 3472 976 4111 
Q 1594 4750 2688 4750 
Q 3144 4750 3555 4637 
Q 3966 4525 4313 4306 
L 4313 3634 
Q 3963 3931 3569 4081 
Q 3175 4231 2741 4231 
Q 1884 4231 1454 3753 
Q 1025 3275 1025 2328 
Q 1025 1384 1454 906 
Q 1884 428 2741 428 
Q 3075 428 3337 486 
Q 3600 544 3809 666 
z
" transform="scale(0.015625)"/>
      </defs>
      <use xlink:href="#DejaVuSans-45"/>
      <use xlink:href="#DejaVuSans-47" transform="translate(63.183594 0)"/>
      <use xlink:href="#DejaVuSans-54" transform="translate(137.048828 0)"/>
      <use xlink:href="#DejaVuSans-41" transform="translate(190.382812 0)"/>
     </g>
    </g>
   </g>
   <g id="line2d_16">
    <g clip-path="url(#pdbab194e58)">
     <use xlink:href="#m28d75006ca" x="58.734744" y="50.495646" style="stroke: #000000"/>
     <use xlink:href="#m28d75006ca" x="103.411926" y="82.274692" style="stroke: #000000"/>
     <use xlink:href="#m28d75006ca" x="148.89025" y="116.437165" style="stroke: #000000"/>
     <use xlink:href="#m28d75006ca" x="239.222695" y="153.777544" style="stroke: #000000"/>
    </g>
   </g>
   <g id="line2d_17">
    <g clip-path="url(#pdbab194e58)">
     <use xlink:href="#m1a5369c1b9" x="58.734744" y="50.495646" style="fill: #ffffff; stroke: #000000"/>
     <use xlink:href="#m1a5369c1b9" x="103.411926" y="82.274692" style="fill: #ffffff; stroke: #000000"/>
     <use xlink:href="#m1a5369c1b9" x="148.846015" y="123.587451" style="fill: #ffffff; stroke: #000000"/>
     <use xlink:href="#m1a5369c1b9" x="239.291505" y="142.654878" style="fill: #ffffff; stroke: #000000"/>
    </g>
   </g>
  </g>
  <g id="axes_2">
   <g id="patch_8">
    <path d="M 299.961177 182.64351 
L 500.99976 182.64351 
L 500.99976 6.799459 
L 299.961177 6.799459 
z
" style="fill: #ffffff"/>
   </g>
   <g id="matplotlib.axis_3">
    <g id="xtick_6">
     <g id="line2d_18">
      <g>
       <use xlink:href="#mc0d71f0dc7" x="309.918857" y="182.64351" style="stroke: #000000; stroke-width: 0.8"/>
      </g>
     </g>
     <g id="text_15">
      <!-- 0.0 -->
      <g transform="translate(301.967294 197.241948) scale(0.1 -0.1)">
       <use xlink:href="#DejaVuSans-30"/>
       <use xlink:href="#DejaVuSans-2e" transform="translate(63.623047 0)"/>
       <use xlink:href="#DejaVuSans-30" transform="translate(95.410156 0)"/>
      </g>
     </g>
    </g>
    <g id="xtick_7">
     <g id="line2d_19">
      <g>
       <use xlink:href="#mc0d71f0dc7" x="355.404553" y="182.64351" style="stroke: #000000; stroke-width: 0.8"/>
      </g>
     </g>
     <g id="text_16">
      <!-- 0.5 -->
      <g transform="translate(347.452991 197.241948) scale(0.1 -0.1)">
       <use xlink:href="#DejaVuSans-30"/>
       <use xlink:href="#DejaVuSans-2e" transform="translate(63.623047 0)"/>
       <use xlink:href="#DejaVuSans-35" transform="translate(95.410156 0)"/>
      </g>
     </g>
    </g>
    <g id="xtick_8">
     <g id="line2d_20">
      <g>
       <use xlink:href="#mc0d71f0dc7" x="400.89025" y="182.64351" style="stroke: #000000; stroke-width: 0.8"/>
      </g>
     </g>
     <g id="text_17">
      <!-- 1.0 -->
      <g transform="translate(392.938687 197.241948) scale(0.1 -0.1)">
       <use xlink:href="#DejaVuSans-31"/>
       <use xlink:href="#DejaVuSans-2e" transform="translate(63.623047 0)"/>
       <use xlink:href="#DejaVuSans-30" transform="translate(95.410156 0)"/>
      </g>
     </g>
    </g>
    <g id="xtick_9">
     <g id="line2d_21">
      <g>
       <use xlink:href="#mc0d71f0dc7" x="446.375946" y="182.64351" style="stroke: #000000; stroke-width: 0.8"/>
      </g>
     </g>
     <g id="text_18">
      <!-- 1.5 -->
      <g transform="translate(438.424384 197.241948) scale(0.1 -0.1)">
       <use xlink:href="#DejaVuSans-31"/>
       <use xlink:href="#DejaVuSans-2e" transform="translate(63.623047 0)"/>
       <use xlink:href="#DejaVuSans-35" transform="translate(95.410156 0)"/>
      </g>
     </g>
    </g>
    <g id="xtick_10">
     <g id="line2d_22">
      <g>
       <use xlink:href="#mc0d71f0dc7" x="491.861643" y="182.64351" style="stroke: #000000; stroke-width: 0.8"/>
      </g>
     </g>
     <g id="text_19">
      <!-- 2.0 -->
      <g transform="translate(483.91008 197.241948) scale(0.1 -0.1)">
       <use xlink:href="#DejaVuSans-32"/>
       <use xlink:href="#DejaVuSans-2e" transform="translate(63.623047 0)"/>
       <use xlink:href="#DejaVuSans-30" transform="translate(95.410156 0)"/>
      </g>
     </g>
    </g>
    <g id="text_20">
     <!-- [buffer] (mM) -->
     <g transform="translate(366.908594 210.920073) scale(0.1 -0.1)">
      <use xlink:href="#DejaVuSans-5b"/>
      <use xlink:href="#DejaVuSans-62" transform="translate(39.013672 0)"/>
      <use xlink:href="#DejaVuSans-75" transform="translate(102.490234 0)"/>
      <use xlink:href="#DejaVuSans-66" transform="translate(165.869141 0)"/>
      <use xlink:href="#DejaVuSans-66" transform="translate(201.074219 0)"/>
      <use xlink:href="#DejaVuSans-65" transform="translate(236.279297 0)"/>
      <use xlink:href="#DejaVuSans-72" transform="translate(297.802734 0)"/>
      <use xlink:href="#DejaVuSans-5d" transform="translate(338.916016 0)"/>
      <use xlink:href="#DejaVuSans-20" transform="translate(377.929688 0)"/>
      <use xlink:href="#DejaVuSans-28" transform="translate(409.716797 0)"/>
      <use xlink:href="#DejaVuSans-6d" transform="translate(448.730469 0)"/>
      <use xlink:href="#DejaVuSans-4d" transform="translate(546.142578 0)"/>
      <use xlink:href="#DejaVuSans-29" transform="translate(632.421875 0)"/>
     </g>
    </g>
   </g>
   <g id="matplotlib.axis_4">
    <g id="ytick_6">
     <g id="line2d_23">
      <g>
       <use xlink:href="#m4fabc76540" x="299.961177" y="182.64351" style="stroke: #000000; stroke-width: 0.8"/>
      </g>
     </g>
     <g id="text_21">
      <!-- −1.5 -->
      <g transform="translate(268.678365 186.442729) scale(0.1 -0.1)">
       <use xlink:href="#DejaVuSans-2212"/>
       <use xlink:href="#DejaVuSans-31" transform="translate(83.789062 0)"/>
       <use xlink:href="#DejaVuSans-2e" transform="translate(147.412109 0)"/>
       <use xlink:href="#DejaVuSans-35" transform="translate(179.199219 0)"/>
      </g>
     </g>
    </g>
    <g id="ytick_7">
     <g id="line2d_24">
      <g>
       <use xlink:href="#m4fabc76540" x="299.961177" y="138.682497" style="stroke: #000000; stroke-width: 0.8"/>
      </g>
     </g>
     <g id="text_22">
      <!-- −1.0 -->
      <g transform="translate(268.678365 142.481716) scale(0.1 -0.1)">
       <use xlink:href="#DejaVuSans-2212"/>
       <use xlink:href="#DejaVuSans-31" transform="translate(83.789062 0)"/>
       <use xlink:href="#DejaVuSans-2e" transform="translate(147.412109 0)"/>
       <use xlink:href="#DejaVuSans-30" transform="translate(179.199219 0)"/>
      </g>
     </g>
    </g>
    <g id="ytick_8">
     <g id="line2d_25">
      <g>
       <use xlink:href="#m4fabc76540" x="299.961177" y="94.721484" style="stroke: #000000; stroke-width: 0.8"/>
      </g>
     </g>
     <g id="text_23">
      <!-- −0.5 -->
      <g transform="translate(268.678365 98.520703) scale(0.1 -0.1)">
       <use xlink:href="#DejaVuSans-2212"/>
       <use xlink:href="#DejaVuSans-30" transform="translate(83.789062 0)"/>
       <use xlink:href="#DejaVuSans-2e" transform="translate(147.412109 0)"/>
       <use xlink:href="#DejaVuSans-35" transform="translate(179.199219 0)"/>
      </g>
     </g>
    </g>
    <g id="ytick_9">
     <g id="line2d_26">
      <g>
       <use xlink:href="#m4fabc76540" x="299.961177" y="50.760472" style="stroke: #000000; stroke-width: 0.8"/>
      </g>
     </g>
     <g id="text_24">
      <!-- 0.0 -->
      <g transform="translate(277.058052 54.55969) scale(0.1 -0.1)">
       <use xlink:href="#DejaVuSans-30"/>
       <use xlink:href="#DejaVuSans-2e" transform="translate(63.623047 0)"/>
       <use xlink:href="#DejaVuSans-30" transform="translate(95.410156 0)"/>
      </g>
     </g>
    </g>
    <g id="ytick_10">
     <g id="line2d_27">
      <g>
       <use xlink:href="#m4fabc76540" x="299.961177" y="6.799459" style="stroke: #000000; stroke-width: 0.8"/>
      </g>
     </g>
     <g id="text_25">
      <!-- 0.5 -->
      <g transform="translate(277.058052 10.598677) scale(0.1 -0.1)">
       <use xlink:href="#DejaVuSans-30"/>
       <use xlink:href="#DejaVuSans-2e" transform="translate(63.623047 0)"/>
       <use xlink:href="#DejaVuSans-35" transform="translate(95.410156 0)"/>
      </g>
     </g>
    </g>
    <g id="text_26">
     <!-- relative magnitude of LTD -->
     <g transform="translate(262.598678 159.214453) rotate(-90) scale(0.1 -0.1)">
      <defs>
       <path id="DejaVuSans-44" d="M 1259 4147 
L 1259 519 
L 2022 519 
Q 2988 519 3436 956 
Q 3884 1394 3884 2338 
Q 3884 3275 3436 3711 
Q 2988 4147 2022 4147 
L 1259 4147 
z
M 628 4666 
L 1925 4666 
Q 3281 4666 3915 4102 
Q 4550 3538 4550 2338 
Q 4550 1131 3912 565 
Q 3275 0 1925 0 
L 628 0 
L 628 4666 
z
" transform="scale(0.015625)"/>
      </defs>
      <use xlink:href="#DejaVuSans-72"/>
      <use xlink:href="#DejaVuSans-65" transform="translate(38.863281 0)"/>
      <use xlink:href="#DejaVuSans-6c" transform="translate(100.386719 0)"/>
      <use xlink:href="#DejaVuSans-61" transform="translate(128.169922 0)"/>
      <use xlink:href="#DejaVuSans-74" transform="translate(189.449219 0)"/>
      <use xlink:href="#DejaVuSans-69" transform="translate(228.658203 0)"/>
      <use xlink:href="#DejaVuSans-76" transform="translate(256.441406 0)"/>
      <use xlink:href="#DejaVuSans-65" transform="translate(315.621094 0)"/>
      <use xlink:href="#DejaVuSans-20" transform="translate(377.144531 0)"/>
      <use xlink:href="#DejaVuSans-6d" transform="translate(408.931641 0)"/>
      <use xlink:href="#DejaVuSans-61" transform="translate(506.34375 0)"/>
      <use xlink:href="#DejaVuSans-67" transform="translate(567.623047 0)"/>
      <use xlink:href="#DejaVuSans-6e" transform="translate(631.099609 0)"/>
      <use xlink:href="#DejaVuSans-69" transform="translate(694.478516 0)"/>
      <use xlink:href="#DejaVuSans-74" transform="translate(722.261719 0)"/>
      <use xlink:href="#DejaVuSans-75" transform="translate(761.470703 0)"/>
      <use xlink:href="#DejaVuSans-64" transform="translate(824.849609 0)"/>
      <use xlink:href="#DejaVuSans-65" transform="translate(888.326172 0)"/>
      <use xlink:href="#DejaVuSans-20" transform="translate(949.849609 0)"/>
      <use xlink:href="#DejaVuSans-6f" transform="translate(981.636719 0)"/>
      <use xlink:href="#DejaVuSans-66" transform="translate(1042.818359 0)"/>
      <use xlink:href="#DejaVuSans-20" transform="translate(1078.023438 0)"/>
      <use xlink:href="#DejaVuSans-4c" transform="translate(1109.810547 0)"/>
      <use xlink:href="#DejaVuSans-54" transform="translate(1151.773438 0)"/>
      <use xlink:href="#DejaVuSans-44" transform="translate(1212.857422 0)"/>
     </g>
    </g>
   </g>
   <g id="line2d_28">
    <path d="M 309.918857 144.909083 
L 311.738285 144.817653 
L 313.557713 144.690442 
L 315.377141 144.513599 
L 317.196568 144.268051 
L 319.015996 143.927671 
L 320.835424 143.456915 
L 322.654852 142.807904 
L 324.47428 141.917041 
L 326.293708 140.701503 
L 328.113136 139.056447 
L 329.932563 136.854531 
L 331.751991 133.950379 
L 333.571419 130.193613 
L 335.390847 125.454001 
L 337.210275 119.659621 
L 339.029703 112.842151 
L 340.849131 105.173531 
L 342.668558 96.971674 
L 344.487986 88.659288 
L 346.307414 80.682079 
L 348.126842 73.417361 
L 349.94627 67.110492 
L 351.765698 61.858565 
L 353.585126 57.634726 
L 355.404553 54.331808 
L 357.223981 51.8053 
L 359.043409 49.905071 
L 360.862837 48.493961 
L 362.682265 47.455949 
L 364.501693 46.697696 
L 366.321121 46.14662 
L 368.140548 45.747598 
L 369.959976 45.45945 
L 371.779404 45.251772 
L 373.598832 45.102301 
L 375.41826 44.99483 
L 377.237688 44.917615 
L 379.057116 44.862166 
L 380.876543 44.822362 
L 382.695971 44.793798 
L 384.515399 44.773302 
L 386.334827 44.758599 
L 388.154255 44.748051 
L 389.973683 44.740486 
L 391.793111 44.735059 
L 393.612538 44.731167 
L 395.431966 44.728376 
L 397.251394 44.726374 
L 399.070822 44.724938 
L 400.89025 44.723909 
L 402.709678 44.72317 
L 404.529106 44.722641 
L 406.348533 44.722261 
L 408.167961 44.721989 
L 409.987389 44.721793 
L 411.806817 44.721653 
L 413.626245 44.721553 
L 415.445673 44.721481 
L 417.265101 44.721429 
L 419.084528 44.721392 
L 420.903956 44.721365 
L 422.723384 44.721346 
L 424.542812 44.721333 
L 426.36224 44.721323 
L 428.181668 44.721316 
L 430.001095 44.721311 
L 431.820523 44.721307 
L 433.639951 44.721304 
L 435.459379 44.721303 
L 437.278807 44.721301 
L 439.098235 44.7213 
L 440.917663 44.7213 
L 442.73709 44.721299 
L 444.556518 44.721299 
L 446.375946 44.721299 
L 448.195374 44.721298 
L 450.014802 44.721298 
L 451.83423 44.721298 
L 453.653658 44.721298 
L 455.473085 44.721298 
L 457.292513 44.721298 
L 459.111941 44.721298 
L 460.931369 44.721298 
L 462.750797 44.721298 
L 464.570225 44.721298 
L 466.389653 44.721298 
L 468.20908 44.721298 
L 470.028508 44.721298 
L 471.847936 44.721298 
L 473.667364 44.721298 
L 475.486792 44.721298 
L 477.30622 44.721298 
L 479.125648 44.721298 
L 480.945075 44.721298 
L 482.764503 44.721298 
L 484.583931 44.721298 
L 486.403359 44.721298 
L 488.222787 44.721298 
L 490.042215 44.721298 
L 491.861643 44.721298 
" clip-path="url(#p8d20383801)" style="fill: none; stroke: #000000; stroke-width: 2; stroke-linecap: square"/>
   </g>
   <g id="line2d_29">
    <path d="M 309.918857 136.536161 
L 311.738285 136.400023 
L 313.557713 136.220399 
L 315.377141 135.983657 
L 317.196568 135.672087 
L 319.015996 135.262821 
L 320.835424 134.726567 
L 322.654852 134.026228 
L 324.47428 133.115502 
L 326.293708 131.937761 
L 328.113136 130.425633 
L 329.932563 128.502002 
L 331.751991 126.083393 
L 333.571419 123.086854 
L 335.390847 119.44123 
L 337.210275 115.102841 
L 339.029703 110.073741 
L 340.849131 104.418255 
L 342.668558 98.271389 
L 344.487986 91.832969 
L 346.307414 85.345136 
L 348.126842 79.057486 
L 349.94627 73.189921 
L 351.765698 67.904417 
L 353.585126 63.292607 
L 355.404553 59.379216 
L 357.223981 56.136243 
L 359.043409 53.501202 
L 360.862837 51.394151 
L 362.682265 49.730774 
L 364.501693 48.430897 
L 366.321121 47.423111 
L 368.140548 46.646578 
L 369.959976 46.051066 
L 371.779404 45.596037 
L 373.598832 45.249317 
L 375.41826 44.985687 
L 377.237688 44.785557 
L 379.057116 44.633818 
L 380.876543 44.518877 
L 382.695971 44.43187 
L 384.515399 44.366045 
L 386.334827 44.316264 
L 388.154255 44.278629 
L 389.973683 44.250182 
L 391.793111 44.228684 
L 393.612538 44.21244 
L 395.431966 44.200167 
L 397.251394 44.190895 
L 399.070822 44.18389 
L 400.89025 44.178599 
L 402.709678 44.174602 
L 404.529106 44.171582 
L 406.348533 44.169302 
L 408.167961 44.167579 
L 409.987389 44.166278 
L 411.806817 44.165295 
L 413.626245 44.164553 
L 415.445673 44.163992 
L 417.265101 44.163569 
L 419.084528 44.163249 
L 420.903956 44.163007 
L 422.723384 44.162825 
L 424.542812 44.162687 
L 426.36224 44.162583 
L 428.181668 44.162504 
L 430.001095 44.162445 
L 431.820523 44.1624 
L 433.639951 44.162366 
L 435.459379 44.16234 
L 437.278807 44.162321 
L 439.098235 44.162306 
L 440.917663 44.162295 
L 442.73709 44.162287 
L 444.556518 44.162281 
L 446.375946 44.162276 
L 448.195374 44.162272 
L 450.014802 44.16227 
L 451.83423 44.162268 
L 453.653658 44.162266 
L 455.473085 44.162265 
L 457.292513 44.162264 
L 459.111941 44.162263 
L 460.931369 44.162263 
L 462.750797 44.162263 
L 464.570225 44.162262 
L 466.389653 44.162262 
L 468.20908 44.162262 
L 470.028508 44.162262 
L 471.847936 44.162262 
L 473.667364 44.162262 
L 475.486792 44.162262 
L 477.30622 44.162262 
L 479.125648 44.162261 
L 480.945075 44.162261 
L 482.764503 44.162261 
L 484.583931 44.162261 
L 486.403359 44.162261 
L 488.222787 44.162261 
L 490.042215 44.162261 
L 491.861643 44.162261 
" clip-path="url(#p8d20383801)" style="fill: none; stroke: #808080; stroke-width: 2; stroke-linecap: square"/>
   </g>
   <g id="line2d_30">
    <path d="M 299.961177 50.760472 
L 500.99976 50.760472 
" clip-path="url(#p8d20383801)" style="fill: none; stroke-dasharray: 1.85,0.8; stroke-dashoffset: 0; stroke: #000000; stroke-width: 0.5"/>
   </g>
   <g id="patch_9">
    <path d="M 299.961177 182.64351 
L 299.961177 6.799459 
" style="fill: none; stroke: #000000; stroke-width: 0.8; stroke-linejoin: miter; stroke-linecap: square"/>
   </g>
   <g id="patch_10">
    <path d="M 500.99976 182.64351 
L 500.99976 6.799459 
" style="fill: none; stroke: #000000; stroke-width: 0.8; stroke-linejoin: miter; stroke-linecap: square"/>
   </g>
   <g id="patch_11">
    <path d="M 299.961177 182.64351 
L 500.99976 182.64351 
" style="fill: none; stroke: #000000; stroke-width: 0.8; stroke-linejoin: miter; stroke-linecap: square"/>
   </g>
   <g id="patch_12">
    <path d="M 299.961177 6.799459 
L 500.99976 6.799459 
" style="fill: none; stroke: #000000; stroke-width: 0.8; stroke-linejoin: miter; stroke-linecap: square"/>
   </g>
   <g id="legend_2">
    <g id="patch_13">
     <path d="M 430.095073 177.64351 
L 493.99976 177.64351 
Q 495.99976 177.64351 495.99976 175.64351 
L 495.99976 147.28726 
Q 495.99976 145.28726 493.99976 145.28726 
L 430.095073 145.28726 
Q 428.095073 145.28726 428.095073 147.28726 
L 428.095073 175.64351 
Q 428.095073 177.64351 430.095073 177.64351 
z
" style="fill: #ffffff; opacity: 0.8; stroke: #cccccc; stroke-linejoin: miter"/>
    </g>
    <g id="line2d_31">
     <g>
      <use xlink:href="#m28d75006ca" x="442.095073" y="153.385697" style="stroke: #000000"/>
     </g>
    </g>
    <g id="text_27">
     <!-- BAPTA -->
     <g transform="translate(460.095073 156.885697) scale(0.1 -0.1)">
      <use xlink:href="#DejaVuSans-42"/>
      <use xlink:href="#DejaVuSans-41" transform="translate(68.603516 0)"/>
      <use xlink:href="#DejaVuSans-50" transform="translate(137.011719 0)"/>
      <use xlink:href="#DejaVuSans-54" transform="translate(197.314453 0)"/>
      <use xlink:href="#DejaVuSans-41" transform="translate(250.648438 0)"/>
     </g>
    </g>
    <g id="line2d_32">
     <g>
      <use xlink:href="#m1a5369c1b9" x="442.095073" y="168.063823" style="fill: #ffffff; stroke: #000000"/>
     </g>
    </g>
    <g id="text_28">
     <!-- EGTA -->
     <g transform="translate(460.095073 171.563823) scale(0.1 -0.1)">
      <use xlink:href="#DejaVuSans-45"/>
      <use xlink:href="#DejaVuSans-47" transform="translate(63.183594 0)"/>
      <use xlink:href="#DejaVuSans-54" transform="translate(137.048828 0)"/>
      <use xlink:href="#DejaVuSans-41" transform="translate(190.382812 0)"/>
     </g>
    </g>
   </g>
   <g id="line2d_33">
    <g clip-path="url(#p8d20383801)">
     <use xlink:href="#m28d75006ca" x="309.099295" y="139.67709" style="stroke: #000000"/>
     <use xlink:href="#m28d75006ca" x="318.93404" y="150.020858" style="stroke: #000000"/>
     <use xlink:href="#m28d75006ca" x="332.047034" y="132.51602" style="stroke: #000000"/>
     <use xlink:href="#m28d75006ca" x="354.994772" y="55.3356" style="stroke: #000000"/>
     <use xlink:href="#m28d75006ca" x="400.89025" y="41.809134" style="stroke: #000000"/>
     <use xlink:href="#m28d75006ca" x="491.861643" y="47.378855" style="stroke: #000000"/>
    </g>
   </g>
   <g id="line2d_34">
    <g clip-path="url(#p8d20383801)">
     <use xlink:href="#m1a5369c1b9" x="309.099295" y="138.881416" style="fill: #ffffff; stroke: #000000"/>
     <use xlink:href="#m1a5369c1b9" x="318.93404" y="132.51602" style="fill: #ffffff; stroke: #000000"/>
     <use xlink:href="#m1a5369c1b9" x="332.047034" y="126.150625" style="fill: #ffffff; stroke: #000000"/>
     <use xlink:href="#m1a5369c1b9" x="354.994772" y="60.109646" style="fill: #ffffff; stroke: #000000"/>
     <use xlink:href="#m1a5369c1b9" x="400.89025" y="33.056715" style="fill: #ffffff; stroke: #000000"/>
     <use xlink:href="#m1a5369c1b9" x="491.861643" y="55.3356" style="fill: #ffffff; stroke: #000000"/>
    </g>
   </g>
  </g>
 </g>
 <defs>
  <clipPath id="pdbab194e58">
   <rect x="47.961178" y="6.799459" width="201.038582" height="175.844051"/>
  </clipPath>
  <clipPath id="p8d20383801">
   <rect x="299.961177" y="6.799459" width="201.038583" height="175.844051"/>
  </clipPath>
 </defs>
</svg>
